<svg width="528" height="68" viewBox="0 0 528 68" fill="none" xmlns="http://www.w3.org/2000/svg">
<g filter="url(#filter0_f_591_115229)">
<path d="M16.46 21.58C16.46 21.58 40.34 18.02 40.34 33.58C40.34 39.06 37.22 44.5 26.78 44.7V49.26L17.02 49.94L16.46 21.58ZM26.78 36.66C28.66 36.58 32.46 36.06 32.18 33.5C31.94 30.9 28.06 29.66 26.38 29.26L26.78 36.66ZM65.3 32.46C65.3 35.14 64.54 37.82 62.5 39.9L66.94 45.38L58.74 51.06L54.34 43.38C53.5 43.46 52.66 43.54 51.74 43.54V48.1L41.98 48.78L41.42 20.42C41.42 20.42 65.3 16.9 65.3 32.46ZM57.18 32.1C57.42 29.7 53.34 28.66 51.34 28.66V35.54C53.02 35.14 56.94 34.5 57.18 32.1ZM68.4653 21.94H78.8653L79.5453 50.3L67.8253 49.58L68.4653 21.94ZM94.2609 37.46L99.1809 21.94L108.421 23.98L100.341 48.94L88.7409 50.3L80.1009 22.98L91.1009 21.94L94.2609 37.46ZM113.572 23.14L125.172 21.78L133.852 49.1L122.812 50.14L121.852 45.62L115.852 45.9L114.772 50.14L105.532 48.1L113.572 23.14ZM117.372 39.98L120.572 39.86L119.132 33.14L117.372 39.98ZM155.883 22.38L156.243 31.02L148.923 31.22L149.283 50.46L138.083 49.22L138.483 31.54L131.123 31.74L131.483 21.82L155.883 22.38ZM180.324 31.34L165.124 31.02L165.084 32.54L173.484 32.62L173.044 39.02L164.964 38.58L164.884 41.42H180.484L180.844 50.58L156.964 49.66L157.844 22.94L180.844 22.22L180.324 31.34ZM221.55 32.46C221.55 35.14 220.79 37.82 218.75 39.9L223.19 45.38L214.99 51.06L210.59 43.38C209.75 43.46 208.91 43.54 207.99 43.54V48.1L198.23 48.78L197.67 20.42C197.67 20.42 221.55 16.9 221.55 32.46ZM213.43 32.1C213.67 29.7 209.59 28.66 207.59 28.66V35.54C209.27 35.14 213.19 34.5 213.43 32.1ZM237.204 21.42C245.044 21.42 251.364 27.74 251.364 35.58C251.364 43.42 245.044 49.74 237.204 49.74C229.364 49.74 223.044 43.42 223.044 35.58C223.044 27.74 229.364 21.42 237.204 21.42ZM239.444 33.9C240.244 31.5 239.204 29.02 237.124 28.3C235.044 27.62 232.724 29.02 231.964 31.38C231.164 33.78 232.244 36.3 234.284 36.98C236.364 37.7 238.684 36.3 239.444 33.9ZM266.394 21.7L276.914 21.42C276.914 21.42 281.914 49.74 264.714 49.74C247.514 49.74 252.954 21.42 252.954 21.42L263.714 22.3C263.714 22.3 261.434 40.5 264.714 40.5C267.954 40.5 266.394 21.7 266.394 21.7ZM295.795 30.86V22.14L307.235 21.38L305.675 49.98L295.915 49.42L291.915 38.5L292.155 48.66L280.075 49.7L278.955 22.06L289.795 21.38L295.795 30.86ZM309.323 22.06C334.163 21.02 338.123 39.38 330.363 45.66C323.243 51.42 308.803 50.46 308.803 50.46L309.323 22.06ZM318.283 38.94C320.523 38.86 325.483 38.42 325.163 36.18C324.883 33.9 320.163 32.82 318.123 32.46L318.283 38.94ZM363.845 41.66C367.965 41.66 369.845 36.38 369.845 36.38L378.005 41.66C376.365 44.9 372.245 50.14 363.845 50.14C355.445 50.14 349.685 43.5 349.685 35.94C349.685 28.38 355.485 21.78 363.845 21.78C372.205 21.78 375.485 29.06 375.485 29.06L367.245 33.14C367.245 33.14 365.645 30.26 362.805 30.26C360.285 30.26 358.685 33.1 358.805 35.94C358.925 38.82 360.565 41.66 363.845 41.66ZM390.366 21.42L390.526 38.54L399.326 38.26L398.566 49.74L379.526 48.14L378.526 21.42H390.366ZM413.727 21.42C421.567 21.42 427.887 27.74 427.887 35.58C427.887 43.42 421.567 49.74 413.727 49.74C405.887 49.74 399.567 43.42 399.567 35.58C399.567 27.74 405.887 21.42 413.727 21.42ZM415.967 33.9C416.767 31.5 415.727 29.02 413.647 28.3C411.567 27.62 409.247 29.02 408.487 31.38C407.687 33.78 408.767 36.3 410.807 36.98C412.887 37.7 415.207 36.3 415.967 33.9ZM453.797 36.82C458.597 41.3 454.677 50.1 441.437 50.1C432.397 50.1 428.357 45.26 428.357 45.26L432.797 37.54C432.797 37.54 442.957 42.1 443.797 40.78C445.517 38.26 429.637 38.3 428.717 30.98C428.037 25.54 432.517 21.06 441.437 21.06C446.077 21.06 450.877 22.62 452.997 23.86L449.277 32.74C445.317 29.94 439.757 27.74 439.277 30.22C438.917 32.14 449.637 32.9 453.797 36.82ZM479.973 31.34L464.773 31.02L464.733 32.54L473.133 32.62L472.693 39.02L464.613 38.58L464.533 41.42H480.133L480.493 50.58L456.613 49.66L457.493 22.94L480.493 22.22L479.973 31.34ZM482.526 22.06C507.366 21.02 511.326 39.38 503.566 45.66C496.446 51.42 482.006 50.46 482.006 50.46L482.526 22.06ZM491.486 38.94C493.726 38.86 498.686 38.42 498.366 36.18C498.086 33.9 493.366 32.82 491.326 32.46L491.486 38.94Z" fill="#FA18FF"/>
</g>
<path d="M14.46 21.58C14.46 21.58 38.34 18.02 38.34 33.58C38.34 39.06 35.22 44.5 24.78 44.7V49.26L15.02 49.94L14.46 21.58ZM24.78 36.66C26.66 36.58 30.46 36.06 30.18 33.5C29.94 30.9 26.06 29.66 24.38 29.26L24.78 36.66ZM63.3 32.46C63.3 35.14 62.54 37.82 60.5 39.9L64.94 45.38L56.74 51.06L52.34 43.38C51.5 43.46 50.66 43.54 49.74 43.54V48.1L39.98 48.78L39.42 20.42C39.42 20.42 63.3 16.9 63.3 32.46ZM55.18 32.1C55.42 29.7 51.34 28.66 49.34 28.66V35.54C51.02 35.14 54.94 34.5 55.18 32.1ZM66.4653 21.94H76.8653L77.5453 50.3L65.8253 49.58L66.4653 21.94ZM92.2609 37.46L97.1809 21.94L106.421 23.98L98.3409 48.94L86.7409 50.3L78.1009 22.98L89.1009 21.94L92.2609 37.46ZM111.572 23.14L123.172 21.78L131.852 49.1L120.812 50.14L119.852 45.62L113.852 45.9L112.772 50.14L103.532 48.1L111.572 23.14ZM115.372 39.98L118.572 39.86L117.132 33.14L115.372 39.98ZM153.883 22.38L154.243 31.02L146.923 31.22L147.283 50.46L136.083 49.22L136.483 31.54L129.123 31.74L129.483 21.82L153.883 22.38ZM178.324 31.34L163.124 31.02L163.084 32.54L171.484 32.62L171.044 39.02L162.964 38.58L162.884 41.42H178.484L178.844 50.58L154.964 49.66L155.844 22.94L178.844 22.22L178.324 31.34ZM219.55 32.46C219.55 35.14 218.79 37.82 216.75 39.9L221.19 45.38L212.99 51.06L208.59 43.38C207.75 43.46 206.91 43.54 205.99 43.54V48.1L196.23 48.78L195.67 20.42C195.67 20.42 219.55 16.9 219.55 32.46ZM211.43 32.1C211.67 29.7 207.59 28.66 205.59 28.66V35.54C207.27 35.14 211.19 34.5 211.43 32.1ZM235.204 21.42C243.044 21.42 249.364 27.74 249.364 35.58C249.364 43.42 243.044 49.74 235.204 49.74C227.364 49.74 221.044 43.42 221.044 35.58C221.044 27.74 227.364 21.42 235.204 21.42ZM237.444 33.9C238.244 31.5 237.204 29.02 235.124 28.3C233.044 27.62 230.724 29.02 229.964 31.38C229.164 33.78 230.244 36.3 232.284 36.98C234.364 37.7 236.684 36.3 237.444 33.9ZM264.394 21.7L274.914 21.42C274.914 21.42 279.914 49.74 262.714 49.74C245.514 49.74 250.954 21.42 250.954 21.42L261.714 22.3C261.714 22.3 259.434 40.5 262.714 40.5C265.954 40.5 264.394 21.7 264.394 21.7ZM293.795 30.86V22.14L305.235 21.38L303.675 49.98L293.915 49.42L289.915 38.5L290.155 48.66L278.075 49.7L276.955 22.06L287.795 21.38L293.795 30.86ZM307.323 22.06C332.163 21.02 336.123 39.38 328.363 45.66C321.243 51.42 306.803 50.46 306.803 50.46L307.323 22.06ZM316.283 38.94C318.523 38.86 323.483 38.42 323.163 36.18C322.883 33.9 318.163 32.82 316.123 32.46L316.283 38.94ZM361.845 41.66C365.965 41.66 367.845 36.38 367.845 36.38L376.005 41.66C374.365 44.9 370.245 50.14 361.845 50.14C353.445 50.14 347.685 43.5 347.685 35.94C347.685 28.38 353.485 21.78 361.845 21.78C370.205 21.78 373.485 29.06 373.485 29.06L365.245 33.14C365.245 33.14 363.645 30.26 360.805 30.26C358.285 30.26 356.685 33.1 356.805 35.94C356.925 38.82 358.565 41.66 361.845 41.66ZM388.366 21.42L388.526 38.54L397.326 38.26L396.566 49.74L377.526 48.14L376.526 21.42H388.366ZM411.727 21.42C419.567 21.42 425.887 27.74 425.887 35.58C425.887 43.42 419.567 49.74 411.727 49.74C403.887 49.74 397.567 43.42 397.567 35.58C397.567 27.74 403.887 21.42 411.727 21.42ZM413.967 33.9C414.767 31.5 413.727 29.02 411.647 28.3C409.567 27.62 407.247 29.02 406.487 31.38C405.687 33.78 406.767 36.3 408.807 36.98C410.887 37.7 413.207 36.3 413.967 33.9ZM451.797 36.82C456.597 41.3 452.677 50.1 439.437 50.1C430.397 50.1 426.357 45.26 426.357 45.26L430.797 37.54C430.797 37.54 440.957 42.1 441.797 40.78C443.517 38.26 427.637 38.3 426.717 30.98C426.037 25.54 430.517 21.06 439.437 21.06C444.077 21.06 448.877 22.62 450.997 23.86L447.277 32.74C443.317 29.94 437.757 27.74 437.277 30.22C436.917 32.14 447.637 32.9 451.797 36.82ZM477.973 31.34L462.773 31.02L462.733 32.54L471.133 32.62L470.693 39.02L462.613 38.58L462.533 41.42H478.133L478.493 50.58L454.613 49.66L455.493 22.94L478.493 22.22L477.973 31.34ZM480.526 22.06C505.366 21.02 509.326 39.38 501.566 45.66C494.446 51.42 480.006 50.46 480.006 50.46L480.526 22.06ZM489.486 38.94C491.726 38.86 496.686 38.42 496.366 36.18C496.086 33.9 491.366 32.82 489.326 32.46L489.486 38.94Z" fill="#8A1FF5"/>
<path d="M11.46 18.58C11.46 18.58 35.34 15.02 35.34 30.58C35.34 36.06 32.22 41.5 21.78 41.7V46.26L12.02 46.94L11.46 18.58ZM21.78 33.66C23.66 33.58 27.46 33.06 27.18 30.5C26.94 27.9 23.06 26.66 21.38 26.26L21.78 33.66ZM60.3 29.46C60.3 32.14 59.54 34.82 57.5 36.9L61.94 42.38L53.74 48.06L49.34 40.38C48.5 40.46 47.66 40.54 46.74 40.54V45.1L36.98 45.78L36.42 17.42C36.42 17.42 60.3 13.9 60.3 29.46ZM52.18 29.1C52.42 26.7 48.34 25.66 46.34 25.66V32.54C48.02 32.14 51.94 31.5 52.18 29.1ZM63.4653 18.94H73.8653L74.5453 47.3L62.8253 46.58L63.4653 18.94ZM89.2609 34.46L94.1809 18.94L103.421 20.98L95.3409 45.94L83.7409 47.3L75.1009 19.98L86.1009 18.94L89.2609 34.46ZM108.572 20.14L120.172 18.78L128.852 46.1L117.812 47.14L116.852 42.62L110.852 42.9L109.772 47.14L100.532 45.1L108.572 20.14ZM112.372 36.98L115.572 36.86L114.132 30.14L112.372 36.98ZM150.883 19.38L151.243 28.02L143.923 28.22L144.283 47.46L133.083 46.22L133.483 28.54L126.123 28.74L126.483 18.82L150.883 19.38ZM175.324 28.34L160.124 28.02L160.084 29.54L168.484 29.62L168.044 36.02L159.964 35.58L159.884 38.42H175.484L175.844 47.58L151.964 46.66L152.844 19.94L175.844 19.22L175.324 28.34ZM216.55 29.46C216.55 32.14 215.79 34.82 213.75 36.9L218.19 42.38L209.99 48.06L205.59 40.38C204.75 40.46 203.91 40.54 202.99 40.54V45.1L193.23 45.78L192.67 17.42C192.67 17.42 216.55 13.9 216.55 29.46ZM208.43 29.1C208.67 26.7 204.59 25.66 202.59 25.66V32.54C204.27 32.14 208.19 31.5 208.43 29.1ZM232.204 18.42C240.044 18.42 246.364 24.74 246.364 32.58C246.364 40.42 240.044 46.74 232.204 46.74C224.364 46.74 218.044 40.42 218.044 32.58C218.044 24.74 224.364 18.42 232.204 18.42ZM234.444 30.9C235.244 28.5 234.204 26.02 232.124 25.3C230.044 24.62 227.724 26.02 226.964 28.38C226.164 30.78 227.244 33.3 229.284 33.98C231.364 34.7 233.684 33.3 234.444 30.9ZM261.394 18.7L271.914 18.42C271.914 18.42 276.914 46.74 259.714 46.74C242.514 46.74 247.954 18.42 247.954 18.42L258.714 19.3C258.714 19.3 256.434 37.5 259.714 37.5C262.954 37.5 261.394 18.7 261.394 18.7ZM290.795 27.86V19.14L302.235 18.38L300.675 46.98L290.915 46.42L286.915 35.5L287.155 45.66L275.075 46.7L273.955 19.06L284.795 18.38L290.795 27.86ZM304.323 19.06C329.163 18.02 333.123 36.38 325.363 42.66C318.243 48.42 303.803 47.46 303.803 47.46L304.323 19.06ZM313.283 35.94C315.523 35.86 320.483 35.42 320.163 33.18C319.883 30.9 315.163 29.82 313.123 29.46L313.283 35.94ZM358.845 38.66C362.965 38.66 364.845 33.38 364.845 33.38L373.005 38.66C371.365 41.9 367.245 47.14 358.845 47.14C350.445 47.14 344.685 40.5 344.685 32.94C344.685 25.38 350.485 18.78 358.845 18.78C367.205 18.78 370.485 26.06 370.485 26.06L362.245 30.14C362.245 30.14 360.645 27.26 357.805 27.26C355.285 27.26 353.685 30.1 353.805 32.94C353.925 35.82 355.565 38.66 358.845 38.66ZM385.366 18.42L385.526 35.54L394.326 35.26L393.566 46.74L374.526 45.14L373.526 18.42H385.366ZM408.727 18.42C416.567 18.42 422.887 24.74 422.887 32.58C422.887 40.42 416.567 46.74 408.727 46.74C400.887 46.74 394.567 40.42 394.567 32.58C394.567 24.74 400.887 18.42 408.727 18.42ZM410.967 30.9C411.767 28.5 410.727 26.02 408.647 25.3C406.567 24.62 404.247 26.02 403.487 28.38C402.687 30.78 403.767 33.3 405.807 33.98C407.887 34.7 410.207 33.3 410.967 30.9ZM448.797 33.82C453.597 38.3 449.677 47.1 436.437 47.1C427.397 47.1 423.357 42.26 423.357 42.26L427.797 34.54C427.797 34.54 437.957 39.1 438.797 37.78C440.517 35.26 424.637 35.3 423.717 27.98C423.037 22.54 427.517 18.06 436.437 18.06C441.077 18.06 445.877 19.62 447.997 20.86L444.277 29.74C440.317 26.94 434.757 24.74 434.277 27.22C433.917 29.14 444.637 29.9 448.797 33.82ZM474.973 28.34L459.773 28.02L459.733 29.54L468.133 29.62L467.693 36.02L459.613 35.58L459.533 38.42H475.133L475.493 47.58L451.613 46.66L452.493 19.94L475.493 19.22L474.973 28.34ZM477.526 19.06C502.366 18.02 506.326 36.38 498.566 42.66C491.446 48.42 477.006 47.46 477.006 47.46L477.526 19.06ZM486.486 35.94C488.726 35.86 493.686 35.42 493.366 33.18C493.086 30.9 488.366 29.82 486.326 29.46L486.486 35.94Z" fill="white"/>
<defs>
<filter id="filter0_f_591_115229" x="0.460022" y="0.899902" width="526.866" height="66.52" filterUnits="userSpaceOnUse" color-interpolation-filters="sRGB">
<feFlood flood-opacity="0" result="BackgroundImageFix"/>
<feBlend mode="normal" in="SourceGraphic" in2="BackgroundImageFix" result="shape"/>
<feGaussianBlur stdDeviation="8" result="effect1_foregroundBlur_591_115229"/>
</filter>
</defs>
</svg>
