<svg width="303" height="154" viewBox="0 0 303 154" fill="none" xmlns="http://www.w3.org/2000/svg">
<g opacity="0.6" filter="url(#filter0_f_591_122288)">
<path d="M139.578 76.5921C94.1363 80.1399 73.9486 88.5629 105.768 91.9972C137.587 95.4315 124.362 106.02 103.787 106.02C94.4235 106.02 10.1185 106.984 26.9719 117.4C43.8253 127.817 117.061 131.009 153.563 129.735C200.71 128.091 177.71 118.908 227.022 119.319C257.568 119.574 271.285 114.796 252.484 107.006C238.624 101.264 218.414 91.8524 238.823 91.9972C259.232 92.142 298.146 88.0697 265.777 80.6428C245.514 75.9936 159.146 75.0643 139.578 76.5921Z" fill="#0023DA" style="mix-blend-mode:multiply"/>
<path style="mix-blend-mode:multiply" opacity="0.8" d="M252.484 107.006C238.624 101.264 218.414 91.8523 238.823 91.9971C259.232 92.142 298.146 88.0698 265.777 80.6428C255.512 78.2876 228.281 76.8875 201.364 76.2775C213.134 77.3561 247.306 80.605 257.442 82.8614C269.756 85.6027 254.113 88.0698 241.882 88.6101C229.651 89.1504 194.35 85.2965 210.536 89.9458C226.723 94.595 243.279 107.532 247.507 113.563C251.735 119.593 211.039 114.111 186.191 116.304C161.343 118.497 172.457 123.979 157.395 127.817C142.332 131.654 44.0656 123.004 44.0602 123.004C72.8114 128.954 124.683 130.743 153.564 129.736C200.71 128.091 177.71 118.908 227.022 119.319C257.568 119.574 271.285 114.796 252.484 107.006Z" fill="#0023DA"/>
<g style="mix-blend-mode:screen" opacity="0.92">
<path d="M113.25 114.301C113.25 117.692 96.1522 120.44 75.0606 120.44C53.9689 120.44 36.8706 117.692 36.8706 114.301C36.8706 110.911 53.9688 108.162 75.0606 108.162C96.1523 108.162 113.25 110.911 113.25 114.301Z" fill="#0023DA" style="mix-blend-mode:multiply"/>
</g>
<g style="mix-blend-mode:screen" opacity="0.92">
<path d="M110.653 89.7143C119.392 89.7143 126.476 87.9194 126.476 85.7053C126.476 83.4913 119.392 81.6964 110.653 81.6964C101.915 81.6964 94.8305 83.4913 94.8305 85.7053C94.8305 87.9194 101.915 89.7143 110.653 89.7143Z" fill="#0023DA" style="mix-blend-mode:multiply"/>
</g>
<g style="mix-blend-mode:screen" opacity="0.19">
<path d="M248.609 83.3123C248.609 84.7866 241.948 85.9819 233.731 85.9819C225.514 85.9819 218.853 84.7866 218.853 83.3123C218.853 81.8381 225.514 80.6427 233.731 80.6427C241.948 80.6427 248.609 81.8379 248.609 83.3123Z" fill="#0023DA" style="mix-blend-mode:multiply"/>
</g>
<path d="M138.471 24.1833L181.633 24.9531C183.157 25.049 184.593 25.6995 185.671 26.7825L191.136 38.5996C192.068 39.4094 192.808 40.4184 193.301 41.5525C193.793 42.6866 194.026 43.9169 193.982 45.1531L190.45 90.6668C190.276 91.7533 189.701 92.7348 188.84 93.4174C187.98 94.1 186.895 94.4342 185.8 94.354L131.541 93.9019C130.425 93.969 129.326 93.6033 128.471 92.8805C127.617 92.1577 127.072 91.1331 126.95 90.0187L125.289 42.6569C125.295 41.4251 125.573 40.21 126.105 39.0994C126.636 37.9887 127.407 37.0103 128.361 36.2346L134.178 25.8418C135.338 24.7471 136.879 24.1517 138.471 24.1833Z" fill="#0023DA" style="mix-blend-mode:multiply"/>
<path style="mix-blend-mode:multiply" opacity="0.21" d="M127.809 42.9907C130.11 40.2894 160.869 40.7927 175.203 40.8253C189.537 40.8581 191.426 40.1975 191.212 43.5313C190.983 46.8648 192.714 87.312 186.455 90.8108C180.045 94.3058 132.718 94.4167 130.891 90.4575C129.12 86.4998 125.199 45.9982 127.809 42.9907Z" fill="#0023DA"/>
<path style="mix-blend-mode:multiply" opacity="0.8" d="M189.741 45.4566C193.494 50.1249 192.116 85.7001 185.923 89.0331C179.587 92.3625 134.182 95.0162 130.891 90.4575C127.708 85.9015 131.498 76.7877 139.518 74.9116C149.345 72.5767 175.417 62.3404 177.253 56.5905C179.002 50.8382 186.76 41.6495 189.741 45.4566Z" fill="#0023DA"/>
<path style="mix-blend-mode:multiply" opacity="0.8" d="M156.343 90.6471C166.043 92.2024 180.236 91.5297 183.139 88.5368C185.983 85.5421 190.857 65.4766 188.269 65.9577C185.671 66.4387 185.449 79.1854 180.923 81.4606C176.326 83.734 152.382 90.0085 156.343 90.6471Z" fill="#0023DA"/>
<g style="mix-blend-mode:screen">
<path d="M127.158 91.045C127.058 90.709 127.118 52.3051 127.893 48.963C128.659 45.6208 131.239 44.0398 132.69 44.2288C134.142 44.4179 134.641 43.438 135.245 42.4023C135.846 41.3666 143.836 39.7067 152.482 40.8008C161.199 41.8967 182.847 40.6534 185.28 40.7577C187.678 41.0545 189.945 42.0175 191.826 43.538C192.736 44.7267 193.421 46.0731 193.846 47.5101C193.846 47.5101 193.537 41.5089 192.616 40.3306C191.703 39.1524 188.554 33.0165 188.554 33.0165C188.554 33.0165 189.37 37.102 188.105 37.8257C186.833 38.5492 182.121 38.226 177.669 38.1721C173.219 38.1184 175.339 41.4589 168.888 40.085C162.503 38.7127 145.128 40.2187 144.869 39.097C144.613 37.9753 141.803 35.0068 138.035 34.7209C134.274 34.4353 134.125 37.8019 131.583 37.6968C129.044 37.5919 131.541 31.6384 131.541 31.6384C129.743 34.1962 128.151 36.8935 126.779 39.7045C125.648 42.5131 127.158 91.045 127.158 91.045Z" fill="#0023DA" style="mix-blend-mode:multiply"/>
</g>
<g style="mix-blend-mode:screen" opacity="0.78">
<path d="M133.755 26.4464C133.755 26.4464 129.524 36.4622 128.527 38.423C127.518 40.3837 174.106 40.0244 179.511 39.1535C190.055 37.441 172.237 33.0702 163.413 29.1739C159.391 27.3478 136.578 21.788 133.755 26.4464Z" fill="#0023DA" style="mix-blend-mode:multiply"/>
</g>
<path style="mix-blend-mode:multiply" opacity="0.21" d="M130.097 67.2127C124.249 73.3926 125.846 44.3375 130.832 42.855C135.765 41.3711 155.337 40.2874 159.437 41.2161C171.337 43.8792 149.459 47.117 142.553 50.2064C135.492 53.2919 132.547 64.5511 130.097 67.2127Z" fill="#0023DA"/>
<g style="mix-blend-mode:screen" opacity="0.92">
<path d="M135.478 31.0882C131.227 34.2071 127.506 37.605 131.966 38.5655C136.459 39.5268 158.09 41.4591 156.649 38.2777C155.243 35.0971 137.707 29.4221 135.478 31.0882Z" fill="#0023DA" style="mix-blend-mode:multiply"/>
</g>
<path d="M133.803 34.4153C131.823 35.3682 127.856 38.702 128.89 39.7869C129.933 40.8721 129.603 39.8414 136.059 39.5455C142.499 39.2492 148.273 41.8198 146.898 39.3655C145.552 36.9119 136.142 33.2802 133.803 34.4153Z" fill="#0023DA" style="mix-blend-mode:multiply"/>
<path d="M187.098 37.4928C183.931 37.8031 180.79 38.3407 177.699 39.1016C176.41 39.417 184.166 39.603 187.277 40.1187C190.4 40.6348 192.41 43.8058 191.071 40.9946C189.754 38.1841 187.99 37.4742 187.098 37.4928Z" fill="#0023DA" style="mix-blend-mode:multiply"/>
<g style="mix-blend-mode:screen" opacity="0.78">
<path d="M159.292 24.9528C161.308 25.2324 178.64 24.8851 180.615 26.0499C182.607 27.2152 187.654 31.0691 187.654 31.0691C187.654 31.0691 185.328 26.232 183.476 25.5922C181.633 24.9528 159.292 24.9528 159.292 24.9528Z" fill="#0023DA" style="mix-blend-mode:multiply"/>
</g>
<path d="M187.118 101.678C180.339 84.2113 207.163 71.3915 212.718 74.8733C218.273 78.355 234.316 100.094 228.583 104.584C222.85 109.074 191.05 111.81 187.118 101.678Z" fill="#0023DA" style="mix-blend-mode:multiply"/>
<path style="mix-blend-mode:multiply" d="M188.852 103.158C187.494 101.438 210.644 98.3322 213.107 93.9254C215.571 89.5187 209.501 77.329 210.694 76.9367C214.791 75.5891 230.826 95.5342 227.458 103.024C223.817 111.124 191.012 105.893 188.852 103.158Z" fill="#0023DA"/>
<g style="mix-blend-mode:screen" opacity="0.39">
<path d="M187.342 97.4303C186.436 93.726 188.874 90.0151 191.417 86.1506C193.899 82.3783 195.765 83.1794 198.42 86.4083C200.755 89.2481 207.199 91.3518 204.382 94.0351C200.939 96.911 196.668 98.6065 192.195 98.8732C188.675 98.8459 187.989 100.075 187.342 97.4303Z" fill="#0023DA" style="mix-blend-mode:multiply"/>
</g>
<g opacity="0.4">
<path d="M186.555 92.173C186.888 95.1925 185.012 99.3341 188.911 99.5782C192.809 99.8224 206.746 97.6665 208.673 94.643C210.601 91.6194 215.548 91.6344 212.633 84.8317C209.718 78.029 210.694 76.937 210.694 76.937C211.699 80.3757 212.969 83.7308 214.494 86.9717C216.381 90.5047 214.059 92.7897 213.098 94.7042C212.137 96.6188 205.505 97.9418 202.718 98.6953C199.931 99.4488 187.327 102.274 188.852 103.159C190.146 104.054 191.326 105.104 192.366 106.286C191.05 105.819 189.858 105.058 188.88 104.06C187.901 103.062 187.162 101.854 186.719 100.528C186.006 97.795 185.95 94.9317 186.555 92.173Z" fill="#0023DA" style="mix-blend-mode:multiply"/>
</g>
<path d="M186.793 96.0198C186.537 98.223 186.728 101.169 189.604 101.117C192.48 101.064 195.429 99.894 196.217 98.9448C197.004 97.9955 192.035 99.3373 189.973 98.5743C187.912 97.8113 187.035 93.946 186.793 96.0198Z" fill="#0023DA" style="mix-blend-mode:multiply"/>
</g>
<path d="M131.827 71.4106C86.3851 74.9583 66.1974 83.3813 98.0165 86.8156C129.836 90.25 116.611 100.838 96.0354 100.838C86.6723 100.838 2.36731 101.802 19.2207 112.219C36.0741 122.635 109.31 125.827 145.812 124.554C192.958 122.909 169.959 113.726 219.271 114.137C249.816 114.392 263.534 109.615 244.733 101.825C230.873 96.0822 210.663 86.6708 231.072 86.8156C251.481 86.9605 290.395 82.8882 258.026 75.4612C237.763 70.8121 151.395 69.8828 131.827 71.4106Z" fill="url(#paint0_linear_591_122288)"/>
<path style="mix-blend-mode:multiply" opacity="0.8" d="M244.733 101.825C230.873 96.082 210.663 86.6705 231.072 86.8153C251.481 86.9602 290.395 82.888 258.026 75.461C247.761 73.1058 220.53 71.7057 193.613 71.0957C205.383 72.1743 239.555 75.4232 249.691 77.6796C262.005 80.4209 246.362 82.888 234.131 83.4283C221.899 83.9686 186.599 80.1147 202.785 84.764C218.972 89.4132 235.527 102.35 239.756 108.381C243.984 114.412 203.288 108.929 178.44 111.122C153.591 113.315 164.706 118.797 149.643 122.635C134.581 126.472 36.3144 117.823 36.309 117.822C65.0602 123.772 116.931 125.561 145.812 124.554C192.958 122.909 169.959 113.726 219.27 114.137C249.817 114.392 263.534 109.614 244.733 101.825Z" fill="url(#paint1_linear_591_122288)"/>
<path style="mix-blend-mode:screen" opacity="0.92" d="M105.499 109.12C105.499 112.51 88.401 115.259 67.3093 115.259C46.2177 115.259 29.1194 112.51 29.1194 109.12C29.1194 105.729 46.2176 102.981 67.3093 102.981C88.4011 102.981 105.499 105.729 105.499 109.12Z" fill="url(#paint2_linear_591_122288)"/>
<path style="mix-blend-mode:screen" opacity="0.92" d="M102.902 84.533C111.641 84.533 118.725 82.7382 118.725 80.5241C118.725 78.31 111.641 76.5151 102.902 76.5151C94.1634 76.5151 87.0792 78.31 87.0792 80.5241C87.0792 82.7382 94.1634 84.533 102.902 84.533Z" fill="url(#paint3_linear_591_122288)"/>
<path style="mix-blend-mode:screen" opacity="0.19" d="M240.858 78.1311C240.858 79.6053 234.197 80.8006 225.98 80.8006C217.763 80.8006 211.102 79.6053 211.102 78.1311C211.102 76.6568 217.763 75.4614 225.98 75.4614C234.197 75.4614 240.858 76.6567 240.858 78.1311Z" fill="url(#paint4_linear_591_122288)"/>
<path d="M130.72 19.0012L173.882 19.771C175.405 19.8669 176.841 20.5174 177.92 21.6004L183.385 33.4175C184.317 34.2273 185.057 35.2363 185.549 36.3704C186.042 37.5045 186.275 38.7348 186.231 39.971L182.699 85.4847C182.524 86.5712 181.95 87.5527 181.089 88.2353C180.228 88.9179 179.144 89.2521 178.049 89.1719L123.789 88.7198C122.673 88.7869 121.574 88.4212 120.72 87.6984C119.865 86.9756 119.321 85.951 119.199 84.8366L117.538 37.4748C117.544 36.243 117.822 35.0279 118.354 33.9173C118.885 32.8066 119.655 31.8282 120.61 31.0525L126.427 20.6597C127.586 19.565 129.128 18.9696 130.72 19.0012Z" fill="url(#paint5_linear_591_122288)"/>
<path style="mix-blend-mode:multiply" opacity="0.21" d="M120.058 37.8084C122.359 35.1071 153.118 35.6104 167.452 35.643C181.786 35.6758 183.674 35.0151 183.461 38.3489C183.232 41.6825 184.963 82.1297 178.704 85.6285C172.294 89.1234 124.967 89.2343 123.14 85.2751C121.369 81.3175 117.448 40.8159 120.058 37.8084Z" fill="url(#paint6_radial_591_122288)"/>
<path style="mix-blend-mode:multiply" opacity="0.8" d="M181.99 40.2748C185.743 44.9431 184.365 80.5183 178.172 83.8513C171.836 87.1807 126.43 89.8344 123.14 85.2757C119.957 80.7197 123.747 71.6059 131.767 69.7298C141.593 67.3949 167.665 57.1586 169.502 51.4087C171.251 45.6564 179.009 36.4677 181.99 40.2748Z" fill="url(#paint7_linear_591_122288)"/>
<path style="mix-blend-mode:multiply" opacity="0.8" d="M148.591 85.4653C158.292 87.0206 172.484 86.3479 175.388 83.355C178.231 80.3603 183.106 60.2948 180.517 60.7759C177.92 61.2569 177.698 74.0036 173.172 76.2788C168.575 78.5522 144.631 84.8267 148.591 85.4653Z" fill="url(#paint8_radial_591_122288)"/>
<path style="mix-blend-mode:screen" d="M119.407 85.8627C119.307 85.5266 119.367 47.1228 120.142 43.7807C120.908 40.4385 123.488 38.8575 124.938 39.0465C126.391 39.2356 126.89 38.2556 127.494 37.22C128.095 36.1843 136.084 34.5244 144.731 35.6185C153.448 36.7144 175.096 35.4711 177.529 35.5754C179.927 35.8722 182.194 36.8352 184.075 38.3557C184.985 39.5444 185.67 40.8908 186.094 42.3278C186.094 42.3278 185.786 36.3265 184.865 35.1483C183.952 33.9701 180.803 27.8342 180.803 27.8342C180.803 27.8342 181.618 31.9197 180.354 32.6434C179.081 33.3669 174.37 33.0437 169.918 32.9898C165.468 32.936 167.587 36.2766 161.137 34.9027C154.752 33.5303 137.376 35.0364 137.118 33.9147C136.862 32.793 134.052 29.8245 130.283 29.5386C126.523 29.253 126.374 32.6196 123.832 32.5145C121.292 32.4096 123.79 26.4561 123.79 26.4561C121.992 29.0139 120.399 31.7111 119.028 34.5222C117.897 37.3307 119.407 85.8627 119.407 85.8627Z" fill="url(#paint9_radial_591_122288)"/>
<path style="mix-blend-mode:screen" opacity="0.78" d="M126.004 21.2646C126.004 21.2646 121.773 31.2804 120.776 33.2412C119.767 35.2019 166.355 34.8426 171.76 33.9717C182.304 32.2592 164.486 27.8884 155.661 23.9921C151.64 22.166 128.827 16.6062 126.004 21.2646Z" fill="url(#paint10_linear_591_122288)"/>
<path style="mix-blend-mode:multiply" opacity="0.21" d="M122.346 62.0309C116.498 68.2108 118.094 39.1557 123.081 37.6732C128.014 36.1893 147.586 35.1056 151.686 36.0343C163.585 38.6974 141.708 41.9352 134.802 45.0246C127.741 48.1101 124.795 59.3693 122.346 62.0309Z" fill="url(#paint11_radial_591_122288)"/>
<path style="mix-blend-mode:screen" opacity="0.92" d="M127.726 25.9058C123.475 29.0247 119.755 32.4227 124.215 33.3832C128.708 34.3445 150.339 36.2768 148.897 33.0953C147.492 29.9148 129.955 24.2397 127.726 25.9058Z" fill="url(#paint12_radial_591_122288)"/>
<path d="M126.052 29.234C124.072 30.1869 120.105 33.5207 121.138 34.6056C122.181 35.6909 121.852 34.6601 128.307 34.3643C134.748 34.0679 140.522 36.6386 139.147 34.1842C137.8 31.7306 128.391 28.0989 126.052 29.234Z" fill="white"/>
<path d="M179.347 32.3105C176.179 32.6207 173.038 33.1584 169.948 33.9193C168.659 34.2347 176.415 34.4207 179.526 34.9364C182.649 35.4525 184.659 38.6234 183.32 35.8123C182.003 33.0017 180.239 32.2919 179.347 32.3105Z" fill="white"/>
<path style="mix-blend-mode:screen" opacity="0.78" d="M151.54 19.771C153.557 20.0506 170.889 19.7033 172.864 20.8681C174.856 22.0334 179.902 25.8873 179.902 25.8873C179.902 25.8873 177.577 21.0502 175.725 20.4104C173.882 19.771 151.54 19.771 151.54 19.771Z" fill="url(#paint13_linear_591_122288)"/>
<path d="M179.367 96.4965C172.588 79.0297 199.411 66.21 204.966 69.6917C210.521 73.1734 226.565 94.9124 220.832 99.4022C215.099 103.892 183.299 106.628 179.367 96.4965Z" fill="url(#paint14_linear_591_122288)"/>
<path style="mix-blend-mode:multiply" d="M181.101 97.9765C179.743 96.2564 202.892 93.1504 205.356 88.7436C207.819 84.3369 201.75 72.1472 202.943 71.7549C207.04 70.4073 223.074 90.3524 219.707 97.8427C216.066 105.942 183.261 100.711 181.101 97.9765Z" fill="url(#paint15_linear_591_122288)"/>
<path style="mix-blend-mode:screen" opacity="0.39" d="M179.591 92.2485C178.685 88.5442 181.123 84.8333 183.666 80.9688C186.148 77.1965 188.014 77.9976 190.669 81.2265C193.004 84.0663 199.448 86.17 196.63 88.8533C193.188 91.7292 188.917 93.4247 184.444 93.6914C180.923 93.6641 180.238 94.8935 179.591 92.2485Z" fill="url(#paint16_linear_591_122288)"/>
<path opacity="0.4" d="M178.804 86.9918C179.137 90.0112 177.261 94.1528 181.159 94.397C185.058 94.6411 198.995 92.4852 200.922 89.4617C202.849 86.4381 207.797 86.4532 204.882 79.6504C201.967 72.8477 202.942 71.7557 202.942 71.7557C203.948 75.1945 205.218 78.5495 206.743 81.7904C208.629 85.3235 206.308 87.6084 205.347 89.523C204.386 91.4375 197.753 92.7605 194.967 93.514C192.18 94.2676 179.575 97.0928 181.101 97.9773C182.395 98.8725 183.575 99.9227 184.615 101.105C183.299 100.638 182.107 99.8763 181.129 98.8787C180.15 97.881 179.411 96.6731 178.967 95.3465C178.255 92.6137 178.199 89.7504 178.804 86.9918Z" fill="white"/>
<path d="M179.042 90.8385C178.785 93.0417 178.976 95.988 181.852 95.9355C184.729 95.8829 187.677 94.7127 188.465 93.7635C189.253 92.8142 184.284 94.156 182.222 93.393C180.16 92.63 179.284 88.7647 179.042 90.8385Z" fill="white"/>
<defs>
<filter id="filter0_f_591_122288" x="0.751221" y="0.182098" width="301.425" height="153.818" filterUnits="userSpaceOnUse" color-interpolation-filters="sRGB">
<feFlood flood-opacity="0" result="BackgroundImageFix"/>
<feBlend mode="normal" in="SourceGraphic" in2="BackgroundImageFix" result="shape"/>
<feGaussianBlur stdDeviation="12" result="effect1_foregroundBlur_591_122288"/>
</filter>
<linearGradient id="paint0_linear_591_122288" x1="347.073" y1="98.0186" x2="15.9196" y2="97.0222" gradientUnits="userSpaceOnUse">
<stop stop-color="#2A49FF"/>
<stop offset="0.35964" stop-color="#5B94F5"/>
<stop offset="0.65837" stop-color="#7FCBED"/>
<stop offset="0.88001" stop-color="#95EDE9"/>
<stop offset="1" stop-color="#9DFAE7"/>
</linearGradient>
<linearGradient id="paint1_linear_591_122288" x1="36.309" y1="97.9571" x2="270.425" y2="97.9571" gradientUnits="userSpaceOnUse">
<stop stop-color="#288CFF"/>
<stop offset="0.08217" stop-color="#3095FC"/>
<stop offset="0.70729" stop-color="#69D9E3"/>
<stop offset="1" stop-color="#7FF4DA"/>
</linearGradient>
<linearGradient id="paint2_linear_591_122288" x1="133.279" y1="110.132" x2="29.6234" y2="108.55" gradientUnits="userSpaceOnUse">
<stop offset="0.27594" stop-color="#1E51FF"/>
<stop offset="0.55713" stop-color="#5F95F0"/>
<stop offset="0.85853" stop-color="#9FD9E2"/>
<stop offset="1" stop-color="#B8F4DC"/>
</linearGradient>
<linearGradient id="paint3_linear_591_122288" x1="130.235" y1="80.9433" x2="87.2879" y2="80.2882" gradientUnits="userSpaceOnUse">
<stop offset="0.27594" stop-color="#1E51FF"/>
<stop offset="0.55713" stop-color="#5F95F0"/>
<stop offset="0.85853" stop-color="#9FD9E2"/>
<stop offset="1" stop-color="#B8F4DC"/>
</linearGradient>
<linearGradient id="paint4_linear_591_122288" x1="251.681" y1="78.5252" x2="211.298" y2="77.9092" gradientUnits="userSpaceOnUse">
<stop offset="0.27594" stop-color="#1E51FF"/>
<stop offset="0.55713" stop-color="#5F95F0"/>
<stop offset="0.85853" stop-color="#9FD9E2"/>
<stop offset="1" stop-color="#B8F4DC"/>
</linearGradient>
<linearGradient id="paint5_linear_591_122288" x1="126.617" y1="22.426" x2="173.95" y2="89.5447" gradientUnits="userSpaceOnUse">
<stop stop-color="#75E6F7"/>
<stop offset="0.29525" stop-color="#62CBF3"/>
<stop offset="0.9259" stop-color="#3187E8"/>
<stop offset="1" stop-color="#2B7FE7"/>
</linearGradient>
<radialGradient id="paint6_radial_591_122288" cx="0" cy="0" r="1" gradientUnits="userSpaceOnUse" gradientTransform="translate(150.96 61.5413) rotate(2.10326) scale(29.7417 29.8223)">
<stop stop-color="#2B7FE7"/>
<stop offset="0.0741" stop-color="#3187E8"/>
<stop offset="0.70475" stop-color="#62CBF3"/>
<stop offset="1" stop-color="#75E6F7"/>
</radialGradient>
<linearGradient id="paint7_linear_591_122288" x1="189.497" y1="91.7782" x2="148.482" y2="59.731" gradientUnits="userSpaceOnUse">
<stop stop-color="#2B7FE7"/>
<stop offset="0.0741" stop-color="#3187E8"/>
<stop offset="0.70475" stop-color="#62CBF3"/>
<stop offset="1" stop-color="#75E6F7"/>
</linearGradient>
<radialGradient id="paint8_radial_591_122288" cx="0" cy="0" r="1" gradientUnits="userSpaceOnUse" gradientTransform="translate(164.735 73.3586) rotate(2.10326) scale(14.7036 14.7434)">
<stop stop-color="#2B7FE7"/>
<stop offset="0.0741" stop-color="#3187E8"/>
<stop offset="0.70475" stop-color="#62CBF3"/>
<stop offset="1" stop-color="#75E6F7"/>
</radialGradient>
<radialGradient id="paint9_radial_591_122288" cx="0" cy="0" r="1" gradientUnits="userSpaceOnUse" gradientTransform="translate(151.795 56.9181) rotate(2.10326) scale(31.9514 32.038)">
<stop stop-color="#2B69EB"/>
<stop offset="0.39072" stop-color="#5288F0"/>
<stop offset="0.78521" stop-color="#74A2F4"/>
<stop offset="1" stop-color="#81ACF6"/>
</radialGradient>
<linearGradient id="paint10_linear_591_122288" x1="156.153" y1="24.7585" x2="125.431" y2="36.2122" gradientUnits="userSpaceOnUse">
<stop stop-color="#52B8F0"/>
<stop offset="0.13049" stop-color="#55BCF1"/>
<stop offset="1" stop-color="#67D7F8"/>
</linearGradient>
<radialGradient id="paint11_radial_591_122288" cx="0" cy="0" r="1" gradientUnits="userSpaceOnUse" gradientTransform="translate(136.765 49.3956) rotate(2.10326) scale(16.1279 16.1716)">
<stop stop-color="#2B7FE7"/>
<stop offset="0.0741" stop-color="#3187E8"/>
<stop offset="0.70475" stop-color="#62CBF3"/>
<stop offset="1" stop-color="#75E6F7"/>
</radialGradient>
<radialGradient id="paint12_radial_591_122288" cx="0" cy="0" r="1" gradientUnits="userSpaceOnUse" gradientTransform="translate(135.674 30.2654) rotate(2.10325) scale(9.97846 10.0055)">
<stop stop-color="#52B8F0"/>
<stop offset="0.13049" stop-color="#55BCF1"/>
<stop offset="1" stop-color="#67D7F8"/>
</radialGradient>
<linearGradient id="paint13_linear_591_122288" x1="151.465" y1="22.0865" x2="180.013" y2="23.1293" gradientUnits="userSpaceOnUse">
<stop stop-color="#52B8F0"/>
<stop offset="0.13049" stop-color="#55BCF1"/>
<stop offset="1" stop-color="#67D7F8"/>
</linearGradient>
<linearGradient id="paint14_linear_591_122288" x1="189.443" y1="73.7468" x2="207.197" y2="106.819" gradientUnits="userSpaceOnUse">
<stop stop-color="#6CD1F7"/>
<stop offset="0.61207" stop-color="#4FADF1"/>
<stop offset="1" stop-color="#409BEE"/>
</linearGradient>
<linearGradient id="paint15_linear_591_122288" x1="191.519" y1="77.8845" x2="206.578" y2="105.934" gradientUnits="userSpaceOnUse">
<stop stop-color="#6CD1F7"/>
<stop offset="0.61207" stop-color="#4FADF1"/>
<stop offset="1" stop-color="#409BEE"/>
</linearGradient>
<linearGradient id="paint16_linear_591_122288" x1="179.072" y1="89.5582" x2="194.95" y2="82.6555" gradientUnits="userSpaceOnUse">
<stop stop-color="#86ACF7"/>
<stop offset="0.21121" stop-color="#6489F4"/>
<stop offset="0.57757" stop-color="#2E53F0"/>
<stop offset="0.85157" stop-color="#0D31ED"/>
<stop offset="1" stop-color="#0024EC"/>
</linearGradient>
</defs>
</svg>
