<svg width="199" height="187" viewBox="0 0 199 187" fill="none" xmlns="http://www.w3.org/2000/svg">
<g filter="url(#filter0_f_591_122392)">
<path d="M167.719 33.712L136.716 24.2515C135.294 23.8419 133.75 23.9353 132.403 24.5125L103.838 35.6575C102.842 36.0839 102.002 36.754 101.413 37.5903C100.825 38.4266 100.513 39.395 100.513 40.3836L103.136 71.3134C103.136 72.3693 103.493 73.4006 104.158 74.272C104.824 75.1434 105.768 75.8142 106.867 76.1966L137.963 87.016C138.854 87.3261 139.817 87.4357 140.767 87.3352C141.716 87.2346 142.624 86.9271 143.41 86.4394L166.28 72.251C167.048 71.7745 167.677 71.1402 168.115 70.4011C168.553 69.6621 168.787 68.8397 168.798 68.003L171.777 38.7577C171.79 37.6387 171.404 36.5451 170.674 35.6371C169.944 34.7292 168.908 34.0545 167.719 33.712Z" fill="#0023DA" fill-opacity="0.6" style="mix-blend-mode:multiply"/>
<path style="mix-blend-mode:multiply" opacity="0.8" d="M104.695 72.1061C102.704 68.6273 100.487 38.8757 102.513 38.5965C104.539 38.3173 133.651 51.8607 136.145 54.2343C137.276 55.311 138.052 64.4972 136.145 68.662C136.145 78.7279 140.448 85.9791 139.766 86.208C138.519 86.6269 106.446 75.1647 104.695 72.1061Z" fill="#0023DA" fill-opacity="0.6"/>
<path style="mix-blend-mode:multiply" opacity="0.8" d="M140.089 87.3701C139.189 87.9236 110.625 73.299 106.566 66.8004C104.235 63.0683 101.786 46.0769 103.76 44.4014C105.734 42.7259 109.787 56.9337 116.853 63.4494C123.919 69.9651 140.996 86.8116 140.089 87.3701Z" fill="#0023DA" fill-opacity="0.6"/>
<g style="mix-blend-mode:screen">
<path d="M152.807 48.5562C150.875 52.0664 150.521 51.9072 148.235 53.5827C145.949 55.2582 143.247 57.4766 144.287 59.0668C145.326 60.657 140.055 87.8576 141.732 87.1485C143.41 86.4394 154.983 79.2597 154.983 79.2597C154.983 79.2597 143.819 87.3062 140.779 87.3854C138.518 87.2865 136.312 86.7275 134.327 85.751C134.327 85.751 139.724 87.1853 140.213 85.3702C140.701 83.5551 141.559 65.2645 141.013 62.8211C140.468 60.3777 138.363 59.1211 139.455 56.3286C140.546 53.5361 142.104 52.9078 140.546 52.838C138.987 52.7682 118.256 42.5757 115.45 42.0172C112.645 41.4587 108.748 39.4104 105.63 39.0035C102.513 38.5966 102.474 35.876 103.195 35.9796C103.916 36.0832 105.459 35.025 105.459 35.025C105.459 35.025 103.526 36.0832 105.397 36.5021C107.267 36.921 111.476 39.9229 115.061 40.621C118.646 41.3191 136.649 50.255 138.285 49.6267C140.611 48.711 143.162 48.3502 145.689 48.5795C148.183 48.9984 151.379 49.138 152.002 48.4399C152.625 47.7418 166.654 40.4717 167.901 38.5916C169.148 36.7115 163.216 32.3379 163.216 32.3379C163.216 32.3379 168.14 33.3973 169.349 34.4509C170.558 35.5045 172.109 37.8887 171.252 38.5916C170.395 39.2945 167.667 41.3191 166.031 41.5285C164.394 41.7379 153.457 47.3766 152.807 48.5562Z" fill="#0023DA" fill-opacity="0.6" style="mix-blend-mode:multiply"/>
</g>
<path d="M149.482 49.1516C150.715 49.3215 150.729 49.3378 148.859 50.8271C146.645 52.6685 144.875 54.8963 143.658 57.3733C142.713 59.8834 142.884 56.8137 143.195 53.6867C143.507 50.5597 138.356 49.1517 141.685 49.1516C145.014 49.1515 148.131 48.9655 149.482 49.1516Z" fill="#0023DA" fill-opacity="0.6" style="mix-blend-mode:multiply"/>
<path style="mix-blend-mode:multiply" opacity="0.21" d="M166.106 44.2651C167.213 46.6138 158.315 64.9875 156.756 65.8253C155.198 66.6631 148.513 84.1782 144.702 84.8557C140.107 85.6728 143.272 74.8831 145.453 67.0022C147.429 59.863 144.503 59.4556 148.443 55.6857C152.383 51.9158 165.385 42.735 166.106 44.2651Z" fill="#0023DA" fill-opacity="0.6"/>
<g style="mix-blend-mode:screen" opacity="0.78">
<path d="M166.201 34.0353C161.356 31.736 140.6 25.5703 136.145 25.1805C131.689 24.7907 113.528 34.4054 117.269 37.0583C121.01 39.7112 139.235 50.4746 146.561 49.0784C153.887 47.6822 176.144 38.7545 166.201 34.0353Z" fill="#0023DA" fill-opacity="0.6" style="mix-blend-mode:multiply"/>
</g>
<g style="mix-blend-mode:screen" opacity="0.92">
<path d="M140.56 27.0077C145.032 27.3358 168.693 33.6394 169.201 35.678C169.709 37.7166 154.416 45.6306 151.924 45.7172C166.201 33.2488 137.901 26.8125 140.56 27.0077Z" fill="#0023DA" fill-opacity="0.6" style="mix-blend-mode:multiply"/>
</g>
<path d="M167.979 35.8038C166.529 33.4426 171.564 37.2613 169.616 38.592C167.667 39.9227 164.26 42.7791 165.691 40.9669C167.122 39.1547 168.917 37.3321 167.979 35.8038Z" fill="#0023DA" fill-opacity="0.6" style="mix-blend-mode:multiply"/>
<path d="M108.28 38.5919C107.501 37.6678 109.683 38.1688 110.774 38.5919C111.865 39.015 119.002 41.4412 119.759 42.3225C120.516 43.2038 115.165 40.2817 112.411 40.1859C109.656 40.0901 108.748 39.1461 108.28 38.5919Z" fill="#0023DA" fill-opacity="0.6" style="mix-blend-mode:multiply"/>
<path style="mix-blend-mode:multiply" opacity="0.8" d="M105.007 59.0665C106.241 64.7782 115.398 74.4328 117.685 74.712C119.971 74.9912 114.359 68.8525 111.761 65.825C109.164 62.7975 104.738 57.8236 105.007 59.0665Z" fill="#0023DA" fill-opacity="0.6"/>
<g style="mix-blend-mode:screen" opacity="0.69">
<path d="M169.213 55.6856C169.543 56.2746 168.966 69.5927 167.044 71.0355C164.821 72.7034 155.509 78.6682 155.821 76.7135C156.133 74.7588 164.518 70.7143 165.469 65.8252C166.42 60.9361 168.831 55.0043 169.213 55.6856Z" fill="#0023DA" fill-opacity="0.6" style="mix-blend-mode:multiply"/>
</g>
<path d="M45.294 33.1197L89.9256 34.5826C91.8626 34.646 93.7122 35.3214 95.1466 36.4891L106.688 52.6471C107.729 53.4939 108.509 54.5658 108.954 55.7601C109.399 56.9544 109.495 58.2311 109.231 59.468L99.9555 102.999C99.7229 104.091 99.0717 105.075 98.1146 105.783C97.1574 106.49 95.9544 106.875 94.7137 106.872L37.9241 106.728C36.6564 106.725 35.4317 106.316 34.4704 105.576C33.509 104.836 32.8743 103.812 32.6805 102.69L24.7946 57.0263C24.5798 55.782 24.7252 54.5092 25.2169 53.3296C25.7086 52.1501 26.5301 51.1035 27.6028 50.2899L39.689 34.8563C41.2505 33.672 43.2493 33.0527 45.294 33.1197Z" fill="#0023DA" fill-opacity="0.6" style="mix-blend-mode:multiply"/>
<path style="mix-blend-mode:multiply" opacity="0.21" d="M27.9557 57.3705C30.4069 54.5354 68.7209 54.9966 86.5456 55.0002C104.37 55.0038 106.816 54.3115 106.069 57.7854C105.323 61.2593 102.729 99.4888 95.711 103.173C88.6927 106.857 39.2034 107.26 36.9003 103.127C34.5971 98.9937 25.2252 60.5285 27.9557 57.3705Z" fill="#0023DA" fill-opacity="0.6"/>
<path style="mix-blend-mode:multiply" opacity="0.8" d="M103.999 59.7953C107.897 64.6492 102.268 97.8117 95.3031 101.322C88.3384 104.832 40.7851 107.878 36.9003 103.127C33.0156 98.3753 36.529 92.7515 45.1533 90.7475C55.8699 88.2572 85.402 77.4497 87.9133 71.443C90.4246 65.4363 100.819 55.8347 103.999 59.7953Z" fill="#0023DA" fill-opacity="0.6"/>
<path style="mix-blend-mode:multiply" opacity="0.8" d="M63.8414 103.177C74.079 104.745 89.0775 103.959 92.378 100.82C95.6786 97.6803 102.782 80.6569 99.7836 81.1695C96.785 81.6821 95.3358 94.9763 90.2529 97.3739C85.1701 99.7715 59.6331 102.532 63.8414 103.177Z" fill="#0023DA" fill-opacity="0.6"/>
<g style="mix-blend-mode:screen">
<path d="M33.0177 103.763C32.8745 103.412 28.4968 67.1307 28.942 63.6272C29.3872 60.1237 32.3253 58.4609 34.13 58.6554C35.9347 58.8499 36.4302 57.8224 37.0529 56.7366C37.6756 55.6508 47.4565 53.8965 58.2918 55.0228C69.127 56.1491 96.0711 54.8043 99.0873 54.9079C101.926 55.1692 104.616 56.1715 106.824 57.7905C107.993 58.776 108.708 61.9237 108.708 61.9237C108.708 61.9237 109.244 55.6728 108.28 54.4473C107.317 53.2218 100.947 46.3669 100.947 46.3669C100.947 46.3669 104.681 51.09 102.989 51.8464C101.296 52.6028 95.4183 52.2748 89.8311 52.227C84.2439 52.1792 86.6697 55.6606 78.7217 54.2404C70.7737 52.8202 49.1063 54.4294 48.7011 53.2564C48.2959 52.0834 44.4951 48.982 39.6731 48.6886C34.8512 48.3952 35.0947 51.9214 31.8841 51.8161C28.6735 51.7108 35.3011 40.4595 35.3011 40.4595C35.3011 40.4595 27.1171 50.9833 26.1659 53.929C25.2148 56.8747 33.0177 103.763 33.0177 103.763Z" fill="#0023DA" fill-opacity="0.6" style="mix-blend-mode:multiply"/>
</g>
<g style="mix-blend-mode:screen" opacity="0.78">
<path d="M39.1931 35.4895C39.1931 35.4895 29.1081 50.5265 28.1513 52.5829C27.1944 54.6393 85.2337 54.1665 92.0554 53.2471C98.877 52.3277 81.5857 42.2875 72.117 38.927C59.7582 34.541 40.7903 33.0982 39.1931 35.4895Z" fill="#0023DA" fill-opacity="0.6" style="mix-blend-mode:multiply"/>
</g>
<path style="mix-blend-mode:multiply" opacity="0.21" d="M33.9019 82.7334C28.1525 89.2325 25.7507 58.7866 31.6633 57.2213C37.576 55.656 61.8298 54.4804 66.9419 55.4421C81.5813 58.1959 54.8519 61.6347 46.713 64.8861C38.5741 68.1375 36.3765 79.936 33.9019 82.7334Z" fill="#0023DA" fill-opacity="0.6"/>
<g style="mix-blend-mode:screen" opacity="0.92">
<path d="M37.7338 40.0666C32.5908 43.337 26.741 51.727 32.4841 52.7249C38.2271 53.7228 65.2721 55.6982 63.4275 52.3764C61.5829 49.0546 40.4795 38.3206 37.7338 40.0666Z" fill="#0023DA" fill-opacity="0.6" style="mix-blend-mode:multiply"/>
</g>
<path d="M34.2478 48.3756C31.8601 49.3768 27.3536 52.8767 28.812 54.0114C30.2704 55.1461 29.7102 54.0671 37.7296 53.744C45.7489 53.4209 53.1168 56.0979 51.2579 53.5337C49.3989 50.9695 37.0911 47.1833 34.2478 48.3756Z" fill="#0023DA" fill-opacity="0.6" style="mix-blend-mode:multiply"/>
<path d="M101.765 51.5019C97.7366 51.8322 93.737 52.3985 89.7915 53.197C88.1541 53.5286 97.8307 53.7071 101.653 54.2383C105.475 54.7695 107.504 58.0688 106.258 55.143C105.013 52.2172 102.891 51.4808 101.765 51.5019Z" fill="#0023DA" fill-opacity="0.6" style="mix-blend-mode:multiply"/>
<g style="mix-blend-mode:screen" opacity="0.78">
<path d="M66.6494 34.519C69.3565 34.8107 85.9096 34.512 88.4658 35.7268C91.0219 36.9416 99.1005 44.4118 99.1005 44.4118C99.1005 44.4118 94.7491 35.9154 92.3373 35.2488C89.9255 34.5822 66.6494 34.519 66.6494 34.519Z" fill="#0023DA" fill-opacity="0.6" style="mix-blend-mode:multiply"/>
</g>
<path d="M76.5228 84.6375L121.561 70.8941C123.627 70.2991 125.869 70.4348 127.827 71.2733L169.323 87.4636C170.769 88.0831 171.991 89.0565 172.845 90.2715C173.7 91.4864 174.154 92.8932 174.154 94.3293L170.342 139.261C170.342 140.795 169.825 142.294 168.858 143.559C167.891 144.825 166.519 145.8 164.923 146.355L119.75 162.073C118.455 162.523 117.056 162.683 115.677 162.537C114.297 162.391 112.978 161.944 111.836 161.235L78.6134 140.624C77.4977 139.931 76.5834 139.01 75.947 137.936C75.3106 136.863 74.9705 135.668 74.9553 134.452L70.628 91.9675C70.6077 90.3419 71.1691 88.7533 72.2299 87.4342C73.2906 86.1152 74.7951 85.1351 76.5228 84.6375Z" fill="#0023DA" fill-opacity="0.6" style="mix-blend-mode:multiply"/>
<path style="mix-blend-mode:multiply" opacity="0.8" d="M168.078 140.413C170.971 135.359 174.192 92.1388 171.248 91.7332C168.304 91.3276 126.014 111.002 122.391 114.45C120.747 116.015 119.621 129.36 122.391 135.41C122.391 150.033 116.14 160.567 117.13 160.899C118.941 161.508 165.534 144.856 168.078 140.413Z" fill="#0023DA" fill-opacity="0.6"/>
<path style="mix-blend-mode:multiply" opacity="0.8" d="M116.661 162.587C117.968 163.391 159.464 142.146 165.361 132.705C168.747 127.284 172.305 102.6 169.437 100.166C166.568 97.7322 160.681 118.372 150.416 127.837C140.151 137.303 115.343 161.776 116.661 162.587Z" fill="#0023DA" fill-opacity="0.6"/>
<g style="mix-blend-mode:screen">
<path d="M98.1845 106.202C100.992 111.301 101.506 111.07 104.827 113.504C108.148 115.938 112.073 119.16 110.563 121.471C109.053 123.781 116.711 163.295 114.274 162.265C111.836 161.235 95.0248 150.805 95.0248 150.805C95.0248 150.805 111.242 162.494 115.658 162.609C120.073 162.724 125.031 160.235 125.031 160.235C125.031 160.235 117.191 162.319 116.481 159.682C115.771 157.045 114.526 130.474 115.318 126.924C116.111 123.375 119.168 121.549 117.583 117.493C115.998 113.436 113.733 112.523 115.998 112.422C118.262 112.321 148.378 97.5137 152.454 96.7024C156.53 95.8911 162.191 92.9154 166.719 92.3242C171.248 91.733 171.305 87.781 170.258 87.9315C169.21 88.082 166.968 86.5446 166.968 86.5446C166.968 86.5446 169.776 88.082 167.059 88.6905C164.342 89.299 158.228 93.6599 153.02 94.674C147.812 95.6881 121.658 108.67 119.281 107.757C116.903 106.844 112.148 105.627 108.525 106.236C104.902 106.844 100.26 107.047 99.3545 106.033C98.4488 105.019 78.0694 94.4572 76.258 91.726C74.4466 88.9948 83.0646 82.6411 83.0646 82.6411C83.0646 82.6411 75.9113 84.1801 74.1546 85.7106C72.398 87.2411 70.1442 90.7048 71.3896 91.726C72.635 92.7472 76.5976 95.6882 78.9752 95.9924C81.3529 96.2966 97.2411 104.488 98.1845 106.202Z" fill="#0023DA" fill-opacity="0.6" style="mix-blend-mode:multiply"/>
</g>
<path d="M103.015 107.067C101.225 107.314 101.204 107.337 103.921 109.501C106.638 111.664 110.412 116.182 111.476 119.011C112.849 122.657 112.601 118.198 112.148 113.655C111.695 109.113 119.178 107.067 114.342 107.067C109.506 107.067 104.978 106.797 103.015 107.067Z" fill="#0023DA" fill-opacity="0.6" style="mix-blend-mode:multiply"/>
<path style="mix-blend-mode:multiply" opacity="0.21" d="M78.8658 99.9682C77.2583 103.38 90.1838 130.072 92.4482 131.289C94.7125 132.506 104.423 157.95 109.959 158.935C116.635 160.122 112.037 144.447 108.869 132.999C105.998 122.627 110.249 122.035 104.525 116.559C98.8007 111.082 79.9132 97.7453 78.8658 99.9682Z" fill="#0023DA" fill-opacity="0.6"/>
<g style="mix-blend-mode:screen" opacity="0.78">
<path d="M78.7278 85.1073C85.7654 81.7671 115.918 72.81 122.391 72.2438C128.863 71.6776 155.246 85.645 149.812 89.4988C144.378 93.3526 117.901 108.989 107.258 106.961C96.6157 104.932 64.2835 91.963 78.7278 85.1073Z" fill="#0023DA" fill-opacity="0.6" style="mix-blend-mode:multiply"/>
</g>
<g style="mix-blend-mode:screen" opacity="0.92">
<path d="M115.976 74.8979C109.481 75.3745 75.1076 84.5318 74.3697 87.4933C73.6317 90.4548 95.8473 101.951 99.4677 102.077C78.7279 83.9645 119.84 74.6143 115.976 74.8979Z" fill="#0023DA" fill-opacity="0.6" style="mix-blend-mode:multiply"/>
</g>
<path d="M76.1448 87.6764C78.251 84.2463 70.9367 89.7938 73.7672 91.7269C76.5976 93.66 81.5477 97.8096 79.4689 95.177C77.3901 92.5444 74.7815 89.8967 76.1448 87.6764Z" fill="#0023DA" fill-opacity="0.6" style="mix-blend-mode:multiply"/>
<path d="M162.87 91.727C164.002 90.3845 160.832 91.1123 159.247 91.727C157.662 92.3417 147.294 95.8662 146.194 97.1464C145.095 98.4266 152.868 94.1818 156.869 94.0426C160.871 93.9034 162.191 92.5321 162.87 91.727Z" fill="#0023DA" fill-opacity="0.6" style="mix-blend-mode:multiply"/>
<path style="mix-blend-mode:multiply" opacity="0.8" d="M167.625 121.47C165.833 129.768 152.529 143.793 149.208 144.199C145.887 144.605 154.039 135.687 157.813 131.289C161.587 126.89 168.015 119.665 167.625 121.47Z" fill="#0023DA" fill-opacity="0.6"/>
<g style="mix-blend-mode:screen" opacity="0.69">
<path d="M74.3516 116.559C73.8721 117.415 74.7107 136.762 77.5034 138.858C80.7319 141.281 94.2597 149.946 93.8068 147.107C93.3539 144.267 81.1727 138.391 79.7909 131.289C78.409 124.186 74.9064 115.569 74.3516 116.559Z" fill="#0023DA" fill-opacity="0.6" style="mix-blend-mode:multiply"/>
</g>
</g>
<path d="M161.02 33.712L130.017 24.2515C128.595 23.8419 127.052 23.9353 125.705 24.5125L97.1398 35.6575C96.1442 36.0839 95.3035 36.754 94.7151 37.5903C94.1266 38.4266 93.8143 39.395 93.8143 40.3836L96.4383 71.3134C96.4382 72.3693 96.7945 73.4006 97.4602 74.272C98.1259 75.1434 99.0701 75.8142 100.169 76.1966L131.265 87.016C132.156 87.3261 133.119 87.4357 134.068 87.3352C135.018 87.2346 135.926 86.9271 136.712 86.4394L159.581 72.251C160.349 71.7745 160.979 71.1402 161.417 70.4011C161.855 69.6621 162.089 68.8397 162.099 68.003L165.078 38.7577C165.092 37.6387 164.706 36.5451 163.976 35.6371C163.245 34.7292 162.21 34.0545 161.02 33.712Z" fill="url(#paint0_radial_591_122392)"/>
<path style="mix-blend-mode:multiply" opacity="0.8" d="M97.997 72.1061C96.0055 68.6273 93.7884 38.8757 95.8148 38.5965C97.8412 38.3173 126.953 51.8607 129.447 54.2343C130.578 55.311 131.353 64.4972 129.447 68.662C129.447 78.7279 133.749 85.9791 133.068 86.208C131.821 86.6269 99.7479 75.1647 97.997 72.1061Z" fill="url(#paint1_radial_591_122392)"/>
<path style="mix-blend-mode:multiply" opacity="0.8" d="M133.39 87.3701C132.491 87.9236 103.926 73.299 99.8675 66.8004C97.5365 63.0683 95.0874 46.0769 97.0617 44.4014C99.036 42.7259 103.089 56.9337 110.155 63.4494C117.221 69.9651 134.298 86.8116 133.39 87.3701Z" fill="url(#paint2_radial_591_122392)"/>
<path style="mix-blend-mode:screen" d="M146.109 48.5562C144.177 52.0664 143.823 51.9072 141.537 53.5827C139.251 55.2582 136.549 57.4766 137.588 59.0668C138.627 60.657 133.356 87.8576 135.034 87.1485C136.712 86.4394 148.284 79.2597 148.284 79.2597C148.284 79.2597 137.121 87.3062 134.081 87.3854C131.82 87.2865 129.613 86.7275 127.629 85.751C127.629 85.751 133.026 87.1853 133.515 85.3702C134.003 83.5551 134.861 65.2645 134.315 62.8211C133.769 60.3777 131.665 59.1211 132.756 56.3286C133.847 53.5361 135.406 52.9078 133.847 52.838C132.289 52.7682 111.558 42.5757 108.752 42.0172C105.946 41.4587 102.05 39.4104 98.9322 39.0035C95.8147 38.5966 95.7753 35.876 96.4965 35.9796C97.2176 36.0832 98.7609 35.025 98.7609 35.025C98.7609 35.025 96.8279 36.0832 98.6984 36.5021C100.569 36.921 104.777 39.9229 108.362 40.621C111.947 41.3191 129.951 50.255 131.587 49.6267C133.913 48.711 136.464 48.3502 138.991 48.5795C141.485 48.9984 144.68 49.138 145.304 48.4399C145.927 47.7418 159.956 40.4717 161.203 38.5916C162.45 36.7115 156.517 32.3379 156.517 32.3379C156.517 32.3379 161.441 33.3973 162.651 34.4509C163.86 35.5045 165.411 37.8887 164.554 38.5916C163.697 39.2945 160.969 41.3191 159.332 41.5285C157.696 41.7379 146.759 47.3766 146.109 48.5562Z" fill="url(#paint3_radial_591_122392)"/>
<path d="M142.784 49.1516C144.016 49.3215 144.031 49.3378 142.16 50.8271C139.946 52.6685 138.177 54.8963 136.96 57.3733C136.015 59.8834 136.185 56.8137 136.497 53.6867C136.809 50.5597 131.658 49.1517 134.987 49.1516C138.316 49.1515 141.433 48.9655 142.784 49.1516Z" fill="white"/>
<path style="mix-blend-mode:multiply" opacity="0.21" d="M159.408 44.2651C160.514 46.6138 151.617 64.9875 150.058 65.8253C148.499 66.6631 141.815 84.1782 138.004 84.8557C133.409 85.6728 136.574 74.8831 138.755 67.0022C140.731 59.863 137.805 59.4556 141.745 55.6857C145.685 51.9158 158.687 42.735 159.408 44.2651Z" fill="url(#paint4_radial_591_122392)"/>
<path style="mix-blend-mode:screen" opacity="0.78" d="M159.503 34.0353C154.658 31.736 133.902 25.5703 129.447 25.1805C124.991 24.7907 106.83 34.4054 110.571 37.0583C114.311 39.7112 132.537 50.4746 139.863 49.0784C147.189 47.6822 169.446 38.7545 159.503 34.0353Z" fill="url(#paint5_linear_591_122392)"/>
<path style="mix-blend-mode:screen" opacity="0.92" d="M133.862 27.0077C138.333 27.3358 161.995 33.6394 162.503 35.678C163.011 37.7166 147.718 45.6306 145.226 45.7172C159.503 33.2488 131.203 26.8125 133.862 27.0077Z" fill="url(#paint6_radial_591_122392)"/>
<path d="M161.281 35.8038C159.831 33.4426 164.866 37.2613 162.917 38.592C160.969 39.9227 157.562 42.7791 158.992 40.9669C160.423 39.1547 162.219 37.3321 161.281 35.8038Z" fill="white"/>
<path d="M101.582 38.5919C100.802 37.6678 102.985 38.1688 104.076 38.5919C105.167 39.015 112.304 41.4412 113.061 42.3225C113.818 43.2038 108.467 40.2817 105.713 40.1859C102.958 40.0901 102.05 39.1461 101.582 38.5919Z" fill="white"/>
<path style="mix-blend-mode:multiply" opacity="0.8" d="M98.3087 59.0665C99.5427 64.7782 108.7 74.4328 110.986 74.712C113.272 74.9912 107.661 68.8525 105.063 65.825C102.465 62.7975 98.0403 57.8236 98.3087 59.0665Z" fill="url(#paint7_radial_591_122392)"/>
<path style="mix-blend-mode:screen" opacity="0.69" d="M162.515 55.6856C162.845 56.2746 162.268 69.5927 160.345 71.0355C158.123 72.7034 148.811 78.6682 149.123 76.7135C149.434 74.7588 157.82 70.7143 158.771 65.8252C159.722 60.9361 162.133 55.0043 162.515 55.6856Z" fill="url(#paint8_radial_591_122392)"/>
<path d="M38.5958 33.1197L83.2274 34.5826C85.1645 34.646 87.014 35.3214 88.4485 36.4891L99.9901 52.6471C101.03 53.4939 101.81 54.5658 102.256 55.7601C102.701 56.9544 102.796 58.2311 102.533 59.468L93.2574 102.999C93.0248 104.091 92.3736 105.075 91.4164 105.783C90.4593 106.49 89.2563 106.875 88.0155 106.872L31.226 106.728C29.9583 106.725 28.7335 106.316 27.7722 105.576C26.8109 104.836 26.1762 103.812 25.9824 102.69L18.0965 57.0263C17.8816 55.782 18.027 54.5092 18.5187 53.3296C19.0104 52.1501 19.832 51.1035 20.9047 50.2899L32.9909 34.8563C34.5523 33.672 36.5512 33.0527 38.5958 33.1197Z" fill="url(#paint9_linear_591_122392)"/>
<path style="mix-blend-mode:multiply" opacity="0.21" d="M21.2575 57.3705C23.7087 54.5354 62.0227 54.9966 79.8475 55.0002C97.6722 55.0038 100.117 54.3115 99.3713 57.7854C98.6252 61.2593 96.0311 99.4888 89.0129 103.173C81.9946 106.857 32.5053 107.26 30.2021 103.127C27.8989 98.9937 18.5271 60.5285 21.2575 57.3705Z" fill="url(#paint10_radial_591_122392)"/>
<path style="mix-blend-mode:multiply" opacity="0.8" d="M97.301 59.7953C101.199 64.6492 95.5697 97.8117 88.605 101.322C81.6403 104.832 34.0869 107.878 30.2021 103.127C26.3174 98.3753 29.8308 92.7515 38.4551 90.7475C49.1717 88.2572 78.7039 77.4497 81.2152 71.443C83.7264 65.4363 94.1204 55.8347 97.301 59.7953Z" fill="url(#paint11_linear_591_122392)"/>
<path style="mix-blend-mode:multiply" opacity="0.8" d="M57.1431 103.177C67.3808 104.745 82.3793 103.959 85.6798 100.82C88.9804 97.6803 96.0839 80.6569 93.0854 81.1695C90.0868 81.6821 88.6375 94.9763 83.5547 97.3739C78.4719 99.7715 52.9349 102.532 57.1431 103.177Z" fill="url(#paint12_radial_591_122392)"/>
<path style="mix-blend-mode:screen" d="M26.3195 103.763C26.1764 103.412 21.7986 67.1307 22.2438 63.6272C22.689 60.1237 25.6271 58.4609 27.4318 58.6554C29.2366 58.8499 29.732 57.8224 30.3547 56.7366C30.9774 55.6508 40.7583 53.8965 51.5936 55.0228C62.4289 56.1491 89.3729 54.8043 92.3891 54.9079C95.2277 55.1692 97.9181 56.1715 100.126 57.7905C101.295 58.776 102.01 61.9237 102.01 61.9237C102.01 61.9237 102.546 55.6728 101.582 54.4473C100.619 53.2218 94.2485 46.3669 94.2485 46.3669C94.2485 46.3669 97.9831 51.09 96.2906 51.8464C94.5981 52.6028 88.7201 52.2748 83.1329 52.227C77.5457 52.1792 79.9715 55.6606 72.0235 54.2404C64.0755 52.8202 42.4082 54.4294 42.0029 53.2564C41.5977 52.0834 37.7969 48.982 32.975 48.6886C28.153 48.3952 28.3965 51.9214 25.1859 51.8161C21.9753 51.7108 28.6029 40.4595 28.6029 40.4595C28.6029 40.4595 20.4189 50.9833 19.4678 53.929C18.5166 56.8747 26.3195 103.763 26.3195 103.763Z" fill="url(#paint13_radial_591_122392)"/>
<path style="mix-blend-mode:screen" opacity="0.78" d="M32.4949 35.4895C32.4949 35.4895 22.41 50.5265 21.4531 52.5829C20.4963 54.6393 78.5355 54.1665 85.3572 53.2471C92.1789 52.3277 74.8875 42.2875 65.4188 38.927C53.06 34.541 34.0921 33.0982 32.4949 35.4895Z" fill="url(#paint14_linear_591_122392)"/>
<path style="mix-blend-mode:multiply" opacity="0.21" d="M27.2037 82.7334C21.4542 89.2325 19.0525 58.7866 24.9651 57.2213C30.8777 55.656 55.1316 54.4804 60.2437 55.4421C74.8831 58.1959 48.1537 61.6347 40.0148 64.8861C31.8759 68.1375 29.6783 79.936 27.2037 82.7334Z" fill="url(#paint15_radial_591_122392)"/>
<path style="mix-blend-mode:screen" opacity="0.92" d="M31.0356 40.0666C25.8926 43.337 20.0428 51.727 25.7859 52.7249C31.5289 53.7228 58.5739 55.6982 56.7293 52.3764C54.8848 49.0546 33.7813 38.3206 31.0356 40.0666Z" fill="url(#paint16_radial_591_122392)"/>
<path d="M27.5496 48.3756C25.162 49.3768 20.6554 52.8767 22.1138 54.0114C23.5722 55.1461 23.012 54.0671 31.0314 53.744C39.0507 53.4209 46.4187 56.0979 44.5597 53.5337C42.7007 50.9695 30.3929 47.1833 27.5496 48.3756Z" fill="white"/>
<path d="M95.0665 51.5019C91.0384 51.8322 87.0388 52.3985 83.0933 53.197C81.4559 53.5286 91.1325 53.7071 94.9547 54.2383C98.777 54.7695 100.806 58.0688 99.5602 55.143C98.3148 52.2172 96.1926 51.4808 95.0665 51.5019Z" fill="white"/>
<path style="mix-blend-mode:screen" opacity="0.78" d="M59.9513 34.519C62.6584 34.8107 79.2115 34.512 81.7676 35.7268C84.3238 36.9416 92.4024 44.4118 92.4024 44.4118C92.4024 44.4118 88.051 35.9154 85.6392 35.2488C83.2274 34.5822 59.9513 34.519 59.9513 34.519Z" fill="url(#paint17_linear_591_122392)"/>
<path d="M69.8246 84.6375L114.863 70.8941C116.929 70.2991 119.171 70.4348 121.129 71.2733L162.625 87.4636C164.071 88.0831 165.292 89.0565 166.147 90.2715C167.002 91.4864 167.456 92.8932 167.456 94.3293L163.644 139.261C163.644 140.795 163.127 142.294 162.159 143.559C161.192 144.825 159.821 145.8 158.224 146.355L113.051 162.073C111.756 162.523 110.358 162.683 108.978 162.537C107.599 162.391 106.28 161.944 105.138 161.235L71.9151 140.624C70.7995 139.931 69.8852 139.01 69.2488 137.936C68.6123 136.863 68.2723 135.668 68.2571 134.452L63.9297 91.9675C63.9095 90.3419 64.4708 88.7533 65.5316 87.4342C66.5924 86.1152 68.0969 85.1351 69.8246 84.6375Z" fill="url(#paint18_radial_591_122392)"/>
<path style="mix-blend-mode:multiply" opacity="0.8" d="M161.38 140.413C164.273 135.359 167.494 92.1388 164.55 91.7332C161.606 91.3276 119.316 111.002 115.693 114.45C114.049 116.015 112.922 129.36 115.693 135.41C115.693 150.033 109.442 160.567 110.432 160.899C112.243 161.508 158.836 144.856 161.38 140.413Z" fill="url(#paint19_radial_591_122392)"/>
<path style="mix-blend-mode:multiply" opacity="0.8" d="M109.963 162.587C111.27 163.391 152.766 142.146 158.663 132.705C162.049 127.284 165.607 102.6 162.738 100.166C159.87 97.7322 153.983 118.372 143.718 127.837C133.453 137.303 108.645 161.776 109.963 162.587Z" fill="url(#paint20_radial_591_122392)"/>
<path style="mix-blend-mode:screen" d="M91.4864 106.202C94.294 111.301 94.8075 111.07 98.1286 113.504C101.45 115.938 105.374 119.16 103.865 121.471C102.355 123.781 110.013 163.295 107.576 162.265C105.138 161.235 88.3266 150.805 88.3266 150.805C88.3266 150.805 104.544 162.494 108.96 162.609C113.375 162.724 118.333 160.235 118.333 160.235C118.333 160.235 110.493 162.319 109.783 159.682C109.073 157.045 107.828 130.474 108.62 126.924C109.413 123.375 112.469 121.549 110.884 117.493C109.299 113.436 107.035 112.523 109.299 112.422C111.564 112.321 141.68 97.5137 145.756 96.7024C149.832 95.8911 155.492 92.9154 160.021 92.3242C164.55 91.733 164.607 87.781 163.56 87.9315C162.512 88.082 160.27 86.5446 160.27 86.5446C160.27 86.5446 163.078 88.082 160.361 88.6905C157.644 89.299 151.53 93.6599 146.322 94.674C141.114 95.6881 114.96 108.67 112.583 107.757C110.205 106.844 105.45 105.627 101.827 106.236C98.204 106.844 93.5621 107.047 92.6564 106.033C91.7506 105.019 71.3713 94.4572 69.5599 91.726C67.7484 88.9948 76.3665 82.6411 76.3665 82.6411C76.3665 82.6411 69.2131 84.1801 67.4565 85.7106C65.6999 87.2411 63.4461 90.7048 64.6915 91.726C65.9369 92.7472 69.8995 95.6882 72.2771 95.9924C74.6547 96.2966 90.5429 104.488 91.4864 106.202Z" fill="url(#paint21_radial_591_122392)"/>
<path d="M96.3171 107.067C94.5266 107.314 94.5056 107.337 97.2228 109.501C99.9401 111.664 103.714 116.182 104.778 119.011C106.15 122.657 105.903 118.198 105.45 113.655C104.997 109.113 112.48 107.067 107.644 107.067C102.808 107.067 98.2795 106.797 96.3171 107.067Z" fill="white"/>
<path style="mix-blend-mode:multiply" opacity="0.21" d="M72.1677 99.9682C70.5602 103.38 83.4857 130.072 85.7501 131.289C88.0144 132.506 97.7252 157.95 103.261 158.935C109.937 160.122 105.339 144.447 102.171 132.999C99.3001 122.627 103.551 122.035 97.8266 116.559C92.1026 111.082 73.2151 97.7453 72.1677 99.9682Z" fill="url(#paint22_radial_591_122392)"/>
<path style="mix-blend-mode:screen" opacity="0.78" d="M72.0297 85.1073C79.0673 81.7671 109.22 72.81 115.693 72.2438C122.165 71.6776 148.548 85.645 143.114 89.4988C137.68 93.3526 111.203 108.989 100.56 106.961C89.9176 104.932 57.5854 91.963 72.0297 85.1073Z" fill="url(#paint23_linear_591_122392)"/>
<path style="mix-blend-mode:screen" opacity="0.92" d="M109.278 74.8979C102.783 75.3745 68.4094 84.5318 67.6715 87.4933C66.9336 90.4548 89.1491 101.951 92.7695 102.077C72.0297 83.9645 113.141 74.6143 109.278 74.8979Z" fill="url(#paint24_radial_591_122392)"/>
<path d="M69.4466 87.6764C71.5528 84.2463 64.2385 89.7938 67.069 91.7269C69.8994 93.66 74.8495 97.8096 72.7707 95.177C70.6919 92.5444 68.0833 89.8967 69.4466 87.6764Z" fill="white"/>
<path d="M156.172 91.727C157.304 90.3845 154.134 91.1123 152.549 91.727C150.964 92.3417 140.595 95.8662 139.496 97.1464C138.396 98.4266 146.17 94.1818 150.171 94.0426C154.173 93.9034 155.492 92.5321 156.172 91.727Z" fill="white"/>
<path style="mix-blend-mode:multiply" opacity="0.8" d="M160.927 121.47C159.134 129.768 145.831 143.793 142.51 144.199C139.189 144.605 147.341 135.687 151.115 131.289C154.888 126.89 161.317 119.665 160.927 121.47Z" fill="url(#paint25_radial_591_122392)"/>
<path style="mix-blend-mode:screen" opacity="0.69" d="M67.6535 116.559C67.1739 117.415 68.0126 136.762 70.8053 138.858C74.0338 141.281 87.5616 149.946 87.1087 147.107C86.6558 144.267 74.4746 138.391 73.0927 131.289C71.7109 124.186 68.2083 115.569 67.6535 116.559Z" fill="url(#paint26_radial_591_122392)"/>
<defs>
<filter id="filter0_f_591_122392" x="0.698151" y="0" width="197.456" height="186.613" filterUnits="userSpaceOnUse" color-interpolation-filters="sRGB">
<feFlood flood-opacity="0" result="BackgroundImageFix"/>
<feBlend mode="normal" in="SourceGraphic" in2="BackgroundImageFix" result="shape"/>
<feGaussianBlur stdDeviation="12" result="effect1_foregroundBlur_591_122392"/>
</filter>
<radialGradient id="paint0_radial_591_122392" cx="0" cy="0" r="1" gradientUnits="userSpaceOnUse" gradientTransform="translate(103.465 84.0765) rotate(180) scale(119.273 106.84)">
<stop stop-color="#003CFE"/>
<stop offset="0.26918" stop-color="#2484F3"/>
<stop offset="0.54209" stop-color="#46C8E9"/>
<stop offset="0.67024" stop-color="#53E3E5"/>
</radialGradient>
<radialGradient id="paint1_radial_591_122392" cx="0" cy="0" r="1" gradientUnits="userSpaceOnUse" gradientTransform="translate(100.176 83.743) rotate(180) scale(67.6388 60.5881)">
<stop stop-color="#003CFE"/>
<stop offset="0.40162" stop-color="#2484F3"/>
<stop offset="0.80881" stop-color="#46C8E9"/>
<stop offset="1" stop-color="#53E3E5"/>
</radialGradient>
<radialGradient id="paint2_radial_591_122392" cx="0" cy="0" r="1" gradientUnits="userSpaceOnUse" gradientTransform="translate(101.361 85.1434) rotate(180) scale(64.8034 58.0484)">
<stop stop-color="#003CFE"/>
<stop offset="0.40162" stop-color="#2484F3"/>
<stop offset="0.80881" stop-color="#46C8E9"/>
<stop offset="1" stop-color="#53E3E5"/>
</radialGradient>
<radialGradient id="paint3_radial_591_122392" cx="0" cy="0" r="1" gradientUnits="userSpaceOnUse" gradientTransform="translate(105.415 84.5258) rotate(180) scale(113.583 101.743)">
<stop stop-color="#2A49FF"/>
<stop offset="0.35964" stop-color="#5B94F5"/>
<stop offset="0.65837" stop-color="#7FCBED"/>
<stop offset="0.88001" stop-color="#95EDE9"/>
<stop offset="1" stop-color="#9DFAE7"/>
</radialGradient>
<radialGradient id="paint4_radial_591_122392" cx="0" cy="0" r="1" gradientUnits="userSpaceOnUse" gradientTransform="translate(147.575 64.4971) rotate(180) scale(18.1803 16.2852)">
<stop stop-color="#003CFE"/>
<stop offset="0.40162" stop-color="#2484F3"/>
<stop offset="0.80881" stop-color="#46C8E9"/>
<stop offset="1" stop-color="#53E3E5"/>
</radialGradient>
<linearGradient id="paint5_linear_591_122392" x1="110.617" y1="37.0757" x2="169.38" y2="37.4238" gradientUnits="userSpaceOnUse">
<stop stop-color="#3B88FE"/>
<stop offset="0.67627" stop-color="#72CAE1"/>
<stop offset="1" stop-color="#88E5D6"/>
</linearGradient>
<radialGradient id="paint6_radial_591_122392" cx="0" cy="0" r="1" gradientUnits="userSpaceOnUse" gradientTransform="translate(148.1 36.3603) rotate(180) scale(12.588 11.2758)">
<stop stop-color="#3B88FE"/>
<stop offset="0.67627" stop-color="#72CAE1"/>
<stop offset="1" stop-color="#88E5D6"/>
</radialGradient>
<radialGradient id="paint7_radial_591_122392" cx="0" cy="0" r="1" gradientUnits="userSpaceOnUse" gradientTransform="translate(104.91 66.7962) rotate(180) scale(7.81024 6.99611)">
<stop stop-color="#003CFE"/>
<stop offset="0.40162" stop-color="#2484F3"/>
<stop offset="0.80881" stop-color="#46C8E9"/>
<stop offset="1" stop-color="#53E3E5"/>
</radialGradient>
<radialGradient id="paint8_radial_591_122392" cx="0" cy="0" r="1" gradientUnits="userSpaceOnUse" gradientTransform="translate(155.859 66.3671) rotate(180) scale(9.72388 8.71026)">
<stop stop-color="#3B88FE"/>
<stop offset="0.67627" stop-color="#72CAE1"/>
<stop offset="1" stop-color="#88E5D6"/>
</radialGradient>
<linearGradient id="paint9_linear_591_122392" x1="31.7556" y1="37.5841" x2="77.7651" y2="110.616" gradientUnits="userSpaceOnUse">
<stop stop-color="#53E3E5"/>
<stop offset="0.19119" stop-color="#46C8E9"/>
<stop offset="0.59838" stop-color="#2484F3"/>
<stop offset="1" stop-color="#003CFE"/>
</linearGradient>
<radialGradient id="paint10_radial_591_122392" cx="0" cy="0" r="1" gradientUnits="userSpaceOnUse" gradientTransform="translate(59.2462 80.063) rotate(1.87908) scale(34.6354 31.0332)">
<stop stop-color="#003CFE"/>
<stop offset="0.40162" stop-color="#2484F3"/>
<stop offset="0.80881" stop-color="#46C8E9"/>
<stop offset="1" stop-color="#53E3E5"/>
</radialGradient>
<linearGradient id="paint11_linear_591_122392" x1="101.351" y1="107.824" x2="62.1445" y2="73.5322" gradientUnits="userSpaceOnUse">
<stop stop-color="#003CFE"/>
<stop offset="0.40162" stop-color="#2484F3"/>
<stop offset="0.80881" stop-color="#46C8E9"/>
<stop offset="1" stop-color="#53E3E5"/>
</linearGradient>
<radialGradient id="paint12_radial_591_122392" cx="0" cy="0" r="1" gradientUnits="userSpaceOnUse" gradientTransform="translate(75.2622 92.4041) rotate(1.87907) scale(15.8565 14.2073)">
<stop stop-color="#003CFE"/>
<stop offset="0.40162" stop-color="#2484F3"/>
<stop offset="0.80881" stop-color="#46C8E9"/>
<stop offset="1" stop-color="#53E3E5"/>
</radialGradient>
<radialGradient id="paint13_radial_591_122392" cx="0" cy="0" r="1" gradientUnits="userSpaceOnUse" gradientTransform="translate(60.1165 73.1853) rotate(1.87908) scale(38.5183 34.5123)">
<stop stop-color="#2A49FF"/>
<stop offset="0.35964" stop-color="#5B94F5"/>
<stop offset="0.65837" stop-color="#7FCBED"/>
<stop offset="0.88001" stop-color="#95EDE9"/>
<stop offset="1" stop-color="#9DFAE7"/>
</radialGradient>
<linearGradient id="paint14_linear_591_122392" x1="63.759" y1="42.6581" x2="27.8545" y2="57.6421" gradientUnits="userSpaceOnUse">
<stop stop-color="#3B88FE"/>
<stop offset="0.67627" stop-color="#72CAE1"/>
<stop offset="1" stop-color="#88E5D6"/>
</linearGradient>
<radialGradient id="paint15_radial_591_122392" cx="0" cy="0" r="1" gradientUnits="userSpaceOnUse" gradientTransform="translate(42.7753 69.4487) rotate(1.87908) scale(19.0174 17.0396)">
<stop stop-color="#003CFE"/>
<stop offset="0.40162" stop-color="#2484F3"/>
<stop offset="0.80881" stop-color="#46C8E9"/>
<stop offset="1" stop-color="#53E3E5"/>
</radialGradient>
<radialGradient id="paint16_radial_591_122392" cx="0" cy="0" r="1" gradientUnits="userSpaceOnUse" gradientTransform="translate(40.3027 47.0997) rotate(1.87908) scale(13.0454 11.6886)">
<stop stop-color="#3B88FE"/>
<stop offset="0.67627" stop-color="#72CAE1"/>
<stop offset="1" stop-color="#88E5D6"/>
</radialGradient>
<linearGradient id="paint17_linear_591_122392" x1="59.7871" y1="38.7554" x2="92.5889" y2="40.0966" gradientUnits="userSpaceOnUse">
<stop stop-color="#3B88FE"/>
<stop offset="0.67627" stop-color="#72CAE1"/>
<stop offset="1" stop-color="#88E5D6"/>
</linearGradient>
<radialGradient id="paint18_radial_591_122392" cx="0" cy="0" r="1" gradientUnits="userSpaceOnUse" gradientTransform="translate(153.437 157.803) scale(173.269 155.207)">
<stop stop-color="#003CFE"/>
<stop offset="0.26918" stop-color="#2484F3"/>
<stop offset="0.54209" stop-color="#46C8E9"/>
<stop offset="0.67024" stop-color="#53E3E5"/>
</radialGradient>
<radialGradient id="paint19_radial_591_122392" cx="0" cy="0" r="1" gradientUnits="userSpaceOnUse" gradientTransform="translate(158.214 157.318) scale(98.2597 88.0171)">
<stop stop-color="#003CFE"/>
<stop offset="0.40162" stop-color="#2484F3"/>
<stop offset="0.80881" stop-color="#46C8E9"/>
<stop offset="1" stop-color="#53E3E5"/>
</radialGradient>
<radialGradient id="paint20_radial_591_122392" cx="0" cy="0" r="1" gradientUnits="userSpaceOnUse" gradientTransform="translate(156.493 159.353) scale(94.1409 84.3277)">
<stop stop-color="#003CFE"/>
<stop offset="0.40162" stop-color="#2484F3"/>
<stop offset="0.80881" stop-color="#46C8E9"/>
<stop offset="1" stop-color="#53E3E5"/>
</radialGradient>
<radialGradient id="paint21_radial_591_122392" cx="0" cy="0" r="1" gradientUnits="userSpaceOnUse" gradientTransform="translate(150.603 158.455) scale(165.004 147.804)">
<stop stop-color="#2A49FF"/>
<stop offset="0.35964" stop-color="#5B94F5"/>
<stop offset="0.65837" stop-color="#7FCBED"/>
<stop offset="0.88001" stop-color="#95EDE9"/>
<stop offset="1" stop-color="#9DFAE7"/>
</radialGradient>
<radialGradient id="paint22_radial_591_122392" cx="0" cy="0" r="1" gradientUnits="userSpaceOnUse" gradientTransform="translate(89.3575 129.359) scale(26.4108 23.6577)">
<stop stop-color="#003CFE"/>
<stop offset="0.40162" stop-color="#2484F3"/>
<stop offset="0.80881" stop-color="#46C8E9"/>
<stop offset="1" stop-color="#53E3E5"/>
</radialGradient>
<linearGradient id="paint23_linear_591_122392" x1="143.046" y1="89.5242" x2="57.6801" y2="90.0298" gradientUnits="userSpaceOnUse">
<stop stop-color="#3B88FE"/>
<stop offset="0.67627" stop-color="#72CAE1"/>
<stop offset="1" stop-color="#88E5D6"/>
</linearGradient>
<radialGradient id="paint24_radial_591_122392" cx="0" cy="0" r="1" gradientUnits="userSpaceOnUse" gradientTransform="translate(88.5948 88.4845) scale(18.2867 16.3805)">
<stop stop-color="#3B88FE"/>
<stop offset="0.67627" stop-color="#72CAE1"/>
<stop offset="1" stop-color="#88E5D6"/>
</radialGradient>
<radialGradient id="paint25_radial_591_122392" cx="0" cy="0" r="1" gradientUnits="userSpaceOnUse" gradientTransform="translate(151.338 132.699) scale(11.346 10.1633)">
<stop stop-color="#003CFE"/>
<stop offset="0.40162" stop-color="#2484F3"/>
<stop offset="0.80881" stop-color="#46C8E9"/>
<stop offset="1" stop-color="#53E3E5"/>
</radialGradient>
<radialGradient id="paint26_radial_591_122392" cx="0" cy="0" r="1" gradientUnits="userSpaceOnUse" gradientTransform="translate(77.323 132.076) scale(14.126 12.6535)">
<stop stop-color="#3B88FE"/>
<stop offset="0.67627" stop-color="#72CAE1"/>
<stop offset="1" stop-color="#88E5D6"/>
</radialGradient>
</defs>
</svg>
