<svg width="184" height="212" viewBox="0 0 184 212" fill="none" xmlns="http://www.w3.org/2000/svg">
<g filter="url(#filter0_f_591_123372)">
<path d="M155.225 136.675C153.529 131.791 151.982 126.358 149.266 124.879C146.566 123.407 125.143 133.253 124.621 134.877C124.093 136.499 133.514 160.018 135.356 159.932C137.202 159.849 146.605 156.056 148.323 155.34C150.724 154.34 158.465 152.289 159.306 150.204C160.2 147.961 156.383 140.024 155.225 136.675Z" fill="#0023DA" fill-opacity="0.6" style="mix-blend-mode:multiply"/>
<g style="mix-blend-mode:screen">
<path d="M124.62 134.878C124.62 134.878 133.463 142.921 138.281 142.676C143.131 142.446 143.115 139.754 144.145 138.665C145.173 137.575 149.204 135.351 149.578 133.853C149.949 132.354 149.713 124.318 148.346 124.549C146.98 124.78 131.643 130.407 124.62 134.878Z" fill="#0023DA" fill-opacity="0.6" style="mix-blend-mode:multiply"/>
</g>
<path style="mix-blend-mode:multiply" opacity="0.53" d="M135.356 159.933C133.653 158.81 126.062 142.65 124.62 134.878C127.247 138.045 132.194 143.444 135.498 144.332C138.824 145.231 136.995 142.281 138.122 141.947C139.227 141.421 140.481 141.298 141.666 141.6C143.315 142.047 142.628 145.535 143.179 146.806C143.73 148.076 137.067 158.413 135.356 159.933Z" fill="#0023DA" fill-opacity="0.6"/>
<path style="mix-blend-mode:multiply" opacity="0.61" d="M157.262 141.834C158.479 144.939 159.857 148.353 159.374 149.988C158.942 151.432 155.936 152.97 151.828 154.1C150.112 154.522 141.866 157.96 141.866 157.96C141.866 157.96 152.643 152.982 156.048 150.018C159.392 147.084 156.914 145.21 157.262 141.834Z" fill="#0023DA" fill-opacity="0.6"/>
<path style="mix-blend-mode:multiply" opacity="0.8" d="M148.767 155.177C159.6 151.97 158.932 150.033 158.932 150.033C158.932 150.033 158.529 145.166 150.258 145.621C149.16 145.685 143.87 146.022 143.547 146.992C141.598 151.543 139.108 155.845 136.132 159.803C143.63 157.886 147.784 155.946 148.767 155.177Z" fill="#0023DA" fill-opacity="0.6"/>
<path style="mix-blend-mode:multiply" opacity="0.61" d="M124.62 134.878C124.082 137.664 133.451 159.01 135.356 159.933C137.381 158.386 141.385 151.048 141.385 151.048C141.385 151.048 137.84 152.653 136.097 151.871C134.361 151.091 129.233 142.017 128.559 141.159C127.887 140.301 124.62 134.878 124.62 134.878Z" fill="#0023DA" fill-opacity="0.6"/>
<g style="mix-blend-mode:screen">
<path d="M135.356 159.933C135.486 159.974 135.625 159.984 135.76 159.962C135.894 159.939 136.022 159.885 136.132 159.804C136.132 159.804 142.656 150.256 143.547 146.992C144.421 143.719 149.606 145.713 150.161 145.588C150.716 145.462 156.93 146.713 157.641 147.364C158.877 148.494 157.36 152.815 159.374 149.988C159.352 147.457 156.989 147.106 154.979 144.248C154.622 142.108 150.559 136.34 150.377 135.444C150.082 134.105 149.971 132.732 150.048 131.363C150.211 130.153 149.798 125.716 148.733 124.729C148.733 124.729 150.145 129.346 149.559 131.45C149.089 133.049 148.333 134.549 147.328 135.878C146.931 136.329 143.741 138.12 143.229 138.981C142.715 139.842 137.15 143.495 134.402 141.337C131.672 139.187 124.62 134.878 124.62 134.878C124.62 134.878 126.478 138.787 127.473 139.417C128.469 140.049 129.676 139.421 130.807 140.549C131.941 141.679 135.554 142.773 136.221 142.785C136.89 142.797 137.019 142.889 137.238 142.674C137.456 142.46 137.349 142.345 137.735 142.146C138.533 141.694 139.429 141.443 140.345 141.416C141.291 141.511 142.088 141.468 142.37 142.136C142.653 142.805 142.576 146.508 142.817 146.816C143.058 147.124 142.838 147.588 142.534 148.429C142.229 149.269 138.202 157.187 135.356 159.933Z" fill="#0023DA" fill-opacity="0.6" style="mix-blend-mode:multiply"/>
</g>
<g style="mix-blend-mode:screen" opacity="0.92">
<path d="M129.356 137.862C129.356 137.862 141.801 126.543 144.25 125.608C146.703 124.675 126.067 132.845 124.62 134.877C124.229 134.987 129.356 137.862 129.356 137.862Z" fill="#0023DA" fill-opacity="0.6" style="mix-blend-mode:multiply"/>
</g>
<path d="M142.838 140.22C144.217 138.832 149.814 133.158 149.818 134.967C149.817 136.775 152.643 139.963 152.165 140.38C151.947 140.57 149.83 139.755 147.674 139.736C145.118 139.718 140.32 142.741 142.838 140.22Z" fill="#0023DA" fill-opacity="0.6" style="mix-blend-mode:multiply"/>
<g opacity="0.51">
<path d="M124.837 135.138C125.412 136.701 126.423 138.068 127.752 139.075C128.934 139.971 130.23 139.146 129.574 138.714C128.92 138.283 124.715 134.699 124.837 135.138Z" fill="#0023DA" fill-opacity="0.6" style="mix-blend-mode:multiply"/>
</g>
<g style="mix-blend-mode:screen">
<path d="M125.351 134.224C126.864 133.995 128.349 133.612 129.784 133.082C131.298 132.394 138.668 127.668 138.668 127.668C138.668 127.668 132.411 130.652 130.336 131.375C128.586 132.16 126.916 133.115 125.351 134.224Z" fill="#0023DA" fill-opacity="0.6" style="mix-blend-mode:multiply"/>
</g>
<path d="M139.062 40.2287C133.912 31.851 109.8 24.6541 81.8674 24.6541C53.5483 24.6541 29.2679 32.0304 24.6997 40.5773C24.5548 40.8062 24.4384 41.052 24.3533 41.3092C24.2578 41.5486 24.1776 41.794 24.1133 42.0435C22.773 45.9922 36.4557 158.248 48.407 165.321C66.0911 175.441 100.242 174.589 116.891 165.855C125.255 161.352 143.031 45.6965 139.062 40.2287Z" fill="#0023DA" fill-opacity="0.6" style="mix-blend-mode:multiply"/>
<g style="mix-blend-mode:screen" opacity="0.6">
<path d="M110.837 27.9029C124.841 29.4557 135.769 34.882 139.168 42.4306C129.894 69.0289 137.675 166.375 80.1978 164.43C40.2085 163.068 34.6402 98.641 31.5363 68.8361C29.0037 34.7892 24.9173 35.9945 47.8236 28.972C64.2284 23.7878 82.6832 24.7434 110.837 27.9029Z" fill="#0023DA" fill-opacity="0.6" style="mix-blend-mode:multiply"/>
</g>
<g style="mix-blend-mode:screen" opacity="0.44">
<path d="M116.802 153.331C117.145 158.056 102.291 161.885 83.6242 161.885C64.9575 161.885 50.0405 158.056 50.3062 153.331C50.5719 148.607 65.426 144.777 83.4838 144.777C101.542 144.777 116.459 148.607 116.802 153.331Z" fill="#0023DA" fill-opacity="0.6" style="mix-blend-mode:multiply"/>
</g>
<path style="mix-blend-mode:multiply" d="M112.123 153.331C112.403 157.741 99.642 161.315 83.6195 161.315C67.597 161.315 54.7769 157.741 54.9848 153.331C55.1927 148.922 67.9543 145.347 83.4885 145.347C99.0227 145.347 111.843 148.922 112.123 153.331Z" fill="#0023DA" fill-opacity="0.6"/>
<path d="M110.041 133.052C108.281 127.982 106.675 122.341 103.855 120.805C101.051 119.277 78.8092 129.5 78.2668 131.186C77.7196 132.87 87.5008 157.288 89.4129 157.199C91.3294 157.113 101.091 153.175 102.876 152.431C105.369 151.393 113.405 149.264 114.279 147.098C115.207 144.77 111.244 136.529 110.041 133.052Z" fill="#0023DA" fill-opacity="0.6" style="mix-blend-mode:multiply"/>
<g style="mix-blend-mode:screen">
<path d="M78.2668 131.186C78.2668 131.186 87.4472 139.536 92.4497 139.282C97.4847 139.044 97.4686 136.248 98.5383 135.118C99.6057 133.986 103.79 131.677 104.179 130.122C104.563 128.565 104.319 120.222 102.9 120.462C101.482 120.702 85.5579 126.544 78.2668 131.186Z" fill="#0023DA" fill-opacity="0.6" style="mix-blend-mode:multiply"/>
</g>
<path style="mix-blend-mode:multiply" opacity="0.53" d="M89.4129 157.199C87.6447 156.034 79.7639 139.255 78.2668 131.186C80.9933 134.474 86.1296 140.08 89.5607 141.002C93.0137 141.935 91.1146 138.873 92.2848 138.525C93.4315 137.979 94.7334 137.852 95.9642 138.165C97.6765 138.629 96.9627 142.251 97.5352 143.57C98.1075 144.889 91.1897 155.621 89.4129 157.199Z" fill="#0023DA" fill-opacity="0.6"/>
<path style="mix-blend-mode:multiply" opacity="0.61" d="M112.156 138.409C113.42 141.633 114.851 145.177 114.349 146.875C113.901 148.374 110.78 149.971 106.515 151.144C104.732 151.582 96.172 155.151 96.172 155.151C96.172 155.151 107.361 149.983 110.896 146.905C114.368 143.86 111.795 141.913 112.156 138.409Z" fill="#0023DA" fill-opacity="0.6"/>
<path style="mix-blend-mode:multiply" opacity="0.8" d="M103.337 152.261C114.584 148.932 113.89 146.921 113.89 146.921C113.89 146.921 113.472 141.867 104.885 142.34C103.745 142.407 98.2525 142.757 97.9175 143.763C95.8932 148.489 93.3084 152.955 90.2184 157.065C98.0028 155.074 102.316 153.059 103.337 152.261Z" fill="#0023DA" fill-opacity="0.6"/>
<path style="mix-blend-mode:multiply" opacity="0.61" d="M78.2668 131.186C77.7074 134.079 87.4354 156.241 89.4128 157.199C91.5148 155.593 95.6728 147.974 95.6728 147.974C95.6728 147.974 91.9918 149.641 90.1826 148.829C88.3801 148.02 83.056 138.598 82.3565 137.707C81.658 136.817 78.2668 131.186 78.2668 131.186Z" fill="#0023DA" fill-opacity="0.6"/>
<g style="mix-blend-mode:screen">
<path d="M89.4128 157.199C89.5481 157.242 89.6917 157.252 89.8318 157.229C89.9719 157.206 90.1044 157.149 90.2183 157.065C90.2183 157.065 96.9916 147.152 97.9174 143.763C98.8244 140.365 104.208 142.435 104.784 142.305C105.36 142.175 111.812 143.474 112.55 144.15C113.833 145.323 112.259 149.809 114.349 146.874C114.327 144.246 111.873 143.881 109.786 140.914C109.416 138.693 105.197 132.704 105.008 131.774C104.702 130.384 104.587 128.958 104.667 127.537C104.836 126.28 104.407 121.674 103.301 120.648C103.301 120.648 104.768 125.443 104.159 127.628C103.671 129.287 102.886 130.844 101.843 132.225C101.431 132.692 98.1183 134.552 97.5867 135.446C97.0536 136.34 91.2753 140.133 88.4228 137.892C85.5884 135.66 78.2668 131.186 78.2668 131.186C78.2668 131.186 80.1957 135.244 81.2281 135.899C82.263 136.555 83.5153 135.903 84.6898 137.074C85.8675 138.247 89.6181 139.383 90.3113 139.395C91.0052 139.408 91.1399 139.503 91.3663 139.281C91.5927 139.058 91.4819 138.939 91.8833 138.732C92.7113 138.263 93.6412 138.003 94.5926 137.974C95.5749 138.073 96.4022 138.028 96.6954 138.722C96.9886 139.416 96.9092 143.26 97.1595 143.58C97.4098 143.9 97.1814 144.382 96.8656 145.255C96.5485 146.127 92.3682 154.348 89.4128 157.199Z" fill="#0023DA" fill-opacity="0.6" style="mix-blend-mode:multiply"/>
</g>
<g style="mix-blend-mode:screen" opacity="0.92">
<path d="M83.1839 134.285C83.1839 134.285 96.1046 122.532 98.6474 121.562C101.194 120.594 79.7686 129.076 78.2669 131.186C77.8607 131.299 83.1839 134.285 83.1839 134.285Z" fill="#0023DA" fill-opacity="0.6" style="mix-blend-mode:multiply"/>
</g>
<path d="M97.1814 136.732C98.6127 135.291 104.423 129.401 104.427 131.279C104.427 133.155 107.361 136.466 106.865 136.899C106.638 137.096 104.44 136.25 102.202 136.231C99.5477 136.212 94.5666 139.35 97.1814 136.732Z" fill="#0023DA" fill-opacity="0.6" style="mix-blend-mode:multiply"/>
<g opacity="0.51">
<path d="M78.4915 131.456C79.0884 133.079 80.1386 134.498 81.5177 135.544C82.7452 136.473 84.0909 135.617 83.4102 135.169C82.7305 134.722 78.3652 131.001 78.4915 131.456Z" fill="#0023DA" fill-opacity="0.6" style="mix-blend-mode:multiply"/>
</g>
<g style="mix-blend-mode:screen">
<path d="M79.0259 130.508C80.5962 130.27 82.138 129.872 83.6275 129.322C85.1998 128.607 92.8521 123.7 92.8521 123.7C92.8521 123.7 86.3549 126.798 84.2014 127.549C82.384 128.365 80.6506 129.356 79.0259 130.508Z" fill="#0023DA" fill-opacity="0.6" style="mix-blend-mode:multiply"/>
</g>
<path d="M99.1925 95.9673L116.672 100.455C117.465 100.673 118.145 101.187 118.572 101.89L127.982 116.234C128.297 116.754 128.459 117.352 128.448 117.959C128.437 118.566 128.255 119.158 127.922 119.666L116.287 134.774C115.931 135.317 115.419 135.739 114.818 135.986C114.218 136.234 113.557 136.294 112.921 136.159L94.9411 132.342C94.4256 132.232 93.9449 131.998 93.5411 131.66C93.1372 131.322 92.8225 130.89 92.6246 130.402L86.8655 116.211C86.6721 115.735 86.5958 115.219 86.643 114.707C86.6901 114.195 86.8594 113.702 87.1367 113.268L95.6212 97.337C95.992 96.7576 96.5387 96.312 97.1814 96.0655C97.824 95.819 98.5288 95.7846 99.1925 95.9673Z" fill="#0023DA" fill-opacity="0.6" style="mix-blend-mode:multiply"/>
<path style="mix-blend-mode:multiply" opacity="0.8" d="M115.301 134.711C117.392 133.524 128.442 118.899 127.602 118.145C126.762 117.39 108.778 115.571 106.829 116.039C105.944 116.251 102.49 120.739 101.966 123.455C98.5728 128.63 94.1452 131.059 94.3822 131.382C94.8157 131.974 113.463 135.755 115.301 134.711Z" fill="#0023DA" fill-opacity="0.6"/>
<path style="mix-blend-mode:multiply" opacity="0.8" d="M93.8418 131.882C94.0698 132.438 112.166 133.536 116.227 131.419C118.56 130.204 125.416 122.209 125.071 120.752C124.725 119.295 118.068 125.376 112.615 126.594C107.162 127.812 93.6118 131.321 93.8418 131.882Z" fill="#0023DA" fill-opacity="0.6"/>
<g style="mix-blend-mode:screen">
<path d="M101.062 108.095C100.758 109.425 100.903 110.818 101.475 112.057C101.964 113.608 102.462 115.563 101.447 116.067C100.432 116.571 93.6933 132.143 93.1589 131.272C92.6245 130.402 89.7103 123.221 89.7103 123.221C89.7103 123.221 92.1439 130.724 93.5183 131.682C94.5939 132.313 95.7994 132.691 97.0432 132.787C97.0432 132.787 94.0721 131.897 94.4587 130.817C94.8453 129.736 100.615 120.076 101.69 118.984C102.765 117.893 104.159 117.882 104.597 116.117C105.036 114.353 104.529 113.56 105.271 113.994C106.013 114.428 119.004 115.441 120.486 116.001C121.967 116.56 124.454 116.682 126.028 117.413C127.602 118.144 128.537 116.758 128.17 116.594C127.802 116.429 127.448 115.42 127.448 115.42C127.448 115.42 127.982 116.547 126.979 116.198C125.976 115.849 123.024 116.123 121.136 115.4C119.248 114.678 107.938 113.841 107.395 113.025C106.632 111.853 105.578 110.898 104.335 110.253C103.045 109.717 101.525 108.825 101.473 108.278C101.42 107.731 97.4047 99.7627 97.4637 98.4202C97.5227 97.0778 101.731 96.6188 101.731 96.6188C101.731 96.6188 99.1045 95.6782 98.192 95.8551C97.2795 96.032 95.7607 96.7896 95.919 97.4094C96.1647 98.5271 96.6479 99.579 97.3359 100.494C98.0197 101.095 101.16 107.292 101.062 108.095Z" fill="#0023DA" fill-opacity="0.6" style="mix-blend-mode:multiply"/>
</g>
<path d="M102.394 109.404C101.769 109.119 101.757 109.123 102.117 110.453C102.517 112.067 102.582 113.746 102.308 115.387C101.897 116.962 102.853 115.332 103.763 113.631C104.674 111.93 107.522 112.759 105.988 111.755C104.454 110.751 103.08 109.715 102.394 109.404Z" fill="#0023DA" fill-opacity="0.6" style="mix-blend-mode:multiply"/>
<path style="mix-blend-mode:multiply" opacity="0.21" d="M96.3787 101.878C95.0769 102.752 92.985 114.88 93.4211 115.781C93.8572 116.681 91.0345 127.701 92.5627 129.198C94.4055 131.004 96.5835 124.504 98.2345 119.795C99.7302 115.529 101.216 116.202 100.671 113.076C100.125 109.95 97.2268 101.309 96.3787 101.878Z" fill="#0023DA" fill-opacity="0.6"/>
<g style="mix-blend-mode:screen" opacity="0.78">
<path d="M99.783 96.5911C102.791 96.8703 114.437 99.9612 116.622 101.105C118.807 102.248 123.937 112.668 121.319 112.903C118.7 113.139 106.671 113.174 103.765 110.247C100.859 107.32 93.6092 96.018 99.783 96.5911Z" fill="#0023DA" fill-opacity="0.6" style="mix-blend-mode:multiply"/>
</g>
<g style="mix-blend-mode:screen" opacity="0.92">
<path d="M113.971 100.712C111.799 99.5322 98.7679 95.6359 97.8466 96.5306C96.9253 97.4253 101.307 106.106 102.426 106.902C100.048 96.1868 115.262 101.414 113.971 100.712Z" fill="#0023DA" fill-opacity="0.6" style="mix-blend-mode:multiply"/>
</g>
<path d="M98.3673 96.964C99.8315 96.1875 96.2235 96.6318 96.6731 97.9036C97.1227 99.1753 97.7304 101.671 97.6817 100.308C97.633 98.9449 97.4196 97.4665 98.3673 96.964Z" fill="#0023DA" fill-opacity="0.6" style="mix-blend-mode:multiply"/>
<path d="M124.945 116.403C125.616 116.163 124.441 115.762 123.795 115.65C123.15 115.539 119.042 114.633 118.396 114.858C117.75 115.083 121.202 115.195 122.504 115.976C122.843 116.244 123.244 116.424 123.67 116.498C124.097 116.573 124.535 116.54 124.945 116.403Z" fill="#0023DA" fill-opacity="0.6" style="mix-blend-mode:multiply"/>
<path style="mix-blend-mode:multiply" opacity="0.8" d="M119.553 127.915C117.059 130.478 109.583 132.679 108.435 132.133C107.287 131.587 111.943 130.124 114.161 129.351C116.379 128.579 120.095 127.357 119.553 127.915Z" fill="#0023DA" fill-opacity="0.6"/>
<g style="mix-blend-mode:screen" opacity="0.69">
<path d="M91.0968 106.811C90.7461 107.014 86.5231 114.034 86.9229 115.356C87.3851 116.883 89.6668 122.758 90.182 121.659C90.6972 120.561 88.1954 115.952 89.405 113.152C90.6146 110.353 91.5025 106.576 91.0968 106.811Z" fill="#0023DA" fill-opacity="0.6" style="mix-blend-mode:multiply"/>
</g>
<path d="M70.1834 90.3659C64.9814 93.6591 59.1022 96.9294 58.1265 100.476C57.1558 104.002 74.4125 126.112 76.4383 126.274C78.4626 126.442 103.172 109.13 102.572 107.022C101.972 104.909 95.0109 95.061 93.7113 93.2669C91.8977 90.7608 87.4105 82.3615 84.762 81.9559C81.9181 81.5326 73.7522 88.1133 70.1834 90.3659Z" fill="#0023DA" fill-opacity="0.6" style="mix-blend-mode:multiply"/>
<g style="mix-blend-mode:screen">
<path d="M76.4383 126.274C76.4383 126.274 83.3572 113.849 81.7601 108.34C80.1729 102.79 77.0541 103.541 75.5103 102.646C73.9658 101.753 70.2886 97.6944 68.4497 97.6695C66.6095 97.6494 57.3538 100.111 57.994 101.631C58.6349 103.148 69.3398 119.365 76.4383 126.274Z" fill="#0023DA" fill-opacity="0.6" style="mix-blend-mode:multiply"/>
</g>
<path style="mix-blend-mode:multiply" opacity="0.53" d="M102.572 107.023C101.734 109.299 85.059 122.487 76.4382 126.274C79.3961 122.372 84.31 115.175 84.4395 111.109C84.5758 107.015 81.6528 109.936 80.9576 108.722C80.2626 107.508 79.5231 106.739 79.5902 104.715C79.6588 102.685 83.8915 102.53 85.2149 101.546C86.5382 100.562 100.342 105.456 102.572 107.023Z" fill="#0023DA" fill-opacity="0.6"/>
<path style="mix-blend-mode:multiply" opacity="0.61" d="M75.6122 86.6025C78.8822 84.3478 82.466 81.8228 84.4939 81.9366C86.2863 82.0424 88.8889 85.102 91.3191 89.5487C92.2764 91.4202 98.5099 100.026 98.5099 100.026C98.5099 100.026 89.8 88.9104 85.4345 85.7779C81.1212 82.7067 79.6222 86.0853 75.6122 86.6025Z" fill="#0023DA" fill-opacity="0.6"/>
<path style="mix-blend-mode:multiply" opacity="0.8" d="M93.4015 92.7978C86.7308 81.1342 84.666 82.4357 84.666 82.4357C84.666 82.4357 79.1308 84.2277 81.9131 93.6755C82.2866 94.929 84.1188 100.959 85.3314 101.069C91.1415 102.085 96.8084 103.794 102.211 106.16C97.9438 98.005 94.5611 93.7256 93.4015 92.7978Z" fill="#0023DA" fill-opacity="0.6"/>
<path style="mix-blend-mode:multiply" opacity="0.61" d="M76.4382 126.274C79.8172 126.138 102.021 109.478 102.572 107.022C100.225 105.101 90.6241 102.465 90.6241 102.465C90.6241 102.465 93.4518 106.131 93.0191 108.361C92.5885 110.583 83.4616 118.99 82.6497 120.003C81.8382 121.016 76.4382 126.274 76.4382 126.274Z" fill="#0023DA" fill-opacity="0.6"/>
<g style="mix-blend-mode:screen">
<path d="M102.572 107.022C102.584 106.86 102.558 106.697 102.496 106.547C102.433 106.397 102.335 106.264 102.211 106.16C102.211 106.16 89.3594 101.212 85.3313 101.069C81.2974 100.95 82.1969 94.4056 81.9004 93.7979C81.6039 93.1899 81.3616 85.6573 81.9225 84.6568C82.8961 82.9185 88.321 83.4965 84.4939 81.9366C81.5642 82.6513 81.8004 85.4819 79.0333 88.5874C76.6492 89.5827 71.0664 95.857 70.0771 96.3117C68.6045 97.0181 67.0421 97.5203 65.4334 97.8045C63.9854 97.9455 58.9529 99.6328 58.0972 101.134C58.0972 101.134 63.0675 98.2412 65.6682 98.3468C67.6501 98.4552 69.5959 98.921 71.4116 99.7219C72.042 100.058 74.9883 103.262 76.1269 103.62C77.2652 103.98 83.0189 109.425 81.2642 113.193C79.515 116.938 76.4382 126.274 76.4382 126.274C76.4382 126.274 80.4661 123.058 80.9262 121.736C81.387 120.41 80.3304 119.185 81.3304 117.569C82.3314 115.948 82.6164 111.469 82.448 110.694C82.2798 109.917 82.351 109.742 82.043 109.548C81.735 109.354 81.6305 109.509 81.294 109.115C80.5529 108.316 80.0184 107.347 79.7366 106.294C79.5896 105.173 79.322 104.263 80.0205 103.754C80.719 103.245 85.034 102.325 85.3257 101.962C85.6174 101.599 86.216 101.727 87.2737 101.85C88.3311 101.974 98.6114 104.476 102.572 107.022Z" fill="#0023DA" fill-opacity="0.6" style="mix-blend-mode:multiply"/>
</g>
<g style="mix-blend-mode:screen" opacity="0.92">
<path d="M78.6098 119.979C78.6098 119.979 62.0903 108.662 60.3391 106.082C58.5889 103.498 73.6871 125.154 76.4382 126.274C76.6719 126.697 78.6098 119.979 78.6098 119.979Z" fill="#0023DA" fill-opacity="0.6" style="mix-blend-mode:multiply"/>
</g>
<path d="M77.6698 103.735C75.6844 102.517 67.5795 97.5865 69.6767 97.089C71.7726 96.597 74.7005 92.4574 75.3142 92.8971C75.5944 93.098 75.2265 95.7701 75.7918 98.2699C76.4673 101.234 81.2806 105.962 77.6698 103.735Z" fill="#0023DA" fill-opacity="0.6" style="mix-blend-mode:multiply"/>
<g opacity="0.51">
<path d="M76.6809 125.952C78.3378 124.861 79.6469 123.318 80.4531 121.506C81.1696 119.894 79.86 118.619 79.5382 119.495C79.2167 120.37 76.2056 126.213 76.6809 125.952Z" fill="#0023DA" fill-opacity="0.6" style="mix-blend-mode:multiply"/>
</g>
<g style="mix-blend-mode:screen">
<path d="M75.4814 125.606C74.8035 123.918 73.9549 122.303 72.9487 120.788C71.7381 119.222 64.2483 111.981 64.2483 111.981C64.2483 111.981 69.4144 118.41 70.818 120.613C72.2063 122.425 73.7681 124.097 75.4814 125.606Z" fill="#0023DA" fill-opacity="0.6" style="mix-blend-mode:multiply"/>
</g>
<path d="M42.6313 125.743L60.8813 112.339C61.724 111.742 62.7635 111.49 63.7864 111.634L85.2159 113.893C85.9716 114 86.6818 114.318 87.2642 114.81C87.8467 115.303 88.2777 115.951 88.5074 116.678L93.9634 139.972C94.2087 140.749 94.2134 141.582 93.9768 142.361C93.7402 143.14 93.2733 143.83 92.6373 144.34L74.6422 158.762C74.1263 159.176 73.5168 159.457 72.867 159.58C72.2173 159.704 71.5472 159.666 70.9153 159.471L52.5351 153.79C51.9178 153.599 51.3554 153.263 50.8947 152.811C50.434 152.358 50.0886 151.802 49.8873 151.189L41.1274 130.298C40.8582 129.478 40.8589 128.593 41.1296 127.774C41.4002 126.954 41.9264 126.242 42.6313 125.743Z" fill="#0023DA" fill-opacity="0.6" style="mix-blend-mode:multiply"/>
<path style="mix-blend-mode:multiply" opacity="0.8" d="M93.1194 140.88C93.6246 137.907 88.174 115.564 86.7727 115.78C85.3714 115.995 69.3176 132.009 68.2243 134.274C67.7283 135.301 69.3512 142.218 71.5766 144.885C73.9154 152.289 72.7623 158.517 73.2649 158.543C74.1846 158.592 92.6753 143.494 93.1194 140.88Z" fill="#0023DA" fill-opacity="0.6"/>
<path style="mix-blend-mode:multiply" opacity="0.8" d="M73.3223 159.465C74.044 159.685 89.4859 142.99 90.653 137.366C91.3232 134.137 88.9905 121.13 87.299 120.308C85.6075 119.487 86.2358 130.779 83.0892 137.04C79.9426 143.302 72.5939 159.243 73.3223 159.465Z" fill="#0023DA" fill-opacity="0.6"/>
<g style="mix-blend-mode:screen">
<path d="M55.9152 133.562C56.9677 134.913 58.4388 135.879 60.0987 136.308C61.9958 137.065 64.2932 138.135 63.9773 139.521C63.6614 140.906 73.4581 159.817 72.1868 159.644C70.9155 159.471 61.6145 156.597 61.6145 156.597C61.6145 156.597 70.8472 160.194 72.8703 159.62C74.3388 159.077 75.6642 158.207 76.7461 157.076C76.7461 157.076 73.5197 159.254 72.7758 158.02C72.0319 156.787 67.2165 143.512 67.0085 141.601C66.8005 139.691 67.8965 138.329 66.5281 136.502C65.1597 134.675 63.9855 134.537 64.9974 134.162C66.0093 133.786 77.3141 121.979 79.0348 120.985C80.7555 119.991 82.8497 117.674 84.8113 116.727C86.7729 115.779 86.1667 113.77 85.7152 113.996C85.2637 114.223 83.9998 113.765 83.9998 113.765C83.9998 113.765 85.5206 114.142 84.3843 114.839C83.248 115.536 81.1697 118.618 78.9674 119.877C76.7651 121.136 66.9673 131.451 65.7419 131.33C63.9952 131.14 62.229 131.405 60.6153 132.099C59.0678 132.925 56.9927 133.692 56.4193 133.309C55.8459 132.925 44.9042 130.494 43.6449 129.37C42.3856 128.247 45.2821 123.797 45.2821 123.797C45.2821 123.797 42.2806 125.6 41.7278 126.626C41.175 127.652 40.7058 129.729 41.4346 130.067C42.1634 130.406 44.4328 131.328 45.5609 131.142C46.689 130.956 55.2127 132.829 55.9152 133.562Z" fill="#0023DA" fill-opacity="0.6" style="mix-blend-mode:multiply"/>
</g>
<path d="M58.2466 133.308C57.4732 133.689 57.4674 133.704 59.0471 134.411C60.9352 135.305 62.6202 136.575 63.9984 138.144C65.2047 139.794 64.379 137.571 63.4468 135.336C62.5146 133.101 65.5847 130.995 63.3892 131.687C61.1937 132.379 59.0943 132.89 58.2466 133.308Z" fill="#0023DA" fill-opacity="0.6" style="mix-blend-mode:multiply"/>
<path style="mix-blend-mode:multiply" opacity="0.21" d="M46.1471 133.17C45.9629 135.128 56.1004 146.792 57.3232 147.084C58.546 147.376 67.0243 158.869 69.6952 158.575C72.9159 158.221 68.3215 150.943 65.0518 145.6C62.0897 140.76 63.9248 139.851 60.4502 137.898C56.9756 135.945 46.267 131.895 46.1471 133.17Z" fill="#0023DA" fill-opacity="0.6"/>
<g style="mix-blend-mode:screen" opacity="0.78">
<path d="M43.7076 125.666C46.3685 122.968 58.6257 114.117 61.4737 112.904C64.3217 111.691 78.5341 114.987 76.6832 117.716C74.8323 120.445 65.3123 132.151 60.156 132.647C54.9997 133.143 38.2462 131.204 43.7076 125.666Z" fill="#0023DA" fill-opacity="0.6" style="mix-blend-mode:multiply"/>
</g>
<g style="mix-blend-mode:screen" opacity="0.92">
<path d="M58.9858 115.166C56.1131 116.337 41.9718 125.892 42.1105 127.497C42.2492 129.103 54.1741 131.744 55.838 131.289C43.5248 125.087 60.6946 114.469 58.9858 115.166Z" fill="#0023DA" fill-opacity="0.6" style="mix-blend-mode:multiply"/>
</g>
<path d="M42.9458 127.336C43.3534 125.298 40.9199 129.153 42.5142 129.727C44.1085 130.301 47.0195 131.693 45.6547 130.658C44.2899 129.622 42.6819 128.655 42.9458 127.336Z" fill="#0023DA" fill-opacity="0.6" style="mix-blend-mode:multiply"/>
<path d="M82.968 116.975C83.2675 116.133 81.9445 116.956 81.3231 117.494C80.7017 118.032 76.5582 121.3 76.2638 122.106C75.9694 122.911 78.8196 119.649 80.614 119.006C82.4084 118.363 82.7884 117.48 82.968 116.975Z" fill="#0023DA" fill-opacity="0.6" style="mix-blend-mode:multiply"/>
<path style="mix-blend-mode:multiply" opacity="0.8" d="M89.8841 131.354C90.3974 135.811 86.6008 144.816 85.1579 145.497C83.715 146.178 85.9896 140.496 86.9996 137.729C88.0096 134.962 89.7724 130.384 89.8841 131.354Z" fill="#0023DA" fill-opacity="0.6"/>
<g style="mix-blend-mode:screen" opacity="0.69">
<path d="M46.7513 142.216C46.6704 142.718 50.1456 152.393 51.7487 153.055C53.6021 153.82 61.1298 156.271 60.47 154.898C59.8102 153.525 53.34 152.294 51.5767 148.895C49.8134 145.497 46.8448 141.636 46.7513 142.216Z" fill="#0023DA" fill-opacity="0.6" style="mix-blend-mode:multiply"/>
</g>
<path style="mix-blend-mode:multiply" opacity="0.64" d="M134.862 43.6929C136.13 52.9684 112.611 60.4878 82.3309 60.4878C52.0508 60.4878 28.4248 52.9684 29.5609 43.6929C30.697 34.4174 54.2159 26.898 82.0918 26.898C109.968 26.898 133.594 34.4173 134.862 43.6929Z" fill="#0023DA" fill-opacity="0.6"/>
<g style="mix-blend-mode:screen" opacity="0.4">
<path d="M44.4666 38.3512C43.9714 33.1267 65.5296 30.0989 74.1018 29.6797C81.0362 29.3401 95.1316 29.8899 102.744 31.5717C112.107 33.6213 116.085 32.0896 108.888 45.2437C98.7685 62.2669 90.3296 55.3853 76.9513 41.9774C67.4859 31.9233 44.7216 40.9438 44.4666 38.3512Z" fill="#0023DA" fill-opacity="0.6" style="mix-blend-mode:multiply"/>
</g>
<path style="mix-blend-mode:multiply" opacity="0.5" d="M133.299 75.6789C132.404 88.7789 127.576 117.697 121.213 138.581C115.737 154.94 105.46 163.724 87.7533 164.386C53.8605 165.649 41.8335 172.736 25.8073 74.3386C35.9753 129.708 71.2162 126.867 87.7316 123.769C117.583 118.066 123.471 101.798 133.299 75.6789Z" fill="#0023DA" fill-opacity="0.6"/>
<g style="mix-blend-mode:screen">
<path d="M128.813 108.2C128.813 108.2 123.135 146.7 111.298 155.545C105.849 159.512 99.4241 161.804 91.0245 162.341C45.9783 165.204 40.6309 133.243 35.9846 120.88C32.0304 109.702 32.7947 114.519 33.9845 120.88C43.416 153.331 53.8606 165.649 87.7533 164.386C97.4874 164.022 106.631 162.723 113.442 157.507C123.455 149.634 128.618 119.663 128.813 108.2Z" fill="#0023DA" fill-opacity="0.6" style="mix-blend-mode:multiply"/>
</g>
<g style="mix-blend-mode:screen" opacity="0.35">
<path d="M91.491 118.33C104.663 117.811 97.8573 142.385 105.192 141.661C114.776 140.713 128.207 112.468 128.804 114.519C125.177 127.013 123.428 165.073 82.621 164.693C56.8555 164.454 43.0815 155.669 37.7511 133.296C33.1717 111.578 36.2494 131.024 52.2938 137.969C77.4036 148.46 64.8633 119.377 91.491 118.33Z" fill="#0023DA" fill-opacity="0.6" style="mix-blend-mode:multiply"/>
</g>
<path style="mix-blend-mode:multiply" opacity="0.99" d="M52.821 162.225C52.821 162.225 59.9728 165.739 80.6468 166.016C101.342 166.293 110.058 162.297 110.058 162.297C110.058 162.297 96.8128 170.567 81.0156 170.272C71.1022 169.92 61.4245 167.157 52.821 162.225Z" fill="#0023DA" fill-opacity="0.6"/>
<path d="M31.293 50.5869C33.6813 53.3025 36.0979 54.3499 35.4663 54.7945C34.8334 55.2391 31.3837 54.9127 28.9987 52.1971C26.6491 49.4815 25.2839 46.9196 25.9164 46.475C26.5477 46.0304 28.94 47.8713 31.293 50.5869Z" fill="#0023DA" fill-opacity="0.6" style="mix-blend-mode:multiply"/>
<path d="M96.7809 163.168C93.2174 163.554 90.2019 163.374 90.0507 162.765C89.8998 162.156 92.6586 161.349 96.2075 160.962C99.7512 160.576 102.754 160.756 102.92 161.365C103.085 161.974 100.339 162.781 96.7809 163.168Z" fill="#0023DA" fill-opacity="0.6" style="mix-blend-mode:multiply"/>
<path style="mix-blend-mode:multiply" opacity="0.25" d="M101.681 63.1098C87.1639 64.5167 70.5826 66.0411 48.9347 60.7669C35.192 57.3482 28.1028 54.514 24.542 47.9632C24.6746 54.4619 50.0878 70.2496 60.3758 76.646C77.4603 86.865 94.2181 92.3779 113.636 81.3397C134.192 68.9919 136.003 51.8919 136.003 51.8919C130.639 57.7457 121.462 61.1774 101.681 63.1098Z" fill="#0023DA" fill-opacity="0.6"/>
<path style="mix-blend-mode:multiply" opacity="0.2" d="M101.119 63.1098C86.6 64.5167 70.0168 66.0411 48.3758 60.7669C34.6376 57.3482 27.5521 54.514 24 47.9632C24.1241 54.4619 39.6041 141.084 47.4379 151.228C63.1922 170.422 104.95 159.196 123.903 115.999C132.297 93.4174 135.455 51.8919 135.455 51.8919C130.084 57.7457 120.903 61.1774 101.119 63.1098Z" fill="#0023DA" fill-opacity="0.6"/>
<path style="mix-blend-mode:multiply" opacity="0.2" d="M39.8857 57.9511C65.139 65.4983 89.5667 64.2419 100.967 63.1826C115.293 61.8438 131.71 55.8834 131.71 55.8834C131.71 55.8834 118.919 66.982 101.928 67.8115C87.7945 68.499 52.1069 68.1318 39.8857 57.9511Z" fill="#0023DA" fill-opacity="0.6"/>
<path style="mix-blend-mode:multiply" opacity="0.67" d="M46.5667 33.6217C46.5667 33.6217 30.4483 39.3764 30.8073 45.0905C31.0505 48.7177 35.8107 51.069 35.8107 51.069C35.8107 51.069 33.6976 41.3472 46.5667 33.6217Z" fill="#0023DA" fill-opacity="0.6"/>
<path style="mix-blend-mode:multiply" opacity="0.67" d="M127.432 38.6222C127.432 38.6222 133.928 39.6993 133.65 45.4134C133.457 49.0406 128.726 51.3919 128.726 51.3919C128.726 51.3919 133.671 48.1607 127.432 38.6222Z" fill="#0023DA" fill-opacity="0.6"/>
<g style="mix-blend-mode:screen" opacity="0.7">
<path d="M34.7084 64.1133C30.8147 63.6258 34.988 81.5284 36.7319 91.5821C38.1237 99.1435 47.0301 134.07 55.9299 133.296C55.9299 133.296 48.5722 94.6901 48.2019 88.7791C47.1828 70.4745 42.1137 65.0373 34.7084 64.1133Z" fill="#0023DA" fill-opacity="0.6" style="mix-blend-mode:multiply"/>
</g>
<path d="M30.1329 68.0289C30.1329 68.0289 32.2068 98.0809 36.9528 110.079C34.8659 107.357 30.873 100.408 30.1693 95.9777C29.3066 90.3412 30.1329 68.0289 30.1329 68.0289Z" fill="#0023DA" fill-opacity="0.6" style="mix-blend-mode:multiply"/>
<g style="mix-blend-mode:screen">
<path d="M128.073 35.9938C132.042 38.3001 134.482 40.9181 134.862 43.6933C136.13 52.9688 112.611 60.4882 82.3309 60.4882C52.0508 60.4882 28.4248 52.9688 29.5609 43.6933C30.697 34.4178 54.2159 26.8984 82.0918 26.8984C91.088 26.8539 100.066 27.6987 108.896 29.4202L109.176 27.765C100.234 26.1628 91.1654 25.3745 82.0812 25.4101C51.8253 25.4101 26.2005 33.5958 24.8465 43.6933C23.4925 53.7908 49.2339 61.9765 82.3415 61.9765C115.449 61.9765 141.074 53.7908 139.576 43.6933C139.028 39.9962 135.135 36.5554 128.959 33.6788L128.073 35.9938Z" fill="#0023DA" fill-opacity="0.6" style="mix-blend-mode:multiply"/>
</g>
<path d="M129.102 142.093C120.973 141.4 112.147 140.142 108.271 143.101C104.418 146.043 104.876 183.183 106.883 184.976C108.883 186.775 148.839 188.303 149.897 185.598C150.961 182.889 151.522 166.927 151.591 163.994C151.689 159.898 153.697 147.445 151.229 144.897C148.569 142.173 134.675 142.574 129.102 142.093Z" fill="#0023DA" fill-opacity="0.6" style="mix-blend-mode:multiply"/>
<g style="mix-blend-mode:screen">
<path d="M106.883 184.977C106.883 184.977 124.152 177.412 126.889 170.322C129.669 163.197 125.776 161.492 124.866 159.311C123.953 157.133 123.332 149.907 121.412 148.408C119.487 146.913 107.749 142.098 107.205 144.214C106.663 146.327 104.94 172.005 106.883 184.977Z" fill="#0023DA" fill-opacity="0.6" style="mix-blend-mode:multiply"/>
</g>
<path style="mix-blend-mode:multiply" opacity="0.53" d="M149.897 185.598C147.186 187.329 119.014 187.886 106.883 184.976C113.134 183.229 124.093 179.573 127.493 175.388C130.922 171.179 125.495 171.919 125.735 170.082C125.977 168.245 125.814 166.842 127.509 164.761C129.211 162.674 133.799 165.901 135.985 165.922C138.171 165.944 148.803 182.161 149.897 185.598Z" fill="#0023DA" fill-opacity="0.6"/>
<path style="mix-blend-mode:multiply" opacity="0.61" d="M137.849 142.471C143.108 142.711 148.914 142.918 150.962 144.662C152.767 146.209 153.057 151.52 152.052 158.156C151.56 160.897 151.228 174.966 151.228 174.966C151.228 174.966 150.962 156.267 148.871 149.467C146.786 142.773 142.494 145.136 137.849 142.471Z" fill="#0023DA" fill-opacity="0.6"/>
<path style="mix-blend-mode:multiply" opacity="0.8" d="M151.64 163.251C153.965 145.607 150.742 145.326 150.742 145.326C150.742 145.326 143.466 142.784 138.818 154.977C138.206 156.598 135.299 164.426 136.491 165.513C137.68 166.601 143.871 173.44 150.209 184.399C152.253 172.381 152.119 165.159 151.64 163.251Z" fill="#0023DA" fill-opacity="0.6"/>
<path style="mix-blend-mode:multiply" opacity="0.61" d="M106.883 184.976C110.556 187.539 147.345 187.747 149.897 185.598C148.965 181.693 140.952 171.224 140.952 171.224C140.952 171.224 140.993 177.355 138.747 179.361C136.51 181.359 120.136 182.918 118.466 183.337C116.798 183.755 106.883 184.976 106.883 184.976Z" fill="#0023DA" fill-opacity="0.6"/>
<g style="mix-blend-mode:screen">
<path d="M149.897 185.598C150.041 185.438 150.144 185.245 150.198 185.037C150.253 184.828 150.256 184.61 150.209 184.399C150.209 184.399 140.625 168.889 136.491 165.513C132.331 162.157 138.532 155.974 138.707 155.096C138.882 154.217 144.672 146.078 146.066 145.472C148.489 144.418 153.747 149.372 150.962 144.662C147.298 143.069 145.275 146.244 139.865 147.304C136.551 146.445 125.627 148.592 124.219 148.279C122.098 147.845 120.047 147.124 118.123 146.135C116.482 145.124 109.82 142.874 107.712 143.772C107.712 143.772 115.277 144.701 117.935 146.895C119.938 148.596 121.617 150.646 122.89 152.945C123.285 153.804 123.821 159.543 124.734 160.833C125.646 162.124 127.345 172.475 122.47 175.044C117.62 177.594 106.883 184.976 106.883 184.976C106.883 184.976 113.711 184.811 115.258 183.784C116.808 182.755 116.677 180.617 119.029 179.712C121.385 178.805 125.28 174.309 125.725 173.356C126.171 172.402 126.387 172.274 126.218 171.822C126.048 171.371 125.814 171.451 125.775 170.767C125.635 169.33 125.848 167.88 126.396 166.544C127.14 165.244 127.589 164.069 128.734 164.092C129.879 164.114 135.169 166.599 135.768 166.45C136.367 166.301 136.896 166.915 137.913 167.892C138.928 168.87 147.764 179.742 149.897 185.598Z" fill="#0023DA" fill-opacity="0.6" style="mix-blend-mode:multiply"/>
</g>
<g style="mix-blend-mode:screen" opacity="0.92">
<path d="M114.224 180.076C114.224 180.076 105.883 154.91 106.106 150.786C106.334 146.659 104.88 181.592 106.882 184.976C106.789 185.61 114.224 180.076 114.224 180.076Z" fill="#0023DA" fill-opacity="0.6" style="mix-blend-mode:multiply"/>
</g>
<path d="M126.27 162.189C125.153 159.315 120.561 147.623 123.173 148.778C125.778 149.938 132.189 147.916 132.483 148.871C132.617 149.308 130.085 151.831 128.675 154.921C127.009 158.588 128.291 167.43 126.27 162.189Z" fill="#0023DA" fill-opacity="0.6" style="mix-blend-mode:multiply"/>
<g opacity="0.51">
<path d="M107.396 184.832C110.02 185.007 112.639 184.428 114.943 183.163C116.993 182.036 116.635 179.642 115.592 180.309C114.551 180.974 106.686 184.726 107.396 184.832Z" fill="#0023DA" fill-opacity="0.6" style="mix-blend-mode:multiply"/>
</g>
<g style="mix-blend-mode:screen">
<path d="M106.409 183.506C107.049 181.182 107.449 178.8 107.605 176.395C107.584 173.775 105.496 160.139 105.496 160.139C105.496 160.139 105.785 171.057 105.497 174.505C105.248 177.529 106.409 183.506 106.409 183.506Z" fill="#0023DA" fill-opacity="0.6" style="mix-blend-mode:multiply"/>
</g>
</g>
<path d="M151.225 140.67C149.529 135.786 147.982 130.354 145.266 128.874C142.566 127.403 121.143 137.249 120.621 138.873C120.093 140.494 129.514 164.013 131.356 163.928C133.202 163.845 142.605 160.052 144.323 159.335C146.724 158.335 154.465 156.285 155.306 154.199C156.2 151.957 152.383 144.019 151.225 140.67Z" fill="url(#paint0_radial_591_123372)"/>
<path style="mix-blend-mode:screen" d="M120.62 138.873C120.62 138.873 129.463 146.916 134.281 146.671C139.131 146.442 139.115 143.749 140.145 142.66C141.173 141.57 145.204 139.346 145.578 137.849C145.949 136.349 145.713 128.313 144.346 128.544C142.98 128.776 127.643 134.402 120.62 138.873Z" fill="url(#paint1_radial_591_123372)"/>
<path style="mix-blend-mode:multiply" opacity="0.53" d="M131.356 163.929C129.653 162.806 122.062 146.645 120.62 138.873C123.247 142.041 128.194 147.44 131.498 148.328C134.824 149.227 132.995 146.277 134.122 145.942C135.227 145.417 136.481 145.294 137.666 145.596C139.315 146.043 138.628 149.531 139.179 150.801C139.73 152.072 133.067 162.408 131.356 163.929Z" fill="url(#paint2_radial_591_123372)"/>
<path style="mix-blend-mode:multiply" opacity="0.61" d="M153.262 145.83C154.479 148.935 155.857 152.349 155.374 153.984C154.942 155.428 151.936 156.966 147.828 158.096C146.112 158.518 137.866 161.956 137.866 161.956C137.866 161.956 148.643 156.978 152.048 154.013C155.392 151.08 152.914 149.206 153.262 145.83Z" fill="url(#paint3_radial_591_123372)"/>
<path style="mix-blend-mode:multiply" opacity="0.8" d="M144.767 159.172C155.6 155.966 154.932 154.028 154.932 154.028C154.932 154.028 154.529 149.161 146.258 149.617C145.16 149.681 139.87 150.018 139.547 150.988C137.598 155.539 135.108 159.84 132.132 163.799C139.63 161.882 143.784 159.941 144.767 159.172Z" fill="url(#paint4_radial_591_123372)"/>
<path style="mix-blend-mode:multiply" opacity="0.61" d="M120.62 138.873C120.082 141.66 129.451 163.006 131.356 163.929C133.381 162.381 137.385 155.044 137.385 155.044C137.385 155.044 133.84 156.649 132.097 155.866C130.361 155.087 125.233 146.013 124.559 145.154C123.887 144.297 120.62 138.873 120.62 138.873Z" fill="url(#paint5_radial_591_123372)"/>
<path style="mix-blend-mode:screen" d="M131.356 163.929C131.486 163.97 131.625 163.98 131.76 163.958C131.894 163.935 132.022 163.881 132.132 163.799C132.132 163.799 138.656 154.252 139.547 150.988C140.421 147.715 145.606 149.709 146.161 149.583C146.716 149.458 152.93 150.709 153.641 151.36C154.877 152.49 153.36 156.811 155.374 153.984C155.352 151.453 152.989 151.102 150.979 148.243C150.622 146.104 146.559 140.336 146.377 139.44C146.082 138.101 145.971 136.728 146.048 135.359C146.211 134.149 145.798 129.712 144.733 128.724C144.733 128.724 146.145 133.342 145.559 135.446C145.089 137.045 144.333 138.545 143.328 139.874C142.931 140.325 139.741 142.115 139.229 142.977C138.715 143.838 133.15 147.491 130.402 145.333C127.672 143.183 120.62 138.873 120.62 138.873C120.62 138.873 122.478 142.783 123.473 143.413C124.469 144.045 125.676 143.417 126.807 144.545C127.941 145.675 131.554 146.769 132.221 146.781C132.89 146.793 133.019 146.885 133.238 146.67C133.456 146.456 133.349 146.341 133.735 146.141C134.533 145.69 135.429 145.439 136.345 145.412C137.291 145.507 138.088 145.464 138.37 146.132C138.653 146.801 138.576 150.503 138.817 150.812C139.058 151.12 138.838 151.584 138.534 152.425C138.229 153.265 134.202 161.183 131.356 163.929Z" fill="url(#paint6_radial_591_123372)"/>
<path style="mix-blend-mode:screen" opacity="0.92" d="M125.356 141.858C125.356 141.858 137.801 130.538 140.25 129.604C142.703 128.671 122.067 136.841 120.62 138.873C120.229 138.982 125.356 141.858 125.356 141.858Z" fill="url(#paint7_radial_591_123372)"/>
<path d="M138.838 144.215C140.217 142.827 145.814 137.154 145.818 138.963C145.817 140.77 148.643 143.959 148.165 144.375C147.947 144.566 145.83 143.751 143.674 143.732C141.118 143.714 136.32 146.737 138.838 144.215Z" fill="white"/>
<path opacity="0.51" d="M120.837 139.133C121.412 140.697 122.423 142.063 123.752 143.071C124.934 143.966 126.23 143.142 125.574 142.71C124.92 142.279 120.715 138.695 120.837 139.133Z" fill="white"/>
<path style="mix-blend-mode:screen" d="M121.351 138.22C122.864 137.991 124.349 137.608 125.784 137.078C127.298 136.39 134.668 131.663 134.668 131.663C134.668 131.663 128.411 134.647 126.336 135.37C124.586 136.156 122.916 137.111 121.351 138.22Z" fill="url(#paint8_radial_591_123372)"/>
<path d="M135.062 44.2242C129.912 35.8465 105.8 28.6496 77.8674 28.6496C49.5483 28.6496 25.2679 36.0259 20.6997 44.5728C20.5548 44.8017 20.4384 45.0475 20.3533 45.3047C20.2578 45.5441 20.1776 45.7895 20.1133 46.039C18.773 49.9876 32.4557 162.244 44.407 169.317C62.0911 179.437 96.2422 178.584 112.891 169.85C121.255 165.348 139.031 49.692 135.062 44.2242Z" fill="url(#paint9_radial_591_123372)"/>
<path style="mix-blend-mode:screen" opacity="0.6" d="M106.837 31.8985C120.841 33.4513 131.769 38.8775 135.168 46.4262C125.894 73.0245 133.675 170.37 76.1978 168.425C36.2085 167.064 30.6402 102.637 27.5363 72.8317C25.0037 38.7847 20.9173 39.99 43.8236 32.9676C60.2284 27.7834 78.6832 28.739 106.837 31.8985Z" fill="url(#paint10_radial_591_123372)"/>
<path style="mix-blend-mode:screen" opacity="0.44" d="M112.802 157.327C113.145 162.051 98.2909 165.881 79.6242 165.881C60.9575 165.881 46.0405 162.051 46.3062 157.327C46.5719 152.603 61.426 148.773 79.4838 148.773C97.5416 148.773 112.459 152.603 112.802 157.327Z" fill="url(#paint11_linear_591_123372)"/>
<path style="mix-blend-mode:multiply" d="M108.123 157.327C108.403 161.736 95.642 165.311 79.6195 165.311C63.597 165.311 50.7769 161.736 50.9848 157.327C51.1927 152.918 63.9543 149.343 79.4885 149.343C95.0227 149.343 107.843 152.918 108.123 157.327Z" fill="url(#paint12_linear_591_123372)"/>
<path d="M106.041 137.048C104.281 131.977 102.675 126.337 99.8549 124.801C97.0511 123.273 74.8092 133.496 74.2668 135.182C73.7196 136.865 83.5008 161.283 85.4129 161.195C87.3294 161.108 97.0914 157.17 98.8762 156.426C101.369 155.388 109.405 153.259 110.279 151.094C111.207 148.766 107.244 140.525 106.041 137.048Z" fill="url(#paint13_radial_591_123372)"/>
<path style="mix-blend-mode:screen" d="M74.2668 135.181C74.2668 135.181 83.4472 143.532 88.4497 143.278C93.4847 143.04 93.4686 140.244 94.5383 139.113C95.6057 137.981 99.7904 135.673 100.179 134.118C100.563 132.561 100.319 124.218 98.8996 124.457C97.4819 124.698 81.5579 130.54 74.2668 135.181Z" fill="url(#paint14_radial_591_123372)"/>
<path style="mix-blend-mode:multiply" opacity="0.53" d="M85.4129 161.195C83.6447 160.029 75.7639 143.251 74.2668 135.182C76.9933 138.47 82.1296 144.076 85.5607 144.998C89.0137 145.931 87.1146 142.868 88.2848 142.521C89.4315 141.975 90.7334 141.848 91.9642 142.161C93.6765 142.625 92.9627 146.246 93.5352 147.565C94.1075 148.885 87.1897 159.617 85.4129 161.195Z" fill="url(#paint15_radial_591_123372)"/>
<path style="mix-blend-mode:multiply" opacity="0.61" d="M108.156 142.404C109.42 145.628 110.851 149.173 110.349 150.87C109.901 152.37 106.78 153.966 102.515 155.139C100.732 155.578 92.172 159.147 92.172 159.147C92.172 159.147 103.361 153.978 106.896 150.901C110.368 147.855 107.795 145.909 108.156 142.404Z" fill="url(#paint16_radial_591_123372)"/>
<path style="mix-blend-mode:multiply" opacity="0.8" d="M99.3366 156.257C110.584 152.928 109.89 150.916 109.89 150.916C109.89 150.916 109.472 145.863 100.885 146.336C99.7449 146.403 94.2525 146.752 93.9175 147.759C91.8932 152.485 89.3084 156.95 86.2184 161.06C94.0028 159.07 98.3163 157.055 99.3366 156.257Z" fill="url(#paint17_radial_591_123372)"/>
<path style="mix-blend-mode:multiply" opacity="0.61" d="M74.2668 135.182C73.7074 138.075 83.4354 160.237 85.4128 161.195C87.5148 159.588 91.6728 151.97 91.6728 151.97C91.6728 151.97 87.9918 153.637 86.1826 152.824C84.3801 152.015 79.056 142.594 78.3565 141.703C77.658 140.812 74.2668 135.182 74.2668 135.182Z" fill="url(#paint18_radial_591_123372)"/>
<path style="mix-blend-mode:screen" d="M85.4128 161.194C85.5481 161.238 85.6917 161.248 85.8318 161.225C85.9719 161.201 86.1044 161.145 86.2183 161.06C86.2183 161.06 92.9916 151.147 93.9174 147.759C94.8244 144.361 100.208 146.431 100.784 146.301C101.36 146.171 107.812 147.47 108.55 148.145C109.833 149.319 108.259 153.805 110.349 150.87C110.327 148.242 107.873 147.877 105.786 144.91C105.416 142.688 101.197 136.7 101.008 135.769C100.702 134.379 100.587 132.954 100.667 131.532C100.836 130.276 100.407 125.67 99.3013 124.644C99.3013 124.644 100.768 129.438 100.159 131.623C99.6707 133.283 98.886 134.84 97.8427 136.22C97.4308 136.688 94.1183 138.547 93.5867 139.442C93.0536 140.335 87.2753 144.128 84.4228 141.887C81.5884 139.656 74.2668 135.181 74.2668 135.181C74.2668 135.181 76.1957 139.24 77.2281 139.894C78.263 140.55 79.5153 139.899 80.6898 141.07C81.8675 142.242 85.6181 143.379 86.3113 143.391C87.0052 143.403 87.1399 143.499 87.3663 143.276C87.5927 143.054 87.4819 142.934 87.8833 142.727C88.7113 142.258 89.6412 141.998 90.5926 141.97C91.5749 142.069 92.4022 142.023 92.6954 142.718C92.9886 143.412 92.9092 147.256 93.1595 147.576C93.4098 147.896 93.1814 148.378 92.8656 149.251C92.5485 150.123 88.3682 158.344 85.4128 161.194Z" fill="url(#paint19_radial_591_123372)"/>
<path style="mix-blend-mode:screen" opacity="0.92" d="M79.1839 138.281C79.1839 138.281 92.1046 126.528 94.6474 125.558C97.1936 124.589 75.7686 133.071 74.2669 135.181C73.8607 135.295 79.1839 138.281 79.1839 138.281Z" fill="url(#paint20_radial_591_123372)"/>
<path d="M93.1814 140.728C94.6127 139.287 100.423 133.397 100.427 135.275C100.427 137.151 103.361 140.461 102.865 140.894C102.638 141.092 100.44 140.246 98.2022 140.226C95.5477 140.207 90.5666 143.346 93.1814 140.728Z" fill="white"/>
<path opacity="0.51" d="M74.4915 135.451C75.0884 137.075 76.1386 138.493 77.5177 139.539C78.7452 140.469 80.0909 139.613 79.4102 139.165C78.7305 138.717 74.3652 134.996 74.4915 135.451Z" fill="white"/>
<path style="mix-blend-mode:screen" d="M75.0259 134.503C76.5962 134.265 78.138 133.868 79.6275 133.317C81.1998 132.603 88.8521 127.696 88.8521 127.696C88.8521 127.696 82.3549 130.794 80.2014 131.545C78.384 132.36 76.6506 133.351 75.0259 134.503Z" fill="url(#paint21_radial_591_123372)"/>
<path d="M95.1925 99.9629L112.672 104.451C113.465 104.669 114.145 105.182 114.572 105.886L123.982 120.23C124.297 120.749 124.459 121.347 124.448 121.955C124.437 122.562 124.255 123.154 123.922 123.662L112.287 138.769C111.931 139.312 111.419 139.735 110.818 139.982C110.218 140.229 109.557 140.289 108.921 140.154L90.9411 136.337C90.4256 136.228 89.9449 135.994 89.5411 135.656C89.1372 135.317 88.8225 134.886 88.6246 134.398L82.8655 120.207C82.6721 119.73 82.5958 119.215 82.643 118.703C82.6901 118.191 82.8594 117.697 83.1367 117.264L91.6212 101.333C91.992 100.753 92.5387 100.308 93.1814 100.061C93.824 99.8147 94.5288 99.7803 95.1925 99.9629Z" fill="url(#paint22_radial_591_123372)"/>
<path style="mix-blend-mode:multiply" opacity="0.8" d="M111.301 138.707C113.392 137.519 124.442 122.895 123.602 122.14C122.762 121.385 104.778 119.567 102.829 120.035C101.944 120.247 98.4905 124.735 97.9657 127.451C94.5728 132.625 90.1452 135.055 90.3822 135.378C90.8157 135.969 109.463 139.751 111.301 138.707Z" fill="url(#paint23_radial_591_123372)"/>
<path style="mix-blend-mode:multiply" opacity="0.8" d="M89.8418 135.878C90.0698 136.433 108.166 137.531 112.227 135.415C114.56 134.2 121.416 126.204 121.071 124.748C120.725 123.291 114.068 129.372 108.615 130.59C103.162 131.808 89.6118 135.317 89.8418 135.878Z" fill="url(#paint24_radial_591_123372)"/>
<path style="mix-blend-mode:screen" d="M97.0622 112.09C96.7579 113.42 96.9032 114.814 97.4754 116.053C97.9644 117.604 98.462 119.559 97.447 120.063C96.432 120.567 89.6933 136.139 89.1589 135.268C88.6245 134.397 85.7103 127.217 85.7103 127.217C85.7103 127.217 88.1439 134.72 89.5183 135.677C90.5939 136.308 91.7994 136.686 93.0432 136.783C93.0432 136.783 90.0721 135.893 90.4587 134.812C90.8453 133.732 96.6153 124.071 97.6904 122.98C98.7655 121.888 100.159 121.877 100.597 120.113C101.036 118.348 100.529 117.555 101.271 117.989C102.013 118.424 115.004 119.437 116.486 119.996C117.967 120.555 120.454 120.678 122.028 121.409C123.602 122.14 124.537 120.753 124.17 120.589C123.802 120.425 123.448 119.415 123.448 119.415C123.448 119.415 123.982 120.542 122.979 120.194C121.976 119.845 119.024 120.118 117.136 119.396C115.248 118.674 103.938 117.837 103.395 117.02C102.632 115.848 101.578 114.893 100.335 114.249C99.0446 113.712 97.5247 112.82 97.4726 112.273C97.4205 111.726 93.4047 103.758 93.4637 102.416C93.5227 101.073 97.7313 100.614 97.7313 100.614C97.7313 100.614 95.1045 99.6737 94.192 99.8506C93.2795 100.028 91.7607 100.785 91.919 101.405C92.1647 102.523 92.6479 103.575 93.3359 104.49C94.0197 105.091 97.1604 111.288 97.0622 112.09Z" fill="url(#paint25_radial_591_123372)"/>
<path d="M98.3941 113.399C97.7688 113.115 97.7566 113.119 98.1168 114.449C98.5166 116.063 98.5816 117.742 98.3076 119.382C97.8969 120.957 98.8531 119.328 99.7634 117.627C100.674 115.925 103.522 116.755 101.988 115.751C100.454 114.747 99.0796 113.711 98.3941 113.399Z" fill="white"/>
<path style="mix-blend-mode:multiply" opacity="0.21" d="M92.3787 105.874C91.0769 106.747 88.985 118.876 89.4211 119.776C89.8572 120.677 87.0345 131.696 88.5627 133.194C90.4055 135 92.5835 128.499 94.2345 123.791C95.7302 119.525 97.2161 120.198 96.6707 117.072C96.1253 113.946 93.2268 105.305 92.3787 105.874Z" fill="url(#paint26_radial_591_123372)"/>
<path style="mix-blend-mode:screen" opacity="0.78" d="M95.783 100.587C98.7911 100.866 110.437 103.957 112.622 105.1C114.807 106.244 119.937 116.664 117.319 116.899C114.7 117.134 102.671 117.17 99.7651 114.243C96.8589 111.315 89.6092 100.014 95.783 100.587Z" fill="url(#paint27_linear_591_123372)"/>
<path style="mix-blend-mode:screen" opacity="0.92" d="M109.971 104.708C107.799 103.528 94.7679 99.6315 93.8466 100.526C92.9253 101.421 97.3067 110.101 98.4262 110.897C96.0483 100.182 111.262 105.41 109.971 104.708Z" fill="url(#paint28_radial_591_123372)"/>
<path d="M94.3673 100.96C95.8315 100.183 92.2235 100.627 92.6731 101.899C93.1227 103.171 93.7304 105.667 93.6817 104.304C93.633 102.941 93.4196 101.462 94.3673 100.96Z" fill="white"/>
<path d="M120.945 120.398C121.616 120.158 120.441 119.758 119.795 119.646C119.15 119.534 115.042 118.629 114.396 118.854C113.75 119.078 117.202 119.19 118.504 119.972C118.843 120.24 119.244 120.419 119.67 120.494C120.097 120.568 120.535 120.535 120.945 120.398Z" fill="white"/>
<path style="mix-blend-mode:multiply" opacity="0.8" d="M115.553 131.91C113.059 134.474 105.583 136.675 104.435 136.129C103.287 135.583 107.943 134.12 110.161 133.347C112.379 132.574 116.095 131.352 115.553 131.91Z" fill="url(#paint29_radial_591_123372)"/>
<path style="mix-blend-mode:screen" opacity="0.69" d="M87.0968 110.807C86.7461 111.01 82.5231 118.03 82.9229 119.351C83.3851 120.879 85.6668 126.754 86.182 125.655C86.6972 124.556 84.1954 119.948 85.405 117.148C86.6146 114.348 87.5025 110.572 87.0968 110.807Z" fill="url(#paint30_radial_591_123372)"/>
<path d="M66.1834 94.3615C60.9814 97.6546 55.1022 100.925 54.1265 104.471C53.1558 107.998 70.4125 130.107 72.4383 130.269C74.4626 130.437 99.1725 113.126 98.5717 111.018C97.9723 108.904 91.0109 99.0565 89.7113 97.2625C87.8977 94.7564 83.4105 86.357 80.762 85.9515C77.9181 85.5281 69.7522 92.1088 66.1834 94.3615Z" fill="url(#paint31_radial_591_123372)"/>
<path style="mix-blend-mode:screen" d="M72.4383 130.269C72.4383 130.269 79.3572 117.845 77.7601 112.335C76.1729 106.785 73.0541 107.537 71.5103 106.641C69.9658 105.749 66.2886 101.69 64.4497 101.665C62.6095 101.645 53.3538 104.107 53.994 105.627C54.6349 107.144 65.3398 123.36 72.4383 130.269Z" fill="url(#paint32_radial_591_123372)"/>
<path style="mix-blend-mode:multiply" opacity="0.53" d="M98.5716 111.018C97.7337 113.295 81.059 126.483 72.4382 130.27C75.3961 126.367 80.31 119.171 80.4395 115.104C80.5758 111.011 77.6528 113.931 76.9576 112.718C76.2626 111.504 75.5231 110.735 75.5902 108.711C75.6588 106.681 79.8915 106.526 81.2149 105.542C82.5382 104.557 96.3423 109.452 98.5716 111.018Z" fill="url(#paint33_radial_591_123372)"/>
<path style="mix-blend-mode:multiply" opacity="0.61" d="M71.6122 90.598C74.8822 88.3434 78.466 85.8183 80.4939 85.9322C82.2863 86.038 84.8889 89.0976 87.3191 93.5443C88.2764 95.4158 94.5099 104.021 94.5099 104.021C94.5099 104.021 85.8 92.906 81.4345 89.7734C77.1212 86.7022 75.6222 90.0808 71.6122 90.598Z" fill="url(#paint34_radial_591_123372)"/>
<path style="mix-blend-mode:multiply" opacity="0.8" d="M89.4015 96.7934C82.7308 85.1298 80.666 86.4313 80.666 86.4313C80.666 86.4313 75.1308 88.2233 77.9131 97.6711C78.2866 98.9246 80.1188 104.955 81.3314 105.064C87.1415 106.08 92.8084 107.79 98.2106 110.155C93.9438 102.001 90.5611 97.7212 89.4015 96.7934Z" fill="url(#paint35_radial_591_123372)"/>
<path style="mix-blend-mode:multiply" opacity="0.61" d="M72.4382 130.269C75.8172 130.133 98.0206 113.473 98.5716 111.018C96.2254 109.096 86.6241 106.461 86.6241 106.461C86.6241 106.461 89.4518 110.127 89.0191 112.357C88.5885 114.578 79.4616 122.985 78.6497 123.999C77.8382 125.011 72.4382 130.269 72.4382 130.269Z" fill="url(#paint36_radial_591_123372)"/>
<path style="mix-blend-mode:screen" d="M98.5717 111.018C98.5845 110.856 98.5584 110.693 98.4956 110.543C98.4328 110.393 98.3351 110.26 98.2106 110.156C98.2106 110.156 85.3595 105.207 81.3314 105.065C77.2975 104.946 78.197 98.4014 77.9005 97.7937C77.604 97.1857 77.3617 89.6531 77.9226 88.6526C78.8962 86.9143 84.3211 87.4923 80.494 85.9324C77.5643 86.6471 77.8005 89.4777 75.0334 92.5832C72.6493 93.5785 67.0665 99.8528 66.0772 100.308C64.6045 101.014 63.0422 101.516 61.4335 101.8C59.9855 101.941 54.953 103.629 54.0973 105.13C54.0973 105.13 59.0676 102.237 61.6683 102.343C63.6501 102.451 65.596 102.917 67.4117 103.718C68.0421 104.054 70.9884 107.258 72.127 107.616C73.2653 107.976 79.019 113.421 77.2643 117.189C75.5151 120.934 72.4383 130.27 72.4383 130.27C72.4383 130.27 76.4662 127.054 76.9263 125.732C77.3871 124.406 76.3305 123.181 77.3305 121.564C78.3315 119.944 78.6165 115.465 78.4481 114.689C78.2799 113.913 78.3511 113.737 78.0431 113.543C77.7351 113.349 77.6306 113.504 77.2941 113.111C76.553 112.311 76.0184 111.343 75.7367 110.29C75.5897 109.169 75.3221 108.259 76.0206 107.75C76.7191 107.241 81.0341 106.32 81.3258 105.957C81.6175 105.595 82.2161 105.722 83.2738 105.845C84.3312 105.97 94.6115 108.472 98.5717 111.018Z" fill="url(#paint37_radial_591_123372)"/>
<path style="mix-blend-mode:screen" opacity="0.92" d="M74.6098 123.975C74.6098 123.975 58.0903 112.657 56.3391 110.078C54.5889 107.494 69.6871 129.149 72.4382 130.269C72.6719 130.692 74.6098 123.975 74.6098 123.975Z" fill="url(#paint38_radial_591_123372)"/>
<path d="M73.6698 107.73C71.6844 106.513 63.5795 101.582 65.6767 101.085C67.7726 100.593 70.7005 96.453 71.3142 96.8928C71.5944 97.0936 71.2265 99.7658 71.7918 102.265C72.4673 105.229 77.2806 109.958 73.6698 107.73Z" fill="white"/>
<path opacity="0.51" d="M72.6809 129.948C74.3378 128.856 75.6469 127.314 76.4531 125.502C77.1696 123.89 75.86 122.614 75.5382 123.491C75.2167 124.366 72.2056 130.208 72.6809 129.948Z" fill="white"/>
<path style="mix-blend-mode:screen" d="M71.4814 129.601C70.8035 127.913 69.9549 126.299 68.9487 124.783C67.7381 123.218 60.2483 115.976 60.2483 115.976C60.2483 115.976 65.4144 122.405 66.818 124.609C68.2063 126.42 69.7681 128.092 71.4814 129.601Z" fill="url(#paint39_radial_591_123372)"/>
<path d="M38.6313 129.739L56.8813 116.335C57.724 115.738 58.7635 115.486 59.7864 115.63L81.2159 117.889C81.9716 117.995 82.6818 118.313 83.2642 118.806C83.8467 119.299 84.2777 119.946 84.5074 120.673L89.9634 143.968C90.2087 144.745 90.2134 145.577 89.9768 146.357C89.7402 147.136 89.2733 147.826 88.6373 148.335L70.6422 162.758C70.1263 163.171 69.5168 163.452 68.867 163.576C68.2173 163.699 67.5472 163.662 66.9153 163.466L48.5351 157.785C47.9178 157.595 47.3554 157.259 46.8947 156.807C46.434 156.354 46.0886 155.798 45.8873 155.185L37.1274 134.294C36.8582 133.474 36.8589 132.589 37.1296 131.769C37.4002 130.95 37.9264 130.238 38.6313 129.739Z" fill="url(#paint40_radial_591_123372)"/>
<path style="mix-blend-mode:multiply" opacity="0.8" d="M89.1194 144.875C89.6246 141.902 84.174 119.559 82.7727 119.775C81.3714 119.991 65.3176 136.004 64.2243 138.269C63.7283 139.296 65.3512 146.214 67.5766 148.88C69.9154 156.284 68.7623 162.512 69.2649 162.539C70.1846 162.588 88.6753 147.489 89.1194 144.875Z" fill="url(#paint41_radial_591_123372)"/>
<path style="mix-blend-mode:multiply" opacity="0.8" d="M69.3223 163.46C70.044 163.681 85.4859 146.985 86.653 141.361C87.3232 138.132 84.9905 125.125 83.299 124.303C81.6075 123.482 82.2358 134.774 79.0892 141.036C75.9426 147.297 68.5939 163.238 69.3223 163.46Z" fill="url(#paint42_radial_591_123372)"/>
<path style="mix-blend-mode:screen" d="M51.9152 137.557C52.9677 138.909 54.4388 139.874 56.0987 140.303C57.9958 141.06 60.2932 142.13 59.9773 143.516C59.6614 144.901 69.4581 163.812 68.1868 163.639C66.9155 163.466 57.6145 160.592 57.6145 160.592C57.6145 160.592 66.8472 164.189 68.8703 163.615C70.3388 163.072 71.6642 162.202 72.7461 161.072C72.7461 161.072 69.5197 163.249 68.7758 162.015C68.0319 160.782 63.2165 147.507 63.0085 145.597C62.8005 143.686 63.8965 142.324 62.5281 140.497C61.1597 138.67 59.9855 138.532 60.9974 138.157C62.0093 137.781 73.3141 125.974 75.0348 124.98C76.7555 123.986 78.8497 121.67 80.8113 120.722C82.7729 119.775 82.1667 117.765 81.7152 117.992C81.2637 118.218 79.9998 117.76 79.9998 117.76C79.9998 117.76 81.5206 118.137 80.3843 118.834C79.248 119.531 77.1697 122.614 74.9674 123.872C72.7651 125.131 62.9673 135.447 61.7419 135.325C59.9952 135.135 58.229 135.4 56.6153 136.094C55.0678 136.921 52.9927 137.688 52.4193 137.304C51.8459 136.92 40.9042 134.489 39.6449 133.366C38.3856 132.242 41.2821 127.792 41.2821 127.792C41.2821 127.792 38.2806 129.595 37.7278 130.621C37.175 131.647 36.7058 133.724 37.4346 134.062C38.1634 134.401 40.4328 135.323 41.5609 135.137C42.689 134.951 51.2127 136.824 51.9152 137.557Z" fill="url(#paint43_radial_591_123372)"/>
<path d="M54.2466 137.303C53.4732 137.684 53.4674 137.699 55.0471 138.406C56.9352 139.3 58.6202 140.57 59.9984 142.139C61.2047 143.789 60.379 141.567 59.4468 139.332C58.5146 137.097 61.5847 134.99 59.3892 135.682C57.1937 136.374 55.0943 136.885 54.2466 137.303Z" fill="white"/>
<path style="mix-blend-mode:multiply" opacity="0.21" d="M42.1471 137.165C41.9629 139.123 52.1004 150.787 53.3232 151.079C54.546 151.371 63.0243 162.864 65.6952 162.57C68.9159 162.216 64.3215 154.938 61.0518 149.595C58.0897 144.755 59.9248 143.847 56.4502 141.893C52.9756 139.94 42.267 135.89 42.1471 137.165Z" fill="url(#paint44_radial_591_123372)"/>
<path style="mix-blend-mode:screen" opacity="0.78" d="M39.7076 129.661C42.3685 126.963 54.6257 118.112 57.4737 116.9C60.3217 115.687 74.5341 118.982 72.6832 121.711C70.8323 124.44 61.3123 136.146 56.156 136.642C50.9997 137.139 34.2462 135.199 39.7076 129.661Z" fill="url(#paint45_linear_591_123372)"/>
<path style="mix-blend-mode:screen" opacity="0.92" d="M54.9858 119.161C52.1131 120.332 37.9718 129.888 38.1105 131.493C38.2492 133.098 50.1741 135.739 51.838 135.285C39.5248 129.082 56.6946 118.464 54.9858 119.161Z" fill="url(#paint46_radial_591_123372)"/>
<path d="M38.9458 131.331C39.3534 129.293 36.9199 133.149 38.5142 133.722C40.1085 134.296 43.0195 135.688 41.6547 134.653C40.2899 133.618 38.6819 132.65 38.9458 131.331Z" fill="white"/>
<path d="M78.968 120.97C79.2675 120.129 77.9445 120.951 77.3231 121.489C76.7017 122.027 72.5582 125.295 72.2638 126.101C71.9694 126.906 74.8196 123.645 76.614 123.002C78.4084 122.358 78.7884 121.475 78.968 120.97Z" fill="white"/>
<path style="mix-blend-mode:multiply" opacity="0.8" d="M85.8841 135.349C86.3974 139.807 82.6008 148.812 81.1579 149.492C79.715 150.173 81.9896 144.491 82.9996 141.724C84.0096 138.957 85.7724 134.379 85.8841 135.349Z" fill="url(#paint47_radial_591_123372)"/>
<path style="mix-blend-mode:screen" opacity="0.69" d="M42.7513 146.211C42.6704 146.713 46.1456 156.389 47.7487 157.05C49.6021 157.815 57.1298 160.266 56.47 158.893C55.8102 157.52 49.34 156.289 47.5767 152.891C45.8134 149.492 42.8448 145.631 42.7513 146.211Z" fill="url(#paint48_radial_591_123372)"/>
<path style="mix-blend-mode:multiply" opacity="0.64" d="M130.862 47.6885C132.13 56.964 108.611 64.4834 78.3309 64.4834C48.0508 64.4834 24.4248 56.964 25.5609 47.6885C26.697 38.413 50.2159 30.8936 78.0918 30.8936C105.968 30.8936 129.594 38.4129 130.862 47.6885Z" fill="url(#paint49_linear_591_123372)"/>
<path style="mix-blend-mode:screen" opacity="0.4" d="M40.4666 42.3468C39.9714 37.1223 61.5296 34.0945 70.1018 33.6753C77.0362 33.3357 91.1316 33.8855 98.7435 35.5673C108.107 37.6169 112.085 36.0852 104.888 49.2392C94.7685 66.2625 86.3296 59.3809 72.9513 45.973C63.4859 35.9189 40.7216 44.9394 40.4666 42.3468Z" fill="url(#paint50_linear_591_123372)"/>
<path style="mix-blend-mode:multiply" opacity="0.5" d="M129.299 79.6745C128.404 92.7744 123.576 121.693 117.213 142.577C111.737 158.935 101.46 167.72 83.7533 168.382C49.8605 169.645 37.8335 176.731 21.8073 78.3341C31.9753 133.704 67.2162 130.863 83.7316 127.765C113.583 122.062 119.471 105.794 129.299 79.6745Z" fill="url(#paint51_linear_591_123372)"/>
<path style="mix-blend-mode:screen" d="M124.813 112.196C124.813 112.196 119.135 150.696 107.298 159.541C101.849 163.508 95.4241 165.8 87.0245 166.337C41.9783 169.2 36.6309 137.239 31.9846 124.876C28.0304 113.697 28.7947 118.514 29.9845 124.876C39.416 157.327 49.8606 169.644 83.7533 168.382C93.4874 168.018 102.631 166.718 109.442 161.503C119.455 153.63 124.618 123.659 124.813 112.196Z" fill="url(#paint52_radial_591_123372)"/>
<path style="mix-blend-mode:screen" opacity="0.35" d="M87.491 122.326C100.663 121.807 93.8573 146.381 101.192 145.657C110.776 144.708 124.207 116.464 124.804 118.515C121.177 131.009 119.428 169.069 78.621 168.689C52.8555 168.449 39.0815 159.664 33.7511 137.292C29.1717 115.573 32.2494 135.019 48.2938 141.965C73.4036 152.456 60.8633 123.373 87.491 122.326Z" fill="url(#paint53_linear_591_123372)"/>
<path style="mix-blend-mode:multiply" opacity="0.99" d="M48.821 166.22C48.821 166.22 55.9728 169.734 76.6468 170.011C97.3423 170.288 106.058 166.293 106.058 166.293C106.058 166.293 92.8128 174.563 77.0156 174.268C67.1022 173.915 57.4245 171.153 48.821 166.22Z" fill="url(#paint54_linear_591_123372)"/>
<path d="M27.293 54.5825C29.6813 57.2981 32.0979 58.3454 31.4663 58.7901C30.8334 59.2347 27.3837 58.9082 24.9987 56.1927C22.6491 53.4771 21.2839 50.9151 21.9164 50.4705C22.5477 50.0259 24.94 51.8668 27.293 54.5825Z" fill="white"/>
<path d="M92.7809 167.163C89.2174 167.55 86.2019 167.37 86.0507 166.761C85.8998 166.152 88.6586 165.345 92.2075 164.958C95.7512 164.571 98.754 164.751 98.9195 165.36C99.0853 165.969 96.3393 166.776 92.7809 167.163Z" fill="white"/>
<path style="mix-blend-mode:multiply" opacity="0.25" d="M97.6812 67.1053C83.1639 68.5123 66.5826 70.0366 44.9347 64.7624C31.192 61.3437 24.1028 58.5096 20.542 51.9587C20.6746 58.4574 46.0878 74.2452 56.3758 80.6415C73.4603 90.8606 90.2181 96.3734 109.636 85.3352C130.192 72.9875 132.003 55.8874 132.003 55.8874C126.639 61.7413 117.462 65.173 97.6812 67.1053Z" fill="url(#paint55_linear_591_123372)"/>
<path style="mix-blend-mode:multiply" opacity="0.2" d="M97.1192 67.1053C82.6 68.5123 66.0168 70.0366 44.3758 64.7624C30.6376 61.3437 23.5521 58.5096 20 51.9587C20.1241 58.4574 35.6041 145.079 43.4379 155.224C59.1922 174.418 100.95 163.192 119.903 119.994C128.297 97.4129 131.455 55.8874 131.455 55.8874C126.084 61.7413 116.903 65.173 97.1192 67.1053Z" fill="url(#paint56_linear_591_123372)"/>
<path style="mix-blend-mode:multiply" opacity="0.2" d="M35.8857 61.9467C61.139 69.4938 85.5667 68.2375 96.9666 67.1781C111.293 65.8394 127.71 59.8789 127.71 59.8789C127.71 59.8789 114.919 70.9775 97.9282 71.807C83.7945 72.4945 48.1069 72.1273 35.8857 61.9467Z" fill="url(#paint57_linear_591_123372)"/>
<path style="mix-blend-mode:multiply" opacity="0.67" d="M42.5667 37.6173C42.5667 37.6173 26.4483 43.372 26.8073 49.086C27.0505 52.7132 31.8107 55.0646 31.8107 55.0646C31.8107 55.0646 29.6976 45.3428 42.5667 37.6173Z" fill="url(#paint58_linear_591_123372)"/>
<path style="mix-blend-mode:multiply" opacity="0.67" d="M123.432 42.6178C123.432 42.6178 129.928 43.6949 129.65 49.409C129.457 53.0362 124.726 55.3875 124.726 55.3875C124.726 55.3875 129.671 52.1563 123.432 42.6178Z" fill="url(#paint59_linear_591_123372)"/>
<path style="mix-blend-mode:screen" opacity="0.7" d="M30.7084 68.1088C26.8147 67.6213 30.988 85.5239 32.7319 95.5777C34.1237 103.139 43.0301 138.065 51.9299 137.291C51.9299 137.291 44.5722 98.6856 44.2019 92.7746C43.1828 74.47 38.1137 69.0328 30.7084 68.1088Z" fill="url(#paint60_linear_591_123372)"/>
<path d="M26.1329 72.0245C26.1329 72.0245 28.2068 102.077 32.9528 114.074C30.8659 111.352 26.873 104.403 26.1693 99.9733C25.3066 94.3368 26.1329 72.0245 26.1329 72.0245Z" fill="white"/>
<path style="mix-blend-mode:screen" d="M124.073 39.9894C128.042 42.2957 130.482 44.9137 130.862 47.6889C132.13 56.9644 108.611 64.4838 78.3309 64.4838C48.0508 64.4838 24.4248 56.9644 25.5609 47.6889C26.697 38.4134 50.2159 30.894 78.0918 30.894C87.088 30.8495 96.0665 31.6942 104.896 33.4158L105.176 31.7606C96.234 30.1583 87.1654 29.3701 78.0812 29.4056C47.8253 29.4056 22.2005 37.5914 20.8465 47.6889C19.4925 57.7864 45.2339 65.9721 78.3415 65.9721C111.449 65.9721 137.074 57.7864 135.576 47.6889C135.028 43.9918 131.135 40.551 124.959 37.6744L124.073 39.9894Z" fill="url(#paint61_linear_591_123372)"/>
<path d="M125.102 146.088C116.973 145.396 108.147 144.137 104.271 147.097C100.418 150.039 100.876 187.179 102.883 188.972C104.883 190.77 144.839 192.298 145.897 189.594C146.961 186.884 147.522 170.922 147.591 167.989C147.689 163.894 149.697 151.441 147.229 148.892C144.569 146.168 130.675 146.57 125.102 146.088Z" fill="url(#paint62_radial_591_123372)"/>
<path style="mix-blend-mode:screen" d="M102.883 188.972C102.883 188.972 120.152 181.407 122.889 174.317C125.669 167.192 121.776 165.488 120.866 163.307C119.953 161.128 119.332 153.903 117.412 152.404C115.487 150.909 103.749 146.093 103.205 148.209C102.663 150.323 100.94 176 102.883 188.972Z" fill="url(#paint63_radial_591_123372)"/>
<path style="mix-blend-mode:multiply" opacity="0.53" d="M145.897 189.594C143.186 191.324 115.014 191.881 102.883 188.972C109.134 187.224 120.093 183.569 123.493 179.383C126.922 175.174 121.495 175.914 121.735 174.078C121.977 172.241 121.814 170.837 123.509 168.757C125.211 166.67 129.799 169.896 131.985 169.918C134.171 169.939 144.803 186.156 145.897 189.594Z" fill="url(#paint64_radial_591_123372)"/>
<path style="mix-blend-mode:multiply" opacity="0.61" d="M133.849 146.466C139.108 146.707 144.914 146.913 146.962 148.657C148.767 150.204 149.057 155.516 148.052 162.152C147.56 164.893 147.228 178.961 147.228 178.961C147.228 178.961 146.962 160.262 144.871 153.462C142.786 146.769 138.494 149.132 133.849 146.466Z" fill="url(#paint65_radial_591_123372)"/>
<path style="mix-blend-mode:multiply" opacity="0.8" d="M147.64 167.247C149.965 149.603 146.742 149.322 146.742 149.322C146.742 149.322 139.466 146.779 134.818 158.973C134.206 160.594 131.299 168.422 132.491 169.508C133.68 170.596 139.871 177.436 146.209 188.395C148.253 176.377 148.119 169.154 147.64 167.247Z" fill="url(#paint66_radial_591_123372)"/>
<path style="mix-blend-mode:multiply" opacity="0.61" d="M102.883 188.972C106.556 191.535 143.345 191.743 145.897 189.594C144.965 185.689 136.952 175.22 136.952 175.22C136.952 175.22 136.993 181.351 134.747 183.356C132.51 185.355 116.136 186.914 114.466 187.333C112.798 187.75 102.883 188.972 102.883 188.972Z" fill="url(#paint67_radial_591_123372)"/>
<path style="mix-blend-mode:screen" d="M145.897 189.594C146.041 189.433 146.144 189.241 146.198 189.032C146.253 188.824 146.256 188.605 146.209 188.395C146.209 188.395 136.625 172.884 132.491 169.508C128.331 166.152 134.532 159.97 134.707 159.091C134.882 158.213 140.672 150.074 142.066 149.467C144.489 148.414 149.747 153.367 146.962 148.657C143.298 147.065 141.275 150.24 135.865 151.3C132.551 150.44 121.627 152.587 120.219 152.275C118.098 151.84 116.047 151.119 114.123 150.131C112.482 149.12 105.82 146.869 103.712 147.768C103.712 147.768 111.277 148.697 113.935 150.891C115.938 152.592 117.617 154.642 118.89 156.94C119.285 157.8 119.821 163.539 120.734 164.828C121.646 166.119 123.345 176.471 118.47 179.04C113.62 181.589 102.883 188.972 102.883 188.972C102.883 188.972 109.711 188.806 111.258 187.78C112.808 186.75 112.677 184.612 115.029 183.708C117.385 182.8 121.28 178.304 121.725 177.351C122.171 176.397 122.387 176.269 122.218 175.818C122.048 175.367 121.814 175.447 121.775 174.763C121.635 173.325 121.848 171.876 122.396 170.54C123.14 169.24 123.589 168.065 124.734 168.087C125.879 168.11 131.169 170.595 131.768 170.445C132.367 170.296 132.896 170.911 133.913 171.887C134.928 172.865 143.764 183.737 145.897 189.594Z" fill="url(#paint68_radial_591_123372)"/>
<path style="mix-blend-mode:screen" opacity="0.92" d="M110.224 184.072C110.224 184.072 101.883 158.905 102.106 154.782C102.334 150.655 100.88 185.587 102.882 188.972C102.789 189.605 110.224 184.072 110.224 184.072Z" fill="url(#paint69_radial_591_123372)"/>
<path d="M122.27 166.185C121.153 163.311 116.561 151.619 119.173 152.774C121.778 153.933 128.189 151.912 128.483 152.867C128.617 153.303 126.085 155.827 124.675 158.916C123.009 162.584 124.291 171.426 122.27 166.185Z" fill="white"/>
<path opacity="0.51" d="M103.396 188.827C106.02 189.003 108.639 188.424 110.943 187.159C112.993 186.032 112.635 183.638 111.592 184.305C110.551 184.97 102.686 188.721 103.396 188.827Z" fill="white"/>
<path style="mix-blend-mode:screen" d="M102.409 187.501C103.049 185.178 103.449 182.796 103.605 180.391C103.584 177.771 101.496 164.134 101.496 164.134C101.496 164.134 101.785 175.053 101.497 178.501C101.248 181.524 102.409 187.501 102.409 187.501Z" fill="url(#paint70_radial_591_123372)"/>
<defs>
<filter id="filter0_f_591_123372" x="0" y="0.654083" width="183.473" height="210.414" filterUnits="userSpaceOnUse" color-interpolation-filters="sRGB">
<feFlood flood-opacity="0" result="BackgroundImageFix"/>
<feBlend mode="normal" in="SourceGraphic" in2="BackgroundImageFix" result="shape"/>
<feGaussianBlur stdDeviation="12" result="effect1_foregroundBlur_591_123372"/>
</filter>
<radialGradient id="paint0_radial_591_123372" cx="0" cy="0" r="1" gradientUnits="userSpaceOnUse" gradientTransform="translate(131.141 138.103) rotate(111.897) scale(72.0652 36.0596)">
<stop stop-color="#003CFE"/>
<stop offset="0.26918" stop-color="#2484F3"/>
<stop offset="0.54209" stop-color="#46C8E9"/>
<stop offset="0.67024" stop-color="#53E3E5"/>
</radialGradient>
<radialGradient id="paint1_radial_591_123372" cx="0" cy="0" r="1" gradientUnits="userSpaceOnUse" gradientTransform="translate(129.834 131.225) rotate(111.897) scale(42.837 21.4345)">
<stop stop-color="#003CFE"/>
<stop offset="0.26918" stop-color="#2484F3"/>
<stop offset="0.54209" stop-color="#46C8E9"/>
<stop offset="0.67024" stop-color="#53E3E5"/>
</radialGradient>
<radialGradient id="paint2_radial_591_123372" cx="0" cy="0" r="1" gradientUnits="userSpaceOnUse" gradientTransform="translate(133.739 161.921) rotate(111.897) scale(40.7777 20.4041)">
<stop stop-color="#003CFE"/>
<stop offset="0.40162" stop-color="#2484F3"/>
<stop offset="0.80881" stop-color="#46C8E9"/>
<stop offset="1" stop-color="#53E3E5"/>
</radialGradient>
<radialGradient id="paint3_radial_591_123372" cx="0" cy="0" r="1" gradientUnits="userSpaceOnUse" gradientTransform="translate(147.92 154.743) rotate(111.897) scale(11.8357 5.92226)">
<stop stop-color="#003CFE"/>
<stop offset="0.40162" stop-color="#2484F3"/>
<stop offset="0.80881" stop-color="#46C8E9"/>
<stop offset="1" stop-color="#53E3E5"/>
</radialGradient>
<radialGradient id="paint4_radial_591_123372" cx="0" cy="0" r="1" gradientUnits="userSpaceOnUse" gradientTransform="translate(150.909 161.267) rotate(111.897) scale(17.1811 8.59696)">
<stop stop-color="#003CFE"/>
<stop offset="0.40162" stop-color="#2484F3"/>
<stop offset="0.80881" stop-color="#46C8E9"/>
<stop offset="1" stop-color="#53E3E5"/>
</radialGradient>
<radialGradient id="paint5_radial_591_123372" cx="0" cy="0" r="1" gradientUnits="userSpaceOnUse" gradientTransform="translate(135.596 155.857) rotate(111.897) scale(17.9356 8.97453)">
<stop stop-color="#003CFE"/>
<stop offset="0.40162" stop-color="#2484F3"/>
<stop offset="0.80881" stop-color="#46C8E9"/>
<stop offset="1" stop-color="#53E3E5"/>
</radialGradient>
<radialGradient id="paint6_radial_591_123372" cx="0" cy="0" r="1" gradientUnits="userSpaceOnUse" gradientTransform="translate(149.015 139.422) rotate(65.9726) scale(29.688 29.7094)">
<stop stop-color="#2A49FF"/>
<stop offset="0.35964" stop-color="#5B94F5"/>
<stop offset="0.65837" stop-color="#7FCBED"/>
<stop offset="0.88001" stop-color="#95EDE9"/>
<stop offset="1" stop-color="#9DFAE7"/>
</radialGradient>
<radialGradient id="paint7_radial_591_123372" cx="0" cy="0" r="1" gradientUnits="userSpaceOnUse" gradientTransform="translate(121.226 140.03) rotate(111.897) scale(30.9063 15.4647)">
<stop stop-color="#003CFE"/>
<stop offset="0.40162" stop-color="#2484F3"/>
<stop offset="0.80881" stop-color="#46C8E9"/>
<stop offset="1" stop-color="#53E3E5"/>
</radialGradient>
<radialGradient id="paint8_radial_591_123372" cx="0" cy="0" r="1" gradientUnits="userSpaceOnUse" gradientTransform="translate(128.031 134.996) rotate(68.3451) scale(5.12533 5.25723)">
<stop stop-color="#2A49FF"/>
<stop offset="0.35964" stop-color="#5B94F5"/>
<stop offset="0.65837" stop-color="#7FCBED"/>
<stop offset="0.88001" stop-color="#95EDE9"/>
<stop offset="1" stop-color="#9DFAE7"/>
</radialGradient>
<radialGradient id="paint9_radial_591_123372" cx="0" cy="0" r="1" gradientUnits="userSpaceOnUse" gradientTransform="translate(83.2374 155.397) scale(90.1889 73.3977)">
<stop offset="0.02223" stop-color="#5B4FBE"/>
<stop offset="0.16132" stop-color="#5D54BF"/>
<stop offset="0.32564" stop-color="#6362C0"/>
<stop offset="0.50279" stop-color="#6D7AC3"/>
<stop offset="0.689" stop-color="#7B9BC8"/>
<stop offset="0.88028" stop-color="#8DC6CD"/>
<stop offset="1" stop-color="#9AE4D1"/>
</radialGradient>
<radialGradient id="paint10_radial_591_123372" cx="0" cy="0" r="1" gradientUnits="userSpaceOnUse" gradientTransform="translate(104.834 212.559) scale(183.455 149.3)">
<stop stop-color="#9ABDEE"/>
<stop offset="0.08746" stop-color="#9ABAEE"/>
<stop offset="0.15323" stop-color="#9AB0ED"/>
<stop offset="0.2119" stop-color="#99A0EB"/>
<stop offset="0.26613" stop-color="#998AE8"/>
<stop offset="0.27325" stop-color="#9986E8"/>
<stop offset="0.53382" stop-color="#8683E6"/>
<stop offset="1" stop-color="#5C7BE2"/>
</radialGradient>
<linearGradient id="paint11_linear_591_123372" x1="115.074" y1="157.659" x2="-6.25033" y2="156.524" gradientUnits="userSpaceOnUse">
<stop stop-color="#B79EFA"/>
<stop offset="0.10272" stop-color="#AA93E9"/>
<stop offset="0.30748" stop-color="#8976BB"/>
<stop offset="0.59524" stop-color="#534872"/>
<stop offset="0.95194" stop-color="#0A090E"/>
<stop offset="1"/>
</linearGradient>
<linearGradient id="paint12_linear_591_123372" x1="110.075" y1="157.612" x2="5.82516" y2="156.636" gradientUnits="userSpaceOnUse">
<stop stop-color="#478BAF"/>
<stop offset="0.2225" stop-color="#6BA2BF"/>
<stop offset="0.71433" stop-color="#C7DCE7"/>
<stop offset="1" stop-color="white"/>
</linearGradient>
<radialGradient id="paint13_radial_591_123372" cx="0" cy="0" r="1" gradientUnits="userSpaceOnUse" gradientTransform="translate(85.1894 134.383) rotate(111.897) scale(74.8208 37.4384)">
<stop stop-color="#003DFA"/>
<stop offset="0.27915" stop-color="#248BF3"/>
<stop offset="0.54608" stop-color="#43CFEC"/>
<stop offset="0.67024" stop-color="#4FEAEA"/>
</radialGradient>
<radialGradient id="paint14_radial_591_123372" cx="0" cy="0" r="1" gradientUnits="userSpaceOnUse" gradientTransform="translate(83.8325 127.241) rotate(111.897) scale(44.4749 22.2541)">
<stop stop-color="#003DFA"/>
<stop offset="0.27915" stop-color="#248BF3"/>
<stop offset="0.54608" stop-color="#43CFEC"/>
<stop offset="0.67024" stop-color="#4FEAEA"/>
</radialGradient>
<radialGradient id="paint15_radial_591_123372" cx="0" cy="0" r="1" gradientUnits="userSpaceOnUse" gradientTransform="translate(87.8868 159.11) rotate(111.897) scale(42.3369 21.1843)">
<stop stop-color="#003DFA"/>
<stop offset="0.41649" stop-color="#248BF3"/>
<stop offset="0.81476" stop-color="#43CFEC"/>
<stop offset="1" stop-color="#4FEAEA"/>
</radialGradient>
<radialGradient id="paint16_radial_591_123372" cx="0" cy="0" r="1" gradientUnits="userSpaceOnUse" gradientTransform="translate(102.61 151.659) rotate(111.897) scale(12.2882 6.1487)">
<stop stop-color="#003DFA"/>
<stop offset="0.41649" stop-color="#248BF3"/>
<stop offset="0.81476" stop-color="#43CFEC"/>
<stop offset="1" stop-color="#4FEAEA"/>
</radialGradient>
<radialGradient id="paint17_radial_591_123372" cx="0" cy="0" r="1" gradientUnits="userSpaceOnUse" gradientTransform="translate(105.714 158.431) rotate(111.897) scale(17.838 8.92568)">
<stop stop-color="#003DFA"/>
<stop offset="0.41649" stop-color="#248BF3"/>
<stop offset="0.81476" stop-color="#43CFEC"/>
<stop offset="1" stop-color="#4FEAEA"/>
</radialGradient>
<radialGradient id="paint18_radial_591_123372" cx="0" cy="0" r="1" gradientUnits="userSpaceOnUse" gradientTransform="translate(89.8148 152.815) rotate(111.897) scale(18.6215 9.3177)">
<stop stop-color="#003DFA"/>
<stop offset="0.41649" stop-color="#248BF3"/>
<stop offset="0.81476" stop-color="#43CFEC"/>
<stop offset="1" stop-color="#4FEAEA"/>
</radialGradient>
<radialGradient id="paint19_radial_591_123372" cx="0" cy="0" r="1" gradientUnits="userSpaceOnUse" gradientTransform="translate(103.747 135.75) rotate(65.9727) scale(30.8232 30.8454)">
<stop stop-color="#2646FA"/>
<stop offset="0.00299" stop-color="#2647FA"/>
<stop offset="0.36254" stop-color="#5392F0"/>
<stop offset="0.65991" stop-color="#74C9E8"/>
<stop offset="0.88055" stop-color="#88EBE4"/>
<stop offset="1" stop-color="#90F8E2"/>
</radialGradient>
<radialGradient id="paint20_radial_591_123372" cx="0" cy="0" r="1" gradientUnits="userSpaceOnUse" gradientTransform="translate(74.8958 136.383) rotate(111.897) scale(32.0882 16.0561)">
<stop stop-color="#003DFA"/>
<stop offset="0.41649" stop-color="#248BF3"/>
<stop offset="0.81476" stop-color="#43CFEC"/>
<stop offset="1" stop-color="#4FEAEA"/>
</radialGradient>
<radialGradient id="paint21_radial_591_123372" cx="0" cy="0" r="1" gradientUnits="userSpaceOnUse" gradientTransform="translate(81.9612 131.156) rotate(68.3452) scale(5.32131 5.45824)">
<stop stop-color="#2646FA"/>
<stop offset="0.00299" stop-color="#2647FA"/>
<stop offset="0.36254" stop-color="#5392F0"/>
<stop offset="0.65991" stop-color="#74C9E8"/>
<stop offset="0.88055" stop-color="#88EBE4"/>
<stop offset="1" stop-color="#90F8E2"/>
</radialGradient>
<radialGradient id="paint22_radial_591_123372" cx="0" cy="0" r="1" gradientUnits="userSpaceOnUse" gradientTransform="translate(104.748 143.218) rotate(33.1961) scale(65.7035 65.6752)">
<stop stop-color="#0E54FF"/>
<stop offset="0.24114" stop-color="#3090F6"/>
<stop offset="0.53318" stop-color="#55D4EC"/>
<stop offset="0.67024" stop-color="#64EFE8"/>
</radialGradient>
<radialGradient id="paint23_radial_591_123372" cx="0" cy="0" r="1" gradientUnits="userSpaceOnUse" gradientTransform="translate(106.376 144.038) rotate(33.1961) scale(37.261 37.2449)">
<stop stop-color="#0E54FF"/>
<stop offset="0.35979" stop-color="#3090F6"/>
<stop offset="0.79551" stop-color="#55D4EC"/>
<stop offset="1" stop-color="#64EFE8"/>
</radialGradient>
<radialGradient id="paint24_radial_591_123372" cx="0" cy="0" r="1" gradientUnits="userSpaceOnUse" gradientTransform="translate(105.358 144.4) rotate(33.1961) scale(35.6992 35.6838)">
<stop stop-color="#0E54FF"/>
<stop offset="0.35979" stop-color="#3090F6"/>
<stop offset="0.79551" stop-color="#55D4EC"/>
<stop offset="1" stop-color="#64EFE8"/>
</radialGradient>
<radialGradient id="paint25_radial_591_123372" cx="0" cy="0" r="1" gradientUnits="userSpaceOnUse" gradientTransform="translate(103.697 142.86) rotate(33.1961) scale(62.5697 62.5427)">
<stop stop-color="#385CFF"/>
<stop offset="0.31166" stop-color="#6398F6"/>
<stop offset="0.63118" stop-color="#8BCEEF"/>
<stop offset="0.87042" stop-color="#A4F0EA"/>
<stop offset="1" stop-color="#ADFDE8"/>
</radialGradient>
<radialGradient id="paint26_radial_591_123372" cx="0" cy="0" r="1" gradientUnits="userSpaceOnUse" gradientTransform="translate(91.0138 119.848) rotate(33.1961) scale(10.0149 10.0106)">
<stop stop-color="#0E54FF"/>
<stop offset="0.35979" stop-color="#3090F6"/>
<stop offset="0.79551" stop-color="#55D4EC"/>
<stop offset="1" stop-color="#64EFE8"/>
</radialGradient>
<linearGradient id="paint27_linear_591_123372" x1="117.293" y1="116.899" x2="90.1282" y2="99.2927" gradientUnits="userSpaceOnUse">
<stop stop-color="#499DFF"/>
<stop offset="0.63746" stop-color="#80D4E7"/>
<stop offset="1" stop-color="#9BEFDC"/>
</linearGradient>
<radialGradient id="paint28_radial_591_123372" cx="0" cy="0" r="1" gradientUnits="userSpaceOnUse" gradientTransform="translate(100.256 105.227) rotate(33.1961) scale(6.93434 6.93135)">
<stop stop-color="#499DFF"/>
<stop offset="0.63746" stop-color="#80D4E7"/>
<stop offset="1" stop-color="#9BEFDC"/>
</radialGradient>
<radialGradient id="paint29_radial_591_123372" cx="0" cy="0" r="1" gradientUnits="userSpaceOnUse" gradientTransform="translate(109.906 133.899) rotate(33.1961) scale(4.30241 4.30055)">
<stop stop-color="#0E54FF"/>
<stop offset="0.35979" stop-color="#3090F6"/>
<stop offset="0.79551" stop-color="#55D4EC"/>
<stop offset="1" stop-color="#64EFE8"/>
</radialGradient>
<radialGradient id="paint30_radial_591_123372" cx="0" cy="0" r="1" gradientUnits="userSpaceOnUse" gradientTransform="translate(86.5647 118.311) rotate(33.1962) scale(5.35658 5.35427)">
<stop stop-color="#499DFF"/>
<stop offset="0.63746" stop-color="#80D4E7"/>
<stop offset="1" stop-color="#9BEFDC"/>
</radialGradient>
<radialGradient id="paint31_radial_591_123372" cx="0" cy="0" r="1" gradientUnits="userSpaceOnUse" gradientTransform="translate(68.6798 118.304) rotate(8.63522) scale(85.839 42.8783)">
<stop stop-color="#499DFF"/>
<stop offset="0.42725" stop-color="#80D4E7"/>
<stop offset="0.67024" stop-color="#9BEFDC"/>
</radialGradient>
<radialGradient id="paint32_radial_591_123372" cx="0" cy="0" r="1" gradientUnits="userSpaceOnUse" gradientTransform="translate(61.0586 121.69) rotate(8.63522) scale(51.0226 25.4868)">
<stop stop-color="#499DFF"/>
<stop offset="0.42725" stop-color="#80D4E7"/>
<stop offset="0.67024" stop-color="#9BEFDC"/>
</radialGradient>
<radialGradient id="paint33_radial_591_123372" cx="0" cy="0" r="1" gradientUnits="userSpaceOnUse" gradientTransform="translate(95.5936 108.809) rotate(8.63522) scale(48.5755 24.2644)">
<stop stop-color="#499DFF"/>
<stop offset="0.63746" stop-color="#80D4E7"/>
<stop offset="1" stop-color="#9BEFDC"/>
</radialGradient>
<radialGradient id="paint34_radial_591_123372" cx="0" cy="0" r="1" gradientUnits="userSpaceOnUse" gradientTransform="translate(83.4056 94.3509) rotate(8.63522) scale(14.0972 7.04183)">
<stop stop-color="#499DFF"/>
<stop offset="0.63746" stop-color="#80D4E7"/>
<stop offset="1" stop-color="#9BEFDC"/>
</radialGradient>
<radialGradient id="paint35_radial_591_123372" cx="0" cy="0" r="1" gradientUnits="userSpaceOnUse" gradientTransform="translate(90.1562 89.1147) rotate(8.63522) scale(20.4657 10.223)">
<stop stop-color="#499DFF"/>
<stop offset="0.63746" stop-color="#80D4E7"/>
<stop offset="1" stop-color="#9BEFDC"/>
</radialGradient>
<radialGradient id="paint36_radial_591_123372" cx="0" cy="0" r="1" gradientUnits="userSpaceOnUse" gradientTransform="translate(88.0544 108.311) rotate(8.63521) scale(21.3664 10.6729)">
<stop stop-color="#499DFF"/>
<stop offset="0.63746" stop-color="#80D4E7"/>
<stop offset="1" stop-color="#9BEFDC"/>
</radialGradient>
<radialGradient id="paint37_radial_591_123372" cx="0" cy="0" r="1" gradientUnits="userSpaceOnUse" gradientTransform="translate(65.3366 97.2602) rotate(-37.208) scale(35.3507 35.3405)">
<stop stop-color="#739DFF"/>
<stop offset="0.09034" stop-color="#80A7FD"/>
<stop offset="0.51308" stop-color="#B6D4F7"/>
<stop offset="0.82891" stop-color="#D8F0F3"/>
<stop offset="1" stop-color="#E5FAF1"/>
</radialGradient>
<radialGradient id="paint38_radial_591_123372" cx="0" cy="0" r="1" gradientUnits="userSpaceOnUse" gradientTransform="translate(73.6156 129.253) rotate(8.63522) scale(36.8096 18.3871)">
<stop stop-color="#499DFF"/>
<stop offset="0.63746" stop-color="#80D4E7"/>
<stop offset="1" stop-color="#9BEFDC"/>
</radialGradient>
<radialGradient id="paint39_radial_591_123372" cx="0" cy="0" r="1" gradientUnits="userSpaceOnUse" gradientTransform="translate(65.9214 122.749) rotate(-34.8423) scale(6.10362 6.2533)">
<stop stop-color="#739DFF"/>
<stop offset="0.09034" stop-color="#80A7FD"/>
<stop offset="0.51308" stop-color="#B6D4F7"/>
<stop offset="0.82891" stop-color="#D8F0F3"/>
<stop offset="1" stop-color="#E5FAF1"/>
</radialGradient>
<radialGradient id="paint40_radial_591_123372" cx="0" cy="0" r="1" gradientUnits="userSpaceOnUse" gradientTransform="translate(88.3014 154.824) rotate(-17.4949) scale(82.4868 82.414)">
<stop stop-color="#47A2FF"/>
<stop offset="0.44449" stop-color="#85DFEB"/>
<stop offset="0.67024" stop-color="#A0F9E2"/>
</radialGradient>
<radialGradient id="paint41_radial_591_123372" cx="0" cy="0" r="1" gradientUnits="userSpaceOnUse" gradientTransform="translate(90.3933 153.894) rotate(-17.4949) scale(46.7768 46.7356)">
<stop stop-color="#47A2FF"/>
<stop offset="0.66318" stop-color="#85DFEB"/>
<stop offset="1" stop-color="#A0F9E2"/>
</radialGradient>
<radialGradient id="paint42_radial_591_123372" cx="0" cy="0" r="1" gradientUnits="userSpaceOnUse" gradientTransform="translate(89.9371 155.171) rotate(-17.4949) scale(44.816 44.7765)">
<stop stop-color="#47A2FF"/>
<stop offset="0.66318" stop-color="#85DFEB"/>
<stop offset="1" stop-color="#A0F9E2"/>
</radialGradient>
<radialGradient id="paint43_radial_591_123372" cx="0" cy="0" r="1" gradientUnits="userSpaceOnUse" gradientTransform="translate(87.1193 155.56) rotate(-17.4949) scale(78.552 78.4827)">
<stop stop-color="#71A0FF"/>
<stop offset="0.10931" stop-color="#81ACFD"/>
<stop offset="0.52318" stop-color="#B7D8F7"/>
<stop offset="0.83245" stop-color="#D9F3F3"/>
<stop offset="1" stop-color="#E6FDF2"/>
</radialGradient>
<radialGradient id="paint44_radial_591_123372" cx="0" cy="0" r="1" gradientUnits="userSpaceOnUse" gradientTransform="translate(54.6581 149.593) rotate(-17.4949) scale(12.5731 12.562)">
<stop stop-color="#47A2FF"/>
<stop offset="0.66318" stop-color="#85DFEB"/>
<stop offset="1" stop-color="#A0F9E2"/>
</radialGradient>
<linearGradient id="paint45_linear_591_123372" x1="72.663" y1="121.739" x2="33.9759" y2="134.186" gradientUnits="userSpaceOnUse">
<stop stop-color="#82D5FF"/>
<stop offset="0.06583" stop-color="#89D8FE"/>
<stop offset="0.70207" stop-color="#CDF0F5"/>
<stop offset="1" stop-color="#E8F9F2"/>
</linearGradient>
<radialGradient id="paint46_radial_591_123372" cx="0" cy="0" r="1" gradientUnits="userSpaceOnUse" gradientTransform="translate(47.7736 129.005) rotate(-17.4949) scale(8.70559 8.69791)">
<stop stop-color="#82D5FF"/>
<stop offset="0.06583" stop-color="#89D8FE"/>
<stop offset="0.70207" stop-color="#CDF0F5"/>
<stop offset="1" stop-color="#E8F9F2"/>
</radialGradient>
<radialGradient id="paint47_radial_591_123372" cx="0" cy="0" r="1" gradientUnits="userSpaceOnUse" gradientTransform="translate(83.3337 142.413) rotate(-17.4949) scale(5.40142 5.39665)">
<stop stop-color="#47A2FF"/>
<stop offset="0.66318" stop-color="#85DFEB"/>
<stop offset="1" stop-color="#A0F9E2"/>
</radialGradient>
<radialGradient id="paint48_radial_591_123372" cx="0" cy="0" r="1" gradientUnits="userSpaceOnUse" gradientTransform="translate(49.6286 152.69) rotate(-17.4949) scale(6.72481 6.71888)">
<stop stop-color="#82D5FF"/>
<stop offset="0.06583" stop-color="#89D8FE"/>
<stop offset="0.70207" stop-color="#CDF0F5"/>
<stop offset="1" stop-color="#E8F9F2"/>
</radialGradient>
<linearGradient id="paint49_linear_591_123372" x1="25.5216" y1="47.6885" x2="130.911" y2="47.6885" gradientUnits="userSpaceOnUse">
<stop stop-color="#5C7BE2"/>
<stop offset="0.64146" stop-color="#8683E6"/>
<stop offset="1" stop-color="#9986E8"/>
</linearGradient>
<linearGradient id="paint50_linear_591_123372" x1="46.0949" y1="27.1498" x2="100.795" y2="52.6624" gradientUnits="userSpaceOnUse">
<stop stop-color="#B79EFA"/>
<stop offset="0.10272" stop-color="#AA93E9"/>
<stop offset="0.30748" stop-color="#8976BB"/>
<stop offset="0.59524" stop-color="#534872"/>
<stop offset="0.95194" stop-color="#0A090E"/>
<stop offset="1"/>
</linearGradient>
<linearGradient id="paint51_linear_591_123372" x1="140.082" y1="125.41" x2="29.5976" y2="122.55" gradientUnits="userSpaceOnUse">
<stop offset="0.16463" stop-color="#478BAF"/>
<stop offset="0.22975" stop-color="#5090B3"/>
<stop offset="0.33422" stop-color="#679FBD"/>
<stop offset="0.465" stop-color="#8DB7CE"/>
<stop offset="0.61692" stop-color="#C3D9E5"/>
<stop offset="0.76907" stop-color="white"/>
<stop offset="0.79182" stop-color="#F4FBFD"/>
<stop offset="0.83132" stop-color="#D8EFF9"/>
<stop offset="0.88288" stop-color="#AADDF2"/>
<stop offset="0.94378" stop-color="#6AC3E9"/>
<stop offset="0.99485" stop-color="#30ACE0"/>
</linearGradient>
<radialGradient id="paint52_radial_591_123372" cx="0" cy="0" r="1" gradientUnits="userSpaceOnUse" gradientTransform="translate(90.8825 170.887) scale(82.641 67.2551)">
<stop stop-color="#B79EFA"/>
<stop offset="0.10272" stop-color="#AA93E9"/>
<stop offset="0.30748" stop-color="#8976BB"/>
<stop offset="0.59524" stop-color="#534872"/>
<stop offset="0.95194" stop-color="#0A090E"/>
<stop offset="1"/>
</radialGradient>
<linearGradient id="paint53_linear_591_123372" x1="31.8207" y1="143.55" x2="124.804" y2="143.55" gradientUnits="userSpaceOnUse">
<stop stop-color="#B79EFA"/>
<stop offset="0.10272" stop-color="#AA93E9"/>
<stop offset="0.30748" stop-color="#8976BB"/>
<stop offset="0.59524" stop-color="#534872"/>
<stop offset="0.95194" stop-color="#0A090E"/>
<stop offset="1"/>
</linearGradient>
<linearGradient id="paint54_linear_591_123372" x1="112.257" y1="168.8" x2="35.9203" y2="171.079" gradientUnits="userSpaceOnUse">
<stop stop-color="#478BAF"/>
<stop offset="0.10774" stop-color="#5090B3"/>
<stop offset="0.28057" stop-color="#679FBD"/>
<stop offset="0.49694" stop-color="#8DB7CE"/>
<stop offset="0.74827" stop-color="#C3D9E5"/>
<stop offset="1" stop-color="white"/>
</linearGradient>
<linearGradient id="paint55_linear_591_123372" x1="12.9743" y1="71.6797" x2="124.435" y2="71.6797" gradientUnits="userSpaceOnUse">
<stop stop-color="white"/>
<stop offset="0.28355" stop-color="#CFE0EA"/>
<stop offset="0.92704" stop-color="#5594B5"/>
<stop offset="1" stop-color="#478BAF"/>
</linearGradient>
<linearGradient id="paint56_linear_591_123372" x1="90.2106" y1="161.652" x2="77.2972" y2="65.7032" gradientUnits="userSpaceOnUse">
<stop stop-color="white"/>
<stop offset="0.28355" stop-color="#CFE0EA"/>
<stop offset="0.92704" stop-color="#5594B5"/>
<stop offset="1" stop-color="#478BAF"/>
</linearGradient>
<linearGradient id="paint57_linear_591_123372" x1="137.719" y1="63.18" x2="15.3309" y2="69.5834" gradientUnits="userSpaceOnUse">
<stop stop-color="#478BAF"/>
<stop offset="0.10774" stop-color="#5090B3"/>
<stop offset="0.28057" stop-color="#679FBD"/>
<stop offset="0.49694" stop-color="#8DB7CE"/>
<stop offset="0.74827" stop-color="#C3D9E5"/>
<stop offset="1" stop-color="white"/>
</linearGradient>
<linearGradient id="paint58_linear_591_123372" x1="29.5856" y1="41.5861" x2="38.6973" y2="47.3246" gradientUnits="userSpaceOnUse">
<stop offset="0.16463" stop-color="#478BAF"/>
<stop offset="0.22975" stop-color="#5090B3"/>
<stop offset="0.33422" stop-color="#679FBD"/>
<stop offset="0.465" stop-color="#8DB7CE"/>
<stop offset="0.61692" stop-color="#C3D9E5"/>
<stop offset="0.76907" stop-color="white"/>
<stop offset="0.79182" stop-color="#F4FBFD"/>
<stop offset="0.83132" stop-color="#D8EFF9"/>
<stop offset="0.88288" stop-color="#AADDF2"/>
<stop offset="0.94378" stop-color="#6AC3E9"/>
<stop offset="0.99485" stop-color="#30ACE0"/>
</linearGradient>
<linearGradient id="paint59_linear_591_123372" x1="129.732" y1="45.4718" x2="120.164" y2="51.4975" gradientUnits="userSpaceOnUse">
<stop offset="0.16463" stop-color="#478BAF"/>
<stop offset="0.22975" stop-color="#5090B3"/>
<stop offset="0.33422" stop-color="#679FBD"/>
<stop offset="0.465" stop-color="#8DB7CE"/>
<stop offset="0.61692" stop-color="#C3D9E5"/>
<stop offset="0.76907" stop-color="white"/>
<stop offset="0.79182" stop-color="#F4FBFD"/>
<stop offset="0.83132" stop-color="#D8EFF9"/>
<stop offset="0.88288" stop-color="#AADDF2"/>
<stop offset="0.94378" stop-color="#6AC3E9"/>
<stop offset="0.99485" stop-color="#30ACE0"/>
</linearGradient>
<linearGradient id="paint60_linear_591_123372" x1="26.3327" y1="101.361" x2="54.9858" y2="103.988" gradientUnits="userSpaceOnUse">
<stop stop-color="#B79EFA"/>
<stop offset="0.10272" stop-color="#AA93E9"/>
<stop offset="0.30748" stop-color="#8976BB"/>
<stop offset="0.59524" stop-color="#534872"/>
<stop offset="0.95194" stop-color="#0A090E"/>
<stop offset="1"/>
</linearGradient>
<linearGradient id="paint61_linear_591_123372" x1="20.7954" y1="47.6889" x2="135.639" y2="47.6889" gradientUnits="userSpaceOnUse">
<stop stop-color="#BEA5F4"/>
<stop offset="1" stop-color="#AF8AF4"/>
</linearGradient>
<radialGradient id="paint62_radial_591_123372" cx="0" cy="0" r="1" gradientUnits="userSpaceOnUse" gradientTransform="translate(108.521 173.341) rotate(45.8478) scale(113.678 56.8362)">
<stop stop-color="#3B88FE"/>
<stop offset="0.45326" stop-color="#72CAE1"/>
<stop offset="0.67024" stop-color="#88E5D6"/>
</radialGradient>
<radialGradient id="paint63_radial_591_123372" cx="0" cy="0" r="1" gradientUnits="userSpaceOnUse" gradientTransform="translate(97.7646 170.811) rotate(45.8479) scale(67.5716 33.784)">
<stop stop-color="#3B88FE"/>
<stop offset="0.45326" stop-color="#72CAE1"/>
<stop offset="0.67024" stop-color="#88E5D6"/>
</radialGradient>
<radialGradient id="paint64_radial_591_123372" cx="0" cy="0" r="1" gradientUnits="userSpaceOnUse" gradientTransform="translate(144.53 184.878) rotate(45.8478) scale(64.3257 32.1611)">
<stop stop-color="#3B88FE"/>
<stop offset="0.67627" stop-color="#72CAE1"/>
<stop offset="1" stop-color="#88E5D6"/>
</radialGradient>
<radialGradient id="paint65_radial_591_123372" cx="0" cy="0" r="1" gradientUnits="userSpaceOnUse" gradientTransform="translate(143.276 159.869) rotate(45.8479) scale(18.669 9.33402)">
<stop stop-color="#3B88FE"/>
<stop offset="0.67627" stop-color="#72CAE1"/>
<stop offset="1" stop-color="#88E5D6"/>
</radialGradient>
<radialGradient id="paint66_radial_591_123372" cx="0" cy="0" r="1" gradientUnits="userSpaceOnUse" gradientTransform="translate(154.599 159.752) rotate(45.8479) scale(27.0997 13.5491)">
<stop stop-color="#3B88FE"/>
<stop offset="0.67627" stop-color="#72CAE1"/>
<stop offset="1" stop-color="#88E5D6"/>
</radialGradient>
<radialGradient id="paint67_radial_591_123372" cx="0" cy="0" r="1" gradientUnits="userSpaceOnUse" gradientTransform="translate(136.977 178.316) rotate(45.8479) scale(28.2931 14.1458)">
<stop stop-color="#3B88FE"/>
<stop offset="0.67627" stop-color="#72CAE1"/>
<stop offset="1" stop-color="#88E5D6"/>
</radialGradient>
<radialGradient id="paint68_radial_591_123372" cx="0" cy="0" r="1" gradientUnits="userSpaceOnUse" gradientTransform="translate(119.157 148.061) rotate(2.36277) scale(47.7649 48.9058)">
<stop stop-color="#658AFF"/>
<stop offset="0.09034" stop-color="#7296FD"/>
<stop offset="0.51308" stop-color="#A8CCF4"/>
<stop offset="0.82891" stop-color="#CAEDEF"/>
<stop offset="1" stop-color="#D7FAED"/>
</radialGradient>
<radialGradient id="paint69_radial_591_123372" cx="0" cy="0" r="1" gradientUnits="userSpaceOnUse" gradientTransform="translate(104.94 188.843) rotate(45.8478) scale(48.7511 24.3742)">
<stop stop-color="#3B88FE"/>
<stop offset="0.67627" stop-color="#72CAE1"/>
<stop offset="1" stop-color="#88E5D6"/>
</radialGradient>
<radialGradient id="paint70_radial_591_123372" cx="0" cy="0" r="1" gradientUnits="userSpaceOnUse" gradientTransform="translate(102.044 175.821) rotate(2.36276) scale(8.08863 8.2818)">
<stop stop-color="#658AFF"/>
<stop offset="0.09034" stop-color="#7296FD"/>
<stop offset="0.51308" stop-color="#A8CCF4"/>
<stop offset="0.82891" stop-color="#CAEDEF"/>
<stop offset="1" stop-color="#D7FAED"/>
</radialGradient>
</defs>
</svg>
