<svg width="188" height="195" viewBox="0 0 188 195" fill="none" xmlns="http://www.w3.org/2000/svg">
<g filter="url(#filter0_d_591_125238)">
<path fill-rule="evenodd" clip-rule="evenodd" d="M118.996 16.3171L117.06 15.0893L110.267 13.8613L77.3744 18.5031L70.8674 15.8712L70.0644 16.8567L72.303 32.9952L74.0027 63.5157L74.0687 101.993L56.2639 78.4264L48.7558 71.5327L46.8141 72.7386L37.0729 86.1021L24.1414 95.7156L48.9978 114.8L79.5251 148.955L93.7822 161.299L96.0648 160.529L125.096 131.676L146.13 108.595L163.01 95.6L161.971 92.7369L138.908 74.9411L132.731 78.4044L114.959 100.622L117.555 62.701L117.417 28.9207L118.996 16.3171Z" fill="url(#paint0_radial_591_125238)"/>
<path fill-rule="evenodd" clip-rule="evenodd" d="M110.266 13.8639L117.062 15.0897L119.684 8.15137C116.339 8.45374 112.974 8.47441 109.626 8.21304L110.266 13.8639Z" fill="url(#paint1_radial_591_125238)"/>
<path fill-rule="evenodd" clip-rule="evenodd" d="M119.685 8.15137L117.063 15.0897L118.998 16.317L125.826 13.6442C124.024 11.5561 121.96 9.70985 119.685 8.15137Z" fill="url(#paint2_radial_591_125238)"/>
<path fill-rule="evenodd" clip-rule="evenodd" d="M125.826 13.6445L118.998 16.3173L117.418 28.9197L123.458 29.4945C123.773 24.1511 124.566 18.8466 125.826 13.6445Z" fill="url(#paint3_radial_591_125238)"/>
<path fill-rule="evenodd" clip-rule="evenodd" d="M123.457 29.4943L117.417 28.9194L117.555 62.7024L121.515 62.5911C121.149 51.5226 121.8 40.4439 123.457 29.4943Z" fill="url(#paint4_radial_591_125238)"/>
<path fill-rule="evenodd" clip-rule="evenodd" d="M121.516 62.5913L117.557 62.7025L114.959 100.619L121.706 82.7603C121.268 76.0461 121.205 69.3126 121.516 62.5913Z" fill="url(#paint5_radial_591_125238)"/>
<path fill-rule="evenodd" clip-rule="evenodd" d="M128.788 74.876C126.832 77.8419 124.444 80.4992 121.704 82.7601L114.957 100.619L132.731 78.4049L128.788 74.876Z" fill="url(#paint6_radial_591_125238)"/>
<path fill-rule="evenodd" clip-rule="evenodd" d="M128.79 74.8762L132.733 78.4051L138.911 74.9396L136.742 67.5205C134.345 70.2341 131.681 72.6985 128.79 74.8762Z" fill="url(#paint7_radial_591_125238)"/>
<path fill-rule="evenodd" clip-rule="evenodd" d="M136.742 67.5205L138.911 74.9396L141.441 68.1515C139.924 67.6664 138.333 67.4528 136.742 67.5205Z" fill="url(#paint8_radial_591_125238)"/>
<path fill-rule="evenodd" clip-rule="evenodd" d="M141.442 68.1514L138.912 74.9394L161.973 92.7363L167.786 88.4811C158.587 82.265 149.788 75.4749 141.442 68.1514Z" fill="url(#paint9_radial_591_125238)"/>
<path fill-rule="evenodd" clip-rule="evenodd" d="M167.784 88.481L161.972 92.7361L163.013 95.5999L171.161 97.7781C170.575 94.5086 169.433 91.3639 167.784 88.481Z" fill="url(#paint10_radial_591_125238)"/>
<path fill-rule="evenodd" clip-rule="evenodd" d="M163.013 95.6002L146.128 108.593L151.256 114.569C157.316 108.323 163.984 102.698 171.161 97.7784L163.013 95.6002Z" fill="url(#paint11_radial_591_125238)"/>
<path fill-rule="evenodd" clip-rule="evenodd" d="M151.255 114.569L146.127 108.593L125.098 131.678L128.862 135.102C135.911 127.816 143.388 120.96 151.255 114.569Z" fill="url(#paint12_radial_591_125238)"/>
<path fill-rule="evenodd" clip-rule="evenodd" d="M128.864 135.102L125.099 131.679L96.0669 160.529L95.6494 171C105.821 158.231 116.923 146.232 128.864 135.102Z" fill="url(#paint13_radial_591_125238)"/>
<path fill-rule="evenodd" clip-rule="evenodd" d="M95.6479 171L96.0654 160.529L93.7811 161.301L93.2448 171H95.6479Z" fill="url(#paint14_radial_591_125238)"/>
<path fill-rule="evenodd" clip-rule="evenodd" d="M93.2464 171L93.7827 161.301L79.5267 148.953L76.7319 152.001C82.8171 157.804 88.3461 164.165 93.2464 171Z" fill="url(#paint15_radial_591_125238)"/>
<path fill-rule="evenodd" clip-rule="evenodd" d="M76.7316 152.001L79.5264 148.952L49.0013 114.802L44.3391 119.922C55.6892 130.041 66.5016 140.748 76.7316 152.001Z" fill="url(#paint16_radial_591_125238)"/>
<path fill-rule="evenodd" clip-rule="evenodd" d="M44.3384 119.922L49.0006 114.803L24.1409 95.7163L16.1615 96.2538C26.1206 103.441 35.5383 111.352 44.3384 119.922Z" fill="url(#paint17_radial_591_125238)"/>
<path fill-rule="evenodd" clip-rule="evenodd" d="M24.141 95.7163L37.0757 86.1015L32.05 81.3008C28.7469 84.7397 25.1312 87.8635 21.25 90.6319C19.7774 92.6971 18.0698 94.5838 16.1615 96.2538L24.141 95.7163Z" fill="url(#paint18_radial_591_125238)"/>
<path fill-rule="evenodd" clip-rule="evenodd" d="M32.0516 81.3008L37.0773 86.1016L46.8141 72.7388L41.7065 68.9829C38.7802 73.3101 35.554 77.4262 32.0516 81.3008Z" fill="url(#paint19_radial_591_125238)"/>
<path fill-rule="evenodd" clip-rule="evenodd" d="M41.7056 68.9827L46.8132 72.7386L48.7543 71.5314L49.0756 64.3999C46.4536 65.6434 43.9811 67.1809 41.7056 68.9827Z" fill="url(#paint20_radial_591_125238)"/>
<path fill-rule="evenodd" clip-rule="evenodd" d="M48.7542 71.5314L56.2628 78.4286L60.3452 74.4608C56.3498 71.3853 52.5832 68.0228 49.0754 64.3999L48.7542 71.5314Z" fill="url(#paint21_radial_591_125238)"/>
<path fill-rule="evenodd" clip-rule="evenodd" d="M60.3466 74.4609L56.2642 78.4287L74.0717 101.991L67.1247 82.686C64.504 80.264 62.2238 77.497 60.3466 74.4609Z" fill="url(#paint22_radial_591_125238)"/>
<path fill-rule="evenodd" clip-rule="evenodd" d="M67.0934 63.7154C67.4325 70.034 67.4429 76.3661 67.1247 82.6858L74.0717 101.99L74.0074 63.5166L67.0934 63.7154Z" fill="url(#paint23_radial_591_125238)"/>
<path fill-rule="evenodd" clip-rule="evenodd" d="M67.0935 63.7157L74.0075 63.5169L72.3057 32.9937L65.4142 33.5866C66.154 43.6811 67.0473 53.8189 67.0935 63.7157Z" fill="url(#paint24_radial_591_125238)"/>
<path fill-rule="evenodd" clip-rule="evenodd" d="M65.4131 33.5867L72.3045 32.9937L70.0637 16.859L63.0979 13.6445C64.3311 20.2301 65.1047 26.8935 65.4131 33.5867Z" fill="url(#paint25_radial_591_125238)"/>
<path fill-rule="evenodd" clip-rule="evenodd" d="M63.0979 13.6444L70.0636 16.8589L70.8678 15.8689L69.172 8C66.8411 9.52161 64.7869 11.4306 63.0979 13.6444Z" fill="url(#paint26_radial_591_125238)"/>
<path fill-rule="evenodd" clip-rule="evenodd" d="M69.1732 8L70.869 15.8689L77.3776 18.5047L81.482 12.1296C77.2248 11.266 73.0905 9.8789 69.1732 8Z" fill="url(#paint27_radial_591_125238)"/>
<path fill-rule="evenodd" clip-rule="evenodd" d="M81.4817 12.1293L77.3773 18.5043L110.268 13.8637L109.628 8.21289C100.382 10.3577 90.9618 11.6684 81.4817 12.1293Z" fill="url(#paint28_radial_591_125238)"/>
<path fill-rule="evenodd" clip-rule="evenodd" d="M125.1 131.679L96.0675 160.529L93.7832 161.301L82.4221 151.46C81.7123 150.918 81.1091 150.248 80.6433 149.486C79.5416 146.601 78.689 143.627 78.0949 140.596C76.8877 132.702 76.3641 124.719 76.5301 116.735C76.567 115.416 77.0547 114.151 77.9118 113.15C85.8633 100.645 95.4166 89.237 106.328 79.2164C109.528 73.8862 113.119 68.8021 117.074 64.0063C117.471 63.8498 117.448 64.2688 117.41 64.8232L116.063 84.4962C116.576 78.3029 117.091 72.1101 117.651 65.9207C117.705 65.2535 117.823 64.593 118.003 63.9483C118.084 63.668 118.174 63.3052 118.443 63.1913C119.331 62.9091 120.244 62.7116 121.169 62.6015C120.271 62.5101 119.362 62.5035 118.478 62.3284C118.405 62.3109 118.338 62.2709 118.288 62.2142C118.237 62.1574 118.206 62.0866 118.197 62.0112C118.033 51.4064 117.905 40.7978 117.985 30.1907C117.997 30.0658 118.047 29.9476 118.129 29.8528C118.211 29.758 118.321 29.6913 118.443 29.6621C119.851 29.5078 121.266 29.4273 122.683 29.421C121.252 29.121 119.842 28.7311 118.46 28.2536C117.929 28.0323 118.751 23.0889 118.84 22.4849C119.232 19.8171 119.892 17.1098 121.22 16.2762C122.566 15.4293 123.956 14.653 125.325 13.8413C123.299 14.5062 121.228 15.0266 119.129 15.3985C118.736 15.4393 117.937 14.4785 118.02 14.0957C118.416 12.2925 118.98 10.5299 119.46 8.74756C118.752 10.2023 118.098 11.6845 117.337 13.1106C117.102 13.5516 116.646 14.1447 116.083 14.0968C114.566 13.9668 113.059 13.7207 111.563 13.4433C111.303 13.4081 111.059 13.2984 110.861 13.1272C110.683 12.9215 110.562 12.6731 110.509 12.4063C110.195 11.2693 109.978 10.1087 109.712 8.96063C109.65 9.86804 109.665 10.7849 109.526 11.6846C109.51 12.0174 109.378 12.3341 109.155 12.5809C108.8 12.8575 108.371 13.0214 107.923 13.0512C99.6986 14.0335 91.5495 15.5655 83.5299 17.6372L110.267 13.8644L117.064 15.0902L118.999 16.3175L117.418 28.9199L117.544 59.9541C117.692 61.0116 117.468 62.0876 116.909 62.9974C115.749 64.6951 114.494 66.326 113.15 67.8825C110.676 71.1261 108.244 75.4501 105.544 78.4389C94.5375 89.43 84.5329 101.382 75.6489 114.153C68.0682 113.37 57.6329 115.37 50.6369 114.605C49.3141 114.618 48.0317 114.149 47.0275 113.287L42.202 109.583C43.9511 111.063 45.7245 112.517 47.3861 114.094C47.5869 114.324 47.6993 114.617 47.703 114.922C47.0916 116.359 46.2733 117.698 45.274 118.898C46.0929 118.017 47.0127 117.236 48.0143 116.572C49.2106 115.896 49.4928 116.431 50.2282 117.27C59.5806 127.939 69.0402 137.849 78.5135 148.344C78.6304 148.484 78.7082 148.652 78.7392 148.831C78.7701 149.011 78.753 149.195 78.6895 149.366C78.2474 150.152 77.7245 150.891 77.1291 151.569C77.7299 150.982 78.3623 150.429 79.0234 149.911C79.8171 149.359 88.5419 157.434 89.8598 158.699C91.1776 159.849 92.3633 161.142 93.3949 162.555C93.5867 163.237 93.6553 163.948 93.5973 164.654C93.7161 163.905 93.8777 163.163 94.0813 162.432C94.2799 161.555 95.4817 161.269 95.5593 162.467C95.7155 164.892 95.6528 167.327 95.7001 169.756C95.8756 167.233 95.8717 164.69 96.2276 162.185C96.318 161.59 96.588 161.037 97.0015 160.6C105.868 151.314 114.946 142.23 123.987 133.112C124.187 132.917 124.427 132.767 124.69 132.672C124.785 132.617 124.89 132.582 124.999 132.57C125.108 132.558 125.218 132.569 125.323 132.601C126.469 133.239 127.485 134.088 128.566 134.831C127.819 134.07 127.012 133.364 126.325 132.548C126.192 132.363 126.119 132.142 126.114 131.914C126.1 131.692 126.136 131.47 126.22 131.263C126.307 131.039 126.438 130.835 126.606 130.664C133.114 124.154 139.154 117.145 145.324 110.237C145.458 110.089 145.635 109.986 145.83 109.942C146.025 109.898 146.229 109.915 146.414 109.99C147.594 110.819 148.699 111.75 149.716 112.773C148.974 111.644 148.329 110.453 147.787 109.215C147.673 108.881 147.985 108.528 148.173 108.229C148.418 107.85 148.714 107.506 149.053 107.208C153.098 103.534 157.401 100.156 161.93 97.1002C162.391 96.841 162.916 96.7188 163.443 96.7479C165.239 96.7611 167.024 97.0165 168.814 97.1508C167.082 96.4532 165.288 95.8938 163.619 95.0574C163.283 94.6893 163.078 94.2215 163.034 93.7254C162.989 93.2294 163.108 92.7323 163.373 92.3104C164.623 91.044 166.043 89.9567 167.378 88.7805C165.972 89.5806 164.61 90.4641 163.162 91.1833C162.818 91.4098 162.412 91.5217 162.001 91.5027C161.59 91.4837 161.196 91.3349 160.874 91.0776C153.534 86.0691 146.519 80.5991 139.871 74.7006C139.759 74.4066 139.753 74.0831 139.853 73.785C140.237 72.088 140.764 70.4263 141.22 68.7463C140.723 69.8382 140.272 70.9511 139.762 72.0374C138.953 73.7609 138.81 73.4316 138.207 71.8304C137.844 70.8651 137.511 69.8878 137.151 68.9204C137.678 70.7681 138.064 72.6534 138.305 74.5598C137.777 75.2665 137.128 75.8737 136.388 76.3536L138.911 74.9397L161.973 92.7366L163.014 95.6004L148.434 106.82C147.667 107.41 147.197 108.123 146.324 107.327C145.97 106.976 145.65 106.592 145.369 106.18C143.508 103.56 141.407 101.12 139.091 98.8932C137.787 92.7148 136.072 86.6306 133.957 80.6815C133.791 80.3708 133.69 80.0303 133.658 79.6798C133.626 79.3293 133.664 78.9759 133.77 78.6403C133.876 78.3048 134.048 77.9939 134.276 77.7257C134.504 77.4576 134.783 77.2377 135.096 77.0788L132.733 78.4053L130.751 80.8802C132.74 79.0252 132.85 79.3617 134.071 82.6681C136.069 87.9927 137.469 93.523 138.246 99.1573C140.419 100.881 142.339 102.901 143.949 105.16C144.744 106.178 145.316 107.352 145.63 108.605C145.439 109.246 145.08 109.825 144.592 110.281L125.1 131.679ZM78.4426 147.738L51.0665 117.113C50.2673 116.218 49.8635 115.832 51.6396 115.604C58.7621 114.917 65.9281 114.8 73.0692 115.254C73.9993 115.365 74.5626 115.307 75.0521 116.207C75.2977 116.689 75.4415 117.216 75.4745 117.756C76.1153 125.363 76.4789 137.018 77.2688 140.578C77.4151 141.237 78.4932 144.844 78.9744 146.865C79.1994 147.81 79.1208 147.997 78.4426 147.738Z" fill="url(#paint29_radial_591_125238)"/>
<path fill-rule="evenodd" clip-rule="evenodd" d="M139.09 98.8929C141.406 101.12 143.508 103.56 145.368 106.18C145.65 106.592 145.97 106.975 146.323 107.327C146.452 107.492 146.635 107.608 146.84 107.654C147.045 107.7 147.259 107.673 147.446 107.579L148.431 106.821L163.013 95.6001L161.972 92.7363L138.911 74.9395L136.388 76.3533L135.096 77.0785C134.782 77.2374 134.503 77.4573 134.275 77.7255C134.048 77.9936 133.876 78.3045 133.77 78.6401C133.663 78.9756 133.625 79.329 133.657 79.6795C133.689 80.03 133.791 80.3705 133.956 80.6812C136.071 86.6303 137.786 92.7146 139.09 98.8929Z" fill="url(#paint30_radial_591_125238)"/>
<path fill-rule="evenodd" clip-rule="evenodd" d="M143.948 105.16C142.337 102.901 140.418 100.88 138.245 99.1568C137.468 93.5225 136.067 87.9922 134.069 82.6676C132.849 79.3612 132.738 79.0247 130.749 80.8797L114.957 100.619L116.062 84.4957L117.409 64.8227C117.447 64.2683 117.469 63.8493 117.072 64.0058C113.118 68.8016 109.526 73.8857 106.327 79.2159C95.4151 89.2365 85.8618 100.645 77.9103 113.149C77.0532 114.15 76.5655 115.416 76.5286 116.734C76.3626 124.718 76.8862 132.702 78.0934 140.596C78.6875 143.626 79.5401 146.6 80.6418 149.485C81.0993 150.236 81.6916 150.896 82.3887 151.432L93.7817 161.301L96.066 160.528L125.098 131.678L144.59 110.281C145.079 109.824 145.437 109.246 145.628 108.605C145.315 107.351 144.742 106.178 143.948 105.16Z" fill="url(#paint31_radial_591_125238)"/>
<path fill-rule="evenodd" clip-rule="evenodd" d="M77.2676 140.578C76.4778 137.017 76.1142 125.362 75.4734 117.755C75.4403 117.215 75.2965 116.688 75.051 116.206C74.5614 115.307 73.9982 115.365 73.0681 115.253C65.9269 114.799 58.761 114.916 51.6385 115.603C50.0114 115.812 50.2133 116.154 50.8739 116.898L78.4414 147.738C79.1196 147.996 79.1983 147.809 78.9733 146.864C78.492 144.843 77.4139 141.236 77.2676 140.578Z" fill="url(#paint32_radial_591_125238)"/>
<path fill-rule="evenodd" clip-rule="evenodd" d="M50.6369 114.605C57.6329 115.37 68.0683 113.37 75.649 114.153C84.5329 101.382 94.5375 89.4299 105.544 78.4388C108.244 75.45 110.676 71.126 113.15 67.8824C114.494 66.3259 115.749 64.695 116.909 62.9973C117.344 62.34 117.567 61.5652 117.548 60.7772L117.544 59.9728V59.954L117.419 28.9198L118.999 16.3174L117.064 15.0901L110.267 13.8643L83.53 17.6371L77.3772 18.5049L70.8686 15.8691L70.0644 16.8591L72.3053 32.9938L74.0071 63.517L74.0714 101.991L56.2639 78.4289L48.7552 71.5317L46.8141 72.7389L37.0773 86.1016L24.1425 95.7164L42.2021 109.583L47.0276 113.287L47.0347 113.293C48.0378 114.151 49.3173 114.617 50.6369 114.605Z" fill="url(#paint33_radial_591_125238)"/>
<g style="mix-blend-mode:screen" opacity="0.5">
<path fill-rule="evenodd" clip-rule="evenodd" d="M95.4041 33.8352C92.7953 30.5326 84.3235 22.8675 79.4897 25.6139C75.5355 27.8604 79.9006 36.8107 81.6239 39.4746C83.4308 42.2662 88.4527 42.4491 91.3602 41.8847C95.194 41.1402 97.8699 36.9566 95.4041 33.8352Z" fill="#C8FAFF"/>
</g>
<path fill-rule="evenodd" clip-rule="evenodd" d="M96.0218 33.8352C93.4124 30.5326 84.9407 22.8675 80.1075 25.6139C76.1532 27.8604 80.5178 36.8107 82.2416 39.4746C84.0485 42.2662 89.0704 42.4491 91.9779 41.8847C95.8112 41.1402 98.4877 36.9566 96.0218 33.8352Z" fill="url(#paint34_radial_591_125238)"/>
</g>
<defs>
<filter id="filter0_d_591_125238" x="0.161499" y="0" width="187" height="195" filterUnits="userSpaceOnUse" color-interpolation-filters="sRGB">
<feFlood flood-opacity="0" result="BackgroundImageFix"/>
<feColorMatrix in="SourceAlpha" type="matrix" values="0 0 0 0 0 0 0 0 0 0 0 0 0 0 0 0 0 0 127 0" result="hardAlpha"/>
<feOffset dy="8"/>
<feGaussianBlur stdDeviation="8"/>
<feComposite in2="hardAlpha" operator="out"/>
<feColorMatrix type="matrix" values="0 0 0 0 0 0 0 0 0 0.399167 0 0 0 0 0.288949 0 0 0 0.6 0"/>
<feBlend mode="normal" in2="BackgroundImageFix" result="effect1_dropShadow_591_125238"/>
<feBlend mode="normal" in="SourceGraphic" in2="effect1_dropShadow_591_125238" result="shape"/>
</filter>
<radialGradient id="paint0_radial_591_125238" cx="0" cy="0" r="1" gradientUnits="userSpaceOnUse" gradientTransform="translate(93.5764 87.5825) rotate(90) scale(71.6441 71.5695)">
<stop stop-color="#C2EAFF"/>
<stop offset="1" stop-color="#6CAFF0"/>
</radialGradient>
<radialGradient id="paint1_radial_591_125238" cx="0" cy="0" r="1" gradientUnits="userSpaceOnUse" gradientTransform="translate(123.243 -3.29711) rotate(90) scale(44.3231 44.2766)">
<stop stop-color="#B0E4FF"/>
<stop offset="1" stop-color="#739FF4"/>
</radialGradient>
<radialGradient id="paint2_radial_591_125238" cx="0" cy="0" r="1" gradientUnits="userSpaceOnUse" gradientTransform="translate(125.107 12.1078) rotate(90) scale(38.4222 38.3822)">
<stop stop-color="#B0E4FF"/>
<stop offset="1" stop-color="#739FF4"/>
</radialGradient>
<radialGradient id="paint3_radial_591_125238" cx="0" cy="0" r="1" gradientUnits="userSpaceOnUse" gradientTransform="translate(149.91 13.9845) rotate(90) scale(37.2808 37.2419)">
<stop stop-color="#E5FAFF"/>
<stop offset="1" stop-color="#B7ECFF"/>
</radialGradient>
<radialGradient id="paint4_radial_591_125238" cx="0" cy="0" r="1" gradientUnits="userSpaceOnUse" gradientTransform="translate(124.731 35.4449) rotate(90) scale(97.0563 96.9552)">
<stop stop-color="#B0E4FF"/>
<stop offset="1" stop-color="#739FF4"/>
</radialGradient>
<radialGradient id="paint5_radial_591_125238" cx="0" cy="0" r="1" gradientUnits="userSpaceOnUse" gradientTransform="translate(101.831 55.985) rotate(90) scale(65.403 65.3349)">
<stop stop-color="#B0E4FF"/>
<stop offset="1" stop-color="#739FF4"/>
</radialGradient>
<radialGradient id="paint6_radial_591_125238" cx="0" cy="0" r="1" gradientUnits="userSpaceOnUse" gradientTransform="translate(169.98 65.8359) rotate(90) scale(68.8604 68.789)">
<stop stop-color="#B0E4FF"/>
<stop offset="1" stop-color="#739FF4"/>
</radialGradient>
<radialGradient id="paint7_radial_591_125238" cx="0" cy="0" r="1" gradientUnits="userSpaceOnUse" gradientTransform="translate(120.717 74.9855) rotate(90) scale(34.6717 34.6355)">
<stop stop-color="#B0E4FF"/>
<stop offset="1" stop-color="#739FF4"/>
</radialGradient>
<radialGradient id="paint8_radial_591_125238" cx="0" cy="0" r="1" gradientUnits="userSpaceOnUse" gradientTransform="translate(138.965 79.1931) rotate(90) scale(16.8551 16.8374)">
<stop stop-color="#B0E4FF"/>
<stop offset="1" stop-color="#739FF4"/>
</radialGradient>
<radialGradient id="paint9_radial_591_125238" cx="0" cy="0" r="1" gradientUnits="userSpaceOnUse" gradientTransform="translate(168.25 78.9268) rotate(90) scale(67.6692 67.5988)">
<stop stop-color="#B0E4FF"/>
<stop offset="1" stop-color="#739FF4"/>
</radialGradient>
<radialGradient id="paint10_radial_591_125238" cx="0" cy="0" r="1" gradientUnits="userSpaceOnUse" gradientTransform="translate(187.025 86.0501) rotate(90) scale(30.3337 30.302)">
<stop stop-color="#E5FAFF"/>
<stop offset="1" stop-color="#B7ECFF"/>
</radialGradient>
<radialGradient id="paint11_radial_591_125238" cx="0" cy="0" r="1" gradientUnits="userSpaceOnUse" gradientTransform="translate(171.021 98.5109) rotate(90) scale(53.8632 53.807)">
<stop stop-color="#B0E4FF"/>
<stop offset="1" stop-color="#739FF4"/>
</radialGradient>
<radialGradient id="paint12_radial_591_125238" cx="0" cy="0" r="1" gradientUnits="userSpaceOnUse" gradientTransform="translate(144.491 124.375) rotate(90) scale(186.137 185.944)">
<stop stop-color="#B0E4FF"/>
<stop offset="1" stop-color="#739FF4"/>
</radialGradient>
<radialGradient id="paint13_radial_591_125238" cx="0" cy="0" r="1" gradientUnits="userSpaceOnUse" gradientTransform="translate(162.771 220.868) rotate(90) scale(101.01 100.905)">
<stop stop-color="#E5FAFF"/>
<stop offset="1" stop-color="#B7ECFF"/>
</radialGradient>
<radialGradient id="paint14_radial_591_125238" cx="0" cy="0" r="1" gradientUnits="userSpaceOnUse" gradientTransform="translate(88.2563 175.456) rotate(90) scale(27.1756 27.1477)">
<stop stop-color="#E5FAFF"/>
<stop offset="1" stop-color="#B7ECFF"/>
</radialGradient>
<radialGradient id="paint15_radial_591_125238" cx="0" cy="0" r="1" gradientUnits="userSpaceOnUse" gradientTransform="translate(68.419 174.135) rotate(90) scale(57.8338 57.7739)">
<stop stop-color="#B0E4FF"/>
<stop offset="1" stop-color="#739FF4"/>
</radialGradient>
<radialGradient id="paint16_radial_591_125238" cx="0" cy="0" r="1" gradientUnits="userSpaceOnUse" gradientTransform="translate(21.8587 141.829) rotate(90) scale(74.7859 74.7081)">
<stop stop-color="#B0E4FF"/>
<stop offset="1" stop-color="#739FF4"/>
</radialGradient>
<radialGradient id="paint17_radial_591_125238" cx="0" cy="0" r="1" gradientUnits="userSpaceOnUse" gradientTransform="translate(-2.44184 115.91) rotate(90) scale(59.8886 59.8261)">
<stop stop-color="#B0E4FF"/>
<stop offset="1" stop-color="#739FF4"/>
</radialGradient>
<radialGradient id="paint18_radial_591_125238" cx="0" cy="0" r="1" gradientUnits="userSpaceOnUse" gradientTransform="translate(-5.3734 77.6528) rotate(90) scale(56.8972 56.8378)">
<stop stop-color="#B0E4FF"/>
<stop offset="1" stop-color="#739FF4"/>
</radialGradient>
<radialGradient id="paint19_radial_591_125238" cx="0" cy="0" r="1" gradientUnits="userSpaceOnUse" gradientTransform="translate(64.3525 60.6866) rotate(90) scale(40.8529 40.8103)">
<stop stop-color="#B0E4FF"/>
<stop offset="1" stop-color="#739FF4"/>
</radialGradient>
<radialGradient id="paint20_radial_591_125238" cx="0" cy="0" r="1" gradientUnits="userSpaceOnUse" gradientTransform="translate(51.4523 65.2823) rotate(90) scale(19.6584 19.6375)">
<stop stop-color="#B0E4FF"/>
<stop offset="1" stop-color="#739FF4"/>
</radialGradient>
<radialGradient id="paint21_radial_591_125238" cx="0" cy="0" r="1" gradientUnits="userSpaceOnUse" gradientTransform="translate(35.0177 70.4029) rotate(90) scale(42.5438 42.4991)">
<stop stop-color="#B0E4FF"/>
<stop offset="1" stop-color="#739FF4"/>
</radialGradient>
<radialGradient id="paint22_radial_591_125238" cx="0" cy="0" r="1" gradientUnits="userSpaceOnUse" gradientTransform="translate(33.5969 89.9956) rotate(90) scale(56.0167 55.9582)">
<stop stop-color="#B0E4FF"/>
<stop offset="1" stop-color="#739FF4"/>
</radialGradient>
<radialGradient id="paint23_radial_591_125238" cx="0" cy="0" r="1" gradientUnits="userSpaceOnUse" gradientTransform="translate(20.3222 50.3903) rotate(90) scale(73.571 73.4942)">
<stop stop-color="#B0E4FF"/>
<stop offset="1" stop-color="#739FF4"/>
</radialGradient>
<radialGradient id="paint24_radial_591_125238" cx="0" cy="0" r="1" gradientUnits="userSpaceOnUse" gradientTransform="translate(42.0952 43.2137) rotate(90) scale(58.6795 58.6186)">
<stop stop-color="#B0E4FF"/>
<stop offset="1" stop-color="#739FF4"/>
</radialGradient>
<radialGradient id="paint25_radial_591_125238" cx="0" cy="0" r="1" gradientUnits="userSpaceOnUse" gradientTransform="translate(60.6291 25.6383) rotate(90) scale(44.6723 44.6259)">
<stop stop-color="#B0E4FF"/>
<stop offset="1" stop-color="#739FF4"/>
</radialGradient>
<radialGradient id="paint26_radial_591_125238" cx="0" cy="0" r="1" gradientUnits="userSpaceOnUse" gradientTransform="translate(70.5191 15.2106) rotate(90) scale(65.2774 65.2088)">
<stop stop-color="#B0E4FF"/>
<stop offset="1" stop-color="#739FF4"/>
</radialGradient>
<radialGradient id="paint27_radial_591_125238" cx="0" cy="0" r="1" gradientUnits="userSpaceOnUse" gradientTransform="translate(65.9826 7.18415) rotate(90) scale(43.262 43.2168)">
<stop stop-color="#B0E4FF"/>
<stop offset="1" stop-color="#739FF4"/>
</radialGradient>
<radialGradient id="paint28_radial_591_125238" cx="0" cy="0" r="1" gradientUnits="userSpaceOnUse" gradientTransform="translate(85.9928 -12.1771) rotate(90) scale(54.8416 54.7851)">
<stop stop-color="#B0E4FF"/>
<stop offset="1" stop-color="#739FF4"/>
</radialGradient>
<radialGradient id="paint29_radial_591_125238" cx="0" cy="0" r="1" gradientUnits="userSpaceOnUse" gradientTransform="translate(163.094 52.1695) rotate(90) scale(140.76 140.614)">
<stop stop-color="#FFFAFF"/>
<stop offset="1" stop-color="#CFF2FF"/>
</radialGradient>
<radialGradient id="paint30_radial_591_125238" cx="0" cy="0" r="1" gradientUnits="userSpaceOnUse" gradientTransform="translate(117.03 96.8724) rotate(90) scale(58.7172 58.6561)">
<stop stop-color="#B9ECFF"/>
<stop offset="1" stop-color="#9BC9FF"/>
</radialGradient>
<radialGradient id="paint31_radial_591_125238" cx="0" cy="0" r="1" gradientUnits="userSpaceOnUse" gradientTransform="translate(14.5669 109.603) rotate(90) scale(178.816 178.63)">
<stop stop-color="#B9ECFF"/>
<stop offset="1" stop-color="#9BC9FF"/>
</radialGradient>
<radialGradient id="paint32_radial_591_125238" cx="0" cy="0" r="1" gradientUnits="userSpaceOnUse" gradientTransform="translate(5.12905 148.084) rotate(90) scale(74.3326 74.2553)">
<stop stop-color="#D9F3FF"/>
<stop offset="1" stop-color="#73AEF5"/>
</radialGradient>
<radialGradient id="paint33_radial_591_125238" cx="0" cy="0" r="1" gradientUnits="userSpaceOnUse" gradientTransform="translate(6.23936 21.1734) rotate(90) scale(144.109 143.959)">
<stop stop-color="#D9F3FF"/>
<stop offset="1" stop-color="#73AEF5"/>
</radialGradient>
<radialGradient id="paint34_radial_591_125238" cx="0" cy="0" r="1" gradientUnits="userSpaceOnUse" gradientTransform="translate(79.8914 37.0429) rotate(90) scale(17.2818 17.2638)">
<stop stop-color="#C2EAFF"/>
<stop offset="1" stop-color="#6CAFF0"/>
</radialGradient>
</defs>
</svg>
