<svg width="566" height="501" viewBox="0 0 566 501" fill="none" xmlns="http://www.w3.org/2000/svg">
<path fill-rule="evenodd" clip-rule="evenodd" d="M12.6628 241.168C16.9596 258.346 21.8908 281.057 23.9489 292.774C20.8989 332.77 15.2759 373.418 15.1179 413.491C16.6424 423.273 18.9992 432.954 22.1706 442.462C21.4614 454.315 20.9427 473.964 21.5831 481.665C22.4998 483.215 23.5823 484.694 24.8176 486.084C68.6597 485.71 102.264 483.127 146.022 485.438C169.694 482.515 193.55 480.721 217.471 480.065C261.555 485.471 306.064 488.15 350.628 488.079C387.419 485.238 431.523 480.536 467.725 477.828C493.705 480.91 519.954 482.154 546.189 481.547C547.085 480.464 548.011 479.215 548.711 478.149C542.063 438.274 547.929 397.195 551.114 357.198C545.846 321.852 547.035 268.283 549.396 232.508C551.284 223.285 552.277 213.951 552.364 204.596C549.386 177.81 546.003 144.346 542.508 117.759C544.899 94.4371 547.743 77.1449 547.768 53.727C545.386 51.2316 542.809 48.8685 540.053 46.6526C520.996 38.2982 500.981 31.5369 480.304 26.469C434.58 23.1197 388.644 22.174 342.775 23.6377C321.317 19.4241 299.392 17.0551 277.347 16.5684C244.517 20.0727 211.495 22.1979 178.405 22.9356C131.859 34.5453 73.001 38.2846 23.2449 43.3845C20.4895 45.9812 18.0229 48.7783 15.8747 51.7418C16.6739 76.2337 20.0384 104.853 23.0975 126.202C18.6963 164.358 15.641 203.245 12.6628 241.168Z" fill="#A9D6FF"/>
<path opacity="0.5" fill-rule="evenodd" clip-rule="evenodd" d="M15.875 51.7446C18.0231 48.7811 20.4898 45.984 23.2452 43.3873L16.4775 31.1968C9.97138 36.4502 4.50319 42.5173 0.273193 49.1762L15.875 51.7446Z" fill="url(#paint0_radial_591_122241)"/>
<path fill-rule="evenodd" clip-rule="evenodd" d="M23.2441 43.3839C73.0002 38.284 131.858 34.5447 178.404 22.9349L164.403 6.24219C115.633 15.6728 66.2787 23.8975 16.4764 31.1934L23.2441 43.3839Z" fill="url(#paint1_radial_591_122241)"/>
<path fill-rule="evenodd" clip-rule="evenodd" d="M178.404 22.9385C211.493 22.2008 244.516 20.0757 277.345 16.5713L283.489 -8.02818e-07C244.045 2.70984 204.35 4.79177 164.403 6.24578L178.404 22.9385Z" fill="url(#paint2_radial_591_122241)"/>
<path fill-rule="evenodd" clip-rule="evenodd" d="M277.346 16.5713C299.391 17.0581 321.317 19.4271 342.774 23.6407L352.541 10.084C328.976 7.40482 306.024 3.96025 283.489 -4.1415e-08L277.346 16.5713Z" fill="url(#paint3_radial_591_122241)"/>
<path fill-rule="evenodd" clip-rule="evenodd" d="M352.543 10.0806L342.776 23.6373C388.645 22.1736 434.581 23.1192 480.305 26.4685L478.992 15.0478C437.111 11.8316 394.939 10.3077 352.543 10.0806Z" fill="url(#paint4_radial_591_122241)"/>
<path fill-rule="evenodd" clip-rule="evenodd" d="M480.305 26.4701C500.982 31.538 520.997 38.2993 540.054 46.6537L549.029 33.7259C525.684 27.9057 502.338 21.7238 478.992 15.0493L480.305 26.4701Z" fill="url(#paint5_radial_591_122241)"/>
<path fill-rule="evenodd" clip-rule="evenodd" d="M549.03 33.7261L540.054 46.6538C542.811 48.8697 545.388 51.2329 547.77 53.7282L565.296 48.9988C560.623 43.3934 555.163 38.2667 549.03 33.7261Z" fill="url(#paint6_radial_591_122241)"/>
<path fill-rule="evenodd" clip-rule="evenodd" d="M565.296 48.9995L547.77 53.7289C547.744 77.1468 544.9 94.4391 542.51 117.761L560.83 124.459C563.405 99.3043 565.558 73.6722 565.296 48.9995Z" fill="url(#paint7_radial_591_122241)"/>
<path fill-rule="evenodd" clip-rule="evenodd" d="M560.83 124.459L542.51 117.762C546.004 144.349 549.387 177.813 552.365 204.599L565.668 203.714C562.562 175.961 560.842 152.211 560.83 124.459Z" fill="url(#paint8_radial_591_122241)"/>
<path fill-rule="evenodd" clip-rule="evenodd" d="M565.666 203.712L552.363 204.597C552.276 213.952 551.283 223.285 549.395 232.509L561.885 240.862C564.282 228.576 565.546 216.157 565.666 203.712Z" fill="url(#paint9_radial_591_122241)"/>
<path fill-rule="evenodd" clip-rule="evenodd" d="M561.885 240.863L549.395 232.51C547.034 268.285 545.846 321.853 551.113 357.199L565.998 344.618C562.672 310.033 561.084 275.447 561.885 240.863Z" fill="url(#paint10_radial_591_122241)"/>
<path fill-rule="evenodd" clip-rule="evenodd" d="M566 344.618L551.116 357.2C547.93 397.197 542.065 438.276 548.713 478.151L565.177 481.96C562.963 470.379 562.027 458.655 562.381 446.934C562.142 411.494 563.144 380.058 566 344.618Z" fill="url(#paint11_radial_591_122241)"/>
<path fill-rule="evenodd" clip-rule="evenodd" d="M565.177 481.96L548.712 478.151C548.012 479.217 547.086 480.466 546.19 481.549L551.822 498.077C556.057 497.229 564.838 485.275 565.177 481.96Z" fill="url(#paint12_radial_591_122241)"/>
<path fill-rule="evenodd" clip-rule="evenodd" d="M551.821 498.077L546.188 481.549C519.954 482.157 493.704 480.913 467.725 477.83L474.989 495.709C500.517 497.802 526.176 498.592 551.821 498.077Z" fill="url(#paint13_radial_591_122241)"/>
<path fill-rule="evenodd" clip-rule="evenodd" d="M474.99 495.709L467.725 477.83C431.523 480.539 387.419 485.24 350.628 488.082L364.301 500.357C400.75 497.534 437.083 495.384 473.016 495.553C473.669 495.605 474.327 495.657 474.99 495.709Z" fill="url(#paint14_radial_591_122241)"/>
<path fill-rule="evenodd" clip-rule="evenodd" d="M364.3 500.356L350.628 488.08C306.063 488.151 261.554 485.472 217.471 480.066L209.159 496.195C259.92 499.16 311.477 500.806 364.3 500.356Z" fill="url(#paint15_radial_591_122241)"/>
<path fill-rule="evenodd" clip-rule="evenodd" d="M209.159 496.195L217.471 480.066C193.55 480.722 169.694 482.516 146.022 485.439L158.477 501C175.196 498.319 192.14 496.712 209.159 496.195Z" fill="url(#paint16_radial_591_122241)"/>
<path fill-rule="evenodd" clip-rule="evenodd" d="M158.477 500.999L146.022 485.439C102.264 483.127 68.6597 485.711 24.8177 486.085L19.2711 498.118C66.9866 497.557 113.388 498.517 158.477 500.999Z" fill="url(#paint17_radial_591_122241)"/>
<path fill-rule="evenodd" clip-rule="evenodd" d="M19.2725 498.118L24.819 486.084C23.5837 484.694 22.5012 483.215 21.5846 481.665L5.73706 482.016C8.16154 488.399 12.8841 494.017 19.2725 498.118Z" fill="url(#paint18_radial_591_122241)"/>
<path fill-rule="evenodd" clip-rule="evenodd" d="M5.73518 482.016L21.5827 481.665C20.9423 473.964 21.4609 454.315 22.1701 442.462L3.6597 441.875C2.82045 455.28 3.5154 468.72 5.73518 482.016Z" fill="url(#paint19_radial_591_122241)"/>
<path fill-rule="evenodd" clip-rule="evenodd" d="M3.65892 441.877L22.1693 442.464C18.9979 432.956 16.6411 423.275 15.1166 413.493L0.273193 414.27C2.44834 423.364 3.58194 432.607 3.65892 441.877Z" fill="url(#paint20_radial_591_122241)"/>
<path fill-rule="evenodd" clip-rule="evenodd" d="M0.273194 414.269L15.1166 413.492C15.2747 373.419 20.8976 332.771 23.9476 292.775L4.83314 292.743C1.59863 335.059 0.4108 372.806 0.273194 414.269Z" fill="url(#paint21_radial_591_122241)"/>
<path fill-rule="evenodd" clip-rule="evenodd" d="M4.83354 292.743L23.948 292.775C21.89 281.059 16.9588 258.348 12.662 241.17L0.158691 246.628C2.73991 261.917 4.30057 277.312 4.83354 292.743Z" fill="url(#paint22_radial_591_122241)"/>
<path fill-rule="evenodd" clip-rule="evenodd" d="M0.160353 246.629L12.6637 241.171C15.6419 203.247 18.6971 164.36 23.0983 126.205L3.94456 126.379C0.363765 167.795 -0.385537 205.212 0.160353 246.629Z" fill="url(#paint23_radial_591_122241)"/>
<path fill-rule="evenodd" clip-rule="evenodd" d="M3.94497 126.377L23.0987 126.203C20.0396 104.854 16.6751 76.2341 15.8759 51.7422L0.274174 49.1738C0.148665 74.9079 0.975092 100.642 3.94497 126.377Z" fill="url(#paint24_radial_591_122241)"/>
<path fill-rule="evenodd" clip-rule="evenodd" d="M178.405 22.9376C131.859 34.5473 73.0011 38.2867 23.245 43.3865C20.4896 45.9832 18.0229 48.7803 15.8748 51.7439C16.6271 74.7819 19.6491 101.472 22.5509 122.328C22.6057 122.725 22.7586 123.107 23.0002 123.453C23.2417 123.798 23.5666 124.099 23.9547 124.336C24.3428 124.572 24.7857 124.74 25.2557 124.829C25.7258 124.918 26.2128 124.926 26.6866 124.852C27.9645 124.602 29.2248 124.293 30.4617 123.928C53.9614 117.932 77.0223 110.815 99.5289 102.614C123.485 100.032 146.982 95.0902 169.522 87.8936C185.945 78.3891 203.754 70.6418 222.526 64.8362C235.761 53.5017 250.126 43.1106 265.47 33.7732C268.902 30.503 271.323 26.5907 272.522 22.3737C272.53 21.7229 272.371 21.0781 272.055 20.482C271.74 19.8858 271.275 19.3519 270.692 18.9153C270.109 18.4788 269.42 18.1496 268.672 17.9495C267.924 17.7494 267.133 17.6829 266.351 17.7545C237.241 20.7071 212.743 21.6934 178.405 22.9376Z" fill="url(#paint25_radial_591_122241)"/>
<path fill-rule="evenodd" clip-rule="evenodd" d="M215.402 71.7398C201.017 75.7835 187.27 81.2419 174.456 87.9976C173.583 89.3882 173.278 90.2042 173.521 90.8532C174.04 92.2376 201.021 107.107 204.475 109.089C209.462 115.251 215.951 120.481 223.525 124.443C227.21 126.569 226.929 125.502 226.68 122.207C226.455 119.224 224.755 105.431 223.855 93.1475C223.361 86.3848 223.109 79.6797 223.02 75.5254C222.952 72.2661 222.339 70.137 215.402 71.7398Z" fill="url(#paint26_radial_591_122241)"/>
<path fill-rule="evenodd" clip-rule="evenodd" d="M272.777 35.326C293.708 34.9809 314.494 32.3581 334.599 27.525C340.103 25.9529 342.61 23.4164 335.54 22.5021C319.908 20.48 305.668 18.299 289.442 17.073L289.432 17.0724C288.84 17.0411 288.245 17.0107 287.647 16.981C285.589 16.8166 283.527 17.2561 281.82 18.2227C277.492 21.8201 274.205 26.1824 272.205 30.9821C271.216 32.5761 269.225 34.7771 272.777 35.326Z" fill="url(#paint27_radial_591_122241)"/>
<path fill-rule="evenodd" clip-rule="evenodd" d="M344.301 25.4057C326.91 31.5623 308.414 35.3058 289.554 36.486C282.76 37.1763 276.422 37.1024 269.645 38.1194C264.833 38.8119 260.302 40.4809 256.459 42.9771C245.936 49.4634 236.315 56.8954 227.771 65.1371C224.331 68.444 224.767 69.9873 224.774 74.1634C224.798 89.1552 226.974 106.043 228.398 120.665C228.652 124.065 229.394 127.428 230.607 130.683C228.952 138.948 228.263 146.733 227.477 155.078C226.858 161.654 226.889 168.26 227.571 174.832C227.599 177.327 228.258 179.791 229.504 182.063C231.321 184.356 234.103 186.006 237.31 186.693C271.691 194.6 330.918 198.456 379.201 199.442C384.702 199.571 390.153 198.55 395.052 196.474C423.411 186.003 450.746 173.725 476.81 159.752C495.048 143.007 516.069 128.493 539.244 116.647C541.156 115.557 541.987 113.413 543.304 110.311C544.177 102.41 545.065 95.1068 545.814 87.8509L545.898 87.0336C546.373 82.3624 546.197 81.8762 540.802 79.5287C533.826 76.4934 527.208 73.1614 520.679 69.7557C507.28 57.6611 494.66 44.991 482.87 31.7979C478.495 26.9796 477.838 26.2599 470.128 25.7555C429.802 23.1379 389.333 22.3561 348.904 23.4137C347.378 24.0915 345.857 24.7792 344.301 25.4057Z" fill="url(#paint28_radial_591_122241)"/>
<path fill-rule="evenodd" clip-rule="evenodd" d="M485.82 32.222C496.725 45.0407 508.628 57.2571 521.454 68.7936C524.342 70.4758 541.954 78.6059 544.846 77.8524C546.02 77.5464 546.843 76.7404 547.01 74.396C547.474 67.8605 547.762 61.0958 547.769 53.7273C545.387 51.232 542.809 48.8688 540.053 46.653C523.498 39.3851 506.206 33.33 488.376 28.5571C482.212 26.8968 482.054 27.8956 485.82 32.222Z" fill="url(#paint29_radial_591_122241)"/>
<path fill-rule="evenodd" clip-rule="evenodd" d="M227.261 135.033C227.44 133.365 227.122 131.685 226.335 130.142C225.547 128.6 224.315 127.24 222.745 126.183C215.65 121.357 208.961 116.135 202.727 110.554C192.774 103.709 181.788 97.963 170.045 93.4616C166.63 92.3085 162.834 92.1842 159.319 93.1106C140.073 97.9656 120.46 101.765 100.61 104.483C78.0933 113.105 54.7525 120.169 30.8269 125.601C29.0479 125.999 27.3419 126.594 25.7551 127.37C24.8254 127.821 24.0414 128.451 23.4698 129.207C22.8983 129.963 22.5562 130.822 22.4729 131.712C18.6873 165.548 15.9109 199.895 13.2601 233.575L13.2079 234.237C12.8658 236.289 12.9595 238.374 13.4847 240.399C15.362 241.724 19.4668 240.02 23.9814 238.902C59.7877 229.762 96.4275 223.03 133.543 218.773C159.094 206.845 185.833 196.751 213.466 188.602C221.458 186.196 222.408 184.945 223.466 177.793C224.271 172.353 224.788 163.731 225.468 154.996C226.022 147.893 226.751 140.722 227.261 135.033Z" fill="url(#paint30_radial_591_122241)"/>
<path fill-rule="evenodd" clip-rule="evenodd" d="M128.37 222.496C93.3021 227.022 58.5561 233.116 24.2841 240.751C20.7698 241.505 18.1659 241.822 16.38 242.43C13.3678 243.457 13.6219 245.017 14.1564 247.256C17.5248 261.223 21.0299 277.328 23.094 288.136L23.1696 288.536C23.2015 289.393 23.4621 290.234 23.9326 290.997C24.4032 291.761 25.0722 292.429 25.8915 292.954C27.4306 293.876 29.0312 294.726 30.6857 295.5C42.6764 301.586 54.6668 307.672 66.657 313.756C69.8817 315.393 72.5484 315.742 74.4129 314.009C93.4472 296.337 131.056 229.115 130.335 224.959C130.225 224.46 129.994 223.985 129.656 223.561C129.319 223.138 128.881 222.775 128.37 222.496Z" fill="url(#paint31_radial_591_122241)"/>
<path fill-rule="evenodd" clip-rule="evenodd" d="M142.264 218.539C124.358 240.54 120.192 252.822 105.998 273.709C95.0301 289.846 87.5562 302.671 77.2312 315.239C74.8533 318.135 79.7716 324.419 82.0127 326.645C94.7609 339.33 109.268 350.73 125.236 360.609C197.096 378.318 266.635 398.374 333.854 420.778C355.08 421.019 376.305 421.261 397.53 421.503C405.934 421.643 414.18 419.604 421.114 415.672C451.801 403.3 506.821 377.413 523.675 369.746C530.987 366.446 537.858 362.516 544.174 358.023C549.402 353.13 546.49 348.98 544.479 343.275C535.8 317.62 522.049 293.332 503.785 271.395C501.769 264.816 499.02 248.27 495.909 240.323C493.942 235.3 492.394 234.496 486.484 233.034C453.38 224.705 421.134 214.199 390.053 201.615C335.506 201.097 281.099 196.92 227.367 189.126C197.92 196.905 169.342 206.782 141.955 218.647L142.264 218.539Z" fill="url(#paint32_radial_591_122241)"/>
<path fill-rule="evenodd" clip-rule="evenodd" d="M400.602 195.806C391.174 199.069 393.133 200.476 400.037 203.11C430.794 214.966 462.564 224.93 495.091 232.92C504.957 233.891 542.154 234.871 547.309 232.598C548.13 232.275 548.899 231.869 549.6 231.389C551.361 222.532 552.285 213.574 552.363 204.598C549.661 180.292 546.625 150.489 543.475 125.315C542.363 123.637 540.492 122.393 538.273 121.855C532.932 120.848 492.784 145.321 478.245 161.294C453.66 174.693 427.676 186.243 400.602 195.806Z" fill="url(#paint33_radial_591_122241)"/>
<path fill-rule="evenodd" clip-rule="evenodd" d="M498.318 238.164C498.042 241.03 505.998 265.112 507.286 269.568C521.822 288.629 533.376 309.14 541.672 330.609C542.621 333.159 546.627 347.028 549.218 347.766C549.608 347.876 549.754 346.623 549.714 346.026C546.858 310.388 546.617 274.639 548.992 238.977L548.998 238.884C549.109 237.753 549.066 236.615 548.868 235.491C548.432 234.892 545.661 234.789 544.794 234.772C540.677 234.691 532.687 235.352 526.421 235.424C518.916 235.511 510.611 235.255 503.822 235.076C500.664 234.992 498.662 234.611 498.318 238.164Z" fill="url(#paint34_radial_591_122241)"/>
<path fill-rule="evenodd" clip-rule="evenodd" d="M112.843 355.9C97.4326 344.907 83.6259 332.461 71.7037 318.816C66.5276 316.181 37.2544 298.475 26.5483 295.918C25.8444 295.75 24.7322 295.496 24.1334 295.844C23.9935 295.94 23.8784 296.059 23.7951 296.192C23.7119 296.326 23.6621 296.472 23.6487 296.622C23.6193 296.966 23.5918 297.309 23.5664 297.651C20.4506 336.073 15.2714 375.047 15.1179 413.492C16.3278 421.449 18.1166 429.338 20.4747 437.116L20.4838 437.147C22.343 443.365 26.7146 438.224 29.4834 435.743C34.038 431.664 49.5407 416.608 67.4348 402.808C85.856 388.6 106.134 374.692 115.093 368.376C122.754 362.974 120.334 361.359 112.843 355.9Z" fill="url(#paint35_radial_591_122241)"/>
<path fill-rule="evenodd" clip-rule="evenodd" d="M151.358 370.173C133.324 365.583 127.72 366.345 117.648 371.631C100.315 381.141 83.9841 391.847 68.8301 403.635C52.5893 415.523 37.7788 428.687 24.6062 442.941C22.6936 444.82 21.694 447.22 21.8019 449.676C21.3074 461.144 21.0588 475.383 21.5812 481.667C22.4979 483.217 23.5803 484.696 24.8157 486.086C64.4365 485.749 95.6966 483.606 133.644 484.903C137.688 485.04 141.813 485.219 146.02 485.44C169.692 482.517 193.548 480.723 217.469 480.067C261.553 485.473 306.062 488.152 350.626 488.081C387.417 485.24 431.521 480.538 467.723 477.829C463.349 475.17 459.452 472.01 456.148 468.446C448.166 460.428 433.9 446.363 421.088 434.867C408.113 423.225 404.697 423.739 392.401 423.429C372.579 422.824 352.73 423.45 333.021 425.302C273.833 403.976 213.173 385.567 151.358 370.173Z" fill="url(#paint36_radial_591_122241)"/>
<path fill-rule="evenodd" clip-rule="evenodd" d="M416.251 419.832C411.298 422.427 414.273 425.169 416.871 427.728C433.822 444.429 450.772 461.13 467.723 477.829C474.532 478.598 481.145 479.252 487.642 479.793C507.09 481.443 526.647 482.029 546.187 481.549C547.083 480.466 548.009 479.217 548.71 478.15C542.617 441.611 547.033 404.06 550.265 367.258C550.081 366.612 549.718 366.011 549.205 365.502C548.693 364.992 548.044 364.588 547.311 364.321C542.926 362.64 528.172 370.315 520.323 373.915C487.587 388.928 454.85 402.182 422.113 417.196C419.568 418.364 417.626 419.111 416.251 419.832Z" fill="url(#paint37_radial_591_122241)"/>
<path fill-rule="evenodd" clip-rule="evenodd" d="M23.2451 43.3856C73.0012 38.2858 131.859 34.5464 178.405 22.9367C212.719 21.6932 237.206 20.7075 266.289 17.7598C267.075 17.6804 267.872 17.7408 268.627 17.9369C269.383 18.1331 270.079 18.4605 270.669 18.8972C271.259 19.3339 271.729 19.8699 272.049 20.4693C272.369 21.0687 272.53 21.7176 272.522 22.3728C272.499 24.3047 271.665 24.5532 269.706 24.7697C240.64 27.7934 211.37 29.2792 182.076 29.2181C180.038 28.0773 178.456 26.461 177.53 24.5745C178.149 26.5221 177.874 28.5908 176.756 30.3797C129.076 39.9161 80.8476 47.4645 32.253 52.9965L31.4796 53.1561L30.8588 53.6261C74.4597 49.2484 139.439 41.3505 180.122 31.3553C210.909 30.2345 240.991 28.929 271.51 25.751C269.747 28.5487 267.728 31.2303 265.47 33.7723C250.126 43.1096 235.761 53.5008 222.526 64.8353C203.754 70.6409 185.945 78.3882 169.522 87.8927C146.982 95.0893 123.485 100.031 99.529 102.613C77.0224 110.814 53.9615 117.931 30.4618 123.927C29.2248 124.292 27.9646 124.601 26.6867 124.851C26.2129 124.925 25.7259 124.917 25.2558 124.828C24.7858 124.74 24.3429 124.571 23.9548 124.335C23.5667 124.098 23.2418 123.797 23.0002 123.452C22.7587 123.106 22.6058 122.724 22.551 122.327C19.6492 101.471 16.6271 74.781 15.8748 51.743C18.023 48.7794 20.4897 45.9823 23.2451 43.3856ZM275.489 25.3255C276.275 25.2391 277.061 25.1519 277.849 25.0639C294.586 25.2006 311.274 26.5832 327.711 29.195C309.751 33.0033 291.315 35.0604 272.777 35.3243C269.225 34.7755 271.216 32.5744 272.205 30.9804C273.403 29.0516 274.429 27.1216 275.489 25.3255ZM333.338 29.1562C356.514 28.7218 389.675 31.2414 411.305 31.7183C433.538 32.2102 466.021 36.0177 488.276 37.6881C498.465 48.6814 509.107 59.4682 520.68 69.7549C527.209 73.1607 533.827 76.4926 540.803 79.5279C546.497 82.0056 546.377 82.4092 545.815 87.8502C545.065 95.106 544.178 102.409 543.305 110.311C541.988 113.412 541.157 115.556 539.245 116.646C516.07 128.492 495.049 143.006 476.811 159.752C450.747 173.725 423.412 186.002 395.052 196.473C390.154 198.549 384.703 199.57 379.202 199.441C330.919 198.455 271.692 194.599 237.311 186.692C234.104 186.006 231.322 184.355 229.505 182.062C228.259 179.79 227.6 177.327 227.572 174.831C226.89 168.26 226.859 161.653 227.478 155.077C228.264 146.732 228.952 138.947 230.608 130.682C229.395 127.427 228.653 124.064 228.399 120.664C226.975 106.042 224.799 89.1544 224.775 74.1627C224.768 69.9865 224.332 68.4432 227.772 65.1363C236.316 56.8947 245.937 49.4626 256.46 42.9763C260.303 40.4801 264.833 38.8111 269.646 38.1187C276.423 37.1017 282.761 37.1755 289.554 36.4852C304.421 35.3289 319.097 32.8722 333.338 29.1562ZM491.249 38.3859C506.102 42.1408 520.415 47.2286 533.932 53.5585C520.107 46.1471 505.121 40.3384 489.392 36.2944C488.192 34.9401 487.002 33.5829 485.819 32.2227C482.054 27.8964 482.212 26.8975 488.375 28.5579C506.206 33.3312 523.497 39.3862 540.053 46.6537C542.809 48.8696 545.386 51.2328 547.769 53.7281C547.761 61.0985 547.473 67.86 547.008 74.3967C546.842 76.7411 546.02 77.5472 544.846 77.8532C541.953 78.6067 524.341 70.4765 521.453 68.7943C510.672 59.1582 500.587 49.0044 491.249 38.3859ZM486.609 35.8838C463.292 33.9456 440.706 31.4048 418.561 29.9247C409.655 29.3295 401.098 29.5842 392.256 29.245C374.2 28.5516 356.238 27.4176 337.544 27.8619C339.832 27.1135 342.085 26.2944 344.301 25.4049C345.858 24.7785 347.379 24.0907 348.905 23.4129C389.334 22.3562 429.803 23.1382 470.129 25.7554C477.839 26.2592 478.496 26.9789 482.871 31.7972C484.111 33.1608 485.357 34.5231 486.609 35.8838ZM332.801 28.0103C331.552 28.0585 330.3 28.1142 329.044 28.1774C313.255 25.396 297.172 23.9143 281.03 23.754C279.884 23.7409 278.38 23.739 278.132 23.2884C277.242 21.6681 280.292 19.1035 281.82 18.221C284.082 17.0289 286.818 16.6163 289.443 17.0714C305.668 18.2974 319.909 20.4784 335.54 22.5005C342.61 23.4148 340.103 25.9513 334.599 27.5234C334.031 27.6848 333.428 27.8476 332.801 28.0103ZM213.707 471.115C218.493 471.021 218.319 473.626 217.769 479.03C219.683 473.544 220.083 470.993 226.101 471.978C263.544 478.364 301.654 481.697 339.883 481.927C347.204 481.932 348.286 484.126 350.628 488.08C349.576 483.837 348.368 481.657 354.188 480.823C389.842 475.702 424.032 471.119 455.314 467.607L456.151 468.445C459.454 472.01 463.351 475.169 467.725 477.829C450.774 461.128 433.823 444.428 416.873 427.728C414.275 425.169 411.3 422.427 416.253 419.831C417.628 419.111 419.57 418.363 422.115 417.195C454.852 402.182 487.589 388.928 520.324 373.914C528.174 370.314 542.928 362.64 547.313 364.321C548.046 364.588 548.694 364.992 549.207 365.501C549.72 366.011 550.083 366.612 550.267 367.257C547.035 404.06 542.619 441.611 548.711 478.15C548.011 479.216 547.085 480.465 546.189 481.548C526.649 482.029 507.091 481.442 487.644 479.793C503.204 481.612 518.865 482.773 534.567 483.273C548.741 484.006 545.82 484.502 551.23 496.339C549.99 492.22 549.044 488.044 548.398 483.833C548.435 483.314 548.599 482.806 548.88 482.341C549.161 481.875 549.552 481.462 550.031 481.125C550.51 480.789 551.067 480.536 551.667 480.382C552.267 480.228 552.899 480.177 553.524 480.231C556.702 480.488 559.484 480.873 562.393 481.314C557.915 480.203 554 477.912 551.242 474.788C550.208 472.993 549.682 471.027 549.703 469.04C548.223 433.586 549.437 398.09 553.336 362.763C554.087 356.767 557.512 351.219 562.941 347.202C555.349 352.208 552.205 355.614 551.673 346.632C549.611 311.877 548.648 276.992 550.012 241.831C550.132 238.734 550.484 235.569 551.33 235.469C552.878 235.928 554.34 236.566 555.672 237.366C557.18 238.155 558.689 238.944 560.197 239.733C553.621 234.434 550.544 234.178 551.708 227.018C552.252 223.668 552.797 220.319 553.341 216.97C555.107 206.107 552.281 205.672 563.766 203.839C557.122 203.531 554.603 203.811 554.083 198.004C551.961 174.317 549.086 150.631 545.074 126.944C544.476 123.412 544.97 121.714 546.137 121.125C548.035 120.17 552.65 121.984 558.589 123.638C555.696 122.466 552.924 121.101 550.301 119.555C544.742 116.329 546.296 103.707 547.683 90.4061C548.953 78.2168 549.542 65.7759 550.056 60.0371C550.292 57.3955 549.922 55.7089 551.135 54.5486C554.858 52.4393 558.913 50.7631 563.187 49.5669C558.889 50.7475 554.347 51.1913 549.836 50.8712C548.831 50.7291 542.437 46.1036 544.368 42.6033C545.616 40.341 546.578 37.9778 547.682 35.6654C545.87 37.6668 544.058 39.669 542.246 41.6721C538.968 45.2957 538.526 44.3551 533.725 42.4006C518.826 36.1979 503.487 30.7454 487.794 26.0727C480.561 23.9342 480.766 23.5913 479.299 17.7304C479.218 21.5786 479.268 23.0656 477.784 23.8823C475.358 24.4392 472.802 24.4843 470.349 24.0137C431.762 20.8997 392.947 20.1776 354.23 21.8534C343.484 22.2232 347.895 17.639 351.657 11.3113C348.136 15.5306 346.369 19.188 342.597 20.3514C340.963 20.6986 339.258 20.7503 337.598 20.5028C321.137 19.4173 304.762 17.5714 288.55 14.9736C279.516 13.4391 281.966 7.5444 282.825 1.79053C278.114 10.9514 279.066 13.5499 265.269 15.2221C242.24 18.1222 219.002 19.7353 195.711 20.0504C179.32 20.2062 177.698 19.5653 167.911 10.4251C169.751 12.8971 170.888 15.6834 171.235 18.5728C168.724 20.6733 165.428 22.0081 161.884 22.3597C118.132 31.399 73.59 37.5816 28.6691 40.8504C21.7427 41.2472 19.7126 36.3307 16.9189 31.9905C18.52 35.3647 19.4635 38.9279 19.7141 42.547C19.4846 44.1303 18.7803 45.6408 17.6654 46.9412C16.5504 48.2416 15.0603 49.2905 13.3305 49.9925C9.44691 50.2855 5.53216 50.0897 1.71946 49.4118C4.4111 50.0151 12.7022 51.7154 14.1388 53.4678C14.7179 56.1495 14.8636 58.8831 14.572 61.5966C14.6236 80.9425 16.0128 100.27 18.7328 119.485C19.2499 122.581 19.296 124.088 18.3766 124.871C14.6287 125.9 10.6986 126.401 6.75034 126.352C9.68771 126.577 17.4239 126.78 19.1554 128.212C20.2071 129.084 20.4853 130.609 20.1413 133.45C16.0464 167.299 11.7027 200.377 10.9935 234.424C11.1451 236.399 10.7577 238.376 9.8601 240.21C7.6726 242.727 4.75725 244.75 1.38074 246.094C5.79246 244.54 8.55514 243.519 10.3213 244.389C11.2566 244.849 11.9114 245.945 12.3824 248.048C15.2253 260.719 18.0677 273.389 20.9095 286.06C21.649 289.353 21.9581 290.79 21.0773 291.469C16.7574 292.284 12.3443 292.712 7.91395 292.747C12.3234 292.803 16.6955 293.427 20.8732 294.597C21.7835 295.339 22.0368 296.64 21.6391 299.066C15.8517 334.798 13.0477 370.819 13.2473 406.871C13.2685 414.139 9.92211 413.306 2.10122 414.174C9.318 414.633 13.4357 413.135 14.6983 419.088C15.936 424.92 17.1405 430.757 18.4568 436.577C19.8291 442.65 14.2937 441.725 5.60185 441.938C7.59865 442.137 9.59476 442.336 11.5901 442.536C18.3381 443.208 20.858 442.949 20.5866 449.345C20.2048 458.337 19.8228 467.33 19.4404 476.324C19.3255 479.035 19.6007 480.395 16.1356 481.072C13.2203 481.506 10.279 481.81 7.3243 481.982C11.2763 482.265 15.251 482.387 19.1826 482.833C20.0986 483.271 20.8861 483.871 21.4881 484.591C22.0901 485.311 22.4918 486.133 22.6643 486.996C21.9172 490.498 20.9023 493.956 19.6257 497.351C21.2632 493.976 23.6234 490.874 26.5929 488.193C27.7419 487.709 29.026 487.487 30.3129 487.551C64.7637 486.581 99.2081 485.698 133.646 484.902C95.6986 483.605 64.4385 485.748 24.8176 486.085C23.5823 484.695 22.4998 483.216 21.5832 481.666C21.0607 475.382 21.3094 461.143 21.8039 449.675C21.696 447.22 22.6957 444.819 24.6083 442.94C37.7808 428.686 52.5913 415.523 68.832 403.634C83.986 391.847 100.317 381.141 117.65 371.631C127.722 366.344 133.326 365.583 151.361 370.172C213.175 385.567 273.835 403.975 333.023 425.301C352.732 423.449 372.581 422.823 392.403 423.428C404.699 423.738 408.115 423.224 421.09 434.867C433.467 445.973 447.199 459.473 455.314 467.607C416.413 470.573 389.156 476.586 350.101 479.612C326.452 479.793 303.103 479.06 279.543 477.324C259.002 475.81 239.118 471.748 218.654 469.671C194.094 470.584 169.65 473.009 145.524 476.924C107.298 474.977 69.7348 476.989 31.5717 477.535C62.2783 478.792 103.337 476.3 138.89 477.725C144.977 477.969 144.888 480.957 145.905 484.635C146.086 480.756 144.807 478.343 151.413 477.357C171.954 473.959 192.78 471.872 213.707 471.115ZM543.972 129.33C546.945 153.614 549.804 181.572 552.364 204.597C552.286 213.574 551.362 222.531 549.601 231.388C548.9 231.868 548.131 232.274 547.31 232.598C542.155 234.871 504.958 233.89 495.092 232.919C462.566 224.929 430.795 214.965 400.038 203.109C393.134 200.475 391.175 199.068 400.603 195.805C427.677 186.242 453.661 174.692 478.246 161.293C492.785 145.321 532.933 120.847 538.274 121.855C543.222 122.786 543.568 126.018 543.972 129.33ZM548.994 238.978C546.621 274.616 546.861 310.341 549.71 345.956C549.768 346.515 549.627 347.882 549.219 347.767C546.628 347.029 542.623 333.16 541.674 330.61C533.378 309.141 521.824 288.63 507.288 269.568C506 265.113 498.044 241.031 498.32 238.165C498.664 234.611 500.665 234.993 503.824 235.076C510.613 235.256 518.918 235.512 526.423 235.424C532.689 235.353 540.679 234.692 544.796 234.773C545.663 234.79 548.434 234.892 548.869 235.492C549.067 236.647 549.108 237.816 548.994 238.978ZM20.4748 437.116C18.1167 429.338 16.3279 421.449 15.118 413.492C15.2715 375.048 20.4506 336.073 23.5649 297.651C23.6148 297.047 23.5339 296.191 24.1335 295.844C24.7323 295.497 25.8445 295.75 26.5484 295.918C37.2545 298.475 66.5277 316.181 71.7038 318.816C83.626 332.461 97.4327 344.907 112.844 355.9C120.334 361.359 122.754 362.974 115.093 368.376C106.134 374.692 85.8561 388.6 67.4349 402.808C49.5408 416.608 34.0381 431.664 29.4835 435.743C26.711 438.228 22.3302 443.381 20.4748 437.116ZM23.0954 288.138C21.0457 277.403 17.5722 261.441 14.2243 247.539C13.6504 245.149 13.2452 243.5 16.3814 242.431C18.1673 241.824 20.7712 241.506 24.2854 240.753C58.5575 233.118 93.3035 227.024 128.371 222.497C128.882 222.777 129.32 223.14 129.658 223.563C129.995 223.987 130.226 224.462 130.336 224.961C131.057 229.117 93.4486 296.339 74.4143 314.011C72.5498 315.743 69.8831 315.395 66.6584 313.758C54.6685 307.673 42.6781 301.588 30.6871 295.502C29.0326 294.728 27.432 293.878 25.8929 292.956C25.0203 292.377 24.3159 291.644 23.8317 290.81C23.3475 289.977 23.0958 289.063 23.0954 288.138ZM13.2602 233.576C15.9111 199.896 18.6889 165.549 22.4731 131.712C22.5564 130.823 22.8985 129.964 23.47 129.207C24.0416 128.451 24.8256 127.821 25.7552 127.37C27.3421 126.594 29.0481 126 30.8271 125.601C54.7526 120.169 78.0935 113.105 100.61 104.483C120.461 101.765 140.073 97.9659 159.319 93.1109C162.834 92.1845 166.63 92.3088 170.046 93.462C181.788 97.9634 192.774 103.709 202.727 110.555C208.962 116.136 215.65 121.358 222.745 126.183C224.315 127.24 225.547 128.6 226.335 130.143C227.122 131.686 227.44 133.365 227.261 135.033C226.751 140.723 226.022 147.893 225.468 154.997C224.788 163.731 224.271 172.353 223.466 177.794C222.409 184.946 221.458 186.196 213.466 188.602C185.833 196.751 159.094 206.845 133.544 218.773C96.4276 223.03 59.7878 229.762 23.9816 238.903C19.467 240.02 15.3622 241.724 13.4849 240.399C12.9794 238.148 12.9035 235.846 13.2602 233.576ZM215.402 71.7388C201.017 75.7826 187.269 81.2409 174.456 87.9966C173.583 89.3872 173.278 90.2033 173.521 90.8523C174.04 92.2366 201.021 107.106 204.474 109.088C209.461 115.25 215.95 120.48 223.525 124.442C227.21 126.568 226.929 125.501 226.68 122.206C226.454 119.223 224.755 105.43 223.855 93.1466C223.361 86.3838 223.109 79.6787 223.02 75.5245C222.952 72.2652 222.338 70.1361 215.402 71.7388ZM486.482 233.034C453.379 224.706 421.132 214.199 390.052 201.616C335.505 201.097 281.098 196.92 227.366 189.127C197.918 196.906 169.341 206.783 141.954 218.647L142.263 218.539C124.357 240.54 120.19 252.822 105.997 273.709C95.0288 289.846 87.555 302.671 77.23 315.24C74.8521 318.135 79.7704 324.419 82.0114 326.645C94.7597 339.331 109.267 350.73 125.234 360.609C197.094 378.318 266.634 398.375 333.853 420.778C355.079 421.02 376.304 421.261 397.529 421.503C405.932 421.643 414.179 419.605 421.113 415.673C451.799 403.3 506.819 377.413 523.674 369.746C530.986 366.446 537.857 362.517 544.173 358.023C549.401 353.13 546.488 348.981 544.478 343.275C535.798 317.621 522.048 293.332 503.784 271.395C501.768 264.816 499.019 248.27 495.908 240.323C493.941 235.301 492.393 234.496 486.482 233.034Z" fill="url(#paint38_radial_591_122241)"/>
<path fill-rule="evenodd" clip-rule="evenodd" d="M35.7996 473.837C72.3167 473.217 108.79 471.447 145.311 473.276C169.494 469.331 194.005 466.912 218.631 466.04L218.91 466.038L219.186 466.068C239.52 468.131 259.519 472.203 279.932 473.707C303.195 475.422 326.51 476.18 349.876 475.983C367.558 474.606 384.907 472.337 402.417 469.955C420.197 467.536 437.803 465.27 455.764 463.927L456.258 463.89L456.751 463.945C470.147 465.457 483.601 466.77 497.063 467.802C508.825 468.704 520.9 469.479 532.777 469.579C531.013 453.076 530.77 436.487 532.05 419.954C533.339 400.775 535.847 381.661 537.399 362.495C535.772 351.251 534.728 339.9 533.983 328.595C533.232 317.171 532.793 305.701 532.77 294.261C532.729 274.008 534.257 253.889 535.595 233.682L535.607 233.508L535.638 233.335C537.036 223.934 537.733 214.47 537.725 204.998C534.656 177.351 531.783 149.7 528.154 122.098L528.109 121.748L528.144 121.398C530.295 100.418 532.714 79.1681 533.101 58.1065C532.508 57.5658 531.903 57.034 531.287 56.5113C524.297 53.4772 517.257 50.4432 510.007 47.8579C502.743 45.329 495.314 43.1378 487.755 41.2949C475.043 40.3411 462.345 39.0387 449.653 37.9022C436.949 36.7657 423.961 35.6311 411.188 35.3489C381.433 34.6917 346.167 31.0156 317.557 32.1909C308.622 30.9705 309.438 30.9324 300.457 29.9586C293.049 29.1686 285.591 28.7473 278.122 28.6969C245.838 32.3205 213.375 33.7762 180.85 34.9627C169.139 37.8228 157.162 40.1508 145.222 42.2449C131.613 44.6324 117.915 46.7114 104.196 48.6133C80.648 51.8795 56.9585 54.6438 33.2577 57.042L32.9492 57.4006C33.7998 79.5975 34.5845 101.629 37.7479 123.718L37.81 124.157L37.7449 124.593C31.9562 162.956 28.492 201.535 27.3655 240.184C30.0828 249.447 32.2407 258.889 34.1339 268.288C36.1148 278.126 37.81 288.042 39.1241 297.956L39.1641 298.269L39.1415 298.581C37.6671 317.903 35.318 337.142 33.3098 356.426C31.3531 375.227 29.8493 393.966 29.7434 412.846C30.1018 415.428 30.5978 417.997 31.152 420.555C31.6903 423.036 32.1742 425.546 32.7987 428.013C33.4081 430.423 34.2088 432.788 35.0458 435.15L35.253 435.738L35.2166 436.35C34.7955 443.376 34.9648 450.567 35.1705 457.6C35.3278 463.014 35.5607 468.425 35.7996 473.837ZM25.355 413.044C25.7263 415.772 26.2488 418.495 26.8333 421.196C27.7223 426.262 29.0598 431.267 30.8352 436.171C30.16 447.433 31.0499 465.66 31.5716 477.535C69.7347 476.989 107.298 474.978 145.524 476.924C169.65 473.009 194.094 470.585 218.654 469.671C239.118 471.748 259.002 475.81 279.543 477.324C303.103 479.06 326.452 479.793 350.101 479.612C389.437 476.565 416.805 470.486 456.159 467.543C483.153 470.832 510.369 472.725 537.647 473.211C532.392 434.717 538.708 400.883 541.804 362.398C538.766 339.77 537.215 317.022 537.157 294.254C537.115 273.372 538.595 254.731 539.975 233.881C541.371 224.256 542.086 214.572 542.117 204.878C538.894 175.863 536.323 150.674 532.515 121.705C534.6 101.363 537.223 77.183 537.51 56.7478C536.361 55.6514 535.164 54.5868 533.931 53.5586C519.609 46.8466 504.397 41.5292 488.598 37.7126C466.336 36.056 433.645 32.2116 411.305 31.7184C388.108 31.2071 351.646 28.3464 328.464 29.2983C311.78 26.628 294.84 25.2108 277.849 25.064C245.147 28.7482 213.038 30.1564 180.122 31.3554C139.438 41.3506 74.4594 49.2485 30.8586 53.6262C30.042 54.5055 29.2622 55.4065 28.5193 56.3292C29.419 79.7433 30.0534 100.841 33.39 124.145C27.6423 162.41 24.0312 202.224 22.9667 240.578C28.2658 259.627 32.2049 278.918 34.7637 298.351C31.6993 338.531 25.5577 372.756 25.355 413.044Z" fill="url(#paint39_linear_591_122241)"/>
<path fill-rule="evenodd" clip-rule="evenodd" d="M95.1456 413.438C88.3491 414.609 82.0447 417.24 76.8659 421.067C71.038 425.804 63.5565 440.694 67.8639 447.214C69.105 449.12 70.8774 450.754 73.034 451.98C75.1907 453.205 77.6693 453.988 80.2644 454.262C88.1747 454.654 96.0045 452.764 102.42 448.913C107.654 444.78 112.214 440.1 115.985 434.99C119.186 431.957 122.121 428.738 124.766 425.358C125.457 424.128 125.804 422.785 125.779 421.429C125.755 420.072 125.361 418.738 124.626 417.526C123.892 416.313 122.836 415.254 121.537 414.427C120.239 413.599 118.731 413.025 117.127 412.748C109.837 411.533 102.303 411.77 95.1456 413.438Z" fill="url(#paint40_radial_591_122241)"/>
<path fill-rule="evenodd" clip-rule="evenodd" d="M464.044 71.3866C458.919 74.8947 454.077 78.6763 449.548 82.7072C445.494 85.9609 438.992 88.5386 437.162 92.9614C434.843 98.5669 441.315 104.48 451.744 105.191C459.771 105.667 467.837 105.096 475.65 103.498C485.609 101.582 494.349 96.6621 500.162 89.699C502.033 86.4627 502.491 82.7899 501.46 79.3054C500.428 75.8209 497.97 72.7397 494.503 70.5861C489.67 68.8494 484.432 68.0205 479.165 68.1589C473.899 68.2973 468.735 69.3996 464.044 71.3866Z" fill="url(#paint41_radial_591_122241)"/>
<path fill-rule="evenodd" clip-rule="evenodd" d="M440.096 125.687C435.859 126.648 432.048 128.599 429.118 131.308C426.188 134.017 424.264 137.368 423.578 140.959C423.324 149.322 439.155 149.754 446.333 149.808C447.962 149.836 449.582 149.595 451.098 149.099C452.613 148.602 453.994 147.86 455.158 146.916C459.965 142.639 465.879 126.035 456.859 124.473C451.24 123.646 445.456 124.064 440.096 125.687Z" fill="url(#paint42_radial_591_122241)"/>
<g filter="url(#filter0_i_591_122241)">
<path fill-rule="evenodd" clip-rule="evenodd" d="M53.9639 215.738C206.566 204.087 359.167 204.087 511.768 215.738C514.045 285.96 514.045 356.742 511.768 426.963C359.166 438.683 206.565 438.683 53.9639 426.963C51.9713 356.698 51.9713 286.004 53.9639 215.738Z" fill="url(#paint43_linear_591_122241)"/>
</g>
<defs>
<filter id="filter0_i_591_122241" x="52.4695" y="207" width="461.006" height="232.753" filterUnits="userSpaceOnUse" color-interpolation-filters="sRGB">
<feFlood flood-opacity="0" result="BackgroundImageFix"/>
<feBlend mode="normal" in="SourceGraphic" in2="BackgroundImageFix" result="shape"/>
<feColorMatrix in="SourceAlpha" type="matrix" values="0 0 0 0 0 0 0 0 0 0 0 0 0 0 0 0 0 0 127 0" result="hardAlpha"/>
<feOffset dy="4"/>
<feGaussianBlur stdDeviation="2"/>
<feComposite in2="hardAlpha" operator="arithmetic" k2="-1" k3="1"/>
<feColorMatrix type="matrix" values="0 0 0 0 0.0181749 0 0 0 0 0.323219 0 0 0 0 0.605833 0 0 0 0.6 0"/>
<feBlend mode="normal" in2="shape" result="effect1_innerShadow_591_122241"/>
</filter>
<radialGradient id="paint0_radial_591_122241" cx="0" cy="0" r="1" gradientUnits="userSpaceOnUse" gradientTransform="translate(6.20411 15.033) scale(68.605 56.7863)">
<stop stop-color="#E5FAFF"/>
<stop offset="1" stop-color="#B7ECFF"/>
</radialGradient>
<radialGradient id="paint1_radial_591_122241" cx="0" cy="0" r="1" gradientUnits="userSpaceOnUse" gradientTransform="translate(145.583 -113.889) scale(233.356 193.155)">
<stop stop-color="#E5FAFF"/>
<stop offset="1" stop-color="#B7ECFF"/>
</radialGradient>
<radialGradient id="paint2_radial_591_122241" cx="0" cy="0" r="1" gradientUnits="userSpaceOnUse" gradientTransform="translate(257.275 -121.87) scale(184.186 152.457)">
<stop stop-color="#E5FAFF"/>
<stop offset="1" stop-color="#B7ECFF"/>
</radialGradient>
<radialGradient id="paint3_radial_591_122241" cx="0" cy="0" r="1" gradientUnits="userSpaceOnUse" gradientTransform="translate(308 -39.906) scale(99.1211 82.0454)">
<stop stop-color="#C8FAFF"/>
<stop offset="1" stop-color="#9BC9FF"/>
</radialGradient>
<radialGradient id="paint4_radial_591_122241" cx="0" cy="0" r="1" gradientUnits="userSpaceOnUse" gradientTransform="translate(410.615 -63.3406) scale(129.399 107.107)">
<stop stop-color="#C8FAFF"/>
<stop offset="1" stop-color="#9BC9FF"/>
</radialGradient>
<radialGradient id="paint5_radial_591_122241" cx="0" cy="0" r="1" gradientUnits="userSpaceOnUse" gradientTransform="translate(549.654 -43.865) scale(108.222 89.5784)">
<stop stop-color="#C8FAFF"/>
<stop offset="1" stop-color="#8CB9FF"/>
</radialGradient>
<radialGradient id="paint6_radial_591_122241" cx="0" cy="0" r="1" gradientUnits="userSpaceOnUse" gradientTransform="translate(559.619 10.3926) scale(59.3796 49.1502)">
<stop stop-color="#C8FAFF"/>
<stop offset="1" stop-color="#9BC9FF"/>
</radialGradient>
<radialGradient id="paint7_radial_591_122241" cx="0" cy="0" r="1" gradientUnits="userSpaceOnUse" gradientTransform="translate(560.394 31.5541) scale(238.765 197.633)">
<stop stop-color="#B0E4FF"/>
<stop offset="1" stop-color="#79A7FC"/>
</radialGradient>
<radialGradient id="paint8_radial_591_122241" cx="0" cy="0" r="1" gradientUnits="userSpaceOnUse" gradientTransform="translate(605.933 232.448) scale(192.617 159.435)">
<stop stop-color="#B0E4FF"/>
<stop offset="1" stop-color="#79A7FC"/>
</radialGradient>
<radialGradient id="paint9_radial_591_122241" cx="0" cy="0" r="1" gradientUnits="userSpaceOnUse" gradientTransform="translate(564.011 184.737) scale(71.9529 59.5577)">
<stop stop-color="#B0E4FF"/>
<stop offset="1" stop-color="#79A7FC"/>
</radialGradient>
<radialGradient id="paint10_radial_591_122241" cx="0" cy="0" r="1" gradientUnits="userSpaceOnUse" gradientTransform="translate(599.281 411.335) scale(222.354 184.049)">
<stop stop-color="#B0E4FF"/>
<stop offset="1" stop-color="#79A7FC"/>
</radialGradient>
<radialGradient id="paint11_radial_591_122241" cx="0" cy="0" r="1" gradientUnits="userSpaceOnUse" gradientTransform="translate(391.043 347.385) scale(219.387 181.592)">
<stop stop-color="#B0E4FF"/>
<stop offset="1" stop-color="#79A7FC"/>
</radialGradient>
<radialGradient id="paint12_radial_591_122241" cx="0" cy="0" r="1" gradientUnits="userSpaceOnUse" gradientTransform="translate(572.348 500.375) scale(66.4558 55.0074)">
<stop stop-color="#B0E4FF"/>
<stop offset="1" stop-color="#739FF4"/>
</radialGradient>
<radialGradient id="paint13_radial_591_122241" cx="0" cy="0" r="1" gradientUnits="userSpaceOnUse" gradientTransform="translate(489.405 389.999) scale(143.434 118.725)">
<stop stop-color="#B0E4FF"/>
<stop offset="1" stop-color="#739FF4"/>
</radialGradient>
<radialGradient id="paint14_radial_591_122241" cx="0" cy="0" r="1" gradientUnits="userSpaceOnUse" gradientTransform="translate(434.103 577.986) scale(156.778 129.77)">
<stop stop-color="#B0E4FF"/>
<stop offset="1" stop-color="#739FF4"/>
</radialGradient>
<radialGradient id="paint15_radial_591_122241" cx="0" cy="0" r="1" gradientUnits="userSpaceOnUse" gradientTransform="translate(321.447 402.311) scale(180.598 149.487)">
<stop stop-color="#B0E4FF"/>
<stop offset="1" stop-color="#739FF4"/>
</radialGradient>
<radialGradient id="paint16_radial_591_122241" cx="0" cy="0" r="1" gradientUnits="userSpaceOnUse" gradientTransform="translate(202.808 611.997) scale(185.538 153.576)">
<stop stop-color="#B0E4FF"/>
<stop offset="1" stop-color="#739FF4"/>
</radialGradient>
<radialGradient id="paint17_radial_591_122241" cx="0" cy="0" r="1" gradientUnits="userSpaceOnUse" gradientTransform="translate(93.04 568.036) scale(158.457 131.16)">
<stop stop-color="#B0E4FF"/>
<stop offset="1" stop-color="#739FF4"/>
</radialGradient>
<radialGradient id="paint18_radial_591_122241" cx="0" cy="0" r="1" gradientUnits="userSpaceOnUse" gradientTransform="translate(-1.38711 470.35) scale(54.7992 45.3589)">
<stop stop-color="#B0E4FF"/>
<stop offset="1" stop-color="#739FF4"/>
</radialGradient>
<radialGradient id="paint19_radial_591_122241" cx="0" cy="0" r="1" gradientUnits="userSpaceOnUse" gradientTransform="translate(-1.12479 492.599) scale(91.9308 76.0934)">
<stop stop-color="#B0E4FF"/>
<stop offset="1" stop-color="#739FF4"/>
</radialGradient>
<radialGradient id="paint20_radial_591_122241" cx="0" cy="0" r="1" gradientUnits="userSpaceOnUse" gradientTransform="translate(-17.9416 414.184) scale(50.5854 41.8709)">
<stop stop-color="#B0E4FF"/>
<stop offset="1" stop-color="#739FF4"/>
</radialGradient>
<radialGradient id="paint21_radial_591_122241" cx="0" cy="0" r="1" gradientUnits="userSpaceOnUse" gradientTransform="translate(-11.0347 408.681) scale(306.59 253.773)">
<stop stop-color="#B0E4FF"/>
<stop offset="1" stop-color="#739FF4"/>
</radialGradient>
<radialGradient id="paint22_radial_591_122241" cx="0" cy="0" r="1" gradientUnits="userSpaceOnUse" gradientTransform="translate(-32.3854 266.973) scale(78.6213 65.0769)">
<stop stop-color="#B0E4FF"/>
<stop offset="1" stop-color="#739FF4"/>
</radialGradient>
<radialGradient id="paint23_radial_591_122241" cx="0" cy="0" r="1" gradientUnits="userSpaceOnUse" gradientTransform="translate(-3.26369 250.022) scale(214.476 177.528)">
<stop stop-color="#B0E4FF"/>
<stop offset="1" stop-color="#739FF4"/>
</radialGradient>
<radialGradient id="paint24_radial_591_122241" cx="0" cy="0" r="1" gradientUnits="userSpaceOnUse" gradientTransform="translate(-7.76182 40.2635) scale(274.443 227.165)">
<stop stop-color="#B0E4FF"/>
<stop offset="1" stop-color="#739FF4"/>
</radialGradient>
<radialGradient id="paint25_radial_591_122241" cx="0" cy="0" r="1" gradientUnits="userSpaceOnUse" gradientTransform="translate(199.747 165.572) scale(445.927 369.107)">
<stop stop-color="#D9F3FF"/>
<stop offset="1" stop-color="#73AEF5"/>
</radialGradient>
<radialGradient id="paint26_radial_591_122241" cx="0" cy="0" r="1" gradientUnits="userSpaceOnUse" gradientTransform="translate(250.12 162.74) scale(144.815 119.867)">
<stop stop-color="#D9F3FF"/>
<stop offset="1" stop-color="#73AEF5"/>
</radialGradient>
<radialGradient id="paint27_radial_591_122241" cx="0" cy="0" r="1" gradientUnits="userSpaceOnUse" gradientTransform="translate(268.278 9.37922) scale(104.789 86.7369)">
<stop stop-color="#D9F3FF"/>
<stop offset="1" stop-color="#73AEF5"/>
</radialGradient>
<radialGradient id="paint28_radial_591_122241" cx="0" cy="0" r="1" gradientUnits="userSpaceOnUse" gradientTransform="translate(182.195 400.087) scale(560.16 463.66)">
<stop stop-color="#B4E5FF"/>
<stop offset="1" stop-color="#9BC9FF"/>
</radialGradient>
<radialGradient id="paint29_radial_591_122241" cx="0" cy="0" r="1" gradientUnits="userSpaceOnUse" gradientTransform="translate(583.12 45.9534) scale(169.292 140.128)">
<stop stop-color="#8FBCFF"/>
<stop offset="1" stop-color="#B0E4FF"/>
</radialGradient>
<radialGradient id="paint30_radial_591_122241" cx="0" cy="0" r="1" gradientUnits="userSpaceOnUse" gradientTransform="translate(32.6854 -35.6193) scale(482.769 399.602)">
<stop stop-color="#8FBCFF"/>
<stop offset="1" stop-color="#B0E4FF"/>
</radialGradient>
<radialGradient id="paint31_radial_591_122241" cx="0" cy="0" r="1" gradientUnits="userSpaceOnUse" gradientTransform="translate(34.59 145.448) scale(258.152 213.68)">
<stop stop-color="#8FBCFF"/>
<stop offset="1" stop-color="#B0E4FF"/>
</radialGradient>
<radialGradient id="paint32_radial_591_122241" cx="0" cy="0" r="1" gradientUnits="userSpaceOnUse" gradientTransform="translate(95.6833 -45.2754) scale(807.498 668.389)">
<stop stop-color="#8FBCFF"/>
<stop offset="1" stop-color="#B0E4FF"/>
</radialGradient>
<radialGradient id="paint33_radial_591_122241" cx="0" cy="0" r="1" gradientUnits="userSpaceOnUse" gradientTransform="translate(631.125 309.713) scale(390.055 322.86)">
<stop stop-color="#C2EAFF"/>
<stop offset="1" stop-color="#6CAFF0"/>
</radialGradient>
<radialGradient id="paint34_radial_591_122241" cx="0" cy="0" r="1" gradientUnits="userSpaceOnUse" gradientTransform="translate(499.019 200.843) scale(376.927 311.993)">
<stop stop-color="#8FBCFF"/>
<stop offset="1" stop-color="#B0E4FF"/>
</radialGradient>
<radialGradient id="paint35_radial_591_122241" cx="0" cy="0" r="1" gradientUnits="userSpaceOnUse" gradientTransform="translate(-73.7363 473.639) scale(305.177 252.604)">
<stop stop-color="#D9F3FF"/>
<stop offset="1" stop-color="#73AEF5"/>
</radialGradient>
<radialGradient id="paint36_radial_591_122241" cx="0" cy="0" r="1" gradientUnits="userSpaceOnUse" gradientTransform="translate(229.694 517.293) scale(508.867 421.203)">
<stop stop-color="#8FBCFF"/>
<stop offset="1" stop-color="#B0E4FF"/>
</radialGradient>
<radialGradient id="paint37_radial_591_122241" cx="0" cy="0" r="1" gradientUnits="userSpaceOnUse" gradientTransform="translate(460.63 373.086) scale(369.517 305.86)">
<stop stop-color="#8FBCFF"/>
<stop offset="1" stop-color="#B0E4FF"/>
</radialGradient>
<radialGradient id="paint38_radial_591_122241" cx="0" cy="0" r="1" gradientUnits="userSpaceOnUse" gradientTransform="translate(-273.377 -618.29) scale(1576.7 1305.08)">
<stop stop-color="#FFFAFF"/>
<stop offset="1" stop-color="#CFF2FF"/>
</radialGradient>
<linearGradient id="paint39_linear_591_122241" x1="282.542" y1="476.008" x2="282.542" y2="28.6969" gradientUnits="userSpaceOnUse">
<stop stop-color="#79ADFC"/>
<stop offset="1" stop-color="#699CED"/>
</linearGradient>
<radialGradient id="paint40_radial_591_122241" cx="0" cy="0" r="1" gradientUnits="userSpaceOnUse" gradientTransform="translate(120.861 456.916) scale(78.0598 64.6122)">
<stop stop-color="#A8D8FF"/>
<stop offset="1" stop-color="#7DABFF"/>
</radialGradient>
<radialGradient id="paint41_radial_591_122241" cx="0" cy="0" r="1" gradientUnits="userSpaceOnUse" gradientTransform="translate(489.655 115.496) scale(58.0516 48.0509)">
<stop stop-color="#B4E5FF"/>
<stop offset="1" stop-color="#94C1FF"/>
</radialGradient>
<radialGradient id="paint42_radial_591_122241" cx="0" cy="0" r="1" gradientUnits="userSpaceOnUse" gradientTransform="translate(460.958 163.523) scale(53.2764 44.0985)">
<stop stop-color="#B4E5FF"/>
<stop offset="1" stop-color="#94C1FF"/>
</radialGradient>
<linearGradient id="paint43_linear_591_122241" x1="282.973" y1="435.8" x2="282.973" y2="206.901" gradientUnits="userSpaceOnUse">
<stop stop-color="#79ADFC"/>
<stop offset="1" stop-color="#4D73AD"/>
</linearGradient>
</defs>
</svg>
