<svg width="667" height="641" viewBox="0 0 667 641" fill="none" xmlns="http://www.w3.org/2000/svg">
<path fill-rule="evenodd" clip-rule="evenodd" d="M130.082 320.195C130.082 320.195 164.502 373.248 201.308 368.138C203.093 367.876 204.834 367.578 206.523 367.167C241.409 359.581 251.011 327.685 251.011 327.685L255.519 306.668C255.519 306.668 236.642 335.852 214.251 345.809L214.246 345.833C208.515 348.595 202.096 349.606 195.794 348.739C166.354 343.921 143.217 307.196 143.217 307.196C143.217 307.196 132.232 304.039 130.082 320.195Z" fill="url(#paint0_linear_589_74110)"/>
<path style="mix-blend-mode:multiply" opacity="0.74" fill-rule="evenodd" clip-rule="evenodd" d="M206.522 367.166C241.409 359.581 251.011 327.684 251.011 327.684L255.519 306.668C255.519 306.668 236.642 335.852 214.251 345.808L214.246 345.833C212.378 353.18 209.791 360.326 206.522 367.166Z" fill="url(#paint1_linear_589_74110)"/>
<path fill-rule="evenodd" clip-rule="evenodd" d="M105.444 323.778C114.616 328.361 125.193 329.266 135.011 326.309L139.438 290.629L115.996 282.456L105.444 323.778Z" fill="url(#paint2_linear_589_74110)"/>
<path fill-rule="evenodd" clip-rule="evenodd" d="M415.635 531.195L466.024 542.003C466.024 542.003 507.466 379.705 529.716 178.377C529.716 178.377 469.314 134.117 415.053 122.478L415.635 531.195Z" fill="url(#paint3_linear_589_74110)"/>
<path fill-rule="evenodd" clip-rule="evenodd" d="M415.635 531.195L466.024 542.003C466.024 542.003 507.466 379.705 529.716 178.377C529.716 178.377 469.314 134.117 415.053 122.478L415.635 531.195Z" fill="url(#paint4_radial_589_74110)"/>
<path fill-rule="evenodd" clip-rule="evenodd" d="M415.635 531.195C415.635 531.195 472.606 319.463 487.155 165.522C487.155 165.522 425.979 87.9343 311.345 131.538C311.345 131.538 232.39 312.399 206.805 483.346C206.805 483.346 289.761 545.395 415.635 531.195Z" fill="url(#paint5_radial_589_74110)"/>
<path fill-rule="evenodd" clip-rule="evenodd" d="M206.805 483.346C206.805 483.346 327.448 570.925 466.024 542.003L415.636 531.195C415.636 531.195 347.598 535.163 313.547 525.995C276.439 515.949 240.619 501.637 206.805 483.346Z" fill="#24000A"/>
<path fill-rule="evenodd" clip-rule="evenodd" d="M370.924 545.348C370.924 545.348 342.8 626.45 307.207 603.549L357.985 542.573L370.924 545.348Z" fill="url(#paint6_linear_589_74110)"/>
<path fill-rule="evenodd" clip-rule="evenodd" d="M358.924 538.205C358.924 538.205 336.275 612.814 307.209 603.549C278.142 594.284 291.138 509.697 291.138 509.697C291.138 509.697 311.471 509.59 358.924 538.205Z" fill="url(#paint7_linear_589_74110)"/>
<path fill-rule="evenodd" clip-rule="evenodd" d="M529.716 178.377L487.155 165.522C487.155 165.522 464.787 135.076 415.053 122.478C415.053 122.478 468.793 133.239 529.716 178.377Z" fill="url(#paint8_linear_589_74110)"/>
<path fill-rule="evenodd" clip-rule="evenodd" d="M561.149 356.333C558.624 349.62 561.174 339.597 551.61 329.277C551.61 329.277 549.461 322.288 557.424 319.327C562.759 323.161 567.11 328.205 570.12 334.045C570.12 334.045 575.574 317.5 581.74 300.017C583.417 299.495 585.193 299.373 586.925 299.661C588.658 299.949 590.299 300.639 591.716 301.676L587.745 322.007L601.014 301.595C603.867 300.986 606.846 301.51 609.32 303.057C611.795 304.603 613.571 307.051 614.274 309.883L607.418 329.264L614.545 320.128C614.545 320.128 621.762 320.418 620.351 327.664L609.76 345.195C609.76 345.195 598.718 371.637 578.553 376.13C578.553 376.13 563.469 362.5 561.149 356.333Z" fill="url(#paint9_linear_589_74110)"/>
<path fill-rule="evenodd" clip-rule="evenodd" d="M455.861 359.939C455.861 359.939 483.763 214.975 475.944 169.505C475.944 169.505 461.418 138.216 415.055 122.478C415.055 122.478 460.741 132.341 487.156 165.522C483.55 231.244 473.06 296.405 455.861 359.939Z" fill="url(#paint10_radial_589_74110)"/>
<g style="mix-blend-mode:soft-light" opacity="0.5">
<path fill-rule="evenodd" clip-rule="evenodd" d="M372.79 119.392L322.794 285.307L258.844 271.59C258.844 271.59 290.045 174.333 311.346 131.538C330.482 122.391 351.614 118.213 372.79 119.392Z" fill="#D2BDE1"/>
</g>
<path style="mix-blend-mode:multiply" opacity="0.74" fill-rule="evenodd" clip-rule="evenodd" d="M360.286 569.536L351.053 562.617L288.685 534.612L291.137 509.697C313.822 521.362 332.715 527.371 357.986 542.573L370.924 545.348L360.286 569.536Z" fill="url(#paint11_linear_589_74110)"/>
<path fill-rule="evenodd" clip-rule="evenodd" d="M440.973 295.543C440.973 295.543 432.701 273.924 409.676 267.695L407.509 277.798C418.044 281.162 427.42 287.421 434.567 295.861L440.973 295.543Z" fill="url(#paint12_linear_589_74110)"/>
<path fill-rule="evenodd" clip-rule="evenodd" d="M286.971 291.599C298.822 291.28 310.482 288.531 321.228 283.521L319.061 293.624C309.688 296.338 299.841 297.002 290.189 295.57L286.971 291.599Z" fill="url(#paint13_linear_589_74110)"/>
<g style="mix-blend-mode:soft-light">
<path fill-rule="evenodd" clip-rule="evenodd" d="M487.154 165.522L486.196 183.513L461.609 143.297C474.022 149.385 487.154 165.522 487.154 165.522Z" fill="white"/>
</g>
<path fill-rule="evenodd" clip-rule="evenodd" d="M408.686 121.179C408.686 121.179 355.574 109.787 316.706 138.864C316.706 138.864 270.579 222.369 246.762 311.196C246.762 311.196 279.451 197.649 311.344 131.538C311.344 131.538 352.743 111.33 408.686 121.179Z" fill="url(#paint14_radial_589_74110)"/>
<g style="mix-blend-mode:soft-light" opacity="0.5">
<path fill-rule="evenodd" clip-rule="evenodd" d="M436.221 448.502L210.231 462.176L206.804 483.346C206.804 483.346 295.695 550.329 415.635 531.195C424.805 504.257 431.691 476.595 436.221 448.502Z" fill="#C2A9A9"/>
</g>
<path style="mix-blend-mode:multiply" opacity="0.5" fill-rule="evenodd" clip-rule="evenodd" d="M570.119 334.045C570.119 334.045 579.308 341.581 582.107 351.971C582.107 351.971 591.071 355.415 597.655 355.367C604.239 355.32 606.821 344.1 606.821 344.1C606.821 344.1 600.743 328.503 577.367 327.544L570.119 334.045Z" fill="url(#paint15_linear_589_74110)"/>
<path fill-rule="evenodd" clip-rule="evenodd" d="M480.881 477.385C480.881 477.385 467.623 469.556 452.542 488.273C437.462 506.99 423.499 501.415 420.108 496.172C416.717 490.929 418.525 485.626 415.563 480.579C412.602 475.533 383.451 491.75 327.884 497.893C272.315 504.035 263.237 485.746 256.854 482.657C250.471 479.568 250.775 498.755 237.37 496.54C223.965 494.325 232.915 479.672 229.462 475.492C226.01 471.311 206.805 483.346 206.805 483.346C206.805 483.346 254.364 521.25 334.433 539.073C414.502 556.895 466.024 542.003 466.024 542.003L480.881 477.385Z" fill="url(#paint16_radial_589_74110)"/>
<path style="mix-blend-mode:multiply" opacity="0.74" fill-rule="evenodd" clip-rule="evenodd" d="M423.836 499.419L415.638 531.195C415.638 531.195 319.84 555.507 206.807 483.346C206.807 483.346 248.528 520.64 340.833 540.439C433.139 560.238 466.026 542.003 466.026 542.003L480.883 477.385C480.883 477.385 470.365 470.372 459.232 481.436C448.098 492.499 440.585 501.59 423.836 499.419Z" fill="url(#paint17_linear_589_74110)"/>
<path style="mix-blend-mode:multiply" opacity="0.74" fill-rule="evenodd" clip-rule="evenodd" d="M480.193 477.237C480.193 477.237 467.262 474.033 456.981 487.525C446.7 501.016 440.043 512.603 427.575 510.234C415.106 507.865 416.38 484.681 411.947 482.595C407.514 480.51 354.958 505.691 316.639 506.905C278.321 508.119 260.666 485.587 256.292 485.513C251.918 485.439 249.322 498.641 241.246 499.521C232.104 500.517 227.036 495.6 226.49 490.624C225.945 485.649 230.263 479.553 227.764 477.17C225.264 474.787 206.805 483.346 206.805 483.346L207.406 480.544C207.406 480.544 224.373 469.67 230.385 473.217C236.398 476.764 227.739 487.808 234.313 490.992C240.887 494.176 247.75 485.489 252.762 478.662C257.774 471.835 268.875 491.782 292.588 493.298C340.058 496.333 409.534 469.284 417.052 471.327C424.569 473.369 414.977 491.524 432.751 494.369C443.546 496.096 460.721 463.815 480.193 477.237Z" fill="url(#paint18_linear_589_74110)"/>
<g style="mix-blend-mode:soft-light">
<path fill-rule="evenodd" clip-rule="evenodd" d="M314.734 492.857C314.734 492.857 294.882 495.313 281.558 491.146C268.234 486.979 262.652 480.793 262.652 480.793C262.652 480.793 267.896 484.041 284.782 488.773C294.513 491.591 304.604 492.967 314.734 492.857Z" fill="white"/>
</g>
<g style="mix-blend-mode:soft-light">
<path fill-rule="evenodd" clip-rule="evenodd" d="M344.277 488.496C344.277 488.496 327.576 484.282 323.873 491.873C323.873 491.873 339.524 489.467 344.277 488.496Z" fill="white"/>
</g>
<path style="mix-blend-mode:multiply" opacity="0.74" fill-rule="evenodd" clip-rule="evenodd" d="M466.024 542.003L415.636 531.195C415.636 531.195 383.966 542.169 315.937 528.871C247.909 515.572 206.805 483.346 206.805 483.346C206.805 483.346 254.056 520.868 328.989 537.917C424.456 559.638 466.024 542.003 466.024 542.003Z" fill="url(#paint19_linear_589_74110)"/>
<g style="mix-blend-mode:soft-light">
<path fill-rule="evenodd" clip-rule="evenodd" d="M456.427 479.105C456.427 479.105 444.576 491.85 436.293 493.891C436.293 493.891 441.962 480.52 456.427 479.105Z" fill="white"/>
</g>
<path fill-rule="evenodd" clip-rule="evenodd" d="M259.712 334.529C259.712 334.529 291.827 328.955 318.189 347.072L318.996 343.31C318.996 343.31 292.712 315.484 260.376 331.902L259.712 334.529Z" fill="url(#paint20_radial_589_74110)"/>
<path fill-rule="evenodd" clip-rule="evenodd" d="M367.087 357.56C367.087 357.56 399.202 351.987 425.564 370.103L426.371 366.341C426.371 366.341 400.087 338.515 367.751 354.933L367.087 357.56Z" fill="url(#paint21_radial_589_74110)"/>
<path fill-rule="evenodd" clip-rule="evenodd" d="M308.705 364.602C301.597 369.016 310.238 397.952 330.032 402.198C352.349 406.985 365.707 385.282 366.078 376.908C366.448 368.534 346.001 372.202 334.93 369.827C323.859 367.453 314.98 360.705 308.705 364.602Z" fill="url(#paint22_radial_589_74110)"/>
<path fill-rule="evenodd" clip-rule="evenodd" d="M306.383 373.389C309.547 377.474 313.311 379.707 318.498 382.124C314.677 381.807 310.959 380.723 307.566 378.937C306.997 377.129 306.6 375.272 306.383 373.389Z" fill="url(#paint23_radial_589_74110)"/>
<path fill-rule="evenodd" clip-rule="evenodd" d="M346.46 388.071C352.15 388.763 357.921 387.898 363.157 385.566C362.488 387.342 361.434 388.947 360.073 390.268C355.473 389.989 350.914 389.253 346.46 388.071Z" fill="url(#paint24_radial_589_74110)"/>
<path fill-rule="evenodd" clip-rule="evenodd" d="M310.048 385.031C310.048 385.031 315.291 403.537 328.937 407.235C342.584 410.934 357.921 392.798 357.921 392.798C357.921 392.798 343.83 406.799 330.032 402.197C321.502 399.1 314.396 392.996 310.048 385.031Z" fill="url(#paint25_radial_589_74110)"/>
<path fill-rule="evenodd" clip-rule="evenodd" d="M472.487 371.031C472.487 371.031 463.707 366.262 464.393 384.246C464.393 384.246 479.65 420.329 507.737 426.389C540.924 433.549 578.551 376.131 578.551 376.131L566.493 362.308C566.493 362.308 543.051 403.847 513.568 404.681C487.602 405.416 472.487 371.031 472.487 371.031Z" fill="url(#paint26_linear_589_74110)"/>
<path fill-rule="evenodd" clip-rule="evenodd" d="M173.47 162.127L189.06 142.609L156.02 135.377L122.655 129.84L129.894 153.748C129.894 153.748 102.762 208.843 102.821 232.987C102.88 257.13 129.462 273.491 129.462 273.491C129.462 273.491 160.216 268.156 169.226 245.756C178.234 223.356 173.47 162.127 173.47 162.127Z" fill="url(#paint27_radial_589_74110)"/>
<path fill-rule="evenodd" clip-rule="evenodd" d="M122.897 323.089L137.732 271.287L122.599 268.377L120.031 322.538L98.1179 325.185L97.3458 329.197L142.067 337.798L143.09 332.484L122.897 323.089Z" fill="url(#paint28_radial_589_74110)"/>
<path fill-rule="evenodd" clip-rule="evenodd" d="M107.957 226.085C107.957 226.085 104.065 258.696 131.299 263.933C153.087 268.122 172.222 244.367 170.873 210.763C170.873 210.763 164.085 218.659 145.153 221.261C126.221 223.864 107.957 226.085 107.957 226.085Z" fill="url(#paint29_linear_589_74110)"/>
<path fill-rule="evenodd" clip-rule="evenodd" d="M107.957 226.085C107.957 226.085 143.662 208.072 170.873 210.763C170.873 210.763 166.229 220.26 152.262 224.486C138.295 228.713 125.196 223.914 107.957 226.085Z" fill="#F64A13"/>
<g style="mix-blend-mode:soft-light">
<path fill-rule="evenodd" clip-rule="evenodd" d="M133.634 152.151C133.634 152.151 103.86 206.713 105.254 236.14L121.926 243.409C121.926 243.409 131.473 177.249 145.377 155.23L133.634 152.151Z" fill="white"/>
</g>
<g style="mix-blend-mode:soft-light">
<path fill-rule="evenodd" clip-rule="evenodd" d="M153.566 249.106C157.743 241.795 160.952 233.973 163.111 225.834L172.119 225.049C172.119 225.049 169.127 246.931 160.319 254.293L153.566 249.106Z" fill="white"/>
</g>
<path fill-rule="evenodd" clip-rule="evenodd" d="M146.394 311.793L147.982 290.713C147.982 290.713 129.752 282.609 123.523 273.262C123.523 273.262 116.706 277.346 118.028 284.937C118.028 284.937 123.485 294.589 130.285 296.961C129.078 299.917 128.516 303.097 128.638 306.288C128.76 309.479 129.563 312.607 130.992 315.462C132.229 316.286 133.621 316.847 135.084 317.109C136.546 317.37 138.047 317.328 139.493 316.983C140.938 316.639 142.297 316.001 143.484 315.108C144.672 314.215 145.662 313.086 146.394 311.793Z" fill="url(#paint30_linear_589_74110)"/>
<path fill-rule="evenodd" clip-rule="evenodd" d="M101.001 278.182C97.0727 281.239 96.8706 283.52 97.5125 287.391L100.927 291.854L99.0941 314.358L95.2692 315.421C94.4501 316.944 93.9841 318.631 93.9059 320.358C93.8276 322.086 94.1391 323.808 94.8172 325.399C100.98 327.273 107.528 327.492 113.803 326.035C114.746 322.502 114.823 318.794 114.029 315.225L120.221 314.758C120.221 314.758 124.178 306.644 120.805 291.922L118.097 290.808C118.097 290.808 123.719 284.986 120.49 278.54L101.001 278.182Z" fill="url(#paint31_linear_589_74110)"/>
<path style="mix-blend-mode:multiply" opacity="0.74" fill-rule="evenodd" clip-rule="evenodd" d="M100.926 291.855L118.095 290.808L99.2368 289.647L100.926 291.855Z" fill="url(#paint32_linear_589_74110)"/>
<path style="mix-blend-mode:multiply" opacity="0.74" fill-rule="evenodd" clip-rule="evenodd" d="M114.185 316.164L99.091 314.357L120.219 314.758L114.185 316.164Z" fill="url(#paint33_linear_589_74110)"/>
<path opacity="0.55" fill-rule="evenodd" clip-rule="evenodd" d="M263.137 382.494C237.857 379.912 229.888 357.492 229.169 335.517C228.48 315.276 233.947 295.399 237.598 291.614C243.693 285.36 285.63 290.435 308.179 298.698C314.68 301.049 319.574 303.704 321.555 306.413C330.443 318.504 311.698 387.479 263.137 382.494Z" fill="url(#paint34_radial_589_74110)"/>
<path opacity="0.55" fill-rule="evenodd" clip-rule="evenodd" d="M397.547 411.294C375.787 408.849 365.555 394.246 361.623 377.322C355.958 353.083 363.214 324.145 368.025 319.559C374.611 313.317 421.144 319.41 445.674 328.221C452.429 330.688 457.513 333.322 459.653 336.003C469.515 348.304 450.445 417.208 397.547 411.294Z" fill="url(#paint35_radial_589_74110)"/>
<path fill-rule="evenodd" clip-rule="evenodd" d="M461.5 340.191C461.5 340.191 505.54 361.078 510.288 367.721C515.036 374.364 511.735 388.557 511.735 388.557L507.063 387.555C507.063 387.555 511.038 376.215 507.031 370.915C503.023 365.615 493.261 367.962 493.261 367.962L461.535 353.876C461.535 353.876 463.352 344.391 461.5 340.191Z" fill="url(#paint36_linear_589_74110)"/>
<path fill-rule="evenodd" clip-rule="evenodd" d="M263.145 382.488C263.145 382.488 283.398 388.692 306.524 368.205C329.65 347.718 329.711 313.925 329.19 311.407C328.669 308.89 314.856 301.516 314.856 301.516C314.856 301.516 321.284 305.027 322.278 308.038C323.272 311.048 321.879 344.073 304.821 364.49C287.977 384.652 263.145 382.488 263.145 382.488Z" fill="url(#paint37_radial_589_74110)"/>
<path fill-rule="evenodd" clip-rule="evenodd" d="M397.558 411.319C397.558 411.319 417.811 417.523 440.936 397.036C464.061 376.548 464.355 341.594 463.834 339.076C463.313 336.558 450.68 330.234 450.68 330.234C450.68 330.234 456.701 332.911 457.695 335.921C458.689 338.932 455.805 372.507 439.233 393.321C420.894 416.355 397.558 411.319 397.558 411.319Z" fill="url(#paint38_radial_589_74110)"/>
<g style="mix-blend-mode:soft-light">
<path fill-rule="evenodd" clip-rule="evenodd" d="M308.179 298.698L229.169 335.517C228.48 315.276 233.947 295.399 237.598 291.614C243.693 285.36 285.63 290.435 308.179 298.698Z" fill="white"/>
</g>
<g style="mix-blend-mode:soft-light">
<path fill-rule="evenodd" clip-rule="evenodd" d="M445.674 328.221L361.623 377.322C355.958 353.083 363.214 324.145 368.025 319.559C374.611 313.317 421.144 319.41 445.674 328.221Z" fill="white"/>
</g>
<path fill-rule="evenodd" clip-rule="evenodd" d="M317.04 315.475C317.04 315.475 344.456 313.68 367.773 326.357L366.701 331.355C366.701 331.355 347.393 320.264 316.823 320.656L317.04 315.475Z" fill="url(#paint39_linear_589_74110)"/>
<path fill-rule="evenodd" clip-rule="evenodd" d="M135.753 215.799L155.504 51.5847L151.658 41.7827L118.022 9.73392L123.427 0.722395L156.001 37.8035L163.006 50.0276L141.832 214.66L135.753 215.799Z" fill="url(#paint40_radial_589_74110)"/>
<path fill-rule="evenodd" clip-rule="evenodd" d="M168.59 126.851L130.652 206.265L128.623 215.719L135.721 208.639L173.759 129.606L168.59 126.851Z" fill="url(#paint41_linear_589_74110)"/>
<path d="M215.016 158.742C231.464 142.086 226.174 110.191 203.199 87.5034C180.225 64.8154 148.266 59.9258 131.818 76.582C115.369 93.2382 120.66 125.133 143.634 147.821C166.609 170.509 198.568 175.399 215.016 158.742Z" fill="url(#paint42_radial_589_74110)"/>
<g style="mix-blend-mode:soft-light">
<path fill-rule="evenodd" clip-rule="evenodd" d="M126.922 123.457L185.953 104.968L131.818 76.5822C131.818 76.5822 114.619 90.4726 126.922 123.457Z" fill="white"/>
</g>
<g style="mix-blend-mode:soft-light">
<path fill-rule="evenodd" clip-rule="evenodd" d="M161.021 66.8397L185.952 104.968L131.818 76.5821C131.818 76.5821 141.224 65.525 161.021 66.8397Z" fill="#C2A9A9"/>
</g>
<g style="mix-blend-mode:multiply" opacity="0.74">
<path fill-rule="evenodd" clip-rule="evenodd" d="M211.387 161.877L185.953 104.968L223.588 132.257C224.176 137.819 223.368 143.44 221.237 148.612C219.107 153.783 215.721 158.343 211.387 161.877Z" fill="#D4A998"/>
</g>
<path fill-rule="evenodd" clip-rule="evenodd" d="M189.839 103.219C192.062 105.415 192.592 108.483 191.023 110.073C189.453 111.663 186.378 111.171 184.154 108.975C181.931 106.779 181.401 103.711 182.97 102.121C184.54 100.532 187.615 101.023 189.839 103.219Z" fill="url(#paint43_radial_589_74110)"/>
<defs>
<linearGradient id="paint0_linear_589_74110" x1="181.427" y1="366.204" x2="196.899" y2="294.091" gradientUnits="userSpaceOnUse">
<stop offset="0.00559" stop-color="#E4798B"/>
<stop offset="0.24664" stop-color="#ED877F"/>
<stop offset="0.7018" stop-color="#FA9C6D"/>
<stop offset="1" stop-color="#FFA466"/>
</linearGradient>
<linearGradient id="paint1_linear_589_74110" x1="223.739" y1="370.86" x2="238.303" y2="302.974" gradientUnits="userSpaceOnUse">
<stop stop-color="#CA528D"/>
<stop offset="1" stop-color="#B3757C"/>
</linearGradient>
<linearGradient id="paint2_linear_589_74110" x1="124.264" y1="328.099" x2="120.251" y2="282.085" gradientUnits="userSpaceOnUse">
<stop offset="0.00559" stop-color="#E4798B"/>
<stop offset="0.24664" stop-color="#ED877F"/>
<stop offset="0.7018" stop-color="#FA9C6D"/>
<stop offset="1" stop-color="#FFA466"/>
</linearGradient>
<linearGradient id="paint3_linear_589_74110" x1="508.875" y1="346.902" x2="437.875" y2="331.67" gradientUnits="userSpaceOnUse">
<stop stop-color="#1A1C64"/>
<stop offset="0.99441" stop-color="#640B92"/>
</linearGradient>
<radialGradient id="paint4_radial_589_74110" cx="0" cy="0" r="1" gradientUnits="userSpaceOnUse" gradientTransform="translate(363.026 221.132) rotate(12.6302) scale(218.073 218.073)">
<stop offset="0.00559" stop-color="#B600B1"/>
<stop offset="0.2165" stop-color="#B300B0"/>
<stop offset="0.38031" stop-color="#A900AE"/>
<stop offset="0.52828" stop-color="#9900AB"/>
<stop offset="0.66693" stop-color="#8100A5"/>
<stop offset="0.79908" stop-color="#63009F"/>
<stop offset="0.92454" stop-color="#3F0097"/>
<stop offset="1" stop-color="#250091"/>
</radialGradient>
<radialGradient id="paint5_radial_589_74110" cx="0" cy="0" r="1" gradientUnits="userSpaceOnUse" gradientTransform="translate(319.657 252.782) rotate(12.6302) scale(218.073 218.074)">
<stop offset="0.00559" stop-color="#D408C2"/>
<stop offset="0.20877" stop-color="#D108C2"/>
<stop offset="0.36663" stop-color="#C708C1"/>
<stop offset="0.50923" stop-color="#B707BF"/>
<stop offset="0.64282" stop-color="#9F07BD"/>
<stop offset="0.77015" stop-color="#8106BA"/>
<stop offset="0.89104" stop-color="#5D05B6"/>
<stop offset="1" stop-color="#3504B2"/>
</radialGradient>
<linearGradient id="paint6_linear_589_74110" x1="320.041" y1="610.87" x2="360.47" y2="539.432" gradientUnits="userSpaceOnUse">
<stop stop-color="#C9635C"/>
<stop offset="0.97069" stop-color="#C95B57"/>
<stop offset="0.99441" stop-color="#C95B57"/>
</linearGradient>
<linearGradient id="paint7_linear_589_74110" x1="288.522" y1="593.374" x2="329.326" y2="521.273" gradientUnits="userSpaceOnUse">
<stop stop-color="#FFA466"/>
<stop offset="0.2982" stop-color="#FA9C6D"/>
<stop offset="0.75336" stop-color="#ED877F"/>
<stop offset="0.99441" stop-color="#E4798B"/>
</linearGradient>
<linearGradient id="paint8_linear_589_74110" x1="469.175" y1="165.388" x2="475.595" y2="135.465" gradientUnits="userSpaceOnUse">
<stop stop-color="#E6179D"/>
<stop offset="0.21621" stop-color="#E91FA4"/>
<stop offset="0.54708" stop-color="#F134B7"/>
<stop offset="0.94954" stop-color="#FD57D7"/>
<stop offset="0.99441" stop-color="#FF5BDB"/>
</linearGradient>
<linearGradient id="paint9_linear_589_74110" x1="587.202" y1="375.877" x2="585.18" y2="299.482" gradientUnits="userSpaceOnUse">
<stop stop-color="#FFA466"/>
<stop offset="0.2982" stop-color="#FA9C6D"/>
<stop offset="0.75336" stop-color="#ED877F"/>
<stop offset="0.99441" stop-color="#E4798B"/>
</linearGradient>
<radialGradient id="paint10_radial_589_74110" cx="0" cy="0" r="1" gradientUnits="userSpaceOnUse" gradientTransform="translate(491.431 165.657) rotate(-167.891) scale(105.798 105.798)">
<stop offset="0.00559" stop-color="#F3008F"/>
<stop offset="0.27094" stop-color="#F00192"/>
<stop offset="0.47703" stop-color="#E6029A"/>
<stop offset="0.66313" stop-color="#D605A8"/>
<stop offset="0.83636" stop-color="#BF0ABB"/>
<stop offset="1" stop-color="#A10FD4"/>
</radialGradient>
<linearGradient id="paint11_linear_589_74110" x1="365.561" y1="560.215" x2="287.536" y2="516.059" gradientUnits="userSpaceOnUse">
<stop stop-color="#CA528D"/>
<stop offset="1" stop-color="#B3757C"/>
</linearGradient>
<linearGradient id="paint12_linear_589_74110" x1="442.967" y1="286.25" x2="407.335" y2="278.606" gradientUnits="userSpaceOnUse">
<stop offset="0.00559" stop-color="#430900"/>
<stop offset="0.37541" stop-color="#410803"/>
<stop offset="0.6625" stop-color="#39060D"/>
<stop offset="0.92102" stop-color="#2C021D"/>
<stop offset="1" stop-color="#270024"/>
</linearGradient>
<linearGradient id="paint13_linear_589_74110" x1="288.186" y1="285.75" x2="319.278" y2="292.421" gradientUnits="userSpaceOnUse">
<stop offset="0.00559" stop-color="#430900"/>
<stop offset="0.37541" stop-color="#410803"/>
<stop offset="0.6625" stop-color="#39060D"/>
<stop offset="0.92102" stop-color="#2C021D"/>
<stop offset="1" stop-color="#270024"/>
</linearGradient>
<radialGradient id="paint14_radial_589_74110" cx="0" cy="0" r="1" gradientUnits="userSpaceOnUse" gradientTransform="translate(393.942 144.345) rotate(-167.891) scale(109.766)">
<stop offset="0.00559" stop-color="#FF0B70"/>
<stop offset="0.26469" stop-color="#FF0B73"/>
<stop offset="0.46593" stop-color="#FF0D7D"/>
<stop offset="0.64769" stop-color="#FF0F8D"/>
<stop offset="0.81786" stop-color="#FF12A5"/>
<stop offset="0.9787" stop-color="#FF15C2"/>
<stop offset="1" stop-color="#FF16C7"/>
</radialGradient>
<linearGradient id="paint15_linear_589_74110" x1="588.863" y1="355.577" x2="588.113" y2="327.236" gradientUnits="userSpaceOnUse">
<stop stop-color="#CA528D"/>
<stop offset="1" stop-color="#B3757C"/>
</linearGradient>
<radialGradient id="paint16_radial_589_74110" cx="0" cy="0" r="1" gradientUnits="userSpaceOnUse" gradientTransform="translate(391.706 488.297) rotate(-167.891) scale(142.12 142.12)">
<stop offset="0.00559" stop-color="white"/>
<stop offset="0.19846" stop-color="#FDFCFC"/>
<stop offset="0.36286" stop-color="#F6F1F3"/>
<stop offset="0.51677" stop-color="#ECE0E5"/>
<stop offset="0.66431" stop-color="#DCC7D0"/>
<stop offset="0.80617" stop-color="#C9A7B6"/>
<stop offset="0.81844" stop-color="#C7A4B3"/>
<stop offset="0.86286" stop-color="#CEA4B4"/>
<stop offset="0.9271" stop-color="#E1A3B8"/>
<stop offset="1" stop-color="#FFA2BD"/>
</radialGradient>
<linearGradient id="paint17_linear_589_74110" x1="471.419" y1="521.497" x2="210.626" y2="465.546" gradientUnits="userSpaceOnUse">
<stop stop-color="#CA528D"/>
<stop offset="1" stop-color="#DDC2C5"/>
</linearGradient>
<linearGradient id="paint18_linear_589_74110" x1="472.7" y1="512.163" x2="212.595" y2="456.359" gradientUnits="userSpaceOnUse">
<stop stop-color="#CA528D"/>
<stop offset="1" stop-color="#B3757C"/>
</linearGradient>
<linearGradient id="paint19_linear_589_74110" x1="463.736" y1="552.668" x2="203.892" y2="496.921" gradientUnits="userSpaceOnUse">
<stop stop-color="#CA528D"/>
<stop offset="1" stop-color="#DDC2C5"/>
</linearGradient>
<radialGradient id="paint20_radial_589_74110" cx="0" cy="0" r="1" gradientUnits="userSpaceOnUse" gradientTransform="translate(290.268 334.316) rotate(12.1088) scale(21.6499 21.6499)">
<stop offset="0.00559" stop-color="#3B1400"/>
<stop offset="0.37541" stop-color="#391203"/>
<stop offset="0.6625" stop-color="#340D0D"/>
<stop offset="0.92102" stop-color="#2B041D"/>
<stop offset="1" stop-color="#270024"/>
</radialGradient>
<radialGradient id="paint21_radial_589_74110" cx="0" cy="0" r="1" gradientUnits="userSpaceOnUse" gradientTransform="translate(397.638 357.346) rotate(12.1088) scale(21.6499 21.6499)">
<stop offset="0.00559" stop-color="#3B1400"/>
<stop offset="0.37541" stop-color="#391203"/>
<stop offset="0.6625" stop-color="#340D0D"/>
<stop offset="0.92102" stop-color="#2B041D"/>
<stop offset="1" stop-color="#270024"/>
</radialGradient>
<radialGradient id="paint22_radial_589_74110" cx="0" cy="0" r="1" gradientUnits="userSpaceOnUse" gradientTransform="translate(333.8 384.563) rotate(12.1091) scale(24.4616 25.8689)">
<stop offset="0.00559" stop-color="white"/>
<stop offset="0.24154" stop-color="#FDFCFC"/>
<stop offset="0.44266" stop-color="#F6F1F3"/>
<stop offset="0.63096" stop-color="#ECE0E5"/>
<stop offset="0.81145" stop-color="#DCC7D0"/>
<stop offset="0.985" stop-color="#C9A7B6"/>
<stop offset="1" stop-color="#C7A4B3"/>
</radialGradient>
<radialGradient id="paint23_radial_589_74110" cx="0" cy="0" r="1" gradientUnits="userSpaceOnUse" gradientTransform="translate(312.355 377.807) rotate(12.1088) scale(5.31098 5.31102)">
<stop offset="0.00559" stop-color="#3B1400"/>
<stop offset="0.37541" stop-color="#391203"/>
<stop offset="0.6625" stop-color="#340D0D"/>
<stop offset="0.92102" stop-color="#2B041D"/>
<stop offset="1" stop-color="#270024"/>
</radialGradient>
<radialGradient id="paint24_radial_589_74110" cx="0" cy="0" r="1" gradientUnits="userSpaceOnUse" gradientTransform="translate(354.738 386.789) rotate(12.1088) scale(5.97523 5.97525)">
<stop offset="0.00559" stop-color="#3B1400"/>
<stop offset="0.37541" stop-color="#391203"/>
<stop offset="0.6625" stop-color="#340D0D"/>
<stop offset="0.92102" stop-color="#2B041D"/>
<stop offset="1" stop-color="#270024"/>
</radialGradient>
<radialGradient id="paint25_radial_589_74110" cx="0" cy="0" r="1" gradientUnits="userSpaceOnUse" gradientTransform="translate(332.056 397.546) rotate(12.1088) scale(18.556 18.556)">
<stop offset="0.00559" stop-color="#95452C"/>
<stop offset="0.36" stop-color="#92422D"/>
<stop offset="0.63521" stop-color="#883A30"/>
<stop offset="0.88299" stop-color="#782B34"/>
<stop offset="1" stop-color="#6D2237"/>
</radialGradient>
<linearGradient id="paint26_linear_589_74110" x1="510.745" y1="426.994" x2="526.473" y2="353.685" gradientUnits="userSpaceOnUse">
<stop offset="0.00559" stop-color="#E4798B"/>
<stop offset="0.24664" stop-color="#ED877F"/>
<stop offset="0.7018" stop-color="#FA9C6D"/>
<stop offset="1" stop-color="#FFA466"/>
</linearGradient>
<radialGradient id="paint27_radial_589_74110" cx="0" cy="0" r="1" gradientUnits="userSpaceOnUse" gradientTransform="translate(142.657 204.367) rotate(10.8883) scale(55.4264 55.4264)">
<stop offset="0.00559" stop-color="#E0E6FF"/>
<stop offset="0.26088" stop-color="#DFE3FC"/>
<stop offset="0.47839" stop-color="#DBDAF1"/>
<stop offset="0.68207" stop-color="#D6CBE0"/>
<stop offset="0.87621" stop-color="#CEB5C7"/>
<stop offset="1" stop-color="#C7A4B3"/>
</radialGradient>
<radialGradient id="paint28_radial_589_74110" cx="0" cy="0" r="1" gradientUnits="userSpaceOnUse" gradientTransform="translate(125.713 301.758) rotate(10.8883) scale(27.9129 27.913)">
<stop offset="0.00559" stop-color="#E0E6FF"/>
<stop offset="0.26088" stop-color="#DFE3FC"/>
<stop offset="0.47839" stop-color="#DBDAF1"/>
<stop offset="0.68207" stop-color="#D6CBE0"/>
<stop offset="0.87621" stop-color="#CEB5C7"/>
<stop offset="1" stop-color="#C7A4B3"/>
</radialGradient>
<linearGradient id="paint29_linear_589_74110" x1="131.625" y1="263.941" x2="142.899" y2="205.331" gradientUnits="userSpaceOnUse">
<stop offset="0.00559" stop-color="#CE2E13"/>
<stop offset="0.36363" stop-color="#CB2E15"/>
<stop offset="0.64164" stop-color="#C1301C"/>
<stop offset="0.89194" stop-color="#B13227"/>
<stop offset="1" stop-color="#A7332D"/>
</linearGradient>
<linearGradient id="paint30_linear_589_74110" x1="135.571" y1="317.495" x2="131.652" y2="272.554" gradientUnits="userSpaceOnUse">
<stop stop-color="#FFA466"/>
<stop offset="0.2982" stop-color="#FA9C6D"/>
<stop offset="0.75336" stop-color="#ED877F"/>
<stop offset="0.99441" stop-color="#E4798B"/>
</linearGradient>
<linearGradient id="paint31_linear_589_74110" x1="94.0268" y1="299.123" x2="122.703" y2="305.273" gradientUnits="userSpaceOnUse">
<stop offset="0.00559" stop-color="#E4798B"/>
<stop offset="0.24664" stop-color="#ED877F"/>
<stop offset="0.7018" stop-color="#FA9C6D"/>
<stop offset="1" stop-color="#FFA466"/>
</linearGradient>
<linearGradient id="paint32_linear_589_74110" x1="108.787" y1="291.619" x2="108.545" y2="288.836" gradientUnits="userSpaceOnUse">
<stop stop-color="#CA528D"/>
<stop offset="1" stop-color="#B3757C"/>
</linearGradient>
<linearGradient id="paint33_linear_589_74110" x1="109.828" y1="316.543" x2="109.558" y2="313.445" gradientUnits="userSpaceOnUse">
<stop stop-color="#CA528D"/>
<stop offset="1" stop-color="#B3757C"/>
</linearGradient>
<radialGradient id="paint34_radial_589_74110" cx="0" cy="0" r="1" gradientUnits="userSpaceOnUse" gradientTransform="translate(276.693 314.421) rotate(12.1088) scale(62.0402 62.0401)">
<stop offset="0.00559" stop-color="#FFD700"/>
<stop offset="0.19978" stop-color="#FED400"/>
<stop offset="0.36531" stop-color="#FBC900"/>
<stop offset="0.52029" stop-color="#F6B800"/>
<stop offset="0.66884" stop-color="#EF9F00"/>
<stop offset="0.81167" stop-color="#E67F00"/>
<stop offset="0.82402" stop-color="#E57C00"/>
<stop offset="0.85328" stop-color="#E27504"/>
<stop offset="0.8956" stop-color="#DA620E"/>
<stop offset="0.94564" stop-color="#CE431F"/>
<stop offset="0.95895" stop-color="#CA3924"/>
</radialGradient>
<radialGradient id="paint35_radial_589_74110" cx="0" cy="0" r="1" gradientUnits="userSpaceOnUse" gradientTransform="translate(410.991 343.185) rotate(12.1088) scale(63.9008 63.9009)">
<stop offset="0.00559" stop-color="#FFD700"/>
<stop offset="0.19978" stop-color="#FED400"/>
<stop offset="0.36531" stop-color="#FBC900"/>
<stop offset="0.52029" stop-color="#F6B800"/>
<stop offset="0.66884" stop-color="#EF9F00"/>
<stop offset="0.81167" stop-color="#E67F00"/>
<stop offset="0.82402" stop-color="#E57C00"/>
<stop offset="0.85328" stop-color="#E27504"/>
<stop offset="0.8956" stop-color="#DA620E"/>
<stop offset="0.94564" stop-color="#CE431F"/>
<stop offset="0.95895" stop-color="#CA3924"/>
</radialGradient>
<linearGradient id="paint36_linear_589_74110" x1="457.576" y1="358.106" x2="515.519" y2="370.537" gradientUnits="userSpaceOnUse">
<stop offset="0.03373" stop-color="#DFCCDC"/>
<stop offset="0.27182" stop-color="#9680B7"/>
<stop offset="1" stop-color="#CFCFCF"/>
</linearGradient>
<radialGradient id="paint37_radial_589_74110" cx="0" cy="0" r="1" gradientUnits="userSpaceOnUse" gradientTransform="translate(302.077 321.782) rotate(12.1088) scale(53.4275 53.4276)">
<stop offset="0.00559" stop-color="#FFD700"/>
<stop offset="0.19978" stop-color="#FED400"/>
<stop offset="0.36531" stop-color="#FBC900"/>
<stop offset="0.52029" stop-color="#F6B800"/>
<stop offset="0.66884" stop-color="#EF9F00"/>
<stop offset="0.81167" stop-color="#E67F00"/>
<stop offset="0.82402" stop-color="#E57C00"/>
<stop offset="0.85328" stop-color="#E27504"/>
<stop offset="0.8956" stop-color="#DA620E"/>
<stop offset="0.94564" stop-color="#CE431F"/>
<stop offset="0.95895" stop-color="#CA3924"/>
</radialGradient>
<radialGradient id="paint38_radial_589_74110" cx="0" cy="0" r="1" gradientUnits="userSpaceOnUse" gradientTransform="translate(436.543 350.312) rotate(12.1088) scale(53.6356 53.6356)">
<stop offset="0.00559" stop-color="#FFD700"/>
<stop offset="0.19978" stop-color="#FED400"/>
<stop offset="0.36531" stop-color="#FBC900"/>
<stop offset="0.52029" stop-color="#F6B800"/>
<stop offset="0.66884" stop-color="#EF9F00"/>
<stop offset="0.81167" stop-color="#E67F00"/>
<stop offset="0.82402" stop-color="#E57C00"/>
<stop offset="0.85328" stop-color="#E27504"/>
<stop offset="0.8956" stop-color="#DA620E"/>
<stop offset="0.94564" stop-color="#CE431F"/>
<stop offset="0.95895" stop-color="#CA3924"/>
</radialGradient>
<linearGradient id="paint39_linear_589_74110" x1="316.79" y1="316.292" x2="367.521" y2="327.176" gradientUnits="userSpaceOnUse">
<stop offset="0.03373" stop-color="#DFCCDC"/>
<stop offset="0.27182" stop-color="#9680B7"/>
<stop offset="1" stop-color="#CFCFCF"/>
</linearGradient>
<radialGradient id="paint40_radial_589_74110" cx="0" cy="0" r="1" gradientUnits="userSpaceOnUse" gradientTransform="translate(126.465 70.6322) rotate(12.1088) scale(108.858 108.858)">
<stop offset="0.00559" stop-color="#DBE0FF"/>
<stop offset="0.26088" stop-color="#DADDFC"/>
<stop offset="0.47839" stop-color="#D7D5F1"/>
<stop offset="0.68207" stop-color="#D3C7E0"/>
<stop offset="0.87621" stop-color="#CCB4C7"/>
<stop offset="1" stop-color="#C7A4B3"/>
</radialGradient>
<linearGradient id="paint41_linear_589_74110" x1="138.559" y1="169.097" x2="164.045" y2="174.565" gradientUnits="userSpaceOnUse">
<stop stop-color="#934A38"/>
<stop offset="0.25413" stop-color="#9B4C3C"/>
<stop offset="0.64194" stop-color="#B05349"/>
<stop offset="0.99441" stop-color="#C95B57"/>
</linearGradient>
<radialGradient id="paint42_radial_589_74110" cx="0" cy="0" r="1" gradientUnits="userSpaceOnUse" gradientTransform="translate(187.594 96.78) rotate(-45.3596) scale(51.0591 51.0591)">
<stop offset="0.00559" stop-color="#FFD700"/>
<stop offset="0.258" stop-color="#FCD500"/>
<stop offset="0.47307" stop-color="#F1CE00"/>
<stop offset="0.67448" stop-color="#E0C200"/>
<stop offset="0.86637" stop-color="#C7B100"/>
<stop offset="1" stop-color="#B1A200"/>
</radialGradient>
<radialGradient id="paint43_radial_589_74110" cx="0" cy="0" r="1" gradientUnits="userSpaceOnUse" gradientTransform="translate(186.997 106.097) rotate(-45.3594) scale(4.91841 4.91842)">
<stop offset="0.00559" stop-color="#842A2C"/>
<stop offset="0.31732" stop-color="#81282D"/>
<stop offset="0.55934" stop-color="#77232F"/>
<stop offset="0.77792" stop-color="#671B32"/>
<stop offset="0.98156" stop-color="#4F0E37"/>
<stop offset="1" stop-color="#4D0D37"/>
</radialGradient>
</defs>
</svg>
