<svg width="798" height="495" viewBox="0 0 798 495" fill="none" xmlns="http://www.w3.org/2000/svg">
<g clip-path="url(#clip0_590_104227)">
<g filter="url(#filter0_b_590_104227)">
<path d="M0 87.1104L656.879 23L673.722 195.574L37.8152 332.128L0 87.1104Z" fill="#6600A5" fill-opacity="0.5"/>
</g>
<g filter="url(#filter1_f_590_104227)">
<path d="M79.6406 173.875C146.752 160.815 165.081 209.105 146.569 229.376C129.582 247.97 89.9248 251.308 89.9248 251.308L79.6406 173.875ZM110.956 216.08C117.013 214.94 130.318 211.701 128.525 205.742C126.825 199.658 113.546 198.666 107.851 198.527L110.956 216.08Z" fill="#5800BC"/>
<path d="M218.813 181.718C219.917 189.004 218.954 196.604 214.264 203.1L228.594 216.171L208.638 234.993L193.511 215.923C191.26 216.487 189.009 217.05 186.507 217.429L188.386 229.828L162.129 235.697L148.924 158.817C148.924 158.817 212.404 139.41 218.813 181.718ZM196.586 184.083C196.25 177.459 184.729 176.312 179.291 177.136L182.125 195.842C186.528 194.063 196.922 190.708 196.586 184.083Z" fill="#5800BC"/>
<path d="M288.516 168.043L247.055 173.434L247.573 177.583L270.445 174.341L271.885 191.923L249.734 194.055L250.687 201.81L293.103 195.384L297.854 220.142L232.546 227.477L223.933 154.463L286.173 143.032L288.516 168.043Z" fill="#5800BC"/>
<path d="M309.156 142.109L340.136 133.633L374.99 204.34L345.401 211.715L340.929 199.821L324.73 203.054L323.54 215.027L297.576 213.286L309.156 142.109ZM326.424 186.331L335.076 184.687L328.392 167.008L326.424 186.331Z" fill="#5800BC"/>
<path d="M419.351 123.079L451.29 115.793L468.449 189.403L438.764 194.679L432.447 163.261L429.444 185.299L412.583 189.3L404.341 169.41L406.245 199.605L375.948 205.975L369.177 128.232L402.892 123.125L415.55 153.805L419.351 123.079Z" fill="#5800BC"/>
<path d="M504.543 109.172L532.82 104.888L546.35 181.718L514.188 184.588L504.543 109.172Z" fill="#5800BC"/>
<path d="M604.444 95.2612L608.982 118.605L589.161 122.164L598.065 174.329L567.102 175.57L560.907 127.334L540.978 130.91L537.87 103.789L604.444 95.2612Z" fill="#5800BC"/>
</g>
<path d="M79.6406 173.875C146.752 160.815 165.081 209.105 146.569 229.376C129.582 247.97 89.9248 251.308 89.9248 251.308L79.6406 173.875ZM110.956 216.08C117.013 214.94 130.318 211.701 128.525 205.742C126.825 199.658 113.546 198.666 107.851 198.527L110.956 216.08Z" fill="#5800BC"/>
<path d="M218.813 181.718C219.917 189.004 218.954 196.604 214.264 203.1L228.594 216.171L208.638 234.993L193.511 215.923C191.26 216.487 189.009 217.05 186.507 217.429L188.386 229.828L162.129 235.697L148.924 158.817C148.924 158.817 212.404 139.41 218.813 181.718ZM196.586 184.083C196.25 177.459 184.729 176.312 179.291 177.136L182.125 195.842C186.528 194.063 196.922 190.708 196.586 184.083Z" fill="#5800BC"/>
<path d="M288.516 168.043L247.055 173.434L247.573 177.583L270.445 174.341L271.885 191.923L249.734 194.055L250.687 201.81L293.103 195.384L297.854 220.142L232.546 227.477L223.933 154.463L286.173 143.032L288.516 168.043Z" fill="#5800BC"/>
<path d="M309.156 142.109L340.136 133.633L374.99 204.34L345.401 211.715L340.929 199.821L324.73 203.054L323.54 215.027L297.576 213.286L309.156 142.109ZM326.424 186.331L335.076 184.687L328.392 167.008L326.424 186.331Z" fill="#5800BC"/>
<path d="M419.351 123.079L451.29 115.793L468.449 189.403L438.764 194.679L432.447 163.261L429.444 185.299L412.583 189.3L404.341 169.41L406.245 199.605L375.948 205.975L369.177 128.232L402.892 123.125L415.55 153.805L419.351 123.079Z" fill="#5800BC"/>
<path d="M504.543 109.172L532.82 104.888L546.35 181.718L514.188 184.588L504.543 109.172Z" fill="#5800BC"/>
<path d="M604.444 95.2612L608.982 118.605L589.161 122.164L598.065 174.329L567.102 175.57L560.907 127.334L540.978 130.91L537.87 103.789L604.444 95.2612Z" fill="#5800BC"/>
<path d="M73.6406 167.875C140.752 154.815 159.081 203.105 140.569 223.376C123.582 241.97 83.9248 245.308 83.9248 245.308L73.6406 167.875ZM104.956 210.08C111.013 208.94 124.318 205.701 122.525 199.742C120.825 193.658 107.546 192.666 101.851 192.527L104.956 210.08Z" fill="white"/>
<path d="M212.813 175.718C213.917 183.004 212.954 190.604 208.264 197.1L222.594 210.171L202.638 228.993L187.511 209.923C185.26 210.487 183.009 211.05 180.507 211.429L182.386 223.828L156.129 229.697L142.924 152.817C142.924 152.817 206.404 133.41 212.813 175.718ZM190.586 178.083C190.25 171.459 178.729 170.312 173.291 171.136L176.125 189.842C180.528 188.063 190.922 184.708 190.586 178.083Z" fill="white"/>
<path d="M282.516 162.043L241.055 167.434L241.573 171.583L264.445 168.341L265.885 185.923L243.734 188.055L244.687 195.81L287.103 189.384L291.854 214.142L226.546 221.477L217.933 148.463L280.173 137.032L282.516 162.043Z" fill="white"/>
<path d="M303.156 136.109L334.136 127.633L368.99 198.34L339.401 205.715L334.929 193.821L318.73 197.054L317.54 209.027L291.576 207.286L303.156 136.109ZM320.424 180.331L329.076 178.687L322.392 161.008L320.424 180.331Z" fill="white"/>
<path d="M413.351 117.079L445.29 109.793L462.449 183.403L432.764 188.679L426.447 157.261L423.444 179.299L406.583 183.3L398.341 163.41L400.245 193.605L369.948 199.975L363.177 122.232L396.892 117.125L409.55 147.805L413.351 117.079Z" fill="white"/>
<path d="M498.543 103.172L526.82 98.8879L540.35 175.718L508.188 178.588L498.543 103.172Z" fill="white"/>
<path d="M598.444 89.2612L602.982 112.605L583.161 116.164L592.065 168.329L561.102 169.57L554.907 121.334L534.978 124.91L531.87 97.789L598.444 89.2612Z" fill="white"/>
<g filter="url(#filter2_b_590_104227)">
<path fill-rule="evenodd" clip-rule="evenodd" d="M177.16 342.65L193.439 298.709L449.31 243.764L797.933 323.626L740.012 495H627.919L177.16 342.65Z" fill="#0047FF" fill-opacity="0.6"/>
</g>
<g filter="url(#filter3_f_590_104227)">
<path d="M374.142 273.167L401.606 281.147L381.64 356.562L351.242 345.667L374.142 273.167Z" fill="#00376B"/>
<path d="M428.715 345.498C439.595 348.659 448.611 336.158 448.611 336.158L466.108 356.363C459.291 363.661 444.39 374.337 422.208 367.891C400.025 361.446 389.909 339.491 395.711 319.527C401.512 299.563 421.893 286.584 443.969 292.999C466.046 299.414 469.122 321.156 469.122 321.156L444.231 325.607C444.231 325.607 442.216 316.774 434.716 314.595C428.061 312.661 421.657 318.933 419.794 326.525C417.901 334.222 420.053 342.981 428.715 345.498Z" fill="#00376B"/>
<path d="M537.195 347.465L497.301 334.957L496.029 338.94L518.15 345.597L512.077 362.16L491.077 354.798L488.687 362.237L529.883 374.207L523.805 398.673L461.449 377.919L484.276 308.033L545.567 323.78L537.195 347.465Z" fill="#00376B"/>
<path d="M591.799 336.413L619.263 344.393L599.297 419.807L568.9 408.912L591.799 336.413Z" fill="#00376B"/>
<path d="M688.314 365.717L682.635 388.81L663.151 383.721L649.338 434.806L620.713 422.937L635.335 376.555L615.746 371.435L624.309 345.515L688.314 365.717Z" fill="#00376B"/>
</g>
<path d="M374.142 273.167L401.606 281.147L381.64 356.561L351.242 345.667L374.142 273.167Z" fill="#00376B"/>
<path d="M428.715 345.497C439.595 348.658 448.611 336.158 448.611 336.158L466.108 356.363C459.291 363.66 444.39 374.336 422.208 367.891C400.025 361.445 389.909 339.491 395.711 319.526C401.512 299.562 421.893 286.584 443.969 292.998C466.046 299.413 469.122 321.155 469.122 321.155L444.231 325.607C444.231 325.607 442.216 316.773 434.716 314.594C428.061 312.661 421.657 318.933 419.794 326.524C417.901 334.222 420.053 342.98 428.715 345.497Z" fill="#00376B"/>
<path d="M537.195 347.465L497.301 334.956L496.029 338.939L518.15 345.596L512.077 362.16L491.077 354.798L488.687 362.236L529.883 374.207L523.805 398.672L461.449 377.919L484.276 308.032L545.567 323.78L537.195 347.465Z" fill="#00376B"/>
<path d="M591.799 336.412L619.263 344.392L599.297 419.807L568.9 408.912L591.799 336.412Z" fill="#00376B"/>
<path d="M688.314 365.717L682.635 388.809L663.151 383.72L649.338 434.805L620.713 422.936L635.335 376.554L615.746 371.435L624.309 345.515L688.314 365.717Z" fill="#00376B"/>
<path d="M368.048 267.259L395.512 275.24L375.546 350.654L345.149 339.759L368.048 267.259Z" fill="white"/>
<path d="M422.621 339.59C433.501 342.751 442.517 330.251 442.517 330.251L460.014 350.455C453.197 357.753 438.296 368.429 416.114 361.984C393.931 355.538 383.816 333.583 389.617 313.619C395.418 293.655 415.799 280.676 437.876 287.091C459.953 293.506 463.028 315.248 463.028 315.248L438.137 319.699C438.137 319.699 436.122 310.866 428.622 308.687C421.967 306.753 415.563 313.025 413.701 320.617C411.808 328.315 413.959 337.073 422.621 339.59Z" fill="white"/>
<path d="M531.101 341.558L491.207 329.049L489.935 333.032L512.056 339.689L505.983 356.252L484.984 348.89L482.593 356.329L523.789 368.299L517.711 392.765L455.355 372.012L478.182 302.125L539.473 317.873L531.101 341.558Z" fill="white"/>
<path d="M585.706 330.505L613.17 338.485L593.204 413.899L562.806 403.005L585.706 330.505Z" fill="white"/>
<path d="M682.22 359.809L676.541 382.902L657.057 377.813L643.244 428.898L614.619 417.029L629.242 370.647L609.652 365.528L618.215 339.608L682.22 359.809Z" fill="white"/>
<g filter="url(#filter4_d_590_104227)">
<rect x="116" y="40.8594" width="420.515" height="60" rx="30" transform="rotate(-5.57593 116 40.8594)" fill="#FDF301"/>
</g>
<g filter="url(#filter5_i_590_104227)">
<path d="M180.771 69.817C184.052 69.4994 185.142 65.1502 185.142 65.1502L192.046 68.7255C190.99 71.4318 188.113 75.9219 181.425 76.5695C174.736 77.217 169.638 72.3737 169.055 66.3539C168.472 60.334 172.582 54.6315 179.239 53.987C185.895 53.3426 189.068 58.8866 189.068 58.8866L182.822 62.7706C182.822 62.7706 181.326 60.6007 179.064 60.8196C177.057 61.0139 176.002 63.3987 176.317 65.6508C176.634 67.9349 178.159 70.0699 180.771 69.817Z" fill="#D3A500"/>
<path d="M201.73 51.5203C207.973 50.916 213.492 55.4613 214.097 61.7041C214.701 67.9469 210.156 73.4666 203.913 74.0709C197.67 74.6753 192.15 70.13 191.546 63.8872C190.942 57.6444 195.487 52.1247 201.73 51.5203ZM204.475 61.2852C204.927 59.3125 203.908 57.4179 202.196 57.0049C200.488 56.6238 198.748 57.9174 198.325 59.8552C197.873 61.8279 198.927 63.7513 200.604 64.1355C202.316 64.5485 204.055 63.2549 204.475 61.2852Z" fill="#D3A500"/>
<path d="M229.723 49.5177L239.115 47.9011L242.947 69.5526L234.242 70.6205L232.898 61.395L231.681 67.7498L226.72 68.648L224.638 62.7412L224.718 71.5424L215.817 72.9185L215.067 50.2291L224.941 49.2733L228.138 58.3836L229.723 49.5177Z" fill="#D3A500"/>
<path d="M257.779 46.8016L267.171 45.1851L271.003 66.8366L262.298 67.9044L260.955 58.6789L259.737 65.0337L254.777 65.9319L252.694 60.0251L252.774 68.8263L243.874 70.2024L243.124 47.5131L252.998 46.5572L256.194 55.6676L257.779 46.8016Z" fill="#D3A500"/>
<path d="M280.921 44.079L289.276 43.0451C289.276 43.0451 295.44 65.2103 281.744 66.5362C268.049 67.8621 270.197 44.8921 270.197 44.8921L278.833 44.7634C278.833 44.7634 278.42 59.4314 281.032 59.1786C283.612 58.9288 280.921 44.079 280.921 44.079Z" fill="#D3A500"/>
<path d="M305.039 49.1065L304.366 42.163L313.417 40.6759L314.38 63.5697L306.565 63.8762L302.538 55.4891L303.512 63.5608L293.973 65.3202L290.951 43.3974L299.53 42.0203L305.039 49.1065Z" fill="#D3A500"/>
<path d="M315.186 40.9548L323.468 40.1531L326.195 62.6831L316.807 63.0132L315.186 40.9548Z" fill="#D3A500"/>
<path d="M344.424 38.4779L345.377 45.33L339.564 46.0535L341.333 61.3462L332.32 61.2221L331.275 47.1131L325.43 47.8397L324.952 39.9129L344.424 38.4779Z" fill="#D3A500"/>
<path d="M356.107 43.5839L359.068 35.6457L366.881 36.9791L360.466 48.756L361.422 58.6298L353.542 59.2641L352.917 49.4868L344.351 39.7067L351.456 36.3826L356.107 43.5839Z" fill="#D3A500"/>
<path d="M398.235 33.2686L399.188 40.1207L393.375 40.8442L395.144 56.1368L386.13 56.0128L385.086 41.9038L379.241 42.6304L378.763 34.7036L398.235 33.2686Z" fill="#D3A500"/>
<path d="M409.819 31.3755C416.062 30.7712 421.582 35.3165 422.186 41.5593C422.791 47.8021 418.245 53.3218 412.003 53.9261C405.76 54.5305 400.24 49.9852 399.636 43.7424C399.031 37.4996 403.577 31.9799 409.819 31.3755ZM412.565 41.1404C413.017 39.1677 411.998 37.2731 410.286 36.8601C408.577 36.479 406.838 37.7726 406.415 39.7104C405.963 41.6831 407.017 43.6065 408.694 43.9907C410.406 44.4037 412.145 43.1101 412.565 41.1404Z" fill="#D3A500"/>
<path d="M442.324 33.4692L434.6 40.3575L444.152 44.7054L439.355 51.2782L433.275 47.5909L433.972 51.7993L424.41 52.6606L422.286 30.7152L430.324 29.3906L431.207 34.8669L435.388 28.9003L442.324 33.4692Z" fill="#D3A500"/>
<path d="M462.432 34.2553L450.304 35.1722L450.389 36.3857L457.084 35.8018L457.227 40.9319L450.759 41.2044L450.914 43.472L463.336 42.2695L464.329 49.5356L445.243 50.6439L443.884 29.2995L462.143 26.9532L462.432 34.2553Z" fill="#D3A500"/>
<path d="M477.296 32.4306L476.624 25.487L485.674 24L486.637 46.8938L478.822 47.2002L474.795 38.8132L475.77 46.8849L466.231 48.6442L463.208 26.7215L471.787 25.3444L477.296 32.4306Z" fill="#D3A500"/>
</g>
</g>
<defs>
<filter id="filter0_b_590_104227" x="-8" y="15" width="689.723" height="325.128" filterUnits="userSpaceOnUse" color-interpolation-filters="sRGB">
<feFlood flood-opacity="0" result="BackgroundImageFix"/>
<feGaussianBlur in="BackgroundImageFix" stdDeviation="4"/>
<feComposite in2="SourceAlpha" operator="in" result="effect1_backgroundBlur_590_104227"/>
<feBlend mode="normal" in="SourceGraphic" in2="effect1_backgroundBlur_590_104227" result="shape"/>
</filter>
<filter id="filter1_f_590_104227" x="63.6406" y="79.2612" width="561.34" height="188.046" filterUnits="userSpaceOnUse" color-interpolation-filters="sRGB">
<feFlood flood-opacity="0" result="BackgroundImageFix"/>
<feBlend mode="normal" in="SourceGraphic" in2="BackgroundImageFix" result="shape"/>
<feGaussianBlur stdDeviation="8" result="effect1_foregroundBlur_590_104227"/>
</filter>
<filter id="filter2_b_590_104227" x="169.16" y="235.764" width="636.773" height="267.236" filterUnits="userSpaceOnUse" color-interpolation-filters="sRGB">
<feFlood flood-opacity="0" result="BackgroundImageFix"/>
<feGaussianBlur in="BackgroundImageFix" stdDeviation="4"/>
<feComposite in2="SourceAlpha" operator="in" result="effect1_backgroundBlur_590_104227"/>
<feBlend mode="normal" in="SourceGraphic" in2="effect1_backgroundBlur_590_104227" result="shape"/>
</filter>
<filter id="filter3_f_590_104227" x="335.242" y="257.167" width="369.07" height="193.639" filterUnits="userSpaceOnUse" color-interpolation-filters="sRGB">
<feFlood flood-opacity="0" result="BackgroundImageFix"/>
<feBlend mode="normal" in="SourceGraphic" in2="BackgroundImageFix" result="shape"/>
<feGaussianBlur stdDeviation="8" result="effect1_foregroundBlur_590_104227"/>
</filter>
<filter id="filter4_d_590_104227" x="114.77" y="2.771" width="426.816" height="103.034" filterUnits="userSpaceOnUse" color-interpolation-filters="sRGB">
<feFlood flood-opacity="0" result="BackgroundImageFix"/>
<feColorMatrix in="SourceAlpha" type="matrix" values="0 0 0 0 0 0 0 0 0 0 0 0 0 0 0 0 0 0 127 0" result="hardAlpha"/>
<feOffset dy="4"/>
<feGaussianBlur stdDeviation="2"/>
<feComposite in2="hardAlpha" operator="out"/>
<feColorMatrix type="matrix" values="0 0 0 0 0.068593 0 0 0 0 0.00261805 0 0 0 0 0.314167 0 0 0 0.3 0"/>
<feBlend mode="normal" in2="BackgroundImageFix" result="effect1_dropShadow_590_104227"/>
<feBlend mode="normal" in="SourceGraphic" in2="effect1_dropShadow_590_104227" result="shape"/>
</filter>
<filter id="filter5_i_590_104227" x="169" y="24" width="317.637" height="54.6274" filterUnits="userSpaceOnUse" color-interpolation-filters="sRGB">
<feFlood flood-opacity="0" result="BackgroundImageFix"/>
<feBlend mode="normal" in="SourceGraphic" in2="BackgroundImageFix" result="shape"/>
<feColorMatrix in="SourceAlpha" type="matrix" values="0 0 0 0 0 0 0 0 0 0 0 0 0 0 0 0 0 0 127 0" result="hardAlpha"/>
<feOffset dy="2"/>
<feGaussianBlur stdDeviation="2"/>
<feComposite in2="hardAlpha" operator="arithmetic" k2="-1" k3="1"/>
<feColorMatrix type="matrix" values="0 0 0 0 0.3825 0 0 0 0 0.367372 0 0 0 0 0.00127498 0 0 0 1 0"/>
<feBlend mode="normal" in2="shape" result="effect1_innerShadow_590_104227"/>
</filter>
<clipPath id="clip0_590_104227">
<rect width="798" height="495" fill="white"/>
</clipPath>
</defs>
</svg>
