<svg width="68" height="60" viewBox="0 0 68 60" fill="none" xmlns="http://www.w3.org/2000/svg">
<path d="M17.858 35.6348L23.8618 54.1C23.9604 54.4033 24.1312 54.6778 24.3594 54.8996C24.5876 55.1214 24.8662 55.2839 25.171 55.3728C25.4758 55.4617 25.7976 55.4744 26.1084 55.4097C26.4192 55.3451 26.7095 55.2052 26.9543 55.002L44.8855 40.1188C44.8855 40.1188 25.831 32.6455 25.831 33.0532C25.831 33.4609 17.858 35.6348 17.858 35.6348Z" fill="#B5D1DB"/>
<path d="M65.1674 0.145757C53.4575 4.80262 15.6604 20.3758 1.35473 26.2765C0.939754 26.4479 0.587321 26.7436 0.345286 27.1235C0.103251 27.5033 -0.0166522 27.9488 0.00186224 28.3995C0.0203767 28.8502 0.176411 29.2843 0.448774 29.6428C0.721136 30.0012 1.09663 30.2667 1.52425 30.4032L17.858 35.6348L23.8429 54.0415C23.9529 54.3834 24.1528 54.689 24.4216 54.9259C24.6904 55.1628 25.0179 55.3222 25.3694 55.3871C25.9201 55.4911 26.732 40.4811 26.732 40.4811C26.732 40.4811 43.9028 53.2849 52.0477 59.3319C52.5083 59.6743 53.0477 59.8938 53.6156 59.97C54.1834 60.0462 54.7612 59.9766 55.295 59.7677C55.8289 59.5588 56.3015 59.2173 56.6686 58.7752C57.0358 58.3331 57.2857 57.8047 57.395 57.2393C59.8212 44.6664 65.8877 13.2292 67.9616 2.48193C68.0328 2.11521 68.0046 1.73598 67.88 1.38398C67.7553 1.03199 67.5387 0.720202 67.253 0.481304C66.9673 0.242407 66.6229 0.0851975 66.2559 0.0261612C65.889 -0.0328751 65.513 0.00843295 65.1674 0.145757Z" fill="white"/>
<path d="M25.3696 55.387C25.92 55.491 26.732 40.481 26.732 40.481L54.9415 13.839C54.9808 13.8019 55.005 13.7515 55.0096 13.6974C55.0142 13.6434 54.9988 13.5896 54.9663 13.5464C54.9338 13.5031 54.8866 13.4734 54.8337 13.463C54.7808 13.4527 54.7259 13.4623 54.6796 13.4902L17.858 35.6347L23.8428 54.0414C23.9529 54.3833 24.1529 54.689 24.4217 54.9259C24.6905 55.1628 25.018 55.3221 25.3696 55.387Z" fill="#D6E2EA"/>
</svg>
