<svg width="59" height="60" viewBox="0 0 59 60" fill="none" xmlns="http://www.w3.org/2000/svg">
<path d="M54.7621 53.8796L34.9931 25.3374L32.758 22.1094L18.6168 1.69209L17.4448 0H0.0680542L4.30591 6.12036L23.1084 33.2706L25.3435 36.495L40.4512 58.3097L41.6232 60H59L54.7621 53.8796ZM43.6886 56.0938L27.993 33.4304L25.758 30.2042L7.54506 3.90627H15.3794L30.1084 25.174L32.3435 28.4002L51.523 56.0938H43.6886Z" fill="white"/>
<path d="M25.7578 30.2041L27.9929 33.4303L25.3433 36.495L5.01328 59.9999H0L23.1082 33.2705L25.7578 30.2041Z" fill="white"/>
<path d="M56.9077 0L34.9929 25.3374L32.3434 28.4003L30.1083 25.174L32.7578 22.1094L47.6029 4.93787L51.8944 0H56.9077Z" fill="white"/>
</svg>
