<svg width="1440" height="742" viewBox="0 0 1440 742" fill="none" xmlns="http://www.w3.org/2000/svg">
<g opacity="0.4">
<mask id="mask0_591_138119" style="mask-type:alpha" maskUnits="userSpaceOnUse" x="0" y="0" width="1440" height="742">
<rect width="1440" height="742" fill="#D9D9D9"/>
</mask>
<g mask="url(#mask0_591_138119)">
<path d="M1457 437.289C1449.93 435.012 1442.81 432.781 1435.64 430.596C1442.92 433.383 1450.04 436.1 1457 438.747V437.289ZM1268.48 -151.52C1237.66 -165.974 1206.83 -180.429 1176.01 -194.884C1206.54 -178.581 1238.42 -160.961 1268.48 -151.52ZM1078.7 75.7379C1135.24 14.4009 1191.78 -46.9366 1248.31 -108.275C1188.5 -54.1225 1097.9 19.7009 1078.7 75.7379ZM1457 148.02C1453.7 140.562 1450.33 133.147 1446.89 125.774C1450.26 135.387 1453.63 145 1457 154.613V148.02ZM1117.96 366.669C1107.41 369.846 1097.39 374.552 1088.2 380.637C1100.81 378.208 1110.58 373.398 1117.96 366.669ZM1313.97 -104.481C1351.92 -47.1267 1386.37 8.37941 1416.64 65.2812C1417.78 28.0523 1354.85 -52.3772 1313.97 -104.481ZM1426.51 67.623C1424.65 69.5464 1422.8 71.4702 1420.94 73.3943C1429.99 90.6775 1438.64 108.137 1446.89 125.774L1426.51 67.623ZM1457 587.482V582.938C1409.48 589.74 1361.96 596.54 1314.44 603.339C1342.75 609.687 1402.5 599.15 1457 587.482ZM1457 -151.338V-151.477C1404.89 -148.154 1350.2 -147.091 1299 -144.762C1346.91 -138.032 1403.28 -144.716 1457 -151.338ZM1161.08 359.753C1249.64 383.432 1346.64 403.552 1435.64 430.596C1349.47 397.603 1242.62 356.543 1161.08 359.753ZM1176.01 -194.884C1153.37 -206.974 1131.48 -218.333 1111.63 -225.072C1133.09 -215.009 1154.55 -204.947 1176.01 -194.884ZM969.66 -214.993C971.51 -220.028 973.008 -225.185 974.146 -230.427C972.611 -225.781 971.127 -220.575 969.66 -214.993ZM-17 469.045V474.676C22.6381 518.604 71.2169 579.325 115.508 596.755C99.5885 560.607 31.0336 507.29 -17 469.045ZM467.041 1237C447.885 1210.05 428.728 1183.1 409.57 1156.14C417.252 1179.59 436.538 1208.49 458.544 1237H467.041ZM791.377 1237C782.258 1227.76 773.142 1218.52 764.029 1209.27C771.04 1217.46 776.493 1226.85 780.12 1237H791.377ZM922.522 -70.0059C947.536 -100.52 957.99 -170.533 969.66 -214.993C955.474 -174.662 917.71 -104.226 922.522 -70.0059ZM332.465 428.563C283.289 379.045 234.877 328.876 186.61 278.169C240.23 336.877 301.619 402.401 332.465 428.563ZM729.718 1174.48C741.156 1186.08 752.593 1197.68 764.029 1209.27C755.239 1198.47 743.664 1187.35 729.718 1174.48ZM1160.73 1165.83C1190.48 1182.68 1223.39 1193.64 1258.33 1200.52C1225.8 1188.96 1193.26 1177.39 1160.73 1165.83ZM1119.13 1237H1122.95C1115.45 1205.34 1106.8 1172.68 1096.59 1143.04C1095.25 1142.56 1093.91 1142.09 1092.56 1141.61C1101.42 1173.41 1110.27 1205.2 1119.13 1237ZM348.669 446.155C354.29 451.381 359.808 456.445 365.223 461.346C359.934 456.093 354.662 450.829 349.405 445.553C349.163 445.75 348.908 445.964 348.669 446.155ZM639.599 -143.567C599.327 -158.118 552.052 -165.338 494.9 -172.633C547.987 -158.346 599.842 -154.778 639.599 -143.567ZM111.391 110.614C137.084 44.9435 162.777 -20.7278 188.47 -86.3996C151.017 -34.0556 132.794 40.5701 111.391 110.614ZM685.338 -121.753C706.471 -104.2 716.74 -76.4528 710.579 -29.1372C704.475 17.7603 702.096 55.8644 698.284 88.1855C706.148 27.7824 714.013 -32.6219 721.878 -93.0274C710.795 -103.921 698.541 -113.555 685.338 -121.753ZM817.006 -23.347C849.95 -31.667 892.273 -48.604 911.657 -60.7934C880.106 -48.3107 848.556 -35.8285 817.006 -23.347ZM723.834 -108.051C723.182 -103.042 722.531 -98.0345 721.878 -93.0274C731.677 -83.3692 740.651 -72.909 748.708 -61.7561C740.442 -77.1366 732.15 -92.5681 723.834 -108.051ZM685.338 -121.753C673.286 -131.764 657.7 -138.462 639.599 -143.567C655.567 -137.918 670.898 -130.606 685.338 -121.753ZM548.616 145.35C554.897 180.497 561.177 215.644 567.457 250.792C567.767 224.796 557.295 179.883 548.616 145.35ZM696.32 103.256C697.026 98.3733 697.68 93.3499 698.284 88.1855C697.629 93.2093 696.974 98.2327 696.32 103.256ZM1285.43 -147.074C1279.7 -148.265 1274.05 -149.749 1268.48 -151.52C1273.06 -149.371 1277.65 -147.222 1282.23 -145.073C1270.92 -132.808 1259.62 -120.541 1248.31 -108.275C1262.59 -121.205 1275.12 -133.014 1284.5 -143.189C1290.28 -134.647 1301.02 -120.982 1313.97 -104.481C1305.27 -117.617 1296.4 -130.862 1287.36 -144.215C1291.21 -144.41 1295.11 -144.585 1299 -144.762C1294.4 -145.41 1289.86 -146.168 1285.43 -147.074ZM882.28 179.554C883.372 179.011 884.459 178.467 885.551 177.925C882.081 177.983 878.683 176.924 875.86 174.904C876.412 175.935 876.958 176.949 877.514 177.982C874.539 178.41 871.563 178.838 868.585 179.266C875.475 180.267 880.754 182.196 883.833 185.324C947.377 249.901 1010.92 314.478 1074.47 379.056C995.628 344.538 916.783 310.016 837.939 275.492C787.463 253.14 736.988 230.789 686.513 208.439C695.405 207.16 711.236 203.507 730.229 199.172C714.468 201.439 698.708 203.707 682.946 205.975C687.404 171.735 691.862 137.495 696.32 103.256C688.635 156.544 674.055 193.671 625.145 230.479C657.596 216.687 687.567 212.127 711.807 222.861C787.688 256.462 832.12 253.336 842.506 334.056C842.522 334.2 842.542 334.344 842.56 334.487C841.27 311.319 840.041 291.818 838.38 278.899C948.293 327.024 1052.96 358.196 1138.38 441.82C1145.95 449.231 1157.62 458.894 1171.34 469.961C1142.06 441.302 1112.79 412.642 1083.51 383.983C1085.05 382.82 1086.61 381.705 1088.2 380.637C1085.96 381.069 1083.67 381.453 1081.24 381.732C1014.92 314.34 948.6 246.947 882.28 179.554ZM548.616 145.35C538.825 90.5598 529.034 35.7693 519.242 -19.0213C506.212 -91.9442 512.707 -140.261 490.65 -162.278C506.331 -74.5232 522.012 13.2313 537.693 100.986C538.955 108.049 543.47 124.877 548.616 145.35ZM1407.55 912.859C1409.95 922.284 1413.05 931.519 1416.81 940.488C1413.73 931.279 1410.64 922.07 1407.55 912.859ZM625.145 230.479C605.684 239.039 586.995 249.256 569.285 261.018C569.498 262.208 569.711 263.398 569.923 264.587C589.21 254.708 607.676 243.302 625.145 230.479ZM562.082 270.369C564.153 268.428 565.559 265.884 566.1 263.098C504.998 303.391 442.048 361.897 395.607 404.538C451.098 359.815 506.59 315.092 562.082 270.369ZM111.391 110.614C103.599 130.529 95.8073 150.444 88.0154 170.36C53.0104 148.582 18.0053 126.805 -17 105.029V110.266C17.4317 131.755 53.9435 152.637 86.6208 172.967C52.0813 220.828 17.541 268.688 -17 316.548V324.989C19.0601 275.61 54.279 222.817 88.8908 174.857C121.535 209.51 154.108 243.947 186.61 278.169C141.359 228.623 101.654 183.95 90.5604 171.944C98.204 152.409 104.942 131.719 111.391 110.614ZM569.285 261.018C568.677 257.609 568.068 254.201 567.457 250.792C567.496 254.934 567.04 259.065 566.1 263.098C567.164 262.397 568.224 261.708 569.285 261.018ZM490.65 -162.278C489.767 -167.215 488.885 -172.152 488.003 -177.088C487.375 -180.6 466.864 -179.261 439.395 -175.868C465.114 -176.732 480.758 -172.15 490.65 -162.278ZM1457 1208.28C1455.83 1208.48 1454.7 1208.7 1453.5 1208.89C1454.67 1208.84 1455.83 1208.76 1457 1208.7V1208.28ZM351.696 439.927C349.597 441.618 342.707 437.25 332.465 428.563C338.099 434.237 343.746 439.9 349.405 445.553C361.464 435.77 377.242 421.399 395.607 404.538C380.97 416.334 366.333 428.131 351.696 439.927ZM86.3932 1237C116.246 1138.47 141.11 1013.66 149.168 918.646C126.789 1024.76 104.409 1130.88 82.0291 1237H86.3932ZM1291.93 1237H1296.28C1302.15 1231.62 1308.03 1226.24 1313.9 1220.86C1318.68 1226.42 1323.1 1231.79 1327.31 1237H1331.23C1326.82 1231.58 1322.15 1225.94 1317.08 1220.04C1376.82 1216.53 1419.85 1214.24 1453.5 1208.89C1386.38 1212.08 1319.29 1212.51 1258.33 1200.52C1275.96 1206.78 1293.59 1213.05 1311.23 1219.31C1304.79 1225.21 1298.36 1231.1 1291.93 1237ZM1394.8 943.833C1408.2 958.305 1419.68 970.583 1428.08 978.268C1322.92 992.981 1217.77 1007.7 1112.62 1022.42C1014.79 1036.11 999.005 1014.37 915.517 950.636C923.727 947.018 931.938 943.4 940.15 939.783C921.568 943.471 907.757 942.843 901.362 935.939C803.772 830.605 706.186 725.269 608.604 619.931C698.279 613.196 787.955 606.462 877.63 599.73C997.785 668.239 1117.94 736.748 1238.09 805.257C1227.38 809.978 1208.68 819.628 1185.38 831.719C1197.03 826.584 1208.69 821.448 1220.35 816.31C1232 811.173 1246.81 814.613 1263.24 823.437C1258.24 818.865 1253.25 814.292 1248.25 809.719C1244.97 806.725 1244.04 800.138 1244.8 791.105C1243.14 795.466 1241.68 799.555 1240.52 803.24C1125.3 737.545 1010.08 671.852 894.866 606.16C886.429 601.349 879.477 590.891 873.695 576.531L876.312 596.871C621.441 616.006 545.57 624.668 365.223 461.346C407.291 503.135 450.151 544.405 493.802 585.155C376.223 590.623 258.644 596.091 141.066 601.558C132.303 601.781 123.593 600.144 115.508 596.755C117.163 600.329 118.261 604.135 118.765 608.041C130.344 716.187 141.924 824.334 153.505 932.481C164.373 1033.99 175.241 1135.5 186.11 1237H189.079C166.535 1026.48 143.992 815.951 121.451 605.423C246.154 599.629 370.857 593.831 495.561 588.029C463.219 750.892 430.879 909.684 398.368 1072.88C389.763 1116.08 381.328 1159.12 372.882 1202.38C370.736 1214.19 367.509 1225.78 363.242 1237H369.615C376.719 1201.4 383.829 1165.71 390.946 1129.94L409.57 1156.14C402.862 1135.66 404.986 1119.33 421.918 1111.07C557.81 1044.74 562.922 1009.54 667.22 1115.3C691.221 1139.64 712.313 1158.42 729.718 1174.48C682.671 1126.77 635.623 1079.07 588.574 1031.36C732.629 1033.21 876.684 1035.07 1020.74 1036.92C954.051 1103.62 887.361 1170.31 820.67 1237H824.831C890.96 1170.87 957.088 1104.75 1023.22 1038.62C1032.73 1104.75 1042.24 1170.87 1051.76 1237H1056.6C1047.93 1170.57 1035.23 1101.42 1025.93 1036.81C1055.75 1047.91 1078.58 1090.75 1096.59 1143.04C1117.97 1150.64 1139.35 1158.23 1160.73 1165.83C1113.67 1139.18 1074.52 1097.81 1047.85 1034.46C1175.36 1016.61 1302.87 998.766 1430.37 980.922C1439.27 1000.73 1448.15 1020.59 1457 1040.49V1033.37C1449.16 1015.72 1441.32 998.068 1433.48 980.418C1441.55 978.993 1449.39 977.871 1457 976.935V968.302C1435.09 966.539 1424.48 957.531 1416.81 940.488C1420.6 951.779 1424.38 963.071 1428.17 974.364L1394.8 943.833ZM909.221 948.774C804.026 947.397 698.831 946.024 593.635 944.653L606.776 622.297C707.591 731.123 808.407 839.949 909.221 948.774ZM392.493 1122.15C412.756 1020.11 433.02 918.068 453.284 816.029C456.101 818.71 458.866 821.355 461.58 823.964C456.847 816.508 454.483 809.987 455.488 804.926C469.826 732.728 484.164 660.532 498.502 588.336C596.949 617.694 604.578 603.809 600.514 703.52C597.263 783.276 594.011 863.035 590.759 942.795C579.79 932.359 550.423 909.851 521.819 885.411C626.937 1002.68 576.326 1032.43 392.493 1122.15ZM586.609 1028.38C588.737 1003.26 584.888 971.067 593.454 947.595C768.601 949.888 880.594 927.682 1019.81 1033.96C875.408 1032.1 731.008 1030.24 586.609 1028.38ZM521.819 885.411C505.507 867.214 485.477 846.927 461.58 823.964C472.7 841.477 496.963 864.172 521.819 885.411ZM295.481 -153.377C307.803 -155.188 386.503 -169.336 439.395 -175.868C428.167 -175.394 416.974 -174.297 405.868 -172.581C356.783 -165.367 223.029 -174.733 202.854 -123.163C198.059 -110.909 193.264 -98.6544 188.47 -86.3996C213.406 -121.25 246.861 -146.232 295.481 -153.377ZM781.029 -7.81175C877.76 22.1479 974.49 52.1075 1071.22 82.067C1063.43 85.9507 1050.52 93.821 1034.97 103.433C1048.05 96.9159 1061.12 90.3987 1074.19 83.8816C1074.61 85.5406 1075.09 87.2761 1075.58 89.0465C1075.85 86.7288 1076.26 84.4286 1076.79 82.1578C1077.32 80.0453 1077.96 77.9051 1078.7 75.7379L1075.11 79.6371C1067.3 72.1176 1055.66 62.6892 1042.26 52.1092C1051.4 60.9053 1060.53 69.7016 1069.67 78.498C974.299 48.9622 878.926 19.4251 783.553 -10.113C794.704 -14.5249 805.854 -18.9362 817.006 -23.347C794.65 -17.7006 776.624 -16.0147 773.126 -22.53C765.886 -36.144 757.727 -49.2496 748.708 -61.7561C765.236 -30.9922 781.721 -0.309372 798.162 30.2925C791.091 13.6254 785.158 -0.127594 781.029 -7.81175ZM730.229 199.172C776.349 192.536 822.468 185.901 868.585 179.266C837.936 174.816 775.203 188.908 730.229 199.172ZM1301.68 597.533C1287.39 560.735 1217.69 507.346 1171.34 469.961C1214.71 512.412 1258.07 554.863 1301.43 597.313C1301.51 597.389 1301.61 597.457 1301.68 597.533ZM1263.24 823.437C1307.1 863.569 1350.95 903.701 1394.8 943.833C1357.4 903.426 1305.08 845.916 1263.24 823.437ZM1304.57 610.225C1294.58 639.648 1248.55 746.023 1244.8 791.105C1263.22 742.451 1308.45 655.393 1304.57 610.225ZM940.15 939.783C1001.42 927.619 1114.63 868.423 1185.38 831.719C1103.63 867.742 1021.89 903.763 940.15 939.783ZM842.56 334.487C846.715 408.979 851.551 521.524 873.695 576.531C863.317 495.85 852.939 415.168 842.56 334.487ZM1304.57 610.225C1304.85 609.396 1305.11 608.607 1305.33 607.902C1339.41 709.556 1373.48 811.209 1407.55 912.859C1402.66 895.165 1397.32 873.064 1388.33 846.236C1361.31 765.612 1334.28 684.989 1307.25 604.367C1309.65 604.025 1312.04 603.682 1314.44 603.339C1309.76 602.544 1305.36 600.543 1301.68 597.533C1302.48 599.498 1303.12 601.519 1303.62 603.58C1304.08 605.772 1304.4 607.992 1304.57 610.225ZM1146.08 354.081C1143.95 345.71 1140.71 335.304 1136.8 323.535C1135.08 341.346 1129.35 356.284 1117.96 366.669C1131.97 362.5 1146.47 360.174 1161.08 359.753C1156.73 358.591 1152.4 357.419 1148.08 356.238C1239.03 261.955 1329.99 167.674 1420.94 73.3943C1419.52 70.6855 1418.08 67.9845 1416.64 65.2812C1416.75 70.2484 1414.97 75.0723 1411.65 78.7714C1323.13 170.54 1234.61 262.31 1146.08 354.081ZM1042.26 52.1092C1003.24 14.5448 964.226 -23.019 925.21 -60.5821C939.065 -26.9141 999.651 18.4692 1042.26 52.1092ZM925.21 -60.5821C924.37 -62.5578 923.677 -64.593 923.137 -66.671C922.878 -67.7361 922.684 -68.8571 922.522 -70.0059C921.779 -69.1018 921.034 -68.2093 920.267 -67.3773C917.677 -64.8397 914.785 -62.6286 911.657 -60.7934C914.806 -62.0386 917.956 -63.2846 921.107 -64.5315C922.475 -63.2145 923.842 -61.898 925.21 -60.5821ZM1136.8 323.535C1143.4 255.253 1091.34 145 1075.58 89.0465C1069.04 141.414 1114.32 255.817 1136.8 323.535ZM1034.97 103.433C985.163 128.264 935.356 153.094 885.551 177.925C914.412 178.904 987.259 132.92 1034.97 103.433ZM875.86 174.904C849.473 125.793 823.752 77.9213 798.162 30.2925C819.725 81.1169 851.882 159.064 875.86 174.904Z" fill="#45B8E6"/>
<path d="M697.991 -221.07C717.191 -201.422 724.53 -172.762 713.508 -126.34C702.586 -80.3515 696.278 -42.7151 689.143 -10.9725C703.215 -70.2203 717.287 -129.469 731.357 -188.718C721.462 -200.699 710.272 -211.549 697.991 -221.07ZM734.857 -203.459C733.691 -198.547 732.524 -193.633 731.357 -188.718C740.105 -178.097 747.948 -166.763 754.805 -154.834C748.179 -170.989 741.529 -187.197 734.857 -203.459ZM965.011 -237C946.694 -203.864 927.727 -167.676 928.542 -145.052C947.534 -163.856 961.756 -201.376 973.993 -237H965.011ZM818.66 -109.538C852.319 -114.397 896.32 -126.908 916.865 -137.035C884.128 -127.87 851.393 -118.704 818.66 -109.538ZM674.302 -237C682.528 -232.196 690.44 -226.876 697.991 -221.07C691.708 -227.329 684.589 -232.69 676.837 -237L674.302 -237ZM542.178 137.265C541.787 141.39 540.906 145.453 539.553 149.369C540.683 148.783 541.811 148.207 542.938 147.631C542.684 144.175 542.431 140.719 542.178 137.265ZM685.609 3.90979C686.824 -0.903366 688.002 -5.86412 689.143 -10.9725C687.965 -6.01079 686.788 -1.05003 685.609 3.90979ZM1415.57 44.0058C1413.53 45.7278 1411.49 47.4494 1409.44 49.1707C1416.65 67.2979 1423.45 85.5613 1429.83 103.961C1425.08 83.9749 1420.33 63.99 1415.57 44.0058ZM534.351 30.446C536.961 66.0527 539.57 101.659 542.178 137.265C545.174 111.44 539.408 65.6902 534.351 30.446ZM1457 194.044C1449.11 163.291 1440.02 133.379 1429.83 103.961C1438.89 142.05 1447.94 180.139 1457 218.229V194.044ZM1321.44 -138.832C1353.26 -77.854 1381.78 -19.0756 1406 40.6581C1410.99 3.74599 1356.71 -82.7769 1321.44 -138.832ZM1202.49 -237C1228.41 -219.446 1255.13 -201.535 1281.08 -190.32C1255.25 -205.879 1229.42 -221.439 1203.59 -237H1202.49ZM1457 -170.413V-171.273C1408.38 -173.533 1358.13 -177.675 1310.74 -180.437C1354.36 -169.612 1406.43 -169.547 1457 -170.413ZM781.373 -97.8381C874.482 -58.0274 967.59 -18.2162 1060.7 21.5952C1052.55 24.6514 1038.9 31.1442 1022.44 39.0927C1036.11 33.9656 1049.79 28.8375 1063.46 23.7086C1063.71 25.4007 1064.01 27.1776 1064.32 28.9896C1064.83 26.712 1065.46 24.4659 1066.23 22.2628C1066.97 20.2178 1067.83 18.1555 1068.79 16.0758C1067.47 17.2454 1066.14 18.4138 1064.82 19.5808C1057.83 11.2942 1047.23 0.711395 1035 -11.2C1043.17 -1.50346 1051.35 8.19215 1059.53 17.8868L784.122 -99.866C795.634 -103.09 807.146 -106.314 818.66 -109.538C795.875 -106.247 777.837 -106.461 775.032 -113.295C769.24 -127.584 762.482 -141.463 754.805 -154.834C768.063 -122.525 781.248 -90.3826 794.468 -58.1595C789.16 -75.4734 784.683 -89.7672 781.373 -97.8381ZM304.343 308.936C309.388 314.712 314.348 320.316 319.223 325.747C314.513 319.98 309.817 314.202 305.135 308.415C304.875 308.584 304.598 308.769 304.343 308.936ZM520.456 -237H511.802C517.227 -162.937 522.653 -88.875 528.08 -14.8131C528.604 -7.65724 531.353 9.54968 534.351 30.446C530.285 -25.0646 526.218 -80.5751 522.15 -136.085C519.073 -178.092 521.447 -211.52 520.456 -237ZM291.425 1021.42C301.306 1067.13 350.61 1136.62 383.333 1184.11C352.697 1129.88 322.061 1075.65 291.425 1021.42ZM189.634 1131.4C173.533 1128.32 159.199 1125.89 146.27 1124.2C162.701 1128.82 177.012 1131.9 189.634 1131.4ZM-17 1197.97V1202.45C1.45375 1183.89 20.9314 1163.98 35.7937 1144.49C19.5379 1156.76 3.23158 1174.31 -17 1197.97ZM638.474 1110.94C630.851 1099.29 620.495 1087.03 607.962 1072.8C618.132 1085.51 628.303 1098.23 638.474 1110.94ZM1131.04 1153.41C1099.87 1138.54 1068.71 1123.67 1037.54 1108.8C1065.4 1128.64 1097 1142.96 1131.04 1153.41ZM999.259 1237H999.743C994.523 1188.78 987.878 1130.21 976.109 1079.5C974.826 1078.88 973.541 1078.27 972.255 1077.66C981.255 1130.77 990.256 1183.88 999.259 1237ZM413.426 1237H417.206C414.197 1232.37 411.153 1227.35 408.054 1221.86C402.853 1212.66 393.966 1199.54 383.333 1184.11C391.099 1197.86 398.864 1211.6 406.629 1225.35C408.963 1229.48 411.229 1233.36 413.426 1237ZM103.072 -49.3672C93.2612 -30.3646 83.4495 -11.362 73.6371 7.64069C43.4237 -15.818 13.2114 -39.2764 -17 -62.7342V-57.1348C12.7824 -34.2141 43.9708 -11.6588 71.9799 10.0896C42.3199 43.3102 12.6599 76.531 -17 109.752V116.933C13.7989 81.679 44.237 45.5846 74.0409 12.2036C102.928 50.056 131.766 87.6863 160.556 125.095C120.671 71.1241 85.7977 22.5714 76.0049 9.47949C85.6286 -9.16054 94.4732 -29.0421 103.072 -49.3672ZM307.997 303.054C305.735 304.52 299.333 299.461 290.045 289.763C295.062 295.988 300.092 302.206 305.135 308.415C318.145 299.931 335.328 287.268 355.343 272.396C339.56 282.616 323.778 292.835 307.997 303.054ZM-17 361.969C6.55933 393.003 31.6634 421.531 56.8439 434.594C48.5555 408.813 16.4736 372.434 -17 338.245V361.969ZM199.844 -237C157.349 -188.814 131.546 -116.664 103.072 -49.3672C135.366 -111.911 167.66 -174.456 199.955 -237H199.844ZM1121.33 307.092C1206.97 339.811 1301.36 369.862 1387.08 405.974C1304.79 364.238 1202.76 312.341 1121.33 307.092ZM290.045 289.763C246.264 235.424 203.311 180.519 160.556 125.095C207.806 189.033 262.076 260.55 290.045 289.763ZM1068.79 16.0758C1131.38 -39.0806 1193.96 -94.2368 1256.54 -149.393C1191.45 -101.723 1093.7 -37.6734 1068.79 16.0758ZM856.777 93.71C835.617 42.1345 814.989 -8.14127 794.468 -58.1595C810.653 -5.3801 834.568 75.4694 856.777 93.71ZM709.42 102.776C755.977 100.95 802.534 99.1238 849.092 97.2988C819.068 89.6985 755.214 97.2214 709.42 102.776ZM862.684 99.0018L866.104 97.7189C862.646 97.4172 859.376 96.0118 856.777 93.71C857.219 94.7941 857.656 95.8593 858.103 96.9443C855.101 97.0632 852.098 97.1813 849.092 97.2988C855.841 99.0064 860.89 101.471 863.628 104.902L1033.19 317.327C958.344 274.832 883.497 232.335 808.65 189.834C760.76 162.378 712.869 134.923 664.977 107.467C673.954 107.114 690.079 105.12 709.42 102.776C693.507 103.399 677.596 104.023 661.685 104.647C669.66 71.0675 677.635 37.4883 685.609 3.90979C672.45 56.0926 654.1 91.496 601.659 123.036C635.362 112.678 665.646 111.245 688.644 124.431C760.637 165.706 805.158 167.196 807.13 248.557C807.131 248.701 807.135 248.845 807.14 248.988C808.252 225.81 809.053 206.29 808.736 193.269C913.075 252.513 1013.95 294.351 1090.26 386.367C1097.02 394.523 1107.63 405.344 1120.13 417.772C1093.98 386.235 1067.83 354.699 1041.67 323.163C1043.32 322.165 1044.99 321.222 1046.69 320.321C1044.41 320.518 1042.09 320.663 1039.65 320.69C980.658 246.793 921.67 172.897 862.684 99.0018ZM1100.94 268.553C1114.57 201.321 1074.19 86.27 1064.32 28.9896C1052.39 80.3951 1085.59 198.871 1100.94 268.553ZM601.659 123.036C581.416 129.536 561.77 137.765 542.938 147.631C543.026 148.836 543.114 150.04 543.202 151.245C563.409 143.416 582.956 133.983 601.659 123.036ZM1236.57 558.149C1226.17 520.07 1162.37 459.753 1120.13 417.772C1158.87 464.482 1197.61 511.193 1236.34 557.904C1236.41 557.987 1236.5 558.064 1236.57 558.149ZM1293.34 912.231C1305.17 928.011 1315.32 941.413 1322.87 949.922C1216.76 953.673 1110.65 957.425 1004.54 961.178C905.815 964.671 892.369 941.414 815.925 869.382C824.463 866.633 833.002 863.884 841.543 861.136C822.685 862.881 809.012 860.825 803.367 853.3C717.208 738.428 631.05 623.556 544.893 508.684L814.566 516.439C926.984 597.016 1039.4 677.595 1151.82 758.175C1140.68 761.762 1121.08 769.423 1096.66 779.033C1108.78 775.132 1120.9 771.231 1133.02 767.33C1145.14 763.429 1159.52 768.383 1174.94 778.857C1170.44 773.793 1165.95 768.73 1161.45 763.665C1158.51 760.349 1158.26 753.701 1159.95 744.794C1157.85 748.959 1155.98 752.875 1154.44 756.419C1046.64 679.151 938.843 601.885 831.044 524.62C823.151 518.963 817.316 507.836 813.051 492.956C813.219 499.79 813.385 506.624 813.55 513.459C558.062 506.109 481.703 506.872 319.223 325.747C356.744 371.671 395.105 417.16 434.307 462.213C316.794 455.481 199.281 448.748 81.7682 442.015C73.0292 441.33 64.5345 438.801 56.8439 434.594C58.1198 438.319 58.8185 442.216 58.9158 446.152C59.2379 554.919 59.5612 663.685 59.8857 772.449C60.1978 878.005 60.5112 983.559 60.8258 1089.11C60.8762 1105.97 50.6399 1125.02 35.7937 1144.49C65.0462 1122.42 94.2544 1117.37 146.27 1124.2C123.301 1117.74 96.1977 1108.28 63.8126 1101.42C63.1604 882.224 62.5088 663.027 61.8577 443.83C186.491 450.971 311.125 458.111 435.759 465.252C386.733 623.891 338.13 778.483 288.9 937.442C275.869 979.52 263.026 1021.45 250.147 1063.61C234.777 1113.91 215.86 1130.38 189.634 1131.4C201.181 1133.62 213.617 1136.16 227.105 1139.01C217.703 1169.79 205.868 1205.06 197.44 1237H200.297C225.279 1155.65 250.405 1074.99 275.611 993.426L291.425 1021.42C286.87 1000.35 290.673 984.323 308.372 977.856C450.398 925.955 459.127 891.471 551.917 1007.46C573.272 1034.16 592.309 1055.03 607.962 1072.8C566.103 1020.47 524.243 968.15 482.383 915.826C625.472 932.585 768.561 949.343 911.65 966.099C833.016 1029.91 754.383 1093.72 675.749 1157.53C663.324 1142 650.899 1126.47 638.474 1110.94C661.266 1145.79 659.579 1175.39 618.567 1237H621.588C647.438 1210.75 662.568 1172.02 694.197 1146.35C767.444 1086.91 840.691 1027.48 913.937 968.042C917.451 1057.69 920.967 1147.35 924.485 1237H926.779C929.005 1151.04 920.273 1054.37 916.827 966.518C945.332 980.649 963.609 1025.62 976.109 1079.5C996.591 1089.26 1017.07 1099.03 1037.54 1108.8C993.496 1077.43 958.839 1032.22 938.877 966.452C1067.54 961.901 1196.21 957.35 1324.87 952.799C1348.35 1023.98 1371.47 1095.68 1394.67 1167.15C1395.56 1166.74 1396.46 1166.33 1397.35 1165.91C1374.24 1094.81 1351.13 1023.72 1328.03 952.619C1383.74 948.641 1428.26 957.175 1457 947.282V936.477C1444.88 940.051 1429.07 942.449 1408.44 943.923C1344.34 948.5 1325.07 939.892 1315.58 911.181C1318.18 922.802 1320.77 934.425 1323.37 946.05C1313.36 934.777 1303.35 923.504 1293.34 912.231ZM809.856 866.878C705.367 854.621 600.879 842.366 496.391 830.114C511.872 723.691 527.351 617.27 542.83 510.849C631.838 629.526 720.847 748.202 809.856 866.878ZM277.958 985.834C308.674 886.44 339.39 787.046 370.108 687.653C372.633 690.613 375.111 693.53 377.54 696.405C373.603 688.5 371.926 681.769 373.451 676.837C395.185 606.511 416.919 536.186 438.652 465.864C533.533 505.251 542.558 492.235 528.195 590.985C516.704 669.98 505.214 748.974 493.725 827.966C483.894 816.45 457.012 791.024 431.092 763.751C523.51 891.269 470.09 915.632 277.958 985.834ZM480.737 912.663C485.453 887.901 484.956 855.479 495.906 833.022C669.876 853.429 783.566 842.936 911.031 963.053C767.599 946.256 624.167 929.46 480.737 912.663ZM1457 438.087C1434.64 426.771 1411.2 416.135 1387.08 405.974C1412.72 418.978 1436.41 430.959 1457 440.268V438.087ZM1035 -11.2C1000.08 -52.6004 965.157 -94.0006 930.241 -135.401C940.533 -100.48 996.098 -49.0693 1035 -11.2ZM930.241 -135.401C929.609 -137.452 929.13 -139.548 928.809 -141.67C928.662 -142.792 928.573 -143.921 928.542 -145.052C927.709 -144.23 926.878 -143.419 926.029 -142.671C923.217 -140.424 920.139 -138.531 916.865 -137.035C920.098 -137.941 923.333 -138.847 926.57 -139.753L930.241 -135.401ZM1297.47 -184.141C1291.91 -185.919 1286.43 -187.981 1281.08 -190.32C1285.41 -187.708 1289.75 -185.095 1294.08 -182.482C1281.57 -171.453 1269.06 -160.423 1256.54 -149.393C1272.08 -160.776 1285.76 -171.222 1296.15 -180.374C1301.01 -171.282 1310.28 -156.582 1321.44 -138.832C1314.16 -152.795 1306.71 -166.883 1299.1 -181.097C1302.95 -180.892 1306.85 -180.664 1310.74 -180.437C1306.23 -181.557 1301.79 -182.78 1297.47 -184.141ZM1107.01 299.897C1105.75 291.35 1103.6 280.664 1100.94 268.553C1097.38 286.092 1090.14 300.358 1077.72 309.508C1092.09 306.811 1106.75 305.999 1121.33 307.092C1117.13 305.485 1112.94 303.871 1108.77 302.251C1208.99 217.891 1309.22 133.531 1409.44 49.1707C1408.31 46.3295 1407.15 43.4946 1406 40.6581C1405.6 45.6091 1403.33 50.2211 1399.65 53.5584C1302.1 135.67 1204.55 217.783 1107.01 299.897ZM1238.12 571.07C1238.49 570.275 1238.83 569.517 1239.12 568.841C1262.49 673.474 1285.86 778.108 1309.23 882.74C1306.19 864.634 1303.17 842.097 1297 814.483L1241.4 565.521C1243.82 565.429 1246.24 565.336 1248.65 565.242C1244.08 563.969 1239.91 561.524 1236.57 558.149C1237.16 560.186 1237.59 562.263 1237.87 564.364C1238.1 566.591 1238.19 568.831 1238.12 571.07ZM1022.44 39.0927L866.104 97.7189C894.706 101.684 971.929 63.4843 1022.44 39.0927ZM377.54 696.405C386.787 714.974 408.569 740.055 431.092 763.751C416.752 743.964 398.93 721.716 377.54 696.405ZM1309.23 882.74C1310.64 892.364 1312.76 901.87 1315.58 911.181C1313.46 901.7 1311.35 892.22 1309.23 882.74ZM1400.64 1185.56C1398.65 1179.43 1396.66 1173.29 1394.67 1167.15C1374.46 1176.15 1352.46 1180.42 1324.29 1181.94C1349.82 1183.38 1375.4 1184.42 1400.64 1185.56ZM1455.88 1122.43C1435.15 1142.8 1417.01 1156.67 1397.35 1165.91L1403.29 1184.16C1420.82 1163.59 1438.35 1143.01 1455.88 1122.43ZM1457 1121.11C1456.63 1121.55 1456.25 1121.98 1455.88 1122.43C1456.25 1122.06 1456.63 1121.68 1457 1121.31V1121.11ZM1077.72 309.508C1066.9 311.576 1056.45 315.219 1046.69 320.321C1059.48 319.209 1069.69 315.435 1077.72 309.508ZM1449.72 557.512L1248.65 565.242C1286.34 577.922 1386.14 565.146 1449.72 557.512ZM539.553 149.369C474.611 183.119 405.947 234.791 355.343 272.396L534.805 156.184C537.065 154.468 538.726 152.084 539.553 149.369ZM1457 556.643C1454.63 556.922 1452.2 557.212 1449.72 557.512C1452.14 557.42 1454.57 557.327 1457 557.233V556.643ZM1159.95 744.794C1183.31 698.309 1237.31 616.398 1238.12 571.07C1225.15 599.294 1168.36 700.344 1159.95 744.794ZM813.051 492.956C811.083 411.634 809.113 330.312 807.14 248.988C803.56 323.507 796.719 435.949 813.051 492.956ZM1174.94 778.857C1214.41 823.316 1253.88 867.774 1293.34 912.231C1260.32 868.166 1214.23 805.544 1174.94 778.857ZM841.543 861.136C903.748 855.382 1022.49 808.216 1096.66 779.033C1011.62 806.403 926.581 833.77 841.543 861.136ZM-17 988.038V1014.43C14.5141 930.287 42.3936 834.915 57.0041 758.238C32.3363 834.837 7.66827 911.437 -17 988.038ZM1181.7 1177.58C1154.99 1197.38 1128.28 1217.19 1101.57 1237H1106.51C1132.4 1217.79 1158.3 1198.59 1184.2 1179.39C1199.43 1201.35 1210.65 1220.71 1220.97 1237H1225.14C1214.77 1221.09 1203.28 1201.74 1187.44 1178.9C1247.22 1181.6 1290.26 1183.78 1324.29 1181.94C1257.19 1178.16 1190.42 1171.64 1131.04 1153.41C1147.93 1161.46 1164.81 1169.52 1181.7 1177.58Z" fill="white"/>
</g>
</g>
</svg>
