<svg width="464" height="421" viewBox="0 0 464 421" fill="none" xmlns="http://www.w3.org/2000/svg">
<g filter="url(#filter0_f_55_43852)">
<path fill-rule="evenodd" clip-rule="evenodd" d="M87.1998 237.299C87.1998 237.299 124.931 266.644 149.944 253.869C151.154 253.24 152.323 252.595 153.427 251.883C176.455 237.816 175.402 212.66 175.402 212.66L173.409 196.536C173.409 196.536 167.167 222.055 153.649 234.716L153.651 234.735C150.244 238.128 145.912 240.442 141.197 241.385C118.982 245.245 93.3552 224.76 93.3552 224.76C93.3552 224.76 84.7286 225.23 87.1998 237.299Z" fill="#00565F" fill-opacity="0.6"/>
<g style="mix-blend-mode:multiply" opacity="0.74">
<path fill-rule="evenodd" clip-rule="evenodd" d="M153.427 251.882C176.455 237.815 175.402 212.66 175.402 212.66L173.41 196.536C173.41 196.536 167.168 222.055 153.649 234.716L153.652 234.734C154.14 240.444 154.065 246.187 153.427 251.882Z" fill="#00565F" fill-opacity="0.6"/>
</g>
<path fill-rule="evenodd" clip-rule="evenodd" d="M70.4977 245.965C78.1831 246.963 85.9594 244.987 92.2361 240.442L86.55 213.868L67.7854 213.845L70.4977 245.965Z" fill="#00565F" fill-opacity="0.6"/>
<path fill-rule="evenodd" clip-rule="evenodd" d="M343.411 317.148L382.069 312.37C382.069 312.37 371.415 186.211 337.38 36.943C337.38 36.943 283.277 20.3181 241.648 25.4628L343.411 317.148Z" fill="#00565F" fill-opacity="0.6"/>
<path fill-rule="evenodd" clip-rule="evenodd" d="M343.411 317.148C343.411 317.148 331.587 151.842 303.803 38.3181C303.803 38.3181 240.884 -1.91109 169.845 57.6476C169.845 57.6476 158.318 206.363 182.438 334.766C182.438 334.766 257.056 358.499 343.411 317.148Z" fill="#00565F" fill-opacity="0.6"/>
<path fill-rule="evenodd" clip-rule="evenodd" d="M182.438 334.766C182.438 334.766 290.296 367.383 382.069 312.37L343.411 317.148C343.411 317.148 295.816 336.851 269.23 338.749C240.242 340.777 211.118 339.441 182.438 334.766Z" fill="#00565F" fill-opacity="0.6"/>
<path fill-rule="evenodd" clip-rule="evenodd" d="M314.996 338.34C314.996 338.34 315.025 403.222 283.933 395.696L305.069 339.566L314.996 338.34Z" fill="#00565F" fill-opacity="0.6"/>
<path fill-rule="evenodd" clip-rule="evenodd" d="M304.655 336.216C304.655 336.216 306.985 395.104 283.933 395.696C260.882 396.288 249.186 332.669 249.186 332.669C249.186 332.669 263.678 327.551 304.655 336.216Z" fill="#00565F" fill-opacity="0.6"/>
<path fill-rule="evenodd" clip-rule="evenodd" d="M337.38 36.9425L303.803 38.3176C303.803 38.3176 280.282 22.125 241.648 25.4623C241.648 25.4623 282.687 19.8205 337.38 36.9425Z" fill="#00565F" fill-opacity="0.6"/>
<path fill-rule="evenodd" clip-rule="evenodd" d="M403.948 156.212C400.481 152.045 399.817 144.257 390.429 139.26C390.429 139.26 387.161 134.802 392.113 130.713C396.873 132.128 401.23 134.65 404.827 138.074C404.827 138.074 404.619 124.908 404.686 110.896C405.754 110.107 406.992 109.58 408.3 109.356C409.609 109.132 410.951 109.218 412.221 109.607L414.427 125.109L418.839 107.244C418.839 107.244 425.235 103.14 430.362 109.873L430.273 125.412L433.096 117.121C433.096 117.121 438.321 115.539 439.111 121.062L435.896 136.206C435.896 136.206 434.568 157.824 421.284 166.032C421.284 166.032 407.134 160.041 403.948 156.212Z" fill="#00565F" fill-opacity="0.6"/>
<path fill-rule="evenodd" clip-rule="evenodd" d="M329.666 184.894C329.666 184.894 313.643 74.4691 296.785 43.942C296.785 43.942 278.654 25.2032 241.648 25.4628C241.648 25.4628 276.714 21.1763 303.803 38.3181C317.524 86.1383 326.193 135.266 329.666 184.894Z" fill="#00565F" fill-opacity="0.6"/>
<g style="mix-blend-mode:soft-light" opacity="0.5">
<path fill-rule="evenodd" clip-rule="evenodd" d="M210.705 33.7399L216.148 164.603L167.085 170.666C167.085 170.666 165.247 93.4866 169.845 57.648C169.845 57.648 184.63 41.3651 210.705 33.7399Z" fill="#00565F" fill-opacity="0.6"/>
</g>
<g style="mix-blend-mode:multiply" opacity="0.74">
<path fill-rule="evenodd" clip-rule="evenodd" d="M313.397 358.249L305.09 355.598L253.614 351.067L249.186 332.669C268.276 335.373 283.256 334.979 305.069 339.567L314.996 338.34L313.397 358.249Z" fill="#00565F" fill-opacity="0.6"/>
</g>
<path fill-rule="evenodd" clip-rule="evenodd" d="M303.069 142.607C303.069 142.607 291.801 129.221 273.817 130.483L274.774 138.234C283.131 138.024 291.378 140.168 298.573 144.422L303.069 142.607Z" fill="#00565F" fill-opacity="0.6"/>
<path fill-rule="evenodd" clip-rule="evenodd" d="M192.131 177.977C200.514 174.81 208.158 169.956 214.588 163.715L215.546 171.466C215.546 171.466 208.188 177.351 195.414 180.014L192.131 177.977Z" fill="#00565F" fill-opacity="0.6"/>
<g style="mix-blend-mode:soft-light">
<path fill-rule="evenodd" clip-rule="evenodd" d="M303.803 38.3183L307.58 51.4014L280.053 28.7834C290.425 30.0522 303.803 38.3183 303.803 38.3183Z" fill="#00565F" fill-opacity="0.6"/>
</g>
<path fill-rule="evenodd" clip-rule="evenodd" d="M236.78 26.1139C236.78 26.1139 196.032 31.15 175.49 61.5487C175.49 61.5487 163.262 132.611 168.281 201.94C168.281 201.94 163.467 112.76 169.845 57.6476C169.845 57.6476 194.394 32.9535 236.78 26.1139Z" fill="#00565F" fill-opacity="0.6"/>
<g style="mix-blend-mode:screen">
<path fill-rule="evenodd" clip-rule="evenodd" d="M382.069 312.37C382.069 312.37 366.09 152.726 337.38 36.9427L321.728 37.8323C321.728 37.8323 348.348 164.407 362.995 314.096L382.069 312.37Z" fill="#00565F" fill-opacity="0.6"/>
</g>
<g style="mix-blend-mode:soft-light" opacity="0.5">
<path fill-rule="evenodd" clip-rule="evenodd" d="M337.605 252.999L179.636 318.8L182.438 334.766C182.438 334.766 262.518 360.551 343.411 317.148C343.279 295.64 341.337 274.181 337.605 252.999Z" fill="#00565F" fill-opacity="0.6"/>
</g>
<g style="mix-blend-mode:multiply" opacity="0.5">
<path fill-rule="evenodd" clip-rule="evenodd" d="M404.827 138.074C404.827 138.074 413.258 141.176 417.832 147.901C417.832 147.901 425.086 148.137 429.775 146.47C434.465 144.804 433.526 136.152 433.526 136.152C433.526 136.152 425.32 126.523 408.39 131.635L404.827 138.074Z" fill="#00565F" fill-opacity="0.6"/>
</g>
<path fill-rule="evenodd" clip-rule="evenodd" d="M376.654 262.548C376.654 262.548 365.246 260.246 359.12 277.349C352.994 294.453 341.641 293.934 337.92 291.032C334.199 288.129 334.175 283.894 330.809 281.025C327.442 278.156 310.65 296.964 272.497 315.129C234.344 333.294 223.327 322.486 218.004 321.863C212.68 321.24 217.655 334.864 207.534 336.607C197.413 338.349 200.17 325.668 196.668 323.539C193.167 321.41 182.438 334.766 182.438 334.766C182.438 334.766 225.795 350.037 287.385 342.908C348.974 335.779 382.069 312.37 382.069 312.37L376.654 262.548Z" fill="#00565F" fill-opacity="0.6"/>
<g style="mix-blend-mode:multiply" opacity="0.4">
<path fill-rule="evenodd" clip-rule="evenodd" d="M341.385 292.426L343.411 317.148C343.411 317.148 281.039 358.261 182.439 334.766C182.439 334.766 221.475 351.049 292.292 342.297C363.109 333.545 382.069 312.37 382.069 312.37L376.654 262.548C376.654 262.548 367.405 260.148 362.199 270.809C356.993 281.469 353.883 289.823 341.385 292.426Z" fill="#00565F" fill-opacity="0.6"/>
</g>
<g style="mix-blend-mode:multiply" opacity="0.74">
<path fill-rule="evenodd" clip-rule="evenodd" d="M376.126 262.613C376.126 262.613 366.099 263.532 362.103 275.715C358.108 287.897 356.228 297.821 346.738 299.221C337.247 300.622 332.409 283.752 328.726 283.362C325.044 282.972 293.762 313.984 266.703 324.352C239.644 334.721 221.451 323.01 218.31 324.042C215.169 325.074 216.588 335.144 211.04 337.775C204.76 340.753 199.922 338.499 198.299 335.082C196.675 331.665 198.247 326.241 195.871 325.159C193.496 324.078 182.438 334.766 182.438 334.766L182.173 332.616C182.173 332.616 191.591 320.645 196.763 321.687C201.936 322.729 198.492 332.761 203.975 333.404C209.459 334.048 212.205 326.143 214.091 320.026C215.977 313.908 228.849 325.398 246.156 320.601C280.803 310.996 323.703 274.456 329.577 274.05C335.451 273.644 333.104 288.985 346.5 286.609C354.636 285.166 358.895 257.858 376.126 262.613Z" fill="#00565F" fill-opacity="0.6"/>
</g>
<g style="mix-blend-mode:soft-light">
<path fill-rule="evenodd" clip-rule="evenodd" d="M261.859 314.794C261.859 314.794 248.294 321.47 237.747 321.798C227.2 322.127 221.681 319.094 221.681 319.094C221.681 319.094 226.23 320.113 239.46 319.305C247.107 318.903 254.654 317.384 261.859 314.794Z" fill="#00565F" fill-opacity="0.6"/>
</g>
<g style="mix-blend-mode:soft-light">
<path fill-rule="evenodd" clip-rule="evenodd" d="M281.872 304.355C281.872 304.355 268.903 305.487 268.141 311.825C268.141 311.825 278.719 306.226 281.872 304.355Z" fill="#00565F" fill-opacity="0.6"/>
</g>
<g style="mix-blend-mode:multiply" opacity="0.74">
<path fill-rule="evenodd" clip-rule="evenodd" d="M382.069 312.37L343.411 317.148C343.411 317.148 323.52 332.836 271.649 340.21C219.778 347.583 182.438 334.766 182.438 334.766C182.438 334.766 225.48 349.84 283.212 343.433C356.762 335.269 382.069 312.37 382.069 312.37Z" fill="#00565F" fill-opacity="0.6"/>
</g>
<g style="mix-blend-mode:soft-light">
<path fill-rule="evenodd" clip-rule="evenodd" d="M359.619 269.841C359.619 269.841 354.317 281.879 348.909 285.39C348.909 285.39 349.641 274.437 359.619 269.841Z" fill="#00565F" fill-opacity="0.6"/>
</g>
<path fill-rule="evenodd" clip-rule="evenodd" d="M183.313 215.389C183.313 215.389 204.862 203.447 228.176 209.845L227.82 206.959C227.82 206.959 202.153 193.608 183.136 213.349L183.313 215.389Z" fill="#00565F" fill-opacity="0.6"/>
<path fill-rule="evenodd" clip-rule="evenodd" d="M265.691 205.209C265.691 205.209 287.239 193.266 310.554 199.664L310.197 196.778C310.197 196.778 284.53 183.427 265.513 203.168L265.691 205.209Z" fill="#00565F" fill-opacity="0.6"/>
<path fill-rule="evenodd" clip-rule="evenodd" d="M225.751 224.713C221.771 229.628 235.116 248.145 250.301 246.269C267.423 244.153 271.58 225.345 269.768 219.274C267.955 213.203 254.265 220.892 245.772 221.942C237.278 222.991 229.265 220.375 225.751 224.713Z" fill="#00565F" fill-opacity="0.6"/>
<path fill-rule="evenodd" clip-rule="evenodd" d="M226.274 231.563C229.546 233.695 232.788 234.356 237.091 234.796C234.283 235.517 231.36 235.665 228.494 235.23C227.64 234.081 226.896 232.853 226.274 231.563Z" fill="#00565F" fill-opacity="0.6"/>
<path fill-rule="evenodd" clip-rule="evenodd" d="M258.528 232.109C258.528 232.109 265.386 230.793 269.829 226.18C269.79 227.614 269.436 229.022 268.792 230.303C265.439 231.244 262 231.849 258.528 232.109Z" fill="#00565F" fill-opacity="0.6"/>
<path fill-rule="evenodd" clip-rule="evenodd" d="M231.775 238.967C231.775 238.967 240.108 250.881 250.769 250.138C261.43 249.395 267.883 232.642 267.883 232.642C267.883 232.642 261.294 246.133 250.301 246.269C243.443 246.173 236.855 243.576 231.775 238.967Z" fill="#00565F" fill-opacity="0.6"/>
<path fill-rule="evenodd" clip-rule="evenodd" d="M344.288 188.691C344.288 188.691 336.837 187.464 341.786 200.134C341.786 200.134 361.627 222.114 383.184 219.477C408.656 216.36 421.284 166.032 421.284 166.032L409.247 159.152C409.247 159.152 402.809 194.625 381.965 202.531C363.607 209.495 344.288 188.691 344.288 188.691Z" fill="#00565F" fill-opacity="0.6"/>
<path fill-rule="evenodd" clip-rule="evenodd" d="M96.7646 227.255L92.6711 211.809C92.6711 211.809 77.6456 210.543 70.8799 205.414C70.8799 205.414 67.025 210.02 69.851 215.112C69.851 215.112 76.1411 220.651 81.5847 220.658C81.4554 223.069 81.8429 225.478 82.7212 227.726C83.5996 229.975 84.9484 232.009 86.6773 233.693C87.7643 233.975 88.8978 234.03 90.007 233.854C91.1162 233.678 92.1772 233.276 93.1238 232.672C94.0704 232.067 94.8823 231.275 95.5087 230.343C96.1352 229.41 96.5627 228.359 96.7646 227.255Z" fill="#00565F" fill-opacity="0.6"/>
<path fill-rule="evenodd" clip-rule="evenodd" d="M77.0896 223.828L33.67 73.8367L27.3231 58.0317L29.4348 74.4613L72.5125 223.965L77.0896 223.828Z" fill="#00565F" fill-opacity="0.6"/>
<path fill-rule="evenodd" clip-rule="evenodd" d="M56.0175 214.512C53.9707 217.669 54.3922 219.348 55.8103 221.952L59.3553 224.293L63.6265 240.815L61.159 242.523C60.9518 243.813 61.0375 245.133 61.4099 246.386C61.7823 247.639 62.4318 248.791 63.3103 249.759C68.1755 249.569 72.9051 248.102 77.024 245.506C76.8214 242.749 75.9573 240.082 74.5048 237.731L78.8104 235.862C78.8104 235.862 79.6243 229.087 73.5647 219.412L71.3547 219.288C71.3547 219.288 73.9259 213.737 70.0218 209.935L56.0175 214.512Z" fill="#00565F" fill-opacity="0.6"/>
<g style="mix-blend-mode:multiply" opacity="0.74">
<path fill-rule="evenodd" clip-rule="evenodd" d="M59.3548 224.292L71.3543 219.287L57.6027 223.135L59.3548 224.292Z" fill="#00565F" fill-opacity="0.6"/>
</g>
<g style="mix-blend-mode:multiply" opacity="0.74">
<path fill-rule="evenodd" clip-rule="evenodd" d="M74.8511 238.361L63.6261 240.815L78.8105 235.862L74.8511 238.361Z" fill="#00565F" fill-opacity="0.6"/>
</g>
<path opacity="0.55" fill-rule="evenodd" clip-rule="evenodd" d="M197.652 248.788C178.962 253.212 167.712 239.18 161.75 223.668C156.239 209.386 155.214 193.838 156.882 190.23C159.683 184.253 190.885 177.479 209.034 177.787C214.259 177.853 218.412 178.536 220.498 179.979C229.842 186.408 233.561 240.305 197.652 248.788Z" fill="#00565F" fill-opacity="0.6"/>
<path opacity="0.55" fill-rule="evenodd" clip-rule="evenodd" d="M300.765 236.022C284.621 239.672 273.695 231.783 266.691 220.674C256.635 204.771 254.641 182.309 256.939 177.843C260.093 171.753 294.829 164.564 314.529 164.773C319.964 164.859 324.247 165.479 326.44 166.863C336.531 173.201 340.001 227.128 300.765 236.022Z" fill="#00565F" fill-opacity="0.6"/>
<path fill-rule="evenodd" clip-rule="evenodd" d="M328.798 169.395C328.798 169.395 365.422 173.388 370.459 176.954C375.497 180.52 376.659 191.472 376.659 191.472L373.075 191.915C373.075 191.915 373.101 182.833 368.926 180.042C364.75 177.252 358.361 181.348 358.361 181.348L332.216 179.157C332.216 179.157 331.161 171.935 328.798 169.395Z" fill="#00565F" fill-opacity="0.6"/>
<path fill-rule="evenodd" clip-rule="evenodd" d="M197.657 248.782C197.657 248.782 213.657 248.189 225.088 227.827C236.52 207.464 228.185 183.32 227.188 181.652C226.192 179.984 214.501 178.144 214.501 178.144C214.501 178.144 219.961 179.057 221.418 180.96C222.874 182.863 230.068 206.789 222.952 225.596C215.924 244.169 197.657 248.782 197.657 248.782Z" fill="#00565F" fill-opacity="0.6"/>
<path fill-rule="evenodd" clip-rule="evenodd" d="M300.779 236.037C300.779 236.037 316.778 235.445 328.21 215.082C339.642 194.719 331.184 169.689 330.188 168.02C329.191 166.352 318.602 164.969 318.602 164.969C318.602 164.969 323.566 165.387 325.022 167.29C326.478 169.193 332.745 193.881 326.074 212.852C318.691 233.846 300.779 236.037 300.779 236.037Z" fill="#00565F" fill-opacity="0.6"/>
<g style="mix-blend-mode:soft-light">
<path fill-rule="evenodd" clip-rule="evenodd" d="M209.034 177.787L161.75 223.667C156.239 209.386 155.214 193.838 156.882 190.23C159.683 184.253 190.885 177.478 209.034 177.787Z" fill="#00565F" fill-opacity="0.6"/>
</g>
<g style="mix-blend-mode:soft-light">
<path fill-rule="evenodd" clip-rule="evenodd" d="M314.529 164.772L266.691 220.673C256.635 204.771 254.641 182.309 256.939 177.842C260.093 171.752 294.829 164.564 314.529 164.772Z" fill="#00565F" fill-opacity="0.6"/>
</g>
<path fill-rule="evenodd" clip-rule="evenodd" d="M219.523 187.569C219.523 187.569 238.653 179.489 258.445 182.758L258.919 186.592C258.919 186.592 242.383 183.461 220.653 191.322L219.523 187.569Z" fill="#00565F" fill-opacity="0.6"/>
</g>
<path fill-rule="evenodd" clip-rule="evenodd" d="M78.1998 237.299C78.1998 237.299 115.931 266.644 140.944 253.869C142.154 253.24 143.323 252.595 144.427 251.883C167.455 237.816 166.402 212.66 166.402 212.66L164.409 196.536C164.409 196.536 158.167 222.055 144.649 234.716L144.651 234.735C141.244 238.128 136.912 240.442 132.197 241.385C109.982 245.245 84.3552 224.76 84.3552 224.76C84.3552 224.76 75.7286 225.23 78.1998 237.299Z" fill="url(#paint0_linear_55_43852)"/>
<path style="mix-blend-mode:multiply" opacity="0.74" fill-rule="evenodd" clip-rule="evenodd" d="M144.427 251.882C167.455 237.815 166.402 212.66 166.402 212.66L164.41 196.536C164.41 196.536 158.168 222.055 144.649 234.716L144.652 234.734C145.14 240.444 145.065 246.187 144.427 251.882Z" fill="url(#paint1_linear_55_43852)"/>
<path fill-rule="evenodd" clip-rule="evenodd" d="M61.4977 245.965C69.1831 246.963 76.9594 244.987 83.2361 240.442L77.55 213.868L58.7854 213.845L61.4977 245.965Z" fill="url(#paint2_linear_55_43852)"/>
<path fill-rule="evenodd" clip-rule="evenodd" d="M334.411 317.148L373.069 312.37C373.069 312.37 362.415 186.211 328.38 36.943C328.38 36.943 274.277 20.3181 232.648 25.4628L334.411 317.148Z" fill="url(#paint3_linear_55_43852)"/>
<path fill-rule="evenodd" clip-rule="evenodd" d="M334.411 317.148C334.411 317.148 322.587 151.842 294.803 38.3181C294.803 38.3181 231.884 -1.91109 160.845 57.6476C160.845 57.6476 149.318 206.363 173.438 334.766C173.438 334.766 248.056 358.499 334.411 317.148Z" fill="url(#paint4_radial_55_43852)"/>
<path fill-rule="evenodd" clip-rule="evenodd" d="M173.438 334.766C173.438 334.766 281.296 367.383 373.069 312.37L334.411 317.148C334.411 317.148 286.816 336.851 260.23 338.749C231.242 340.777 202.118 339.441 173.438 334.766Z" fill="#24000A"/>
<path fill-rule="evenodd" clip-rule="evenodd" d="M305.996 338.34C305.996 338.34 306.025 403.222 274.933 395.696L296.069 339.566L305.996 338.34Z" fill="url(#paint5_linear_55_43852)"/>
<path fill-rule="evenodd" clip-rule="evenodd" d="M295.655 336.216C295.655 336.216 297.985 395.104 274.933 395.696C251.882 396.288 240.186 332.669 240.186 332.669C240.186 332.669 254.678 327.551 295.655 336.216Z" fill="url(#paint6_linear_55_43852)"/>
<path fill-rule="evenodd" clip-rule="evenodd" d="M328.38 36.9425L294.803 38.3176C294.803 38.3176 271.282 22.125 232.648 25.4623C232.648 25.4623 273.687 19.8205 328.38 36.9425Z" fill="url(#paint7_linear_55_43852)"/>
<path fill-rule="evenodd" clip-rule="evenodd" d="M394.948 156.212C391.481 152.045 390.817 144.257 381.429 139.26C381.429 139.26 378.161 134.802 383.113 130.713C387.873 132.128 392.23 134.65 395.827 138.074C395.827 138.074 395.619 124.908 395.686 110.896C396.754 110.107 397.992 109.58 399.3 109.356C400.609 109.132 401.951 109.218 403.221 109.607L405.427 125.109L409.839 107.244C409.839 107.244 416.235 103.14 421.362 109.873L421.273 125.412L424.096 117.121C424.096 117.121 429.321 115.539 430.111 121.062L426.896 136.206C426.896 136.206 425.568 157.824 412.284 166.032C412.284 166.032 398.134 160.041 394.948 156.212Z" fill="url(#paint8_linear_55_43852)"/>
<path fill-rule="evenodd" clip-rule="evenodd" d="M320.666 184.894C320.666 184.894 304.643 74.4691 287.785 43.942C287.785 43.942 269.654 25.2032 232.648 25.4628C232.648 25.4628 267.714 21.1763 294.803 38.3181C308.524 86.1383 317.193 135.266 320.666 184.894Z" fill="url(#paint9_linear_55_43852)"/>
<g style="mix-blend-mode:soft-light" opacity="0.5">
<path fill-rule="evenodd" clip-rule="evenodd" d="M201.705 33.7399L207.148 164.603L158.085 170.666C158.085 170.666 156.247 93.4866 160.845 57.648C160.845 57.648 175.63 41.3651 201.705 33.7399Z" fill="#C2A9A9"/>
</g>
<path style="mix-blend-mode:multiply" opacity="0.74" fill-rule="evenodd" clip-rule="evenodd" d="M304.397 358.249L296.09 355.598L244.614 351.067L240.186 332.669C259.276 335.373 274.256 334.979 296.069 339.567L305.996 338.34L304.397 358.249Z" fill="url(#paint10_linear_55_43852)"/>
<path fill-rule="evenodd" clip-rule="evenodd" d="M294.069 142.607C294.069 142.607 282.801 129.221 264.817 130.483L265.774 138.234C274.131 138.024 282.378 140.168 289.573 144.422L294.069 142.607Z" fill="url(#paint11_linear_55_43852)"/>
<path fill-rule="evenodd" clip-rule="evenodd" d="M183.131 177.977C191.514 174.81 199.158 169.956 205.588 163.715L206.546 171.466C206.546 171.466 199.188 177.351 186.414 180.014L183.131 177.977Z" fill="url(#paint12_linear_55_43852)"/>
<g style="mix-blend-mode:soft-light">
<path fill-rule="evenodd" clip-rule="evenodd" d="M294.803 38.3183L298.58 51.4014L271.053 28.7834C281.425 30.0522 294.803 38.3183 294.803 38.3183Z" fill="white"/>
</g>
<path fill-rule="evenodd" clip-rule="evenodd" d="M227.78 26.1139C227.78 26.1139 187.032 31.15 166.49 61.5487C166.49 61.5487 154.262 132.611 159.281 201.94C159.281 201.94 154.467 112.76 160.845 57.6476C160.845 57.6476 185.394 32.9535 227.78 26.1139Z" fill="url(#paint13_linear_55_43852)"/>
<path style="mix-blend-mode:screen" fill-rule="evenodd" clip-rule="evenodd" d="M373.069 312.37C373.069 312.37 357.09 152.726 328.38 36.9427L312.728 37.8323C312.728 37.8323 339.348 164.407 353.995 314.096L373.069 312.37Z" fill="url(#paint14_linear_55_43852)"/>
<g style="mix-blend-mode:soft-light" opacity="0.5">
<path fill-rule="evenodd" clip-rule="evenodd" d="M328.605 252.999L170.636 318.8L173.438 334.766C173.438 334.766 253.518 360.551 334.411 317.148C334.279 295.64 332.337 274.181 328.605 252.999Z" fill="#C2A9A9"/>
</g>
<path style="mix-blend-mode:multiply" opacity="0.5" fill-rule="evenodd" clip-rule="evenodd" d="M395.827 138.074C395.827 138.074 404.258 141.176 408.832 147.901C408.832 147.901 416.086 148.137 420.775 146.47C425.465 144.804 424.526 136.152 424.526 136.152C424.526 136.152 416.32 126.523 399.39 131.635L395.827 138.074Z" fill="url(#paint15_linear_55_43852)"/>
<path fill-rule="evenodd" clip-rule="evenodd" d="M367.654 262.548C367.654 262.548 356.246 260.246 350.12 277.349C343.994 294.453 332.641 293.934 328.92 291.032C325.199 288.129 325.175 283.894 321.809 281.025C318.442 278.156 301.65 296.964 263.497 315.129C225.344 333.294 214.327 322.486 209.004 321.863C203.68 321.24 208.655 334.864 198.534 336.607C188.413 338.349 191.17 325.668 187.668 323.539C184.167 321.41 173.438 334.766 173.438 334.766C173.438 334.766 216.795 350.037 278.385 342.908C339.974 335.779 373.069 312.37 373.069 312.37L367.654 262.548Z" fill="url(#paint16_radial_55_43852)"/>
<path style="mix-blend-mode:multiply" opacity="0.4" fill-rule="evenodd" clip-rule="evenodd" d="M332.385 292.426L334.411 317.148C334.411 317.148 272.039 358.261 173.439 334.766C173.439 334.766 212.475 351.049 283.292 342.297C354.109 333.545 373.069 312.37 373.069 312.37L367.654 262.548C367.654 262.548 358.405 260.148 353.199 270.809C347.993 281.469 344.883 289.823 332.385 292.426Z" fill="url(#paint17_linear_55_43852)"/>
<path style="mix-blend-mode:multiply" opacity="0.74" fill-rule="evenodd" clip-rule="evenodd" d="M367.126 262.613C367.126 262.613 357.099 263.532 353.103 275.715C349.108 287.897 347.228 297.821 337.738 299.221C328.247 300.622 323.409 283.752 319.726 283.362C316.044 282.972 284.762 313.984 257.703 324.352C230.644 334.721 212.451 323.01 209.31 324.042C206.169 325.074 207.588 335.144 202.04 337.775C195.76 340.753 190.922 338.499 189.299 335.082C187.675 331.665 189.247 326.241 186.871 325.159C184.496 324.078 173.438 334.766 173.438 334.766L173.173 332.616C173.173 332.616 182.591 320.645 187.763 321.687C192.936 322.729 189.492 332.761 194.975 333.404C200.459 334.048 203.205 326.143 205.091 320.026C206.977 313.908 219.849 325.398 237.156 320.601C271.803 310.996 314.703 274.456 320.577 274.05C326.451 273.644 324.104 288.985 337.5 286.609C345.636 285.166 349.895 257.858 367.126 262.613Z" fill="url(#paint18_linear_55_43852)"/>
<g style="mix-blend-mode:soft-light">
<path fill-rule="evenodd" clip-rule="evenodd" d="M252.859 314.794C252.859 314.794 239.294 321.47 228.747 321.798C218.2 322.127 212.681 319.094 212.681 319.094C212.681 319.094 217.23 320.113 230.46 319.305C238.107 318.903 245.654 317.384 252.859 314.794Z" fill="white"/>
</g>
<g style="mix-blend-mode:soft-light">
<path fill-rule="evenodd" clip-rule="evenodd" d="M272.872 304.355C272.872 304.355 259.903 305.487 259.141 311.825C259.141 311.825 269.719 306.226 272.872 304.355Z" fill="white"/>
</g>
<path style="mix-blend-mode:multiply" opacity="0.74" fill-rule="evenodd" clip-rule="evenodd" d="M373.069 312.37L334.411 317.148C334.411 317.148 314.52 332.836 262.649 340.21C210.778 347.583 173.438 334.766 173.438 334.766C173.438 334.766 216.48 349.84 274.212 343.433C347.762 335.269 373.069 312.37 373.069 312.37Z" fill="url(#paint19_linear_55_43852)"/>
<g style="mix-blend-mode:soft-light">
<path fill-rule="evenodd" clip-rule="evenodd" d="M350.619 269.841C350.619 269.841 345.317 281.879 339.909 285.39C339.909 285.39 340.641 274.437 350.619 269.841Z" fill="white"/>
</g>
<path fill-rule="evenodd" clip-rule="evenodd" d="M174.313 215.389C174.313 215.389 195.862 203.447 219.176 209.845L218.82 206.959C218.82 206.959 193.153 193.608 174.136 213.349L174.313 215.389Z" fill="url(#paint20_radial_55_43852)"/>
<path fill-rule="evenodd" clip-rule="evenodd" d="M256.691 205.209C256.691 205.209 278.239 193.266 301.554 199.664L301.197 196.778C301.197 196.778 275.53 183.427 256.513 203.168L256.691 205.209Z" fill="url(#paint21_radial_55_43852)"/>
<path fill-rule="evenodd" clip-rule="evenodd" d="M216.751 224.713C212.771 229.628 226.116 248.145 241.301 246.269C258.423 244.153 262.58 225.345 260.768 219.274C258.955 213.203 245.265 220.892 236.772 221.942C228.278 222.991 220.265 220.375 216.751 224.713Z" fill="url(#paint22_radial_55_43852)"/>
<path fill-rule="evenodd" clip-rule="evenodd" d="M217.274 231.563C220.546 233.695 223.788 234.356 228.091 234.796C225.283 235.517 222.36 235.665 219.494 235.23C218.64 234.081 217.896 232.853 217.274 231.563Z" fill="url(#paint23_radial_55_43852)"/>
<path fill-rule="evenodd" clip-rule="evenodd" d="M249.528 232.109C249.528 232.109 256.386 230.793 260.829 226.18C260.79 227.614 260.436 229.022 259.792 230.303C256.439 231.244 253 231.849 249.528 232.109Z" fill="url(#paint24_radial_55_43852)"/>
<path fill-rule="evenodd" clip-rule="evenodd" d="M222.775 238.967C222.775 238.967 231.108 250.881 241.769 250.138C252.43 249.395 258.883 232.642 258.883 232.642C258.883 232.642 252.294 246.133 241.301 246.269C234.443 246.173 227.855 243.576 222.775 238.967Z" fill="url(#paint25_radial_55_43852)"/>
<path fill-rule="evenodd" clip-rule="evenodd" d="M335.288 188.691C335.288 188.691 327.837 187.464 332.786 200.134C332.786 200.134 352.627 222.114 374.184 219.477C399.656 216.36 412.284 166.032 412.284 166.032L400.247 159.152C400.247 159.152 393.809 194.625 372.965 202.531C354.607 209.495 335.288 188.691 335.288 188.691Z" fill="url(#paint26_linear_55_43852)"/>
<path fill-rule="evenodd" clip-rule="evenodd" d="M87.7646 227.255L83.6711 211.809C83.6711 211.809 68.6456 210.543 61.8799 205.414C61.8799 205.414 58.025 210.02 60.851 215.112C60.851 215.112 67.1411 220.651 72.5847 220.658C72.4554 223.069 72.8429 225.478 73.7212 227.726C74.5996 229.975 75.9484 232.009 77.6773 233.693C78.7643 233.975 79.8978 234.03 81.007 233.854C82.1162 233.678 83.1772 233.276 84.1238 232.672C85.0704 232.067 85.8823 231.275 86.5087 230.343C87.1352 229.41 87.5627 228.359 87.7646 227.255Z" fill="url(#paint27_linear_55_43852)"/>
<path fill-rule="evenodd" clip-rule="evenodd" d="M68.0896 223.828L24.67 73.8367L18.3231 58.0317L20.4348 74.4613L63.5125 223.965L68.0896 223.828Z" fill="url(#paint28_linear_55_43852)"/>
<path fill-rule="evenodd" clip-rule="evenodd" d="M47.0175 214.512C44.9707 217.669 45.3922 219.348 46.8103 221.952L50.3553 224.293L54.6265 240.815L52.159 242.523C51.9518 243.813 52.0375 245.133 52.4099 246.386C52.7823 247.639 53.4318 248.791 54.3103 249.759C59.1755 249.569 63.9051 248.102 68.024 245.506C67.8214 242.749 66.9573 240.082 65.5048 237.731L69.8104 235.862C69.8104 235.862 70.6243 229.087 64.5647 219.412L62.3547 219.288C62.3547 219.288 64.9259 213.737 61.0218 209.935L47.0175 214.512Z" fill="url(#paint29_linear_55_43852)"/>
<path style="mix-blend-mode:multiply" opacity="0.74" fill-rule="evenodd" clip-rule="evenodd" d="M50.3548 224.292L62.3543 219.287L48.6027 223.135L50.3548 224.292Z" fill="url(#paint30_linear_55_43852)"/>
<path style="mix-blend-mode:multiply" opacity="0.74" fill-rule="evenodd" clip-rule="evenodd" d="M65.8511 238.361L54.6261 240.815L69.8105 235.862L65.8511 238.361Z" fill="url(#paint31_linear_55_43852)"/>
<path opacity="0.55" fill-rule="evenodd" clip-rule="evenodd" d="M188.652 248.788C169.962 253.212 158.712 239.18 152.75 223.668C147.239 209.386 146.214 193.838 147.882 190.23C150.683 184.253 181.885 177.479 200.034 177.787C205.259 177.853 209.412 178.536 211.498 179.979C220.842 186.408 224.561 240.305 188.652 248.788Z" fill="url(#paint32_radial_55_43852)"/>
<path opacity="0.55" fill-rule="evenodd" clip-rule="evenodd" d="M291.765 236.022C275.621 239.672 264.695 231.783 257.691 220.674C247.635 204.771 245.641 182.309 247.939 177.843C251.093 171.753 285.829 164.564 305.529 164.773C310.964 164.859 315.247 165.479 317.44 166.863C327.531 173.201 331.001 227.128 291.765 236.022Z" fill="url(#paint33_radial_55_43852)"/>
<path fill-rule="evenodd" clip-rule="evenodd" d="M319.798 169.395C319.798 169.395 356.422 173.388 361.459 176.954C366.497 180.52 367.659 191.472 367.659 191.472L364.075 191.915C364.075 191.915 364.101 182.833 359.926 180.042C355.75 177.252 349.361 181.348 349.361 181.348L323.216 179.157C323.216 179.157 322.161 171.935 319.798 169.395Z" fill="url(#paint34_linear_55_43852)"/>
<path fill-rule="evenodd" clip-rule="evenodd" d="M188.657 248.782C188.657 248.782 204.657 248.189 216.088 227.827C227.52 207.464 219.185 183.32 218.188 181.652C217.192 179.984 205.501 178.144 205.501 178.144C205.501 178.144 210.961 179.057 212.418 180.96C213.874 182.863 221.068 206.789 213.952 225.596C206.924 244.169 188.657 248.782 188.657 248.782Z" fill="url(#paint35_radial_55_43852)"/>
<path fill-rule="evenodd" clip-rule="evenodd" d="M291.779 236.037C291.779 236.037 307.778 235.445 319.21 215.082C330.642 194.719 322.184 169.689 321.188 168.02C320.191 166.352 309.602 164.969 309.602 164.969C309.602 164.969 314.566 165.387 316.022 167.29C317.478 169.193 323.745 193.881 317.074 212.852C309.691 233.846 291.779 236.037 291.779 236.037Z" fill="url(#paint36_radial_55_43852)"/>
<g style="mix-blend-mode:soft-light">
<path fill-rule="evenodd" clip-rule="evenodd" d="M200.034 177.787L152.75 223.667C147.239 209.386 146.214 193.838 147.882 190.23C150.683 184.253 181.885 177.478 200.034 177.787Z" fill="white"/>
</g>
<g style="mix-blend-mode:soft-light">
<path fill-rule="evenodd" clip-rule="evenodd" d="M305.529 164.772L257.691 220.673C247.635 204.771 245.641 182.309 247.939 177.842C251.093 171.752 285.829 164.564 305.529 164.772Z" fill="white"/>
</g>
<path fill-rule="evenodd" clip-rule="evenodd" d="M210.523 187.569C210.523 187.569 229.653 179.489 249.445 182.758L249.919 186.592C249.919 186.592 233.383 183.461 211.653 191.322L210.523 187.569Z" fill="url(#paint37_linear_55_43852)"/>
<defs>
<filter id="filter0_f_55_43852" x="3.32306" y="0.474854" width="459.788" height="419.828" filterUnits="userSpaceOnUse" color-interpolation-filters="sRGB">
<feFlood flood-opacity="0" result="BackgroundImageFix"/>
<feBlend mode="normal" in="SourceGraphic" in2="BackgroundImageFix" result="shape"/>
<feGaussianBlur stdDeviation="12" result="effect1_foregroundBlur_55_43852"/>
</filter>
<linearGradient id="paint0_linear_55_43852" x1="126.27" y1="257.418" x2="119.435" y2="202.093" gradientUnits="userSpaceOnUse">
<stop offset="0.00559" stop-color="#E4798B"/>
<stop offset="0.24664" stop-color="#ED877F"/>
<stop offset="0.7018" stop-color="#FA9C6D"/>
<stop offset="1" stop-color="#FFA466"/>
</linearGradient>
<linearGradient id="paint1_linear_55_43852" x1="157.636" y1="250.25" x2="151.201" y2="198.167" gradientUnits="userSpaceOnUse">
<stop stop-color="#CA528D"/>
<stop offset="1" stop-color="#B3757C"/>
</linearGradient>
<linearGradient id="paint2_linear_55_43852" x1="76.0073" y1="244.384" x2="61.7301" y2="212.525" gradientUnits="userSpaceOnUse">
<stop offset="0.00559" stop-color="#E4798B"/>
<stop offset="0.24664" stop-color="#ED877F"/>
<stop offset="0.7018" stop-color="#FA9C6D"/>
<stop offset="1" stop-color="#FFA466"/>
</linearGradient>
<linearGradient id="paint3_linear_55_43852" x1="315.929" y1="166.109" x2="378.189" y2="152.737" gradientUnits="userSpaceOnUse">
<stop offset="0.16536" stop-color="#FF96DD"/>
<stop offset="0.37213" stop-color="#FC8ED9"/>
<stop offset="0.68413" stop-color="#F57ACD"/>
<stop offset="1" stop-color="#EB5EBE"/>
</linearGradient>
<radialGradient id="paint4_radial_55_43852" cx="0" cy="0" r="1" gradientUnits="userSpaceOnUse" gradientTransform="translate(177.364 101.389) rotate(172.953) scale(163.845 204.458)">
<stop offset="0.16536" stop-color="#FF96DD"/>
<stop offset="0.37213" stop-color="#FC8ED9"/>
<stop offset="0.68413" stop-color="#F57ACD"/>
<stop offset="1" stop-color="#EB5EBE"/>
</radialGradient>
<linearGradient id="paint5_linear_55_43852" x1="285.912" y1="397.741" x2="297.065" y2="336.708" gradientUnits="userSpaceOnUse">
<stop stop-color="#C9635C"/>
<stop offset="0.97069" stop-color="#C95B57"/>
<stop offset="0.99441" stop-color="#C95B57"/>
</linearGradient>
<linearGradient id="paint6_linear_55_43852" x1="259.067" y1="393.064" x2="270.324" y2="331.466" gradientUnits="userSpaceOnUse">
<stop stop-color="#FFA466"/>
<stop offset="0.2982" stop-color="#FA9C6D"/>
<stop offset="0.75336" stop-color="#ED877F"/>
<stop offset="0.99441" stop-color="#E4798B"/>
</linearGradient>
<linearGradient id="paint7_linear_55_43852" x1="327.524" y1="78.1106" x2="213.108" y2="-36.0574" gradientUnits="userSpaceOnUse">
<stop stop-color="#FFD9F3"/>
<stop offset="1" stop-color="#FF96DD"/>
</linearGradient>
<linearGradient id="paint8_linear_55_43852" x1="418.423" y1="163.719" x2="398.039" y2="109.672" gradientUnits="userSpaceOnUse">
<stop stop-color="#FFA466"/>
<stop offset="0.2982" stop-color="#FA9C6D"/>
<stop offset="0.75336" stop-color="#ED877F"/>
<stop offset="0.99441" stop-color="#E4798B"/>
</linearGradient>
<linearGradient id="paint9_linear_55_43852" x1="262.78" y1="23.2374" x2="306.456" y2="228.938" gradientUnits="userSpaceOnUse">
<stop stop-color="#FFD9F3"/>
<stop offset="1" stop-color="#E831AC"/>
</linearGradient>
<linearGradient id="paint10_linear_55_43852" x1="305.853" y1="350.286" x2="239.193" y2="338.105" gradientUnits="userSpaceOnUse">
<stop stop-color="#CA528D"/>
<stop offset="1" stop-color="#B3757C"/>
</linearGradient>
<linearGradient id="paint11_linear_55_43852" x1="293.188" y1="135.477" x2="265.851" y2="138.854" gradientUnits="userSpaceOnUse">
<stop offset="0.00559" stop-color="#430900"/>
<stop offset="0.37541" stop-color="#410803"/>
<stop offset="0.6625" stop-color="#39060D"/>
<stop offset="0.92102" stop-color="#2C021D"/>
<stop offset="1" stop-color="#270024"/>
</linearGradient>
<linearGradient id="paint12_linear_55_43852" x1="182.579" y1="173.526" x2="206.434" y2="170.579" gradientUnits="userSpaceOnUse">
<stop offset="0.00559" stop-color="#430900"/>
<stop offset="0.37541" stop-color="#410803"/>
<stop offset="0.6625" stop-color="#39060D"/>
<stop offset="0.92102" stop-color="#2C021D"/>
<stop offset="1" stop-color="#270024"/>
</linearGradient>
<linearGradient id="paint13_linear_55_43852" x1="183.069" y1="101.852" x2="121.53" y2="30.2353" gradientUnits="userSpaceOnUse">
<stop stop-color="#FFD9F3"/>
<stop offset="1" stop-color="#FF96DD"/>
</linearGradient>
<linearGradient id="paint14_linear_55_43852" x1="356.343" y1="173.44" x2="329.886" y2="176.709" gradientUnits="userSpaceOnUse">
<stop stop-color="#512C2C"/>
<stop offset="0.17135" stop-color="#3D2121"/>
<stop offset="0.58991" stop-color="#110909"/>
<stop offset="0.80214"/>
</linearGradient>
<linearGradient id="paint15_linear_55_43852" x1="414.577" y1="148.811" x2="407.016" y2="128.762" gradientUnits="userSpaceOnUse">
<stop stop-color="#CA528D"/>
<stop offset="1" stop-color="#B3757C"/>
</linearGradient>
<radialGradient id="paint16_radial_55_43852" cx="0" cy="0" r="1" gradientUnits="userSpaceOnUse" gradientTransform="translate(306.688 292.452) rotate(172.957) scale(107.421 107.421)">
<stop offset="0.00559" stop-color="white"/>
<stop offset="0.19846" stop-color="#FDFCFC"/>
<stop offset="0.36286" stop-color="#F6F1F3"/>
<stop offset="0.51677" stop-color="#ECE0E5"/>
<stop offset="0.66431" stop-color="#DCC7D0"/>
<stop offset="0.80617" stop-color="#C9A7B6"/>
<stop offset="0.81844" stop-color="#C7A4B3"/>
<stop offset="0.86286" stop-color="#CEA4B4"/>
<stop offset="0.9271" stop-color="#E1A3B8"/>
<stop offset="1" stop-color="#FFA2BD"/>
</radialGradient>
<linearGradient id="paint17_linear_55_43852" x1="371.836" y1="296.391" x2="171.751" y2="321.11" gradientUnits="userSpaceOnUse">
<stop stop-color="#CA528D"/>
<stop offset="1" stop-color="#DDC2C5"/>
</linearGradient>
<linearGradient id="paint18_linear_55_43852" x1="370.437" y1="289.408" x2="170.88" y2="314.062" gradientUnits="userSpaceOnUse">
<stop stop-color="#CA528D"/>
<stop offset="1" stop-color="#B3757C"/>
</linearGradient>
<linearGradient id="paint19_linear_55_43852" x1="374.08" y1="320.552" x2="174.725" y2="345.181" gradientUnits="userSpaceOnUse">
<stop stop-color="#CA528D"/>
<stop offset="1" stop-color="#DDC2C5"/>
</linearGradient>
<radialGradient id="paint20_radial_55_43852" cx="0" cy="0" r="1" gradientUnits="userSpaceOnUse" gradientTransform="translate(196.122 207.685) rotate(-7.0429) scale(16.3642 16.3642)">
<stop offset="0.00559" stop-color="#3B1400"/>
<stop offset="0.37541" stop-color="#391203"/>
<stop offset="0.6625" stop-color="#340D0D"/>
<stop offset="0.92102" stop-color="#2B041D"/>
<stop offset="1" stop-color="#270024"/>
</radialGradient>
<radialGradient id="paint21_radial_55_43852" cx="0" cy="0" r="1" gradientUnits="userSpaceOnUse" gradientTransform="translate(278.498 197.505) rotate(-7.0429) scale(16.3643 16.3643)">
<stop offset="0.00559" stop-color="#3B1400"/>
<stop offset="0.37541" stop-color="#391203"/>
<stop offset="0.6625" stop-color="#340D0D"/>
<stop offset="0.92102" stop-color="#2B041D"/>
<stop offset="1" stop-color="#270024"/>
</radialGradient>
<radialGradient id="paint22_radial_55_43852" cx="0" cy="0" r="1" gradientUnits="userSpaceOnUse" gradientTransform="translate(239.619 232.744) rotate(-7.04566) scale(18.4889 19.5533)">
<stop offset="0.00559" stop-color="white"/>
<stop offset="0.24154" stop-color="#FDFCFC"/>
<stop offset="0.44266" stop-color="#F6F1F3"/>
<stop offset="0.63096" stop-color="#ECE0E5"/>
<stop offset="0.81145" stop-color="#DCC7D0"/>
<stop offset="0.985" stop-color="#C9A7B6"/>
<stop offset="1" stop-color="#C7A4B3"/>
</radialGradient>
<radialGradient id="paint23_radial_55_43852" cx="0" cy="0" r="1" gradientUnits="userSpaceOnUse" gradientTransform="translate(222.679 233.262) rotate(-7.04292) scale(4.01437 4.01437)">
<stop offset="0.00559" stop-color="#3B1400"/>
<stop offset="0.37541" stop-color="#391203"/>
<stop offset="0.6625" stop-color="#340D0D"/>
<stop offset="0.92102" stop-color="#2B041D"/>
<stop offset="1" stop-color="#270024"/>
</radialGradient>
<radialGradient id="paint24_radial_55_43852" cx="0" cy="0" r="1" gradientUnits="userSpaceOnUse" gradientTransform="translate(255.167 229.167) rotate(-7.04291) scale(4.51648 4.51648)">
<stop offset="0.00559" stop-color="#3B1400"/>
<stop offset="0.37541" stop-color="#391203"/>
<stop offset="0.6625" stop-color="#340D0D"/>
<stop offset="0.92102" stop-color="#2B041D"/>
<stop offset="1" stop-color="#270024"/>
</radialGradient>
<radialGradient id="paint25_radial_55_43852" cx="0" cy="0" r="1" gradientUnits="userSpaceOnUse" gradientTransform="translate(241.639 242.472) rotate(-7.0429) scale(14.0258 14.0258)">
<stop offset="0.00559" stop-color="#95452C"/>
<stop offset="0.36" stop-color="#92422D"/>
<stop offset="0.63521" stop-color="#883A30"/>
<stop offset="0.88299" stop-color="#782B34"/>
<stop offset="1" stop-color="#6D2237"/>
</radialGradient>
<linearGradient id="paint26_linear_55_43852" x1="376.531" y1="219.188" x2="369.583" y2="162.944" gradientUnits="userSpaceOnUse">
<stop offset="0.00559" stop-color="#E4798B"/>
<stop offset="0.24664" stop-color="#ED877F"/>
<stop offset="0.7018" stop-color="#FA9C6D"/>
<stop offset="1" stop-color="#FFA466"/>
</linearGradient>
<linearGradient id="paint27_linear_55_43852" x1="81.4518" y1="234.009" x2="67.5073" y2="202.892" gradientUnits="userSpaceOnUse">
<stop stop-color="#FFA466"/>
<stop offset="0.2982" stop-color="#FA9C6D"/>
<stop offset="0.75336" stop-color="#ED877F"/>
<stop offset="0.99441" stop-color="#E4798B"/>
</linearGradient>
<linearGradient id="paint28_linear_55_43852" x1="49.5993" y1="135.894" x2="31.137" y2="143.307" gradientUnits="userSpaceOnUse">
<stop stop-color="#934A38"/>
<stop offset="0.25413" stop-color="#9B4C3C"/>
<stop offset="0.64194" stop-color="#B05349"/>
<stop offset="0.99441" stop-color="#C95B57"/>
</linearGradient>
<linearGradient id="paint29_linear_55_43852" x1="47.1758" y1="231.184" x2="69.1746" y2="228.465" gradientUnits="userSpaceOnUse">
<stop offset="0.00559" stop-color="#E4798B"/>
<stop offset="0.24664" stop-color="#ED877F"/>
<stop offset="0.7018" stop-color="#FA9C6D"/>
<stop offset="1" stop-color="#FFA466"/>
</linearGradient>
<linearGradient id="paint30_linear_55_43852" x1="55.9109" y1="222.175" x2="55.0469" y2="220.247" gradientUnits="userSpaceOnUse">
<stop stop-color="#CA528D"/>
<stop offset="1" stop-color="#B3757C"/>
</linearGradient>
<linearGradient id="paint31_linear_55_43852" x1="62.8346" y1="239.713" x2="61.8732" y2="237.568" gradientUnits="userSpaceOnUse">
<stop stop-color="#CA528D"/>
<stop offset="1" stop-color="#B3757C"/>
</linearGradient>
<radialGradient id="paint32_radial_55_43852" cx="0" cy="0" r="1" gradientUnits="userSpaceOnUse" gradientTransform="translate(181.497 196.845) rotate(-7.04291) scale(46.8937 46.8937)">
<stop stop-color="#453A00"/>
<stop offset="0.29313" stop-color="#423700"/>
<stop offset="0.54283" stop-color="#3A2C00"/>
<stop offset="0.77601" stop-color="#2D1B00"/>
<stop offset="0.82402" stop-color="#291600"/>
<stop offset="0.86473" stop-color="#221200"/>
<stop offset="0.92345" stop-color="#0F0800"/>
<stop offset="0.95895"/>
</radialGradient>
<radialGradient id="paint33_radial_55_43852" cx="0" cy="0" r="1" gradientUnits="userSpaceOnUse" gradientTransform="translate(284.522 184.082) rotate(-7.04291) scale(48.3002 48.3002)">
<stop stop-color="#453A00"/>
<stop offset="0.29313" stop-color="#423700"/>
<stop offset="0.54283" stop-color="#3A2C00"/>
<stop offset="0.77601" stop-color="#2D1B00"/>
<stop offset="0.82402" stop-color="#291600"/>
<stop offset="0.86473" stop-color="#221200"/>
<stop offset="0.92345" stop-color="#0F0800"/>
<stop offset="0.95895"/>
</radialGradient>
<linearGradient id="paint34_linear_55_43852" x1="321.486" y1="183.184" x2="365.941" y2="177.692" gradientUnits="userSpaceOnUse">
<stop offset="0.03373" stop-color="#DFCCDC"/>
<stop offset="0.27182" stop-color="#9680B7"/>
<stop offset="1" stop-color="#CFCFCF"/>
</linearGradient>
<radialGradient id="paint35_radial_55_43852" cx="0" cy="0" r="1" gradientUnits="userSpaceOnUse" gradientTransform="translate(201.447 195.807) rotate(-7.04291) scale(40.3838 40.3838)">
<stop stop-color="#453A00"/>
<stop offset="0.29313" stop-color="#423700"/>
<stop offset="0.54283" stop-color="#3A2C00"/>
<stop offset="0.77601" stop-color="#2D1B00"/>
<stop offset="0.82402" stop-color="#291600"/>
<stop offset="0.86473" stop-color="#221200"/>
<stop offset="0.92345" stop-color="#0F0800"/>
<stop offset="0.95895"/>
</radialGradient>
<radialGradient id="paint36_radial_55_43852" cx="0" cy="0" r="1" gradientUnits="userSpaceOnUse" gradientTransform="translate(304.535 182.835) rotate(-7.04291) scale(40.5409 40.541)">
<stop stop-color="#453A00"/>
<stop offset="0.29313" stop-color="#423700"/>
<stop offset="0.54283" stop-color="#3A2C00"/>
<stop offset="0.77601" stop-color="#2D1B00"/>
<stop offset="0.82402" stop-color="#291600"/>
<stop offset="0.86473" stop-color="#221200"/>
<stop offset="0.92345" stop-color="#0F0800"/>
<stop offset="0.95895"/>
</radialGradient>
<linearGradient id="paint37_linear_55_43852" x1="210.592" y1="188.238" x2="249.514" y2="183.43" gradientUnits="userSpaceOnUse">
<stop offset="0.03373" stop-color="#DFCCDC"/>
<stop offset="0.27182" stop-color="#9680B7"/>
<stop offset="1" stop-color="#CFCFCF"/>
</linearGradient>
</defs>
</svg>
