<svg width="425" height="232" viewBox="0 0 425 232" fill="none" xmlns="http://www.w3.org/2000/svg">
<path fill-rule="evenodd" clip-rule="evenodd" d="M48.3742 81.2054C102.968 79.6002 157.626 79.413 212.25 79.4767C266.797 79.5404 321.454 79.8553 376.083 81.588C379.875 81.5901 383.626 82.5341 387.102 84.3613C390.578 86.1884 393.706 88.8596 396.289 92.2088C398.786 95.5688 400.657 99.5351 401.778 103.841C402.899 108.147 403.243 112.694 402.787 117.175C401.757 126.655 397.846 135.337 391.813 141.536C385.873 147.758 378.318 151.279 370.456 151.488C317.674 153.095 264.866 153.285 212.167 153.224C159.392 153.162 106.585 152.849 53.844 151.118C45.974 150.913 38.4133 147.387 32.4747 141.153C26.5324 134.893 22.7228 126.197 21.7812 116.743C21.3045 112.274 21.6218 107.733 22.7117 103.423C23.8016 99.1132 25.6391 95.1323 28.1022 91.7453C30.7003 88.4013 33.8414 85.7395 37.3293 83.926C40.8172 82.1125 44.5771 81.1864 48.3742 81.2054Z" fill="url(#paint0_linear_595_12562)"/>
<path style="mix-blend-mode:screen" fill-rule="evenodd" clip-rule="evenodd" d="M263.736 75.1652C227.059 74.0344 100.219 73.2188 49.8436 75.413C33.8997 76.1076 22.6942 81.3883 18.6291 100.061C18.3284 101.442 17.9471 103.543 18.9432 104.311C19.7302 104.916 20.5846 102.971 20.9261 101.922C26.6656 84.3199 34.6889 79.8578 50.3237 78.703C95.9908 75.3312 221.425 77.8357 263.628 76.9984C268.658 76.8984 266.611 75.2544 263.736 75.1652ZM18.3465 108.103C17.5564 107.917 17.0123 109.477 16.8995 110.44C16.5669 113.557 16.7146 116.722 17.3353 119.775C17.9181 122.96 18.9395 126.004 20.357 128.781C21.2048 130.18 23.0148 130.775 22.3974 128.345C21.4239 125.343 20.6515 122.251 20.0878 119.099C19.6663 116.463 19.4311 113.789 19.3846 111.105C19.3913 109.962 19.2742 108.323 18.3465 108.103Z" fill="url(#paint1_linear_595_12562)"/>
<path style="mix-blend-mode:screen" fill-rule="evenodd" clip-rule="evenodd" d="M153.975 157.183C190.474 158.315 317.206 159.129 367.949 156.935C384.01 156.243 396.078 150.961 403.193 132.292C403.719 130.913 404.445 128.811 403.573 128.043C402.885 127.438 401.715 129.383 401.201 130.431C392.586 148.03 383.833 152.491 368.005 153.647C321.78 157.019 196.731 154.514 154.381 155.35C149.335 155.451 151.115 157.094 153.975 157.183ZM404.791 124.252C405.55 124.438 406.35 122.878 406.618 121.916C407.447 118.911 407.816 115.748 407.708 112.584C407.661 109.491 407.134 106.437 406.157 103.578C405.536 102.179 403.824 101.584 404.044 104.013C404.533 107.061 404.801 110.154 404.844 113.259C404.832 115.939 404.631 118.612 404.243 121.252C404.049 122.393 403.898 124.032 404.791 124.252Z" fill="url(#paint2_linear_595_12562)"/>
<path style="mix-blend-mode:screen" opacity="0.35" fill-rule="evenodd" clip-rule="evenodd" d="M21.5976 81.0823C20.6591 83.3149 20.5319 86.4318 21.3489 86.9222C21.9467 87.2823 23.0512 85.7608 24.7118 83.8315C27.9364 80.1939 31.8514 77.5673 36.1128 76.1825C43.6295 74.0959 51.3332 73.1574 59.043 73.3891C78.3837 72.4794 97.7489 72.2661 117.105 72.2887C196.474 72.3814 279.125 70.7745 358.662 74.7515C383.859 76.0109 389.398 78.3874 402.789 91.8951C404.033 93.1506 405.683 94.8166 406.501 94.2639C407.243 93.7641 407.289 91.2288 405.912 88.7801C394.545 68.5216 377.088 60.1962 356.621 58.5515C271.003 51.6638 144.12 48.4773 59.5454 57.6206C42.4475 59.4693 27.4511 67.151 21.5976 81.0823Z" fill="url(#paint3_linear_595_12562)"/>
<path style="mix-blend-mode:multiply" opacity="0.5" fill-rule="evenodd" clip-rule="evenodd" d="M21.5166 150.481C20.5833 148.247 20.4634 145.13 21.2815 144.642C21.8802 144.284 22.9811 145.805 24.6372 147.74C27.8536 151.385 31.7623 154.02 36.0203 155.415C43.5323 157.518 51.2337 158.475 58.9439 158.263C78.2825 159.218 97.6471 159.475 117.003 159.498C196.373 159.591 279.865 162.853 359.411 159.061C384.61 157.86 390.758 156.372 403.094 141.582C404.244 140.201 405.511 138.375 406.326 138.928C407.069 139.429 406.745 141.673 405.364 144.118C393.949 164.351 376.958 172.196 356.486 173.794C270.852 180.482 143.962 183.372 59.4094 174.032C42.3159 172.144 27.3376 164.425 21.5166 150.481Z" fill="url(#paint4_linear_595_12562)"/>
<defs>
<linearGradient id="paint0_linear_595_12562" x1="212.237" y1="153.224" x2="212.323" y2="79.4768" gradientUnits="userSpaceOnUse">
<stop stop-color="#99F2FF"/>
<stop offset="1" stop-color="#54BDFF"/>
</linearGradient>
<linearGradient id="paint1_linear_595_12562" x1="16.733" y1="101.933" x2="266.659" y2="102.224" gradientUnits="userSpaceOnUse">
<stop stop-color="white"/>
<stop offset="1"/>
</linearGradient>
<linearGradient id="paint2_linear_595_12562" x1="151.222" y1="130.124" x2="407.702" y2="130.424" gradientUnits="userSpaceOnUse">
<stop/>
<stop offset="1" stop-color="white"/>
</linearGradient>
<linearGradient id="paint3_linear_595_12562" x1="213.905" y1="94.1485" x2="213.954" y2="52.0065" gradientUnits="userSpaceOnUse">
<stop stop-color="#B5F6FF"/>
<stop offset="1"/>
</linearGradient>
<linearGradient id="paint4_linear_595_12562" x1="213.682" y1="180.006" x2="213.73" y2="138.602" gradientUnits="userSpaceOnUse">
<stop stop-color="white"/>
<stop offset="0.48869" stop-color="#C3C5FF"/>
<stop offset="1" stop-color="#8084FF"/>
</linearGradient>
</defs>
</svg>
