<svg width="394" height="226" viewBox="0 0 394 226" fill="none" xmlns="http://www.w3.org/2000/svg">
<path fill-rule="evenodd" clip-rule="evenodd" d="M32.7662 51.3953C87.3802 48.9518 142.04 48.967 196.664 49.4174C251.209 49.8671 305.862 50.7531 360.469 54.0972C364.261 54.1244 368 55.7845 371.453 58.9743C374.906 62.1641 377.999 66.8152 380.54 72.6384C382.993 78.4799 384.814 85.3688 385.88 92.8423C386.946 100.316 387.232 108.201 386.719 115.967C385.568 132.399 381.547 147.429 375.435 158.139C369.415 168.891 361.816 174.949 353.951 175.263C301.149 177.721 248.339 177.722 195.64 177.288C142.866 176.853 90.0634 175.981 37.345 172.652C29.4776 172.247 21.9619 166.087 16.1027 155.241C10.2402 144.349 6.54147 129.247 5.72036 112.848C5.30069 105.097 5.67577 97.2263 6.8206 89.7597C7.96543 82.2931 9.85372 75.4019 12.36 69.5445C15.0007 63.7625 18.1756 59.1666 21.6867 56.044C25.1977 52.9213 28.9694 51.3387 32.7662 51.3953Z" fill="url(#paint0_linear_595_12571)"/>
<path style="mix-blend-mode:screen" fill-rule="evenodd" clip-rule="evenodd" d="M248.673 42.4348C212.01 40.246 85.1814 38.0428 34.778 41.5339C18.8252 42.6392 7.55249 51.7258 3.24943 84.0775C2.93111 86.4706 2.52304 90.111 3.50939 91.4477C4.28862 92.5018 5.16778 89.1352 5.52269 87.3183C11.4865 56.8335 19.5667 49.1466 35.2161 47.2416C80.926 41.6792 206.327 46.802 248.541 45.6128C253.572 45.4706 251.546 42.6074 248.673 42.4348ZM2.86432 98.0188C2.07659 97.6924 1.51261 100.394 1.38755 102.062C1.0152 107.466 1.1226 112.954 1.70434 118.251C2.24659 123.777 3.22916 129.062 4.61126 133.886C5.44126 136.316 7.24358 137.359 6.65723 133.143C5.72195 127.931 4.98897 122.565 4.46543 117.096C4.07753 112.524 3.87641 107.886 3.86415 103.232C3.88538 101.25 3.78916 98.4063 2.86432 98.0188Z" fill="url(#paint1_linear_595_12571)"/>
<path style="mix-blend-mode:screen" fill-rule="evenodd" clip-rule="evenodd" d="M137.867 183.964C174.351 186.154 301.072 188.354 351.843 184.866C367.913 183.764 380.048 174.682 387.401 142.355C387.945 139.968 388.697 136.328 387.835 134.991C387.155 133.938 385.96 137.302 385.432 139.116C376.593 169.578 367.783 177.259 351.941 179.164C305.673 184.723 180.657 179.602 138.296 180.789C133.249 180.932 135.007 183.792 137.867 183.964ZM389.101 128.425C389.858 128.751 390.678 126.052 390.958 124.386C391.825 119.18 392.235 113.699 392.167 108.211C392.159 102.849 391.672 97.5496 390.731 92.5868C390.128 90.1569 388.423 89.1148 388.612 93.3277C389.062 98.6152 389.291 103.981 389.295 109.363C389.248 114.01 389.013 118.645 388.592 123.219C388.383 125.197 388.211 128.038 389.101 128.425Z" fill="url(#paint2_linear_595_12571)"/>
<path style="mix-blend-mode:screen" opacity="0.35" fill-rule="evenodd" clip-rule="evenodd" d="M6.46071 51.1888C5.49387 55.0541 5.32705 60.4578 6.13781 61.3131C6.73103 61.9413 7.85485 59.3099 9.54 55.975C12.8108 49.6876 16.7591 45.1576 21.0381 42.7829C28.5813 39.2114 36.2969 37.6318 44.0037 38.0812C63.3559 36.6235 82.7237 36.3736 102.08 36.5326C181.447 37.1844 264.118 34.9099 343.605 42.2978C368.785 44.6375 374.294 48.7924 387.513 72.2964C388.741 74.4811 390.37 77.3799 391.195 76.4267C391.944 75.5647 392.021 71.169 390.676 66.9147C379.566 31.7177 362.216 17.1742 341.769 14.1959C256.239 1.72335 129.397 -4.58717 44.7064 10.7431C27.5851 13.8428 12.4912 27.0694 6.46071 51.1888Z" fill="url(#paint3_linear_595_12571)"/>
<path style="mix-blend-mode:multiply" opacity="0.5" fill-rule="evenodd" clip-rule="evenodd" d="M5.49416 171.519C4.58937 167.639 4.50914 162.235 5.3335 161.393C5.93669 160.776 7.01824 163.422 8.64971 166.787C11.8196 173.126 15.6947 177.72 19.9349 180.165C27.4201 183.858 35.1092 185.565 42.8222 185.245C62.1485 187.021 81.5097 187.589 100.866 187.748C180.233 188.403 263.683 194.578 343.277 188.499C368.492 186.573 374.659 184.03 387.183 158.463C388.351 156.076 389.641 152.917 390.45 153.881C391.186 154.755 390.833 158.643 389.421 162.874C377.748 197.885 360.657 211.382 340.165 214.026C254.446 225.09 127.52 229.312 43.0866 212.591C26.0173 209.21 11.1374 195.733 5.49416 171.519Z" fill="url(#paint4_linear_595_12571)"/>
<defs>
<linearGradient id="paint0_linear_595_12571" x1="195.71" y1="177.289" x2="196.764" y2="49.4182" gradientUnits="userSpaceOnUse">
<stop stop-color="#99F2FF"/>
<stop offset="1" stop-color="#54BDFF"/>
</linearGradient>
<linearGradient id="paint1_linear_595_12571" x1="1.32943" y1="87.3106" x2="251.251" y2="89.316" gradientUnits="userSpaceOnUse">
<stop stop-color="white"/>
<stop offset="1"/>
</linearGradient>
<linearGradient id="paint2_linear_595_12571" x1="135.458" y1="137.03" x2="391.934" y2="139.088" gradientUnits="userSpaceOnUse">
<stop/>
<stop offset="1" stop-color="white"/>
</linearGradient>
<linearGradient id="paint3_linear_595_12571" x1="198.601" y1="75.0346" x2="199.201" y2="1.96455" gradientUnits="userSpaceOnUse">
<stop stop-color="#B5F6FF"/>
<stop offset="1"/>
</linearGradient>
<linearGradient id="paint4_linear_595_12571" x1="197.283" y1="223.909" x2="197.874" y2="152.118" gradientUnits="userSpaceOnUse">
<stop stop-color="white"/>
<stop offset="0.48869" stop-color="#C3C5FF"/>
<stop offset="1" stop-color="#8084FF"/>
</linearGradient>
</defs>
</svg>
