<svg width="391" height="128" viewBox="0 0 391 128" fill="none" xmlns="http://www.w3.org/2000/svg">
<path fill-rule="evenodd" clip-rule="evenodd" d="M31.1059 29.8144C85.6978 28.1455 140.356 27.8944 194.98 27.8944C249.527 27.8944 304.184 28.1455 358.815 29.8144C362.607 29.812 366.359 30.7517 369.837 32.5748C373.316 34.3979 376.446 37.0654 379.034 40.4116C381.534 43.7687 383.41 47.7328 384.536 52.0377C385.662 56.3426 386.011 60.8884 385.56 65.3698C384.542 74.8515 380.641 83.5382 374.615 89.7438C368.682 95.9731 361.131 99.5025 353.27 99.7209C300.489 101.39 247.682 101.642 194.983 101.642C142.207 101.642 89.4002 101.39 36.6574 99.7209C28.7872 99.5248 21.2223 96.0079 15.2765 89.7808C9.32683 83.5275 5.50708 74.8356 4.55443 65.3826C4.07259 60.9145 4.3845 56.3737 5.46937 52.0623C6.55423 47.7509 8.38715 43.7678 10.8463 40.3779C13.4405 37.0309 16.5784 34.3654 20.0642 32.5479C23.55 30.7304 27.3088 29.7998 31.1059 29.8144Z" fill="url(#paint0_linear_595_12556)"/>
<path style="mix-blend-mode:screen" fill-rule="evenodd" clip-rule="evenodd" d="M246.965 23.1002C210.286 22.0123 83.4455 21.3448 33.0725 23.5977C17.1293 24.311 5.93004 29.6048 1.88676 48.2823C1.58765 49.6639 1.20881 51.7652 2.20584 52.5315C2.99349 53.1356 3.8456 51.1899 4.18591 50.1405C9.90486 32.5317 17.923 28.0603 33.5564 26.8873C79.2195 23.4621 204.656 25.8202 246.858 24.9336C251.888 24.8277 249.839 23.1861 246.965 23.1002ZM1.61353 56.3241C0.823215 56.1395 0.280931 57.7001 0.169264 58.6629C-0.15971 61.781 -0.00827716 64.9456 0.615931 67.9972C1.2025 71.1818 2.22743 74.225 3.64817 77.0002C4.49764 78.3979 6.30824 78.9908 5.68809 76.5621C4.71103 73.5608 3.93503 70.4696 3.36763 67.3184C2.94306 64.6833 2.70474 62.0095 2.65514 59.3256C2.66046 58.1823 2.54143 56.5431 1.61353 56.3241Z" fill="url(#paint1_linear_595_12556)"/>
<path style="mix-blend-mode:screen" fill-rule="evenodd" clip-rule="evenodd" d="M137.299 105.246C173.799 106.336 300.532 107.002 351.273 104.749C367.333 104.037 379.395 98.7418 386.488 80.0642C387.013 78.685 387.736 76.5821 386.863 75.8151C386.175 75.2109 385.006 77.1566 384.494 78.2053C375.899 95.8149 367.151 100.286 351.325 101.46C305.104 104.886 180.052 102.527 137.703 103.413C132.657 103.52 134.439 105.16 137.299 105.246ZM388.076 72.0225C388.835 72.207 389.634 70.6464 389.901 69.6844C390.726 66.6779 391.092 63.5153 390.98 60.3509C390.929 57.2584 390.399 54.2047 389.418 51.3471C388.796 49.9486 387.083 49.3558 387.306 51.7844C387.798 54.8316 388.07 57.9248 388.117 61.0289C388.108 63.7089 387.91 66.3831 387.525 69.0225C387.332 70.1643 387.183 71.8034 388.076 72.0225Z" fill="url(#paint2_linear_595_12556)"/>
<path style="mix-blend-mode:screen" opacity="0.35" fill-rule="evenodd" clip-rule="evenodd" d="M4.83297 29.3003C3.8971 31.534 3.77352 34.651 4.59108 35.1404C5.1893 35.4999 6.29202 33.9771 7.95041 32.0459C11.1708 28.4045 15.0827 25.7733 19.3424 24.3836C26.8567 22.2882 34.5594 21.3407 42.2694 21.5634C61.609 20.631 80.9739 20.3952 100.33 20.3952C179.7 20.3952 262.349 18.6918 341.89 22.5759C367.088 23.8059 372.63 26.176 386.036 39.668C387.282 40.9221 388.934 42.5861 389.751 42.0325C390.493 41.5318 390.536 38.9965 389.157 36.5494C377.765 16.3041 360.299 7.9991 339.83 6.37838C254.204 -0.409358 127.317 -3.44779 42.7534 5.79429C25.6577 7.66292 10.6702 15.3621 4.83297 29.3003Z" fill="url(#paint3_linear_595_12556)"/>
<path style="mix-blend-mode:multiply" opacity="0.5" fill-rule="evenodd" clip-rule="evenodd" d="M4.83297 98.6987C3.8971 96.4658 3.77352 93.3495 4.59108 92.8601C5.1893 92.5015 6.29202 94.0219 7.95041 95.9547C11.171 99.5955 15.0828 102.226 19.3424 103.616C26.8569 105.711 34.5594 106.658 42.2694 106.437C61.609 107.37 80.9739 107.605 100.33 107.605C179.7 107.605 263.195 110.769 342.737 106.885C367.935 105.654 374.081 104.159 386.399 89.3547C387.549 87.9723 388.813 86.1445 389.629 86.6966C390.372 87.1972 390.05 89.4414 388.673 91.8877C377.281 112.134 360.299 119.999 339.829 121.621C254.203 128.409 127.317 131.448 42.7533 122.206C25.6576 120.338 10.6702 112.636 4.83297 98.6987Z" fill="url(#paint4_linear_595_12556)"/>
<defs>
<linearGradient id="paint0_linear_595_12556" x1="195.052" y1="101.642" x2="195.052" y2="27.8944" gradientUnits="userSpaceOnUse">
<stop stop-color="#99F2FF"/>
<stop offset="1" stop-color="#54BDFF"/>
</linearGradient>
<linearGradient id="paint1_linear_595_12556" x1="-0.00721017" y1="50.156" x2="249.919" y2="50.156" gradientUnits="userSpaceOnUse">
<stop stop-color="white"/>
<stop offset="1"/>
</linearGradient>
<linearGradient id="paint2_linear_595_12556" x1="134.514" y1="78.1909" x2="390.995" y2="78.1909" gradientUnits="userSpaceOnUse">
<stop/>
<stop offset="1" stop-color="white"/>
</linearGradient>
<linearGradient id="paint3_linear_595_12556" x1="197.155" y1="42.1419" x2="197.155" y2="-8.69043e-05" gradientUnits="userSpaceOnUse">
<stop stop-color="#B5F6FF"/>
<stop offset="1"/>
</linearGradient>
<linearGradient id="paint4_linear_595_12556" x1="197.033" y1="128" x2="197.033" y2="86.5956" gradientUnits="userSpaceOnUse">
<stop stop-color="white"/>
<stop offset="0.48869" stop-color="#C3C5FF"/>
<stop offset="1" stop-color="#8084FF"/>
</linearGradient>
</defs>
</svg>
