<svg width="393" height="134" viewBox="0 0 393 134" fill="none" xmlns="http://www.w3.org/2000/svg">
<path fill-rule="evenodd" clip-rule="evenodd" d="M362.917 34.5816C308.352 32.2021 253.702 31.2393 199.082 30.5281C144.54 29.8179 89.8837 29.3573 35.2361 30.3147C31.4443 30.263 27.6804 31.1537 24.1786 32.9314C20.6767 34.709 17.5118 37.3356 14.8808 40.6478C12.3371 43.972 10.4096 47.9114 9.2279 52.2013C8.04623 56.4911 7.63771 61.032 8.02983 65.5189C8.92508 75.0131 12.7125 83.7498 18.6569 90.0334C24.5084 96.3394 32.0124 99.9668 39.8702 100.288C92.6247 102.643 145.424 103.583 198.119 104.269C250.89 104.956 303.696 105.392 356.456 104.41C364.328 104.316 371.938 100.898 377.965 94.749C383.995 88.5737 387.928 79.9323 389.003 70.4926C389.543 66.0311 389.291 61.4866 388.262 57.1614C387.233 52.8363 385.452 48.8297 383.038 45.408C380.487 42.0275 377.384 39.3214 373.922 37.4587C370.461 35.5959 366.714 34.6165 362.917 34.5816Z" fill="url(#paint0_linear_595_12579)"/>
<path style="mix-blend-mode:screen" fill-rule="evenodd" clip-rule="evenodd" d="M145.419 25.3728C182.109 24.7625 308.947 25.7465 359.287 28.6551C375.219 29.5759 386.348 35.0151 390.148 53.7437C390.429 55.1291 390.781 57.2352 389.774 57.9883C388.978 58.5822 388.152 56.6256 387.825 55.5718C382.336 37.89 374.377 33.3146 358.76 31.9381C313.145 27.9187 187.688 28.6433 145.501 27.2073C140.474 27.0359 142.543 25.4212 145.419 25.3728ZM390.317 61.7883C391.109 61.6141 391.631 63.1816 391.73 64.1458C392.019 67.2679 391.826 70.4302 391.162 73.4735C390.534 76.6501 389.47 79.6798 388.013 82.4362C387.145 83.8227 385.327 84.392 385.979 81.9716C386.995 78.9832 387.811 75.9025 388.42 72.7589C388.878 70.1296 389.152 67.459 389.236 64.7761C389.246 63.6328 389.386 61.9953 390.317 61.7883Z" fill="url(#paint1_linear_595_12579)"/>
<path style="mix-blend-mode:screen" fill-rule="evenodd" clip-rule="evenodd" d="M254.005 108.939C217.494 109.554 90.7637 108.569 40.0566 105.656C24.0071 104.735 12.0151 99.2833 5.16532 80.515C4.65889 79.1291 3.96309 77.017 4.84633 76.2614C5.54215 75.6662 6.68527 77.627 7.18404 78.6822C15.5484 96.4022 24.2373 100.987 40.0469 102.367C86.2199 106.394 211.291 105.664 253.625 107.101C258.67 107.273 256.867 108.891 254.005 108.939ZM3.68219 72.4533C2.92078 72.6279 2.14284 71.0571 1.88818 70.0917C1.10211 67.0747 0.777563 63.9076 0.930358 60.7449C1.02191 57.6533 1.5914 54.6067 2.60947 51.7622C3.24977 50.372 4.97031 49.8014 4.71603 52.227C4.18393 55.2675 3.87228 58.3569 3.78476 61.4601C3.759 64.14 3.9221 66.8165 4.27223 69.4608C4.45011 70.6049 4.5783 72.2459 3.68219 72.4533Z" fill="url(#paint2_linear_595_12579)"/>
<path style="mix-blend-mode:screen" opacity="0.35" fill-rule="evenodd" clip-rule="evenodd" d="M387.45 34.7247C388.356 36.9704 388.439 40.0888 387.615 40.5675C387.013 40.9191 385.93 39.3821 384.297 37.4295C381.124 33.7464 377.247 31.0646 373.005 29.6195C365.519 27.4264 357.829 26.3787 350.117 26.501C330.791 25.317 311.431 24.829 292.076 24.5769C212.714 23.5435 130.094 20.7642 50.5086 23.6123C25.2965 24.5141 19.7247 26.8118 6.14348 40.1282C4.88164 41.3659 3.20772 43.0083 2.3981 42.4441C1.66289 41.9338 1.65332 39.3981 3.06428 36.9692C14.7183 16.8739 32.2908 8.79704 52.7799 7.44298C138.487 1.7707 265.402 0.38462 349.839 10.727C366.908 12.818 381.794 20.7117 387.45 34.7247Z" fill="url(#paint3_linear_595_12579)"/>
<path style="mix-blend-mode:multiply" opacity="0.5" fill-rule="evenodd" clip-rule="evenodd" d="M386.546 104.117C387.511 101.897 387.675 98.7823 386.864 98.2823C386.27 97.9159 385.148 99.4218 383.464 101.333C380.197 104.931 376.251 107.511 371.974 108.845C364.433 110.842 356.718 111.689 349.012 111.368C329.662 112.048 310.295 112.031 290.941 111.779C211.578 110.746 128.048 112.823 48.5641 107.903C23.3841 106.344 17.2577 104.769 5.13353 89.8059C4.00239 88.4086 2.76206 86.5646 1.93871 87.106C1.18913 87.5969 1.48163 89.845 2.82756 92.3091C13.9543 112.702 30.8325 120.788 51.2793 122.676C136.81 130.578 263.646 135.269 348.323 127.129C365.441 125.483 380.528 117.977 386.546 104.117Z" fill="url(#paint4_linear_595_12579)"/>
<defs>
<linearGradient id="paint0_linear_595_12579" x1="198.049" y1="104.268" x2="199.01" y2="30.5272" gradientUnits="userSpaceOnUse">
<stop stop-color="#99F2FF"/>
<stop offset="1" stop-color="#54BDFF"/>
</linearGradient>
<linearGradient id="paint1_linear_595_12579" x1="392.018" y1="55.6419" x2="142.112" y2="52.3877" gradientUnits="userSpaceOnUse">
<stop stop-color="white"/>
<stop offset="1"/>
</linearGradient>
<linearGradient id="paint2_linear_595_12579" x1="257.142" y1="81.9226" x2="0.683579" y2="78.5832" gradientUnits="userSpaceOnUse">
<stop/>
<stop offset="1" stop-color="white"/>
</linearGradient>
<linearGradient id="paint3_linear_595_12579" x1="194.977" y1="45.0612" x2="195.525" y2="2.92272" gradientUnits="userSpaceOnUse">
<stop stop-color="#B5F6FF"/>
<stop offset="1"/>
</linearGradient>
<linearGradient id="paint4_linear_595_12579" x1="193.981" y1="130.914" x2="194.52" y2="89.5127" gradientUnits="userSpaceOnUse">
<stop stop-color="white"/>
<stop offset="0.48869" stop-color="#C3C5FF"/>
<stop offset="1" stop-color="#8084FF"/>
</linearGradient>
</defs>
</svg>
