<svg width="1440" height="983" viewBox="0 0 1440 983" fill="none" xmlns="http://www.w3.org/2000/svg">
<path fill-rule="evenodd" clip-rule="evenodd" d="M166.353 96.2184C219.756 107.674 272.883 120.521 325.917 133.605C378.876 146.67 431.883 160.005 484.523 174.71C488.206 175.616 491.623 177.427 494.564 180.03C497.504 182.633 499.905 185.973 501.616 189.841C503.239 193.7 504.111 197.998 504.173 202.447C504.235 206.896 503.485 211.393 501.974 215.636C498.714 224.598 492.846 232.098 485.51 236.679C478.257 241.306 470.081 242.924 462.396 241.254C410.752 230.232 359.422 217.828 308.256 205.206C257.017 192.566 205.807 179.673 154.999 165.42C147.405 163.344 140.903 158.118 136.622 150.648C132.343 143.152 130.716 133.798 132.055 124.392C132.658 119.938 134.048 115.604 136.134 111.678C138.22 107.752 140.954 104.324 144.153 101.622C147.474 98.9937 151.159 97.1574 154.978 96.2277C158.798 95.298 162.67 95.2948 166.353 96.2184Z" fill="url(#paint0_linear_595_12609)"/>
<path style="mix-blend-mode:screen" fill-rule="evenodd" clip-rule="evenodd" d="M377.537 141.401C342.186 131.56 219.198 100.532 169.751 90.6538C154.102 87.5277 141.96 89.985 133.561 107.15C132.94 108.42 132.069 110.37 132.853 111.352C133.473 112.128 134.766 110.443 135.348 109.505C145.118 93.7787 153.974 91.358 169.433 93.9635C214.588 101.575 335.808 133.909 376.995 143.156C381.903 144.258 380.307 142.173 377.537 141.401ZM131.37 114.893C130.647 114.524 129.746 115.909 129.407 116.818C128.341 119.766 127.73 122.875 127.605 125.987C127.412 129.219 127.678 132.42 128.393 135.454C128.883 137.015 130.499 138.024 130.478 135.518C130.249 132.37 130.236 129.183 130.439 125.987C130.658 123.327 131.067 120.674 131.662 118.056C131.941 116.948 132.218 115.328 131.37 114.893Z" fill="url(#paint1_linear_595_12609)"/>
<path style="mix-blend-mode:screen" fill-rule="evenodd" clip-rule="evenodd" d="M251.388 194.89C286.565 204.69 409.449 235.691 459.253 245.657C475.016 248.813 487.995 246.56 499.356 230.125C500.195 228.912 501.401 227.044 500.737 226.09C500.214 225.338 498.613 226.947 497.864 227.843C485.302 242.881 475.738 245.127 460.091 242.476C414.395 234.732 293.548 202.49 252.22 193.207C247.295 192.102 248.632 194.121 251.388 194.89ZM502.824 222.698C503.516 223.059 504.665 221.735 505.155 220.865C506.676 218.144 507.789 215.161 508.439 212.062C509.129 209.047 509.347 205.955 509.079 202.946C508.809 201.439 507.288 200.453 506.923 202.865C506.671 205.941 506.194 209.009 505.496 212.034C504.845 214.634 504.013 217.183 503.007 219.654C502.546 220.716 502.009 222.271 502.824 222.698Z" fill="url(#paint2_linear_595_12609)"/>
<path style="mix-blend-mode:screen" opacity="0.35" fill-rule="evenodd" clip-rule="evenodd" d="M140.968 89.4265C139.524 91.371 138.658 94.3677 139.334 95.0387C139.829 95.531 141.264 94.3166 143.337 92.8388C147.336 90.0747 151.764 88.4571 156.233 88.1281C164.03 87.8935 171.735 88.8185 179.168 90.8814C198.168 94.6084 217.025 99.0175 235.818 103.654C312.877 122.664 393.529 140.806 469.825 163.628C493.995 170.858 498.807 174.486 508.592 190.797C509.501 192.313 510.707 194.324 511.633 193.982C512.473 193.674 513.121 191.222 512.368 188.516C506.158 166.132 491.189 153.885 471.704 147.409C390.196 120.31 267.731 86.9686 183.415 75.6872C166.369 73.4068 149.974 77.2922 140.968 89.4265Z" fill="url(#paint3_linear_595_12609)"/>
<path style="mix-blend-mode:multiply" opacity="0.5" fill-rule="evenodd" clip-rule="evenodd" d="M124.346 156.805C123.972 154.413 124.599 151.358 125.509 151.078C126.176 150.873 126.883 152.614 128.03 154.887C130.285 159.194 133.453 162.685 137.255 165.054C144.049 168.888 151.301 171.653 158.839 173.285C177.393 178.822 196.137 183.688 214.93 188.325C291.989 207.335 372.297 230.406 450.453 245.686C475.213 250.527 481.539 250.547 497.044 239.124C498.491 238.057 500.156 236.585 500.816 237.317C501.418 237.981 500.568 240.083 498.644 242.128C482.735 259.056 464.364 262.625 444.101 259.297C359.342 245.379 235.421 217.937 155.532 188.711C139.381 182.802 126.675 171.735 124.346 156.805Z" fill="url(#paint4_linear_595_12609)"/>
<g filter="url(#filter0_i_595_12609)">
<path d="M219.267 157.419C216.966 156.859 215.01 155.878 213.397 154.475C211.79 153.051 210.667 151.351 210.029 149.373C209.416 147.379 209.378 145.284 209.913 143.087C210.448 140.89 211.443 139.057 212.898 137.589C214.38 136.106 216.159 135.112 218.236 134.607C220.318 134.083 222.509 134.1 224.81 134.661C226.924 135.175 228.719 136.008 230.196 137.158C231.672 138.308 232.778 139.719 233.512 141.391L227.873 144.398C226.939 142.37 225.561 141.134 223.737 140.69C222.203 140.316 220.848 140.513 219.673 141.281C218.503 142.028 217.716 143.231 217.313 144.889C216.909 146.547 217.052 147.987 217.743 149.209C218.438 150.411 219.553 151.198 221.087 151.572C222.911 152.016 224.703 151.552 226.464 150.181L230.09 155.444C228.669 156.591 227.038 157.336 225.198 157.678C223.359 158.02 221.381 157.934 219.267 157.419ZM242.104 162.981C239.761 162.41 237.776 161.411 236.148 159.982C234.52 158.554 233.386 156.851 232.748 154.873C232.115 152.874 232.064 150.787 232.594 148.61C233.124 146.434 234.127 144.614 235.603 143.151C237.084 141.668 238.876 140.666 240.979 140.146C243.081 139.626 245.304 139.651 247.646 140.222C249.988 140.792 251.973 141.792 253.602 143.22C255.23 144.649 256.361 146.362 256.994 148.361C257.632 150.338 257.686 152.416 257.156 154.592C256.626 156.768 255.62 158.598 254.139 160.082C252.663 161.545 250.874 162.536 248.771 163.056C246.668 163.576 244.446 163.551 242.104 162.981ZM243.55 157.042C244.462 157.264 245.334 157.246 246.165 156.987C247.022 156.713 247.767 156.225 248.399 155.522C249.036 154.799 249.489 153.889 249.756 152.79C250.024 151.691 250.038 150.685 249.8 149.771C249.566 148.835 249.13 148.059 248.489 147.442C247.875 146.81 247.112 146.382 246.2 146.16C245.288 145.938 244.403 145.964 243.546 146.239C242.714 146.497 241.98 146.988 241.343 147.711C240.711 148.413 240.261 149.314 239.993 150.412C239.726 151.511 239.709 152.528 239.942 153.463C240.181 154.377 240.607 155.151 241.221 155.784C241.862 156.401 242.638 156.82 243.55 157.042ZM268.458 169.399C266.116 168.828 264.131 167.829 262.503 166.4C260.874 164.972 259.741 163.269 259.103 161.291C258.47 159.292 258.418 157.205 258.948 155.029C259.478 152.852 260.482 151.032 261.958 149.57C263.439 148.086 265.231 147.084 267.333 146.564C269.436 146.044 271.659 146.07 274.001 146.64C276.343 147.21 278.328 148.21 279.956 149.638C281.585 151.067 282.715 152.78 283.348 154.779C283.987 156.757 284.041 158.834 283.511 161.01C282.981 163.186 281.975 165.017 280.494 166.5C279.018 167.963 277.228 168.955 275.126 169.474C273.023 169.994 270.801 169.969 268.458 169.399ZM269.905 163.46C270.817 163.682 271.688 163.664 272.52 163.406C273.377 163.131 274.122 162.643 274.754 161.941C275.391 161.217 275.843 160.307 276.111 159.208C276.378 158.11 276.393 157.103 276.155 156.189C275.921 155.254 275.484 154.478 274.844 153.861C274.23 153.228 273.467 152.8 272.555 152.578C271.643 152.356 270.758 152.382 269.901 152.657C269.069 152.915 268.335 153.406 267.698 154.129C267.066 154.832 266.616 155.732 266.348 156.831C266.081 157.929 266.064 158.946 266.297 159.881C266.535 160.795 266.962 161.569 267.576 162.202C268.216 162.819 268.993 163.238 269.905 163.46ZM288.824 150.777L296.161 152.564L292.247 168.638L302.072 171.03L300.686 176.72L283.524 172.541L288.824 150.777ZM317.334 157.72L328.061 160.332C330.486 160.923 332.512 161.888 334.14 163.229C335.794 164.554 336.929 166.158 337.546 168.043C338.183 169.933 338.232 171.987 337.692 174.205C337.152 176.423 336.164 178.224 334.729 179.609C333.315 180.999 331.566 181.913 329.484 182.35C327.427 182.771 325.186 182.687 322.761 182.096L312.034 179.484L317.334 157.72ZM323.843 176.299C325.418 176.683 326.781 176.543 327.931 175.879C329.106 175.199 329.893 174.04 330.292 172.403C330.691 170.765 330.522 169.385 329.786 168.261C329.075 167.122 327.932 166.361 326.357 165.977L323.279 165.227L320.765 175.55L323.843 176.299ZM349.01 189.015C346.668 188.445 344.683 187.446 343.055 186.017C341.427 184.589 340.293 182.885 339.655 180.908C339.022 178.909 338.971 176.822 339.501 174.645C340.031 172.469 341.034 170.649 342.51 169.186C343.991 167.702 345.783 166.701 347.885 166.181C349.988 165.661 352.211 165.686 354.553 166.257C356.895 166.827 358.88 167.826 360.509 169.255C362.137 170.683 363.267 172.397 363.9 174.395C364.539 176.373 364.593 178.45 364.063 180.627C363.533 182.803 362.527 184.633 361.046 186.117C359.57 187.58 357.781 188.571 355.678 189.091C353.575 189.611 351.353 189.586 349.01 189.015ZM350.457 183.077C351.369 183.299 352.24 183.281 353.072 183.022C353.929 182.748 354.674 182.26 355.306 181.557C355.943 180.834 356.395 179.923 356.663 178.825C356.93 177.726 356.945 176.72 356.707 175.805C356.473 174.87 356.036 174.094 355.396 173.477C354.782 172.844 354.019 172.417 353.107 172.195C352.195 171.973 351.31 171.999 350.453 172.273C349.621 172.532 348.887 173.023 348.25 173.746C347.618 174.448 347.168 175.349 346.9 176.447C346.633 177.546 346.616 178.563 346.849 179.498C347.087 180.412 347.514 181.186 348.128 181.818C348.768 182.435 349.545 182.855 350.457 183.077ZM404 178.825L391.735 198.893L383.869 196.977L383.187 184.494L376.656 195.221L368.79 193.305L367.125 169.845L374.68 171.685L375.46 184.983L382.484 173.586L389.231 175.229L389.973 188.682L397.035 177.129L404 178.825ZM427.082 184.446L421.782 206.21L415.75 204.741L409.888 192.84L407.48 202.727L400.329 200.986L405.629 179.222L411.661 180.691L417.523 192.592L419.931 182.705L427.082 184.446Z" fill="#024685"/>
</g>
<path fill-rule="evenodd" clip-rule="evenodd" d="M53.063 395.525C107.369 401.351 161.545 408.591 215.655 416.075C269.687 423.548 323.795 431.286 377.682 440.424C381.438 440.941 385.026 442.386 388.222 444.668C391.418 446.951 394.153 450.022 396.258 453.691C398.275 457.359 399.59 461.543 400.115 465.961C400.641 470.38 400.364 474.931 399.304 479.308C396.995 488.561 391.941 496.631 385.122 501.953C378.391 507.31 370.428 509.772 362.611 508.911C310.1 503.333 257.756 496.347 205.553 489.127C153.276 481.897 101.001 474.412 48.9843 465.533C41.2152 464.26 34.2035 459.74 29.1669 452.757C24.1301 445.748 21.5372 436.614 21.8887 427.12C22.0236 422.628 22.9547 418.173 24.62 414.051C26.2853 409.928 28.6467 406.234 31.5471 403.213C34.5753 400.253 38.0489 398.043 41.7509 396.72C45.4528 395.397 49.3037 394.99 53.063 395.525Z" fill="url(#paint5_linear_595_12609)"/>
<path style="mix-blend-mode:screen" fill-rule="evenodd" clip-rule="evenodd" d="M267.249 418.798C231.066 412.695 105.513 394.656 55.306 389.986C39.4155 388.508 27.5965 392.217 21.0324 410.165C20.5468 411.492 19.8836 413.522 20.7663 414.418C21.4637 415.124 22.5744 413.313 23.0553 412.32C31.1328 395.661 39.6879 392.331 55.3346 393.311C101.036 396.174 224.967 415.696 266.893 420.599C271.889 421.184 270.085 419.277 267.249 418.798ZM19.6599 418.093C18.9023 417.802 18.1514 419.274 17.9088 420.212C17.1558 423.256 16.8722 426.411 17.0724 429.52C17.2171 432.755 17.8155 435.91 18.8426 438.853C19.4925 440.354 21.2048 441.19 20.9233 438.699C20.3667 435.592 20.0215 432.424 19.8912 429.224C19.8316 426.556 19.9619 423.875 20.2805 421.209C20.4424 420.077 20.5491 418.437 19.6599 418.093Z" fill="url(#paint6_linear_595_12609)"/>
<path style="mix-blend-mode:screen" fill-rule="evenodd" clip-rule="evenodd" d="M147.364 485.144C183.37 491.224 308.816 509.247 359.387 513.967C375.393 515.463 388.067 511.87 397.653 494.34C398.361 493.046 399.366 491.062 398.606 490.183C398.007 489.49 396.583 491.257 395.932 492.226C385.006 508.492 375.728 511.722 359.89 510.717C313.635 507.778 190.086 488.308 148.015 483.383C143.002 482.798 144.541 484.667 147.364 485.144ZM400.328 486.592C401.054 486.879 402.059 485.442 402.455 484.526C403.685 481.661 404.48 478.578 404.803 475.428C405.176 472.358 405.07 469.261 404.49 466.296C404.065 464.825 402.449 464.003 402.337 466.439C402.407 469.525 402.253 472.626 401.874 475.708C401.498 478.361 400.935 480.983 400.193 483.545C399.845 484.649 399.473 486.253 400.328 486.592Z" fill="url(#paint7_linear_595_12609)"/>
<path style="mix-blend-mode:screen" opacity="0.35" fill-rule="evenodd" clip-rule="evenodd" d="M26.5513 391.765C25.3182 393.85 24.7687 396.92 25.5115 397.517C26.0549 397.955 27.3558 396.598 29.2632 394.912C32.9521 391.746 37.1875 389.676 41.5975 388.883C49.3281 387.837 57.0879 387.953 64.6947 389.23C83.9797 390.957 103.194 393.376 122.368 396.028C200.989 406.902 283.092 416.539 361.351 431.284C386.143 435.955 391.308 439.062 402.739 454.263C403.802 455.676 405.21 457.551 406.095 457.114C406.899 456.72 407.288 454.214 406.257 451.601C397.747 429.986 381.584 419.367 361.529 414.957C277.641 396.502 152.367 376.107 67.3346 373.676C50.1441 373.185 34.2431 378.758 26.5513 391.765Z" fill="url(#paint8_linear_595_12609)"/>
<path style="mix-blend-mode:multiply" opacity="0.5" fill-rule="evenodd" clip-rule="evenodd" d="M17.0432 460.509C16.4221 458.169 16.7266 455.065 17.6035 454.692C18.2452 454.419 19.1292 456.076 20.5072 458.218C23.1986 462.266 26.7131 465.408 30.7421 467.368C37.8987 470.472 45.3987 472.466 53.0663 473.304C72.0959 476.877 91.2459 479.763 110.42 482.415C189.041 493.289 271.315 507.863 350.639 514.914C375.768 517.147 382.061 516.507 396.292 503.531C397.619 502.319 399.122 500.682 399.855 501.34C400.522 501.938 399.896 504.117 398.196 506.351C384.138 524.846 366.239 530.31 345.74 529.113C259.992 524.105 133.885 509.73 51.3852 488.99C34.7067 484.797 20.9159 475.115 17.0432 460.509Z" fill="url(#paint9_linear_595_12609)"/>
<g filter="url(#filter1_i_595_12609)">
<path d="M86.7551 447.961L89.7577 425.763L101.618 427.367C104.683 427.782 106.871 428.638 108.181 429.934C109.494 431.21 110.036 432.693 109.807 434.385C109.655 435.505 109.202 436.466 108.448 437.268C107.718 438.052 106.726 438.618 105.474 438.965C104.221 439.312 102.728 439.369 100.995 439.134L101.861 437.508C103.594 437.742 105.052 438.187 106.233 438.842C107.436 439.5 108.313 440.339 108.863 441.361C109.438 442.364 109.638 443.511 109.464 444.8C109.203 446.724 108.197 448.117 106.445 448.977C104.713 449.841 102.315 450.066 99.2493 449.651L86.7551 447.961ZM94.8198 443.724L99.3228 444.333C100.147 444.444 100.78 444.379 101.222 444.138C101.685 443.899 101.955 443.494 102.032 442.923C102.109 442.353 101.957 441.891 101.574 441.537C101.212 441.187 100.619 440.956 99.7947 440.845L94.7843 440.167L95.4535 435.22L99.4491 435.76C100.295 435.875 100.926 435.82 101.344 435.597C101.786 435.355 102.042 434.97 102.114 434.442C102.188 433.892 102.043 433.453 101.679 433.124C101.335 432.797 100.741 432.577 99.8952 432.463L96.4069 431.991L94.8198 443.724ZM111.282 451.279L114.284 429.081L124.971 430.526C127.043 430.807 128.783 431.386 130.193 432.266C131.624 433.148 132.665 434.28 133.318 435.66C133.974 437.018 134.186 438.554 133.954 440.266C133.723 441.979 133.11 443.403 132.117 444.539C131.127 445.653 129.826 446.435 128.216 446.885C126.626 447.337 124.795 447.423 122.723 447.143L116.191 446.259L119.937 443.634L118.766 452.291L111.282 451.279ZM124.569 453.076L120.208 444.252L128.136 445.324L132.56 454.157L124.569 453.076ZM119.825 444.458L116.954 440.615L123.011 441.434C124.047 441.574 124.84 441.445 125.389 441.045C125.959 440.649 126.299 440.049 126.407 439.246C126.516 438.442 126.348 437.774 125.904 437.24C125.48 436.709 124.751 436.374 123.715 436.233L117.658 435.414L121.446 432.471L119.825 444.458ZM134.91 454.475L137.913 432.277L145.397 433.289L142.394 455.487L134.91 454.475ZM145.997 455.974L148.999 433.777L155.151 434.609L164.613 449.645L161.759 449.259L163.587 435.75L170.88 436.736L167.878 458.934L161.726 458.102L152.264 443.066L155.118 443.452L153.29 456.961L145.997 455.974ZM182.926 461.486C181.129 461.243 179.507 460.744 178.059 459.988C176.635 459.215 175.433 458.234 174.453 457.047C173.493 455.862 172.803 454.52 172.382 453.021C171.96 451.521 171.865 449.915 172.097 448.203C172.328 446.491 172.847 444.968 173.651 443.634C174.456 442.301 175.489 441.192 176.749 440.307C178.01 439.423 179.438 438.809 181.035 438.465C182.655 438.103 184.385 438.046 186.224 438.295C188.423 438.593 190.329 439.227 191.941 440.199C193.574 441.173 194.858 442.423 195.793 443.949L190.434 447.519C189.845 446.621 189.166 445.916 188.395 445.402C187.649 444.871 186.779 444.538 185.786 444.404C184.961 444.292 184.194 444.317 183.483 444.48C182.793 444.645 182.183 444.939 181.652 445.362C181.121 445.785 180.683 446.318 180.338 446.96C179.993 447.603 179.761 448.357 179.644 449.224C179.533 450.048 179.556 450.827 179.716 451.558C179.878 452.269 180.159 452.899 180.558 453.448C180.957 453.998 181.456 454.452 182.053 454.813C182.674 455.155 183.386 455.381 184.189 455.49C185.035 455.604 185.878 455.578 186.718 455.412C187.562 455.225 188.485 454.844 189.489 454.269L192.98 459.972C191.504 460.698 189.866 461.187 188.067 461.439C186.267 461.691 184.554 461.707 182.926 461.486ZM186.608 458.142L187.749 449.707L194.249 450.586L192.98 459.972L186.608 458.142ZM210.183 464.657L212.4 448.262L205.899 447.383L206.684 441.579L227.17 444.35L226.385 450.154L219.884 449.274L217.666 465.669L210.183 464.657ZM237.371 468.851C235.574 468.608 233.942 468.097 232.476 467.317C231.031 466.54 229.819 465.558 228.838 464.371C227.861 463.162 227.151 461.807 226.708 460.305C226.287 458.805 226.189 457.22 226.415 455.55C226.643 453.859 227.159 452.357 227.961 451.045C228.786 449.714 229.83 448.607 231.09 447.722C232.354 446.817 233.785 446.182 235.384 445.817C237.005 445.455 238.714 445.395 240.511 445.638C242.329 445.884 243.96 446.396 245.405 447.172C246.85 447.949 248.061 448.942 249.039 450.15C250.019 451.338 250.72 452.681 251.141 454.18C251.587 455.662 251.695 457.248 251.467 458.939C251.241 460.609 250.715 462.109 249.889 463.44C249.084 464.774 248.05 465.893 246.787 466.799C245.526 467.683 244.096 468.308 242.497 468.672C240.898 469.037 239.189 469.097 237.371 468.851ZM238.19 462.794C238.888 462.888 239.55 462.849 240.176 462.675C240.823 462.504 241.4 462.217 241.907 461.812C242.438 461.388 242.876 460.855 243.221 460.213C243.569 459.55 243.802 458.785 243.919 457.918C244.037 457.051 244.014 456.263 243.852 455.552C243.693 454.82 243.412 454.19 243.01 453.662C242.631 453.115 242.153 452.674 241.574 452.337C241.017 452.004 240.389 451.79 239.691 451.695C238.994 451.601 238.321 451.639 237.674 451.81C237.047 451.983 236.469 452.282 235.938 452.705C235.431 453.11 235.004 453.644 234.656 454.308C234.31 454.95 234.079 455.704 233.962 456.571C233.845 457.438 233.866 458.237 234.025 458.969C234.187 459.68 234.457 460.309 234.836 460.855C235.238 461.383 235.718 461.814 236.275 462.148C236.854 462.484 237.492 462.7 238.19 462.794ZM262.189 471.691L265.191 449.493L272.675 450.506L270.457 466.9L280.478 468.256L279.693 474.059L262.189 471.691ZM281.76 474.339L284.763 452.141L292.247 453.153L289.244 475.351L281.76 474.339ZM301.548 464.034L311.315 465.355L310.551 471L300.784 469.679L301.548 464.034ZM300.331 476.851L292.847 475.838L295.85 453.641L313.893 456.081L313.13 461.726L302.57 460.297L300.331 476.851ZM321.992 465.572L331.886 466.911L331.157 472.302L321.263 470.963L321.992 465.572ZM321.375 473.949L332.474 475.451L331.711 481.095L313.255 478.599L316.257 456.401L334.301 458.842L333.538 464.486L322.851 463.041L321.375 473.949Z" fill="#024685"/>
</g>
<path fill-rule="evenodd" clip-rule="evenodd" d="M50.598 764.722C100.986 743.517 152.27 724.602 203.669 706.108C254.995 687.641 306.573 669.545 358.959 653.772C362.525 652.484 366.608 652.747 370.952 654.543C375.296 656.34 379.808 659.632 384.209 664.215C388.533 668.845 392.627 674.677 396.215 681.319C399.803 687.961 402.802 695.259 405.011 702.723C409.622 718.537 411.054 734.029 409.029 746.193C407.105 758.365 402.074 766.679 394.805 769.697C346.121 790.289 296.579 808.579 246.991 826.421C197.332 844.288 147.494 861.756 96.8854 876.89C89.3646 879.235 80.1805 876.058 70.9278 867.912C61.6563 859.725 52.9564 846.838 46.5072 831.739C43.4292 824.612 41.0554 817.099 39.5437 809.698C38.032 802.297 37.417 795.178 37.7397 788.815C38.2146 782.476 39.6016 777.065 41.814 772.92C44.0263 768.775 47.0166 765.984 50.598 764.722Z" fill="url(#paint10_linear_595_12609)"/>
<path style="mix-blend-mode:screen" fill-rule="evenodd" clip-rule="evenodd" d="M250.042 681.547C214.889 692.19 95.1456 734.044 49.07 754.774C34.4871 761.336 27.0587 773.764 34.2254 805.604C34.7555 807.959 35.6334 811.516 37.0216 812.428C38.1177 813.147 37.7765 809.684 37.4803 807.857C32.5181 777.193 37.4362 767.184 51.4576 759.977C92.4128 738.929 211.829 700.308 251.018 684.574C255.689 682.698 252.797 680.713 250.042 681.547ZM38.6921 818.816C37.84 818.783 38.2465 821.512 38.7069 823.121C40.229 828.319 42.2304 833.431 44.6103 838.198C47.0329 843.195 49.7849 847.812 52.7519 851.859C54.3722 853.851 56.4242 854.206 54.4141 850.454C51.7317 845.888 49.1857 841.108 46.8008 836.159C44.8534 832.003 43.0585 827.722 41.4354 823.36C40.7688 821.493 39.6939 818.859 38.6921 818.816Z" fill="url(#paint11_linear_595_12609)"/>
<path style="mix-blend-mode:screen" fill-rule="evenodd" clip-rule="evenodd" d="M195.104 852.691C230.089 842.111 349.731 800.29 396.152 779.436C410.846 772.837 419.085 760.115 414.789 727.242C414.472 724.814 413.917 721.139 412.645 720.183C411.643 719.43 411.686 723 411.82 724.884C414.077 756.523 408.472 766.78 394.27 774.053C352.79 795.291 233.736 833.78 194.408 849.563C189.722 851.446 192.362 853.52 195.104 852.691ZM411.559 713.585C412.382 713.629 412.216 710.813 411.903 709.153C410.913 703.968 409.4 698.685 407.436 693.56C405.571 688.532 403.279 683.73 400.677 679.4C399.27 677.329 397.31 676.942 398.946 680.829C401.2 685.633 403.272 690.588 405.14 695.636C406.705 700.011 408.09 704.441 409.278 708.877C409.768 710.805 410.59 713.53 411.559 713.585Z" fill="url(#paint12_linear_595_12609)"/>
<path style="mix-blend-mode:screen" opacity="0.35" fill-rule="evenodd" clip-rule="evenodd" d="M25.8485 773.638C26.28 777.599 27.9949 782.726 29.0517 783.248C29.8257 783.632 29.9687 780.774 30.3947 777.062C31.2858 770.031 33.421 764.414 36.6128 760.704C42.4525 754.741 49.1436 750.588 56.5292 748.34C74.1791 740.271 92.2619 733.329 110.475 726.776C185.158 699.902 261.925 669.138 339.052 648.543C363.484 642.017 370.091 644.008 390.632 661.479C392.54 663.104 395.073 665.259 395.516 664.079C395.92 663.011 394.471 658.86 391.735 655.335C369.124 626.164 347.811 618.529 327.598 622.816C243.04 640.734 121.862 678.74 47.7211 722.451C32.7327 731.288 23.1531 748.923 25.8485 773.638Z" fill="url(#paint13_linear_595_12609)"/>
<path style="mix-blend-mode:multiply" opacity="0.5" fill-rule="evenodd" clip-rule="evenodd" d="M66.6125 886.857C64.4202 883.531 62.4734 878.489 62.9552 877.414C63.3075 876.626 65.2382 878.733 67.934 881.325C73.1031 886.174 78.3293 889.142 83.1538 889.967C91.4549 890.84 99.2594 889.779 106.384 886.807C125.13 881.781 143.489 875.608 161.703 869.055C236.386 842.183 316.811 819.077 389.375 785.811C412.362 775.271 417.267 770.75 420.162 742.429C420.431 739.784 420.547 736.374 421.64 736.999C422.633 737.564 423.648 741.334 423.789 745.791C424.963 782.678 413.603 801.259 395.295 810.836C318.712 850.9 201.102 898.816 116.102 912.37C98.9184 915.109 80.292 907.619 66.6125 886.857Z" fill="url(#paint14_linear_595_12609)"/>
<g filter="url(#filter2_i_595_12609)">
<path d="M92.9005 806.638C91.2162 807.25 89.5574 807.557 87.9242 807.561C86.3038 807.536 84.7837 807.226 83.3639 806.63C81.9641 806.026 80.7293 805.158 79.6596 804.026C78.5898 802.894 77.7598 801.515 77.1695 799.891C76.5793 798.267 76.3307 796.678 76.424 795.123C76.5172 793.569 76.9066 792.111 77.5922 790.75C78.2979 789.381 79.2678 788.178 80.502 787.14C81.7489 786.074 83.2146 785.235 84.8989 784.623C86.9642 783.873 88.9201 783.571 90.7665 783.718C92.633 783.857 94.3353 784.419 95.8736 785.403L92.8459 791.031C91.9401 790.475 91.0297 790.125 90.1147 789.98C89.2124 789.809 88.2901 789.894 87.3477 790.236C86.6058 790.506 85.9778 790.87 85.4637 791.329C84.9496 791.788 84.5558 792.329 84.2822 792.95C84.0288 793.564 83.902 794.246 83.9018 794.995C83.8944 795.724 84.0364 796.489 84.3279 797.291C84.6194 798.093 85.0057 798.781 85.4868 799.356C85.9607 799.91 86.4919 800.341 87.0806 800.649C87.6894 800.95 88.3382 801.112 89.0272 801.134C89.7162 801.156 90.4317 801.032 91.1736 800.763C92.116 800.42 92.8817 799.904 93.4705 799.214C94.0722 798.496 94.5417 797.633 94.8791 796.625L100.814 798.997C100.26 800.719 99.3156 802.243 97.9811 803.567C96.6593 804.864 94.9658 805.888 92.9005 806.638ZM101.64 802.919L103.192 778.524L110.17 775.989L127.025 793.699L119.686 796.364L106.461 781.149L109.228 780.144L108.858 800.297L101.64 802.919ZM105.78 797.262L105.727 791.493L115.412 787.976L119.074 792.433L105.78 797.262ZM137.968 790.269C134.74 791.441 131.906 791.483 129.468 790.394C127.029 789.305 125.238 787.187 124.094 784.039L119.885 772.46L126.983 769.882L131.115 781.25C131.698 782.854 132.404 783.891 133.234 784.362C134.056 784.812 134.958 784.859 135.94 784.502C136.943 784.138 137.605 783.523 137.926 782.658C138.259 781.765 138.135 780.516 137.552 778.912L133.42 767.544L140.398 765.009L144.606 776.588C145.75 779.736 145.737 782.51 144.567 784.91C143.396 787.31 141.196 789.096 137.968 790.269ZM159.328 782.51C157.564 783.151 155.787 783.569 153.997 783.766C152.207 783.962 150.664 783.932 149.368 783.677L149.774 777.673C150.987 777.891 152.272 777.958 153.626 777.874C154.993 777.764 156.258 777.497 157.421 777.075C158.103 776.827 158.62 776.594 158.971 776.375C159.336 776.129 159.579 775.893 159.702 775.667C159.816 775.421 159.83 775.178 159.743 774.938C159.604 774.557 159.284 774.332 158.783 774.265C158.282 774.197 157.655 774.221 156.902 774.335C156.162 774.422 155.352 774.535 154.471 774.673C153.584 774.791 152.668 774.863 151.723 774.888C150.799 774.906 149.903 774.812 149.033 774.606C148.184 774.392 147.414 773.991 146.723 773.402C146.025 772.793 145.472 771.927 145.064 770.805C144.59 769.501 144.521 768.187 144.857 766.862C145.205 765.51 145.985 764.251 147.195 763.085C148.426 761.912 150.124 760.932 152.289 760.145C153.713 759.628 155.171 759.269 156.664 759.067C158.157 758.865 159.568 758.875 160.897 759.096L160.63 765.014C159.398 764.872 158.243 764.849 157.166 764.945C156.109 765.034 155.119 765.246 154.197 765.581C153.515 765.828 152.996 766.085 152.638 766.351C152.281 766.617 152.048 766.883 151.941 767.149C151.853 767.408 151.853 767.658 151.941 767.898C152.072 768.259 152.388 768.473 152.889 768.541C153.383 768.588 153.997 768.559 154.729 768.451C155.482 768.337 156.299 768.21 157.179 768.072C158.08 767.927 158.992 767.845 159.916 767.827C160.84 767.809 161.727 767.907 162.576 768.12C163.446 768.327 164.226 768.724 164.917 769.313C165.607 769.902 166.153 770.748 166.554 771.851C167.02 773.134 167.079 774.452 166.731 775.804C166.395 777.129 165.626 778.384 164.423 779.57C163.212 780.736 161.514 781.716 159.328 782.51ZM172.758 762.107L182.142 758.699L184 763.811L174.616 767.22L172.758 762.107ZM176.103 769.812L186.63 765.988L188.576 771.342L171.071 777.7L163.419 756.647L180.533 750.431L182.479 755.785L172.343 759.466L176.103 769.812ZM198.04 767.904L199.592 743.509L206.57 740.974L223.425 758.684L216.086 761.349L202.861 746.134L205.629 745.129L205.259 765.282L198.04 767.904ZM202.181 762.247L202.127 756.478L211.812 752.961L215.475 757.418L202.181 762.247ZM235.798 740.503L245.062 737.138L247.008 742.492L237.744 745.856L235.798 740.503ZM240.674 752.418L233.576 754.997L225.924 733.944L243.038 727.728L244.983 733.081L234.968 736.719L240.674 752.418ZM254.619 732.373L264.003 728.965L265.861 734.077L256.477 737.486L254.619 732.373ZM257.964 740.078L268.491 736.254L270.437 741.608L252.932 747.966L245.28 726.913L262.394 720.697L264.34 726.051L254.204 729.732L257.964 740.078ZM274.857 725.022L284.241 721.614L286.099 726.727L276.715 730.135L274.857 725.022ZM278.202 732.727L288.729 728.904L290.675 734.257L273.17 740.615L265.518 719.563L282.632 713.346L284.578 718.7L274.441 722.381L278.202 732.727ZM293.407 733.264L285.755 712.212L292.854 709.634L298.505 725.182L308.009 721.73L310.01 727.234L293.407 733.264ZM311.971 726.522L304.319 705.469L311.417 702.891L319.069 723.943L311.971 726.522ZM322.486 722.702L314.834 701.65L320.669 699.53L336.033 708.453L333.326 709.436L328.67 696.624L335.587 694.112L343.239 715.164L337.404 717.284L322.04 708.361L324.747 707.378L329.404 720.19L322.486 722.702ZM357.752 710.437C356.048 711.056 354.379 711.367 352.746 711.371C351.126 711.346 349.605 711.036 348.186 710.44C346.786 709.836 345.551 708.968 344.481 707.836C343.412 706.704 342.582 705.325 341.991 703.701C341.401 702.077 341.152 700.488 341.246 698.934C341.339 697.379 341.738 695.917 342.444 694.549C343.15 693.18 344.13 691.973 345.384 690.928C346.651 689.855 348.157 689.001 349.901 688.368C351.986 687.61 353.969 687.287 355.848 687.399C357.747 687.504 359.465 688.015 361.002 688.932L357.914 694.582C356.975 694.06 356.046 693.751 355.125 693.654C354.217 693.53 353.292 693.639 352.35 693.981C351.568 694.265 350.9 694.644 350.346 695.118C349.811 695.584 349.408 696.128 349.134 696.749C348.861 697.371 348.72 698.046 348.713 698.775C348.705 699.504 348.851 700.279 349.15 701.101C349.434 701.883 349.817 702.561 350.298 703.136C350.771 703.69 351.313 704.117 351.921 704.418C352.53 704.719 353.183 704.891 353.879 704.933C354.588 704.948 355.324 704.817 356.086 704.54C356.888 704.249 357.622 703.834 358.289 703.297C358.949 702.739 359.59 701.973 360.212 700.998L365.953 704.429C364.983 705.757 363.76 706.95 362.283 708.009C360.807 709.067 359.296 709.876 357.752 710.437ZM359.459 705.766L356.552 697.766L362.717 695.526L365.953 704.429L359.459 705.766ZM157.349 824.722C155.645 825.341 153.962 825.646 152.302 825.636C150.661 825.619 149.131 825.312 147.711 824.716C146.284 824.099 145.026 823.229 143.936 822.104C142.866 820.972 142.043 819.614 141.468 818.03C140.885 816.426 140.643 814.856 140.744 813.322C140.857 811.76 141.267 810.295 141.972 808.926C142.671 807.538 143.643 806.311 144.89 805.245C146.157 804.172 147.643 803.326 149.347 802.707C151.072 802.081 152.754 801.776 154.395 801.793C156.035 801.81 157.569 802.126 158.996 802.743C160.416 803.339 161.661 804.204 162.731 805.336C163.813 806.441 164.646 807.795 165.229 809.399C165.805 810.983 166.036 812.556 165.922 814.118C165.829 815.672 165.433 817.144 164.735 818.532C164.029 819.901 163.053 821.118 161.806 822.184C160.559 823.249 159.073 824.096 157.349 824.722ZM155.261 818.978C155.923 818.737 156.491 818.395 156.965 817.95C157.459 817.498 157.836 816.975 158.097 816.381C158.37 815.76 158.511 815.085 158.518 814.356C158.519 813.607 158.369 812.821 158.07 811.999C157.772 811.177 157.385 810.489 156.912 809.935C156.43 809.361 155.889 808.933 155.288 808.652C154.699 808.344 154.07 808.175 153.401 808.146C152.752 808.109 152.097 808.211 151.435 808.451C150.774 808.692 150.196 809.038 149.702 809.489C149.228 809.934 148.854 810.467 148.58 811.088C148.32 811.682 148.189 812.354 148.189 813.103C148.182 813.832 148.327 814.608 148.626 815.43C148.925 816.252 149.315 816.95 149.796 817.524C150.27 818.078 150.801 818.509 151.39 818.818C151.991 819.099 152.616 819.257 153.265 819.294C153.934 819.323 154.6 819.218 155.261 818.978ZM173.854 804.496L183.118 801.131L185.063 806.484L175.799 809.849L173.854 804.496ZM178.729 816.411L171.631 818.99L163.979 797.937L181.093 791.721L183.039 797.074L173.023 800.712L178.729 816.411ZM200.005 808.683L192.353 787.631L202.73 783.862C205.076 783.01 207.298 782.691 209.396 782.905C211.486 783.098 213.317 783.795 214.888 784.995C216.459 786.195 217.638 787.877 218.425 790.043C219.22 792.228 219.403 794.295 218.976 796.243C218.542 798.171 217.59 799.89 216.118 801.401C214.64 802.891 212.728 804.062 210.381 804.914L200.005 808.683ZM205.092 800.571L208.069 799.49C209.072 799.126 209.875 798.618 210.478 797.968C211.102 797.31 211.489 796.534 211.641 795.639C211.785 794.724 211.66 793.726 211.267 792.643C210.881 791.58 210.342 790.754 209.651 790.166C208.961 789.577 208.165 789.23 207.265 789.126C206.384 789.014 205.443 789.141 204.44 789.505L201.463 790.586L205.092 800.571ZM226.541 784.065L235.925 780.656L237.783 785.769L228.399 789.178L226.541 784.065ZM229.886 791.77L240.413 787.946L242.359 793.299L224.854 799.658L217.202 778.605L234.316 772.389L236.262 777.742L226.126 781.424L229.886 791.77ZM245.091 792.307L237.44 771.254L244.538 768.676L250.189 784.225L259.694 780.773L261.694 786.276L245.091 792.307ZM263.655 785.564L256.003 764.512L263.101 761.933L270.753 782.986L263.655 785.564ZM285.263 778.26C283.559 778.879 281.89 779.19 280.257 779.193C278.636 779.169 277.116 778.859 275.696 778.262C274.297 777.659 273.062 776.791 271.992 775.659C270.922 774.527 270.092 773.148 269.502 771.524C268.912 769.9 268.663 768.311 268.757 766.756C268.85 765.202 269.249 763.74 269.955 762.372C270.66 761.003 271.64 759.796 272.895 758.751C274.162 757.678 275.667 756.824 277.412 756.191C279.497 755.433 281.48 755.11 283.359 755.222C285.258 755.327 286.976 755.838 288.512 756.755L285.425 762.404C284.486 761.883 283.556 761.574 282.636 761.477C281.728 761.353 280.803 761.462 279.861 761.804C279.079 762.088 278.411 762.467 277.856 762.94C277.322 763.407 276.918 763.951 276.645 764.572C276.371 765.193 276.231 765.869 276.223 766.598C276.216 767.327 276.362 768.102 276.66 768.924C276.945 769.706 277.327 770.384 277.808 770.959C278.282 771.513 278.824 771.94 279.432 772.241C280.041 772.542 280.694 772.714 281.39 772.756C282.099 772.771 282.834 772.64 283.596 772.363C284.398 772.072 285.133 771.657 285.8 771.12C286.46 770.562 287.101 769.796 287.723 768.821L293.464 772.251C292.494 773.58 291.271 774.773 289.794 775.831C288.317 776.89 286.807 777.699 285.263 778.26ZM286.97 773.589L284.062 765.589L290.228 763.349L293.464 772.251L286.97 773.589ZM303.29 747.336L310.388 744.758L318.04 765.81L310.941 768.388L303.29 747.336ZM304.385 770.77L297.286 773.348L289.634 752.296L296.733 749.718L304.385 770.77ZM308.602 760.454L301.083 763.186L298.962 757.351L306.482 754.62L308.602 760.454ZM326.032 762.907L320.38 747.359L314.214 749.598L312.214 744.094L331.644 737.037L333.644 742.541L327.478 744.78L333.13 760.329L326.032 762.907Z" fill="#024685"/>
</g>
<path fill-rule="evenodd" clip-rule="evenodd" d="M1264.62 74.8233C1211.46 87.3465 1158.6 101.256 1105.84 115.4C1053.15 129.523 1000.42 143.918 948.087 159.675C944.423 160.655 941.042 162.534 938.155 165.195C935.267 167.857 932.934 171.244 931.301 175.146C929.755 179.036 928.97 183.351 928.997 187.8C929.024 192.25 929.864 196.731 931.459 200.943C934.898 209.838 940.915 217.218 948.342 221.652C955.686 226.133 963.893 227.587 971.543 225.762C1022.96 213.708 1074.03 200.278 1124.93 186.633C1175.91 172.968 1226.85 159.052 1277.36 143.783C1284.91 141.556 1291.31 136.2 1295.44 128.646C1299.56 121.065 1301 111.681 1299.48 102.304C1298.78 97.8632 1297.31 93.558 1295.14 89.6745C1292.98 85.7911 1290.18 82.4184 1286.92 79.7809C1283.55 77.2197 1279.83 75.4576 1275.99 74.6046C1272.16 73.7516 1268.28 73.826 1264.62 74.8233Z" fill="url(#paint15_linear_595_12609)"/>
<path style="mix-blend-mode:screen" fill-rule="evenodd" clip-rule="evenodd" d="M1052.79 125.007C1087.94 114.459 1210.28 80.9718 1259.52 70.1051C1275.1 66.666 1287.29 68.8795 1296.03 85.8732C1296.68 87.1302 1297.59 89.0618 1296.82 90.06C1296.22 90.8475 1294.89 89.1888 1294.29 88.2633C1284.21 72.7358 1275.3 70.4929 1259.9 73.4078C1214.91 81.9227 1094.36 116.679 1053.37 126.75C1048.48 127.95 1050.04 125.834 1052.79 125.007ZM1298.38 93.5699C1299.09 93.187 1300.02 94.554 1300.38 95.455C1301.5 98.3816 1302.17 101.478 1302.36 104.587C1302.62 107.815 1302.42 111.019 1301.76 114.068C1301.31 115.638 1299.71 116.679 1299.68 114.173C1299.85 111.021 1299.8 107.834 1299.53 104.644C1299.26 101.988 1298.79 99.344 1298.15 96.7388C1297.85 95.6359 1297.54 94.0217 1298.38 93.5699Z" fill="url(#paint16_linear_595_12609)"/>
<path style="mix-blend-mode:screen" fill-rule="evenodd" clip-rule="evenodd" d="M1179.98 175.956C1145.01 186.459 1022.77 219.916 973.18 230.878C957.483 234.349 944.461 232.358 932.773 216.154C931.91 214.957 930.667 213.113 931.312 212.146C931.82 211.385 933.452 212.961 934.219 213.842C947.08 228.625 956.687 230.679 972.277 227.715C1017.81 219.057 1137.99 184.399 1179.12 174.29C1184.02 173.086 1182.73 175.132 1179.98 175.956ZM929.157 208.797C928.472 209.172 927.297 207.872 926.79 207.012C925.214 204.321 924.042 201.361 923.33 198.276C922.579 195.275 922.3 192.189 922.508 189.175C922.747 187.663 924.248 186.647 924.661 189.05C924.975 192.121 925.513 195.179 926.272 198.189C926.974 200.775 927.858 203.307 928.913 205.757C929.395 206.81 929.963 208.355 929.157 208.797Z" fill="url(#paint17_linear_595_12609)"/>
<path style="mix-blend-mode:screen" opacity="0.35" fill-rule="evenodd" clip-rule="evenodd" d="M1288.27 68.301C1289.75 70.2162 1290.68 73.1949 1290.02 73.8793C1289.53 74.3814 1288.07 73.1961 1285.97 71.7601C1281.92 69.0767 1277.46 67.5482 1272.98 67.3088C1265.18 67.2305 1257.5 68.3097 1250.11 70.5211C1231.19 74.6281 1212.42 79.4143 1193.72 84.4261C1117.06 104.977 1036.79 124.731 960.966 149.078C936.945 156.791 932.207 160.515 922.751 177.018C921.872 178.552 920.707 180.587 919.775 180.264C918.928 179.972 918.231 177.534 918.929 174.814C924.69 152.309 939.41 139.765 958.762 132.9C1039.71 104.173 1161.48 68.3839 1245.56 55.4151C1262.55 52.7935 1279.02 56.3496 1288.27 68.301Z" fill="url(#paint18_linear_595_12609)"/>
<path style="mix-blend-mode:multiply" opacity="0.5" fill-rule="evenodd" clip-rule="evenodd" d="M1306.24 135.333C1306.56 132.934 1305.88 129.892 1304.96 129.631C1304.29 129.439 1303.62 131.193 1302.52 133.489C1300.35 137.84 1297.25 141.394 1293.5 143.839C1286.78 147.808 1279.59 150.718 1272.08 152.501C1253.64 158.409 1235 163.65 1216.3 168.662C1139.64 189.212 1059.81 213.888 981.978 230.731C957.32 236.067 950.996 236.214 935.265 225.104C933.797 224.067 932.103 222.629 931.457 223.373C930.869 224.049 931.761 226.133 933.725 228.14C949.97 244.746 968.41 247.946 988.601 244.213C1073.06 228.598 1196.41 198.679 1275.7 167.857C1291.73 161.626 1304.21 150.306 1306.24 135.333Z" fill="url(#paint19_linear_595_12609)"/>
<g filter="url(#filter3_i_595_12609)">
<path d="M987.421 200.115C985.696 200.601 984.019 200.785 982.39 200.667C980.776 200.523 979.283 200.102 977.911 199.402C976.56 198.696 975.393 197.74 974.41 196.532C973.427 195.323 972.702 193.888 972.233 192.224C971.765 190.561 971.635 188.958 971.843 187.414C972.051 185.871 972.547 184.445 973.331 183.139C974.136 181.826 975.193 180.697 976.5 179.753C977.822 178.782 979.346 178.054 981.071 177.568C983.186 176.972 985.159 176.816 986.989 177.098C988.84 177.375 990.496 178.061 991.957 179.156L988.521 184.546C987.659 183.924 986.777 183.507 985.876 183.296C984.989 183.058 984.063 183.075 983.097 183.347C982.338 183.561 981.684 183.878 981.138 184.298C980.591 184.718 980.158 185.227 979.84 185.827C979.542 186.421 979.365 187.091 979.309 187.838C979.248 188.565 979.333 189.339 979.564 190.16C979.795 190.981 980.13 191.696 980.567 192.304C980.998 192.892 981.496 193.361 982.06 193.712C982.645 194.057 983.28 194.266 983.966 194.339C984.651 194.412 985.374 194.342 986.134 194.128C987.099 193.856 987.9 193.397 988.539 192.752C989.192 192.081 989.724 191.255 990.135 190.275L995.878 193.079C995.198 194.755 994.143 196.205 992.714 197.427C991.3 198.623 989.536 199.519 987.421 200.115ZM1010.04 193.744C1008.3 194.235 1006.6 194.415 1004.94 194.283C1003.31 194.144 1001.81 193.726 1000.43 193.026C999.057 192.306 997.866 191.344 996.863 190.142C995.88 188.934 995.16 187.519 994.703 185.897C994.24 184.254 994.116 182.671 994.33 181.148C994.558 179.599 995.075 178.168 995.88 176.855C996.679 175.522 997.74 174.37 999.062 173.399C1000.41 172.422 1001.95 171.688 1003.69 171.197C1005.46 170.699 1007.16 170.52 1008.8 170.658C1010.43 170.796 1011.94 171.225 1013.31 171.945C1014.69 172.645 1015.86 173.599 1016.85 174.807C1017.84 175.989 1018.57 177.401 1019.04 179.044C1019.49 180.666 1019.61 182.252 1019.38 183.801C1019.17 185.345 1018.67 186.783 1017.87 188.116C1017.06 189.429 1016 190.571 1014.68 191.541C1013.35 192.512 1011.81 193.246 1010.04 193.744ZM1008.39 187.86C1009.07 187.67 1009.66 187.37 1010.16 186.962C1010.69 186.548 1011.1 186.054 1011.41 185.481C1011.73 184.881 1011.92 184.218 1011.98 183.492C1012.03 182.745 1011.94 181.95 1011.71 181.108C1011.47 180.266 1011.13 179.552 1010.7 178.964C1010.27 178.356 1009.76 177.889 1009.18 177.565C1008.61 177.214 1008 176.999 1007.33 176.92C1006.69 176.836 1006.03 176.889 1005.35 177.08C1004.67 177.271 1004.07 177.573 1003.55 177.987C1003.04 178.396 1002.63 178.899 1002.31 179.499C1002.01 180.072 1001.83 180.732 1001.77 181.479C1001.71 182.206 1001.8 182.99 1002.03 183.832C1002.27 184.674 1002.61 185.399 1003.05 186.007C1003.48 186.595 1003.97 187.064 1004.54 187.415C1005.12 187.74 1005.73 187.944 1006.37 188.029C1007.04 188.107 1007.71 188.051 1008.39 187.86ZM1036.15 186.391C1034.41 186.882 1032.71 187.062 1031.05 186.93C1029.42 186.792 1027.92 186.373 1026.54 185.673C1025.17 184.953 1023.98 183.991 1022.97 182.789C1021.99 181.581 1021.27 180.166 1020.81 178.544C1020.35 176.901 1020.23 175.318 1020.44 173.795C1020.67 172.246 1021.18 170.815 1021.99 169.502C1022.79 168.169 1023.85 167.017 1025.17 166.046C1026.51 165.069 1028.06 164.335 1029.8 163.844C1031.57 163.346 1033.27 163.167 1034.91 163.305C1036.54 163.443 1038.05 163.872 1039.42 164.592C1040.79 165.292 1041.97 166.246 1042.96 167.454C1043.95 168.636 1044.68 170.048 1045.15 171.691C1045.6 173.313 1045.72 174.899 1045.49 176.448C1045.28 177.992 1044.78 179.43 1043.98 180.763C1043.17 182.076 1042.11 183.218 1040.79 184.188C1039.46 185.159 1037.92 185.893 1036.15 186.391ZM1034.5 180.508C1035.17 180.317 1035.77 180.017 1036.27 179.609C1036.8 179.195 1037.21 178.701 1037.52 178.128C1037.84 177.528 1038.03 176.865 1038.09 176.139C1038.14 175.392 1038.05 174.597 1037.81 173.755C1037.58 172.913 1037.24 172.199 1036.81 171.611C1036.37 171.003 1035.87 170.536 1035.29 170.212C1034.72 169.861 1034.11 169.646 1033.44 169.567C1032.8 169.483 1032.14 169.536 1031.46 169.727C1030.78 169.918 1030.18 170.22 1029.66 170.634C1029.15 171.043 1028.74 171.547 1028.42 172.146C1028.11 172.719 1027.94 173.379 1027.88 174.126C1027.82 174.853 1027.91 175.637 1028.14 176.479C1028.38 177.321 1028.72 178.046 1029.15 178.654C1029.59 179.242 1030.08 179.711 1030.65 180.062C1031.23 180.387 1031.84 180.591 1032.48 180.676C1033.15 180.754 1033.82 180.698 1034.5 180.508ZM1050.82 181.728L1044.75 160.167L1052.02 158.12L1056.5 174.045L1066.24 171.303L1067.82 176.94L1050.82 181.728ZM1078.01 174.604C1076.2 175.112 1074.4 175.399 1072.6 175.462C1070.8 175.526 1069.26 175.382 1067.99 175.031L1068.84 169.074C1070.03 169.381 1071.31 169.542 1072.67 169.559C1074.04 169.55 1075.32 169.377 1076.51 169.042C1077.21 168.845 1077.74 168.651 1078.11 168.459C1078.49 168.241 1078.75 168.023 1078.89 167.807C1079.02 167.57 1079.05 167.328 1078.98 167.082C1078.87 166.692 1078.57 166.445 1078.08 166.34C1077.58 166.236 1076.95 166.213 1076.19 166.271C1075.45 166.304 1074.63 166.356 1073.75 166.429C1072.85 166.481 1071.93 166.485 1070.99 166.441C1070.07 166.39 1069.18 166.23 1068.33 165.96C1067.5 165.685 1066.76 165.228 1066.11 164.589C1065.46 163.93 1064.97 163.026 1064.65 161.876C1064.27 160.541 1064.3 159.226 1064.74 157.929C1065.18 156.606 1066.05 155.408 1067.35 154.335C1068.66 153.255 1070.43 152.404 1072.64 151.779C1074.1 151.368 1075.58 151.118 1077.09 151.027C1078.59 150.936 1080 151.049 1081.31 151.368L1080.6 157.251C1079.38 157.018 1078.23 156.909 1077.15 156.926C1076.09 156.936 1075.09 157.075 1074.14 157.341C1073.45 157.537 1072.91 157.755 1072.53 157.994C1072.16 158.233 1071.91 158.481 1071.78 158.738C1071.67 158.99 1071.65 159.239 1071.72 159.485C1071.83 159.855 1072.13 160.092 1072.62 160.196C1073.11 160.28 1073.72 160.296 1074.46 160.243C1075.22 160.184 1076.05 160.119 1076.93 160.046C1077.84 159.967 1078.76 159.953 1079.68 160.003C1080.6 160.054 1081.48 160.217 1082.31 160.492C1083.16 160.762 1083.91 161.216 1084.56 161.855C1085.2 162.493 1085.68 163.377 1086 164.506C1086.37 165.821 1086.33 167.139 1085.89 168.462C1085.45 169.759 1084.59 170.954 1083.31 172.048C1082.01 173.121 1080.25 173.973 1078.01 174.604ZM1103.99 166.755L1099.51 150.83L1093.19 152.608L1091.6 146.971L1111.5 141.368L1113.09 147.005L1106.78 148.783L1111.26 164.707L1103.99 166.755ZM1127.37 136.898L1134.64 134.851L1140.72 156.412L1133.45 158.459L1127.37 136.898ZM1126.73 160.35L1119.46 162.397L1113.39 140.836L1120.66 138.789L1126.73 160.35ZM1131.7 150.374L1124 152.542L1122.32 146.567L1130.02 144.398L1131.7 150.374ZM1147.05 139.999L1156.66 137.293L1158.14 142.529L1148.53 145.236L1147.05 139.999ZM1149.82 147.931L1160.6 144.894L1162.15 150.377L1144.22 155.426L1138.15 133.864L1155.67 128.929L1157.22 134.411L1146.84 137.335L1149.82 147.931ZM1174.18 146.989L1168.11 125.427L1174.08 123.744L1186.67 135.392L1183.53 136.277L1187.94 119.841L1193.92 118.158L1200.05 139.702L1193.43 141.567L1190.11 130.003L1191.15 129.708L1188.14 140.962L1184.94 141.864L1176.25 133.906L1177.54 133.542L1180.8 145.124L1174.18 146.989ZM1203.57 138.712L1197.49 117.151L1204.76 115.104L1210.84 136.665L1203.57 138.712ZM1214.33 135.68L1208.26 114.118L1214.24 112.435L1228.9 122.469L1226.13 123.25L1222.43 110.128L1229.52 108.133L1235.59 129.694L1229.61 131.377L1214.95 121.344L1217.72 120.563L1221.42 133.684L1214.33 135.68ZM1239.09 128.708L1233.02 107.147L1243.65 104.154C1246.05 103.477 1248.29 103.323 1250.36 103.691C1252.43 104.039 1254.21 104.869 1255.69 106.182C1257.16 107.495 1258.21 109.26 1258.84 111.477C1259.47 113.716 1259.5 115.79 1258.93 117.702C1258.35 119.593 1257.28 121.237 1255.7 122.635C1254.11 124.012 1252.12 125.039 1249.72 125.715L1239.09 128.708ZM1244.76 120.993L1247.81 120.134C1248.84 119.845 1249.68 119.399 1250.33 118.795C1251 118.185 1251.44 117.439 1251.66 116.558C1251.87 115.656 1251.82 114.651 1251.51 113.542C1251.2 112.454 1250.73 111.59 1250.08 110.952C1249.44 110.314 1248.67 109.909 1247.78 109.739C1246.91 109.563 1245.96 109.619 1244.93 109.908L1241.88 110.767L1244.76 120.993Z" fill="#024685"/>
</g>
<path fill-rule="evenodd" clip-rule="evenodd" d="M1058.99 419.741C1111.85 405.805 1165.28 394.263 1218.76 383.154C1272.17 372.06 1325.77 361.371 1379.85 353.095C1383.56 352.319 1387.57 353.152 1391.62 355.54C1395.67 357.929 1399.67 361.822 1403.39 366.978C1407.02 372.17 1410.25 378.52 1412.87 385.602C1415.49 392.683 1417.44 400.331 1418.58 408.033C1420.93 424.341 1420.17 439.886 1416.46 451.649C1412.85 463.434 1406.7 470.963 1399.08 472.933C1347.99 486.501 1296.38 497.668 1244.78 508.385C1193.11 519.118 1141.31 529.43 1089.08 537.323C1081.31 538.59 1072.66 534.156 1064.64 524.791C1056.61 515.382 1049.81 501.399 1045.54 485.541C1043.49 478.051 1042.2 470.277 1041.74 462.735C1041.28 455.193 1041.67 448.056 1042.88 441.8C1044.24 435.588 1046.37 430.424 1049.14 426.629C1051.92 422.833 1055.27 420.489 1058.99 419.741Z" fill="url(#paint20_linear_595_12609)"/>
<path style="mix-blend-mode:screen" fill-rule="evenodd" clip-rule="evenodd" d="M1267.68 365.362C1231.39 370.974 1106.96 395.636 1058.44 409.706C1043.08 414.16 1033.98 425.427 1036.61 457.966C1036.8 460.373 1037.17 464.019 1038.42 465.117C1039.4 465.983 1039.55 462.506 1039.52 460.654C1038.9 429.589 1045.18 420.365 1060.07 415.194C1103.57 400.091 1227.22 378.585 1268.23 368.497C1273.11 367.294 1270.53 364.923 1267.68 365.362ZM1039.18 471.678C1038.34 471.525 1038.36 474.286 1038.59 475.943C1039.37 481.305 1040.63 486.648 1042.32 491.703C1044.02 496.992 1046.09 501.951 1048.46 506.375C1049.79 508.576 1051.77 509.214 1050.31 505.216C1048.29 500.318 1046.44 495.227 1044.77 489.991C1043.43 485.603 1042.25 481.111 1041.26 476.563C1040.86 474.621 1040.16 471.861 1039.18 471.678Z" fill="url(#paint21_linear_595_12609)"/>
<path style="mix-blend-mode:screen" fill-rule="evenodd" clip-rule="evenodd" d="M1189.28 527.16C1225.41 521.587 1349.72 496.944 1398.61 482.799C1414.08 478.324 1424.03 466.879 1424.38 433.719C1424.41 431.271 1424.38 427.553 1423.25 426.428C1422.36 425.542 1421.91 429.083 1421.77 430.968C1419.57 462.62 1412.58 471.992 1397.5 477.204C1353.45 492.421 1230.18 513.848 1189.03 523.964C1184.13 525.172 1186.45 527.596 1189.28 527.16ZM1423.1 419.741C1423.91 419.9 1424.14 417.087 1424.06 415.399C1423.81 410.126 1423.05 404.681 1421.83 399.33C1420.69 394.089 1419.09 389.011 1417.12 384.358C1416.02 382.11 1414.13 381.452 1415.21 385.53C1416.77 390.605 1418.12 395.802 1419.26 401.064C1420.2 405.617 1420.95 410.198 1421.5 414.758C1421.72 416.736 1422.15 419.55 1423.1 419.741Z" fill="url(#paint22_linear_595_12609)"/>
<path style="mix-blend-mode:screen" opacity="0.35" fill-rule="evenodd" clip-rule="evenodd" d="M1032.8 425.133C1032.67 429.117 1033.65 434.435 1034.62 435.1C1035.33 435.588 1035.88 432.778 1036.82 429.162C1038.69 422.323 1041.59 417.059 1045.27 413.833C1051.89 408.747 1059.1 405.571 1066.72 404.381C1085.33 398.865 1104.21 394.526 1123.16 390.59C1200.87 374.448 1281.19 354.747 1360.44 345.167C1385.54 342.131 1391.81 345.028 1409.69 365.213C1411.35 367.089 1413.56 369.579 1414.16 368.473C1414.71 367.472 1413.86 363.158 1411.65 359.283C1393.35 327.22 1373.32 316.669 1352.71 318.08C1266.48 323.968 1141.17 344.613 1061.63 377.505C1045.56 384.155 1033.6 400.277 1032.8 425.133Z" fill="url(#paint23_linear_595_12609)"/>
<path style="mix-blend-mode:multiply" opacity="0.5" fill-rule="evenodd" clip-rule="evenodd" d="M1057.28 542.98C1055.57 539.379 1054.35 534.112 1054.98 533.115C1055.44 532.384 1057.06 534.742 1059.36 537.687C1063.8 543.214 1068.56 546.886 1073.22 548.38C1081.31 550.408 1089.19 550.451 1096.66 548.508C1115.92 546.158 1134.97 542.619 1153.92 538.682C1231.63 522.541 1314.5 510.934 1391.01 488.162C1415.24 480.947 1420.73 477.157 1427.57 449.513C1428.21 446.932 1428.8 443.571 1429.8 444.343C1430.7 445.042 1431.18 448.918 1430.69 453.352C1426.68 490.049 1412.83 506.859 1393.36 513.777C1311.91 542.718 1188.75 573.682 1102.7 575.187C1085.3 575.491 1067.91 565.461 1057.28 542.98Z" fill="url(#paint24_linear_595_12609)"/>
<g filter="url(#filter4_i_595_12609)">
<path d="M1095.57 465.931L1090.95 444.013L1097.02 442.733L1108.81 455.194L1105.62 455.867L1111.12 439.762L1117.19 438.481L1121.87 460.386L1115.14 461.805L1112.6 450.045L1113.66 449.821L1109.9 460.849L1106.65 461.536L1098.51 453.016L1099.82 452.739L1102.3 464.512L1095.57 465.931ZM1123.07 460.135L1128.03 436.196L1135.29 434.665L1149.49 454.563L1141.85 456.174L1130.9 439.254L1133.78 438.647L1130.58 458.55L1123.07 460.135ZM1127.96 455.113L1128.72 449.394L1138.8 447.268L1141.8 452.195L1127.96 455.113ZM1156.29 448.225L1154.17 440.201L1160.52 429.346L1168.56 427.65L1161.45 439.811L1158.23 444.872L1156.29 448.225ZM1150.67 454.314L1146.05 432.396L1153.32 430.865L1157.94 452.783L1150.67 454.314ZM1165.08 451.278L1156.83 444.121L1160.55 438.038L1173.62 449.475L1165.08 451.278ZM1178.47 434.063L1188.24 432.004L1189.37 437.327L1179.6 439.386L1178.47 434.063ZM1180.7 442.161L1191.66 439.851L1192.84 445.424L1174.61 449.266L1169.99 427.348L1187.81 423.592L1188.99 429.165L1178.43 431.39L1180.7 442.161ZM1203.96 443.603C1202.12 443.99 1200.31 444.155 1198.51 444.099C1196.71 444.042 1195.18 443.796 1193.94 443.362L1195.18 437.474C1196.35 437.86 1197.61 438.106 1198.97 438.213C1200.33 438.295 1201.62 438.209 1202.84 437.953C1203.55 437.804 1204.09 437.645 1204.47 437.478C1204.86 437.286 1205.14 437.086 1205.29 436.88C1205.44 436.652 1205.49 436.413 1205.43 436.163C1205.35 435.766 1205.07 435.499 1204.58 435.362C1204.09 435.225 1203.47 435.16 1202.71 435.168C1201.96 435.151 1201.14 435.149 1200.25 435.162C1199.36 435.155 1198.44 435.097 1197.5 434.99C1196.58 434.878 1195.71 434.659 1194.88 434.333C1194.07 434.003 1193.36 433.497 1192.76 432.817C1192.15 432.117 1191.73 431.182 1191.48 430.013C1191.19 428.656 1191.31 427.345 1191.83 426.08C1192.36 424.79 1193.31 423.653 1194.67 422.668C1196.06 421.679 1197.88 420.946 1200.13 420.471C1201.61 420.159 1203.11 420.007 1204.61 420.017C1206.12 420.026 1207.52 420.233 1208.8 420.638L1207.71 426.461C1206.51 426.147 1205.37 425.963 1204.29 425.907C1203.23 425.847 1202.22 425.918 1201.26 426.12C1200.55 426.27 1200 426.452 1199.61 426.665C1199.21 426.878 1198.95 427.109 1198.8 427.357C1198.68 427.601 1198.64 427.848 1198.7 428.099C1198.78 428.475 1199.06 428.731 1199.55 428.868C1200.03 428.985 1200.64 429.041 1201.38 429.038C1202.14 429.03 1202.97 429.019 1203.86 429.006C1204.77 428.988 1205.69 429.035 1206.6 429.146C1207.52 429.258 1208.39 429.479 1209.2 429.81C1210.03 430.136 1210.74 430.639 1211.35 431.319C1211.95 431.999 1212.37 432.913 1212.61 434.061C1212.89 435.397 1212.77 436.71 1212.23 438C1211.71 439.265 1210.77 440.4 1209.42 441.406C1208.06 442.391 1206.24 443.123 1203.96 443.603ZM1225.65 438.507L1221.03 416.589L1231.58 414.364C1233.63 413.933 1235.46 413.895 1237.08 414.25C1238.73 414.601 1240.09 415.317 1241.17 416.398C1242.24 417.458 1242.95 418.833 1243.31 420.524C1243.67 422.215 1243.57 423.762 1243.01 425.165C1242.46 426.569 1241.5 427.773 1240.15 428.779C1238.81 429.759 1237.11 430.465 1235.07 430.896L1228.62 432.256L1231.24 428.401L1233.04 436.949L1225.65 438.507ZM1231.41 429.215L1227.41 426.558L1233.39 425.297C1234.42 425.081 1235.12 424.693 1235.5 424.133C1235.91 423.568 1236.03 422.889 1235.86 422.095C1235.69 421.302 1235.31 420.729 1234.71 420.375C1234.13 420.017 1233.33 419.946 1232.31 420.162L1226.33 421.422L1228.91 417.379L1231.41 429.215ZM1252.47 418.462L1262.24 416.402L1263.36 421.725L1253.59 423.785L1252.47 418.462ZM1254.7 426.56L1265.66 424.25L1266.84 429.823L1248.61 433.665L1243.99 411.747L1261.81 407.991L1262.98 413.564L1252.43 415.789L1254.7 426.56ZM1281.28 427.302C1279.5 427.676 1277.8 427.741 1276.15 427.499C1274.53 427.252 1273.06 426.734 1271.74 425.945C1270.41 425.134 1269.29 424.096 1268.37 422.829C1267.47 421.558 1266.84 420.098 1266.49 418.449C1266.14 416.779 1266.12 415.191 1266.44 413.686C1266.77 412.155 1267.38 410.762 1268.27 409.506C1269.16 408.229 1270.29 407.15 1271.68 406.27C1273.08 405.385 1274.67 404.755 1276.45 404.381C1278.24 404.003 1279.95 403.937 1281.57 404.184C1283.19 404.43 1284.67 404.959 1285.99 405.77C1287.32 406.559 1288.43 407.589 1289.33 408.86C1290.24 410.106 1290.88 411.564 1291.23 413.234C1291.58 414.883 1291.59 416.473 1291.25 418.003C1290.94 419.53 1290.35 420.931 1289.46 422.208C1288.57 423.464 1287.43 424.533 1286.05 425.413C1284.66 426.294 1283.07 426.923 1281.28 427.302ZM1280.02 421.321C1280.71 421.176 1281.32 420.916 1281.85 420.543C1282.4 420.164 1282.85 419.7 1283.19 419.148C1283.55 418.571 1283.78 417.922 1283.89 417.201C1284 416.46 1283.96 415.661 1283.78 414.805C1283.6 413.949 1283.31 413.214 1282.92 412.598C1282.52 411.962 1282.05 411.463 1281.49 411.101C1280.95 410.713 1280.35 410.458 1279.7 410.335C1279.06 410.208 1278.4 410.217 1277.71 410.362C1277.02 410.507 1276.4 410.769 1275.84 411.147C1275.31 411.521 1274.87 411.996 1274.51 412.573C1274.17 413.125 1273.95 413.771 1273.84 414.513C1273.73 415.234 1273.77 416.022 1273.95 416.878C1274.13 417.734 1274.41 418.48 1274.81 419.116C1275.2 419.731 1275.67 420.232 1276.21 420.62C1276.76 420.982 1277.36 421.227 1278 421.355C1278.66 421.477 1279.33 421.466 1280.02 421.321ZM1296.22 423.627L1291.6 401.709L1302.15 399.485C1304.2 399.053 1306.03 399.015 1307.66 399.371C1309.3 399.722 1310.66 400.438 1311.74 401.519C1312.81 402.579 1313.53 403.954 1313.89 405.645C1314.24 407.336 1314.14 408.883 1313.59 410.286C1313.03 411.689 1312.08 412.894 1310.72 413.9C1309.38 414.88 1307.69 415.586 1305.64 416.017L1299.19 417.377L1301.81 413.521L1303.61 422.07L1296.22 423.627ZM1301.98 414.336L1297.99 411.678L1303.97 410.417C1304.99 410.202 1305.69 409.814 1306.08 409.253C1306.48 408.688 1306.6 408.009 1306.43 407.216C1306.27 406.423 1305.88 405.849 1305.29 405.496C1304.71 405.138 1303.91 405.067 1302.89 405.282L1296.91 406.543L1299.49 402.5L1301.98 414.336ZM1319.19 418.786L1314.57 396.868L1321.96 395.31L1325.37 411.498L1335.26 409.412L1336.47 415.142L1319.19 418.786ZM1342.37 399.508L1352.14 397.449L1353.26 402.772L1343.49 404.831L1342.37 399.508ZM1344.6 407.607L1355.56 405.296L1356.74 410.869L1338.51 414.712L1333.89 392.793L1351.71 389.037L1352.88 394.611L1342.33 396.835L1344.6 407.607ZM1174.08 466.345L1181.47 464.787L1186.09 486.705L1178.7 488.263L1174.08 466.345ZM1171.87 489.702L1164.48 491.26L1159.86 469.342L1167.25 467.784L1171.87 489.702ZM1177.5 480.079L1169.67 481.729L1168.39 475.655L1176.21 474.005L1177.5 480.079ZM1187.27 486.456L1192.23 462.518L1199.49 460.986L1213.69 480.884L1206.05 482.495L1195.1 465.576L1197.98 464.969L1194.78 484.872L1187.27 486.456ZM1192.16 481.435L1192.92 475.716L1203 473.59L1206 478.517L1192.16 481.435ZM1214.87 480.636L1210.25 458.718L1220.81 456.493C1222.85 456.062 1224.69 456.024 1226.31 456.379C1227.95 456.73 1229.31 457.446 1230.39 458.527C1231.46 459.587 1232.18 460.962 1232.54 462.653C1232.89 464.344 1232.79 465.891 1232.24 467.294C1231.69 468.698 1230.73 469.902 1229.37 470.908C1228.03 471.888 1226.34 472.594 1224.29 473.025L1217.84 474.385L1220.46 470.53L1222.26 479.078L1214.87 480.636ZM1220.63 471.344L1216.64 468.687L1222.62 467.426C1223.64 467.21 1224.35 466.822 1224.73 466.262C1225.13 465.697 1225.25 465.018 1225.08 464.224C1224.92 463.431 1224.53 462.858 1223.94 462.504C1223.36 462.146 1222.56 462.075 1221.54 462.291L1215.56 463.552L1218.14 459.508L1220.63 471.344ZM1237.84 475.794L1233.22 453.876L1243.77 451.651C1245.81 451.22 1247.65 451.182 1249.27 451.538C1250.92 451.889 1252.28 452.605 1253.36 453.686C1254.43 454.746 1255.14 456.121 1255.5 457.812C1255.86 459.503 1255.76 461.05 1255.2 462.453C1254.65 463.856 1253.69 465.061 1252.34 466.066C1250.99 467.047 1249.3 467.753 1247.25 468.184L1240.8 469.544L1243.43 465.688L1245.23 474.236L1237.84 475.794ZM1243.6 466.502L1239.6 463.845L1245.58 462.584C1246.61 462.369 1247.31 461.981 1247.69 461.42C1248.1 460.855 1248.22 460.176 1248.05 459.383C1247.88 458.59 1247.5 458.016 1246.9 457.663C1246.32 457.305 1245.52 457.233 1244.5 457.449L1238.52 458.71L1241.1 454.666L1243.6 466.502ZM1260.8 470.953L1256.18 449.035L1263.57 447.477L1268.19 469.395L1260.8 470.953ZM1275.61 453.442L1285.38 451.382L1286.5 456.705L1276.73 458.765L1275.61 453.442ZM1277.84 461.54L1288.8 459.229L1289.97 464.803L1271.75 468.645L1267.13 446.727L1284.94 442.97L1286.12 448.544L1275.57 450.768L1277.84 461.54ZM1292.82 464.203L1288.2 442.285L1298.75 440.06C1300.79 439.629 1302.63 439.591 1304.25 439.946C1305.89 440.297 1307.26 441.013 1308.33 442.094C1309.41 443.154 1310.12 444.53 1310.48 446.22C1310.84 447.911 1310.74 449.458 1310.18 450.861C1309.62 452.244 1308.66 453.417 1307.29 454.381C1305.95 455.341 1304.25 456.036 1302.21 456.467L1295.76 457.827L1298.4 454.097L1300.21 462.645L1292.82 464.203ZM1305.94 461.437L1298.87 454.588L1306.7 452.937L1313.83 459.773L1305.94 461.437ZM1298.58 454.911L1294.58 452.254L1300.56 450.993C1301.59 450.777 1302.29 450.389 1302.67 449.829C1303.08 449.264 1303.19 448.585 1303.03 447.792C1302.86 446.998 1302.48 446.425 1301.88 446.071C1301.3 445.713 1300.5 445.642 1299.48 445.858L1293.5 447.119L1296.08 443.075L1298.58 454.911Z" fill="#024685"/>
</g>
<path fill-rule="evenodd" clip-rule="evenodd" d="M1095.37 674.949C1147.21 692.303 1198.21 711.969 1249.02 732.027C1299.75 752.057 1350.43 772.532 1400.18 795.285C1403.71 796.673 1406.6 799.567 1408.68 803.785C1410.75 808.004 1411.97 813.457 1412.24 819.805C1412.43 826.139 1411.65 833.223 1409.96 840.581C1408.26 847.939 1405.69 855.4 1402.42 862.464C1395.43 877.386 1386.27 889.967 1376.71 897.766C1367.23 905.636 1357.96 908.557 1350.51 906.023C1300.35 889.334 1251.07 870.349 1202.05 850.998C1152.96 831.619 1104.01 811.821 1056.01 789.762C1048.82 786.556 1044.02 778.104 1042.45 765.875C1040.9 753.603 1042.89 738.178 1048.02 722.579C1050.42 715.194 1053.6 707.983 1057.35 701.426C1061.11 694.869 1065.35 689.117 1069.8 684.551C1074.34 680.104 1078.96 676.956 1083.36 675.304C1087.76 673.652 1091.85 673.531 1095.37 674.949Z" fill="url(#paint25_linear_595_12609)"/>
<path style="mix-blend-mode:screen" fill-rule="evenodd" clip-rule="evenodd" d="M1310.94 751.068C1277.52 735.844 1159.97 688.191 1111.68 673.328C1096.39 668.625 1082.6 673.052 1066.95 701.698C1065.79 703.817 1064.1 707.068 1064.54 708.67C1064.89 709.934 1066.92 707.108 1067.9 705.54C1084.44 679.234 1094.74 674.965 1110.03 678.813C1154.69 690.055 1269.86 739.92 1309.68 753.986C1314.42 755.662 1313.56 752.262 1310.94 751.068ZM1061.57 714.571C1060.96 713.983 1059.46 716.302 1058.74 717.814C1056.45 722.723 1054.57 727.884 1053.21 733.036C1051.73 738.389 1050.74 743.675 1050.3 748.673C1050.2 751.24 1051.5 752.861 1052.47 748.716C1053.48 743.515 1054.72 738.243 1056.2 732.952C1057.49 728.545 1058.97 724.144 1060.63 719.796C1061.36 717.953 1062.3 715.265 1061.57 714.571Z" fill="url(#paint26_linear_595_12609)"/>
<path style="mix-blend-mode:screen" fill-rule="evenodd" clip-rule="evenodd" d="M1156.62 843.317C1189.88 858.478 1307.33 906.089 1355.97 921.086C1371.36 925.836 1385.95 921.722 1404.44 894.196C1405.81 892.164 1407.82 889.037 1407.5 887.479C1407.24 886.251 1404.91 888.961 1403.77 890.465C1384.56 915.717 1373.58 919.718 1358.11 915.8C1312.93 904.354 1198.12 854.63 1158.17 840.508C1153.41 838.827 1154.02 842.128 1156.62 843.317ZM1411.04 881.806C1411.63 882.383 1413.37 880.158 1414.23 878.704C1416.91 874.157 1419.26 869.19 1421.17 864.044C1423.1 859.036 1424.55 853.915 1425.46 848.945C1425.77 846.461 1424.55 844.875 1423.21 848.875C1421.73 853.972 1420.01 859.061 1418.08 864.086C1416.36 868.406 1414.48 872.647 1412.44 876.764C1411.53 878.535 1410.35 881.125 1411.04 881.806Z" fill="url(#paint27_linear_595_12609)"/>
<path style="mix-blend-mode:screen" opacity="0.35" fill-rule="evenodd" clip-rule="evenodd" d="M1081.78 672.158C1079.49 675.418 1077.39 680.401 1077.83 681.491C1078.16 682.29 1080.16 680.239 1082.93 677.732C1088.24 673.04 1093.56 670.232 1098.41 669.554C1106.73 668.933 1114.5 670.233 1121.53 673.424C1140.11 679.021 1158.27 685.751 1176.28 692.859C1250.1 722.004 1328.06 749.605 1399.57 785.079C1422.23 796.316 1425.87 802.174 1429.75 828.862C1430.11 831.343 1430.59 834.634 1431.7 834.041C1432.71 833.506 1434.36 829.431 1434.64 824.977C1436.93 788.134 1425.98 768.323 1407.97 758.192C1332.65 715.8 1216.56 664.305 1132.02 648.162C1114.93 644.899 1096.08 651.816 1081.78 672.158Z" fill="url(#paint28_linear_595_12609)"/>
<path style="mix-blend-mode:multiply" opacity="0.5" fill-rule="evenodd" clip-rule="evenodd" d="M1037.58 784.112C1038.13 780.167 1040 775.094 1041.07 774.605C1041.86 774.246 1041.92 777.103 1042.23 780.83C1042.9 787.886 1044.87 793.567 1047.94 797.373C1053.6 803.511 1060.16 807.869 1067.47 810.343C1084.87 818.949 1102.73 826.439 1120.73 833.546C1194.56 862.691 1270.21 898.456 1346.67 921.398C1370.89 928.665 1377.56 928.509 1398.44 909.151C1400.39 907.342 1402.73 904.858 1403.14 906.048C1403.51 907.129 1401.78 910.631 1398.94 914.072C1375.45 942.55 1354.65 949.002 1334.58 944.103C1250.61 923.611 1130.65 881.92 1057.88 835.959C1043.17 826.667 1034.13 808.74 1037.58 784.112Z" fill="url(#paint29_linear_595_12609)"/>
<g filter="url(#filter5_i_595_12609)">
<path d="M1074.49 723.311L1082.65 702.451L1092.7 706.381C1094.64 707.143 1096.2 708.118 1097.36 709.305C1098.54 710.501 1099.29 711.846 1099.59 713.341C1099.91 714.817 1099.75 716.359 1099.12 717.968C1098.49 719.577 1097.56 720.816 1096.33 721.685C1095.1 722.534 1093.65 722.987 1091.98 723.043C1090.33 723.107 1088.53 722.758 1086.59 721.996L1080.45 719.594L1084.71 717.928L1081.52 726.063L1074.49 723.311ZM1086.98 728.197L1084.83 718.592L1092.28 721.508L1094.49 731.136L1086.98 728.197ZM1084.4 718.702L1082.52 714.289L1088.21 716.517C1089.19 716.898 1089.99 716.959 1090.62 716.701C1091.26 716.45 1091.74 715.948 1092.03 715.193C1092.33 714.438 1092.32 713.749 1092.02 713.125C1091.73 712.509 1091.1 712.011 1090.13 711.63L1084.44 709.402L1088.81 707.438L1084.4 718.702ZM1094.43 731.114L1111.71 713.822L1118.63 716.528L1119.58 740.956L1112.31 738.111L1112.43 717.953L1115.17 719.026L1101.58 733.912L1094.43 731.114ZM1101.28 729.601L1105.05 725.234L1114.64 728.989L1114.45 734.755L1101.28 729.601ZM1120.7 741.395L1128.87 720.536L1135.9 723.288L1127.74 744.147L1120.7 741.395ZM1138.71 748.993C1136.96 748.308 1135.35 747.449 1133.88 746.414C1132.41 745.379 1131.27 744.338 1130.46 743.29L1134.73 739.051C1135.5 740.016 1136.42 740.914 1137.49 741.746C1138.59 742.566 1139.72 743.201 1140.87 743.652C1141.55 743.916 1142.09 744.083 1142.5 744.151C1142.93 744.207 1143.27 744.191 1143.51 744.102C1143.76 743.993 1143.93 743.819 1144.03 743.581C1144.17 743.203 1144.08 742.824 1143.75 742.442C1143.42 742.06 1142.93 741.664 1142.29 741.253C1141.68 740.829 1141 740.379 1140.24 739.901C1139.5 739.404 1138.76 738.852 1138.04 738.248C1137.33 737.651 1136.72 736.988 1136.2 736.259C1135.71 735.538 1135.39 734.728 1135.27 733.83C1135.14 732.911 1135.3 731.896 1135.74 730.784C1136.24 729.492 1137.06 728.46 1138.18 727.687C1139.34 726.902 1140.76 726.471 1142.44 726.395C1144.13 726.327 1146.06 726.713 1148.2 727.553C1149.61 728.105 1150.95 728.798 1152.2 729.632C1153.45 730.467 1154.51 731.405 1155.36 732.449L1151.25 736.717C1150.42 735.796 1149.57 735.016 1148.69 734.377C1147.84 733.745 1146.96 733.251 1146.04 732.893C1145.37 732.629 1144.81 732.478 1144.36 732.442C1143.92 732.406 1143.57 732.452 1143.31 732.581C1143.08 732.717 1142.91 732.905 1142.82 733.143C1142.68 733.501 1142.77 733.87 1143.11 734.252C1143.45 734.614 1143.93 734.997 1144.55 735.4C1145.19 735.811 1145.88 736.256 1146.64 736.733C1147.41 737.219 1148.15 737.76 1148.85 738.357C1149.56 738.954 1150.16 739.613 1150.66 740.334C1151.17 741.063 1151.5 741.877 1151.63 742.775C1151.76 743.673 1151.61 744.669 1151.18 745.762C1150.68 747.033 1149.86 748.061 1148.7 748.846C1147.57 749.619 1146.17 750.054 1144.48 750.15C1142.8 750.226 1140.88 749.84 1138.71 748.993ZM1162.27 742.543L1171.57 746.182L1169.59 751.248L1160.29 747.609L1162.27 742.543ZM1159.7 750.538L1170.13 754.619L1168.05 759.923L1150.71 753.136L1158.87 732.277L1175.83 738.912L1173.75 744.216L1163.71 740.287L1159.7 750.538ZM1178.35 764.503C1176.6 763.819 1174.99 762.96 1173.52 761.925C1172.04 760.89 1170.9 759.849 1170.1 758.801L1174.37 754.562C1175.14 755.527 1176.06 756.425 1177.13 757.257C1178.23 758.076 1179.35 758.712 1180.51 759.163C1181.18 759.427 1181.72 759.593 1182.13 759.662C1182.57 759.718 1182.91 759.701 1183.15 759.612C1183.4 759.503 1183.57 759.33 1183.66 759.091C1183.81 758.714 1183.72 758.334 1183.39 757.953C1183.05 757.571 1182.57 757.174 1181.93 756.763C1181.31 756.34 1180.63 755.889 1179.88 755.412C1179.13 754.914 1178.4 754.363 1177.67 753.758C1176.97 753.162 1176.36 752.499 1175.84 751.77C1175.34 751.048 1175.03 750.239 1174.9 749.34C1174.78 748.422 1174.94 747.407 1175.37 746.294C1175.88 745.003 1176.69 743.971 1177.82 743.198C1178.98 742.413 1180.39 741.982 1182.07 741.906C1183.77 741.838 1185.69 742.224 1187.84 743.063C1189.25 743.615 1190.58 744.308 1191.84 745.143C1193.09 745.977 1194.14 746.916 1194.99 747.96L1190.88 752.227C1190.05 751.307 1189.2 750.527 1188.33 749.887C1187.48 749.256 1186.59 748.761 1185.68 748.404C1185 748.139 1184.44 747.989 1184 747.953C1183.56 747.917 1183.21 747.963 1182.95 748.091C1182.71 748.228 1182.55 748.415 1182.45 748.654C1182.31 749.011 1182.41 749.381 1182.74 749.763C1183.08 750.125 1183.56 750.507 1184.18 750.911C1184.82 751.322 1185.52 751.766 1186.27 752.244C1187.05 752.73 1187.78 753.271 1188.49 753.868C1189.2 754.464 1189.8 755.123 1190.29 755.845C1190.81 756.574 1191.13 757.387 1191.26 758.286C1191.39 759.184 1191.24 760.18 1190.82 761.272C1190.32 762.544 1189.49 763.572 1188.34 764.357C1187.21 765.13 1185.8 765.565 1184.12 765.66C1182.44 765.736 1180.51 765.351 1178.35 764.503ZM1199.28 772.143L1207.44 751.284L1217.72 755.307C1220.04 756.216 1221.92 757.444 1223.36 758.99C1224.8 760.517 1225.71 762.249 1226.1 764.187C1226.49 766.126 1226.26 768.167 1225.42 770.313C1224.57 772.478 1223.35 774.152 1221.74 775.332C1220.14 776.493 1218.29 777.155 1216.19 777.317C1214.09 777.46 1211.88 777.076 1209.56 776.166L1199.28 772.143ZM1208.45 769.412L1211.4 770.567C1212.4 770.955 1213.34 771.105 1214.22 771.015C1215.12 770.933 1215.93 770.606 1216.63 770.034C1217.34 769.443 1217.91 768.61 1218.33 767.538C1218.74 766.485 1218.88 765.509 1218.75 764.611C1218.62 763.712 1218.25 762.927 1217.65 762.254C1217.06 761.589 1216.27 761.062 1215.28 760.673L1212.33 759.519L1208.45 769.412ZM1234.65 786.534C1232.96 785.873 1231.49 784.991 1230.25 783.887C1229.03 782.791 1228.09 781.55 1227.41 780.165C1226.75 778.759 1226.38 777.274 1226.3 775.71C1226.25 774.154 1226.53 772.591 1227.14 771.021C1227.77 769.432 1228.62 768.094 1229.71 767.009C1230.83 765.911 1232.1 765.081 1233.54 764.52C1234.98 763.939 1236.52 763.66 1238.16 763.683C1239.82 763.714 1241.49 764.06 1243.18 764.721C1244.89 765.389 1246.35 766.272 1247.58 767.368C1248.8 768.464 1249.74 769.715 1250.4 771.12C1251.07 772.506 1251.44 773.977 1251.49 775.533C1251.58 777.078 1251.31 778.644 1250.68 780.234C1250.07 781.803 1249.2 783.137 1248.09 784.235C1246.99 785.34 1245.72 786.184 1244.28 786.765C1242.85 787.326 1241.31 787.595 1239.67 787.572C1238.03 787.549 1236.35 787.203 1234.65 786.534ZM1236.87 780.842C1237.53 781.099 1238.18 781.217 1238.83 781.196C1239.5 781.183 1240.13 781.04 1240.72 780.766C1241.33 780.48 1241.88 780.066 1242.37 779.524C1242.87 778.961 1243.27 778.273 1243.59 777.458C1243.91 776.644 1244.08 775.872 1244.09 775.143C1244.1 774.394 1243.98 773.716 1243.71 773.108C1243.48 772.487 1243.12 771.945 1242.63 771.482C1242.17 771.025 1241.61 770.669 1240.95 770.413C1240.3 770.156 1239.64 770.034 1238.97 770.047C1238.32 770.068 1237.68 770.221 1237.07 770.507C1236.48 770.781 1235.94 771.199 1235.44 771.761C1234.96 772.304 1234.55 772.982 1234.24 773.797C1233.92 774.611 1233.75 775.393 1233.73 776.142C1233.72 776.871 1233.83 777.545 1234.07 778.166C1234.34 778.774 1234.7 779.306 1235.17 779.762C1235.65 780.226 1236.22 780.586 1236.87 780.842ZM1249.16 791.662L1257.32 770.803L1267.36 774.733C1269.31 775.495 1270.86 776.469 1272.02 777.657C1273.21 778.853 1273.95 780.198 1274.26 781.693C1274.58 783.168 1274.42 784.711 1273.79 786.32C1273.16 787.929 1272.23 789.168 1270.99 790.037C1269.76 790.906 1268.3 791.388 1266.61 791.484C1264.95 791.568 1263.15 791.229 1261.2 790.467L1255.07 788.065L1259.37 786.279L1256.19 794.415L1249.16 791.662ZM1259.07 787.054L1257.19 782.641L1262.88 784.868C1263.85 785.249 1264.65 785.311 1265.28 785.052C1265.93 784.802 1266.4 784.299 1266.7 783.544C1266.99 782.789 1266.99 782.1 1266.68 781.477C1266.39 780.861 1265.77 780.362 1264.79 779.981L1259.1 777.754L1263.48 775.79L1259.07 787.054ZM1267.7 798.919L1284.98 781.627L1291.89 784.333L1292.85 808.761L1285.58 805.916L1285.7 785.758L1288.44 786.831L1274.85 801.717L1267.7 798.919ZM1274.54 797.406L1278.31 793.039L1287.91 796.794L1287.72 802.56L1274.54 797.406ZM1293.97 809.2L1302.13 788.341L1307.92 790.603L1310.93 807.486L1307.89 806.297L1321.33 795.851L1327.11 798.113L1319 818.996L1312.6 816.489L1316.92 805.261L1317.93 805.657L1308.74 812.815L1305.64 811.603L1303.51 800.013L1304.76 800.503L1300.38 811.707L1293.97 809.2ZM1322.4 820.326L1330.57 799.467L1337.6 802.219L1329.44 823.078L1322.4 820.326ZM1332.82 824.403L1340.98 803.544L1346.77 805.806L1352.41 822.652L1349.72 821.603L1354.69 808.908L1361.55 811.59L1353.38 832.45L1347.6 830.187L1341.96 813.341L1344.64 814.391L1339.68 827.085L1332.82 824.403ZM1368.34 823.183L1377.64 826.821L1375.65 831.887L1366.36 828.249L1368.34 823.183ZM1365.76 831.177L1376.19 835.258L1374.11 840.563L1356.77 833.776L1364.93 812.916L1381.89 819.551L1379.81 824.856L1369.77 820.926L1365.76 831.177ZM1156.33 797.216L1164.49 776.356L1171.52 779.108L1165.49 794.514L1174.91 798.199L1172.78 803.653L1156.33 797.216ZM1186.29 793.82L1195.58 797.458L1193.6 802.524L1184.3 798.886L1186.29 793.82ZM1183.71 801.814L1194.14 805.896L1192.06 811.2L1174.72 804.413L1182.88 783.553L1199.84 790.189L1197.76 795.493L1187.72 791.563L1183.71 801.814ZM1201.03 814.711L1200.38 790.399L1207.95 793.361L1208.24 813.783L1203.74 812.023L1218.02 797.303L1224.93 800.009L1207.95 817.416L1201.03 814.711ZM1229.04 810.549L1238.33 814.187L1236.35 819.253L1227.05 815.615L1229.04 810.549ZM1226.46 818.543L1236.89 822.625L1234.81 827.929L1217.47 821.142L1225.63 800.282L1242.59 806.918L1240.51 812.222L1230.47 808.292L1226.46 818.543ZM1237.52 828.988L1245.68 808.129L1252.71 810.881L1246.69 826.287L1256.1 829.972L1253.97 835.426L1237.52 828.988ZM1263.5 839.706C1261.75 839.022 1260.14 838.163 1258.67 837.128C1257.2 836.093 1256.06 835.052 1255.25 834.004L1259.52 829.765C1260.29 830.729 1261.21 831.628 1262.28 832.46C1263.38 833.279 1264.51 833.915 1265.66 834.366C1266.34 834.63 1266.88 834.796 1267.29 834.864C1267.72 834.921 1268.06 834.904 1268.3 834.815C1268.55 834.706 1268.72 834.533 1268.82 834.294C1268.96 833.917 1268.87 833.537 1268.54 833.156C1268.21 832.774 1267.72 832.377 1267.08 831.966C1266.47 831.543 1265.78 831.092 1265.03 830.615C1264.29 830.117 1263.55 829.566 1262.83 828.961C1262.12 828.365 1261.51 827.702 1260.99 826.973C1260.5 826.251 1260.18 825.442 1260.05 824.543C1259.93 823.625 1260.09 822.61 1260.52 821.497C1261.03 820.206 1261.85 819.174 1262.97 818.401C1264.13 817.616 1265.55 817.185 1267.22 817.109C1268.92 817.041 1270.85 817.426 1272.99 818.266C1274.4 818.818 1275.73 819.511 1276.99 820.346C1278.24 821.18 1279.3 822.119 1280.15 823.163L1276.04 827.43C1275.21 826.509 1274.35 825.729 1273.48 825.09C1272.63 824.459 1271.75 823.964 1270.83 823.607C1270.16 823.342 1269.6 823.192 1269.15 823.156C1268.71 823.119 1268.36 823.166 1268.1 823.294C1267.87 823.431 1267.7 823.618 1267.61 823.857C1267.47 824.214 1267.56 824.584 1267.9 824.966C1268.24 825.328 1268.72 825.71 1269.34 826.114C1269.98 826.525 1270.67 826.969 1271.43 827.447C1272.2 827.932 1272.94 828.474 1273.64 829.07C1274.35 829.667 1274.95 830.326 1275.45 831.048C1275.96 831.777 1276.29 832.59 1276.42 833.489C1276.55 834.387 1276.4 835.382 1275.97 836.475C1275.47 837.747 1274.64 838.775 1273.49 839.56C1272.36 840.333 1270.96 840.767 1269.27 840.863C1267.59 840.939 1265.67 840.554 1263.5 839.706Z" fill="#024685"/>
</g>
<defs>
<filter id="filter0_i_595_12609" x="207.142" y="131.708" width="220.061" height="79.0001" filterUnits="userSpaceOnUse" color-interpolation-filters="sRGB">
<feFlood flood-opacity="0" result="BackgroundImageFix"/>
<feBlend mode="normal" in="SourceGraphic" in2="BackgroundImageFix" result="shape"/>
<feColorMatrix in="SourceAlpha" type="matrix" values="0 0 0 0 0 0 0 0 0 0 0 0 0 0 0 0 0 0 127 0" result="hardAlpha"/>
<feOffset dy="4"/>
<feGaussianBlur stdDeviation="2"/>
<feComposite in2="hardAlpha" operator="arithmetic" k2="-1" k3="1"/>
<feColorMatrix type="matrix" values="0 0 0 0 0 0 0 0 0 0 0 0 0 0 0 0 0 0 0.25 0"/>
<feBlend mode="normal" in2="shape" result="effect1_innerShadow_595_12609"/>
</filter>
<filter id="filter1_i_595_12609" x="86.6864" y="425.256" width="248.096" height="60.347" filterUnits="userSpaceOnUse" color-interpolation-filters="sRGB">
<feFlood flood-opacity="0" result="BackgroundImageFix"/>
<feBlend mode="normal" in="SourceGraphic" in2="BackgroundImageFix" result="shape"/>
<feColorMatrix in="SourceAlpha" type="matrix" values="0 0 0 0 0 0 0 0 0 0 0 0 0 0 0 0 0 0 127 0" result="hardAlpha"/>
<feOffset dy="4"/>
<feGaussianBlur stdDeviation="2"/>
<feComposite in2="hardAlpha" operator="arithmetic" k2="-1" k3="1"/>
<feColorMatrix type="matrix" values="0 0 0 0 0 0 0 0 0 0 0 0 0 0 0 0 0 0 0.25 0"/>
<feBlend mode="normal" in2="shape" result="effect1_innerShadow_595_12609"/>
</filter>
<filter id="filter2_i_595_12609" x="73.1687" y="684.872" width="307.681" height="166.681" filterUnits="userSpaceOnUse" color-interpolation-filters="sRGB">
<feFlood flood-opacity="0" result="BackgroundImageFix"/>
<feBlend mode="normal" in="SourceGraphic" in2="BackgroundImageFix" result="shape"/>
<feColorMatrix in="SourceAlpha" type="matrix" values="0 0 0 0 0 0 0 0 0 0 0 0 0 0 0 0 0 0 127 0" result="hardAlpha"/>
<feOffset dy="4"/>
<feGaussianBlur stdDeviation="2"/>
<feComposite in2="hardAlpha" operator="arithmetic" k2="-1" k3="1"/>
<feColorMatrix type="matrix" values="0 0 0 0 0 0 0 0 0 0 0 0 0 0 0 0 0 0 0.25 0"/>
<feBlend mode="normal" in2="shape" result="effect1_innerShadow_595_12609"/>
</filter>
<filter id="filter3_i_595_12609" x="969.058" y="100.235" width="292.964" height="107.263" filterUnits="userSpaceOnUse" color-interpolation-filters="sRGB">
<feFlood flood-opacity="0" result="BackgroundImageFix"/>
<feBlend mode="normal" in="SourceGraphic" in2="BackgroundImageFix" result="shape"/>
<feColorMatrix in="SourceAlpha" type="matrix" values="0 0 0 0 0 0 0 0 0 0 0 0 0 0 0 0 0 0 127 0" result="hardAlpha"/>
<feOffset dy="4"/>
<feGaussianBlur stdDeviation="2"/>
<feComposite in2="hardAlpha" operator="arithmetic" k2="-1" k3="1"/>
<feColorMatrix type="matrix" values="0 0 0 0 0 0 0 0 0 0 0 0 0 0 0 0 0 0 0.25 0"/>
<feBlend mode="normal" in2="shape" result="effect1_innerShadow_595_12609"/>
</filter>
<filter id="filter4_i_595_12609" x="1090.84" y="388.45" width="273.936" height="119.642" filterUnits="userSpaceOnUse" color-interpolation-filters="sRGB">
<feFlood flood-opacity="0" result="BackgroundImageFix"/>
<feBlend mode="normal" in="SourceGraphic" in2="BackgroundImageFix" result="shape"/>
<feColorMatrix in="SourceAlpha" type="matrix" values="0 0 0 0 0 0 0 0 0 0 0 0 0 0 0 0 0 0 127 0" result="hardAlpha"/>
<feOffset dy="4"/>
<feGaussianBlur stdDeviation="2"/>
<feComposite in2="hardAlpha" operator="arithmetic" k2="-1" k3="1"/>
<feColorMatrix type="matrix" values="0 0 0 0 0 0 0 0 0 0 0 0 0 0 0 0 0 0 0.25 0"/>
<feBlend mode="normal" in2="shape" result="effect1_innerShadow_595_12609"/>
</filter>
<filter id="filter5_i_595_12609" x="1060.09" y="701.974" width="322.372" height="179.383" filterUnits="userSpaceOnUse" color-interpolation-filters="sRGB">
<feFlood flood-opacity="0" result="BackgroundImageFix"/>
<feBlend mode="normal" in="SourceGraphic" in2="BackgroundImageFix" result="shape"/>
<feColorMatrix in="SourceAlpha" type="matrix" values="0 0 0 0 0 0 0 0 0 0 0 0 0 0 0 0 0 0 127 0" result="hardAlpha"/>
<feOffset dy="4"/>
<feGaussianBlur stdDeviation="2"/>
<feComposite in2="hardAlpha" operator="arithmetic" k2="-1" k3="1"/>
<feColorMatrix type="matrix" values="0 0 0 0 0 0 0 0 0 0 0 0 0 0 0 0 0 0 0.25 0"/>
<feBlend mode="normal" in2="shape" result="effect1_innerShadow_595_12609"/>
</filter>
<linearGradient id="paint0_linear_595_12609" x1="308.324" y1="205.223" x2="325.987" y2="133.622" gradientUnits="userSpaceOnUse">
<stop stop-color="#99F2FF"/>
<stop offset="1" stop-color="#54BDFF"/>
</linearGradient>
<linearGradient id="paint1_linear_595_12609" x1="131.273" y1="108.516" x2="373.925" y2="168.377" gradientUnits="userSpaceOnUse">
<stop stop-color="white"/>
<stop offset="1" stop-opacity="0"/>
</linearGradient>
<linearGradient id="paint2_linear_595_12609" x1="255.165" y1="167.955" x2="504.18" y2="229.386" gradientUnits="userSpaceOnUse">
<stop stop-opacity="0"/>
<stop offset="1" stop-color="white"/>
</linearGradient>
<linearGradient id="paint3_linear_595_12609" x1="324.616" y1="147.959" x2="334.71" y2="107.043" gradientUnits="userSpaceOnUse">
<stop stop-color="#B5F6FF"/>
<stop offset="1" stop-opacity="0"/>
</linearGradient>
<linearGradient id="paint4_linear_595_12609" x1="303.933" y1="231.288" x2="313.85" y2="191.089" gradientUnits="userSpaceOnUse">
<stop stop-color="white"/>
<stop offset="0.48869" stop-color="#C3C5FF"/>
<stop offset="1" stop-color="#8084FF"/>
</linearGradient>
<linearGradient id="paint5_linear_595_12609" x1="205.622" y1="489.137" x2="215.726" y2="416.085" gradientUnits="userSpaceOnUse">
<stop stop-color="#99F2FF"/>
<stop offset="1" stop-color="#54BDFF"/>
</linearGradient>
<linearGradient id="paint6_linear_595_12609" x1="18.8995" y1="411.761" x2="266.469" y2="446.003" gradientUnits="userSpaceOnUse">
<stop stop-color="white"/>
<stop offset="1" stop-opacity="0"/>
</linearGradient>
<linearGradient id="paint7_linear_595_12609" x1="148.311" y1="457.962" x2="402.373" y2="493.102" gradientUnits="userSpaceOnUse">
<stop stop-opacity="0"/>
<stop offset="1" stop-color="white"/>
</linearGradient>
<linearGradient id="paint8_linear_595_12609" x1="215.3" y1="430.835" x2="221.074" y2="389.091" gradientUnits="userSpaceOnUse">
<stop stop-color="#B5F6FF"/>
<stop offset="1" stop-opacity="0"/>
</linearGradient>
<linearGradient id="paint9_linear_595_12609" x1="203.416" y1="515.867" x2="209.089" y2="474.853" gradientUnits="userSpaceOnUse">
<stop stop-color="white"/>
<stop offset="0.48869" stop-color="#C3C5FF"/>
<stop offset="1" stop-color="#8084FF"/>
</linearGradient>
<linearGradient id="paint10_linear_595_12609" x1="247.057" y1="826.397" x2="203.764" y2="706.074" gradientUnits="userSpaceOnUse">
<stop stop-color="#99F2FF"/>
<stop offset="1" stop-color="#54BDFF"/>
</linearGradient>
<linearGradient id="paint11_linear_595_12609" x1="33.5439" y1="809.302" x2="268.695" y2="724.634" gradientUnits="userSpaceOnUse">
<stop stop-color="white"/>
<stop offset="1" stop-opacity="0"/>
</linearGradient>
<linearGradient id="paint12_linear_595_12609" x1="176.591" y1="809.495" x2="417.91" y2="722.607" gradientUnits="userSpaceOnUse">
<stop stop-opacity="0"/>
<stop offset="1" stop-color="white"/>
</linearGradient>
<linearGradient id="paint13_linear_595_12609" x1="214.357" y1="729.469" x2="189.616" y2="660.713" gradientUnits="userSpaceOnUse">
<stop stop-color="#B5F6FF"/>
<stop offset="1" stop-opacity="0"/>
</linearGradient>
<linearGradient id="paint14_linear_595_12609" x1="264.676" y1="869.588" x2="240.37" y2="802.035" gradientUnits="userSpaceOnUse">
<stop stop-color="white"/>
<stop offset="0.48869" stop-color="#C3C5FF"/>
<stop offset="1" stop-color="#8084FF"/>
</linearGradient>
<linearGradient id="paint15_linear_595_12609" x1="1124.86" y1="186.651" x2="1105.77" y2="115.419" gradientUnits="userSpaceOnUse">
<stop stop-color="#99F2FF"/>
<stop offset="1" stop-color="#54BDFF"/>
</linearGradient>
<linearGradient id="paint16_linear_595_12609" x1="1298.34" y1="87.1925" x2="1056.94" y2="151.905" gradientUnits="userSpaceOnUse">
<stop stop-color="white"/>
<stop offset="1" stop-opacity="0"/>
</linearGradient>
<linearGradient id="paint17_linear_595_12609" x1="1175.67" y1="149.102" x2="927.935" y2="215.511" gradientUnits="userSpaceOnUse">
<stop stop-opacity="0"/>
<stop offset="1" stop-color="white"/>
</linearGradient>
<linearGradient id="paint18_linear_595_12609" x1="1105.83" y1="130.502" x2="1094.92" y2="89.7968" gradientUnits="userSpaceOnUse">
<stop stop-color="#B5F6FF"/>
<stop offset="1" stop-opacity="0"/>
</linearGradient>
<linearGradient id="paint19_linear_595_12609" x1="1128.18" y1="213.4" x2="1117.46" y2="173.408" gradientUnits="userSpaceOnUse">
<stop stop-color="white"/>
<stop offset="0.48869" stop-color="#C3C5FF"/>
<stop offset="1" stop-color="#8084FF"/>
</linearGradient>
<linearGradient id="paint20_linear_595_12609" x1="1244.85" y1="508.371" x2="1218.83" y2="383.139" gradientUnits="userSpaceOnUse">
<stop stop-color="#99F2FF"/>
<stop offset="1" stop-color="#54BDFF"/>
</linearGradient>
<linearGradient id="paint21_linear_595_12609" x1="1035.42" y1="461.533" x2="1280.12" y2="410.705" gradientUnits="userSpaceOnUse">
<stop stop-color="white"/>
<stop offset="1" stop-opacity="0"/>
</linearGradient>
<linearGradient id="paint22_linear_595_12609" x1="1177.01" y1="481.783" x2="1428.13" y2="429.622" gradientUnits="userSpaceOnUse">
<stop stop-opacity="0"/>
<stop offset="1" stop-color="white"/>
</linearGradient>
<linearGradient id="paint23_linear_595_12609" x1="1225.63" y1="407.827" x2="1210.77" y2="336.265" gradientUnits="userSpaceOnUse">
<stop stop-color="#B5F6FF"/>
<stop offset="1" stop-opacity="0"/>
</linearGradient>
<linearGradient id="paint24_linear_595_12609" x1="1255.79" y1="553.65" x2="1241.19" y2="483.34" gradientUnits="userSpaceOnUse">
<stop stop-color="white"/>
<stop offset="0.48869" stop-color="#C3C5FF"/>
<stop offset="1" stop-color="#8084FF"/>
</linearGradient>
<linearGradient id="paint25_linear_595_12609" x1="1202.12" y1="851.024" x2="1249.09" y2="732.053" gradientUnits="userSpaceOnUse">
<stop stop-color="#99F2FF"/>
<stop offset="1" stop-color="#54BDFF"/>
</linearGradient>
<linearGradient id="paint26_linear_595_12609" x1="1063.99" y1="704.026" x2="1296.46" y2="795.799" gradientUnits="userSpaceOnUse">
<stop stop-color="white"/>
<stop offset="1" stop-opacity="0"/>
</linearGradient>
<linearGradient id="paint27_linear_595_12609" x1="1171.26" y1="798.648" x2="1409.83" y2="892.829" gradientUnits="userSpaceOnUse">
<stop stop-opacity="0"/>
<stop offset="1" stop-color="white"/>
</linearGradient>
<linearGradient id="paint28_linear_595_12609" x1="1252.49" y1="763.496" x2="1279.33" y2="695.512" gradientUnits="userSpaceOnUse">
<stop stop-color="#B5F6FF"/>
<stop offset="1" stop-opacity="0"/>
</linearGradient>
<linearGradient id="paint29_linear_595_12609" x1="1197.69" y1="901.958" x2="1224.06" y2="835.164" gradientUnits="userSpaceOnUse">
<stop stop-color="white"/>
<stop offset="0.48869" stop-color="#C3C5FF"/>
<stop offset="1" stop-color="#8084FF"/>
</linearGradient>
</defs>
</svg>
