<svg width="394" height="225" viewBox="0 0 394 225" fill="none" xmlns="http://www.w3.org/2000/svg">
<path fill-rule="evenodd" clip-rule="evenodd" d="M33.4484 51.3057C88.0553 48.7097 142.715 48.573 197.338 48.8716C251.884 49.1698 306.539 49.9041 361.152 53.0971C364.944 53.1138 368.687 54.764 372.149 57.9449C375.61 61.1258 378.715 65.7694 381.271 71.5869C383.739 77.4229 385.577 84.3084 386.662 91.7807C387.747 99.253 388.053 107.139 387.56 114.909C386.452 131.348 382.469 146.392 376.384 157.122C370.392 167.893 362.808 173.973 354.945 174.309C302.149 176.915 249.34 177.063 196.642 176.775C143.867 176.487 91.0632 175.761 38.337 172.578C30.4688 172.195 22.9374 166.054 17.0506 155.222C11.1604 144.344 7.4231 129.248 6.56009 112.848C6.12061 105.096 6.47557 97.2227 7.6013 89.7512C8.72703 82.2797 10.5977 75.3816 13.0889 69.5158C15.7148 63.7251 18.878 59.1194 22.3809 55.9862C25.8839 52.8531 29.6515 51.2597 33.4484 51.3057Z" fill="url(#paint0_linear_595_12587)"/>
<path style="mix-blend-mode:screen" fill-rule="evenodd" clip-rule="evenodd" d="M248.894 41.6826C212.226 39.5952 85.394 37.7441 35.0004 41.3762C19.0507 42.5261 7.80138 51.6461 3.58108 84.0174C3.26888 86.4119 2.87012 90.0543 3.85986 91.3887C4.64178 92.4408 5.51232 89.0709 5.86258 87.2527C11.7484 56.7441 19.8088 49.033 35.453 47.084C81.148 41.3932 206.56 46.1686 248.77 44.8617C253.801 44.7055 251.768 41.8472 248.894 41.6826ZM3.23161 97.9631C2.44306 97.6387 1.88599 100.342 1.76519 102.012C1.40666 107.418 1.52809 112.907 2.12335 118.203C2.67972 123.729 3.67579 129.013 5.07019 133.834C5.90639 136.263 7.71135 137.301 7.11423 133.085C6.16564 127.874 5.41896 122.509 4.88145 117.041C4.48187 112.468 4.2689 107.83 4.24475 103.175C4.2609 101.192 4.15742 98.3481 3.23161 97.9631Z" fill="url(#paint1_linear_595_12587)"/>
<path style="mix-blend-mode:screen" fill-rule="evenodd" clip-rule="evenodd" d="M138.452 183.553C174.941 185.642 301.665 187.49 352.427 183.86C368.493 182.714 380.605 173.596 387.876 141.241C388.413 138.852 389.156 135.209 388.29 133.873C387.608 132.822 386.421 136.19 385.899 138.006C377.137 168.5 368.347 176.207 352.51 178.157C306.257 183.846 181.23 179.071 138.873 180.376C133.826 180.533 135.592 183.389 138.452 183.553ZM389.54 127.302C390.297 127.627 391.11 124.924 391.387 123.257C392.24 118.048 392.636 112.565 392.555 107.076C392.533 101.712 392.032 96.4128 391.078 91.4515C390.469 89.0226 388.762 87.985 388.961 92.1984C389.425 97.4859 389.667 102.852 389.685 108.236C389.65 112.884 389.427 117.521 389.017 122.096C388.814 124.076 388.649 126.918 389.54 127.302Z" fill="url(#paint2_linear_595_12587)"/>
<path style="mix-blend-mode:screen" opacity="0.35" fill-rule="evenodd" clip-rule="evenodd" d="M6.70702 51.1119C5.74998 54.9808 5.59685 60.3862 6.40976 61.2395C7.00456 61.8662 8.1217 59.2311 9.79838 55.8908C13.0532 49.5929 16.99 45.051 21.2629 42.664C28.7969 39.0709 36.5084 37.4697 44.2162 37.8981C63.5644 36.3868 82.9313 36.0836 102.287 36.1894C181.655 36.6233 264.319 34.1209 343.823 41.2921C369.009 43.5631 374.528 47.7039 387.806 71.1771C389.04 73.3588 390.677 76.2539 391.499 75.2982C392.245 74.4339 392.312 70.037 390.956 65.7853C379.757 30.6107 362.37 16.1114 341.916 13.1886C256.356 0.948255 129.5 -5.01508 44.8497 10.5516C27.7365 13.6991 12.6763 26.9702 6.70702 51.1119Z" fill="url(#paint3_linear_595_12587)"/>
<path style="mix-blend-mode:multiply" opacity="0.5" fill-rule="evenodd" clip-rule="evenodd" d="M6.04902 171.473C5.13433 167.595 5.0403 162.19 5.86249 161.345C6.4641 160.726 7.55239 163.369 9.19243 166.731C12.3785 173.063 16.2653 177.647 20.5116 180.081C28.0061 183.754 35.6995 185.44 43.4115 185.099C62.742 186.821 82.1044 187.335 101.46 187.441C180.829 187.874 264.293 193.819 343.87 187.518C369.08 185.521 375.24 182.96 387.698 157.353C388.861 154.961 390.142 151.798 390.953 152.76C391.691 153.633 391.348 157.523 389.947 161.758C378.364 196.81 361.308 210.358 340.823 213.06C255.134 224.364 128.221 228.94 43.7459 212.45C26.6681 209.116 11.7541 195.677 6.04902 171.473Z" fill="url(#paint4_linear_595_12587)"/>
<defs>
<linearGradient id="paint0_linear_595_12587" x1="196.711" y1="176.775" x2="197.411" y2="48.872" gradientUnits="userSpaceOnUse">
<stop stop-color="#99F2FF"/>
<stop offset="1" stop-color="#54BDFF"/>
</linearGradient>
<linearGradient id="paint1_linear_595_12587" x1="1.66937" y1="87.2566" x2="251.592" y2="88.6229" gradientUnits="userSpaceOnUse">
<stop stop-color="white"/>
<stop offset="1"/>
</linearGradient>
<linearGradient id="paint2_linear_595_12587" x1="135.923" y1="136.615" x2="392.4" y2="138.017" gradientUnits="userSpaceOnUse">
<stop/>
<stop offset="1" stop-color="white"/>
</linearGradient>
<linearGradient id="paint3_linear_595_12587" x1="198.905" y1="74.4352" x2="199.304" y2="1.34622" gradientUnits="userSpaceOnUse">
<stop stop-color="#B5F6FF"/>
<stop offset="1"/>
</linearGradient>
<linearGradient id="paint4_linear_595_12587" x1="197.968" y1="223.342" x2="198.361" y2="151.532" gradientUnits="userSpaceOnUse">
<stop stop-color="white"/>
<stop offset="0.48869" stop-color="#C3C5FF"/>
<stop offset="1" stop-color="#8084FF"/>
</linearGradient>
</defs>
</svg>
