<svg width="409" height="232" viewBox="0 0 409 232" fill="none" xmlns="http://www.w3.org/2000/svg">
<g filter="url(#filter0_d_595_12595)">
<path fill-rule="evenodd" clip-rule="evenodd" d="M31.754 49.1434C86.3534 46.393 141.012 46.1017 195.636 46.2457C250.183 46.3896 304.839 46.9693 359.462 50.0078C363.254 50.0137 367.002 51.6533 370.472 54.8244C373.942 57.9955 377.06 62.6303 379.632 68.4406C382.117 74.2696 383.975 81.1498 385.081 88.619C386.187 96.0882 386.516 103.973 386.045 111.745C384.982 128.187 381.042 143.242 374.988 153.989C369.026 164.777 361.46 170.879 353.597 171.237C300.809 173.992 248.001 174.29 195.302 174.151C142.526 174.011 89.7207 173.435 36.9857 170.402C29.1164 170.041 21.5677 163.921 15.6503 153.106C9.72931 142.244 5.94934 127.159 5.03993 110.762C4.57853 103.011 4.91121 95.1366 6.01579 87.6619C7.12038 80.1873 8.9715 73.2839 11.4462 67.4111C14.0556 61.613 17.2058 56.9983 20.6999 53.8553C24.194 50.7122 27.957 49.1081 31.754 49.1434Z" fill="url(#paint0_linear_595_12595)"/>
<path style="mix-blend-mode:screen" fill-rule="evenodd" clip-rule="evenodd" d="M260.241 41.3874C223.567 39.4037 96.7302 37.9115 46.347 41.6861C30.4006 42.8811 19.1772 52.033 15.0485 84.416C14.743 86.8114 14.3546 90.4549 15.3481 91.7865C16.133 92.8364 16.994 89.4641 17.3391 87.6448C23.1386 57.1198 31.1771 49.3858 46.8158 47.3926C92.4945 41.5726 217.92 45.9932 260.126 44.5668C265.156 44.3964 263.115 41.5439 260.241 41.3874ZM14.7384 98.3627C13.949 98.0405 13.3996 100.746 13.2835 102.415C12.9402 107.822 13.0772 113.311 13.6875 118.606C14.2595 124.13 15.2705 129.411 16.6785 134.228C17.5216 136.654 19.3295 137.687 18.7204 133.474C17.7571 128.266 16.9952 122.902 16.4423 117.436C16.0297 112.864 15.8036 108.226 15.7663 103.571C15.7769 101.588 15.6653 98.745 14.7384 98.3627Z" fill="url(#paint1_linear_595_12595)"/>
<path style="mix-blend-mode:screen" fill-rule="evenodd" clip-rule="evenodd" d="M150.2 183.57C186.695 185.556 313.424 187.045 364.175 183.271C380.238 182.079 392.324 172.927 399.503 140.552C400.034 138.161 400.767 134.516 399.897 133.183C399.212 132.133 398.034 135.505 397.517 137.322C388.842 167.841 380.074 175.573 364.242 177.567C318.005 183.387 192.965 178.966 150.612 180.391C145.566 180.563 147.34 183.413 150.2 183.57ZM401.128 126.609C401.886 126.931 402.692 124.226 402.963 122.558C403.802 117.346 404.183 111.862 404.085 106.373C404.048 101.01 403.532 95.7121 402.565 90.7534C401.949 88.3263 400.239 87.2935 400.45 91.5063C400.929 96.7925 401.186 102.158 401.219 107.542C401.197 112.19 400.987 116.827 400.591 121.404C400.393 123.384 400.236 126.226 401.128 126.609Z" fill="url(#paint2_linear_595_12595)"/>
<path style="mix-blend-mode:screen" opacity="0.35" fill-rule="evenodd" clip-rule="evenodd" d="M18.0815 51.5016C17.1354 55.3732 16.9976 60.779 17.8129 61.63C18.4095 62.255 19.5192 59.6168 21.1864 56.2717C24.4234 49.9647 28.3473 45.4116 32.6134 43.0125C40.1373 39.3981 47.8442 37.7751 55.5532 38.1817C74.897 36.6158 94.2629 36.2577 113.619 36.3088C192.988 36.5181 275.645 33.7819 355.168 40.7282C380.361 42.9278 385.891 47.053 399.236 70.4885C400.476 72.6668 402.121 75.5572 402.94 74.5992C403.684 73.7329 403.739 69.3358 402.371 65.0879C391.072 29.9451 373.644 15.4951 353.182 12.6302C267.587 0.631897 140.715 -4.97253 56.1093 10.8336C39.0051 14.0294 23.9825 27.3432 18.0815 51.5016Z" fill="url(#paint3_linear_595_12595)"/>
<path style="mix-blend-mode:multiply" opacity="0.5" fill-rule="evenodd" clip-rule="evenodd" d="M17.7639 171.864C16.8383 167.989 16.729 162.584 17.5487 161.737C18.1486 161.117 19.2444 163.757 20.8939 167.113C24.0979 173.436 27.9976 178.009 32.2508 180.431C39.7557 184.083 47.4538 185.748 55.1648 185.384C74.5001 187.052 93.8639 187.511 113.22 187.562C192.589 187.771 276.07 193.48 355.629 186.953C380.833 184.885 386.986 182.307 399.372 156.664C400.527 154.27 401.8 151.103 402.614 152.063C403.354 152.933 403.022 156.824 401.633 161.064C390.149 196.148 373.131 209.744 352.654 212.504C266.998 224.051 140.098 228.986 55.5766 212.735C38.4895 209.449 23.5374 196.052 17.7639 171.864Z" fill="url(#paint4_linear_595_12595)"/>
</g>
<defs>
<filter id="filter0_d_595_12595" x="0.838379" y="1.12476" width="407.262" height="230.007" filterUnits="userSpaceOnUse" color-interpolation-filters="sRGB">
<feFlood flood-opacity="0" result="BackgroundImageFix"/>
<feColorMatrix in="SourceAlpha" type="matrix" values="0 0 0 0 0 0 0 0 0 0 0 0 0 0 0 0 0 0 127 0" result="hardAlpha"/>
<feOffset dy="4"/>
<feGaussianBlur stdDeviation="2"/>
<feComposite in2="hardAlpha" operator="out"/>
<feColorMatrix type="matrix" values="0 0 0 0 0 0 0 0 0 0 0 0 0 0 0 0 0 0 0.25 0"/>
<feBlend mode="normal" in2="BackgroundImageFix" result="effect1_dropShadow_595_12595"/>
<feBlend mode="normal" in="SourceGraphic" in2="effect1_dropShadow_595_12595" result="shape"/>
</filter>
<linearGradient id="paint0_linear_595_12595" x1="195.371" y1="174.151" x2="195.709" y2="46.2459" gradientUnits="userSpaceOnUse">
<stop stop-color="#99F2FF"/>
<stop offset="1" stop-color="#54BDFF"/>
</linearGradient>
<linearGradient id="paint1_linear_595_12595" x1="13.1459" y1="87.6607" x2="263.071" y2="88.3198" gradientUnits="userSpaceOnUse">
<stop stop-color="white"/>
<stop offset="1"/>
</linearGradient>
<linearGradient id="paint2_linear_595_12595" x1="147.539" y1="136.638" x2="404.018" y2="137.315" gradientUnits="userSpaceOnUse">
<stop/>
<stop offset="1" stop-color="white"/>
</linearGradient>
<linearGradient id="paint3_linear_595_12595" x1="210.344" y1="74.2811" x2="210.537" y2="1.19126" gradientUnits="userSpaceOnUse">
<stop stop-color="#B5F6FF"/>
<stop offset="1"/>
</linearGradient>
<linearGradient id="paint4_linear_595_12595" x1="209.829" y1="223.19" x2="210.019" y2="151.38" gradientUnits="userSpaceOnUse">
<stop stop-color="white"/>
<stop offset="0.48869" stop-color="#C3C5FF"/>
<stop offset="1" stop-color="#8084FF"/>
</linearGradient>
</defs>
</svg>
