<svg width="383" height="405" viewBox="0 0 383 405" fill="none" xmlns="http://www.w3.org/2000/svg">
<g clip-path="url(#clip0_595_12611)">
<g filter="url(#filter0_f_595_12611)">
<ellipse cx="186.608" cy="203.965" rx="113.936" ry="169.052" transform="rotate(-33.239 186.608 203.965)" fill="#03277E"/>
</g>
<path d="M336.93 109.368L331.607 108.512L331.385 109.73L317.717 110.336L313.882 97.9384C312.8 97.7783 311.695 97.8759 310.658 98.2233C309.621 98.5707 308.681 99.158 307.913 99.9375C309.7 111.402 311.601 122.14 311.601 122.14C308.227 119.794 304.346 118.278 300.275 117.716C296.779 121.68 300.027 124.915 300.027 124.915C308.332 127.823 309.898 134.108 313.27 137.08C314.386 137.937 315.622 138.626 316.938 139.124C314.06 145.902 305.538 163.263 291.766 168.742C288.043 170.111 283.998 170.348 280.14 169.423L280.133 169.409C275.897 168.434 271.828 166.843 268.053 164.687C265.297 158.802 263.114 153.739 262.018 151.145C271.796 144.373 279.44 131.431 273.267 113.911C271.54 108.902 268.837 104.285 265.315 100.326C263.173 97.7268 260.585 95.5296 257.673 93.8376C254.435 91.7683 250.89 90.223 247.17 89.2586C247.077 89.233 247.025 89.2193 247.025 89.2193L247 89.2178C242.677 88.0749 238.156 87.8901 233.753 88.6765L233.739 88.6523L233.751 88.6485C233.751 88.6485 213.054 44.063 166.244 29.5247C132.889 19.1648 105.53 29.4418 87.0482 45.4273C87.5357 44.9759 87.963 44.6031 88.3241 44.2998C39.7091 82.234 52.6302 140.092 62.2626 166.892C62.2863 173.995 64.1575 180.969 67.6925 187.13C64.3445 184.325 61.2837 181.599 58.5315 179.024C51.9227 172.983 45.8113 166.42 40.2566 159.398C41.0026 158.062 41.5476 156.623 41.8739 155.128C42.4868 150.691 39.5565 144.908 43.9552 137.33C43.9552 137.33 44.3009 132.775 39.049 132.026C36.3279 135.083 34.3745 138.744 33.3505 142.707C33.3505 142.707 27.756 133.326 21.5997 123.467C20.5106 123.37 19.414 123.532 18.3991 123.939C17.3841 124.346 16.4795 124.986 15.7585 125.808L20.9716 137.699L10.1978 146.075L9.23147 145.295L5.75126 149.386C6.84419 151.694 8.61755 153.613 10.8331 154.884C11.6795 156.052 21.6829 169.479 34.008 169.538L34.0054 169.542C45.2209 184.423 59.3945 196.507 73.3798 206.009C85.0063 213.849 97.2892 220.669 110.091 226.392C124.7 261.094 137.412 288.542 145.336 305.13C145.367 305.532 145.393 305.769 145.393 305.769L151.123 317.157C128.603 331.578 110.138 349.733 111.178 361.428C111.662 366.873 116.15 370.399 124.516 371.903C135.618 373.898 146.269 371.178 156.248 365.096C171.657 355.705 185.464 338.29 196.889 317.841C202.726 316.163 209.153 313.998 216.156 311.228C222.247 319.804 246.646 351.641 262.26 334.889C273.248 328.073 267.008 302.974 261.918 287.677C271.646 281.363 280.879 274.315 289.535 266.596C299.27 258.038 303.59 252.439 303.59 252.439L303.433 252.051C301.917 248.14 300.351 244.233 298.735 240.33L298.587 239.96L298.582 239.96C298.197 239.029 297.81 238.098 297.42 237.168L297.32 236.918L297.318 236.926C296.536 235.063 295.744 233.202 294.942 231.344L294.91 231.266L294.909 231.268C291.855 224.187 288.675 217.144 285.396 210.177C303.273 203.902 321.999 201.677 333.234 206.754C334.983 207.534 336.665 208.457 338.263 209.514C334.576 211.065 331.243 213.35 328.466 216.23C324.437 220.413 318.267 229.416 322.212 242.712C323.583 247.33 326.509 249.773 330.452 249.589C338.01 249.24 346.878 239.471 348.707 229.488C349.435 225.887 349.138 222.153 347.851 218.711C346.564 215.27 344.338 212.258 341.426 210.017C343.341 209.423 345.374 209.316 347.341 209.708C350.51 210.534 353.315 215.328 356.029 219.965C359.219 225.418 362.519 231.055 367 231.497C369.541 231.745 372.108 230.331 374.846 227.177C380.404 220.772 380.64 210.609 375.475 199.989C370.096 188.923 358.677 178.021 345.295 178.61C330.51 179.261 318.949 185.575 309.661 190.648C300.466 195.671 293.823 199.3 288.881 194.8C285.345 191.583 279.316 186.529 275.428 179.388C279.4 180.755 283.573 181.444 287.774 181.427C288.857 181.454 289.957 181.404 291.08 181.326C314.174 179.548 327.816 142.558 327.816 142.558C339.806 135.249 336.926 118.13 336.683 116.808C337.526 114.412 337.612 111.815 336.93 109.368ZM265.808 163.397C263.399 161.954 261.137 160.414 259.113 158.923C258.243 157.349 257.375 155.785 256.506 154.231C257.98 153.584 259.404 152.83 260.766 151.974C261.773 154.363 263.558 158.513 265.808 163.397ZM171.457 49.4171C167.922 49.52 164.397 49.8508 160.905 50.4074C160.682 50.4325 160.46 50.4568 160.235 50.4831C148.774 51.5692 137.603 54.7114 127.256 59.7593L127.246 59.7124C127.246 59.7124 126.881 59.8744 126.227 60.1879C119.066 63.6505 112.225 67.7399 105.785 72.4084C92.7537 81.5215 80.7536 92.0268 69.997 103.739C68.987 81.7007 74.349 59.6263 93.9521 45.1461C125.604 28.9503 151.306 34.7104 171.457 49.4171ZM98.3596 207.331L98.3649 207.33C99.2617 207.237 100.15 207.075 101.022 206.844C101.277 206.788 101.542 206.728 101.827 206.66C102.561 208.424 103.294 210.18 104.026 211.928C101.331 210.463 98.7322 208.96 96.1978 207.44C96.9199 207.445 97.6417 207.409 98.3596 207.331ZM124.765 370.448C117.14 369.077 113.063 366.002 112.647 361.308C111.724 350.941 129.256 333.008 151.786 318.475L153.949 322.773L153.963 322.774C154.275 322.842 168.125 325.77 194.9 318.4C176.452 350.977 151.945 375.338 124.765 370.448ZM347.257 229.21C345.37 239.499 336.631 247.82 330.372 248.112C327.131 248.264 324.799 246.255 323.626 242.302C322.209 237.989 322.011 233.369 323.053 228.95C324.095 224.532 326.336 220.487 329.53 217.261C332.376 214.285 335.859 211.992 339.718 210.554C347.926 216.84 348.095 224.634 347.257 229.21ZM287.893 195.891C293.616 201.1 301.013 197.062 310.374 191.948C319.531 186.946 330.926 180.723 345.373 180.087C358.082 179.527 368.985 190.001 374.152 200.627C378.975 210.546 378.813 220.345 373.73 226.201C371.326 228.975 369.166 230.225 367.133 230.026C363.404 229.658 360.3 224.354 357.299 219.225C354.301 214.099 351.469 209.259 347.702 208.277C345.114 207.755 342.43 207.966 339.955 208.887C338.034 207.527 335.983 206.361 333.831 205.405C322.23 200.165 303.043 202.391 284.757 208.832C279.476 197.666 273.961 186.7 268.364 176.072C269.946 177.033 271.596 177.874 273.303 178.588C277.487 186.418 283.949 192.301 287.893 195.891Z" fill="white"/>
<path d="M125.512 371.162C117.107 369.686 112.609 366.168 112.145 360.708C110.641 343.075 153.541 310.609 187.888 298.311L188.387 299.707C152.129 312.686 112.302 345.115 113.621 360.582C114.021 365.288 118.108 368.356 125.768 369.701C164.399 376.487 197.884 324.58 216.341 273.744C226.268 246.402 250.292 222.409 280.617 209.556C301.426 200.739 321.628 198.956 334.661 204.787C336.819 205.736 338.876 206.898 340.804 208.255C343.29 207.322 345.988 207.099 348.594 207.612C352.376 208.583 355.205 213.426 358.199 218.555C361.195 223.688 364.295 228.995 368.042 229.349C370.085 229.541 372.261 228.278 374.689 225.487C379.822 219.594 380.023 209.766 375.213 199.837C370.061 189.199 359.142 178.738 346.363 179.349C331.837 180.044 320.357 186.33 311.132 191.383C301.701 196.549 294.25 200.628 288.517 195.426C277.929 185.82 263.093 149.458 262.466 147.914L263.84 147.357C263.992 147.731 279.174 184.95 289.514 194.328C294.464 198.821 301.158 195.156 310.421 190.082C319.778 184.957 331.425 178.579 346.291 177.869C359.746 177.225 371.182 188.114 376.547 199.191C381.697 209.821 381.419 220.016 375.807 226.462C373.042 229.635 370.456 231.063 367.903 230.824C363.399 230.4 360.104 224.758 356.919 219.303C354.209 214.662 351.407 209.865 348.225 209.049C346.246 208.665 344.202 208.779 342.278 209.382C345.197 211.623 347.425 214.641 348.706 218.09C349.987 221.539 350.27 225.28 349.521 228.882C347.642 238.902 338.689 248.734 331.089 249.114C327.125 249.314 324.193 246.875 322.833 242.249C321.354 237.658 321.168 232.749 322.296 228.059C323.423 223.37 325.821 219.082 329.225 215.665C332.028 212.766 335.386 210.462 339.1 208.89C337.497 207.836 335.81 206.917 334.055 206.142C321.392 200.474 301.632 202.261 281.195 210.922C251.25 223.611 227.524 247.287 217.734 274.252C204.337 311.151 183.026 348.59 157.439 364.21C147.383 370.348 136.664 373.119 125.512 371.162ZM330.29 216.695C327.072 219.926 324.807 223.982 323.742 228.416C322.678 232.85 322.856 237.492 324.256 241.832C325.419 245.792 327.756 247.798 331.015 247.633C337.308 247.315 346.127 238.936 348.064 228.609C348.924 224.016 348.785 216.2 340.558 209.928C336.672 211.386 333.163 213.699 330.29 216.695Z" fill="url(#paint0_radial_595_12611)"/>
<path style="mix-blend-mode:multiply" opacity="0.5" fill-rule="evenodd" clip-rule="evenodd" d="M337.524 123.104C338.082 120.011 338.366 116.874 338.373 113.731L336.63 113.815C337.407 116.847 337.708 119.98 337.524 123.104Z" fill="url(#paint1_linear_595_12611)"/>
<path fill-rule="evenodd" clip-rule="evenodd" d="M256.238 129.896C256.238 129.896 245.542 141.549 231.441 139.077C231.441 139.077 189.283 -7.95175 92.9411 45.2296C92.9411 45.2296 137.562 6.56575 189.187 36.6913C236.406 64.2457 256.238 129.896 256.238 129.896Z" fill="url(#paint2_radial_595_12611)"/>
<path fill-rule="evenodd" clip-rule="evenodd" d="M222.34 128.812C229.046 146.876 244.724 157.719 257.358 153.029C269.992 148.339 283.668 133.561 276.068 111.828C268.169 89.2424 245.708 82.9206 233.074 87.6108C220.44 92.3008 215.634 110.747 222.34 128.812Z" fill="url(#paint3_linear_595_12611)"/>
<path d="M259.656 114.96C252.95 96.895 237.272 86.0526 224.638 90.7426C212.004 95.4326 207.199 113.879 213.905 131.944C220.611 150.008 236.289 160.851 248.923 156.161C261.557 151.471 266.362 133.024 259.656 114.96Z" fill="url(#paint4_radial_595_12611)"/>
<path fill-rule="evenodd" clip-rule="evenodd" d="M216.461 307.896C216.461 307.896 246.009 352.883 264.131 333.497L223.901 304.222L216.461 307.896Z" fill="url(#paint5_linear_595_12611)"/>
<path fill-rule="evenodd" clip-rule="evenodd" d="M222.661 301.711C222.661 301.711 247.883 343.592 264.131 333.497C280.38 323.402 259.494 273.974 259.494 273.974C259.494 273.974 247.116 277.03 222.661 301.711Z" fill="url(#paint6_linear_595_12611)"/>
<path style="mix-blend-mode:multiply" opacity="0.74" fill-rule="evenodd" clip-rule="evenodd" d="M226.642 320.967L231.192 315.344L264.809 288.744L259.494 273.974C247.493 284.548 236.93 291.101 223.901 304.222L216.461 307.896L226.642 320.967Z" fill="url(#paint7_linear_595_12611)"/>
<path fill-rule="evenodd" clip-rule="evenodd" d="M330.792 140.345C330.792 140.345 316.933 177.497 293.709 179.371C292.581 179.453 291.475 179.507 290.385 179.485C268 179.582 257.787 161.363 257.787 161.363L252.172 149.111C252.172 149.111 267.693 164.41 282.752 167.462L282.758 167.476C286.642 168.388 290.708 168.134 294.448 166.747C311.814 159.797 320.986 134.173 320.986 134.173C320.986 134.173 327.281 130.748 330.792 140.345Z" fill="url(#paint8_linear_595_12611)"/>
<path style="mix-blend-mode:multiply" opacity="0.74" fill-rule="evenodd" clip-rule="evenodd" d="M290.385 179.485C268 179.582 257.787 161.363 257.787 161.363L252.172 149.111C252.172 149.111 267.693 164.41 282.752 167.462L282.758 167.476C284.9 171.72 287.455 175.742 290.385 179.485Z" fill="url(#paint9_linear_595_12611)"/>
<path fill-rule="evenodd" clip-rule="evenodd" d="M184.673 308.308L155.298 321.771C155.298 321.771 107.875 228.057 66.8959 107.845C66.8959 107.845 97.8541 72.5441 129.487 58.0461L184.673 308.308Z" fill="url(#paint10_linear_595_12611)"/>
<path fill-rule="evenodd" clip-rule="evenodd" d="M184.673 308.308C184.673 308.308 121.027 186.445 91.2014 94.1923C91.2014 94.1923 118.105 38.386 194.2 49.498C194.2 49.498 267.108 149.476 306 250.639C306 250.639 263.653 299.894 184.673 308.308Z" fill="url(#paint11_radial_595_12611)"/>
<path fill-rule="evenodd" clip-rule="evenodd" d="M305.999 250.639C305.999 250.639 244.053 320.642 155.298 321.771L184.673 308.307C184.673 308.307 226.859 301.49 246.456 291.251C267.806 280.058 287.786 266.43 305.999 250.639Z" fill="#24000A"/>
<path fill-rule="evenodd" clip-rule="evenodd" d="M66.8958 107.845L91.2012 94.1924C91.2012 94.1924 100.756 72.5159 129.487 58.0461C129.487 58.0461 98.054 71.9363 66.8958 107.845Z" fill="url(#paint12_linear_595_12611)"/>
<path fill-rule="evenodd" clip-rule="evenodd" d="M136.778 208.944C136.778 208.944 99.9988 124.002 98.6061 95.1061C98.6061 95.1061 103.246 73.9794 129.487 58.0457C129.487 58.0457 102.861 70.2913 91.2015 94.192C102.341 133.931 117.616 172.392 136.778 208.944Z" fill="url(#paint13_linear_595_12611)"/>
<g style="mix-blend-mode:soft-light" opacity="0.5">
<path fill-rule="evenodd" clip-rule="evenodd" d="M154.938 50.4132L208.09 145.178L245.37 128.091C245.37 128.091 213.054 72.7991 194.2 49.4978C194.2 49.4978 176.669 44.4409 154.938 50.4132Z" fill="#C2A9A9"/>
</g>
<path fill-rule="evenodd" clip-rule="evenodd" d="M137.14 167.504C137.14 167.504 139.266 153.146 152.513 146.204L155.212 152.094C149.221 155.584 144.332 160.69 141.105 166.828L137.14 167.504Z" fill="url(#paint14_linear_595_12611)"/>
<path fill-rule="evenodd" clip-rule="evenodd" d="M230.871 144.161C223.573 145.576 216.062 145.478 208.804 143.872L211.503 149.761C211.503 149.761 219.262 150.712 229.44 147.029L230.871 144.161Z" fill="url(#paint15_linear_595_12611)"/>
<g style="mix-blend-mode:soft-light">
<path fill-rule="evenodd" clip-rule="evenodd" d="M91.2013 94.192L94.2329 105.074L103.817 77.1162C97.047 82.5293 91.2013 94.192 91.2013 94.192Z" fill="white"/>
</g>
<path fill-rule="evenodd" clip-rule="evenodd" d="M133.207 56.385C133.207 56.385 164.17 42.194 191.913 54.7104C191.913 54.7104 231.496 99.557 258.146 150.693C258.146 150.693 222.706 85.6311 194.199 49.4974C194.199 49.4974 166.112 42.7537 133.207 56.385Z" fill="url(#paint16_linear_595_12611)"/>
<path style="mix-blend-mode:screen" fill-rule="evenodd" clip-rule="evenodd" d="M155.298 321.77C155.298 321.77 97.0518 202.096 66.8955 107.845L78.3336 101.656C78.3336 101.656 114.666 202.616 169.517 314.682L155.298 321.77Z" fill="url(#paint17_linear_595_12611)"/>
<g style="mix-blend-mode:soft-light" opacity="0.5">
<path fill-rule="evenodd" clip-rule="evenodd" d="M160.834 260.487L301.025 238.146L305.999 250.639C305.999 250.639 260.69 303.72 184.673 308.307C175.399 293.064 167.424 277.067 160.834 260.487Z" fill="#C2A9A9"/>
</g>
<path style="mix-blend-mode:multiply" opacity="0.74" fill-rule="evenodd" clip-rule="evenodd" d="M155.298 321.771L184.673 308.307C184.673 308.307 205.55 310.721 245.384 293.336C285.218 275.95 305.999 250.639 305.999 250.639C305.999 250.639 283.316 278.446 238.624 300.647C183.644 327.959 155.298 321.771 155.298 321.771Z" fill="url(#paint18_linear_595_12611)"/>
<path fill-rule="evenodd" clip-rule="evenodd" d="M253.39 166.735C253.39 166.735 232.975 167.688 219.3 182.359L218.295 180.166C218.295 180.166 230.602 159.562 252.627 165.217L253.39 166.735Z" fill="url(#paint19_radial_595_12611)"/>
<path fill-rule="evenodd" clip-rule="evenodd" d="M43.2863 154.076C43.9199 149.624 40.9966 143.836 45.4487 136.219C45.4487 136.219 45.8142 131.648 40.5374 130.918C37.7929 133.99 35.8152 137.669 34.7665 141.652C34.7665 141.652 29.1792 132.266 23.0294 122.403C21.932 122.311 20.8283 122.478 19.807 122.889C18.7856 123.301 17.875 123.946 17.1481 124.774L22.3418 136.679L11.4602 146.191L12.0171 153.865C12.0171 153.865 22.37 168.55 35.3239 168.56C35.3239 168.56 42.7043 158.167 43.2863 154.076Z" fill="url(#paint20_linear_595_12611)"/>
<path style="mix-blend-mode:multiply" opacity="0.5" fill-rule="evenodd" clip-rule="evenodd" d="M34.7662 141.653C34.7662 141.653 30.1649 147.515 29.8638 154.255C29.8638 154.255 24.845 157.581 20.8084 158.447C16.7719 159.312 13.6665 152.795 13.6665 152.795C13.6665 152.795 12.9043 144.539 27.0832 140.775L34.7662 141.653Z" fill="url(#paint21_linear_595_12611)"/>
<path fill-rule="evenodd" clip-rule="evenodd" d="M22.3417 136.68C23.5595 140.233 25.1283 143.656 27.0249 146.897C27.0249 146.897 22.7333 151.446 19.7199 152.284L18.223 151.686L14.1337 154.919C11.0035 153.778 8.44209 151.461 6.99455 148.46L10.5094 144.344L11.478 145.122L22.3417 136.68Z" fill="url(#paint22_linear_595_12611)"/>
<path style="mix-blend-mode:multiply" opacity="0.5" fill-rule="evenodd" clip-rule="evenodd" d="M18.2228 151.686C15.7861 149.701 13.529 147.505 11.4777 145.123L12.8554 144.052C14.2389 146.859 16.0496 149.435 18.2228 151.686Z" fill="url(#paint23_linear_595_12611)"/>
<path fill-rule="evenodd" clip-rule="evenodd" d="M35.3193 168.564C46.5354 183.445 60.7363 195.508 74.7585 204.983C92.399 216.843 111.541 226.301 131.679 233.107C133.922 227.796 126.184 220.503 126.184 220.503C101.7 210.474 79.2503 196.063 59.9378 177.977C53.3186 171.946 47.2002 165.387 41.6429 158.365L35.3193 168.564Z" fill="url(#paint24_linear_595_12611)"/>
<path style="mix-blend-mode:multiply" opacity="0.74" fill-rule="evenodd" clip-rule="evenodd" d="M74.7591 204.983C92.3996 216.844 111.541 226.302 131.679 233.107C133.922 227.797 126.184 220.503 126.184 220.503C101.7 210.474 79.2509 196.063 59.9384 177.978L74.7591 204.983Z" fill="url(#paint25_linear_595_12611)"/>
<path fill-rule="evenodd" clip-rule="evenodd" d="M190.795 195.424C190.795 195.424 170.379 196.377 156.705 211.049L155.7 208.856C155.7 208.856 168.007 188.251 190.032 193.907L190.795 195.424Z" fill="url(#paint26_radial_595_12611)"/>
<path fill-rule="evenodd" clip-rule="evenodd" d="M227.489 191.802C232.44 193.538 231.083 212.424 219.544 217.713C206.533 223.676 195.407 212.207 194.043 207.131C192.678 202.056 205.692 201.522 212.147 198.564C218.601 195.606 223.119 190.269 227.489 191.802Z" fill="url(#paint27_radial_595_12611)"/>
<path fill-rule="evenodd" clip-rule="evenodd" d="M230.102 196.865C228.721 199.795 226.72 201.674 223.873 203.858C226.169 203.145 228.298 201.976 230.132 200.421C230.235 199.237 230.225 198.047 230.102 196.865Z" fill="url(#paint28_radial_595_12611)"/>
<path fill-rule="evenodd" clip-rule="evenodd" d="M207.568 211.298C207.568 211.298 202.153 213.356 197.007 212.034C197.658 213.03 198.521 213.869 199.534 214.493C202.312 213.697 205.003 212.627 207.568 211.298Z" fill="url(#paint29_radial_595_12611)"/>
<path fill-rule="evenodd" clip-rule="evenodd" d="M229.443 204.489C229.443 204.489 228.749 216.529 220.898 220.648C213.048 224.766 201.195 215.749 201.195 215.749C201.195 215.749 211.723 222.404 219.544 217.713C224.344 214.658 227.864 209.956 229.443 204.489Z" fill="url(#paint30_radial_595_12611)"/>
<g style="mix-blend-mode:soft-light">
<path fill-rule="evenodd" clip-rule="evenodd" d="M233.557 119.343C233.557 119.343 209.608 93.5981 200.657 68.1775C200.657 68.1775 224.972 99.099 233.557 119.343Z" fill="white"/>
</g>
<path fill-rule="evenodd" clip-rule="evenodd" d="M316.192 134.907C312.813 131.94 311.264 125.643 302.926 122.759C302.926 122.759 299.674 119.527 303.204 115.538C307.287 116.083 311.183 117.589 314.572 119.93C314.572 119.93 312.704 109.168 310.953 97.677C311.726 96.8929 312.672 96.301 313.715 95.9488C314.759 95.5965 315.87 95.4937 316.96 95.6486L320.767 108.068L335.22 108.205L339.792 114.393C339.792 114.393 343.364 132.668 330.792 140.345C330.792 140.345 319.296 137.634 316.192 134.907Z" fill="url(#paint31_linear_595_12611)"/>
<path style="mix-blend-mode:multiply" opacity="0.5" fill-rule="evenodd" clip-rule="evenodd" d="M314.572 119.93C314.572 119.93 321.881 121.385 326.497 126.306C326.497 126.306 332.472 125.564 336.1 123.593C339.727 121.623 337.843 114.654 337.843 114.654C337.843 114.654 333.047 107.891 319.833 114.263L314.572 119.93Z" fill="url(#paint32_linear_595_12611)"/>
<path fill-rule="evenodd" clip-rule="evenodd" d="M320.768 108.068C322.156 111.558 323.193 115.177 323.863 118.873C323.863 118.873 330.082 119.532 332.915 118.207L333.662 116.779L338.871 116.571C340.505 113.668 340.941 110.241 340.086 107.021L334.739 106.184L334.511 107.406L320.768 108.068Z" fill="url(#paint33_linear_595_12611)"/>
<path d="M124.008 154.948C114.05 138.64 96.7317 131.065 85.3261 138.029C73.9206 144.993 72.7469 163.859 82.7046 180.167C92.6623 196.476 109.981 204.051 121.386 197.087C132.792 190.123 133.965 171.256 124.008 154.948Z" fill="url(#paint34_radial_595_12611)"/>
<path d="M109.295 163.932C99.8546 148.472 83.4368 141.291 72.6243 147.893C61.8118 154.495 60.6992 172.38 70.1391 187.84C79.5791 203.301 95.9969 210.482 106.809 203.88C117.622 197.278 118.734 179.393 109.295 163.932Z" fill="url(#paint35_linear_595_12611)"/>
<path fill-rule="evenodd" clip-rule="evenodd" d="M87.7807 136.531C87.7807 136.531 76.5265 137.239 67.3784 153.005L99.8658 206.211C108.884 204.732 117.326 200.811 124.272 194.872C134.306 182.962 119.024 133.459 87.7807 136.531Z" fill="url(#paint36_linear_595_12611)"/>
<path d="M94.4446 172.558C89.1313 163.856 79.8906 159.814 73.8049 163.53C67.7192 167.246 67.0929 177.313 72.4061 186.014C77.7194 194.716 86.9601 198.758 93.0458 195.042C99.1316 191.326 99.7578 181.26 94.4446 172.558Z" fill="url(#paint37_linear_595_12611)"/>
<path fill-rule="evenodd" clip-rule="evenodd" d="M82.3103 189.122C82.3103 189.122 92.8486 188.013 93.251 177.057C93.251 177.057 42.6368 82.4962 96.3914 43.3244C153.687 1.57236 207.419 43.851 231.519 88.1835L236.442 86.6475C236.442 86.6475 215.811 42.0128 168.811 27.6161C107.132 8.72349 65.6074 59.9388 62.7514 87.7077C59.8954 115.477 87.3344 182.946 87.3344 182.946C87.3344 182.946 85.6396 187.654 82.3103 189.122Z" fill="url(#paint38_radial_595_12611)"/>
<path fill-rule="evenodd" clip-rule="evenodd" d="M85.1531 176.121C85.1531 176.121 90.8388 184.094 83.9225 188.412C77.006 192.729 69.8403 180.374 69.8403 180.374C69.8403 180.374 24.2404 92.7677 91.6791 41.7516C91.6791 41.7516 42.5961 75.6212 85.1531 176.121Z" fill="url(#paint39_radial_595_12611)"/>
<g style="mix-blend-mode:soft-light">
<path fill-rule="evenodd" clip-rule="evenodd" d="M116.723 155.053C116.723 155.053 106.714 159.284 93.6344 169.151C93.6344 169.151 90.5842 164.284 88.1393 162.231L90.1066 137.655C90.1066 137.655 104.041 136.89 116.723 155.053Z" fill="white"/>
</g>
<g style="mix-blend-mode:soft-light">
<path fill-rule="evenodd" clip-rule="evenodd" d="M235.14 121.395C235.14 121.395 242.233 126.616 243.058 134.362C243.058 134.362 238.32 130.163 235.14 121.395Z" fill="white"/>
</g>
<path fill-rule="evenodd" clip-rule="evenodd" d="M155.294 321.772C155.294 321.772 192.535 323.939 236.037 301.771C286.209 276.191 306.005 250.643 306.005 250.643L299.763 235.101C299.763 235.101 296.575 254.456 274.548 267.732C252.525 280.988 218.207 256.784 204.327 261.786C190.447 266.787 196.769 286.67 180.185 300.982C180.185 300.982 170.537 305.917 162.647 300.505C154.757 295.093 146.76 304.752 146.76 304.752L155.294 321.772Z" fill="url(#paint40_radial_595_12611)"/>
<path style="mix-blend-mode:multiply" opacity="0.74" fill-rule="evenodd" clip-rule="evenodd" d="M155.294 321.771C155.294 321.771 192.535 323.939 236.037 301.771C286.208 276.19 306.005 250.642 306.005 250.642C245.116 307.481 184.678 308.311 184.678 308.311L180.184 300.981C180.184 300.981 170.537 305.917 162.647 300.504C154.757 295.092 146.76 304.751 146.76 304.751L155.294 321.771Z" fill="url(#paint41_linear_595_12611)"/>
<path style="mix-blend-mode:multiply" opacity="0.74" fill-rule="evenodd" clip-rule="evenodd" d="M155.294 321.772C155.294 321.772 192.535 323.939 236.037 301.772C286.209 276.191 306.006 250.643 306.006 250.643C245.116 307.482 184.678 308.312 184.678 308.312L155.294 321.772Z" fill="url(#paint42_linear_595_12611)"/>
<path style="mix-blend-mode:multiply" opacity="0.74" fill-rule="evenodd" clip-rule="evenodd" d="M297.363 229.442C297.363 229.442 292.262 257.005 270.141 265.624C248.02 274.243 218.403 255.327 204.602 257.258C190.801 259.19 185.426 291.563 177.328 296.291C169.23 301.018 154.73 288.292 150.128 290.711C145.526 293.131 146.76 304.752 146.76 304.752L148.687 307.908C148.687 307.908 151.659 301.083 157.153 300.794C162.647 300.505 172.546 309.225 182.211 304.287C191.875 299.349 194.723 268.462 207.307 266.669C219.891 264.875 253.691 283.75 274.156 272.199C294.621 260.647 301.689 239.897 301.689 239.897L297.363 229.442Z" fill="url(#paint43_linear_595_12611)"/>
<g style="mix-blend-mode:soft-light">
<path fill-rule="evenodd" clip-rule="evenodd" d="M290.589 246.995C290.589 246.995 285.67 257.749 274.787 263.397C263.905 269.046 250.11 267.424 250.11 267.424C250.11 267.424 264.679 266.402 275.521 258.914C286.363 251.425 290.589 246.995 290.589 246.995Z" fill="white"/>
</g>
<g style="mix-blend-mode:soft-light">
<path fill-rule="evenodd" clip-rule="evenodd" d="M244.454 266.49C244.454 266.49 238.504 259.761 230.404 262.812L244.454 266.49Z" fill="white"/>
</g>
<g style="mix-blend-mode:soft-light">
<path fill-rule="evenodd" clip-rule="evenodd" d="M196.981 261.913C191.542 268.925 187.35 276.821 184.589 285.255C184.575 280.645 185.699 276.103 187.861 272.031C190.022 267.959 193.155 264.484 196.981 261.913Z" fill="white"/>
</g>
<g style="mix-blend-mode:soft-light">
<path fill-rule="evenodd" clip-rule="evenodd" d="M268.127 98.2356C268.127 98.2356 263.132 96.4012 252.935 98.5455C252.935 98.5455 244.433 89.7766 235.75 88.8906C235.75 88.8906 240.993 86.4644 249.784 87.1679C249.784 87.1679 261.773 90.1961 268.127 98.2356Z" fill="white"/>
</g>
</g>
<defs>
<filter id="filter0_f_595_12611" x="-6.31128" y="-10.6448" width="385.838" height="429.22" filterUnits="userSpaceOnUse" color-interpolation-filters="sRGB">
<feFlood flood-opacity="0" result="BackgroundImageFix"/>
<feBlend mode="normal" in="SourceGraphic" in2="BackgroundImageFix" result="shape"/>
<feGaussianBlur stdDeviation="30" result="effect1_foregroundBlur_595_12611"/>
</filter>
<radialGradient id="paint0_radial_595_12611" cx="0" cy="0" r="1" gradientUnits="userSpaceOnUse" gradientTransform="translate(224.036 247.463) rotate(148.594) scale(119.172 119.172)">
<stop offset="0.00559" stop-color="#B77C8B"/>
<stop offset="0.58003" stop-color="#6F3F54"/>
<stop offset="1" stop-color="#38102A"/>
</radialGradient>
<linearGradient id="paint1_linear_595_12611" x1="339.369" y1="122.481" x2="336.841" y2="113.659" gradientUnits="userSpaceOnUse">
<stop stop-color="#CA528D"/>
<stop offset="1" stop-color="#B3757C"/>
</linearGradient>
<radialGradient id="paint2_radial_595_12611" cx="0" cy="0" r="1" gradientUnits="userSpaceOnUse" gradientTransform="translate(177.074 86.2197) rotate(148.594) scale(66.601 66.601)">
<stop offset="0.00559" stop-color="#B77C8B"/>
<stop offset="0.58003" stop-color="#6F3F54"/>
<stop offset="1" stop-color="#38102A"/>
</radialGradient>
<linearGradient id="paint3_linear_595_12611" x1="275.11" y1="109.224" x2="222.341" y2="128.814" gradientUnits="userSpaceOnUse">
<stop offset="0.00559" stop-color="#CE2E13"/>
<stop offset="0.36363" stop-color="#CB2E15"/>
<stop offset="0.64164" stop-color="#C1301C"/>
<stop offset="0.89194" stop-color="#B13227"/>
<stop offset="1" stop-color="#A7332D"/>
</linearGradient>
<radialGradient id="paint4_radial_595_12611" cx="0" cy="0" r="1" gradientUnits="userSpaceOnUse" gradientTransform="translate(251.522 114.885) rotate(159.635) scale(22.2148 37.4788)">
<stop offset="0.00559" stop-color="#B79C8B"/>
<stop offset="0.77403" stop-color="#755450"/>
<stop offset="1" stop-color="#613E3E"/>
</radialGradient>
<linearGradient id="paint5_linear_595_12611" x1="257.452" y1="339.918" x2="221.91" y2="302.693" gradientUnits="userSpaceOnUse">
<stop stop-color="#C9635C"/>
<stop offset="0.97069" stop-color="#C95B57"/>
<stop offset="0.99441" stop-color="#C95B57"/>
</linearGradient>
<linearGradient id="paint6_linear_595_12611" x1="273.929" y1="324.444" x2="238.056" y2="286.874" gradientUnits="userSpaceOnUse">
<stop stop-color="#FFA466"/>
<stop offset="0.2982" stop-color="#FA9C6D"/>
<stop offset="0.75336" stop-color="#ED877F"/>
<stop offset="0.99441" stop-color="#E4798B"/>
</linearGradient>
<linearGradient id="paint7_linear_595_12611" x1="222.003" y1="316.109" x2="262.66" y2="277.29" gradientUnits="userSpaceOnUse">
<stop stop-color="#CA528D"/>
<stop offset="1" stop-color="#B3757C"/>
</linearGradient>
<linearGradient id="paint8_linear_595_12611" x1="305.616" y1="175.485" x2="286.344" y2="133.446" gradientUnits="userSpaceOnUse">
<stop offset="0.00559" stop-color="#E4798B"/>
<stop offset="0.24664" stop-color="#ED877F"/>
<stop offset="0.7018" stop-color="#FA9C6D"/>
<stop offset="1" stop-color="#FFA466"/>
</linearGradient>
<linearGradient id="paint9_linear_595_12611" x1="280.349" y1="184.086" x2="262.207" y2="144.511" gradientUnits="userSpaceOnUse">
<stop stop-color="#CA528D"/>
<stop offset="1" stop-color="#B3757C"/>
</linearGradient>
<linearGradient id="paint10_linear_595_12611" x1="144.866" y1="188.833" x2="50.7172" y2="229.781" gradientUnits="userSpaceOnUse">
<stop stop-color="#FFE100"/>
<stop offset="1" stop-color="#D98200"/>
</linearGradient>
<radialGradient id="paint11_radial_595_12611" cx="0" cy="0" r="1" gradientUnits="userSpaceOnUse" gradientTransform="translate(201.582 87.5783) rotate(-24.6211) scale(135.937 169.61)">
<stop stop-color="#FFE100"/>
<stop offset="1" stop-color="#D98200"/>
</radialGradient>
<linearGradient id="paint12_linear_595_12611" x1="52.5376" y1="63.1038" x2="175.48" y2="116.537" gradientUnits="userSpaceOnUse">
<stop stop-color="#FFF7BA"/>
<stop offset="1" stop-color="#FFE100"/>
</linearGradient>
<linearGradient id="paint13_linear_595_12611" x1="119.82" y1="104.427" x2="147.445" y2="177.994" gradientUnits="userSpaceOnUse">
<stop stop-color="#FFF5A6"/>
<stop offset="1" stop-color="#D98200"/>
</linearGradient>
<linearGradient id="paint14_linear_595_12611" x1="134.657" y1="162.087" x2="155.429" y2="152.564" gradientUnits="userSpaceOnUse">
<stop offset="0.00559" stop-color="#430900"/>
<stop offset="0.37541" stop-color="#410803"/>
<stop offset="0.6625" stop-color="#39060D"/>
<stop offset="0.92102" stop-color="#2C021D"/>
<stop offset="1" stop-color="#270024"/>
</linearGradient>
<linearGradient id="paint15_linear_595_12611" x1="229.319" y1="140.776" x2="211.193" y2="149.085" gradientUnits="userSpaceOnUse">
<stop offset="0.00559" stop-color="#430900"/>
<stop offset="0.37541" stop-color="#410803"/>
<stop offset="0.6625" stop-color="#39060D"/>
<stop offset="0.92102" stop-color="#2C021D"/>
<stop offset="1" stop-color="#270024"/>
</linearGradient>
<linearGradient id="paint16_linear_595_12611" x1="143.547" y1="58.3552" x2="259.367" y2="116.864" gradientUnits="userSpaceOnUse">
<stop stop-color="#FFF7BA"/>
<stop offset="1" stop-color="#FFE100"/>
</linearGradient>
<linearGradient id="paint17_linear_595_12611" x1="106.598" y1="216.398" x2="126.708" y2="207.179" gradientUnits="userSpaceOnUse">
<stop stop-color="#512C2C"/>
<stop offset="0.17135" stop-color="#3D2121"/>
<stop offset="0.58991" stop-color="#110909"/>
<stop offset="0.80214"/>
</linearGradient>
<linearGradient id="paint18_linear_595_12611" x1="158.175" y1="328.047" x2="309.652" y2="258.606" gradientUnits="userSpaceOnUse">
<stop stop-color="#CA528D"/>
<stop offset="1" stop-color="#DDC2C5"/>
</linearGradient>
<radialGradient id="paint19_radial_595_12611" cx="0" cy="0" r="1" gradientUnits="userSpaceOnUse" gradientTransform="translate(234.626 170.797) rotate(155.372) scale(13.5755 13.5755)">
<stop offset="0.00559" stop-color="#3B1400"/>
<stop offset="0.37541" stop-color="#391203"/>
<stop offset="0.6625" stop-color="#340D0D"/>
<stop offset="0.92102" stop-color="#2B041D"/>
<stop offset="1" stop-color="#270024"/>
</radialGradient>
<linearGradient id="paint20_linear_595_12611" x1="33.4423" y1="168.925" x2="24.3001" y2="121.887" gradientUnits="userSpaceOnUse">
<stop stop-color="#FFA466"/>
<stop offset="0.2982" stop-color="#FA9C6D"/>
<stop offset="0.75336" stop-color="#ED877F"/>
<stop offset="0.99441" stop-color="#E4798B"/>
</linearGradient>
<linearGradient id="paint21_linear_595_12611" x1="26.1943" y1="157.4" x2="23.113" y2="141.547" gradientUnits="userSpaceOnUse">
<stop stop-color="#CA528D"/>
<stop offset="1" stop-color="#B3757C"/>
</linearGradient>
<linearGradient id="paint22_linear_595_12611" x1="19.2538" y1="152.573" x2="13.7694" y2="140.609" gradientUnits="userSpaceOnUse">
<stop stop-color="#FFA466"/>
<stop offset="0.2982" stop-color="#FA9C6D"/>
<stop offset="0.75336" stop-color="#ED877F"/>
<stop offset="0.99441" stop-color="#E4798B"/>
</linearGradient>
<linearGradient id="paint23_linear_595_12611" x1="16.6791" y1="152.394" x2="12.8551" y2="144.052" gradientUnits="userSpaceOnUse">
<stop stop-color="#CA528D"/>
<stop offset="1" stop-color="#B3757C"/>
</linearGradient>
<linearGradient id="paint24_linear_595_12611" x1="112.092" y1="245.066" x2="54.4008" y2="150.576" gradientUnits="userSpaceOnUse">
<stop offset="0.00559" stop-color="#E4798B"/>
<stop offset="0.24664" stop-color="#ED877F"/>
<stop offset="0.7018" stop-color="#FA9C6D"/>
<stop offset="1" stop-color="#FFA466"/>
</linearGradient>
<linearGradient id="paint25_linear_595_12611" x1="113.365" y1="241.5" x2="80.0326" y2="168.768" gradientUnits="userSpaceOnUse">
<stop stop-color="#CA528D"/>
<stop offset="1" stop-color="#B3757C"/>
</linearGradient>
<radialGradient id="paint26_radial_595_12611" cx="0" cy="0" r="1" gradientUnits="userSpaceOnUse" gradientTransform="translate(172.031 199.487) rotate(155.372) scale(13.5756 13.5756)">
<stop offset="0.00559" stop-color="#3B1400"/>
<stop offset="0.37541" stop-color="#391203"/>
<stop offset="0.6625" stop-color="#340D0D"/>
<stop offset="0.92102" stop-color="#2B041D"/>
<stop offset="1" stop-color="#270024"/>
</radialGradient>
<radialGradient id="paint27_radial_595_12611" cx="0" cy="0" r="1" gradientUnits="userSpaceOnUse" gradientTransform="translate(214.841 207.431) rotate(155.379) scale(15.3379 16.2197)">
<stop offset="0.00559" stop-color="white"/>
<stop offset="0.24154" stop-color="#FDFCFC"/>
<stop offset="0.44266" stop-color="#F6F1F3"/>
<stop offset="0.63096" stop-color="#ECE0E5"/>
<stop offset="0.81145" stop-color="#DCC7D0"/>
<stop offset="0.985" stop-color="#C9A7B6"/>
<stop offset="1" stop-color="#C7A4B3"/>
</radialGradient>
<radialGradient id="paint28_radial_595_12611" cx="0" cy="0" r="1" gradientUnits="userSpaceOnUse" gradientTransform="translate(227.015 200.422) rotate(155.372) scale(3.33031 3.33031)">
<stop offset="0.00559" stop-color="#3B1400"/>
<stop offset="0.37541" stop-color="#391203"/>
<stop offset="0.6625" stop-color="#340D0D"/>
<stop offset="0.92102" stop-color="#2B041D"/>
<stop offset="1" stop-color="#270024"/>
</radialGradient>
<radialGradient id="paint29_radial_595_12611" cx="0" cy="0" r="1" gradientUnits="userSpaceOnUse" gradientTransform="translate(202.294 211.68) rotate(155.372) scale(3.74674 3.74674)">
<stop offset="0.00559" stop-color="#3B1400"/>
<stop offset="0.37541" stop-color="#391203"/>
<stop offset="0.6625" stop-color="#340D0D"/>
<stop offset="0.92102" stop-color="#2B041D"/>
<stop offset="1" stop-color="#270024"/>
</radialGradient>
<radialGradient id="paint30_radial_595_12611" cx="0" cy="0" r="1" gradientUnits="userSpaceOnUse" gradientTransform="translate(217.64 215.183) rotate(155.372) scale(11.6355 11.6355)">
<stop offset="0.00559" stop-color="#95452C"/>
<stop offset="0.36" stop-color="#92422D"/>
<stop offset="0.63521" stop-color="#883A30"/>
<stop offset="0.88299" stop-color="#782B34"/>
<stop offset="1" stop-color="#6D2237"/>
</radialGradient>
<linearGradient id="paint31_linear_595_12611" x1="332.955" y1="139.116" x2="309.653" y2="98.1116" gradientUnits="userSpaceOnUse">
<stop stop-color="#FFA466"/>
<stop offset="0.2982" stop-color="#FA9C6D"/>
<stop offset="0.75336" stop-color="#ED877F"/>
<stop offset="0.99441" stop-color="#E4798B"/>
</linearGradient>
<linearGradient id="paint32_linear_595_12611" x1="331.329" y1="126.305" x2="323.35" y2="112.264" gradientUnits="userSpaceOnUse">
<stop stop-color="#CA528D"/>
<stop offset="1" stop-color="#B3757C"/>
</linearGradient>
<linearGradient id="paint33_linear_595_12611" x1="333.669" y1="117.967" x2="330.045" y2="105.315" gradientUnits="userSpaceOnUse">
<stop stop-color="#FFA466"/>
<stop offset="0.2982" stop-color="#FA9C6D"/>
<stop offset="0.75336" stop-color="#ED877F"/>
<stop offset="0.99441" stop-color="#E4798B"/>
</linearGradient>
<radialGradient id="paint34_radial_595_12611" cx="0" cy="0" r="1" gradientUnits="userSpaceOnUse" gradientTransform="translate(103.406 167.58) rotate(148.589) scale(32.2701 28.8542)">
<stop offset="0.00559" stop-color="#B79C8B"/>
<stop offset="0.77403" stop-color="#755450"/>
<stop offset="1" stop-color="#613E3E"/>
</radialGradient>
<linearGradient id="paint35_linear_595_12611" x1="109.292" y1="163.867" x2="70.1364" y2="187.774" gradientUnits="userSpaceOnUse">
<stop offset="0.00559" stop-color="#CE2E13"/>
<stop offset="0.36363" stop-color="#CB2E15"/>
<stop offset="0.64164" stop-color="#C1301C"/>
<stop offset="0.89194" stop-color="#B13227"/>
<stop offset="1" stop-color="#A7332D"/>
</linearGradient>
<linearGradient id="paint36_linear_595_12611" x1="119.825" y1="156.751" x2="83.2866" y2="179.06" gradientUnits="userSpaceOnUse">
<stop offset="0.00559" stop-color="#CE2E13"/>
<stop offset="0.36363" stop-color="#CB2E15"/>
<stop offset="0.64164" stop-color="#C1301C"/>
<stop offset="0.89194" stop-color="#B13227"/>
<stop offset="1" stop-color="#A7332D"/>
</linearGradient>
<linearGradient id="paint37_linear_595_12611" x1="94.4676" y1="172.529" x2="72.4289" y2="185.985" gradientUnits="userSpaceOnUse">
<stop offset="0.00559" stop-color="#CE2E13"/>
<stop offset="0.36363" stop-color="#CB2E15"/>
<stop offset="0.64164" stop-color="#C1301C"/>
<stop offset="0.89194" stop-color="#B13227"/>
<stop offset="1" stop-color="#A7332D"/>
</linearGradient>
<radialGradient id="paint38_radial_595_12611" cx="0" cy="0" r="1" gradientUnits="userSpaceOnUse" gradientTransform="translate(202.494 42.5095) rotate(148.594) scale(83.5085 83.5084)">
<stop offset="0.00559" stop-color="#B77C8B"/>
<stop offset="0.68357" stop-color="#6F3E4A"/>
<stop offset="1" stop-color="#4C1F2A"/>
</radialGradient>
<radialGradient id="paint39_radial_595_12611" cx="0" cy="0" r="1" gradientUnits="userSpaceOnUse" gradientTransform="translate(84.4585 117.122) rotate(148.594) scale(53.5393 53.5393)">
<stop offset="0.00559" stop-color="#C19C8B"/>
<stop offset="0.67161" stop-color="#845458"/>
<stop offset="1" stop-color="#652F3E"/>
</radialGradient>
<radialGradient id="paint40_radial_595_12611" cx="0" cy="0" r="1" gradientUnits="userSpaceOnUse" gradientTransform="translate(248.617 254.237) rotate(148.594) scale(88.8639 88.8639)">
<stop offset="0.00559" stop-color="white"/>
<stop offset="0.19846" stop-color="#FDFCFC"/>
<stop offset="0.36286" stop-color="#F6F1F3"/>
<stop offset="0.51677" stop-color="#ECE0E5"/>
<stop offset="0.66431" stop-color="#DCC7D0"/>
<stop offset="0.80617" stop-color="#C9A7B6"/>
<stop offset="0.81844" stop-color="#C7A4B3"/>
<stop offset="0.86286" stop-color="#CEA4B4"/>
<stop offset="0.9271" stop-color="#E1A3B8"/>
<stop offset="1" stop-color="#FFA2BD"/>
</radialGradient>
<linearGradient id="paint41_linear_595_12611" x1="298.291" y1="238.007" x2="156.87" y2="324.353" gradientUnits="userSpaceOnUse">
<stop stop-color="#CA528D"/>
<stop offset="1" stop-color="#DDC2C5"/>
</linearGradient>
<linearGradient id="paint42_linear_595_12611" x1="303.483" y1="246.511" x2="162.062" y2="332.856" gradientUnits="userSpaceOnUse">
<stop stop-color="#CA528D"/>
<stop offset="1" stop-color="#DDC2C5"/>
</linearGradient>
<linearGradient id="paint43_linear_595_12611" x1="297.11" y1="229.027" x2="153.908" y2="316.46" gradientUnits="userSpaceOnUse">
<stop stop-color="#CA528D"/>
<stop offset="1" stop-color="#B3757C"/>
</linearGradient>
<clipPath id="clip0_595_12611">
<rect width="383" height="405" fill="white"/>
</clipPath>
</defs>
</svg>
