<svg width="178" height="191" viewBox="0 0 178 191" fill="none" xmlns="http://www.w3.org/2000/svg">
<g opacity="0.8" filter="url(#filter0_f_595_12489)">
<ellipse cx="89.2959" cy="95.4678" rx="28.5" ry="35" fill="#D208C2"/>
</g>
<path fill-rule="evenodd" clip-rule="evenodd" d="M60.2284 91.84C60.2284 91.84 65.1057 99.3577 70.3213 98.6336C70.5742 98.5965 70.821 98.5543 71.0602 98.496C76.0036 97.4211 77.3643 92.9013 77.3643 92.9013L78.0031 89.9232C78.0031 89.9232 75.3281 94.0587 72.1553 95.4696L72.1546 95.473C71.3425 95.8644 70.4329 96.0076 69.5398 95.8847C65.3683 95.202 62.0897 89.998 62.0897 89.998C62.0897 89.998 60.533 89.5507 60.2284 91.84Z" fill="url(#paint0_linear_595_12489)"/>
<path style="mix-blend-mode:multiply" opacity="0.74" fill-rule="evenodd" clip-rule="evenodd" d="M71.0602 98.4958C76.0036 97.4209 77.3643 92.9012 77.3643 92.9012L78.0031 89.9231C78.0031 89.9231 75.3282 94.0585 72.1554 95.4694L72.1547 95.4728C71.89 96.514 71.5234 97.5265 71.0602 98.4958Z" fill="url(#paint1_linear_595_12489)"/>
<path fill-rule="evenodd" clip-rule="evenodd" d="M56.7374 92.3476C58.0371 92.997 59.5358 93.1253 60.927 92.7063L61.5544 87.6504L58.2326 86.4922L56.7374 92.3476Z" fill="url(#paint2_linear_595_12489)"/>
<path fill-rule="evenodd" clip-rule="evenodd" d="M100.692 121.739L107.832 123.271C107.832 123.271 113.705 100.273 116.857 71.7444C116.857 71.7444 108.298 65.4726 100.61 63.8234L100.692 121.739Z" fill="url(#paint3_linear_595_12489)"/>
<path fill-rule="evenodd" clip-rule="evenodd" d="M100.692 121.739L107.832 123.271C107.832 123.271 113.705 100.273 116.857 71.7444C116.857 71.7444 108.298 65.4726 100.61 63.8234L100.692 121.739Z" fill="url(#paint4_radial_595_12489)"/>
<path fill-rule="evenodd" clip-rule="evenodd" d="M100.692 121.739C100.692 121.739 108.765 91.7363 110.827 69.9227C110.827 69.9227 102.158 58.9284 85.914 65.107C85.914 65.107 74.7259 90.7353 71.1005 114.959C71.1005 114.959 82.8555 123.751 100.692 121.739Z" fill="url(#paint5_radial_595_12489)"/>
<path fill-rule="evenodd" clip-rule="evenodd" d="M71.1005 114.959C71.1005 114.959 88.1958 127.369 107.832 123.271L100.692 121.739C100.692 121.739 91.0511 122.301 86.226 121.002C80.9677 119.579 75.892 117.551 71.1005 114.959Z" fill="#24000A"/>
<path fill-rule="evenodd" clip-rule="evenodd" d="M94.3563 123.745C94.3563 123.745 90.3711 135.237 85.3276 131.992L92.5229 123.351L94.3563 123.745Z" fill="url(#paint6_linear_595_12489)"/>
<path fill-rule="evenodd" clip-rule="evenodd" d="M92.6557 122.733C92.6557 122.733 89.4464 133.305 85.3276 131.992C81.2088 130.679 83.0503 118.693 83.0503 118.693C83.0503 118.693 85.9316 118.678 92.6557 122.733Z" fill="url(#paint7_linear_595_12489)"/>
<path fill-rule="evenodd" clip-rule="evenodd" d="M116.858 71.7442L110.827 69.9226C110.827 69.9226 107.657 65.6084 100.61 63.8232C100.61 63.8232 108.225 65.3481 116.858 71.7442Z" fill="url(#paint8_linear_595_12489)"/>
<path fill-rule="evenodd" clip-rule="evenodd" d="M121.311 96.9606C120.953 96.0094 121.315 94.5892 119.96 93.1269C119.96 93.1269 119.655 92.1365 120.783 91.7169C121.539 92.2602 122.156 92.9749 122.582 93.8024C122.582 93.8024 123.355 91.458 124.229 88.9806C124.467 88.9066 124.718 88.8893 124.964 88.9301C125.209 88.9709 125.442 89.0687 125.643 89.2157L125.08 92.0967L126.96 89.2042C127.364 89.118 127.787 89.1922 128.137 89.4114C128.488 89.6305 128.739 89.9774 128.839 90.3787L127.868 93.125L128.878 91.8304C128.878 91.8304 129.9 91.8715 129.7 92.8983L128.2 95.3824C128.2 95.3824 126.635 99.1293 123.777 99.766C123.777 99.766 121.64 97.8346 121.311 96.9606Z" fill="url(#paint9_linear_595_12489)"/>
<path fill-rule="evenodd" clip-rule="evenodd" d="M106.392 97.4715C106.392 97.4715 110.346 76.9299 109.238 70.4868C109.238 70.4868 107.179 66.0531 100.61 63.823C100.61 63.823 107.083 65.2206 110.827 69.9224C110.315 79.2352 108.829 88.4688 106.392 97.4715Z" fill="url(#paint10_radial_595_12489)"/>
<g style="mix-blend-mode:soft-light" opacity="0.5">
<path fill-rule="evenodd" clip-rule="evenodd" d="M94.6206 63.3861L87.536 86.8965L78.4742 84.9528C78.4742 84.9528 82.8955 71.1714 85.9139 65.1072C88.6254 63.811 91.6198 63.2191 94.6206 63.3861Z" fill="#D2BDE1"/>
</g>
<path style="mix-blend-mode:multiply" opacity="0.74" fill-rule="evenodd" clip-rule="evenodd" d="M92.8488 127.172L91.5406 126.191L82.7029 122.223L83.0503 118.693C86.2649 120.346 88.942 121.197 92.5229 123.351L94.3563 123.744L92.8488 127.172Z" fill="url(#paint11_linear_595_12489)"/>
<path fill-rule="evenodd" clip-rule="evenodd" d="M104.282 88.3471C104.282 88.3471 103.11 85.2835 99.8475 84.4009L99.5405 85.8325C101.033 86.3091 102.362 87.1961 103.375 88.3921L104.282 88.3471Z" fill="url(#paint12_linear_595_12489)"/>
<path fill-rule="evenodd" clip-rule="evenodd" d="M82.4601 87.788C84.1395 87.7428 85.7917 87.3532 87.3143 86.6434L87.0073 88.075C85.6792 88.4595 84.2839 88.5536 82.9162 88.3507L82.4601 87.788Z" fill="url(#paint13_linear_595_12489)"/>
<g style="mix-blend-mode:soft-light">
<path fill-rule="evenodd" clip-rule="evenodd" d="M110.827 69.9225L110.691 72.4718L107.207 66.7732C108.966 67.6358 110.827 69.9225 110.827 69.9225Z" fill="white"/>
</g>
<path fill-rule="evenodd" clip-rule="evenodd" d="M99.7074 63.6391C99.7074 63.6391 92.1814 62.0248 86.6738 66.145C86.6738 66.145 80.1375 77.9779 76.7626 90.5647C76.7626 90.5647 81.3947 74.475 85.914 65.1069C85.914 65.1069 91.7803 62.2434 99.7074 63.6391Z" fill="url(#paint14_radial_595_12489)"/>
<g style="mix-blend-mode:soft-light" opacity="0.5">
<path fill-rule="evenodd" clip-rule="evenodd" d="M103.609 110.021L71.586 111.959L71.1004 114.959C71.1004 114.959 83.6965 124.45 100.692 121.739C101.992 117.922 102.967 114.002 103.609 110.021Z" fill="#C2A9A9"/>
</g>
<path style="mix-blend-mode:multiply" opacity="0.5" fill-rule="evenodd" clip-rule="evenodd" d="M122.583 93.8027C122.583 93.8027 123.885 94.8706 124.281 96.3428C124.281 96.3428 125.551 96.8309 126.484 96.8241C127.417 96.8174 127.783 95.2275 127.783 95.2275C127.783 95.2275 126.922 93.0174 123.61 92.8815L122.583 93.8027Z" fill="url(#paint15_linear_595_12489)"/>
<path fill-rule="evenodd" clip-rule="evenodd" d="M109.937 114.114C109.937 114.114 108.059 113.005 105.922 115.657C103.785 118.309 101.806 117.519 101.326 116.776C100.845 116.033 101.102 115.282 100.682 114.567C100.262 113.851 96.1316 116.149 88.2575 117.02C80.3834 117.89 79.097 115.299 78.1925 114.861C77.2881 114.423 77.3311 117.142 75.4316 116.828C73.532 116.514 74.8003 114.438 74.3111 113.846C73.8219 113.253 71.1005 114.959 71.1005 114.959C71.1005 114.959 77.8397 120.33 89.1856 122.855C100.531 125.381 107.832 123.27 107.832 123.27L109.937 114.114Z" fill="url(#paint16_radial_595_12489)"/>
<path style="mix-blend-mode:multiply" opacity="0.74" fill-rule="evenodd" clip-rule="evenodd" d="M101.854 117.237L100.692 121.739C100.692 121.739 87.1175 125.184 71.1005 114.959C71.1005 114.959 77.0124 120.244 90.0922 123.049C103.172 125.855 107.832 123.271 107.832 123.271L109.937 114.114C109.937 114.114 108.447 113.12 106.869 114.688C105.292 116.256 104.227 117.544 101.854 117.237Z" fill="url(#paint17_linear_595_12489)"/>
<path style="mix-blend-mode:multiply" opacity="0.74" fill-rule="evenodd" clip-rule="evenodd" d="M109.84 114.093C109.84 114.093 108.008 113.639 106.551 115.551C105.094 117.463 104.151 119.105 102.384 118.769C100.617 118.433 100.798 115.148 100.169 114.853C99.5412 114.557 92.094 118.125 86.6641 118.297C81.2343 118.469 78.7325 115.276 78.1128 115.266C77.493 115.255 77.1251 117.126 75.9808 117.251C74.6853 117.392 73.9671 116.695 73.8899 115.99C73.8125 115.285 74.4245 114.421 74.0703 114.084C73.716 113.746 71.1004 114.959 71.1004 114.959L71.1856 114.562C71.1856 114.562 73.5898 113.021 74.4418 113.524C75.2937 114.026 74.0668 115.591 74.9984 116.042C75.9299 116.494 76.9024 115.263 77.6126 114.295C78.3228 113.328 79.8958 116.154 83.256 116.369C89.9826 116.799 99.8274 112.966 100.893 113.256C101.958 113.545 100.599 116.118 103.117 116.521C104.647 116.766 107.081 112.191 109.84 114.093Z" fill="url(#paint18_linear_595_12489)"/>
<g style="mix-blend-mode:soft-light">
<path fill-rule="evenodd" clip-rule="evenodd" d="M86.3941 116.306C86.3941 116.306 83.581 116.654 81.693 116.064C79.8049 115.474 79.014 114.597 79.014 114.597C79.014 114.597 79.7571 115.057 82.1498 115.728C83.5287 116.127 84.9587 116.322 86.3941 116.306Z" fill="white"/>
</g>
<g style="mix-blend-mode:soft-light">
<path fill-rule="evenodd" clip-rule="evenodd" d="M90.5803 115.689C90.5803 115.689 88.2138 115.092 87.6891 116.167C87.6891 116.167 89.9068 115.826 90.5803 115.689Z" fill="white"/>
</g>
<path style="mix-blend-mode:multiply" opacity="0.74" fill-rule="evenodd" clip-rule="evenodd" d="M107.832 123.271L100.692 121.739C100.692 121.739 96.2044 123.294 86.5647 121.41C76.925 119.525 71.1005 114.959 71.1005 114.959C71.1005 114.959 77.796 120.276 88.4142 122.692C101.942 125.769 107.832 123.271 107.832 123.271Z" fill="url(#paint19_linear_595_12489)"/>
<g style="mix-blend-mode:soft-light">
<path fill-rule="evenodd" clip-rule="evenodd" d="M106.472 114.358C106.472 114.358 104.793 116.164 103.619 116.453C103.619 116.453 104.422 114.558 106.472 114.358Z" fill="white"/>
</g>
<path fill-rule="evenodd" clip-rule="evenodd" d="M78.5975 93.8711C78.5975 93.8711 83.1482 93.0813 86.8837 95.6484L86.998 95.1153C86.998 95.1153 83.2736 91.1723 78.6915 93.4988L78.5975 93.8711Z" fill="url(#paint20_radial_595_12489)"/>
<path fill-rule="evenodd" clip-rule="evenodd" d="M93.8125 97.1345C93.8125 97.1345 98.3632 96.3447 102.099 98.9118L102.213 98.3788C102.213 98.3788 98.4886 94.4358 93.9065 96.7622L93.8125 97.1345Z" fill="url(#paint21_radial_595_12489)"/>
<path fill-rule="evenodd" clip-rule="evenodd" d="M85.5396 98.1326C84.5324 98.7581 85.7568 102.858 88.5617 103.46C91.7241 104.138 93.6169 101.063 93.6694 99.8764C93.7218 98.6898 90.8245 99.2095 89.2557 98.873C87.6869 98.5365 86.4288 97.5804 85.5396 98.1326Z" fill="url(#paint22_radial_595_12489)"/>
<path fill-rule="evenodd" clip-rule="evenodd" d="M85.2109 99.3779C85.6593 99.9568 86.1927 100.273 86.9277 100.616C86.3862 100.571 85.8593 100.417 85.3786 100.164C85.2979 99.9079 85.2418 99.6447 85.2109 99.3779Z" fill="url(#paint23_radial_595_12489)"/>
<path fill-rule="evenodd" clip-rule="evenodd" d="M90.8895 101.458C91.6958 101.556 92.5135 101.434 93.2555 101.103C93.1606 101.355 93.0114 101.582 92.8184 101.77C92.1667 101.73 91.5206 101.626 90.8895 101.458Z" fill="url(#paint24_radial_595_12489)"/>
<path fill-rule="evenodd" clip-rule="evenodd" d="M85.7299 101.028C85.7299 101.028 86.4729 103.65 88.4066 104.174C90.3403 104.698 92.5136 102.128 92.5136 102.128C92.5136 102.128 90.5169 104.112 88.5617 103.46C87.353 103.021 86.3461 102.156 85.7299 101.028Z" fill="url(#paint25_radial_595_12489)"/>
<path fill-rule="evenodd" clip-rule="evenodd" d="M108.748 99.0434C108.748 99.0434 107.504 98.3677 107.601 100.916C107.601 100.916 109.763 106.029 113.743 106.888C118.446 107.902 123.777 99.7661 123.777 99.7661L122.069 97.8073C122.069 97.8073 118.747 103.693 114.569 103.812C110.89 103.916 108.748 99.0434 108.748 99.0434Z" fill="url(#paint26_linear_595_12489)"/>
<path fill-rule="evenodd" clip-rule="evenodd" d="M66.3765 69.4414L68.5856 66.6758L63.9038 65.651L59.1759 64.8663L60.2017 68.2541C60.2017 68.2541 56.357 76.0612 56.3653 79.4824C56.3738 82.9036 60.1405 85.222 60.1405 85.222C60.1405 85.222 64.4984 84.4659 65.775 81.2918C67.0516 78.1177 66.3765 69.4414 66.3765 69.4414Z" fill="url(#paint27_radial_595_12489)"/>
<path fill-rule="evenodd" clip-rule="evenodd" d="M59.2103 92.25L61.3123 84.9097L59.168 84.4973L58.8041 92.172L55.699 92.547L55.5896 93.1156L61.9267 94.3343L62.0716 93.5813L59.2103 92.25Z" fill="url(#paint28_radial_595_12489)"/>
<path fill-rule="evenodd" clip-rule="evenodd" d="M57.0933 78.5043C57.0933 78.5043 56.5417 83.1253 60.4009 83.8673C63.4883 84.461 66.1997 81.0949 66.0086 76.3331C66.0086 76.3331 65.0467 77.452 62.364 77.8207C59.6814 78.1895 57.0933 78.5043 57.0933 78.5043Z" fill="url(#paint29_linear_595_12489)"/>
<path fill-rule="evenodd" clip-rule="evenodd" d="M57.0933 78.5043C57.0933 78.5043 62.1527 75.9517 66.0086 76.3331C66.0086 76.3331 65.3506 77.6789 63.3714 78.2777C61.3922 78.8766 59.5361 78.1967 57.0933 78.5043Z" fill="#F64A13"/>
<g style="mix-blend-mode:soft-light">
<path fill-rule="evenodd" clip-rule="evenodd" d="M60.7318 68.0281C60.7318 68.0281 56.5128 75.7595 56.7104 79.9294L59.0728 80.9594C59.0728 80.9594 60.4257 71.5844 62.3958 68.4643L60.7318 68.0281Z" fill="white"/>
</g>
<g style="mix-blend-mode:soft-light">
<path fill-rule="evenodd" clip-rule="evenodd" d="M63.5561 81.7664C64.148 80.7304 64.6027 79.622 64.9087 78.4688L66.1851 78.3574C66.1851 78.3574 65.7612 81.4582 64.513 82.5014L63.5561 81.7664Z" fill="white"/>
</g>
<path fill-rule="evenodd" clip-rule="evenodd" d="M62.54 90.6497L62.7651 87.6625C62.7651 87.6625 60.1819 86.5142 59.2991 85.1898C59.2991 85.1898 58.3332 85.7683 58.5205 86.8441C58.5205 86.8441 59.2938 88.2118 60.2574 88.5479C60.0863 88.9668 60.0067 89.4174 60.024 89.8695C60.0412 90.3217 60.155 90.7649 60.3576 91.1695C60.5328 91.2863 60.7301 91.3657 60.9374 91.4028C61.1446 91.4399 61.3573 91.4339 61.5621 91.3851C61.7669 91.3363 61.9594 91.2458 62.1277 91.1193C62.296 90.9927 62.4363 90.8329 62.54 90.6497Z" fill="url(#paint30_linear_595_12489)"/>
<path fill-rule="evenodd" clip-rule="evenodd" d="M56.1075 85.8866C55.5509 86.3197 55.5223 86.6431 55.6132 87.1916L56.0971 87.824L55.8374 91.0129L55.2954 91.1635C55.1793 91.3792 55.1133 91.6183 55.1022 91.8631C55.0911 92.1078 55.1352 92.3519 55.2313 92.5773C56.1046 92.8429 57.0324 92.874 57.9216 92.6675C58.0552 92.1669 58.0662 91.6414 57.9536 91.1356L58.8311 91.0695C58.8311 91.0695 59.3919 89.9198 58.9138 87.8336L58.53 87.6757C58.53 87.6757 59.3268 86.8508 58.8692 85.9374L56.1075 85.8866Z" fill="url(#paint31_linear_595_12489)"/>
<path style="mix-blend-mode:multiply" opacity="0.74" fill-rule="evenodd" clip-rule="evenodd" d="M56.0971 87.8243L58.53 87.6759L55.8578 87.5113L56.0971 87.8243Z" fill="url(#paint32_linear_595_12489)"/>
<path style="mix-blend-mode:multiply" opacity="0.74" fill-rule="evenodd" clip-rule="evenodd" d="M57.976 91.2686L55.8372 91.0127L58.8311 91.0695L57.976 91.2686Z" fill="url(#paint33_linear_595_12489)"/>
<path opacity="0.55" fill-rule="evenodd" clip-rule="evenodd" d="M79.0828 100.668C75.5007 100.302 74.3714 97.125 74.2696 94.011C74.1719 91.1429 74.9466 88.3263 75.464 87.79C76.3276 86.9037 82.2702 87.6229 85.4654 88.7937C86.3867 89.1269 87.0801 89.5031 87.3608 89.887C88.6202 91.6003 85.964 101.374 79.0828 100.668Z" fill="url(#paint34_radial_595_12489)"/>
<path opacity="0.55" fill-rule="evenodd" clip-rule="evenodd" d="M98.1289 104.749C95.0456 104.402 93.5956 102.333 93.0385 99.9349C92.2357 96.5001 93.264 92.3995 93.9457 91.7498C94.8789 90.8653 101.473 91.7286 104.949 92.9771C105.906 93.3267 106.626 93.6999 106.93 94.0799C108.327 95.8229 105.625 105.587 98.1289 104.749Z" fill="url(#paint35_radial_595_12489)"/>
<path fill-rule="evenodd" clip-rule="evenodd" d="M107.192 94.6733C107.192 94.6733 113.432 97.633 114.105 98.5744C114.778 99.5157 114.31 101.527 114.31 101.527L113.648 101.385C113.648 101.385 114.211 99.778 113.643 99.027C113.075 98.2759 111.692 98.6084 111.692 98.6084L107.196 96.6124C107.196 96.6124 107.454 95.2684 107.192 94.6733Z" fill="url(#paint36_linear_595_12489)"/>
<path fill-rule="evenodd" clip-rule="evenodd" d="M79.0842 100.667C79.0842 100.667 81.9541 101.546 85.231 98.643C88.508 95.7399 88.5166 90.9515 88.4428 90.5947C88.369 90.238 86.4117 89.1931 86.4117 89.1931C86.4117 89.1931 87.3225 89.6906 87.4634 90.1172C87.6043 90.5438 87.4068 95.2235 84.9898 98.1166C82.603 100.974 79.0842 100.667 79.0842 100.667Z" fill="url(#paint37_radial_595_12489)"/>
<path fill-rule="evenodd" clip-rule="evenodd" d="M98.1307 104.752C98.1307 104.752 101.001 105.631 104.277 102.728C107.554 99.8252 107.596 94.8721 107.522 94.5153C107.448 94.1586 105.658 93.2623 105.658 93.2623C105.658 93.2623 106.511 93.6417 106.652 94.0683C106.793 94.4948 106.384 99.2526 104.036 102.202C101.438 105.466 98.1307 104.752 98.1307 104.752Z" fill="url(#paint38_radial_595_12489)"/>
<g style="mix-blend-mode:soft-light">
<path fill-rule="evenodd" clip-rule="evenodd" d="M85.4654 88.7937L74.2696 94.011C74.1719 91.1429 74.9466 88.3263 75.464 87.79C76.3276 86.9037 82.2702 87.6229 85.4654 88.7937Z" fill="white"/>
</g>
<g style="mix-blend-mode:soft-light">
<path fill-rule="evenodd" clip-rule="evenodd" d="M104.949 92.9771L93.0385 99.9349C92.2357 96.5001 93.264 92.3995 93.9457 91.7498C94.8789 90.8653 101.473 91.7286 104.949 92.9771Z" fill="white"/>
</g>
<path fill-rule="evenodd" clip-rule="evenodd" d="M86.7212 91.1709C86.7212 91.1709 90.6061 90.9165 93.9102 92.7129L93.7583 93.421C93.7583 93.421 91.0223 91.8495 86.6905 91.905L86.7212 91.1709Z" fill="url(#paint39_linear_595_12489)"/>
<path fill-rule="evenodd" clip-rule="evenodd" d="M61.0322 77.0469L63.8309 53.7774L63.286 52.3884L58.5197 47.8471L59.2856 46.5701L63.9013 51.8246L64.894 53.5568L61.8936 76.8854L61.0322 77.0469Z" fill="url(#paint40_radial_595_12489)"/>
<path fill-rule="evenodd" clip-rule="evenodd" d="M65.685 64.4427L60.3092 75.6959L60.0217 77.0355L61.0275 76.0322L66.4175 64.8331L65.685 64.4427Z" fill="url(#paint41_linear_595_12489)"/>
<path d="M72.2642 68.962C74.5949 66.6018 73.8453 62.0822 70.5898 58.8673C67.3342 55.6524 62.8056 54.9595 60.4749 57.3197C58.1441 59.6799 58.8938 64.1995 62.1493 67.4144C65.4048 70.6293 69.9334 71.3222 72.2642 68.962Z" fill="url(#paint42_radial_595_12489)"/>
<g style="mix-blend-mode:soft-light">
<path fill-rule="evenodd" clip-rule="evenodd" d="M59.7811 63.9619L68.1457 61.342L60.4748 57.3197C60.4748 57.3197 58.0377 59.288 59.7811 63.9619Z" fill="white"/>
</g>
<g style="mix-blend-mode:soft-light">
<path fill-rule="evenodd" clip-rule="evenodd" d="M64.6129 55.9392L68.1458 61.3421L60.4749 57.3197C60.4749 57.3197 61.8078 55.7529 64.6129 55.9392Z" fill="#C2A9A9"/>
</g>
<g style="mix-blend-mode:multiply" opacity="0.74">
<path fill-rule="evenodd" clip-rule="evenodd" d="M71.7497 69.4059L68.1458 61.3418L73.4787 65.2086C73.5619 65.9968 73.4474 66.7933 73.1456 67.5261C72.8437 68.259 72.364 68.905 71.7497 69.4059Z" fill="#D4A998"/>
</g>
<path fill-rule="evenodd" clip-rule="evenodd" d="M68.6966 61.094C69.0116 61.4052 69.0868 61.84 68.8644 62.0653C68.6419 62.2905 68.2062 62.2209 67.8911 61.9098C67.576 61.5986 67.5009 61.1638 67.7233 60.9385C67.9457 60.7133 68.3815 60.7829 68.6966 61.094Z" fill="url(#paint43_radial_595_12489)"/>
<defs>
<filter id="filter0_f_595_12489" x="0.795898" y="0.467773" width="177" height="190" filterUnits="userSpaceOnUse" color-interpolation-filters="sRGB">
<feFlood flood-opacity="0" result="BackgroundImageFix"/>
<feBlend mode="normal" in="SourceGraphic" in2="BackgroundImageFix" result="shape"/>
<feGaussianBlur stdDeviation="30" result="effect1_foregroundBlur_595_12489"/>
</filter>
<linearGradient id="paint0_linear_595_12489" x1="67.5041" y1="98.3595" x2="69.6964" y2="88.1411" gradientUnits="userSpaceOnUse">
<stop offset="0.00559" stop-color="#E4798B"/>
<stop offset="0.24664" stop-color="#ED877F"/>
<stop offset="0.7018" stop-color="#FA9C6D"/>
<stop offset="1" stop-color="#FFA466"/>
</linearGradient>
<linearGradient id="paint1_linear_595_12489" x1="73.4998" y1="99.0192" x2="75.5636" y2="89.3997" gradientUnits="userSpaceOnUse">
<stop stop-color="#CA528D"/>
<stop offset="1" stop-color="#B3757C"/>
</linearGradient>
<linearGradient id="paint2_linear_595_12489" x1="59.4041" y1="92.9599" x2="58.8355" y2="86.4396" gradientUnits="userSpaceOnUse">
<stop offset="0.00559" stop-color="#E4798B"/>
<stop offset="0.24664" stop-color="#ED877F"/>
<stop offset="0.7018" stop-color="#FA9C6D"/>
<stop offset="1" stop-color="#FFA466"/>
</linearGradient>
<linearGradient id="paint3_linear_595_12489" x1="113.904" y1="95.6246" x2="103.843" y2="93.4661" gradientUnits="userSpaceOnUse">
<stop stop-color="#1A1C64"/>
<stop offset="0.99441" stop-color="#640B92"/>
</linearGradient>
<radialGradient id="paint4_radial_595_12489" cx="0" cy="0" r="1" gradientUnits="userSpaceOnUse" gradientTransform="translate(93.2373 77.8027) rotate(12.6302) scale(30.9013 30.9013)">
<stop offset="0.00559" stop-color="#B600B1"/>
<stop offset="0.2165" stop-color="#B300B0"/>
<stop offset="0.38031" stop-color="#A900AE"/>
<stop offset="0.52828" stop-color="#9900AB"/>
<stop offset="0.66693" stop-color="#8100A5"/>
<stop offset="0.79908" stop-color="#63009F"/>
<stop offset="0.92454" stop-color="#3F0097"/>
<stop offset="1" stop-color="#250091"/>
</radialGradient>
<radialGradient id="paint5_radial_595_12489" cx="0" cy="0" r="1" gradientUnits="userSpaceOnUse" gradientTransform="translate(87.0919 82.2875) rotate(12.6302) scale(30.9013 30.9013)">
<stop offset="0.00559" stop-color="#D408C2"/>
<stop offset="0.20877" stop-color="#D108C2"/>
<stop offset="0.36663" stop-color="#C708C1"/>
<stop offset="0.50923" stop-color="#B707BF"/>
<stop offset="0.64282" stop-color="#9F07BD"/>
<stop offset="0.77015" stop-color="#8106BA"/>
<stop offset="0.89104" stop-color="#5D05B6"/>
<stop offset="1" stop-color="#3504B2"/>
</radialGradient>
<linearGradient id="paint6_linear_595_12489" x1="87.1462" y1="133.029" x2="92.875" y2="122.906" gradientUnits="userSpaceOnUse">
<stop stop-color="#C9635C"/>
<stop offset="0.97069" stop-color="#C95B57"/>
<stop offset="0.99441" stop-color="#C95B57"/>
</linearGradient>
<linearGradient id="paint7_linear_595_12489" x1="82.6797" y1="130.55" x2="88.4616" y2="120.333" gradientUnits="userSpaceOnUse">
<stop stop-color="#FFA466"/>
<stop offset="0.2982" stop-color="#FA9C6D"/>
<stop offset="0.75336" stop-color="#ED877F"/>
<stop offset="0.99441" stop-color="#E4798B"/>
</linearGradient>
<linearGradient id="paint8_linear_595_12489" x1="108.279" y1="69.9037" x2="109.188" y2="65.6635" gradientUnits="userSpaceOnUse">
<stop stop-color="#E6179D"/>
<stop offset="0.21621" stop-color="#E91FA4"/>
<stop offset="0.54708" stop-color="#F134B7"/>
<stop offset="0.94954" stop-color="#FD57D7"/>
<stop offset="0.99441" stop-color="#FF5BDB"/>
</linearGradient>
<linearGradient id="paint9_linear_595_12489" x1="125.003" y1="99.73" x2="124.717" y2="88.9048" gradientUnits="userSpaceOnUse">
<stop stop-color="#FFA466"/>
<stop offset="0.2982" stop-color="#FA9C6D"/>
<stop offset="0.75336" stop-color="#ED877F"/>
<stop offset="0.99441" stop-color="#E4798B"/>
</linearGradient>
<radialGradient id="paint10_radial_595_12489" cx="0" cy="0" r="1" gradientUnits="userSpaceOnUse" gradientTransform="translate(111.432 69.9415) rotate(-167.891) scale(14.9917 14.9917)">
<stop offset="0.00559" stop-color="#F3008F"/>
<stop offset="0.27094" stop-color="#F00192"/>
<stop offset="0.47703" stop-color="#E6029A"/>
<stop offset="0.66313" stop-color="#D605A8"/>
<stop offset="0.83636" stop-color="#BF0ABB"/>
<stop offset="1" stop-color="#A10FD4"/>
</radialGradient>
<linearGradient id="paint11_linear_595_12489" x1="93.5963" y1="125.851" x2="82.5401" y2="119.594" gradientUnits="userSpaceOnUse">
<stop stop-color="#CA528D"/>
<stop offset="1" stop-color="#B3757C"/>
</linearGradient>
<linearGradient id="paint12_linear_595_12489" x1="104.565" y1="87.0302" x2="99.5158" y2="85.947" gradientUnits="userSpaceOnUse">
<stop offset="0.00559" stop-color="#430900"/>
<stop offset="0.37541" stop-color="#410803"/>
<stop offset="0.6625" stop-color="#39060D"/>
<stop offset="0.92102" stop-color="#2C021D"/>
<stop offset="1" stop-color="#270024"/>
</linearGradient>
<linearGradient id="paint13_linear_595_12489" x1="82.6323" y1="86.9592" x2="87.038" y2="87.9045" gradientUnits="userSpaceOnUse">
<stop offset="0.00559" stop-color="#430900"/>
<stop offset="0.37541" stop-color="#410803"/>
<stop offset="0.6625" stop-color="#39060D"/>
<stop offset="0.92102" stop-color="#2C021D"/>
<stop offset="1" stop-color="#270024"/>
</linearGradient>
<radialGradient id="paint14_radial_595_12489" cx="0" cy="0" r="1" gradientUnits="userSpaceOnUse" gradientTransform="translate(97.6181 66.9218) rotate(-167.891) scale(15.554)">
<stop offset="0.00559" stop-color="#FF0B70"/>
<stop offset="0.26469" stop-color="#FF0B73"/>
<stop offset="0.46593" stop-color="#FF0D7D"/>
<stop offset="0.64769" stop-color="#FF0F8D"/>
<stop offset="0.81786" stop-color="#FF12A5"/>
<stop offset="0.9787" stop-color="#FF15C2"/>
<stop offset="1" stop-color="#FF16C7"/>
</radialGradient>
<linearGradient id="paint15_linear_595_12489" x1="125.239" y1="96.8538" x2="125.132" y2="92.8378" gradientUnits="userSpaceOnUse">
<stop stop-color="#CA528D"/>
<stop offset="1" stop-color="#B3757C"/>
</linearGradient>
<radialGradient id="paint16_radial_595_12489" cx="0" cy="0" r="1" gradientUnits="userSpaceOnUse" gradientTransform="translate(97.3013 115.66) rotate(-167.891) scale(20.1386 20.1386)">
<stop offset="0.00559" stop-color="white"/>
<stop offset="0.19846" stop-color="#FDFCFC"/>
<stop offset="0.36286" stop-color="#F6F1F3"/>
<stop offset="0.51677" stop-color="#ECE0E5"/>
<stop offset="0.66431" stop-color="#DCC7D0"/>
<stop offset="0.80617" stop-color="#C9A7B6"/>
<stop offset="0.81844" stop-color="#C7A4B3"/>
<stop offset="0.86286" stop-color="#CEA4B4"/>
<stop offset="0.9271" stop-color="#E1A3B8"/>
<stop offset="1" stop-color="#FFA2BD"/>
</radialGradient>
<linearGradient id="paint17_linear_595_12489" x1="108.596" y1="120.365" x2="71.6416" y2="112.437" gradientUnits="userSpaceOnUse">
<stop stop-color="#CA528D"/>
<stop offset="1" stop-color="#DDC2C5"/>
</linearGradient>
<linearGradient id="paint18_linear_595_12489" x1="108.778" y1="119.042" x2="71.9209" y2="111.135" gradientUnits="userSpaceOnUse">
<stop stop-color="#CA528D"/>
<stop offset="1" stop-color="#B3757C"/>
</linearGradient>
<linearGradient id="paint19_linear_595_12489" x1="107.508" y1="124.782" x2="70.6878" y2="116.882" gradientUnits="userSpaceOnUse">
<stop stop-color="#CA528D"/>
<stop offset="1" stop-color="#DDC2C5"/>
</linearGradient>
<radialGradient id="paint20_radial_595_12489" cx="0" cy="0" r="1" gradientUnits="userSpaceOnUse" gradientTransform="translate(82.9273 93.8408) rotate(12.1088) scale(3.06782 3.06782)">
<stop offset="0.00559" stop-color="#3B1400"/>
<stop offset="0.37541" stop-color="#391203"/>
<stop offset="0.6625" stop-color="#340D0D"/>
<stop offset="0.92102" stop-color="#2B041D"/>
<stop offset="1" stop-color="#270024"/>
</radialGradient>
<radialGradient id="paint21_radial_595_12489" cx="0" cy="0" r="1" gradientUnits="userSpaceOnUse" gradientTransform="translate(98.1416 97.1041) rotate(12.1088) scale(3.06782 3.06782)">
<stop offset="0.00559" stop-color="#3B1400"/>
<stop offset="0.37541" stop-color="#391203"/>
<stop offset="0.6625" stop-color="#340D0D"/>
<stop offset="0.92102" stop-color="#2B041D"/>
<stop offset="1" stop-color="#270024"/>
</radialGradient>
<radialGradient id="paint22_radial_595_12489" cx="0" cy="0" r="1" gradientUnits="userSpaceOnUse" gradientTransform="translate(89.0956 100.961) rotate(12.1091) scale(3.46625 3.66567)">
<stop offset="0.00559" stop-color="white"/>
<stop offset="0.24154" stop-color="#FDFCFC"/>
<stop offset="0.44266" stop-color="#F6F1F3"/>
<stop offset="0.63096" stop-color="#ECE0E5"/>
<stop offset="0.81145" stop-color="#DCC7D0"/>
<stop offset="0.985" stop-color="#C9A7B6"/>
<stop offset="1" stop-color="#C7A4B3"/>
</radialGradient>
<radialGradient id="paint23_radial_595_12489" cx="0" cy="0" r="1" gradientUnits="userSpaceOnUse" gradientTransform="translate(86.0572 100.004) rotate(12.1088) scale(0.752574 0.75258)">
<stop offset="0.00559" stop-color="#3B1400"/>
<stop offset="0.37541" stop-color="#391203"/>
<stop offset="0.6625" stop-color="#340D0D"/>
<stop offset="0.92102" stop-color="#2B041D"/>
<stop offset="1" stop-color="#270024"/>
</radialGradient>
<radialGradient id="paint24_radial_595_12489" cx="0" cy="0" r="1" gradientUnits="userSpaceOnUse" gradientTransform="translate(92.0625 101.277) rotate(12.1088) scale(0.846699 0.846702)">
<stop offset="0.00559" stop-color="#3B1400"/>
<stop offset="0.37541" stop-color="#391203"/>
<stop offset="0.6625" stop-color="#340D0D"/>
<stop offset="0.92102" stop-color="#2B041D"/>
<stop offset="1" stop-color="#270024"/>
</radialGradient>
<radialGradient id="paint25_radial_595_12489" cx="0" cy="0" r="1" gradientUnits="userSpaceOnUse" gradientTransform="translate(88.8486 102.801) rotate(12.1088) scale(2.62942 2.62941)">
<stop offset="0.00559" stop-color="#95452C"/>
<stop offset="0.36" stop-color="#92422D"/>
<stop offset="0.63521" stop-color="#883A30"/>
<stop offset="0.88299" stop-color="#782B34"/>
<stop offset="1" stop-color="#6D2237"/>
</radialGradient>
<linearGradient id="paint26_linear_595_12489" x1="114.169" y1="106.973" x2="116.398" y2="96.5854" gradientUnits="userSpaceOnUse">
<stop offset="0.00559" stop-color="#E4798B"/>
<stop offset="0.24664" stop-color="#ED877F"/>
<stop offset="0.7018" stop-color="#FA9C6D"/>
<stop offset="1" stop-color="#FFA466"/>
</linearGradient>
<radialGradient id="paint27_radial_595_12489" cx="0" cy="0" r="1" gradientUnits="userSpaceOnUse" gradientTransform="translate(62.0102 75.427) rotate(10.8883) scale(7.85401)">
<stop offset="0.00559" stop-color="#E0E6FF"/>
<stop offset="0.26088" stop-color="#DFE3FC"/>
<stop offset="0.47839" stop-color="#DBDAF1"/>
<stop offset="0.68207" stop-color="#D6CBE0"/>
<stop offset="0.87621" stop-color="#CEB5C7"/>
<stop offset="1" stop-color="#C7A4B3"/>
</radialGradient>
<radialGradient id="paint28_radial_595_12489" cx="0" cy="0" r="1" gradientUnits="userSpaceOnUse" gradientTransform="translate(59.6093 89.2274) rotate(10.8883) scale(3.9553 3.95531)">
<stop offset="0.00559" stop-color="#E0E6FF"/>
<stop offset="0.26088" stop-color="#DFE3FC"/>
<stop offset="0.47839" stop-color="#DBDAF1"/>
<stop offset="0.68207" stop-color="#D6CBE0"/>
<stop offset="0.87621" stop-color="#CEB5C7"/>
<stop offset="1" stop-color="#C7A4B3"/>
</radialGradient>
<linearGradient id="paint29_linear_595_12489" x1="60.4471" y1="83.8685" x2="62.0447" y2="75.5634" gradientUnits="userSpaceOnUse">
<stop offset="0.00559" stop-color="#CE2E13"/>
<stop offset="0.36363" stop-color="#CB2E15"/>
<stop offset="0.64164" stop-color="#C1301C"/>
<stop offset="0.89194" stop-color="#B13227"/>
<stop offset="1" stop-color="#A7332D"/>
</linearGradient>
<linearGradient id="paint30_linear_595_12489" x1="61.0064" y1="91.4576" x2="60.451" y2="85.0893" gradientUnits="userSpaceOnUse">
<stop stop-color="#FFA466"/>
<stop offset="0.2982" stop-color="#FA9C6D"/>
<stop offset="0.75336" stop-color="#ED877F"/>
<stop offset="0.99441" stop-color="#E4798B"/>
</linearGradient>
<linearGradient id="paint31_linear_595_12489" x1="55.1193" y1="88.854" x2="59.1827" y2="89.7255" gradientUnits="userSpaceOnUse">
<stop offset="0.00559" stop-color="#E4798B"/>
<stop offset="0.24664" stop-color="#ED877F"/>
<stop offset="0.7018" stop-color="#FA9C6D"/>
<stop offset="1" stop-color="#FFA466"/>
</linearGradient>
<linearGradient id="paint32_linear_595_12489" x1="57.2111" y1="87.7909" x2="57.1767" y2="87.3965" gradientUnits="userSpaceOnUse">
<stop stop-color="#CA528D"/>
<stop offset="1" stop-color="#B3757C"/>
</linearGradient>
<linearGradient id="paint33_linear_595_12489" x1="57.3587" y1="91.3224" x2="57.3204" y2="90.8835" gradientUnits="userSpaceOnUse">
<stop stop-color="#CA528D"/>
<stop offset="1" stop-color="#B3757C"/>
</linearGradient>
<radialGradient id="paint34_radial_595_12489" cx="0" cy="0" r="1" gradientUnits="userSpaceOnUse" gradientTransform="translate(81.0038 91.0217) rotate(12.1088) scale(8.79118 8.79118)">
<stop offset="0.00559" stop-color="#FFD700"/>
<stop offset="0.19978" stop-color="#FED400"/>
<stop offset="0.36531" stop-color="#FBC900"/>
<stop offset="0.52029" stop-color="#F6B800"/>
<stop offset="0.66884" stop-color="#EF9F00"/>
<stop offset="0.81167" stop-color="#E67F00"/>
<stop offset="0.82402" stop-color="#E57C00"/>
<stop offset="0.85328" stop-color="#E27504"/>
<stop offset="0.8956" stop-color="#DA620E"/>
<stop offset="0.94564" stop-color="#CE431F"/>
<stop offset="0.95895" stop-color="#CA3924"/>
</radialGradient>
<radialGradient id="paint35_radial_595_12489" cx="0" cy="0" r="1" gradientUnits="userSpaceOnUse" gradientTransform="translate(100.034 95.0975) rotate(12.1088) scale(9.05484 9.05485)">
<stop offset="0.00559" stop-color="#FFD700"/>
<stop offset="0.19978" stop-color="#FED400"/>
<stop offset="0.36531" stop-color="#FBC900"/>
<stop offset="0.52029" stop-color="#F6B800"/>
<stop offset="0.66884" stop-color="#EF9F00"/>
<stop offset="0.81167" stop-color="#E67F00"/>
<stop offset="0.82402" stop-color="#E57C00"/>
<stop offset="0.85328" stop-color="#E27504"/>
<stop offset="0.8956" stop-color="#DA620E"/>
<stop offset="0.94564" stop-color="#CE431F"/>
<stop offset="0.95895" stop-color="#CA3924"/>
</radialGradient>
<linearGradient id="paint36_linear_595_12489" x1="106.635" y1="97.2119" x2="114.846" y2="98.9734" gradientUnits="userSpaceOnUse">
<stop offset="0.03373" stop-color="#DFCCDC"/>
<stop offset="0.27182" stop-color="#9680B7"/>
<stop offset="1" stop-color="#CFCFCF"/>
</linearGradient>
<radialGradient id="paint37_radial_595_12489" cx="0" cy="0" r="1" gradientUnits="userSpaceOnUse" gradientTransform="translate(84.6008 92.0648) rotate(12.1088) scale(7.57076 7.57077)">
<stop offset="0.00559" stop-color="#FFD700"/>
<stop offset="0.19978" stop-color="#FED400"/>
<stop offset="0.36531" stop-color="#FBC900"/>
<stop offset="0.52029" stop-color="#F6B800"/>
<stop offset="0.66884" stop-color="#EF9F00"/>
<stop offset="0.81167" stop-color="#E67F00"/>
<stop offset="0.82402" stop-color="#E57C00"/>
<stop offset="0.85328" stop-color="#E27504"/>
<stop offset="0.8956" stop-color="#DA620E"/>
<stop offset="0.94564" stop-color="#CE431F"/>
<stop offset="0.95895" stop-color="#CA3924"/>
</radialGradient>
<radialGradient id="paint38_radial_595_12489" cx="0" cy="0" r="1" gradientUnits="userSpaceOnUse" gradientTransform="translate(103.655 96.1075) rotate(12.1088) scale(7.60025 7.60024)">
<stop offset="0.00559" stop-color="#FFD700"/>
<stop offset="0.19978" stop-color="#FED400"/>
<stop offset="0.36531" stop-color="#FBC900"/>
<stop offset="0.52029" stop-color="#F6B800"/>
<stop offset="0.66884" stop-color="#EF9F00"/>
<stop offset="0.81167" stop-color="#E67F00"/>
<stop offset="0.82402" stop-color="#E57C00"/>
<stop offset="0.85328" stop-color="#E27504"/>
<stop offset="0.8956" stop-color="#DA620E"/>
<stop offset="0.94564" stop-color="#CE431F"/>
<stop offset="0.95895" stop-color="#CA3924"/>
</radialGradient>
<linearGradient id="paint39_linear_595_12489" x1="86.6858" y1="91.2866" x2="93.8744" y2="92.8289" gradientUnits="userSpaceOnUse">
<stop offset="0.03373" stop-color="#DFCCDC"/>
<stop offset="0.27182" stop-color="#9680B7"/>
<stop offset="1" stop-color="#CFCFCF"/>
</linearGradient>
<radialGradient id="paint40_radial_595_12489" cx="0" cy="0" r="1" gradientUnits="userSpaceOnUse" gradientTransform="translate(59.7161 56.4765) rotate(12.1088) scale(15.4254 15.4254)">
<stop offset="0.00559" stop-color="#DBE0FF"/>
<stop offset="0.26088" stop-color="#DADDFC"/>
<stop offset="0.47839" stop-color="#D7D5F1"/>
<stop offset="0.68207" stop-color="#D3C7E0"/>
<stop offset="0.87621" stop-color="#CCB4C7"/>
<stop offset="1" stop-color="#C7A4B3"/>
</radialGradient>
<linearGradient id="paint41_linear_595_12489" x1="61.4297" y1="70.4291" x2="65.041" y2="71.2039" gradientUnits="userSpaceOnUse">
<stop stop-color="#934A38"/>
<stop offset="0.25413" stop-color="#9B4C3C"/>
<stop offset="0.64194" stop-color="#B05349"/>
<stop offset="0.99441" stop-color="#C95B57"/>
</linearGradient>
<radialGradient id="paint42_radial_595_12489" cx="0" cy="0" r="1" gradientUnits="userSpaceOnUse" gradientTransform="translate(68.3785 60.1818) rotate(-45.3596) scale(7.23516 7.23515)">
<stop offset="0.00559" stop-color="#FFD700"/>
<stop offset="0.258" stop-color="#FCD500"/>
<stop offset="0.47307" stop-color="#F1CE00"/>
<stop offset="0.67448" stop-color="#E0C200"/>
<stop offset="0.86637" stop-color="#C7B100"/>
<stop offset="1" stop-color="#B1A200"/>
</radialGradient>
<radialGradient id="paint43_radial_595_12489" cx="0" cy="0" r="1" gradientUnits="userSpaceOnUse" gradientTransform="translate(68.2938 61.5019) rotate(-45.3594) scale(0.696946 0.696948)">
<stop offset="0.00559" stop-color="#842A2C"/>
<stop offset="0.31732" stop-color="#81282D"/>
<stop offset="0.55934" stop-color="#77232F"/>
<stop offset="0.77792" stop-color="#671B32"/>
<stop offset="0.98156" stop-color="#4F0E37"/>
<stop offset="1" stop-color="#4D0D37"/>
</radialGradient>
</defs>
</svg>
