<svg width="97" height="97" viewBox="0 0 97 97" fill="none" xmlns="http://www.w3.org/2000/svg">
<path fill-rule="evenodd" clip-rule="evenodd" d="M60.014 30.1707C56.6134 28.9627 48.0872 9.88749 40.8158 9.35152C35.8024 8.98193 35.5745 31.9244 32.5334 36.5617C29.4923 41.1991 9.72549 44.2242 8.23666 48.8937C6.74783 53.5632 29.0999 60.5482 30.3398 63.6659C31.5797 66.7836 30.1714 89.5131 34.3072 92.3504C38.4431 95.1878 53.665 75.403 56.0772 74.973C58.4894 74.5431 75.4031 83.0548 81.4651 80.335C87.5272 77.6151 74.2345 56.9945 74.7751 52.6768C75.3158 48.359 87.6802 37.7226 86.1707 31.7855C84.6611 25.8484 63.8032 31.5165 60.014 30.1707Z" fill="white"/>
<path fill-rule="evenodd" clip-rule="evenodd" d="M66.101 52.487C66.101 52.487 79.6352 72.8417 76.1279 74.3657C72.6293 75.8879 54.4615 68.2204 54.4615 68.2204C54.4615 68.2204 40.4381 84.2814 37.7305 83.2957C35.0293 82.2992 37.0828 59.2357 37.0828 59.2357C37.0828 59.2357 23.1091 53.9556 18.5966 50.6788C17.6044 49.9648 17.0699 49.343 17.2248 48.8913C18.1077 46.3811 38.5724 41.0927 38.5724 41.0927C38.5724 41.0927 39.4226 18.5641 42.9445 18.6991C46.1394 18.825 56.7583 36.8632 56.7583 36.8632C56.7583 36.8632 78.6646 31.9858 79.3565 34.4415C80.0393 36.8992 66.101 52.487 66.101 52.487Z" fill="url(#paint0_linear_591_115318)"/>
<g style="mix-blend-mode:soft-light">
<path fill-rule="evenodd" clip-rule="evenodd" d="M41.0228 29.247C41.0228 29.247 41.7677 20.9784 43.3077 20.4227C44.8477 19.867 55.3143 36.2444 55.3143 36.2444C55.3143 36.2444 46.1744 24.1708 44.5835 23.8847C42.9925 23.5986 41.0228 29.247 41.0228 29.247Z" fill="white"/>
</g>
<g style="mix-blend-mode:soft-light">
<path fill-rule="evenodd" clip-rule="evenodd" d="M56.9723 37.8276C60.7319 37.8668 64.4835 37.5338 68.1739 36.8333C70.4281 36.3397 72.6107 35.5618 74.6711 34.5176C74.6711 34.5176 62.7424 35.4116 56.9723 37.8276Z" fill="white"/>
</g>
<g style="mix-blend-mode:soft-light">
<path fill-rule="evenodd" clip-rule="evenodd" d="M18.1755 48.8642C18.1755 48.8642 36.095 43.6677 38.1207 42.1674C38.1207 42.1674 23.7957 44.2907 18.1755 48.8642Z" fill="white"/>
</g>
<path style="mix-blend-mode:multiply" opacity="0.58" fill-rule="evenodd" clip-rule="evenodd" d="M66.1011 52.487C66.1011 52.487 79.6352 72.8418 76.1279 74.3658C72.6294 75.888 54.4615 68.2204 54.4615 68.2204C54.4615 68.2204 40.4382 84.2815 37.7305 83.2957C35.0293 82.2993 37.0829 59.2357 37.0829 59.2357C37.0829 59.2357 23.1091 53.9557 18.5966 50.6788C18.5966 50.6788 31.5719 57.6931 39.7265 57.9502C39.7265 57.9502 35.9254 74.4961 39.6481 75.7746C43.3796 77.0512 52.1826 62.2137 52.1826 62.2137C52.1826 62.2137 67.5377 69.7608 70.6045 67.4606C73.6803 65.1584 64.2227 51.7148 64.2227 51.7148C64.2227 51.7148 77.5168 40.9811 79.3565 34.4416C80.0393 36.8992 66.1011 52.487 66.1011 52.487Z" fill="url(#paint1_linear_591_115318)"/>
<g style="mix-blend-mode:soft-light">
<path fill-rule="evenodd" clip-rule="evenodd" d="M54.7139 67.2285C54.7139 67.2285 69.5411 69.6866 72.5894 73.2136C72.5894 73.2136 59.0413 69.3865 54.7139 67.2285Z" fill="white"/>
</g>
<path fill-rule="evenodd" clip-rule="evenodd" d="M43.3077 20.4231C43.3077 20.4231 44.8778 25.9978 49.3763 27.396C49.3763 27.396 45.0866 20.816 43.3077 20.4231Z" fill="white"/>
<path fill-rule="evenodd" clip-rule="evenodd" d="M66.599 35.4731C69.3218 36.169 72.1935 35.829 74.671 34.5175C71.952 34.5391 69.2456 34.8595 66.599 35.4731Z" fill="white"/>
<defs>
<linearGradient id="paint0_linear_591_115318" x1="56.9271" y1="78.9722" x2="42.9048" y2="18.6786" gradientUnits="userSpaceOnUse">
<stop offset="0.03911" stop-color="#FF9800"/>
<stop offset="0.98289" stop-color="#FFC739"/>
</linearGradient>
<linearGradient id="paint1_linear_591_115318" x1="57.4185" y1="78.858" x2="48.7444" y2="41.561" gradientUnits="userSpaceOnUse">
<stop offset="0.00559" stop-color="#F759AC"/>
<stop offset="1" stop-color="white"/>
</linearGradient>
</defs>
</svg>
