<svg width="129" height="120" viewBox="0 0 129 120" fill="none" xmlns="http://www.w3.org/2000/svg">
<path d="M114.562 108.761L104.354 102.715L105.357 101.007L115.565 107.053L114.562 108.761ZM99.2497 99.6913L89.0416 93.6452L90.0446 91.9366L100.253 97.9829L99.2497 99.6913ZM83.9375 90.6226L73.7296 84.5763L74.7326 82.8679L84.9406 88.9141L83.9375 90.6226ZM68.6255 81.5527L58.4174 75.5065L59.4204 73.798L69.6286 79.8443L68.6255 81.5527ZM53.3134 72.4838L43.1052 66.4376L44.1085 64.7293L54.3164 70.7754L53.3134 72.4838ZM38.0014 63.4141L27.7933 57.3677L28.7963 55.6594L39.0044 61.7055L38.0014 63.4141ZM22.6892 54.3452L12.4811 48.299L13.4843 46.5905L23.6922 52.6368L22.6892 54.3452ZM7.37723 45.2755L0.699097 41.3201V36.0719H2.67435V40.1869L8.38026 43.5669L7.37723 45.2755ZM2.67435 30.1216H0.699097V18.2209H2.67435V30.1216ZM2.67435 12.2705H0.699097V0.369873H2.67435V12.2705Z" fill="white"/>
<path d="M127.276 110.966C127.276 112.411 126.849 113.823 126.05 115.024C125.25 116.224 124.114 117.16 122.785 117.713C121.455 118.266 119.992 118.411 118.581 118.129C117.169 117.847 115.873 117.152 114.855 116.13C113.838 115.109 113.145 113.808 112.864 112.392C112.583 110.975 112.727 109.507 113.278 108.172C113.829 106.838 114.761 105.698 115.958 104.895C117.154 104.093 118.561 103.665 120 103.665C121.93 103.665 123.78 104.434 125.145 105.803C126.509 107.173 127.276 109.03 127.276 110.966Z" fill="#FFB000"/>
<path d="M120.001 120C118.221 120 116.481 119.471 115 118.478C113.52 117.486 112.367 116.075 111.685 114.425C111.004 112.775 110.826 110.958 111.173 109.206C111.52 107.454 112.377 105.844 113.636 104.581C114.894 103.318 116.498 102.457 118.243 102.109C119.989 101.76 121.799 101.939 123.443 102.622C125.088 103.306 126.494 104.464 127.483 105.949C128.472 107.434 129 109.18 129 110.967C128.997 113.362 128.048 115.658 126.361 117.351C124.674 119.045 122.387 119.997 120.001 120ZM120.001 105.396C118.903 105.396 117.829 105.722 116.916 106.334C116.003 106.947 115.291 107.817 114.871 108.835C114.451 109.853 114.341 110.974 114.555 112.055C114.769 113.135 115.298 114.128 116.074 114.908C116.851 115.687 117.84 116.218 118.917 116.433C119.994 116.648 121.11 116.537 122.125 116.115C123.139 115.694 124.006 114.979 124.616 114.063C125.226 113.146 125.552 112.069 125.552 110.967C125.55 109.49 124.965 108.074 123.924 107.029C122.883 105.985 121.472 105.397 120.001 105.396Z" fill="white"/>
</svg>
