<svg width="220" height="51" viewBox="0 0 220 51" fill="none" xmlns="http://www.w3.org/2000/svg">
<path d="M1.08162 50.24L0 48.4828L7.45605 43.9984L8.53761 45.7556L1.08162 50.24ZM13.8708 42.5466L12.7891 40.7895L23.4596 34.3723L24.5413 36.1295L13.8708 42.5466ZM29.8745 32.9203L28.7928 31.1631L39.4633 24.7449L40.545 26.5021L29.8745 32.9203ZM45.8802 23.2942L44.7986 21.537L55.467 15.1188L56.5488 16.876L45.8802 23.2942ZM61.884 13.6668L60.8022 11.9096L66.9489 8.21265L72.831 8.23177L72.8229 10.2882L67.5304 10.2711L61.884 13.6668ZM203.992 10.7229L191.5 10.6817L191.508 8.62536L204 8.66649L203.992 10.7229ZM185.253 10.6606L172.761 10.6194L172.769 8.56305L185.262 8.60418L185.253 10.6606ZM166.515 10.5983L154.023 10.5571L154.031 8.50074L166.523 8.54187L166.515 10.5983ZM147.777 10.5372L135.284 10.4948L135.292 8.43843L147.785 8.4808L147.777 10.5372ZM129.038 10.4749L116.546 10.4337L116.554 8.37736L129.046 8.41849L129.038 10.4749ZM110.3 10.4126L97.8075 10.3714L97.8156 8.31506L110.308 8.35618L110.3 10.4126ZM91.5613 10.3503L79.0691 10.3091L79.0772 8.25275L91.5695 8.29388L91.5613 10.3503Z" fill="white"/>
<path d="M211.002 16.4947C215.02 16.4947 218.278 13.235 218.278 9.21401C218.278 5.19301 215.02 1.93335 211.002 1.93335C206.983 1.93335 203.726 5.19301 203.726 9.21401C203.726 13.235 206.983 16.4947 211.002 16.4947Z" fill="#FFB000"/>
<path d="M211.003 18.2192C209.223 18.2198 207.482 17.6921 206.002 16.7029C204.522 15.7137 203.368 14.3074 202.686 12.6619C202.004 11.0164 201.826 9.20561 202.173 7.45849C202.519 5.71137 203.376 4.10643 204.635 2.84662C205.893 1.58681 207.497 0.728732 209.242 0.380899C210.988 0.0330654 212.798 0.211095 214.443 0.892486C216.087 1.57388 217.493 2.72803 218.482 4.20896C219.472 5.68989 220 7.43106 220 9.21233C219.997 11.5997 219.049 13.8885 217.362 15.577C215.675 17.2655 213.388 18.2157 211.003 18.2192ZM211.003 3.65791C209.905 3.65737 208.831 3.98274 207.917 4.5929C207.004 5.20306 206.292 6.07057 205.871 7.08571C205.451 8.10085 205.34 9.21802 205.554 10.2959C205.768 11.3738 206.297 12.3639 207.074 13.1411C207.85 13.9183 208.839 14.4476 209.916 14.662C210.994 14.8765 212.11 14.7665 213.125 14.3459C214.139 13.9254 215.006 13.2131 215.616 12.2994C216.227 11.3856 216.552 10.3113 216.552 9.21233C216.55 7.74015 215.964 6.32885 214.924 5.28771C213.884 4.24656 212.474 3.6605 211.003 3.65791Z" fill="white"/>
</svg>
