<svg width="154" height="33" viewBox="0 0 154 33" fill="none" xmlns="http://www.w3.org/2000/svg">
<path d="M110.316 32.4789H102.782V30.6022H109.765L113.046 28.5514L114.065 30.135L110.316 32.4789ZM97.0719 32.4789H85.6517V30.6022H97.0719V32.4789ZM79.9416 32.4789H68.5213V30.6022H79.9416V32.4789ZM62.8112 32.4789H51.391V30.6022H62.8112V32.4789ZM45.6809 32.4789H34.2607V30.6022H45.6809V32.4789ZM28.5506 32.4789H17.1303V30.6022H28.5506V32.4789ZM11.4202 32.4789H0V30.6022H11.4202V32.4789ZM118.887 27.1201L117.869 25.5367L127.514 19.5072L128.532 21.0905L118.887 27.1201ZM133.355 18.0777L132.336 16.4942L141.981 10.4646L143 12.0482L133.355 18.0777Z" fill="white"/>
<path d="M151.831 9.01869C151.831 10.4588 151.404 11.8665 150.604 13.0639C149.805 14.2612 148.668 15.1944 147.339 15.7455C146.009 16.2966 144.546 16.4408 143.135 16.1598C141.723 15.8789 140.427 15.1855 139.409 14.1672C138.391 13.1489 137.698 11.8515 137.418 10.4391C137.137 9.02668 137.281 7.56261 137.832 6.23215C138.382 4.90168 139.315 3.76454 140.512 2.96445C141.708 2.16437 143.115 1.73734 144.554 1.7373C145.51 1.73729 146.456 1.92562 147.339 2.29154C148.222 2.65746 149.024 3.19375 149.699 3.86989C150.375 4.54603 150.911 5.34873 151.277 6.23215C151.643 7.11557 151.831 8.06249 151.831 9.01869Z" fill="#FFB000"/>
<path d="M144.554 18.0251C142.774 18.0248 141.034 17.4963 139.554 16.5064C138.074 15.5165 136.921 14.1098 136.24 12.4641C135.559 10.8183 135.381 9.00748 135.729 7.2606C136.076 5.51371 136.934 3.90926 138.193 2.65002C139.452 1.39078 141.055 0.533303 142.801 0.186139C144.547 -0.161025 146.357 0.0176925 148.001 0.699619C149.646 1.38154 151.051 2.53606 152.04 4.01723C153.028 5.4984 153.556 7.23964 153.556 9.02081C153.552 11.4085 152.603 13.6976 150.915 15.3856C149.228 17.0737 146.94 18.0229 144.554 18.0251ZM144.554 3.46415C143.456 3.46453 142.383 3.79061 141.47 4.40118C140.557 5.01175 139.846 5.87943 139.426 6.89444C139.006 7.90945 138.896 9.02627 139.111 10.1037C139.325 11.1811 139.854 12.1708 140.63 12.9475C141.406 13.7243 142.396 14.2533 143.472 14.4676C144.549 14.682 145.665 14.5721 146.679 14.1518C147.694 13.7315 148.561 13.0198 149.171 12.1065C149.781 11.1932 150.107 10.1194 150.107 9.02081C150.106 7.5475 149.52 6.13502 148.479 5.09326C147.438 4.05151 146.026 3.46562 144.554 3.46415Z" fill="white"/>
</svg>
