<svg width="129" height="102" viewBox="0 0 129 102" fill="none" xmlns="http://www.w3.org/2000/svg">
<path d="M14.4383 90.7615L24.6462 84.7151L23.6432 83.0068L13.4353 89.053L14.4383 90.7615ZM29.7503 81.6916L39.9584 75.6455L38.9554 73.9369L28.7473 79.9833L29.7503 81.6916ZM45.0625 72.6229L55.2704 66.5766L54.2674 64.8682L44.0594 70.9144L45.0625 72.6229ZM60.3745 63.553L70.5826 57.5069L69.5796 55.7983L59.3714 61.8446L60.3745 63.553ZM75.6866 54.4841L85.8948 48.438L84.8915 46.7296L74.6836 52.7757L75.6866 54.4841ZM90.9986 45.4144L101.207 39.3681L100.204 37.6597L89.9956 43.7058L90.9986 45.4144ZM106.311 36.3455L116.519 30.2993L115.516 28.5908L105.308 34.6371L106.311 36.3455ZM121.623 27.2758L128.301 23.3204V18.0722H126.326V22.1872L120.62 25.5672L121.623 27.2758ZM126.326 12.1219H128.301V0.221191H126.326V12.1219Z" fill="white"/>
<path d="M1.72405 92.9662C1.72398 94.4105 2.15062 95.8224 2.95007 97.0233C3.74951 98.2242 4.88588 99.1602 6.21537 99.7129C7.54487 100.266 9.0078 100.41 10.4192 100.129C11.8306 99.8469 13.1271 99.1514 14.1447 98.1302C15.1623 97.109 15.8553 95.8079 16.136 94.3914C16.4168 92.9748 16.2728 91.5066 15.7221 90.1722C15.1714 88.8379 14.2388 87.6974 13.0423 86.895C11.8458 86.0926 10.4391 85.6643 8.99999 85.6643C7.07035 85.6643 5.21969 86.4336 3.85519 87.803C2.4907 89.1723 1.72411 91.0296 1.72405 92.9662Z" fill="#FFB000"/>
<path d="M8.99928 102C10.7793 102 12.5194 101.471 13.9996 100.478C15.4797 99.4857 16.6333 98.0752 17.3146 96.4247C17.9959 94.7743 18.1743 92.9581 17.8272 91.2059C17.4801 89.4538 16.623 87.8442 15.3644 86.5809C14.1058 85.3176 12.5023 84.4572 10.7565 84.1085C9.0107 83.7598 7.2011 83.9386 5.55651 84.6221C3.91192 85.3057 2.50618 86.4633 1.51714 87.9486C0.528093 89.4339 0.000137329 91.1802 0 92.9667C0.00260925 95.3615 0.951523 97.6574 2.63862 99.3509C4.32571 101.044 6.6132 101.997 8.99928 102ZM8.99928 87.3955C10.0974 87.3953 11.1709 87.722 12.084 88.3342C12.9971 88.9464 13.7088 89.8166 14.1291 90.8348C14.5494 91.853 14.6594 92.9734 14.4452 94.0543C14.231 95.1352 13.7022 96.1281 12.9257 96.9074C12.1493 97.6867 11.16 98.2174 10.0829 98.4324C9.00591 98.6473 7.88958 98.5369 6.87508 98.1151C5.86058 97.6933 4.99352 96.979 4.38352 96.0626C3.77353 95.1462 3.44801 94.0688 3.44814 92.9667C3.44988 91.4897 4.03531 90.0736 5.07598 89.0292C6.11665 87.9848 7.52756 87.3972 8.99928 87.3955Z" fill="white"/>
</svg>
