<svg width="220" height="51" viewBox="0 0 220 51" fill="none" xmlns="http://www.w3.org/2000/svg">
<path d="M218.918 50.24L220 48.4828L212.544 43.9984L211.462 45.7556L218.918 50.24ZM206.129 42.5466L207.211 40.7895L196.54 34.3723L195.459 36.1295L206.129 42.5466ZM190.126 32.9203L191.207 31.1631L180.537 24.7449L179.455 26.5021L190.126 32.9203ZM174.12 23.2942L175.201 21.537L164.533 15.1188L163.451 16.876L174.12 23.2942ZM158.116 13.6668L159.198 11.9096L153.051 8.21265L147.169 8.23177L147.177 10.2882L152.47 10.2711L158.116 13.6668ZM16.0081 10.7229L28.5004 10.6817L28.4923 8.62536L16 8.66649L16.0081 10.7229ZM34.7466 10.6606L47.2388 10.6194L47.2307 8.56305L34.7384 8.60418L34.7466 10.6606ZM53.485 10.5983L65.9773 10.5571L65.9691 8.50074L53.4768 8.54187L53.485 10.5983ZM72.2234 10.5372L84.7157 10.4948L84.7076 8.43843L72.2153 8.4808L72.2234 10.5372ZM90.9618 10.4749L103.454 10.4337L103.446 8.37736L90.9537 8.41849L90.9618 10.4749ZM109.7 10.4126L122.193 10.3714L122.184 8.31506L109.692 8.35618L109.7 10.4126ZM128.439 10.3503L140.931 10.3091L140.923 8.25275L128.431 8.29388L128.439 10.3503Z" fill="white"/>
<path d="M8.99834 16.4947C4.97996 16.4947 1.72239 13.235 1.72239 9.21401C1.72239 5.19301 4.97996 1.93335 8.99834 1.93335C13.0167 1.93335 16.2743 5.19301 16.2743 9.21401C16.2743 13.235 13.0167 16.4947 8.99834 16.4947Z" fill="#FFB000"/>
<path d="M8.99728 18.2192C10.7774 18.2198 12.5177 17.6921 13.9981 16.7029C15.4785 15.7137 16.6324 14.3074 17.3141 12.6619C17.9957 11.0164 18.1743 9.20561 17.8275 7.45849C17.4806 5.71137 16.6238 4.10643 15.3653 2.84662C14.1069 1.58681 12.5034 0.728732 10.7576 0.380899C9.01172 0.0330654 7.20196 0.211095 5.55725 0.892486C3.91253 1.57388 2.50668 2.72803 1.51751 4.20896C0.528328 5.68989 0.000204086 7.43106 0 9.21233C0.00255394 11.5997 0.951231 13.8885 2.63788 15.577C4.32453 17.2655 6.61151 18.2157 8.99728 18.2192ZM8.99728 3.65791C10.0955 3.65737 11.1692 3.98274 12.0826 4.5929C12.996 5.20306 13.708 6.07057 14.1286 7.08571C14.5492 8.10085 14.6595 9.21802 14.4455 10.2959C14.2315 11.3738 13.7029 12.3639 12.9264 13.1411C12.15 13.9183 11.1607 14.4476 10.0836 14.662C9.00646 14.8765 7.88995 14.7665 6.87534 14.3459C5.86073 13.9254 4.99356 13.2131 4.38352 12.2994C3.77348 11.3856 3.44794 10.3113 3.44814 9.21233C3.45026 7.74015 4.03557 6.32885 5.07572 5.28771C6.11587 4.24656 7.52607 3.6605 8.99728 3.65791Z" fill="white"/>
</svg>
