<svg width="154" height="33" viewBox="0 0 154 33" fill="none" xmlns="http://www.w3.org/2000/svg">
<path d="M43.2391 32.4789H50.7735V30.6022H43.791L40.5094 28.5514L39.4909 30.135L43.2391 32.4789ZM56.4837 32.4789H67.9039V30.6022H56.4837V32.4789ZM73.614 32.4789H85.0342V30.6022H73.614V32.4789ZM90.7443 32.4789H102.165V30.6022H90.7443V32.4789ZM107.875 32.4789H119.295V30.6022H107.875V32.4789ZM125.005 32.4789H136.425V30.6022H125.005V32.4789ZM142.135 32.4789H153.556V30.6022H142.135V32.4789ZM34.6684 27.1201L35.6869 25.5367L26.0417 19.5072L25.0233 21.0905L34.6684 27.1201ZM20.2007 18.0777L21.2194 16.4942L11.5742 10.4646L10.5555 12.0482L20.2007 18.0777Z" fill="white"/>
<path d="M1.72484 9.01869C1.72486 10.4588 2.15168 11.8665 2.95124 13.0639C3.7508 14.2612 4.88721 15.1944 6.21681 15.7455C7.5464 16.2966 9.00946 16.4408 10.421 16.1598C11.8324 15.8789 13.1289 15.1855 14.1466 14.1672C15.1642 13.1489 15.8572 11.8515 16.138 10.4391C16.4188 9.02668 16.2747 7.56261 15.7239 6.23215C15.1732 4.90168 14.2406 3.76454 13.044 2.96445C11.8474 2.16437 10.4406 1.73734 9.00149 1.7373C8.0459 1.73729 7.09971 1.92562 6.21686 2.29154C5.33401 2.65746 4.53184 3.19375 3.85614 3.86989C3.18043 4.54603 2.64439 5.34873 2.27871 6.23215C1.91302 7.11557 1.72483 8.06249 1.72484 9.01869Z" fill="#FFB000"/>
<path d="M9.00189 18.0251C10.7819 18.0248 12.5218 17.4963 14.0016 16.5064C15.4815 15.5165 16.6348 14.1098 17.3156 12.4641C17.9965 10.8183 18.1743 9.00748 17.8267 7.2606C17.4791 5.51371 16.6217 3.90926 15.3628 2.65002C14.1038 1.39078 12.5001 0.533303 10.7542 0.186139C9.00829 -0.161025 7.19871 0.0176925 5.55431 0.699619C3.90991 1.38154 2.50453 2.53606 1.51587 4.01723C0.527203 5.4984 -0.000305176 7.23964 1.90735e-06 9.02081C0.00315094 11.4085 0.952692 13.6976 2.64029 15.3856C4.32789 17.0737 6.61572 18.0229 9.00189 18.0251ZM9.00189 3.46415C10.0997 3.46453 11.1728 3.79061 12.0854 4.40118C12.9981 5.01175 13.7094 5.87943 14.1293 6.89444C14.5493 7.90945 14.659 9.02627 14.4447 10.1037C14.2305 11.1811 13.7017 12.1708 12.9254 12.9475C12.1491 13.7243 11.16 14.2533 10.0833 14.4676C9.00654 14.682 7.89049 14.5721 6.87617 14.1518C5.86184 13.7315 4.99479 13.0198 4.38468 12.1065C3.77457 11.1932 3.44878 10.1194 3.44848 9.02081C3.45003 7.5475 4.03559 6.13502 5.07673 5.09326C6.11788 4.05151 7.52954 3.46562 9.00189 3.46415Z" fill="white"/>
</svg>
