<svg width="77" height="77" viewBox="0 0 77 77" fill="none" xmlns="http://www.w3.org/2000/svg">
<path fill-rule="evenodd" clip-rule="evenodd" d="M20.4429 40.1962C20.4429 40.1962 23.4808 45.6318 27.1321 45.3727C27.3092 45.3587 27.4823 45.3409 27.6509 45.3117C31.1295 44.7967 32.2811 41.7283 32.2811 41.7283L32.8611 39.6945C32.8611 39.6945 30.8154 42.4355 28.5497 43.2656L28.549 43.2679C27.9677 43.5014 27.3302 43.5583 26.7163 43.4317C23.8539 42.7647 21.8187 39.0065 21.8187 39.0065C21.8187 39.0065 20.7594 38.6242 20.4429 40.1962Z" fill="url(#paint0_linear_590_104152)"/>
<path style="mix-blend-mode:multiply" opacity="0.74" fill-rule="evenodd" clip-rule="evenodd" d="M27.6473 45.3102C31.1264 44.7951 32.2781 41.7264 32.2781 41.7264L32.8581 39.6924C32.8581 39.6924 30.8123 42.4337 28.5462 43.2639L28.5455 43.2662C28.3141 43.9754 28.0132 44.66 27.6473 45.3102Z" fill="url(#paint1_linear_590_104152)"/>
<path fill-rule="evenodd" clip-rule="evenodd" d="M17.9964 40.3864C18.8682 40.8968 19.902 41.0555 20.8864 40.8298L21.554 37.3555L19.3028 36.3985L17.9964 40.3864Z" fill="url(#paint2_linear_590_104152)"/>
<path fill-rule="evenodd" clip-rule="evenodd" d="M47.1333 62.7922L52.0164 64.1854C52.0164 64.1854 57.1476 48.5215 60.6462 28.8987C60.6462 28.8987 54.9965 24.1547 49.7381 22.6544L47.1333 62.7922Z" fill="url(#paint3_linear_590_104152)"/>
<path fill-rule="evenodd" clip-rule="evenodd" d="M47.1333 62.7922L52.0164 64.1854C52.0164 64.1854 57.1476 48.5215 60.6462 28.8987C60.6462 28.8987 54.9965 24.1547 49.7381 22.6544L47.1333 62.7922Z" fill="url(#paint4_radial_590_104152)"/>
<path fill-rule="evenodd" clip-rule="evenodd" d="M47.1343 62.7924C47.1343 62.7924 54.1137 42.3771 56.5466 27.357C56.5466 27.357 51.0383 19.3355 39.4856 22.862C39.4856 22.862 30.5462 40.1012 26.9177 56.7185C26.9177 56.7185 34.6682 63.3577 47.1343 62.7924Z" fill="url(#paint5_radial_590_104152)"/>
<path fill-rule="evenodd" clip-rule="evenodd" d="M26.9219 56.7217C26.9219 56.7217 38.2086 66.112 52.0161 64.1861L47.1343 62.7934C47.1343 62.7934 40.4218 62.7347 37.1349 61.6106C33.5533 60.3802 30.1261 58.7396 26.9219 56.7217Z" fill="#24000A"/>
<path fill-rule="evenodd" clip-rule="evenodd" d="M42.6379 63.8884C42.6379 63.8884 39.345 71.6667 35.9952 69.1835L41.384 63.5306L42.6379 63.8884Z" fill="url(#paint6_linear_590_104152)"/>
<path fill-rule="evenodd" clip-rule="evenodd" d="M41.5139 63.1085C41.5139 63.1085 38.8017 70.2851 36.0047 69.1839C33.2077 68.0826 35.036 59.8626 35.036 59.8626C35.036 59.8626 37.0355 59.986 41.5139 63.1085Z" fill="url(#paint7_linear_590_104152)"/>
<path fill-rule="evenodd" clip-rule="evenodd" d="M60.6481 28.8971L56.5486 27.3549C56.5486 27.3549 54.5482 24.2192 49.742 22.655C49.742 22.655 54.9538 24.0654 60.6481 28.8971Z" fill="url(#paint8_linear_590_104152)"/>
<path fill-rule="evenodd" clip-rule="evenodd" d="M62.5756 46.5782C62.3711 45.9025 62.687 44.9352 61.8141 43.8588C61.8141 43.8588 61.6484 43.1584 62.4504 42.9201C62.9499 43.3317 63.3447 43.8556 63.6026 44.4489C63.6026 44.4489 64.2465 42.8603 64.9664 41.1843C65.1347 41.144 65.31 41.1437 65.4785 41.1834C65.6469 41.2231 65.8037 41.3017 65.9363 41.4129L65.4136 43.3831L66.8508 41.4662C67.1353 41.4252 67.4247 41.4963 67.6578 41.6645C67.891 41.8326 68.0497 42.0846 68.1003 42.3673L67.3001 44.2252L68.0603 43.3751C68.0603 43.3751 68.7678 43.4511 68.582 44.1533L67.4267 45.8049C67.4267 45.8049 66.169 48.3285 64.1575 48.6368C64.1575 48.6368 62.7635 47.1991 62.5756 46.5782Z" fill="url(#paint9_linear_590_104152)"/>
<path fill-rule="evenodd" clip-rule="evenodd" d="M52.2037 46.2406C52.2037 46.2406 55.8909 32.1897 55.4182 27.6733C55.4182 27.6733 54.1938 24.5052 49.7383 22.6543C49.7383 22.6543 54.1656 23.9238 56.5465 27.3561C55.7639 33.7858 54.3084 40.1153 52.2037 46.2406Z" fill="url(#paint10_radial_590_104152)"/>
<g style="mix-blend-mode:soft-light" opacity="0.5">
<path fill-rule="evenodd" clip-rule="evenodd" d="M45.6096 22.0759L39.6144 38.0381L33.4164 36.2696C33.4164 36.2696 37.1169 26.9253 39.4897 22.8634C41.4305 22.0914 43.5353 21.8205 45.6096 22.0759Z" fill="#D2BDE1"/>
</g>
<path style="mix-blend-mode:multiply" opacity="0.74" fill-rule="evenodd" clip-rule="evenodd" d="M41.4426 66.1933L40.5801 65.4532L34.632 62.2928L35.0352 59.8628C37.1891 61.1575 39.007 61.8719 41.392 63.531L42.6458 63.8887L41.4426 66.1933Z" fill="url(#paint11_linear_590_104152)"/>
<path fill-rule="evenodd" clip-rule="evenodd" d="M51.1567 39.8186C51.1567 39.8186 50.4842 37.6421 48.2617 36.8789L47.983 37.8562C48.9966 38.2558 49.8775 38.932 50.5249 39.8075L51.1567 39.8186Z" fill="url(#paint12_linear_590_104152)"/>
<path fill-rule="evenodd" clip-rule="evenodd" d="M36.0486 38.4189C37.2155 38.4657 38.3794 38.2727 39.4681 37.8519L39.1894 38.8292C38.2506 39.0338 37.2785 39.0341 36.3392 38.8299L36.0486 38.4189Z" fill="url(#paint13_linear_590_104152)"/>
<g style="mix-blend-mode:soft-light">
<path fill-rule="evenodd" clip-rule="evenodd" d="M56.5501 27.3564L56.3387 29.1164L54.1836 25.0059C55.3642 25.6854 56.5501 27.3564 56.5501 27.3564Z" fill="white"/>
</g>
<path fill-rule="evenodd" clip-rule="evenodd" d="M49.1269 22.4875C49.1269 22.4875 43.9797 21.0189 39.9694 23.6179C39.9694 23.6179 34.891 31.5137 31.9711 40.079C31.9711 40.079 35.9242 29.1448 39.49 22.8633C39.49 22.8633 43.6914 21.1517 49.1269 22.4875Z" fill="url(#paint14_radial_590_104152)"/>
<g style="mix-blend-mode:soft-light" opacity="0.5">
<path fill-rule="evenodd" clip-rule="evenodd" d="M49.6941 54.81L27.393 54.6642L26.9184 56.7201C26.9184 56.7201 35.2191 63.8818 47.1322 62.7932C48.209 60.2088 49.0659 57.5383 49.6941 54.81Z" fill="#C2A9A9"/>
</g>
<path style="mix-blend-mode:multiply" opacity="0.5" fill-rule="evenodd" clip-rule="evenodd" d="M63.5973 44.4477C63.5973 44.4477 64.4516 45.248 64.659 46.2862C64.659 46.2862 65.5177 46.6834 66.1651 46.7221C66.8125 46.7608 67.1392 45.6766 67.1392 45.6766C67.1392 45.6766 66.6434 44.1057 64.352 43.8574L63.5973 44.4477Z" fill="url(#paint15_linear_590_104152)"/>
<path fill-rule="evenodd" clip-rule="evenodd" d="M53.8953 57.9393C53.8953 57.9393 52.6432 57.0834 51.0391 58.8216C49.4351 60.5598 48.099 59.9205 47.7999 59.3835C47.5007 58.8464 47.713 58.3377 47.4547 57.8227C47.1965 57.3078 44.2258 58.7079 38.7243 58.945C33.2228 59.182 32.4496 57.3268 31.8423 56.9815C31.2351 56.6361 31.14 58.5218 29.8369 58.216C28.5338 57.9103 29.5089 56.5308 29.1968 56.0976C28.8847 55.6644 26.9187 56.7195 26.9187 56.7195C26.9187 56.7195 31.3463 60.7538 39.0999 63.0309C46.8534 65.3079 52.0143 64.1852 52.0143 64.1852L53.8953 57.9393Z" fill="url(#paint16_radial_590_104152)"/>
<path style="mix-blend-mode:multiply" opacity="0.74" fill-rule="evenodd" clip-rule="evenodd" d="M48.1401 59.7259L47.1275 62.7914C47.1275 62.7914 37.5536 64.5473 26.9139 56.7185C26.9139 56.7185 30.7717 60.6546 39.715 63.2063C48.6584 65.7579 52.0096 64.1843 52.0096 64.1843L53.8906 57.9384C53.8906 57.9384 52.9024 57.1806 51.7362 58.1935C50.5698 59.2063 49.7722 60.0492 48.1401 59.7259Z" fill="url(#paint17_linear_590_104152)"/>
<path style="mix-blend-mode:multiply" opacity="0.74" fill-rule="evenodd" clip-rule="evenodd" d="M53.8312 57.9204C53.8312 57.9204 52.5811 57.5207 51.4828 58.7774C50.3845 60.0341 49.6548 61.1278 48.4447 60.8131C47.2347 60.4984 47.5109 58.2308 47.0887 57.9969C46.6666 57.763 41.3372 59.8888 37.5632 59.7556C33.7891 59.6224 32.2006 57.2942 31.7712 57.2581C31.3418 57.222 31.0006 58.501 30.2012 58.5342C29.2961 58.5718 28.8301 58.0556 28.8089 57.5636C28.7876 57.0716 29.2518 56.5016 29.0216 56.2512C28.7914 56.0008 26.9215 56.7194 26.9215 56.7194L26.9988 56.4484C26.9988 56.4484 28.7372 55.4926 29.305 55.8804C29.8728 56.2682 28.9499 57.2954 29.5753 57.6512C30.2007 58.0071 30.9318 57.1995 31.4689 56.5623C32.0059 55.9251 32.9671 57.9564 35.2879 58.2614C39.9337 58.872 46.9383 56.6742 47.6638 56.9243C48.3894 57.1743 47.3285 58.8933 49.0569 59.2897C50.1066 59.5304 52.0048 56.4744 53.8312 57.9204Z" fill="url(#paint18_linear_590_104152)"/>
<g style="mix-blend-mode:soft-light">
<path fill-rule="evenodd" clip-rule="evenodd" d="M37.4662 58.3647C37.4662 58.3647 35.499 58.4749 34.2166 57.9781C32.9341 57.4814 32.4258 56.8374 32.4258 56.8374C32.4258 56.8374 32.9201 57.1908 34.5489 57.7665C35.487 58.1071 36.4699 58.3087 37.4662 58.3647Z" fill="white"/>
</g>
<g style="mix-blend-mode:soft-light">
<path fill-rule="evenodd" clip-rule="evenodd" d="M40.3933 58.1304C40.3933 58.1304 38.7793 57.6067 38.366 58.3273C38.366 58.3273 39.9198 58.1944 40.3933 58.1304Z" fill="white"/>
</g>
<path style="mix-blend-mode:multiply" opacity="0.74" fill-rule="evenodd" clip-rule="evenodd" d="M52.0161 64.1861L47.1343 62.7934C47.1343 62.7934 43.9503 63.6619 37.3511 61.9086C30.7518 60.1553 26.9219 56.7217 26.9219 56.7217C26.9219 56.7217 31.3215 60.7156 38.5749 62.8825C47.816 65.6431 52.0161 64.1861 52.0161 64.1861Z" fill="url(#paint19_linear_590_104152)"/>
<g style="mix-blend-mode:soft-light">
<path fill-rule="evenodd" clip-rule="evenodd" d="M51.4805 57.9466C51.4805 57.9466 50.2329 59.1194 49.4055 59.2651C49.4055 59.2651 50.0497 57.9901 51.4805 57.9466Z" fill="white"/>
</g>
<path fill-rule="evenodd" clip-rule="evenodd" d="M33.0871 42.4546C33.0871 42.4546 36.2798 42.1193 38.7529 44.0711L38.8567 43.7072C38.8567 43.7072 36.4544 40.8029 33.1694 42.2012L33.0871 42.4546Z" fill="url(#paint20_radial_590_104152)"/>
<path fill-rule="evenodd" clip-rule="evenodd" d="M43.4895 45.4229C43.4895 45.4229 46.6822 45.0875 49.1553 47.0394L49.2591 46.6755C49.2591 46.6755 46.8568 43.7711 43.5718 45.1694L43.4895 45.4229Z" fill="url(#paint21_radial_590_104152)"/>
<path fill-rule="evenodd" clip-rule="evenodd" d="M37.7112 45.7307C36.9838 46.1173 37.6448 49.0152 39.5628 49.5625C41.7254 50.1795 43.1797 48.1367 43.2706 47.317C43.3615 46.4972 41.3278 46.7226 40.255 46.4165C39.1822 46.1105 38.3534 45.3895 37.7112 45.7307Z" fill="url(#paint22_radial_590_104152)"/>
<path fill-rule="evenodd" clip-rule="evenodd" d="M37.4258 46.5786C37.7102 47.0004 38.0656 47.2444 38.5597 47.5158C38.1862 47.4595 37.8278 47.3286 37.506 47.1309C37.4618 46.9497 37.4349 46.7648 37.4258 46.5786Z" fill="url(#paint23_radial_590_104152)"/>
<path fill-rule="evenodd" clip-rule="evenodd" d="M41.2639 48.2844C41.8187 48.3899 42.3915 48.343 42.9213 48.1487C42.8439 48.3185 42.73 48.4691 42.5875 48.5898C42.1373 48.5321 41.6939 48.4298 41.2639 48.2844Z" fill="url(#paint24_radial_590_104152)"/>
<path fill-rule="evenodd" clip-rule="evenodd" d="M37.7125 47.7457C37.7125 47.7457 38.1075 49.5966 39.4247 50.0495C40.7419 50.5025 42.3673 48.8236 42.3673 48.8236C42.3673 48.8236 40.8912 50.1049 39.565 49.5623C38.7468 49.202 38.0881 48.5561 37.7125 47.7457Z" fill="url(#paint25_radial_590_104152)"/>
<path fill-rule="evenodd" clip-rule="evenodd" d="M53.7622 47.4385C53.7622 47.4385 52.9302 46.9125 52.8805 48.6827C52.8805 48.6827 54.1453 52.326 56.8667 53.106C60.0823 54.0277 64.1547 48.638 64.1547 48.638L63.0595 47.2014C63.0595 47.2014 60.4848 51.1254 57.5812 51.0131C55.024 50.9142 53.7622 47.4385 53.7622 47.4385Z" fill="url(#paint26_linear_590_104152)"/>
<path fill-rule="evenodd" clip-rule="evenodd" d="M25.736 24.9613L27.3958 23.1475L24.1946 22.2197L20.9505 21.4561L21.5065 23.8514C21.5065 23.8514 18.4803 29.0825 18.3289 31.4536C18.1775 33.8247 20.6844 35.6064 20.6844 35.6064C20.6844 35.6064 23.7426 35.2851 24.7742 33.145C25.8058 31.0049 25.736 24.9613 25.736 24.9613Z" fill="url(#paint27_radial_590_104152)"/>
<path fill-rule="evenodd" clip-rule="evenodd" d="M19.7126 40.4342L21.5081 35.4455L20.0394 35.06L19.4345 40.3612L17.263 40.4766L17.161 40.8656L21.5014 42.0048L21.6366 41.4898L19.7126 40.4342Z" fill="url(#paint28_radial_590_104152)"/>
<path fill-rule="evenodd" clip-rule="evenodd" d="M18.8803 30.8098C18.8803 30.8098 18.2854 33.9861 20.9285 34.6798C23.043 35.2348 25.0786 33.0285 25.1648 29.7201C25.1648 29.7201 24.4461 30.4506 22.5681 30.5813C20.6902 30.7121 18.8803 30.8098 18.8803 30.8098Z" fill="url(#paint29_linear_590_104152)"/>
<path fill-rule="evenodd" clip-rule="evenodd" d="M18.8806 30.8088C18.8806 30.8088 22.5069 29.2762 25.1639 29.7198C25.1639 29.7198 24.6457 30.6213 23.2455 30.944C21.8452 31.2667 20.589 30.7094 18.8806 30.8088Z" fill="#F64A13"/>
<g style="mix-blend-mode:soft-light">
<path fill-rule="evenodd" clip-rule="evenodd" d="M21.8826 23.7189C21.8826 23.7189 18.5999 28.8804 18.5455 31.7793L20.1375 32.6029C20.1375 32.6029 21.5068 26.1691 23.0172 24.0986L21.8826 23.7189Z" fill="white"/>
</g>
<g style="mix-blend-mode:soft-light">
<path fill-rule="evenodd" clip-rule="evenodd" d="M23.2137 33.3708C23.672 32.6805 24.0384 31.9335 24.3037 31.1486L25.1944 31.1309C25.1944 31.1309 24.7578 33.2599 23.8439 33.9247L23.2137 33.3708Z" fill="white"/>
</g>
<path fill-rule="evenodd" clip-rule="evenodd" d="M22.0962 39.4787L22.3896 37.4193C22.3896 37.4193 20.6504 36.5035 20.0988 35.5447C20.0988 35.5447 19.4022 35.9007 19.4826 36.6548C19.4826 36.6548 19.9562 37.6385 20.6093 37.9162C20.4713 38.1985 20.3954 38.5071 20.3866 38.8212C20.3778 39.1353 20.4364 39.4477 20.5583 39.7375C20.6745 39.8266 20.8077 39.8908 20.9498 39.9261C21.0919 39.9615 21.2397 39.9672 21.384 39.9429C21.5283 39.9186 21.6661 39.8648 21.7886 39.785C21.9111 39.7051 22.0159 39.6009 22.0962 39.4787Z" fill="url(#paint30_linear_590_104152)"/>
<path fill-rule="evenodd" clip-rule="evenodd" d="M17.8617 35.8806C17.4556 36.1549 17.4209 36.3776 17.4588 36.7619L17.7654 37.2227L17.4387 39.4204L17.0557 39.4995C16.9653 39.6436 16.9085 39.8063 16.8896 39.9753C16.8706 40.1444 16.89 40.3156 16.9463 40.4763C17.54 40.7009 18.1822 40.7656 18.8086 40.6639C18.9243 40.3231 18.9561 39.9595 18.9012 39.6038L19.513 39.5988C19.513 39.5988 19.9549 38.8282 19.7191 37.3603L19.4601 37.233C19.4601 37.233 20.0508 36.6985 19.7753 36.0442L17.8617 35.8806Z" fill="url(#paint31_linear_590_104152)"/>
<path style="mix-blend-mode:multiply" opacity="0.74" fill-rule="evenodd" clip-rule="evenodd" d="M17.7598 37.2219L19.4541 37.2323L17.6082 36.994L17.7598 37.2219Z" fill="url(#paint32_linear_590_104152)"/>
<path style="mix-blend-mode:multiply" opacity="0.74" fill-rule="evenodd" clip-rule="evenodd" d="M18.9048 39.6967L17.4331 39.4199L19.507 39.5985L18.9048 39.6967Z" fill="url(#paint33_linear_590_104152)"/>
<path opacity="0.55" fill-rule="evenodd" clip-rule="evenodd" d="M33.1191 47.1878C30.6508 46.7677 30.0134 44.5139 30.0859 42.3515C30.1499 40.3596 30.8168 38.444 31.2004 38.0964C31.8402 37.5225 35.9297 38.2971 38.0925 39.2569C38.7163 39.5307 39.1801 39.8236 39.3572 40.1026C40.1522 41.3483 37.8604 47.9971 33.1191 47.1878Z" fill="url(#paint34_radial_590_104152)"/>
<path opacity="0.55" fill-rule="evenodd" clip-rule="evenodd" d="M46.1372 50.8994C44.0141 50.5159 43.1033 49.0147 42.827 47.3271C42.4279 44.9098 43.3296 42.1163 43.8323 41.6978C44.5203 41.1283 49.0549 42.0332 51.4089 43.06C52.0568 43.3468 52.5394 43.6388 52.7324 43.9163C53.6217 45.189 51.2987 51.8288 46.1372 50.8994Z" fill="url(#paint35_radial_590_104152)"/>
<path fill-rule="evenodd" clip-rule="evenodd" d="M52.8906 44.3389C52.8906 44.3389 57.0837 46.6798 57.5072 47.3633C57.9306 48.0468 57.5138 49.4185 57.5138 49.4185L57.0611 49.2893C57.0611 49.2893 57.5256 48.2022 57.1662 47.6554C56.8068 47.1086 55.8319 47.2747 55.8319 47.2747L52.805 45.6826C52.805 45.6826 53.0453 44.7634 52.8906 44.3389Z" fill="url(#paint36_linear_590_104152)"/>
<path fill-rule="evenodd" clip-rule="evenodd" d="M33.1213 47.1884C33.1213 47.1884 35.072 47.9311 37.4789 46.0718C39.8858 44.2125 40.1119 40.8947 40.077 40.6441C40.0422 40.3935 38.7322 39.5784 38.7322 39.5784C38.7322 39.5784 39.3413 39.9655 39.4195 40.2677C39.4976 40.5698 39.1456 43.8034 37.3357 45.6958C35.5485 47.5645 33.1213 47.1884 33.1213 47.1884Z" fill="url(#paint37_radial_590_104152)"/>
<path fill-rule="evenodd" clip-rule="evenodd" d="M46.1411 50.9019C46.1411 50.9019 48.0918 51.6446 50.4986 49.7853C52.9054 47.926 53.1618 44.4957 53.127 44.245C53.0921 43.9944 51.8913 43.29 51.8913 43.29C51.8913 43.29 52.4658 43.5926 52.5439 43.8948C52.622 44.1969 52.12 47.4748 50.3554 49.4093C48.4026 51.5502 46.1411 50.9019 46.1411 50.9019Z" fill="url(#paint38_radial_590_104152)"/>
<g style="mix-blend-mode:soft-light">
<path fill-rule="evenodd" clip-rule="evenodd" d="M38.0922 39.2571L30.0861 42.3513C30.15 40.3595 30.8168 38.444 31.2004 38.0964C31.8402 37.5225 35.9295 38.2972 38.0922 39.2571Z" fill="white"/>
</g>
<g style="mix-blend-mode:soft-light">
<path fill-rule="evenodd" clip-rule="evenodd" d="M51.4088 43.06L42.827 47.327C42.4279 44.9097 43.3296 42.1163 43.8323 41.6978C44.5203 41.1283 49.0549 42.0332 51.4088 43.06Z" fill="white"/>
</g>
<path fill-rule="evenodd" clip-rule="evenodd" d="M38.8493 40.961C38.8493 40.961 41.5556 40.9655 43.7649 42.3635L43.6271 42.8469C43.6271 42.8469 41.8015 41.6311 38.7943 41.4681L38.8493 40.961Z" fill="url(#paint39_linear_590_104152)"/>
<path fill-rule="evenodd" clip-rule="evenodd" d="M21.6823 29.9835L24.6934 13.9885L24.3791 13.0006L21.2808 9.63189L21.8708 8.78261L24.832 12.6385L25.4411 13.885L22.2873 29.9117L21.6823 29.9835Z" fill="url(#paint40_radial_590_104152)"/>
<path fill-rule="evenodd" clip-rule="evenodd" d="M25.4906 21.4649L21.2434 29.0131L20.9824 29.9281L21.7264 29.2796L25.9808 21.7695L25.4906 21.4649Z" fill="url(#paint41_linear_590_104152)"/>
<path d="M29.8479 24.9017C31.573 23.3745 31.2606 20.2077 29.1502 17.8283C27.0399 15.449 23.9306 14.7583 22.2055 16.2855C20.4805 17.8127 20.7928 20.9796 22.9032 23.3589C25.0136 25.7382 28.1228 26.429 29.8479 24.9017Z" fill="url(#paint42_radial_590_104152)"/>
<g style="mix-blend-mode:soft-light">
<path fill-rule="evenodd" clip-rule="evenodd" d="M21.4098 20.8557L27.3327 19.4296L22.196 16.2857C22.196 16.2857 20.415 17.5361 21.4098 20.8557Z" fill="white"/>
</g>
<g style="mix-blend-mode:soft-light">
<path fill-rule="evenodd" clip-rule="evenodd" d="M25.1357 15.5216L27.3382 19.4284L22.2022 16.2853C22.2022 16.2853 23.1986 15.2621 25.1357 15.5216Z" fill="#C2A9A9"/>
</g>
<g style="mix-blend-mode:multiply" opacity="0.74">
<path fill-rule="evenodd" clip-rule="evenodd" d="M29.4658 25.1851L27.3359 19.4297L30.858 22.3572C30.8796 22.9072 30.7636 23.4538 30.5205 23.9476C30.2774 24.4413 29.915 24.8667 29.4658 25.1851Z" fill="#D4A998"/>
</g>
<path fill-rule="evenodd" clip-rule="evenodd" d="M27.7265 19.2839C27.9307 19.5141 27.9629 19.8188 27.7983 19.9645C27.6337 20.1101 27.3347 20.0416 27.1304 19.8114C26.9261 19.5812 26.894 19.2765 27.0586 19.1309C27.2232 18.9852 27.5222 19.0537 27.7265 19.2839Z" fill="url(#paint43_radial_590_104152)"/>
<defs>
<linearGradient id="paint0_linear_590_104152" x1="25.1905" y1="45.0518" x2="27.1818" y2="38.0738" gradientUnits="userSpaceOnUse">
<stop offset="0.00559" stop-color="#E4798B"/>
<stop offset="0.24664" stop-color="#ED877F"/>
<stop offset="0.7018" stop-color="#FA9C6D"/>
<stop offset="1" stop-color="#FFA466"/>
</linearGradient>
<linearGradient id="paint1_linear_590_104152" x1="29.3158" y1="45.7863" x2="31.1906" y2="39.2166" gradientUnits="userSpaceOnUse">
<stop stop-color="#CA528D"/>
<stop offset="1" stop-color="#B3757C"/>
</linearGradient>
<linearGradient id="paint2_linear_590_104152" x1="19.8183" y1="40.9347" x2="19.7275" y2="36.39" gradientUnits="userSpaceOnUse">
<stop offset="0.00559" stop-color="#E4798B"/>
<stop offset="0.24664" stop-color="#ED877F"/>
<stop offset="0.7018" stop-color="#FA9C6D"/>
<stop offset="1" stop-color="#FFA466"/>
</linearGradient>
<linearGradient id="paint3_linear_590_104152" x1="57.4997" y1="45.3097" x2="50.6189" y2="43.3472" gradientUnits="userSpaceOnUse">
<stop stop-color="#1A1C64"/>
<stop offset="0.99441" stop-color="#640B92"/>
</linearGradient>
<radialGradient id="paint4_radial_590_104152" cx="0" cy="0" r="1" gradientUnits="userSpaceOnUse" gradientTransform="translate(43.9809 31.9989) rotate(16.4474) scale(21.4882 21.4589)">
<stop offset="0.00559" stop-color="#B600B1"/>
<stop offset="0.2165" stop-color="#B300B0"/>
<stop offset="0.38031" stop-color="#A900AE"/>
<stop offset="0.52828" stop-color="#9900AB"/>
<stop offset="0.66693" stop-color="#8100A5"/>
<stop offset="0.79908" stop-color="#63009F"/>
<stop offset="0.92454" stop-color="#3F0097"/>
<stop offset="1" stop-color="#250091"/>
</radialGradient>
<radialGradient id="paint5_radial_590_104152" cx="0" cy="0" r="1" gradientUnits="userSpaceOnUse" gradientTransform="translate(39.513 34.8221) rotate(16.4478) scale(21.4868 21.4584)">
<stop offset="0.00559" stop-color="#D408C2"/>
<stop offset="0.20877" stop-color="#D108C2"/>
<stop offset="0.36663" stop-color="#C708C1"/>
<stop offset="0.50923" stop-color="#B707BF"/>
<stop offset="0.64282" stop-color="#9F07BD"/>
<stop offset="0.77015" stop-color="#8106BA"/>
<stop offset="0.89104" stop-color="#5D05B6"/>
<stop offset="1" stop-color="#3504B2"/>
</radialGradient>
<linearGradient id="paint6_linear_590_104152" x1="37.2092" y1="69.9869" x2="41.6442" y2="63.2356" gradientUnits="userSpaceOnUse">
<stop stop-color="#C9635C"/>
<stop offset="0.97069" stop-color="#C95B57"/>
<stop offset="0.99441" stop-color="#C95B57"/>
</linearGradient>
<linearGradient id="paint7_linear_590_104152" x1="34.234" y1="68.0617" x2="38.7101" y2="61.248" gradientUnits="userSpaceOnUse">
<stop stop-color="#FFA466"/>
<stop offset="0.2982" stop-color="#FA9C6D"/>
<stop offset="0.75336" stop-color="#ED877F"/>
<stop offset="0.99441" stop-color="#E4798B"/>
</linearGradient>
<linearGradient id="paint8_linear_590_104152" x1="54.7823" y1="27.2233" x2="55.6082" y2="24.3288" gradientUnits="userSpaceOnUse">
<stop stop-color="#E6179D"/>
<stop offset="0.21621" stop-color="#E91FA4"/>
<stop offset="0.54708" stop-color="#F134B7"/>
<stop offset="0.94954" stop-color="#FD57D7"/>
<stop offset="0.99441" stop-color="#FF5BDB"/>
</linearGradient>
<linearGradient id="paint9_linear_590_104152" x1="65.0094" y1="48.6689" x2="65.3138" y2="41.1546" gradientUnits="userSpaceOnUse">
<stop stop-color="#FFA466"/>
<stop offset="0.2982" stop-color="#FA9C6D"/>
<stop offset="0.75336" stop-color="#ED877F"/>
<stop offset="0.99441" stop-color="#E4798B"/>
</linearGradient>
<radialGradient id="paint10_radial_590_104152" cx="0" cy="0" r="1" gradientUnits="userSpaceOnUse" gradientTransform="translate(56.9659 27.3975) rotate(-164.073) scale(10.4255 10.4107)">
<stop offset="0.00559" stop-color="#F3008F"/>
<stop offset="0.27094" stop-color="#F00192"/>
<stop offset="0.47703" stop-color="#E6029A"/>
<stop offset="0.66313" stop-color="#D605A8"/>
<stop offset="0.83636" stop-color="#BF0ABB"/>
<stop offset="1" stop-color="#A10FD4"/>
</radialGradient>
<linearGradient id="paint11_linear_590_104152" x1="42.0218" y1="65.313" x2="34.6431" y2="60.4586" gradientUnits="userSpaceOnUse">
<stop stop-color="#CA528D"/>
<stop offset="1" stop-color="#B3757C"/>
</linearGradient>
<linearGradient id="paint12_linear_590_104152" x1="51.4131" y1="38.9196" x2="47.9605" y2="37.9349" gradientUnits="userSpaceOnUse">
<stop offset="0.00559" stop-color="#430900"/>
<stop offset="0.37541" stop-color="#410803"/>
<stop offset="0.6625" stop-color="#39060D"/>
<stop offset="0.92102" stop-color="#2C021D"/>
<stop offset="1" stop-color="#270024"/>
</linearGradient>
<linearGradient id="paint13_linear_590_104152" x1="36.2061" y1="37.8529" x2="39.2187" y2="38.7121" gradientUnits="userSpaceOnUse">
<stop offset="0.00559" stop-color="#430900"/>
<stop offset="0.37541" stop-color="#410803"/>
<stop offset="0.6625" stop-color="#39060D"/>
<stop offset="0.92102" stop-color="#2C021D"/>
<stop offset="1" stop-color="#270024"/>
</linearGradient>
<radialGradient id="paint14_radial_590_104152" cx="0" cy="0" r="1" gradientUnits="userSpaceOnUse" gradientTransform="translate(47.5266 24.6651) rotate(-164.073) scale(10.8161 10.801)">
<stop offset="0.00559" stop-color="#FF0B70"/>
<stop offset="0.26469" stop-color="#FF0B73"/>
<stop offset="0.46593" stop-color="#FF0D7D"/>
<stop offset="0.64769" stop-color="#FF0F8D"/>
<stop offset="0.81786" stop-color="#FF12A5"/>
<stop offset="0.9787" stop-color="#FF15C2"/>
<stop offset="1" stop-color="#FF16C7"/>
</radialGradient>
<linearGradient id="paint15_linear_590_104152" x1="65.2996" y1="46.6847" x2="65.4126" y2="43.8982" gradientUnits="userSpaceOnUse">
<stop stop-color="#CA528D"/>
<stop offset="1" stop-color="#B3757C"/>
</linearGradient>
<radialGradient id="paint16_radial_590_104152" cx="0" cy="0" r="1" gradientUnits="userSpaceOnUse" gradientTransform="translate(45.0596 58.4233) rotate(-164.073) scale(14.0009 13.9818)">
<stop offset="0.00559" stop-color="white"/>
<stop offset="0.19846" stop-color="#FDFCFC"/>
<stop offset="0.36286" stop-color="#F6F1F3"/>
<stop offset="0.51677" stop-color="#ECE0E5"/>
<stop offset="0.66431" stop-color="#DCC7D0"/>
<stop offset="0.80617" stop-color="#C9A7B6"/>
<stop offset="0.81844" stop-color="#C7A4B3"/>
<stop offset="0.86286" stop-color="#CEA4B4"/>
<stop offset="0.9271" stop-color="#E1A3B8"/>
<stop offset="1" stop-color="#FFA2BD"/>
</radialGradient>
<linearGradient id="paint17_linear_590_104152" x1="52.6732" y1="62.2067" x2="27.4043" y2="54.9994" gradientUnits="userSpaceOnUse">
<stop stop-color="#CA528D"/>
<stop offset="1" stop-color="#DDC2C5"/>
</linearGradient>
<linearGradient id="paint18_linear_590_104152" x1="52.8674" y1="61.2996" x2="27.6654" y2="54.1113" gradientUnits="userSpaceOnUse">
<stop stop-color="#CA528D"/>
<stop offset="1" stop-color="#B3757C"/>
</linearGradient>
<linearGradient id="paint19_linear_590_104152" x1="51.7217" y1="65.2178" x2="26.5468" y2="58.0364" gradientUnits="userSpaceOnUse">
<stop stop-color="#CA528D"/>
<stop offset="1" stop-color="#DDC2C5"/>
</linearGradient>
<radialGradient id="paint20_radial_590_104152" cx="0" cy="0" r="1" gradientUnits="userSpaceOnUse" gradientTransform="translate(36.0917 42.6351) rotate(15.9263) scale(2.13286 2.12937)">
<stop offset="0.00559" stop-color="#3B1400"/>
<stop offset="0.37541" stop-color="#391203"/>
<stop offset="0.6625" stop-color="#340D0D"/>
<stop offset="0.92102" stop-color="#2B041D"/>
<stop offset="1" stop-color="#270024"/>
</radialGradient>
<radialGradient id="paint21_radial_590_104152" cx="0" cy="0" r="1" gradientUnits="userSpaceOnUse" gradientTransform="translate(46.4936 45.6032) rotate(15.9263) scale(2.13286 2.12938)">
<stop offset="0.00559" stop-color="#3B1400"/>
<stop offset="0.37541" stop-color="#391203"/>
<stop offset="0.6625" stop-color="#340D0D"/>
<stop offset="0.92102" stop-color="#2B041D"/>
<stop offset="1" stop-color="#270024"/>
</radialGradient>
<radialGradient id="paint22_radial_590_104152" cx="0" cy="0" r="1" gradientUnits="userSpaceOnUse" gradientTransform="translate(40.048 47.8559) rotate(15.9276) scale(2.4101 2.54523)">
<stop offset="0.00559" stop-color="white"/>
<stop offset="0.24154" stop-color="#FDFCFC"/>
<stop offset="0.44266" stop-color="#F6F1F3"/>
<stop offset="0.63096" stop-color="#ECE0E5"/>
<stop offset="0.81145" stop-color="#DCC7D0"/>
<stop offset="0.985" stop-color="#C9A7B6"/>
<stop offset="1" stop-color="#C7A4B3"/>
</radialGradient>
<radialGradient id="paint23_radial_590_104152" cx="0" cy="0" r="1" gradientUnits="userSpaceOnUse" gradientTransform="translate(37.984 47.0516) rotate(15.9271) scale(0.523218 0.522367)">
<stop offset="0.00559" stop-color="#3B1400"/>
<stop offset="0.37541" stop-color="#391203"/>
<stop offset="0.6625" stop-color="#340D0D"/>
<stop offset="0.92102" stop-color="#2B041D"/>
<stop offset="1" stop-color="#270024"/>
</radialGradient>
<radialGradient id="paint24_radial_590_104152" cx="0" cy="0" r="1" gradientUnits="userSpaceOnUse" gradientTransform="translate(42.0859 48.2132) rotate(15.927) scale(0.588656 0.587697)">
<stop offset="0.00559" stop-color="#3B1400"/>
<stop offset="0.37541" stop-color="#391203"/>
<stop offset="0.6625" stop-color="#340D0D"/>
<stop offset="0.92102" stop-color="#2B041D"/>
<stop offset="1" stop-color="#270024"/>
</radialGradient>
<radialGradient id="paint25_radial_590_104152" cx="0" cy="0" r="1" gradientUnits="userSpaceOnUse" gradientTransform="translate(39.7942 49.1191) rotate(15.9271) scale(1.82807 1.82508)">
<stop offset="0.00559" stop-color="#95452C"/>
<stop offset="0.36" stop-color="#92422D"/>
<stop offset="0.63521" stop-color="#883A30"/>
<stop offset="0.88299" stop-color="#782B34"/>
<stop offset="1" stop-color="#6D2237"/>
</radialGradient>
<linearGradient id="paint26_linear_590_104152" x1="57.1585" y1="53.1853" x2="59.1829" y2="46.0914" gradientUnits="userSpaceOnUse">
<stop offset="0.00559" stop-color="#E4798B"/>
<stop offset="0.24664" stop-color="#ED877F"/>
<stop offset="0.7018" stop-color="#FA9C6D"/>
<stop offset="1" stop-color="#FFA466"/>
</linearGradient>
<radialGradient id="paint27_radial_590_104152" cx="0" cy="0" r="1" gradientUnits="userSpaceOnUse" gradientTransform="translate(22.4317 28.9059) rotate(14.708) scale(5.46186 5.45391)">
<stop offset="0.00559" stop-color="#E0E6FF"/>
<stop offset="0.26088" stop-color="#DFE3FC"/>
<stop offset="0.47839" stop-color="#DBDAF1"/>
<stop offset="0.68207" stop-color="#D6CBE0"/>
<stop offset="0.87621" stop-color="#CEB5C7"/>
<stop offset="1" stop-color="#C7A4B3"/>
</radialGradient>
<radialGradient id="paint28_radial_590_104152" cx="0" cy="0" r="1" gradientUnits="userSpaceOnUse" gradientTransform="translate(20.1283 38.3583) rotate(14.7097) scale(2.75046 2.74655)">
<stop offset="0.00559" stop-color="#E0E6FF"/>
<stop offset="0.26088" stop-color="#DFE3FC"/>
<stop offset="0.47839" stop-color="#DBDAF1"/>
<stop offset="0.68207" stop-color="#D6CBE0"/>
<stop offset="0.87621" stop-color="#CEB5C7"/>
<stop offset="1" stop-color="#C7A4B3"/>
</radialGradient>
<linearGradient id="paint29_linear_590_104152" x1="20.9605" y1="34.6828" x2="22.4517" y2="29.0027" gradientUnits="userSpaceOnUse">
<stop offset="0.00559" stop-color="#CE2E13"/>
<stop offset="0.36363" stop-color="#CB2E15"/>
<stop offset="0.64164" stop-color="#C1301C"/>
<stop offset="0.89194" stop-color="#B13227"/>
<stop offset="1" stop-color="#A7332D"/>
</linearGradient>
<linearGradient id="paint30_linear_590_104152" x1="20.9952" y1="39.9673" x2="20.9065" y2="35.5286" gradientUnits="userSpaceOnUse">
<stop stop-color="#FFA466"/>
<stop offset="0.2982" stop-color="#FA9C6D"/>
<stop offset="0.75336" stop-color="#ED877F"/>
<stop offset="0.99441" stop-color="#E4798B"/>
</linearGradient>
<linearGradient id="paint31_linear_590_104152" x1="17.0397" y1="37.891" x2="19.8188" y2="38.6834" gradientUnits="userSpaceOnUse">
<stop offset="0.00559" stop-color="#E4798B"/>
<stop offset="0.24664" stop-color="#ED877F"/>
<stop offset="0.7018" stop-color="#FA9C6D"/>
<stop offset="1" stop-color="#FFA466"/>
</linearGradient>
<linearGradient id="paint32_linear_590_104152" x1="18.534" y1="37.2505" x2="18.5285" y2="36.9757" gradientUnits="userSpaceOnUse">
<stop stop-color="#CA528D"/>
<stop offset="1" stop-color="#B3757C"/>
</linearGradient>
<linearGradient id="paint33_linear_590_104152" x1="18.4742" y1="39.7052" x2="18.4681" y2="39.3994" gradientUnits="userSpaceOnUse">
<stop stop-color="#CA528D"/>
<stop offset="1" stop-color="#B3757C"/>
</linearGradient>
<radialGradient id="paint34_radial_590_104152" cx="0" cy="0" r="1" gradientUnits="userSpaceOnUse" gradientTransform="translate(34.895 40.5933) rotate(15.9267) scale(6.11297 6.10429)">
<stop offset="0.00559" stop-color="#FFD700"/>
<stop offset="0.19978" stop-color="#FED400"/>
<stop offset="0.36531" stop-color="#FBC900"/>
<stop offset="0.52029" stop-color="#F6B800"/>
<stop offset="0.66884" stop-color="#EF9F00"/>
<stop offset="0.81167" stop-color="#E67F00"/>
<stop offset="0.82402" stop-color="#E57C00"/>
<stop offset="0.85328" stop-color="#E27504"/>
<stop offset="0.8956" stop-color="#DA620E"/>
<stop offset="0.94564" stop-color="#CE431F"/>
<stop offset="0.95895" stop-color="#CA3924"/>
</radialGradient>
<radialGradient id="paint35_radial_590_104152" cx="0" cy="0" r="1" gradientUnits="userSpaceOnUse" gradientTransform="translate(47.9021 44.3007) rotate(15.9285) scale(6.29624 6.28731)">
<stop offset="0.00559" stop-color="#FFD700"/>
<stop offset="0.19978" stop-color="#FED400"/>
<stop offset="0.36531" stop-color="#FBC900"/>
<stop offset="0.52029" stop-color="#F6B800"/>
<stop offset="0.66884" stop-color="#EF9F00"/>
<stop offset="0.81167" stop-color="#E67F00"/>
<stop offset="0.82402" stop-color="#E57C00"/>
<stop offset="0.85328" stop-color="#E27504"/>
<stop offset="0.8956" stop-color="#DA620E"/>
<stop offset="0.94564" stop-color="#CE431F"/>
<stop offset="0.95895" stop-color="#CA3924"/>
</radialGradient>
<linearGradient id="paint36_linear_590_104152" x1="52.3883" y1="46.0719" x2="58.0033" y2="47.6732" gradientUnits="userSpaceOnUse">
<stop offset="0.03373" stop-color="#DFCCDC"/>
<stop offset="0.27182" stop-color="#9680B7"/>
<stop offset="1" stop-color="#CFCFCF"/>
</linearGradient>
<radialGradient id="paint37_radial_590_104152" cx="0" cy="0" r="1" gradientUnits="userSpaceOnUse" gradientTransform="translate(37.3439 41.4841) rotate(15.9267) scale(5.26478 5.25717)">
<stop offset="0.00559" stop-color="#FFD700"/>
<stop offset="0.19978" stop-color="#FED400"/>
<stop offset="0.36531" stop-color="#FBC900"/>
<stop offset="0.52029" stop-color="#F6B800"/>
<stop offset="0.66884" stop-color="#EF9F00"/>
<stop offset="0.81167" stop-color="#E67F00"/>
<stop offset="0.82402" stop-color="#E57C00"/>
<stop offset="0.85328" stop-color="#E27504"/>
<stop offset="0.8956" stop-color="#DA620E"/>
<stop offset="0.94564" stop-color="#CE431F"/>
<stop offset="0.95895" stop-color="#CA3924"/>
</radialGradient>
<radialGradient id="paint38_radial_590_104152" cx="0" cy="0" r="1" gradientUnits="userSpaceOnUse" gradientTransform="translate(50.3708 45.1684) rotate(15.9283) scale(5.28529 5.27764)">
<stop offset="0.00559" stop-color="#FFD700"/>
<stop offset="0.19978" stop-color="#FED400"/>
<stop offset="0.36531" stop-color="#FBC900"/>
<stop offset="0.52029" stop-color="#F6B800"/>
<stop offset="0.66884" stop-color="#EF9F00"/>
<stop offset="0.81167" stop-color="#E67F00"/>
<stop offset="0.82402" stop-color="#E57C00"/>
<stop offset="0.85328" stop-color="#E27504"/>
<stop offset="0.8956" stop-color="#DA620E"/>
<stop offset="0.94564" stop-color="#CE431F"/>
<stop offset="0.95895" stop-color="#CA3924"/>
</radialGradient>
<linearGradient id="paint39_linear_590_104152" x1="38.8194" y1="41.0395" x2="43.7349" y2="42.4416" gradientUnits="userSpaceOnUse">
<stop offset="0.03373" stop-color="#DFCCDC"/>
<stop offset="0.27182" stop-color="#9680B7"/>
<stop offset="1" stop-color="#CFCFCF"/>
</linearGradient>
<radialGradient id="paint40_radial_590_104152" cx="0" cy="0" r="1" gradientUnits="userSpaceOnUse" gradientTransform="translate(21.7143 15.6675) rotate(15.9267) scale(10.7275 10.7119)">
<stop offset="0.00559" stop-color="#DBE0FF"/>
<stop offset="0.26088" stop-color="#DADDFC"/>
<stop offset="0.47839" stop-color="#D7D5F1"/>
<stop offset="0.68207" stop-color="#D3C7E0"/>
<stop offset="0.87621" stop-color="#CCB4C7"/>
<stop offset="1" stop-color="#C7A4B3"/>
</radialGradient>
<linearGradient id="paint41_linear_590_104152" x1="22.2629" y1="25.4154" x2="24.7331" y2="26.12" gradientUnits="userSpaceOnUse">
<stop stop-color="#934A38"/>
<stop offset="0.25413" stop-color="#9B4C3C"/>
<stop offset="0.64194" stop-color="#B05349"/>
<stop offset="0.99441" stop-color="#C95B57"/>
</linearGradient>
<radialGradient id="paint42_radial_590_104152" cx="0" cy="0" r="1" gradientUnits="userSpaceOnUse" gradientTransform="translate(27.5561 18.6365) rotate(-41.5187) scale(5.02536 5.02919)">
<stop offset="0.00559" stop-color="#FFD700"/>
<stop offset="0.258" stop-color="#FCD500"/>
<stop offset="0.47307" stop-color="#F1CE00"/>
<stop offset="0.67448" stop-color="#E0C200"/>
<stop offset="0.86637" stop-color="#C7B100"/>
<stop offset="1" stop-color="#B1A200"/>
</radialGradient>
<radialGradient id="paint43_radial_590_104152" cx="0" cy="0" r="1" gradientUnits="userSpaceOnUse" gradientTransform="translate(27.4284 19.5477) rotate(-41.5053) scale(0.483934 0.484361)">
<stop offset="0.00559" stop-color="#842A2C"/>
<stop offset="0.31732" stop-color="#81282D"/>
<stop offset="0.55934" stop-color="#77232F"/>
<stop offset="0.77792" stop-color="#671B32"/>
<stop offset="0.98156" stop-color="#4F0E37"/>
<stop offset="1" stop-color="#4D0D37"/>
</radialGradient>
</defs>
</svg>
