<svg width="1440" height="424" viewBox="0 0 1440 424" fill="none" xmlns="http://www.w3.org/2000/svg">
<g opacity="0.4">
<mask id="mask0_591_126765" style="mask-type:alpha" maskUnits="userSpaceOnUse" x="0" y="0" width="1440" height="416">
<rect width="1440" height="416" fill="#D9D9D9"/>
</mask>
<g mask="url(#mask0_591_126765)">
<path d="M1457 522.289C1449.93 520.012 1442.81 517.781 1435.64 515.596C1442.92 518.382 1450.04 521.1 1457 523.747V522.289ZM1268.48 -66.5206C1237.66 -80.9747 1206.83 -95.4292 1176.01 -109.884C1206.54 -93.5814 1238.42 -75.9608 1268.48 -66.5206ZM1078.7 160.738C1135.24 99.4007 1191.78 38.0631 1248.31 -23.2749C1188.5 30.8773 1097.9 104.701 1078.7 160.738ZM1457 233.02C1453.7 225.562 1450.33 218.146 1446.89 210.774C1450.26 220.387 1453.63 230 1457 239.612V233.02ZM1117.96 451.669C1107.41 454.846 1097.39 459.552 1088.2 465.636C1100.81 463.208 1110.58 458.398 1117.96 451.669ZM1313.97 -19.4812C1351.92 37.8731 1386.37 93.3792 1416.64 150.281C1417.78 113.052 1354.85 32.6225 1313.97 -19.4812ZM1426.51 152.623C1424.65 154.546 1422.8 156.47 1420.94 158.394C1429.99 175.677 1438.64 193.137 1446.89 210.774L1426.51 152.623ZM1457 672.482V667.938C1409.48 674.74 1361.96 681.54 1314.44 688.339C1342.75 694.687 1402.5 684.15 1457 672.482ZM1457 -66.338V-66.4775C1404.89 -63.1542 1350.2 -62.0916 1299 -59.7625C1346.91 -53.032 1403.28 -59.7166 1457 -66.338ZM1161.08 444.753C1249.64 468.432 1346.64 488.552 1435.64 515.596C1349.47 482.603 1242.62 441.543 1161.08 444.753ZM1176.01 -109.884C1153.37 -121.975 1131.48 -133.333 1111.63 -140.072C1133.09 -130.01 1154.55 -119.947 1176.01 -109.884ZM969.66 -129.993C971.51 -135.028 973.008 -140.185 974.146 -145.427C972.611 -140.781 971.127 -135.576 969.66 -129.993ZM-17 554.045V559.676C22.6381 603.604 71.2169 664.325 115.508 681.755C99.5885 645.607 31.0336 592.29 -17 554.045ZM467.041 1322C447.885 1295.05 428.728 1268.1 409.57 1241.14C417.252 1264.59 436.538 1293.49 458.544 1322H467.041ZM791.377 1322C782.258 1312.76 773.142 1303.52 764.029 1294.27C771.04 1302.46 776.493 1311.85 780.12 1322H791.377ZM922.522 14.9938C947.536 -15.52 957.99 -85.5332 969.66 -129.993C955.474 -89.6626 917.71 -19.2266 922.522 14.9938ZM332.465 513.563C283.289 464.045 234.877 413.875 186.61 363.169C240.23 421.877 301.619 487.401 332.465 513.563ZM729.718 1259.48C741.156 1271.08 752.593 1282.68 764.029 1294.27C755.239 1283.47 743.664 1272.34 729.718 1259.48ZM1160.73 1250.83C1190.48 1267.68 1223.39 1278.64 1258.33 1285.52C1225.8 1273.96 1193.26 1262.39 1160.73 1250.83ZM1119.13 1322H1122.95C1115.45 1290.34 1106.8 1257.68 1096.59 1228.04C1095.25 1227.56 1093.91 1227.09 1092.56 1226.61C1101.42 1258.41 1110.27 1290.2 1119.13 1322ZM348.669 531.155C354.29 536.381 359.808 541.445 365.223 546.346C359.934 541.093 354.662 535.828 349.405 530.553C349.163 530.749 348.908 530.963 348.669 531.155ZM639.599 -58.5667C599.327 -73.1179 552.052 -80.3384 494.9 -87.6329C547.987 -73.3463 599.842 -69.7784 639.599 -58.5667ZM111.391 195.614C137.084 129.943 162.777 64.272 188.47 -1.39983C151.017 50.9441 132.794 125.57 111.391 195.614ZM685.338 -36.7528C706.471 -19.2004 716.74 8.54692 710.579 55.8625C704.475 102.76 702.096 140.864 698.284 173.185C706.148 112.782 714.013 52.3779 721.878 -8.02766C710.795 -18.9214 698.541 -28.5551 685.338 -36.7528ZM817.006 61.6528C849.95 53.3328 892.273 36.3958 911.657 24.2063C880.106 36.6891 848.556 49.1712 817.006 61.6528ZM723.834 -23.051C723.182 -18.0426 722.531 -13.0348 721.878 -8.02766C731.677 1.6306 740.651 12.0908 748.708 23.2436C740.442 7.86316 732.15 -7.56839 723.834 -23.051ZM685.338 -36.7528C673.286 -46.7642 657.7 -53.4621 639.599 -58.5667C655.567 -52.9179 670.898 -45.6064 685.338 -36.7528ZM548.616 230.35C554.897 265.497 561.177 300.644 567.457 335.792C567.767 309.796 557.295 264.883 548.616 230.35ZM696.32 188.255C697.026 183.373 697.68 178.35 698.284 173.185C697.629 178.209 696.974 183.232 696.32 188.255ZM1285.43 -62.0745C1279.7 -63.2651 1274.05 -64.7491 1268.48 -66.5206C1273.06 -64.3713 1277.65 -62.2224 1282.23 -60.0737C1270.92 -47.8078 1259.62 -35.5415 1248.31 -23.2749C1262.59 -36.2048 1275.12 -48.0138 1284.5 -58.189C1290.28 -49.6475 1301.02 -35.9826 1313.97 -19.4812C1305.27 -32.6171 1296.4 -45.8619 1287.36 -59.2155C1291.21 -59.4098 1295.11 -59.5853 1299 -59.7625C1294.4 -60.4101 1289.86 -61.1678 1285.43 -62.0745ZM882.28 264.554C883.372 264.011 884.459 263.467 885.551 262.924C882.081 262.983 878.683 261.924 875.86 259.904C876.412 260.934 876.958 261.949 877.514 262.982C874.539 263.409 871.563 263.837 868.585 264.266C875.475 265.266 880.754 267.196 883.833 270.324C947.377 334.901 1010.92 399.478 1074.47 464.056C995.628 429.538 916.783 395.016 837.939 360.492C787.463 338.14 736.988 315.789 686.513 293.439C695.405 292.16 711.236 288.507 730.229 284.172C714.468 286.439 698.708 288.707 682.946 290.975C687.404 256.735 691.862 222.495 696.32 188.255C688.635 241.544 674.055 278.67 625.145 315.479C657.596 301.687 687.567 297.127 711.807 307.861C787.688 341.462 832.12 338.336 842.506 419.056C842.522 419.2 842.542 419.344 842.56 419.487C841.27 396.319 840.041 376.818 838.38 363.898C948.293 412.024 1052.96 443.195 1138.38 526.82C1145.95 534.231 1157.62 543.894 1171.34 554.961C1142.06 526.301 1112.79 497.642 1083.51 468.983C1085.05 467.82 1086.61 466.704 1088.2 465.636C1085.96 466.068 1083.67 466.453 1081.24 466.732C1014.92 399.34 948.6 331.947 882.28 264.554ZM548.616 230.35C538.825 175.56 529.034 120.769 519.242 65.9784C506.212 -6.94446 512.707 -55.2615 490.65 -77.2779C506.331 10.4766 522.012 98.2311 537.693 185.986C538.955 193.049 543.47 209.877 548.616 230.35ZM1407.55 997.859C1409.95 1007.28 1413.05 1016.52 1416.81 1025.49C1413.73 1016.28 1410.64 1007.07 1407.55 997.859ZM625.145 315.479C605.684 324.039 586.995 334.256 569.285 346.018C569.498 347.208 569.711 348.398 569.923 349.587C589.21 339.708 607.676 328.302 625.145 315.479ZM562.082 355.369C564.153 353.428 565.559 350.884 566.1 348.098C504.998 388.391 442.048 446.897 395.607 489.538C451.098 444.815 506.59 400.092 562.082 355.369ZM111.391 195.614C103.599 215.529 95.8073 235.444 88.0154 255.36C53.0104 233.582 18.0053 211.805 -17 190.029V195.266C17.4317 216.755 53.9435 237.637 86.6208 257.966C52.0813 305.827 17.541 353.688 -17 401.547V409.989C19.0601 360.609 54.279 307.816 88.8908 259.857C121.535 294.51 154.108 328.947 186.61 363.169C141.359 313.623 101.654 268.949 90.5604 256.944C98.204 237.408 104.942 216.719 111.391 195.614ZM569.285 346.018C568.677 342.609 568.068 339.2 567.457 335.792C567.496 339.933 567.04 344.064 566.1 348.098C567.164 347.397 568.224 346.708 569.285 346.018ZM490.65 -77.2779C489.767 -82.2153 488.885 -87.152 488.003 -92.0881C487.375 -95.6002 466.864 -94.2608 439.395 -90.8682C465.114 -91.7327 480.758 -87.1507 490.65 -77.2779ZM1457 1293.28C1455.83 1293.48 1454.7 1293.7 1453.5 1293.89C1454.67 1293.84 1455.83 1293.76 1457 1293.7V1293.28ZM351.696 524.927C349.597 526.618 342.707 522.249 332.465 513.563C338.099 519.236 343.746 524.9 349.405 530.553C361.464 520.769 377.242 506.399 395.607 489.538C380.97 501.334 366.333 513.13 351.696 524.927ZM86.3932 1322C116.246 1223.47 141.11 1098.66 149.168 1003.65C126.789 1109.76 104.409 1215.88 82.0291 1322H86.3932ZM1291.93 1322H1296.28C1302.15 1316.62 1308.03 1311.24 1313.9 1305.86C1318.68 1311.42 1323.1 1316.79 1327.31 1322H1331.23C1326.82 1316.58 1322.15 1310.94 1317.08 1305.04C1376.82 1301.53 1419.85 1299.24 1453.5 1293.89C1386.38 1297.08 1319.29 1297.5 1258.33 1285.52C1275.96 1291.78 1293.59 1298.05 1311.23 1304.31C1304.79 1310.21 1298.36 1316.1 1291.93 1322ZM1394.8 1028.83C1408.2 1043.3 1419.68 1055.58 1428.08 1063.27C1322.92 1077.98 1217.77 1092.7 1112.62 1107.42C1014.79 1121.11 999.005 1099.37 915.517 1035.64C923.727 1032.02 931.938 1028.4 940.15 1024.78C921.568 1028.47 907.757 1027.84 901.362 1020.94C803.772 915.605 706.186 810.269 608.604 704.93C698.279 698.195 787.955 691.462 877.63 684.73C997.785 753.239 1117.94 821.747 1238.09 890.256C1227.38 894.978 1208.68 904.628 1185.38 916.719C1197.03 911.584 1208.69 906.447 1220.35 901.31C1232 896.172 1246.81 899.613 1263.24 908.437C1258.24 903.865 1253.25 899.292 1248.25 894.719C1244.97 891.725 1244.04 885.137 1244.8 876.105C1243.14 880.466 1241.68 884.554 1240.52 888.239C1125.3 822.544 1010.08 756.851 894.866 691.16C886.429 686.349 879.477 675.891 873.695 661.531L876.312 681.87C621.441 701.006 545.57 709.668 365.223 546.346C407.291 588.135 450.151 629.405 493.802 670.155C376.223 675.623 258.644 681.091 141.066 686.557C132.303 686.78 123.593 685.144 115.508 681.755C117.163 685.329 118.261 689.135 118.765 693.04C130.344 801.187 141.924 909.333 153.505 1017.48C164.373 1118.99 175.241 1220.5 186.11 1322H189.079C166.535 1111.48 143.992 900.951 121.451 690.422C246.154 684.629 370.857 678.831 495.561 673.029C463.219 835.892 430.879 994.683 398.368 1157.88C389.763 1201.08 381.328 1244.12 372.882 1287.38C370.736 1299.19 367.509 1310.78 363.242 1322H369.615C376.719 1286.4 383.829 1250.71 390.946 1214.94L409.57 1241.14C402.862 1220.66 404.986 1204.33 421.918 1196.07C557.81 1129.74 562.922 1094.54 667.22 1200.3C691.221 1224.64 712.313 1243.42 729.718 1259.48C682.671 1211.77 635.623 1164.07 588.574 1116.36C732.629 1118.21 876.684 1120.07 1020.74 1121.92C954.051 1188.62 887.361 1255.31 820.67 1322H824.831C890.96 1255.87 957.088 1189.75 1023.22 1123.62C1032.73 1189.75 1042.24 1255.87 1051.76 1322H1056.6C1047.93 1255.57 1035.23 1186.42 1025.93 1121.81C1055.75 1132.91 1078.58 1175.75 1096.59 1228.04C1117.97 1235.64 1139.35 1243.23 1160.73 1250.83C1113.67 1224.18 1074.52 1182.81 1047.85 1119.46C1175.36 1101.61 1302.87 1083.77 1430.37 1065.92C1439.27 1085.73 1448.15 1105.59 1457 1125.49V1118.36C1449.16 1100.72 1441.32 1083.07 1433.48 1065.42C1441.55 1063.99 1449.39 1062.87 1457 1061.93V1053.3C1435.09 1051.54 1424.48 1042.53 1416.81 1025.49C1420.6 1036.78 1424.38 1048.07 1428.17 1059.36L1394.8 1028.83ZM909.221 1033.77C804.026 1032.4 698.831 1031.02 593.635 1029.65L606.776 707.297C707.591 816.123 808.407 924.948 909.221 1033.77ZM392.493 1207.15C412.756 1105.11 433.02 1003.07 453.284 901.029C456.101 903.71 458.866 906.355 461.58 908.964C456.847 901.507 454.483 894.987 455.488 889.925C469.826 817.728 484.164 745.531 498.502 673.336C596.949 702.694 604.578 688.808 600.514 788.519C597.263 868.276 594.011 948.034 590.759 1027.79C579.79 1017.36 550.423 994.851 521.819 970.411C626.937 1087.68 576.326 1117.43 392.493 1207.15ZM586.609 1113.38C588.737 1088.26 584.888 1056.07 593.454 1032.59C768.601 1034.89 880.594 1012.68 1019.81 1118.96C875.408 1117.1 731.008 1115.24 586.609 1113.38ZM521.819 970.411C505.507 952.214 485.477 931.927 461.58 908.964C472.7 926.477 496.963 949.171 521.819 970.411ZM295.481 -68.3775C307.803 -70.1887 386.503 -84.3358 439.395 -90.8682C428.167 -90.3947 416.974 -89.2975 405.868 -87.5817C356.783 -80.3674 223.029 -89.7337 202.854 -38.1634C198.059 -25.9091 193.264 -13.6546 188.47 -1.39983C213.406 -36.2507 246.861 -61.2324 295.481 -68.3775ZM781.029 77.188C877.76 107.148 974.49 137.107 1071.22 167.067C1063.43 170.951 1050.52 178.821 1034.97 188.433C1048.05 181.916 1061.12 175.398 1074.19 168.881C1074.61 170.54 1075.09 172.276 1075.58 174.046C1075.85 171.729 1076.26 169.428 1076.79 167.158C1077.32 165.045 1077.96 162.905 1078.7 160.738L1075.11 164.637C1067.3 157.117 1055.66 147.689 1042.26 137.109C1051.4 145.905 1060.53 154.701 1069.67 163.498C974.299 133.962 878.926 104.425 783.553 74.8867C794.704 70.4749 805.854 66.0635 817.006 61.6528C794.65 67.2991 776.624 68.985 773.126 62.4697C765.886 48.8558 757.727 35.7502 748.708 23.2436C765.236 54.0075 781.721 84.6904 798.162 115.292C791.091 98.6252 785.158 84.8722 781.029 77.188ZM730.229 284.172C776.349 277.536 822.468 270.901 868.585 264.266C837.936 259.815 775.203 273.907 730.229 284.172ZM1301.68 682.533C1287.39 645.735 1217.69 592.345 1171.34 554.961C1214.71 597.412 1258.07 639.863 1301.43 682.313C1301.51 682.388 1301.61 682.457 1301.68 682.533ZM1263.24 908.437C1307.1 948.569 1350.95 988.701 1394.8 1028.83C1357.4 988.425 1305.08 930.916 1263.24 908.437ZM1304.57 695.225C1294.58 724.647 1248.55 831.023 1244.8 876.105C1263.22 827.451 1308.45 740.393 1304.57 695.225ZM940.15 1024.78C1001.42 1012.62 1114.63 953.423 1185.38 916.719C1103.63 952.741 1021.89 988.762 940.15 1024.78ZM842.56 419.487C846.715 493.978 851.551 606.524 873.695 661.531C863.317 580.849 852.939 500.168 842.56 419.487ZM1304.57 695.225C1304.85 694.395 1305.11 693.607 1305.33 692.902C1339.41 794.556 1373.48 896.209 1407.55 997.859C1402.66 980.165 1397.32 958.064 1388.33 931.236C1361.31 850.612 1334.28 769.989 1307.25 689.366C1309.65 689.024 1312.04 688.682 1314.44 688.339C1309.76 687.544 1305.36 685.543 1301.68 682.533C1302.48 684.498 1303.12 686.519 1303.62 688.58C1304.08 690.772 1304.4 692.991 1304.57 695.225ZM1146.08 439.08C1143.95 430.71 1140.71 420.304 1136.8 408.535C1135.08 426.346 1129.35 441.284 1117.96 451.669C1131.97 447.499 1146.47 445.174 1161.08 444.753C1156.73 443.59 1152.4 442.419 1148.08 441.238C1239.03 346.955 1329.99 252.674 1420.94 158.394C1419.52 155.685 1418.08 152.984 1416.64 150.281C1416.75 155.248 1414.97 160.072 1411.65 163.771C1323.13 255.54 1234.61 347.31 1146.08 439.08ZM1042.26 137.109C1003.24 99.5446 964.226 61.9808 925.21 24.4176C939.065 58.0857 999.651 103.469 1042.26 137.109ZM925.21 24.4176C924.37 22.4419 923.677 20.4067 923.137 18.3288C922.878 17.2636 922.684 16.1426 922.522 14.9938C921.779 15.8979 921.034 16.7905 920.267 17.6225C917.677 20.1601 914.785 22.3711 911.657 24.2063C914.806 22.9612 917.956 21.7151 921.107 20.4683C922.475 21.7853 923.842 23.1017 925.21 24.4176ZM1136.8 408.535C1143.4 340.253 1091.34 230 1075.58 174.046C1069.04 226.414 1114.32 340.817 1136.8 408.535ZM1034.97 188.433C985.163 213.263 935.356 238.094 885.551 262.924C914.412 263.904 987.259 217.92 1034.97 188.433ZM875.86 259.904C849.473 210.793 823.752 162.921 798.162 115.292C819.725 166.117 851.882 244.064 875.86 259.904Z" fill="#45B8E6"/>
<path d="M697.991 -136.07C717.191 -116.422 724.53 -87.7625 713.508 -41.3401C702.586 4.64853 696.278 42.2849 689.143 74.0275C703.215 14.7797 717.287 -44.4688 731.357 -103.718C721.462 -115.699 710.272 -126.549 697.991 -136.07ZM734.857 -118.459C733.691 -113.547 732.524 -108.633 731.357 -103.718C740.105 -93.0975 747.948 -81.7633 754.805 -69.8342C748.179 -85.9892 741.529 -102.197 734.857 -118.459ZM965.011 -152C946.694 -118.864 927.727 -82.6759 928.542 -60.0522C947.534 -78.856 961.756 -116.376 973.993 -152H965.011ZM818.66 -24.5382C852.319 -29.3972 896.32 -41.9078 916.865 -52.0352C884.128 -42.8696 851.393 -33.7039 818.66 -24.5382ZM674.302 -152C682.528 -147.196 690.44 -141.876 697.991 -136.07C691.708 -142.329 684.589 -147.69 676.837 -152L674.302 -152ZM542.178 222.265C541.787 226.39 540.906 230.453 539.553 234.369C540.683 233.783 541.811 233.207 542.938 232.631C542.684 229.175 542.431 225.719 542.178 222.265ZM685.609 88.9098C686.824 84.0966 688.002 79.1359 689.143 74.0275C687.965 78.9892 686.788 83.95 685.609 88.9098ZM1415.57 129.006C1413.53 130.728 1411.49 132.449 1409.44 134.171C1416.65 152.298 1423.45 170.561 1429.83 188.961C1425.08 168.975 1420.33 148.99 1415.57 129.006ZM534.351 115.446C536.961 151.053 539.57 186.659 542.178 222.265C545.174 196.44 539.408 150.69 534.351 115.446ZM1457 279.044C1449.11 248.291 1440.02 218.379 1429.83 188.961C1438.89 227.05 1447.94 265.139 1457 303.229V279.044ZM1321.44 -53.8319C1353.26 7.14603 1381.78 65.9244 1406 125.658C1410.99 88.746 1356.71 2.22307 1321.44 -53.8319ZM1202.49 -152C1228.41 -134.446 1255.13 -116.535 1281.08 -105.32C1255.25 -120.879 1229.42 -136.439 1203.59 -152H1202.49ZM1457 -85.4134V-86.2726C1408.38 -88.5326 1358.13 -92.6747 1310.74 -95.4367C1354.36 -84.612 1406.43 -84.5471 1457 -85.4134ZM781.373 -12.8381C874.482 26.9726 967.59 66.7838 1060.7 106.595C1052.55 109.651 1038.9 116.144 1022.44 124.093C1036.11 118.966 1049.79 113.838 1063.46 108.709C1063.71 110.401 1064.01 112.178 1064.32 113.99C1064.83 111.712 1065.46 109.466 1066.23 107.263C1066.97 105.218 1067.83 103.155 1068.79 101.076C1067.47 102.245 1066.14 103.414 1064.82 104.581C1057.83 96.2942 1047.23 85.7114 1035 73.8C1043.17 83.4965 1051.35 93.1922 1059.53 102.887L784.122 -14.866C795.634 -18.0903 807.146 -21.3144 818.66 -24.5382C795.875 -21.2473 777.837 -21.4614 775.032 -28.2952C769.24 -42.5844 762.482 -56.4628 754.805 -69.8342C768.063 -37.5247 781.248 -5.38258 794.468 26.8405C789.16 9.52655 784.683 -4.7672 781.373 -12.8381ZM304.343 393.936C309.388 399.712 314.348 405.316 319.223 410.747C314.513 404.98 309.817 399.202 305.135 393.415C304.875 393.584 304.598 393.769 304.343 393.936ZM520.456 -152H511.802C517.227 -77.9373 522.653 -3.87503 528.08 70.1869C528.604 77.3428 531.353 94.5497 534.351 115.446C530.285 59.9354 526.218 4.42493 522.15 -51.0853C519.073 -93.0921 521.447 -126.52 520.456 -152ZM291.425 1106.42C301.306 1152.13 350.61 1221.62 383.333 1269.11C352.697 1214.88 322.061 1160.65 291.425 1106.42ZM189.634 1216.4C173.533 1213.32 159.199 1210.89 146.27 1209.2C162.701 1213.82 177.012 1216.9 189.634 1216.4ZM-17 1282.97V1287.45C1.45375 1268.89 20.9314 1248.98 35.7937 1229.49C19.5379 1241.76 3.23158 1259.31 -17 1282.97ZM638.474 1195.94C630.851 1184.29 620.495 1172.03 607.962 1157.8C618.132 1170.51 628.303 1183.23 638.474 1195.94ZM1131.04 1238.41C1099.87 1223.54 1068.71 1208.67 1037.54 1193.8C1065.4 1213.64 1097 1227.96 1131.04 1238.41ZM999.259 1322H999.743C994.523 1273.78 987.878 1215.21 976.109 1164.5C974.826 1163.88 973.541 1163.27 972.255 1162.66C981.255 1215.77 990.256 1268.88 999.259 1322ZM413.426 1322H417.206C414.197 1317.37 411.153 1312.35 408.054 1306.86C402.853 1297.66 393.966 1284.54 383.333 1269.11C391.099 1282.86 398.864 1296.6 406.629 1310.35C408.963 1314.48 411.229 1318.36 413.426 1322ZM103.072 35.6328C93.2612 54.6354 83.4495 73.638 73.6371 92.6407C43.4237 69.182 13.2114 45.7236 -17 22.2658V27.8652C12.7824 50.7859 43.9708 73.3412 71.9799 95.0896C42.3199 128.31 12.6599 161.531 -17 194.752V201.933C13.7989 166.679 44.237 130.585 74.0409 97.2036C102.928 135.056 131.766 172.686 160.556 210.095C120.671 156.124 85.7977 107.571 76.0049 94.4795C85.6286 75.8395 94.4732 55.9579 103.072 35.6328ZM307.997 388.054C305.735 389.52 299.333 384.461 290.045 374.763C295.062 380.988 300.092 387.206 305.135 393.415C318.145 384.931 335.328 372.268 355.343 357.396C339.56 367.616 323.778 377.835 307.997 388.054ZM-17 446.969C6.55933 478.003 31.6634 506.531 56.8439 519.594C48.5555 493.813 16.4736 457.434 -17 423.245V446.969ZM199.844 -152C157.349 -103.814 131.546 -31.6644 103.072 35.6328C135.366 -26.9114 167.66 -89.4557 199.955 -152H199.844ZM1121.33 392.092C1206.97 424.811 1301.36 454.862 1387.08 490.974C1304.79 449.238 1202.76 397.341 1121.33 392.092ZM290.045 374.763C246.264 320.424 203.311 265.519 160.556 210.095C207.806 274.033 262.076 345.55 290.045 374.763ZM1068.79 101.076C1131.38 45.9194 1193.96 -9.23679 1256.54 -64.3929C1191.45 -16.7228 1093.7 47.3266 1068.79 101.076ZM856.777 178.71C835.617 127.135 814.989 76.8587 794.468 26.8405C810.653 79.6199 834.568 160.469 856.777 178.71ZM709.42 187.776C755.977 185.95 802.534 184.124 849.092 182.299C819.068 174.698 755.214 182.221 709.42 187.776ZM862.684 184.002L866.104 182.719C862.646 182.417 859.376 181.012 856.777 178.71C857.219 179.794 857.656 180.859 858.103 181.944C855.101 182.063 852.098 182.181 849.092 182.299C855.841 184.006 860.89 186.471 863.628 189.902L1033.19 402.327C958.344 359.832 883.497 317.335 808.65 274.834C760.76 247.378 712.869 219.923 664.977 192.467C673.954 192.114 690.079 190.12 709.42 187.776C693.507 188.399 677.596 189.023 661.685 189.647C669.66 156.067 677.635 122.488 685.609 88.9098C672.45 141.093 654.1 176.496 601.659 208.036C635.362 197.678 665.646 196.245 688.644 209.431C760.637 250.706 805.158 252.196 807.13 333.557C807.131 333.701 807.135 333.845 807.14 333.988C808.252 310.81 809.053 291.29 808.736 278.269C913.075 337.513 1013.95 379.351 1090.26 471.367C1097.02 479.523 1107.63 490.344 1120.13 502.772C1093.98 471.235 1067.83 439.699 1041.67 408.163C1043.32 407.165 1044.99 406.222 1046.69 405.321C1044.41 405.518 1042.09 405.663 1039.65 405.69C980.658 331.793 921.67 257.897 862.684 184.002ZM1100.94 353.553C1114.57 286.321 1074.19 171.27 1064.32 113.99C1052.39 165.395 1085.59 283.871 1100.94 353.553ZM601.659 208.036C581.416 214.536 561.77 222.765 542.938 232.631C543.026 233.836 543.114 235.04 543.202 236.245C563.409 228.416 582.956 218.983 601.659 208.036ZM1236.57 643.149C1226.17 605.07 1162.37 544.753 1120.13 502.772C1158.87 549.482 1197.61 596.193 1236.34 642.904C1236.41 642.987 1236.5 643.064 1236.57 643.149ZM1293.34 997.231C1305.17 1013.01 1315.32 1026.41 1322.87 1034.92C1216.76 1038.67 1110.65 1042.43 1004.54 1046.18C905.815 1049.67 892.369 1026.41 815.925 954.382C824.463 951.633 833.002 948.884 841.543 946.136C822.685 947.881 809.012 945.825 803.367 938.3C717.208 823.428 631.05 708.556 544.893 593.684L814.566 601.439C926.984 682.016 1039.4 762.595 1151.82 843.175C1140.68 846.762 1121.08 854.423 1096.66 864.033C1108.78 860.132 1120.9 856.231 1133.02 852.33C1145.14 848.429 1159.52 853.383 1174.94 863.857C1170.44 858.793 1165.95 853.73 1161.45 848.665C1158.51 845.349 1158.26 838.701 1159.95 829.794C1157.85 833.959 1155.98 837.875 1154.44 841.419C1046.64 764.151 938.843 686.885 831.044 609.62C823.151 603.963 817.316 592.836 813.051 577.956C813.219 584.79 813.385 591.624 813.55 598.459C558.062 591.109 481.703 591.872 319.223 410.747C356.744 456.671 395.105 502.16 434.307 547.213C316.794 540.481 199.281 533.748 81.7682 527.015C73.0292 526.33 64.5345 523.801 56.8439 519.594C58.1198 523.319 58.8185 527.216 58.9158 531.152C59.2379 639.919 59.5612 748.685 59.8857 857.449C60.1978 963.005 60.5112 1068.56 60.8258 1174.11C60.8762 1190.97 50.6399 1210.02 35.7937 1229.49C65.0462 1207.42 94.2544 1202.37 146.27 1209.2C123.301 1202.74 96.1977 1193.28 63.8126 1186.42C63.1604 967.224 62.5088 748.027 61.8577 528.83C186.491 535.971 311.125 543.111 435.759 550.252C386.733 708.891 338.13 863.483 288.9 1022.44C275.869 1064.52 263.026 1106.45 250.147 1148.61C234.777 1198.91 215.86 1215.38 189.634 1216.4C201.181 1218.62 213.617 1221.16 227.105 1224.01C217.703 1254.79 205.868 1290.06 197.44 1322H200.297C225.279 1240.65 250.405 1159.99 275.611 1078.43L291.425 1106.42C286.87 1085.35 290.673 1069.32 308.372 1062.86C450.398 1010.95 459.127 976.471 551.917 1092.46C573.272 1119.16 592.309 1140.03 607.962 1157.8C566.103 1105.47 524.243 1053.15 482.383 1000.83C625.472 1017.58 768.561 1034.34 911.65 1051.1C833.016 1114.91 754.383 1178.72 675.749 1242.53C663.324 1227 650.899 1211.47 638.474 1195.94C661.266 1230.79 659.579 1260.39 618.567 1322H621.588C647.438 1295.75 662.568 1257.02 694.197 1231.35C767.444 1171.91 840.691 1112.48 913.937 1053.04C917.451 1142.69 920.967 1232.35 924.485 1322H926.779C929.005 1236.04 920.273 1139.37 916.827 1051.52C945.332 1065.65 963.609 1110.62 976.109 1164.5C996.591 1174.26 1017.07 1184.03 1037.54 1193.8C993.496 1162.43 958.839 1117.22 938.877 1051.45C1067.54 1046.9 1196.21 1042.35 1324.87 1037.8C1348.35 1108.98 1371.47 1180.68 1394.67 1252.15C1395.56 1251.74 1396.46 1251.33 1397.35 1250.91C1374.24 1179.81 1351.13 1108.72 1328.03 1037.62C1383.74 1033.64 1428.26 1042.17 1457 1032.28V1021.48C1444.88 1025.05 1429.07 1027.45 1408.44 1028.92C1344.34 1033.5 1325.07 1024.89 1315.58 996.181C1318.18 1007.8 1320.77 1019.43 1323.37 1031.05C1313.36 1019.78 1303.35 1008.5 1293.34 997.231ZM809.856 951.878C705.367 939.621 600.879 927.366 496.391 915.114C511.872 808.691 527.351 702.27 542.83 595.849C631.838 714.526 720.847 833.202 809.856 951.878ZM277.958 1070.83C308.674 971.44 339.39 872.046 370.108 772.653C372.633 775.613 375.111 778.53 377.54 781.405C373.603 773.5 371.926 766.769 373.451 761.837C395.185 691.511 416.919 621.186 438.652 550.864C533.533 590.251 542.558 577.235 528.195 675.985C516.704 754.98 505.214 833.974 493.725 912.966C483.894 901.45 457.012 876.024 431.092 848.751C523.51 976.269 470.09 1000.63 277.958 1070.83ZM480.737 997.663C485.453 972.901 484.956 940.479 495.906 918.022C669.876 938.429 783.566 927.936 911.031 1048.05C767.599 1031.26 624.167 1014.46 480.737 997.663ZM1457 523.087C1434.64 511.771 1411.2 501.135 1387.08 490.974C1412.72 503.978 1436.41 515.959 1457 525.268V523.087ZM1035 73.8C1000.08 32.3996 965.157 -9.00064 930.241 -50.4006C940.533 -15.4804 996.098 35.9307 1035 73.8ZM930.241 -50.4006C929.609 -52.4522 929.13 -54.5478 928.809 -56.6702C928.662 -57.7923 928.573 -58.9211 928.542 -60.0522C927.709 -59.2299 926.878 -58.4194 926.029 -57.6707C923.217 -55.4236 920.139 -53.5309 916.865 -52.0352C920.098 -52.9412 923.333 -53.8472 926.57 -54.7531L930.241 -50.4006ZM1297.47 -99.1414C1291.91 -100.919 1286.43 -102.981 1281.08 -105.32C1285.41 -102.708 1289.75 -100.095 1294.08 -97.4824C1281.57 -86.4526 1269.06 -75.4228 1256.54 -64.3929C1272.08 -75.7755 1285.76 -86.2223 1296.15 -95.3736C1301.01 -86.2817 1310.28 -71.5822 1321.44 -53.8319C1314.16 -67.7945 1306.71 -81.8829 1299.1 -96.097C1302.95 -95.8919 1306.85 -95.6642 1310.74 -95.4367C1306.23 -96.5567 1301.79 -97.7803 1297.47 -99.1414ZM1107.01 384.897C1105.75 376.35 1103.6 365.664 1100.94 353.553C1097.38 371.092 1090.14 385.358 1077.72 394.508C1092.09 391.811 1106.75 390.999 1121.33 392.092C1117.13 390.485 1112.94 388.871 1108.77 387.251C1208.99 302.891 1309.22 218.531 1409.44 134.171C1408.31 131.329 1407.15 128.495 1406 125.658C1405.6 130.609 1403.33 135.221 1399.65 138.558C1302.1 220.67 1204.55 302.783 1107.01 384.897ZM1238.12 656.07C1238.49 655.275 1238.83 654.517 1239.12 653.841C1262.49 758.474 1285.86 863.108 1309.23 967.74C1306.19 949.634 1303.17 927.097 1297 899.483L1241.4 650.521C1243.82 650.429 1246.24 650.336 1248.65 650.242C1244.08 648.969 1239.91 646.524 1236.57 643.149C1237.16 645.186 1237.59 647.263 1237.87 649.364C1238.1 651.591 1238.19 653.831 1238.12 656.07ZM1022.44 124.093L866.104 182.719C894.706 186.684 971.929 148.484 1022.44 124.093ZM377.54 781.405C386.787 799.974 408.569 825.055 431.092 848.751C416.752 828.964 398.93 806.716 377.54 781.405ZM1309.23 967.74C1310.64 977.364 1312.76 986.87 1315.58 996.181C1313.46 986.7 1311.35 977.22 1309.23 967.74ZM1400.64 1270.56C1398.65 1264.43 1396.66 1258.29 1394.67 1252.15C1374.46 1261.15 1352.46 1265.42 1324.29 1266.94C1349.82 1268.38 1375.4 1269.42 1400.64 1270.56ZM1455.88 1207.43C1435.15 1227.8 1417.01 1241.67 1397.35 1250.91L1403.29 1269.16C1420.82 1248.59 1438.35 1228.01 1455.88 1207.43ZM1457 1206.11C1456.63 1206.55 1456.25 1206.98 1455.88 1207.43C1456.25 1207.06 1456.63 1206.68 1457 1206.31V1206.11ZM1077.72 394.508C1066.9 396.576 1056.45 400.219 1046.69 405.321C1059.48 404.209 1069.69 400.435 1077.72 394.508ZM1449.72 642.512L1248.65 650.242C1286.34 662.922 1386.14 650.146 1449.72 642.512ZM539.553 234.369C474.611 268.119 405.947 319.791 355.343 357.396L534.805 241.184C537.065 239.468 538.726 237.084 539.553 234.369ZM1457 641.643C1454.63 641.922 1452.2 642.212 1449.72 642.512C1452.14 642.42 1454.57 642.327 1457 642.233V641.643ZM1159.95 829.794C1183.31 783.309 1237.31 701.398 1238.12 656.07C1225.15 684.294 1168.36 785.344 1159.95 829.794ZM813.051 577.956C811.083 496.634 809.113 415.312 807.14 333.988C803.56 408.507 796.719 520.949 813.051 577.956ZM1174.94 863.857C1214.41 908.316 1253.88 952.774 1293.34 997.231C1260.32 953.166 1214.23 890.544 1174.94 863.857ZM841.543 946.136C903.748 940.382 1022.49 893.216 1096.66 864.033C1011.62 891.403 926.581 918.77 841.543 946.136ZM-17 1073.04V1099.43C14.5141 1015.29 42.3936 919.915 57.0041 843.238C32.3363 919.837 7.66827 996.437 -17 1073.04ZM1181.7 1262.58C1154.99 1282.38 1128.28 1302.19 1101.57 1322H1106.51C1132.4 1302.79 1158.3 1283.59 1184.2 1264.39C1199.43 1286.35 1210.65 1305.71 1220.97 1322H1225.14C1214.77 1306.09 1203.28 1286.74 1187.44 1263.9C1247.22 1266.6 1290.26 1268.78 1324.29 1266.94C1257.19 1263.16 1190.42 1256.64 1131.04 1238.41C1147.93 1246.46 1164.81 1254.52 1181.7 1262.58Z" fill="white"/>
</g>
</g>
</svg>
