<svg width="280" height="159" viewBox="0 0 280 159" fill="none" xmlns="http://www.w3.org/2000/svg">
<path d="M265.95 158.342H253.104V156.32H265.95L266.124 158.341L265.95 158.342ZM246.68 158.342H233.835V156.32H246.68V158.342ZM227.411 158.342H214.565V156.32H227.411V158.342ZM208.142 158.342H195.295V156.32H208.142V158.342ZM188.872 158.342H176.025V156.32H188.872V158.342ZM169.603 158.342H156.756V156.32H169.603V158.342ZM150.333 158.342H137.486V156.32H150.333V158.342ZM131.064 158.342H118.217V156.32H131.064V158.342ZM111.795 158.342H98.9476V156.32H111.795V158.342ZM92.5251 158.342H79.6783V156.32H92.5251V158.342ZM73.2559 158.342H60.4088V156.32H73.2559V158.342ZM53.9853 158.342H41.1395V156.32H53.9853V158.342ZM34.716 158.342H21.87V156.32H34.716V158.342ZM15.4466 158.342H14.0502C11.9749 158.344 9.92487 157.916 8.04828 157.087C6.17169 156.258 4.51541 155.05 3.19912 153.55L4.86887 152.265C5.98244 153.535 7.38379 154.557 8.97164 155.258C10.5595 155.96 12.2942 156.323 14.0502 156.32H15.4466L15.4466 158.342ZM272.77 156.691L271.719 154.925C273.446 154.032 274.907 152.751 275.97 151.197C277.033 149.643 277.664 147.865 277.807 146.026L279.962 146.173C279.794 148.348 279.048 150.449 277.792 152.285C276.537 154.122 274.81 155.636 272.77 156.691ZM0.259739 147.727C0.0870041 146.896 5.78381e-05 146.051 9.31564e-05 145.204V135.537H2.16166V145.204C2.16146 145.921 2.23498 146.636 2.38121 147.34L0.259739 147.727ZM280 140.095H277.838V128.082H280V140.095ZM2.16157 129.53H6.57632e-06V117.517H2.16157V129.53ZM280 122.077H277.838V110.064H280V122.077ZM2.16157 111.511H6.57632e-06V99.4986H2.16157V111.511ZM280 104.057H277.838V92.0453H280V104.057ZM2.16157 93.4931H6.57632e-06V81.4801H2.16157V93.4931ZM280 86.0388H277.838V74.0268H280V86.0388ZM2.16157 75.4746H6.57632e-06V63.4617H2.16157V75.4746ZM280 68.0202H277.838V56.0084H280V68.0202ZM2.16157 57.4562H6.57632e-06V45.4432H2.16157V57.4562ZM280 50.0019H277.838V37.9899H280V50.0019ZM2.16157 39.4377H6.57632e-06V27.4249H2.16157V39.4377ZM280 31.9834H277.838V19.9715H280V31.9834ZM2.16157 21.4194H6.57632e-06V13.3768C-0.00148033 11.9403 0.249184 10.5133 0.742006 9.15265L2.78957 9.80208C2.37201 10.9534 2.15984 12.1611 2.16157 13.3768V21.4194ZM280 13.965H277.838V13.3768C277.835 11.6244 277.39 9.89737 276.54 8.33555C275.69 6.77373 274.458 5.42098 272.945 4.38677L274.218 2.75442C276.006 3.97634 277.461 5.57469 278.465 7.42011C279.47 9.26552 279.996 11.3062 280 13.3768V13.965ZM5.96122 5.22963L4.48991 3.74927C7.08446 1.48908 10.5 0.234364 14.046 0.238781H17.187V2.26002H14.047C11.0467 2.2558 8.15656 3.31723 5.96122 5.22963ZM267.54 2.35866C267.013 2.29283 266.482 2.25987 265.95 2.26002H254.843V0.238781H265.95C266.578 0.238554 267.205 0.277448 267.827 0.355205L267.54 2.35866ZM248.42 2.26002H235.574V0.238781H248.42V2.26002ZM229.15 2.26002H216.304V0.238781H229.15V2.26002ZM209.881 2.26002H197.035V0.238781H209.881V2.26002ZM190.612 2.26002H177.766V0.238781H190.612V2.26002ZM171.342 2.26002H158.496V0.238781H171.342V2.26002ZM152.073 2.26002H139.227V0.238781H152.073V2.26002ZM132.803 2.26002H119.957V0.238781H132.803V2.26002ZM113.534 2.26002H100.688V0.238781H113.534V2.26002ZM94.2646 2.26002H81.4186V0.238781H94.2646V2.26002ZM74.9953 2.26002H62.1482V0.238781H74.9953V2.26002ZM55.7258 2.26002H42.8789V0.238781H55.7258V2.26002ZM36.4565 2.26002H23.6094V0.238781H36.4565V2.26002Z" fill="white"/>
</svg>
