<svg width="242" height="158" viewBox="0 0 242 158" fill="none" xmlns="http://www.w3.org/2000/svg">
<path d="M12.671 158H23.7481V155.985H12.671L12.5208 157.999L12.671 158ZM29.2871 158H40.3641V155.985H29.2871V158ZM45.9031 158H56.9802V155.985H45.9031V158ZM62.5192 158H73.5971V155.985H62.5192V158ZM79.1352 158H90.2132V155.985H79.1352V158ZM95.7513 158H106.829V155.985H95.7513V158ZM112.367 158H123.445V155.985H112.367V158ZM128.983 158H140.061V155.985H128.983V158ZM145.599 158H156.677V155.985H145.599V158ZM162.215 158H173.293V155.985H162.215V158ZM178.831 158H189.909V155.985H178.831V158ZM195.448 158H206.525V155.985H195.448V158ZM212.064 158H223.141V155.985H212.064V158ZM228.68 158H229.884C231.674 158.003 233.442 157.575 235.06 156.749C236.678 155.923 238.106 154.719 239.241 153.223L237.802 151.942C236.841 153.208 235.633 154.227 234.264 154.926C232.895 155.626 231.399 155.987 229.884 155.985H228.68L228.68 158ZM6.78972 156.355L7.69635 154.594C6.20743 153.704 4.94746 152.427 4.03076 150.878C3.11406 149.329 2.56963 147.557 2.44679 145.722L0.588272 145.87C0.733109 148.037 1.37616 150.132 2.45908 151.963C3.54201 153.793 5.03049 155.303 6.78972 156.355ZM241.776 147.419C241.925 146.59 242 145.747 242 144.903V135.266H240.136V144.903C240.136 145.618 240.073 146.331 239.947 147.033L241.776 147.419ZM0.555542 139.81H2.41946V127.835H0.555542V139.81ZM240.136 129.278H242V117.303H240.136V129.278ZM0.555542 121.848H2.41946V109.873H0.555542V121.848ZM240.136 111.316H242V99.341H240.136V111.316ZM0.555542 103.885H2.41946V91.911H0.555542V103.885ZM240.136 93.3543H242V81.3788H240.136V93.3543ZM0.555542 85.9233H2.41946V73.9488H0.555542V85.9233ZM240.136 75.3921H242V63.4168H240.136V75.3921ZM0.555542 67.9611H2.41946V55.9868H0.555542V67.9611ZM240.136 57.4301H242V45.4547H240.136V57.4301ZM0.555542 49.9991H2.41946V38.0246H0.555542V49.9991ZM240.136 39.4679H242V27.4927H240.136V39.4679ZM0.555542 32.0369H2.41946V20.0627H0.555542V32.0369ZM240.136 21.5059H242V13.4886C242.001 12.0565 241.785 10.634 241.36 9.27761L239.595 9.925C239.955 11.0727 240.138 12.2767 240.136 13.4886V21.5059ZM0.555542 14.0749H2.41946V13.4886C2.42271 11.7416 2.80637 10.02 3.53938 8.46306C4.2724 6.90613 5.33418 5.55761 6.63881 4.52663L5.54115 2.89938C3.99956 4.11748 2.74492 5.71084 1.87877 7.55048C1.01262 9.39013 0.559311 11.4244 0.555542 13.4886V14.0749ZM236.86 5.36685L238.128 3.89113C235.891 1.638 232.946 0.38721 229.888 0.391613H227.18V2.40653H229.887C232.474 2.40233 234.967 3.46043 236.86 5.36685ZM11.2996 2.50486C11.7542 2.43924 12.2124 2.40639 12.671 2.40653H22.2482V0.391613H12.671C12.1296 0.391387 11.5887 0.430159 11.052 0.507672L11.2996 2.50486ZM27.7873 2.40653H38.8642V0.391613H27.7873V2.40653ZM44.4032 2.40653H55.4803V0.391613H44.4032V2.40653ZM61.0193 2.40653H72.0963V0.391613H61.0193V2.40653ZM77.6353 2.40653H88.7124V0.391613H77.6353V2.40653ZM94.2514 2.40653H105.328V0.391613H94.2514V2.40653ZM110.867 2.40653H121.944V0.391613H110.867V2.40653ZM127.483 2.40653H138.561V0.391613H127.483V2.40653ZM144.099 2.40653H155.176V0.391613H144.099V2.40653ZM160.716 2.40653H171.793V0.391613H160.716V2.40653ZM177.331 2.40653H188.409V0.391613H177.331V2.40653ZM193.948 2.40653H205.025V0.391613H193.948V2.40653ZM210.564 2.40653H221.642V0.391613H210.564V2.40653Z" fill="white"/>
</svg>
