<svg viewBox="0 0 369 159" fill="none" xmlns="http://www.w3.org/2000/svg" preserveAspectRatio="none">
<path d="M350.484 158.572H333.555V156.545H350.484L350.713 158.571L350.484 158.572ZM325.089 158.572H308.161V156.545H325.089V158.572ZM299.695 158.572H282.766V156.545H299.695V158.572ZM274.301 158.572H257.37V156.545H274.301V158.572ZM248.907 158.572H231.976V156.545H248.907V158.572ZM223.512 158.572H206.582V156.545H223.512V158.572ZM198.118 158.572H181.187V156.545H198.118V158.572ZM172.724 158.572H155.793V156.545H172.724V158.572ZM147.329 158.572H130.399V156.545H147.329V158.572ZM121.935 158.572H105.005V156.545H121.935V158.572ZM96.5408 158.572H79.6102V156.545H96.5408V158.572ZM71.1449 158.572H54.216V156.545H71.1449V158.572ZM45.7507 158.572H28.8215V156.545H45.7507V158.572ZM20.3564 158.572H18.5161C15.7812 158.575 13.0796 158.145 10.6065 157.314C8.13341 156.483 5.95066 155.271 4.21599 153.767L6.41648 152.478C7.884 153.751 9.73079 154.777 11.8233 155.48C13.9159 156.184 16.2019 156.547 18.5162 156.545H20.3564L20.3564 158.572ZM359.472 156.917L358.087 155.145C360.362 154.25 362.288 152.965 363.689 151.407C365.09 149.848 365.922 148.065 366.11 146.22L368.95 146.368C368.729 148.549 367.746 150.656 366.091 152.498C364.436 154.34 362.161 155.859 359.472 156.917ZM0.342298 147.926C0.114659 147.092 7.62224e-05 146.245 0.000122767 145.395V135.7H2.84876V145.395C2.84849 146.115 2.94538 146.832 3.1381 147.538L0.342298 147.926ZM369 140.272H366.151V128.223H369V140.272ZM2.84865 129.675H8.66666e-06V117.627H2.84865V129.675ZM369 122.2H366.151V110.151H369V122.2ZM2.84865 111.603H8.66666e-06V99.5547H2.84865V111.603ZM369 104.127H366.151V92.0793H369V104.127ZM2.84865 93.5314H8.66666e-06V81.4826H2.84865V93.5314ZM369 86.0549H366.151V74.0072H369V86.0549ZM2.84865 75.4593H8.66666e-06V63.4108H2.84865V75.4593ZM369 67.9828H366.151V55.9353H369V67.9828ZM2.84865 57.3874H8.66666e-06V45.3387H2.84865V57.3874ZM369 49.911H366.151V37.8633H369V49.911ZM2.84865 39.3154H8.66666e-06V27.2668H2.84865V39.3154ZM369 31.8389H366.151V19.7914H369V31.8389ZM2.84865 21.2435H8.66666e-06V13.1771C-0.00195086 11.7363 0.328388 10.305 0.977858 8.94036L3.67626 9.59172C3.12597 10.7465 2.84636 11.9578 2.84865 13.1771V21.2435ZM369 13.767H366.151V13.1771C366.146 11.4194 365.56 9.68729 364.44 8.12083C363.32 6.55438 361.697 5.19761 359.703 4.16032L361.38 2.52312C363.737 3.74867 365.654 5.35177 366.978 7.20267C368.301 9.05357 368.994 11.1003 369 13.1771V13.767ZM7.85604 5.00568L5.91705 3.52093C9.3363 1.25403 13.8375 -0.00441833 18.5106 1.16562e-05H22.65V2.02726H18.512C14.5579 2.02303 10.7492 3.0876 7.85604 5.00568ZM352.58 2.12619C351.885 2.06016 351.185 2.02711 350.484 2.02726H335.847V1.16562e-05H350.484C351.311 -0.000215757 352.138 0.0387938 352.958 0.116781L352.58 2.12619ZM327.382 2.02726H310.453V1.16562e-05H327.382V2.02726ZM301.988 2.02726H285.058V1.16562e-05H301.988V2.02726ZM276.593 2.02726H259.664V1.16562e-05H276.593V2.02726ZM251.199 2.02726H234.27V1.16562e-05H251.199V2.02726ZM225.804 2.02726H208.876V1.16562e-05H225.804V2.02726ZM200.41 2.02726H183.481V1.16562e-05H200.41V2.02726ZM175.016 2.02726H158.087V1.16562e-05H175.016V2.02726ZM149.622 2.02726H132.693V1.16562e-05H149.622V2.02726ZM124.227 2.02726H107.298V1.16562e-05H124.227V2.02726ZM98.833 2.02726H81.9025V1.16562e-05H98.833V2.02726ZM73.4386 2.02726H56.5083V1.16562e-05H73.4386V2.02726ZM48.0444 2.02726H31.1138V1.16562e-05H48.0444V2.02726Z" fill="white"/>
</svg>
