<svg width="280" height="158" viewBox="0 0 280 158" fill="none" xmlns="http://www.w3.org/2000/svg">
<path d="M265.95 158H253.104V155.985H265.95L266.124 157.999L265.95 158ZM246.68 158H233.835V155.985H246.68V158ZM227.411 158H214.565V155.985H227.411V158ZM208.142 158H195.295V155.985H208.142V158ZM188.872 158H176.025V155.985H188.872V158ZM169.603 158H156.756V155.985H169.603V158ZM150.333 158H137.486V155.985H150.333V158ZM131.064 158H118.217V155.985H131.064V158ZM111.795 158H98.9476V155.985H111.795V158ZM92.5251 158H79.6783V155.985H92.5251V158ZM73.2559 158H60.4088V155.985H73.2559V158ZM53.9853 158H41.1395V155.985H53.9853V158ZM34.716 158H21.87V155.985H34.716V158ZM15.4466 158H14.0502C11.9749 158.003 9.92487 157.575 8.04828 156.749C6.17169 155.923 4.51541 154.719 3.19912 153.223L4.86887 151.942C5.98244 153.208 7.38379 154.227 8.97164 154.926C10.5595 155.626 12.2942 155.987 14.0502 155.985H15.4466L15.4466 158ZM272.77 156.355L271.719 154.594C273.446 153.704 274.907 152.427 275.97 150.878C277.033 149.329 277.664 147.557 277.807 145.722L279.962 145.87C279.794 148.037 279.048 150.132 277.792 151.963C276.537 153.793 274.81 155.303 272.77 156.355ZM0.259739 147.419C0.0870041 146.59 5.78381e-05 145.747 9.31564e-05 144.903V135.266H2.16166V144.903C2.16146 145.618 2.23498 146.331 2.38121 147.033L0.259739 147.419ZM280 139.81H277.838V127.835H280V139.81ZM2.16157 129.278H6.57632e-06V117.303H2.16157V129.278ZM280 121.848H277.838V109.873H280V121.848ZM2.16157 111.316H6.57632e-06V99.341H2.16157V111.316ZM280 103.885H277.838V91.911H280V103.885ZM2.16157 93.3543H6.57632e-06V81.3788H2.16157V93.3543ZM280 85.9233H277.838V73.9488H280V85.9233ZM2.16157 75.3921H6.57632e-06V63.4168H2.16157V75.3921ZM280 67.9611H277.838V55.9868H280V67.9611ZM2.16157 57.4301H6.57632e-06V45.4547H2.16157V57.4301ZM280 49.9991H277.838V38.0246H280V49.9991ZM2.16157 39.4679H6.57632e-06V27.4927H2.16157V39.4679ZM280 32.0369H277.838V20.0627H280V32.0369ZM2.16157 21.5059H6.57632e-06V13.4886C-0.00148033 12.0565 0.249184 10.634 0.742006 9.27761L2.78957 9.925C2.37201 11.0727 2.15984 12.2767 2.16157 13.4886V21.5059ZM280 14.0749H277.838V13.4886C277.835 11.7416 277.39 10.02 276.54 8.46306C275.69 6.90613 274.458 5.55761 272.945 4.52663L274.218 2.89938C276.006 4.11748 277.461 5.71084 278.465 7.55048C279.47 9.39013 279.996 11.4244 280 13.4886V14.0749ZM5.96122 5.36685L4.48991 3.89113C7.08446 1.638 10.5 0.38721 14.046 0.391613H17.187V2.40653H14.047C11.0467 2.40233 8.15656 3.46043 5.96122 5.36685ZM267.54 2.50486C267.013 2.43924 266.482 2.40639 265.95 2.40653H254.843V0.391613H265.95C266.578 0.391387 267.205 0.430159 267.827 0.507672L267.54 2.50486ZM248.42 2.40653H235.574V0.391613H248.42V2.40653ZM229.15 2.40653H216.304V0.391613H229.15V2.40653ZM209.881 2.40653H197.035V0.391613H209.881V2.40653ZM190.612 2.40653H177.766V0.391613H190.612V2.40653ZM171.342 2.40653H158.496V0.391613H171.342V2.40653ZM152.073 2.40653H139.227V0.391613H152.073V2.40653ZM132.803 2.40653H119.957V0.391613H132.803V2.40653ZM113.534 2.40653H100.688V0.391613H113.534V2.40653ZM94.2646 2.40653H81.4186V0.391613H94.2646V2.40653ZM74.9953 2.40653H62.1482V0.391613H74.9953V2.40653ZM55.7258 2.40653H42.8789V0.391613H55.7258V2.40653ZM36.4565 2.40653H23.6094V0.391613H36.4565V2.40653Z" fill="white"/>
</svg>
