<svg width="369" height="176" viewBox="0 0 369 176" fill="none" xmlns="http://www.w3.org/2000/svg">
<path d="M18.5161 175.634H35.4453V173.389H18.5161L18.2865 175.633L18.5161 175.634ZM43.9106 175.634H60.8395V173.389H43.9106V175.634ZM69.3047 175.634H86.2339V173.389H69.3047V175.634ZM94.6992 175.634H111.63V173.389H94.6992V175.634ZM120.093 175.634H137.024V173.389H120.093V175.634ZM145.488 175.634H162.418V173.389H145.488V175.634ZM170.882 175.634H187.813V173.389H170.882V175.634ZM196.276 175.634H213.207V173.389H196.276V175.634ZM221.671 175.634H238.601V173.389H221.671V175.634ZM247.065 175.634H263.995V173.389H247.065V175.634ZM272.459 175.634H289.39V173.389H272.459V175.634ZM297.855 175.634H314.784V173.389H297.855V175.634ZM323.249 175.634H340.178V173.389H323.249V175.634ZM348.644 175.634H350.484C353.219 175.637 355.92 175.161 358.394 174.24C360.867 173.32 363.049 171.978 364.784 170.311L362.584 168.884C361.116 170.294 359.269 171.43 357.177 172.209C355.084 172.988 352.798 173.391 350.484 173.389H348.644L348.644 175.634ZM9.52771 173.801L10.9133 171.838C8.63779 170.847 6.71219 169.424 5.31119 167.697C3.91019 165.971 3.07812 163.996 2.89041 161.952L0.0500488 162.117C0.271362 164.532 1.25415 166.866 2.90918 168.906C4.56424 170.947 6.83908 172.629 9.52771 173.801ZM368.658 163.843C368.885 162.919 369 161.98 369 161.039V150.3H366.151V161.039C366.152 161.836 366.055 162.631 365.862 163.413L368.658 163.843ZM0 155.364H2.84863V142.019H0V155.364ZM366.151 143.628H369V130.283H366.151V143.628ZM0 135.348H2.84863V122.003H0V135.348ZM366.151 123.611H369V110.266H366.151V123.611ZM0 115.33H2.84863V101.987H0V115.33ZM366.151 103.595H369V90.2498H366.151V103.595ZM0 95.314H2.84863V81.97H0V95.314ZM366.151 83.5783H369V70.2335H366.151V83.5783ZM0 75.2974H2.84863V61.9537H0V75.2974ZM366.151 63.562H369V50.2169H366.151V63.562ZM0 55.2811H2.84863V41.9372H0V55.2811ZM366.151 43.5455H369V30.2006H366.151V43.5455ZM0 35.2646H2.84863V21.9208H0V35.2646ZM366.151 23.5292H369V14.5949C369.002 12.9991 368.672 11.4138 368.022 9.9023L365.324 10.6237C365.874 11.9027 366.154 13.2444 366.151 14.5949V23.5292ZM0 15.2483H2.84863V14.5949C2.85361 12.6481 3.43994 10.7296 4.56021 8.9946C5.68048 7.25959 7.30319 5.75684 9.29709 4.60795L7.61954 2.7946C5.26349 4.15201 3.34604 5.9276 2.02231 7.97764C0.698578 10.0277 0.00576782 12.2946 0 14.5949V15.2483ZM361.144 5.54427L363.083 3.89977C359.664 1.38895 355.163 -0.00489372 350.489 1.29103e-05H346.35V2.24538H350.488C354.442 2.24069 358.251 3.41982 361.144 5.54427ZM16.4201 2.35495C17.1149 2.28182 17.8151 2.24522 18.5161 2.24538H33.153V1.29103e-05H18.5161C17.6886 -0.000238971 16.862 0.0429678 16.0418 0.129346L16.4201 2.35495ZM41.6183 2.24538H58.5471V1.29103e-05H41.6183V2.24538ZM67.0125 2.24538H83.9416V1.29103e-05H67.0125V2.24538ZM92.4069 2.24538H109.336V1.29103e-05H92.4069V2.24538ZM117.801 2.24538H134.73V1.29103e-05H117.801V2.24538ZM143.196 2.24538H160.124V1.29103e-05H143.196V2.24538ZM168.59 2.24538H185.519V1.29103e-05H168.59V2.24538ZM193.984 2.24538H210.913V1.29103e-05H193.984V2.24538ZM219.378 2.24538H236.307V1.29103e-05H219.378V2.24538ZM244.773 2.24538H261.702V1.29103e-05H244.773V2.24538ZM270.167 2.24538H287.098V1.29103e-05H270.167V2.24538ZM295.561 2.24538H312.492V1.29103e-05H295.561V2.24538ZM320.956 2.24538H337.886V1.29103e-05H320.956V2.24538Z" fill="white"/>
</svg>
