<svg width="249" height="159" viewBox="0 0 249 159" fill="none" xmlns="http://www.w3.org/2000/svg" preserveAspectRatio="none">
<path d="M12.4946 158.342H23.9184V156.32H12.4946L12.3397 158.341L12.4946 158.342ZM29.6307 158.342H41.0543V156.32H29.6307V158.342ZM46.7666 158.342H58.1904V156.32H46.7666V158.342ZM63.9027 158.342H75.3272V156.32H63.9027V158.342ZM81.0386 158.342H92.4633V156.32H81.0386V158.342ZM98.1747 158.342H109.599V156.32H98.1747V158.342ZM115.311 158.342H126.735V156.32H115.311V158.342ZM132.447 158.342H143.871V156.32H132.447V158.342ZM149.583 158.342H161.007V156.32H149.583V158.342ZM166.719 158.342H178.143V156.32H166.719V158.342ZM183.855 158.342H195.279V156.32H183.855V158.342ZM200.992 158.342H212.415V156.32H200.992V158.342ZM218.128 158.342H229.551V156.32H218.128V158.342ZM235.264 158.342H236.505C238.351 158.344 240.174 157.916 241.843 157.087C243.512 156.258 244.985 155.05 246.155 153.55L244.67 152.265C243.68 153.535 242.434 154.557 241.022 155.258C239.61 155.96 238.067 156.323 236.505 156.32H235.264L235.264 158.342ZM6.42926 156.691L7.36426 154.925C5.82875 154.032 4.52936 152.751 3.58397 151.197C2.63858 149.643 2.0771 147.865 1.95044 146.026L0.0337524 146.173C0.183121 148.348 0.846283 150.449 1.9631 152.285C3.07993 154.122 4.61497 155.636 6.42926 156.691ZM248.769 147.727C248.923 146.896 249 146.051 249 145.204V135.537H247.078V145.204C247.078 145.921 247.012 146.636 246.882 147.34L248.769 147.727ZM0 140.095H1.92224V128.082H0V140.095ZM247.078 129.53H249V117.517H247.078V129.53ZM0 122.077H1.92224V110.064H0V122.077ZM247.078 111.511H249V99.4986H247.078V111.511ZM0 104.057H1.92224V92.0453H0V104.057ZM247.078 93.4931H249V81.4801H247.078V93.4931ZM0 86.0388H1.92224V74.0268H0V86.0388ZM247.078 75.4746H249V63.4617H247.078V75.4746ZM0 68.0202H1.92224V56.0084H0V68.0202ZM247.078 57.4562H249V45.4432H247.078V57.4562ZM0 50.0019H1.92224V37.9899H0V50.0019ZM247.078 39.4377H249V27.4249H247.078V39.4377ZM0 31.9834H1.92224V19.9715H0V31.9834ZM247.078 21.4194H249V13.3768C249.001 11.9403 248.778 10.5133 248.34 9.15265L246.519 9.80208C246.891 10.9534 247.079 12.1611 247.078 13.3768V21.4194ZM0 13.965H1.92224V13.3768C1.9256 11.6244 2.32126 9.89737 3.07721 8.33555C3.83316 6.77373 4.92818 5.42098 6.27364 4.38677L5.14163 2.75442C3.55177 3.97634 2.25787 5.57469 1.36462 7.42011C0.47139 9.26552 0.00389099 11.3062 0 13.3768V13.965ZM243.699 5.22963L245.007 3.74927C242.7 1.48908 239.663 0.234364 236.509 0.238781H233.716V2.26002H236.508C239.176 2.2558 241.746 3.31723 243.699 5.22963ZM11.0802 2.35866C11.5491 2.29283 12.0216 2.25987 12.4946 2.26002H22.3715V0.238781H12.4946C11.9362 0.238554 11.3784 0.277448 10.825 0.355205L11.0802 2.35866ZM28.0839 2.26002H39.5074V0.238781H28.0839V2.26002ZM45.2198 2.26002H56.6435V0.238781H45.2198V2.26002ZM62.3559 2.26002H73.7794V0.238781H62.3559V2.26002ZM79.4918 2.26002H90.9155V0.238781H79.4918V2.26002ZM96.6279 2.26002H108.051V0.238781H96.6279V2.26002ZM113.764 2.26002H125.188V0.238781H113.764V2.26002ZM130.9 2.26002H142.324V0.238781H130.9V2.26002ZM148.036 2.26002H159.46V0.238781H148.036V2.26002ZM165.172 2.26002H176.596V0.238781H165.172V2.26002ZM182.308 2.26002H193.732V0.238781H182.308V2.26002ZM199.444 2.26002H210.868V0.238781H199.444V2.26002ZM216.58 2.26002H228.004V0.238781H216.58V2.26002Z" fill="white"/>
</svg>
